G04*
G04 #@! TF.GenerationSoftware,Altium Limited,Altium Designer,20.2.6 (244)*
G04*
G04 Layer_Physical_Order=2*
G04 Layer_Color=36540*
%FSLAX25Y25*%
%MOIN*%
G70*
G04*
G04 #@! TF.SameCoordinates,B2635FF8-235B-44FB-8225-BCA2550F652E*
G04*
G04*
G04 #@! TF.FilePolarity,Positive*
G04*
G01*
G75*
%ADD34R,0.05906X0.05906*%
%ADD35C,0.05906*%
%ADD36C,0.05000*%
G36*
X10500Y149000D02*
X151250D01*
Y9000D01*
X150000Y7750D01*
X83301D01*
X83201Y8250D01*
X83364Y8317D01*
X84054Y8846D01*
X84583Y9536D01*
X84915Y10339D01*
X85028Y11200D01*
X84915Y12061D01*
X84583Y12864D01*
X84054Y13554D01*
X83364Y14083D01*
X82561Y14415D01*
X81700Y14528D01*
X80839Y14415D01*
X80036Y14083D01*
X79346Y13554D01*
X78817Y12864D01*
X78485Y12061D01*
X78372Y11200D01*
X78485Y10339D01*
X78817Y9536D01*
X79346Y8846D01*
X80036Y8317D01*
X80199Y8250D01*
X80099Y7750D01*
X66401D01*
X66301Y8250D01*
X66464Y8317D01*
X67154Y8846D01*
X67683Y9536D01*
X68015Y10339D01*
X68129Y11200D01*
X68015Y12061D01*
X67683Y12864D01*
X67154Y13554D01*
X66464Y14083D01*
X65662Y14415D01*
X64800Y14528D01*
X63938Y14415D01*
X63136Y14083D01*
X62446Y13554D01*
X61917Y12864D01*
X61585Y12061D01*
X61471Y11200D01*
X61585Y10339D01*
X61917Y9536D01*
X62446Y8846D01*
X63136Y8317D01*
X63299Y8250D01*
X63199Y7750D01*
X51159D01*
X51060Y8250D01*
X51464Y8417D01*
X52154Y8946D01*
X52683Y9636D01*
X53015Y10439D01*
X53128Y11300D01*
X53015Y12162D01*
X52683Y12964D01*
X52154Y13654D01*
X51464Y14183D01*
X50661Y14515D01*
X49800Y14628D01*
X48939Y14515D01*
X48136Y14183D01*
X47446Y13654D01*
X46918Y12964D01*
X46585Y12162D01*
X46472Y11300D01*
X46585Y10439D01*
X46918Y9636D01*
X47446Y8946D01*
X48136Y8417D01*
X48540Y8250D01*
X48441Y7750D01*
X10000D01*
Y148847D01*
X10462Y149038D01*
X10500Y149000D01*
D02*
G37*
%LPC*%
G36*
X33500Y134921D02*
Y131500D01*
X36921D01*
X36851Y132032D01*
X36453Y132993D01*
X35819Y133819D01*
X34993Y134453D01*
X34032Y134851D01*
X33500Y134921D01*
D02*
G37*
G36*
X32500Y134921D02*
X31968Y134851D01*
X31007Y134453D01*
X30181Y133819D01*
X29547Y132993D01*
X29149Y132032D01*
X29079Y131500D01*
X32500D01*
Y134921D01*
D02*
G37*
G36*
X26753Y134753D02*
X19247D01*
Y127247D01*
X26753D01*
Y134753D01*
D02*
G37*
G36*
X32500Y130500D02*
X29079D01*
X29149Y129968D01*
X29547Y129007D01*
X30181Y128181D01*
X31007Y127547D01*
X31968Y127149D01*
X32500Y127079D01*
Y130500D01*
D02*
G37*
G36*
X36921D02*
X33500D01*
Y127079D01*
X34032Y127149D01*
X34993Y127547D01*
X35819Y128181D01*
X36453Y129007D01*
X36851Y129968D01*
X36921Y130500D01*
D02*
G37*
G36*
X58100Y132185D02*
X57120Y132056D01*
X56207Y131678D01*
X55423Y131077D01*
X54822Y130293D01*
X54444Y129380D01*
X54315Y128400D01*
X54444Y127420D01*
X54822Y126507D01*
X55423Y125724D01*
X56207Y125122D01*
X57120Y124744D01*
X58100Y124615D01*
X59080Y124744D01*
X59993Y125122D01*
X60777Y125724D01*
X61378Y126507D01*
X61756Y127420D01*
X61885Y128400D01*
X61756Y129380D01*
X61378Y130293D01*
X60777Y131077D01*
X59993Y131678D01*
X59080Y132056D01*
X58100Y132185D01*
D02*
G37*
G36*
X33000Y124785D02*
X32020Y124656D01*
X31107Y124278D01*
X30323Y123677D01*
X29722Y122893D01*
X29344Y121980D01*
X29215Y121000D01*
X29344Y120020D01*
X29722Y119107D01*
X30323Y118324D01*
X31107Y117722D01*
X32020Y117344D01*
X33000Y117215D01*
X33980Y117344D01*
X34893Y117722D01*
X35677Y118324D01*
X36278Y119107D01*
X36656Y120020D01*
X36785Y121000D01*
X36656Y121980D01*
X36278Y122893D01*
X35677Y123677D01*
X34893Y124278D01*
X33980Y124656D01*
X33000Y124785D01*
D02*
G37*
G36*
X23000D02*
X22020Y124656D01*
X21107Y124278D01*
X20324Y123677D01*
X19722Y122893D01*
X19344Y121980D01*
X19215Y121000D01*
X19344Y120020D01*
X19722Y119107D01*
X20324Y118324D01*
X21107Y117722D01*
X22020Y117344D01*
X23000Y117215D01*
X23980Y117344D01*
X24893Y117722D01*
X25677Y118324D01*
X26278Y119107D01*
X26656Y120020D01*
X26785Y121000D01*
X26656Y121980D01*
X26278Y122893D01*
X25677Y123677D01*
X24893Y124278D01*
X23980Y124656D01*
X23000Y124785D01*
D02*
G37*
G36*
X130900Y124385D02*
X129920Y124256D01*
X129007Y123878D01*
X128224Y123276D01*
X127622Y122493D01*
X127244Y121580D01*
X127115Y120600D01*
X127244Y119620D01*
X127622Y118707D01*
X128224Y117923D01*
X129007Y117322D01*
X129920Y116944D01*
X130900Y116815D01*
X131880Y116944D01*
X132793Y117322D01*
X133577Y117923D01*
X134178Y118707D01*
X134556Y119620D01*
X134685Y120600D01*
X134556Y121580D01*
X134178Y122493D01*
X133577Y123276D01*
X132793Y123878D01*
X131880Y124256D01*
X130900Y124385D01*
D02*
G37*
G36*
X119250Y122079D02*
X118388Y121965D01*
X117586Y121633D01*
X116896Y121104D01*
X116367Y120414D01*
X116035Y119612D01*
X115921Y118750D01*
X116035Y117888D01*
X116367Y117086D01*
X116896Y116396D01*
X117586Y115867D01*
X118388Y115535D01*
X119250Y115421D01*
X120112Y115535D01*
X120914Y115867D01*
X121604Y116396D01*
X122133Y117086D01*
X122465Y117888D01*
X122579Y118750D01*
X122465Y119612D01*
X122133Y120414D01*
X121604Y121104D01*
X120914Y121633D01*
X120112Y121965D01*
X119250Y122079D01*
D02*
G37*
G36*
X61853Y122153D02*
X54347D01*
Y114647D01*
X61853D01*
Y122153D01*
D02*
G37*
G36*
X33000Y114785D02*
X32020Y114656D01*
X31107Y114278D01*
X30323Y113677D01*
X29722Y112893D01*
X29344Y111980D01*
X29215Y111000D01*
X29344Y110020D01*
X29722Y109107D01*
X30323Y108324D01*
X31107Y107722D01*
X32020Y107344D01*
X33000Y107215D01*
X33980Y107344D01*
X34893Y107722D01*
X35677Y108324D01*
X36278Y109107D01*
X36656Y110020D01*
X36785Y111000D01*
X36656Y111980D01*
X36278Y112893D01*
X35677Y113677D01*
X34893Y114278D01*
X33980Y114656D01*
X33000Y114785D01*
D02*
G37*
G36*
X23000D02*
X22020Y114656D01*
X21107Y114278D01*
X20324Y113677D01*
X19722Y112893D01*
X19344Y111980D01*
X19215Y111000D01*
X19344Y110020D01*
X19722Y109107D01*
X20324Y108324D01*
X21107Y107722D01*
X22020Y107344D01*
X23000Y107215D01*
X23980Y107344D01*
X24893Y107722D01*
X25677Y108324D01*
X26278Y109107D01*
X26656Y110020D01*
X26785Y111000D01*
X26656Y111980D01*
X26278Y112893D01*
X25677Y113677D01*
X24893Y114278D01*
X23980Y114656D01*
X23000Y114785D01*
D02*
G37*
G36*
X130900Y114385D02*
X129920Y114256D01*
X129007Y113878D01*
X128224Y113277D01*
X127622Y112493D01*
X127244Y111580D01*
X127115Y110600D01*
X127244Y109620D01*
X127622Y108707D01*
X128224Y107923D01*
X129007Y107322D01*
X129920Y106944D01*
X130900Y106815D01*
X131880Y106944D01*
X132793Y107322D01*
X133577Y107923D01*
X134178Y108707D01*
X134556Y109620D01*
X134685Y110600D01*
X134556Y111580D01*
X134178Y112493D01*
X133577Y113277D01*
X132793Y113878D01*
X131880Y114256D01*
X130900Y114385D01*
D02*
G37*
G36*
X84000Y101464D02*
Y98500D01*
X86964D01*
X86910Y98914D01*
X86557Y99765D01*
X85996Y100496D01*
X85265Y101057D01*
X84414Y101410D01*
X84000Y101464D01*
D02*
G37*
G36*
X83000D02*
X82586Y101410D01*
X81735Y101057D01*
X81004Y100496D01*
X80443Y99765D01*
X80090Y98914D01*
X80036Y98500D01*
X83000D01*
Y101464D01*
D02*
G37*
G36*
X33000Y104785D02*
X32020Y104656D01*
X31107Y104278D01*
X30323Y103676D01*
X29722Y102893D01*
X29344Y101980D01*
X29215Y101000D01*
X29344Y100020D01*
X29722Y99107D01*
X30323Y98324D01*
X31107Y97722D01*
X32020Y97344D01*
X33000Y97215D01*
X33980Y97344D01*
X34893Y97722D01*
X35677Y98324D01*
X36278Y99107D01*
X36656Y100020D01*
X36785Y101000D01*
X36656Y101980D01*
X36278Y102893D01*
X35677Y103676D01*
X34893Y104278D01*
X33980Y104656D01*
X33000Y104785D01*
D02*
G37*
G36*
X23000D02*
X22020Y104656D01*
X21107Y104278D01*
X20324Y103676D01*
X19722Y102893D01*
X19344Y101980D01*
X19215Y101000D01*
X19344Y100020D01*
X19722Y99107D01*
X20324Y98324D01*
X21107Y97722D01*
X22020Y97344D01*
X23000Y97215D01*
X23980Y97344D01*
X24893Y97722D01*
X25677Y98324D01*
X26278Y99107D01*
X26656Y100020D01*
X26785Y101000D01*
X26656Y101980D01*
X26278Y102893D01*
X25677Y103676D01*
X24893Y104278D01*
X23980Y104656D01*
X23000Y104785D01*
D02*
G37*
G36*
X130900Y104385D02*
X129920Y104256D01*
X129007Y103878D01*
X128224Y103277D01*
X127622Y102493D01*
X127244Y101580D01*
X127115Y100600D01*
X127244Y99620D01*
X127622Y98707D01*
X128224Y97923D01*
X129007Y97322D01*
X129920Y96944D01*
X130900Y96815D01*
X131880Y96944D01*
X132793Y97322D01*
X133577Y97923D01*
X134178Y98707D01*
X134556Y99620D01*
X134685Y100600D01*
X134556Y101580D01*
X134178Y102493D01*
X133577Y103277D01*
X132793Y103878D01*
X131880Y104256D01*
X130900Y104385D01*
D02*
G37*
G36*
X86964Y97500D02*
X84000D01*
Y94536D01*
X84414Y94590D01*
X85265Y94943D01*
X85996Y95504D01*
X86557Y96235D01*
X86910Y97086D01*
X86964Y97500D01*
D02*
G37*
G36*
X83000D02*
X80036D01*
X80090Y97086D01*
X80443Y96235D01*
X81004Y95504D01*
X81735Y94943D01*
X82586Y94590D01*
X83000Y94536D01*
Y97500D01*
D02*
G37*
G36*
X104000Y101078D02*
X103138Y100965D01*
X102336Y100633D01*
X101646Y100104D01*
X101117Y99414D01*
X100785Y98611D01*
X100672Y97750D01*
X100785Y96889D01*
X101117Y96086D01*
X101646Y95396D01*
X102336Y94867D01*
X103138Y94535D01*
X104000Y94421D01*
X104861Y94535D01*
X105664Y94867D01*
X106354Y95396D01*
X106883Y96086D01*
X107215Y96889D01*
X107328Y97750D01*
X107215Y98611D01*
X106883Y99414D01*
X106354Y100104D01*
X105664Y100633D01*
X104861Y100965D01*
X104000Y101078D01*
D02*
G37*
G36*
X134653Y94353D02*
X127147D01*
Y86847D01*
X134653D01*
Y94353D01*
D02*
G37*
G36*
X94000Y81464D02*
Y78500D01*
X96964D01*
X96910Y78914D01*
X96557Y79765D01*
X95996Y80496D01*
X95265Y81057D01*
X94414Y81410D01*
X94000Y81464D01*
D02*
G37*
G36*
X93000D02*
X92586Y81410D01*
X91735Y81057D01*
X91004Y80496D01*
X90443Y79765D01*
X90090Y78914D01*
X90036Y78500D01*
X93000D01*
Y81464D01*
D02*
G37*
G36*
X129703Y81453D02*
X126250D01*
Y78000D01*
X129703D01*
Y81453D01*
D02*
G37*
G36*
X125250D02*
X121797D01*
Y78000D01*
X125250D01*
Y81453D01*
D02*
G37*
G36*
X96964Y77500D02*
X94000D01*
Y74536D01*
X94414Y74590D01*
X95265Y74943D01*
X95996Y75504D01*
X96557Y76235D01*
X96910Y77086D01*
X96964Y77500D01*
D02*
G37*
G36*
X93000D02*
X90036D01*
X90090Y77086D01*
X90443Y76235D01*
X91004Y75504D01*
X91735Y74943D01*
X92586Y74590D01*
X93000Y74536D01*
Y77500D01*
D02*
G37*
G36*
X129703Y77000D02*
X126250D01*
Y73547D01*
X129703D01*
Y77000D01*
D02*
G37*
G36*
X125250D02*
X121797D01*
Y73547D01*
X125250D01*
Y77000D01*
D02*
G37*
G36*
X101500Y78829D02*
X100638Y78715D01*
X99836Y78383D01*
X99146Y77854D01*
X98617Y77164D01*
X98285Y76362D01*
X98172Y75500D01*
X98285Y74638D01*
X98617Y73836D01*
X99146Y73146D01*
X99836Y72617D01*
X100638Y72285D01*
X101500Y72171D01*
X102362Y72285D01*
X103164Y72617D01*
X103854Y73146D01*
X104383Y73836D01*
X104715Y74638D01*
X104829Y75500D01*
X104715Y76362D01*
X104383Y77164D01*
X103854Y77854D01*
X103164Y78383D01*
X102362Y78715D01*
X101500Y78829D01*
D02*
G37*
G36*
X50400Y75828D02*
X49538Y75715D01*
X48736Y75383D01*
X48046Y74854D01*
X47517Y74164D01*
X47185Y73361D01*
X47071Y72500D01*
X47185Y71639D01*
X47517Y70836D01*
X48046Y70146D01*
X48736Y69617D01*
X49538Y69285D01*
X49577Y69280D01*
X49622Y69083D01*
X49597Y68773D01*
X48835Y68457D01*
X48104Y67896D01*
X47543Y67165D01*
X47190Y66314D01*
X47136Y65900D01*
X54064D01*
X54010Y66314D01*
X53657Y67165D01*
X53096Y67896D01*
X52365Y68457D01*
X51514Y68810D01*
X51414Y68823D01*
X51376Y69332D01*
X52064Y69617D01*
X52754Y70146D01*
X53283Y70836D01*
X53615Y71639D01*
X53728Y72500D01*
X53615Y73361D01*
X53283Y74164D01*
X52754Y74854D01*
X52064Y75383D01*
X51262Y75715D01*
X50400Y75828D01*
D02*
G37*
G36*
X125750Y71285D02*
X124770Y71156D01*
X123857Y70778D01*
X123073Y70177D01*
X122472Y69393D01*
X122094Y68480D01*
X121965Y67500D01*
X122094Y66520D01*
X122472Y65607D01*
X123073Y64824D01*
X123857Y64222D01*
X124770Y63844D01*
X125750Y63715D01*
X126730Y63844D01*
X127643Y64222D01*
X128427Y64824D01*
X129028Y65607D01*
X129406Y66520D01*
X129535Y67500D01*
X129406Y68480D01*
X129028Y69393D01*
X128427Y70177D01*
X127643Y70778D01*
X126730Y71156D01*
X125750Y71285D01*
D02*
G37*
G36*
X74800Y69328D02*
X73939Y69215D01*
X73136Y68883D01*
X72446Y68354D01*
X71917Y67664D01*
X71585Y66861D01*
X71472Y66000D01*
X71585Y65139D01*
X71917Y64336D01*
X72446Y63646D01*
X73136Y63117D01*
X73939Y62785D01*
X74800Y62672D01*
X75661Y62785D01*
X76464Y63117D01*
X77154Y63646D01*
X77683Y64336D01*
X78015Y65139D01*
X78128Y66000D01*
X78015Y66861D01*
X77683Y67664D01*
X77154Y68354D01*
X76464Y68883D01*
X75661Y69215D01*
X74800Y69328D01*
D02*
G37*
G36*
X54064Y64900D02*
X51100D01*
Y61936D01*
X51514Y61990D01*
X52365Y62343D01*
X53096Y62904D01*
X53657Y63635D01*
X54010Y64486D01*
X54064Y64900D01*
D02*
G37*
G36*
X50100D02*
X47136D01*
X47190Y64486D01*
X47543Y63635D01*
X48104Y62904D01*
X48835Y62343D01*
X49686Y61990D01*
X50100Y61936D01*
Y64900D01*
D02*
G37*
G36*
X68600Y65429D02*
X67738Y65315D01*
X66936Y64983D01*
X66246Y64454D01*
X65717Y63764D01*
X65385Y62962D01*
X65272Y62100D01*
X65385Y61238D01*
X65717Y60436D01*
X66246Y59746D01*
X66936Y59217D01*
X67738Y58885D01*
X68600Y58772D01*
X69462Y58885D01*
X70264Y59217D01*
X70954Y59746D01*
X71483Y60436D01*
X71815Y61238D01*
X71929Y62100D01*
X71815Y62962D01*
X71483Y63764D01*
X70954Y64454D01*
X70264Y64983D01*
X69462Y65315D01*
X68600Y65429D01*
D02*
G37*
G36*
X33500Y60421D02*
Y57000D01*
X36921D01*
X36851Y57532D01*
X36453Y58493D01*
X35819Y59319D01*
X34993Y59953D01*
X34032Y60351D01*
X33500Y60421D01*
D02*
G37*
G36*
X32500Y60421D02*
X31968Y60351D01*
X31007Y59953D01*
X30181Y59319D01*
X29547Y58493D01*
X29149Y57532D01*
X29079Y57000D01*
X32500D01*
Y60421D01*
D02*
G37*
G36*
X125750Y61285D02*
X124770Y61156D01*
X123857Y60778D01*
X123073Y60176D01*
X122472Y59393D01*
X122094Y58480D01*
X121965Y57500D01*
X122094Y56520D01*
X122472Y55607D01*
X123073Y54823D01*
X123857Y54222D01*
X124770Y53844D01*
X125750Y53715D01*
X126730Y53844D01*
X127643Y54222D01*
X128427Y54823D01*
X129028Y55607D01*
X129406Y56520D01*
X129535Y57500D01*
X129406Y58480D01*
X129028Y59393D01*
X128427Y60176D01*
X127643Y60778D01*
X126730Y61156D01*
X125750Y61285D01*
D02*
G37*
G36*
X26753Y60253D02*
X19247D01*
Y52747D01*
X26753D01*
Y60253D01*
D02*
G37*
G36*
X32500Y56000D02*
X29079D01*
X29149Y55468D01*
X29547Y54507D01*
X30181Y53681D01*
X31007Y53047D01*
X31968Y52649D01*
X32500Y52579D01*
Y56000D01*
D02*
G37*
G36*
X36921D02*
X33500D01*
Y52579D01*
X34032Y52649D01*
X34993Y53047D01*
X35819Y53681D01*
X36453Y54507D01*
X36851Y55468D01*
X36921Y56000D01*
D02*
G37*
G36*
X69200Y56828D02*
X68339Y56715D01*
X67536Y56383D01*
X66846Y55854D01*
X66317Y55164D01*
X65985Y54361D01*
X65872Y53500D01*
X65985Y52639D01*
X66317Y51836D01*
X66846Y51146D01*
X67536Y50617D01*
X68339Y50285D01*
X69200Y50172D01*
X70061Y50285D01*
X70864Y50617D01*
X71554Y51146D01*
X72083Y51836D01*
X72415Y52639D01*
X72528Y53500D01*
X72415Y54361D01*
X72083Y55164D01*
X71554Y55854D01*
X70864Y56383D01*
X70061Y56715D01*
X69200Y56828D01*
D02*
G37*
G36*
X59500Y47714D02*
Y44750D01*
X62464D01*
X62410Y45164D01*
X62057Y46015D01*
X61496Y46746D01*
X60765Y47307D01*
X59914Y47660D01*
X59500Y47714D01*
D02*
G37*
G36*
X58500D02*
X58086Y47660D01*
X57235Y47307D01*
X56504Y46746D01*
X55943Y46015D01*
X55590Y45164D01*
X55536Y44750D01*
X58500D01*
Y47714D01*
D02*
G37*
G36*
X51600Y50428D02*
X50739Y50315D01*
X49936Y49983D01*
X49246Y49454D01*
X48717Y48764D01*
X48385Y47962D01*
X48272Y47100D01*
X48385Y46238D01*
X48717Y45436D01*
X49246Y44746D01*
X49936Y44218D01*
X50739Y43885D01*
X51600Y43771D01*
X52461Y43885D01*
X53264Y44218D01*
X53954Y44746D01*
X54483Y45436D01*
X54815Y46238D01*
X54928Y47100D01*
X54815Y47962D01*
X54483Y48764D01*
X53954Y49454D01*
X53264Y49983D01*
X52461Y50315D01*
X51600Y50428D01*
D02*
G37*
G36*
X125750Y51285D02*
X124770Y51156D01*
X123857Y50778D01*
X123073Y50177D01*
X122472Y49393D01*
X122094Y48480D01*
X121965Y47500D01*
X122094Y46520D01*
X122472Y45607D01*
X123073Y44824D01*
X123857Y44222D01*
X124770Y43844D01*
X125750Y43715D01*
X126730Y43844D01*
X127643Y44222D01*
X128427Y44824D01*
X129028Y45607D01*
X129406Y46520D01*
X129535Y47500D01*
X129406Y48480D01*
X129028Y49393D01*
X128427Y50177D01*
X127643Y50778D01*
X126730Y51156D01*
X125750Y51285D01*
D02*
G37*
G36*
X33000Y50285D02*
X32020Y50156D01*
X31107Y49778D01*
X30323Y49176D01*
X29722Y48393D01*
X29344Y47480D01*
X29215Y46500D01*
X29344Y45520D01*
X29722Y44607D01*
X30323Y43824D01*
X31107Y43222D01*
X32020Y42844D01*
X33000Y42715D01*
X33980Y42844D01*
X34893Y43222D01*
X35677Y43824D01*
X36278Y44607D01*
X36656Y45520D01*
X36785Y46500D01*
X36656Y47480D01*
X36278Y48393D01*
X35677Y49176D01*
X34893Y49778D01*
X33980Y50156D01*
X33000Y50285D01*
D02*
G37*
G36*
X23000D02*
X22020Y50156D01*
X21107Y49778D01*
X20324Y49176D01*
X19722Y48393D01*
X19344Y47480D01*
X19215Y46500D01*
X19344Y45520D01*
X19722Y44607D01*
X20324Y43824D01*
X21107Y43222D01*
X22020Y42844D01*
X23000Y42715D01*
X23980Y42844D01*
X24893Y43222D01*
X25677Y43824D01*
X26278Y44607D01*
X26656Y45520D01*
X26785Y46500D01*
X26656Y47480D01*
X26278Y48393D01*
X25677Y49176D01*
X24893Y49778D01*
X23980Y50156D01*
X23000Y50285D01*
D02*
G37*
G36*
X62464Y43750D02*
X59500D01*
Y40786D01*
X59914Y40840D01*
X60765Y41193D01*
X61496Y41754D01*
X62057Y42485D01*
X62410Y43336D01*
X62464Y43750D01*
D02*
G37*
G36*
X58500D02*
X55536D01*
X55590Y43336D01*
X55943Y42485D01*
X56504Y41754D01*
X57235Y41193D01*
X58086Y40840D01*
X58500Y40786D01*
Y43750D01*
D02*
G37*
G36*
X125750Y41285D02*
X124770Y41156D01*
X123857Y40778D01*
X123073Y40176D01*
X122472Y39393D01*
X122094Y38480D01*
X121965Y37500D01*
X122094Y36520D01*
X122472Y35607D01*
X123073Y34824D01*
X123857Y34222D01*
X124770Y33844D01*
X125750Y33715D01*
X126730Y33844D01*
X127643Y34222D01*
X128427Y34824D01*
X129028Y35607D01*
X129406Y36520D01*
X129535Y37500D01*
X129406Y38480D01*
X129028Y39393D01*
X128427Y40176D01*
X127643Y40778D01*
X126730Y41156D01*
X125750Y41285D01*
D02*
G37*
G36*
X33000Y40285D02*
X32020Y40156D01*
X31107Y39778D01*
X30323Y39176D01*
X29722Y38393D01*
X29344Y37480D01*
X29215Y36500D01*
X29344Y35520D01*
X29722Y34607D01*
X30323Y33823D01*
X31107Y33222D01*
X32020Y32844D01*
X33000Y32715D01*
X33980Y32844D01*
X34893Y33222D01*
X35677Y33823D01*
X36278Y34607D01*
X36656Y35520D01*
X36785Y36500D01*
X36656Y37480D01*
X36278Y38393D01*
X35677Y39176D01*
X34893Y39778D01*
X33980Y40156D01*
X33000Y40285D01*
D02*
G37*
G36*
X23000D02*
X22020Y40156D01*
X21107Y39778D01*
X20324Y39176D01*
X19722Y38393D01*
X19344Y37480D01*
X19215Y36500D01*
X19344Y35520D01*
X19722Y34607D01*
X20324Y33823D01*
X21107Y33222D01*
X22020Y32844D01*
X23000Y32715D01*
X23980Y32844D01*
X24893Y33222D01*
X25677Y33823D01*
X26278Y34607D01*
X26656Y35520D01*
X26785Y36500D01*
X26656Y37480D01*
X26278Y38393D01*
X25677Y39176D01*
X24893Y39778D01*
X23980Y40156D01*
X23000Y40285D01*
D02*
G37*
G36*
X74200Y38328D02*
X73339Y38215D01*
X72536Y37883D01*
X71846Y37354D01*
X71317Y36664D01*
X70985Y35862D01*
X70872Y35000D01*
X70985Y34139D01*
X71317Y33336D01*
X71846Y32646D01*
X72536Y32118D01*
X73339Y31785D01*
X74200Y31672D01*
X75062Y31785D01*
X75864Y32118D01*
X76554Y32646D01*
X77083Y33336D01*
X77415Y34139D01*
X77529Y35000D01*
X77415Y35862D01*
X77083Y36664D01*
X76554Y37354D01*
X75864Y37883D01*
X75062Y38215D01*
X74200Y38328D01*
D02*
G37*
G36*
X50200Y33264D02*
Y30300D01*
X53164D01*
X53110Y30714D01*
X52757Y31565D01*
X52196Y32296D01*
X51465Y32857D01*
X50614Y33210D01*
X50200Y33264D01*
D02*
G37*
G36*
X49200D02*
X48786Y33210D01*
X47935Y32857D01*
X47204Y32296D01*
X46643Y31565D01*
X46290Y30714D01*
X46236Y30300D01*
X49200D01*
Y33264D01*
D02*
G37*
G36*
X65500Y32764D02*
Y29800D01*
X68464D01*
X68410Y30214D01*
X68057Y31065D01*
X67496Y31796D01*
X66765Y32357D01*
X65914Y32710D01*
X65500Y32764D01*
D02*
G37*
G36*
X64500D02*
X64086Y32710D01*
X63235Y32357D01*
X62504Y31796D01*
X61943Y31065D01*
X61590Y30214D01*
X61536Y29800D01*
X64500D01*
Y32764D01*
D02*
G37*
G36*
X98600Y32664D02*
Y29700D01*
X101564D01*
X101510Y30114D01*
X101157Y30965D01*
X100596Y31696D01*
X99865Y32257D01*
X99014Y32610D01*
X98600Y32664D01*
D02*
G37*
G36*
X97600D02*
X97186Y32610D01*
X96335Y32257D01*
X95604Y31696D01*
X95043Y30965D01*
X94690Y30114D01*
X94636Y29700D01*
X97600D01*
Y32664D01*
D02*
G37*
G36*
X82100D02*
Y29700D01*
X85064D01*
X85010Y30114D01*
X84657Y30965D01*
X84096Y31696D01*
X83365Y32257D01*
X82514Y32610D01*
X82100Y32664D01*
D02*
G37*
G36*
X81100D02*
X80686Y32610D01*
X79835Y32257D01*
X79104Y31696D01*
X78543Y30965D01*
X78190Y30114D01*
X78136Y29700D01*
X81100D01*
Y32664D01*
D02*
G37*
G36*
X53164Y29300D02*
X50200D01*
Y26336D01*
X50614Y26390D01*
X51465Y26743D01*
X52196Y27304D01*
X52757Y28035D01*
X53110Y28886D01*
X53164Y29300D01*
D02*
G37*
G36*
X49200D02*
X46236D01*
X46290Y28886D01*
X46643Y28035D01*
X47204Y27304D01*
X47935Y26743D01*
X48786Y26390D01*
X49200Y26336D01*
Y29300D01*
D02*
G37*
G36*
X68464Y28800D02*
X65500D01*
Y25836D01*
X65914Y25890D01*
X66765Y26243D01*
X67496Y26804D01*
X68057Y27535D01*
X68410Y28386D01*
X68464Y28800D01*
D02*
G37*
G36*
X64500D02*
X61536D01*
X61590Y28386D01*
X61943Y27535D01*
X62504Y26804D01*
X63235Y26243D01*
X64086Y25890D01*
X64500Y25836D01*
Y28800D01*
D02*
G37*
G36*
X101564Y28700D02*
X98600D01*
Y25736D01*
X99014Y25790D01*
X99865Y26143D01*
X100596Y26704D01*
X101157Y27435D01*
X101510Y28286D01*
X101564Y28700D01*
D02*
G37*
G36*
X97600D02*
X94636D01*
X94690Y28286D01*
X95043Y27435D01*
X95604Y26704D01*
X96335Y26143D01*
X97186Y25790D01*
X97600Y25736D01*
Y28700D01*
D02*
G37*
G36*
X85064D02*
X82100D01*
Y25736D01*
X82514Y25790D01*
X83365Y26143D01*
X84096Y26704D01*
X84657Y27435D01*
X85010Y28286D01*
X85064Y28700D01*
D02*
G37*
G36*
X81100D02*
X78136D01*
X78190Y28286D01*
X78543Y27435D01*
X79104Y26704D01*
X79835Y26143D01*
X80686Y25790D01*
X81100Y25736D01*
Y28700D01*
D02*
G37*
G36*
X33000Y30285D02*
X32020Y30156D01*
X31107Y29778D01*
X30323Y29177D01*
X29722Y28393D01*
X29344Y27480D01*
X29215Y26500D01*
X29344Y25520D01*
X29722Y24607D01*
X30323Y23823D01*
X31107Y23222D01*
X32020Y22844D01*
X33000Y22715D01*
X33980Y22844D01*
X34893Y23222D01*
X35677Y23823D01*
X36278Y24607D01*
X36656Y25520D01*
X36785Y26500D01*
X36656Y27480D01*
X36278Y28393D01*
X35677Y29177D01*
X34893Y29778D01*
X33980Y30156D01*
X33000Y30285D01*
D02*
G37*
G36*
X23000D02*
X22020Y30156D01*
X21107Y29778D01*
X20324Y29177D01*
X19722Y28393D01*
X19344Y27480D01*
X19215Y26500D01*
X19344Y25520D01*
X19722Y24607D01*
X20324Y23823D01*
X21107Y23222D01*
X22020Y22844D01*
X23000Y22715D01*
X23980Y22844D01*
X24893Y23222D01*
X25677Y23823D01*
X26278Y24607D01*
X26656Y25520D01*
X26785Y26500D01*
X26656Y27480D01*
X26278Y28393D01*
X25677Y29177D01*
X24893Y29778D01*
X23980Y30156D01*
X23000Y30285D01*
D02*
G37*
G36*
X98100Y15029D02*
X97238Y14915D01*
X96436Y14583D01*
X95746Y14054D01*
X95217Y13364D01*
X94885Y12562D01*
X94771Y11700D01*
X94885Y10838D01*
X95217Y10036D01*
X95746Y9346D01*
X96436Y8817D01*
X97238Y8485D01*
X98100Y8371D01*
X98962Y8485D01*
X99764Y8817D01*
X100454Y9346D01*
X100983Y10036D01*
X101315Y10838D01*
X101428Y11700D01*
X101315Y12562D01*
X100983Y13364D01*
X100454Y14054D01*
X99764Y14583D01*
X98962Y14915D01*
X98100Y15029D01*
D02*
G37*
%LPD*%
D34*
X125750Y77500D02*
D03*
D35*
X33000Y131000D02*
D03*
Y56500D02*
D03*
D36*
X98100Y29200D02*
D03*
X81600D02*
D03*
X83500Y98000D02*
D03*
X59000Y44250D02*
D03*
X50600Y65400D02*
D03*
X93500Y78000D02*
D03*
X49700Y29800D02*
D03*
X65000Y29300D02*
D03*
M02*
