G04*
G04 #@! TF.GenerationSoftware,Altium Limited,Altium Designer,20.2.6 (244)*
G04*
G04 Layer_Physical_Order=1*
G04 Layer_Color=255*
%FSLAX25Y25*%
%MOIN*%
G70*
G04*
G04 #@! TF.SameCoordinates,B2635FF8-235B-44FB-8225-BCA2550F652E*
G04*
G04*
G04 #@! TF.FilePolarity,Positive*
G04*
G01*
G75*
%ADD13C,0.01000*%
%ADD15O,0.06102X0.00984*%
%ADD16O,0.00984X0.06102*%
%ADD17R,0.05118X0.02756*%
%ADD18R,0.03583X0.04803*%
%ADD19R,0.03543X0.02756*%
%ADD20R,0.02756X0.03543*%
%ADD21R,0.04331X0.07874*%
%ADD22R,0.05315X0.03740*%
%ADD32C,0.02000*%
%ADD33C,0.01500*%
%ADD34R,0.05906X0.05906*%
%ADD35C,0.05906*%
%ADD36C,0.05000*%
D13*
X122711Y36300D02*
X122973Y36561D01*
X37000Y97000D02*
X52800D01*
X65000Y56600D02*
Y58500D01*
X78387Y37863D02*
X82000Y34250D01*
X80453Y38831D02*
X82784Y36500D01*
X76484Y37284D02*
Y44654D01*
X134800Y30050D02*
Y77800D01*
X49700Y26523D02*
Y29800D01*
X64800Y15335D02*
X67113Y17647D01*
Y23553D02*
X67900D01*
X67250Y35500D02*
X70610Y38860D01*
X35250Y46750D02*
X43432D01*
X119539Y27211D02*
X131961D01*
X37000Y21000D02*
X41000Y25000D01*
X23000Y26500D02*
X23750Y27250D01*
X93000Y97953D02*
X93500Y98453D01*
X109578Y33750D02*
X116578D01*
X15000Y53200D02*
X21700Y46500D01*
X12800Y47400D02*
Y120300D01*
X66579Y79487D02*
Y79867D01*
X23799Y97501D02*
Y100201D01*
X125750Y47500D02*
X133000Y40250D01*
X124200Y93900D02*
X130900Y100600D01*
X98100Y15635D02*
X100213Y17747D01*
Y23653D02*
X101000D01*
X70610Y38860D02*
Y41663D01*
X84203Y84250D02*
X100250D01*
X91347Y63453D02*
X91354Y63445D01*
X115750Y31000D02*
X119539Y27211D01*
X132789Y25211D02*
X137300Y29722D01*
X28094Y98734D02*
X32578Y94250D01*
X70579Y84531D02*
X74297Y88250D01*
X20000Y21000D02*
X37000D01*
X43750Y51750D02*
X51516Y59516D01*
X98000Y111750D02*
X99730Y110020D01*
X84302Y38500D02*
X104828D01*
X52200Y51100D02*
X54710Y53610D01*
X52656Y71327D02*
X59654D01*
X41000Y25000D02*
Y30500D01*
X124368Y128228D02*
Y130000D01*
X65000Y25665D02*
Y29300D01*
X49800Y11300D02*
Y15477D01*
X53630Y63453D02*
X59654D01*
X68610Y40360D02*
Y44654D01*
X99500Y71816D02*
X101500Y73817D01*
X108250Y61750D02*
Y76250D01*
X28250Y41500D02*
X31250Y44500D01*
X74516Y79211D02*
Y82169D01*
X59404Y44654D02*
X64650D01*
X59000Y44250D02*
X59404Y44654D01*
X99392Y69358D02*
X99500Y69250D01*
X118664Y25164D02*
X118711Y25211D01*
X28094Y98734D02*
Y105906D01*
X17000Y30500D02*
X23000Y36500D01*
X54197Y57516D02*
X56629D01*
X114953Y92047D02*
X115000Y92094D01*
X98000Y116500D02*
X99000Y117500D01*
X98000Y111750D02*
Y116500D01*
X110000Y36300D02*
X122711D01*
X104828Y38500D02*
X109578Y33750D01*
X12800Y47400D02*
X18700Y41500D01*
X52200Y47700D02*
Y51100D01*
X50400Y72500D02*
X51482D01*
X82784Y36500D02*
X104000D01*
X35719Y32047D02*
X43672Y40000D01*
X124200Y88400D02*
Y93900D01*
X98100Y25765D02*
Y29200D01*
X81700Y11200D02*
Y15277D01*
X81600Y25665D02*
Y29200D01*
X52170Y17847D02*
X52700D01*
X104000Y36500D02*
X109500Y31000D01*
X66600Y41204D02*
Y42100D01*
X65396Y40000D02*
X66600Y41204D01*
X120828Y29500D02*
X130922D01*
X23000Y111000D02*
X28094Y105906D01*
X32500Y121000D02*
X33000D01*
X92418Y78000D02*
X93500D01*
X103976Y97726D02*
X104000Y97750D01*
X99000Y117500D02*
X102949D01*
X96627Y49673D02*
X110000Y36300D01*
X33000Y101000D02*
X37000Y97000D01*
X52800D02*
X68579Y81221D01*
X32578Y94250D02*
X52196D01*
X23000Y101000D02*
X23799Y100201D01*
X59654Y55579D02*
X63979D01*
X80453Y38831D02*
Y41629D01*
X49700Y26523D02*
X52470Y23753D01*
X83713Y23553D02*
X84500D01*
X82000Y34250D02*
X102750D01*
X59654Y51642D02*
X66259D01*
X51682Y65400D02*
X53630Y63453D01*
X66250Y38000D02*
X68610Y40360D01*
X100250Y84250D02*
X108250Y76250D01*
X43432Y46750D02*
X54197Y57516D01*
X70579Y79211D02*
Y84531D01*
X109500Y31000D02*
X115750D01*
X74516Y82169D02*
X80203Y87856D01*
Y88250D01*
X17000Y24000D02*
X20000Y21000D01*
X27453Y27250D02*
X32250Y32047D01*
X28250Y51750D02*
X43750D01*
X108250Y61750D02*
X112500Y57500D01*
X116578Y33750D02*
X120828Y29500D01*
X21700Y46500D02*
X23000D01*
X15000Y113000D02*
X23000Y121000D01*
X68579Y79371D02*
Y81221D01*
X64673Y76346D02*
Y79227D01*
X29145Y92155D02*
X51745D01*
X23799Y97501D02*
X29145Y92155D01*
X82400Y40402D02*
Y41900D01*
X51600Y47100D02*
X52200Y47700D01*
X46000Y35500D02*
X67250D01*
X33000Y26500D02*
X44500Y38000D01*
X130900Y90600D02*
X137300Y84200D01*
X131961Y27211D02*
X134800Y30050D01*
X130922Y29500D02*
X133000Y31578D01*
X98100Y11700D02*
Y15635D01*
X84070Y17647D02*
X84500D01*
X78387Y37863D02*
Y41504D01*
X66259Y51642D02*
X68118Y53500D01*
X51516Y59516D02*
X56789D01*
X17000Y24000D02*
Y30500D01*
X28000Y125500D02*
X32500Y121000D01*
X112500Y57500D02*
X125750D01*
X92953Y98000D02*
X93000Y97953D01*
X124811Y36561D02*
X125750Y37500D01*
X15000Y53200D02*
Y113000D01*
X12800Y120300D02*
X18000Y125500D01*
X65000Y58500D02*
X68600Y62100D01*
X33000Y36500D02*
X33500D01*
X32250Y32047D02*
X35719D01*
X41000Y30500D02*
X46000Y35500D01*
X81700Y15277D02*
X84070Y17647D01*
X81600Y25665D02*
X83713Y23553D01*
X67113Y17647D02*
X67900D01*
X72547Y69335D02*
Y76346D01*
Y69335D02*
X74800Y67082D01*
X68118Y53500D02*
X69200D01*
X101500Y73817D02*
Y75500D01*
X91354Y63445D02*
X99400D01*
X99500Y63345D01*
X78453Y41570D02*
Y41789D01*
X115368Y28461D02*
X118664Y25164D01*
X118711Y25211D02*
X132789D01*
X18000Y125500D02*
X28000D01*
X23000Y46500D02*
X28250Y51750D01*
X86327Y76346D02*
X86335Y76354D01*
X91347Y49673D02*
X96627D01*
X122973Y36561D02*
X124811D01*
X18700Y41500D02*
X28250D01*
X51745Y92155D02*
X64673Y79227D01*
X52196Y94250D02*
X66579Y79867D01*
X82400Y40402D02*
X84302Y38500D01*
X63979Y55579D02*
X65000Y56600D01*
X54710Y53610D02*
X59654D01*
X51482Y72500D02*
X52656Y71327D01*
X74200Y35000D02*
X76484Y37284D01*
X43672Y40000D02*
X65396D01*
X44500Y38000D02*
X66250D01*
X130900Y120600D02*
Y121696D01*
X137300Y29722D02*
Y84200D01*
X124200Y88400D02*
X134800Y77800D01*
X133000Y31578D02*
Y40250D01*
X65000Y25665D02*
X67113Y23553D01*
X98100Y25765D02*
X100213Y23653D01*
X49800Y15477D02*
X52170Y17847D01*
X64800Y11200D02*
Y15335D01*
X52470Y23753D02*
X52700D01*
X100213Y17747D02*
X101000D01*
X102750Y34250D02*
X108539Y28461D01*
X74800Y66000D02*
Y67082D01*
X50600Y65400D02*
X51682D01*
X78387Y41504D02*
X78453Y41570D01*
X94211Y69358D02*
X99392D01*
X91347Y63453D02*
X91370Y63476D01*
X108539Y28461D02*
X115368D01*
X80203Y88250D02*
X84203Y84250D01*
X23750Y27250D02*
X27453D01*
X99500Y69250D02*
Y71816D01*
X99730Y110020D02*
X102949D01*
D15*
X91347Y71327D02*
D03*
Y69358D02*
D03*
Y67390D02*
D03*
Y65421D02*
D03*
Y63453D02*
D03*
Y61484D02*
D03*
Y59516D02*
D03*
Y57547D02*
D03*
Y55579D02*
D03*
Y53610D02*
D03*
Y51642D02*
D03*
Y49673D02*
D03*
X59654D02*
D03*
Y51642D02*
D03*
Y53610D02*
D03*
Y55579D02*
D03*
Y57547D02*
D03*
Y59516D02*
D03*
Y61484D02*
D03*
Y63453D02*
D03*
Y65421D02*
D03*
Y67390D02*
D03*
Y69358D02*
D03*
Y71327D02*
D03*
D16*
X86327Y44654D02*
D03*
X84358D02*
D03*
X82390D02*
D03*
X80421D02*
D03*
X78453D02*
D03*
X76484D02*
D03*
X74516D02*
D03*
X72547D02*
D03*
X70579D02*
D03*
X68610D02*
D03*
X66642D02*
D03*
X64673D02*
D03*
Y76346D02*
D03*
X66642D02*
D03*
X68610D02*
D03*
X70579D02*
D03*
X72547D02*
D03*
X74516D02*
D03*
X76484D02*
D03*
X78453D02*
D03*
X80421D02*
D03*
X82390D02*
D03*
X84358D02*
D03*
X86327D02*
D03*
D17*
X102949Y110020D02*
D03*
Y113760D02*
D03*
Y117500D02*
D03*
X93500D02*
D03*
Y110020D02*
D03*
D18*
X104000Y130000D02*
D03*
X91126D02*
D03*
D19*
X99500Y63345D02*
D03*
Y69250D02*
D03*
D20*
X74297Y88250D02*
D03*
X80203D02*
D03*
D21*
X114132Y130000D02*
D03*
X124368D02*
D03*
D22*
X101000Y17747D02*
D03*
Y23653D02*
D03*
X84500Y17647D02*
D03*
Y23553D02*
D03*
X67900Y17647D02*
D03*
Y23553D02*
D03*
X52700Y17847D02*
D03*
Y23753D02*
D03*
X93000Y92047D02*
D03*
Y97953D02*
D03*
X115000Y92094D02*
D03*
Y98000D02*
D03*
D32*
X93000Y92047D02*
X103976D01*
X106980Y110020D02*
X115000Y102000D01*
X94293Y128731D02*
X102949Y120075D01*
X124368Y128228D02*
X130900Y121696D01*
X113010Y113760D02*
X117000Y117750D01*
X59654Y45000D02*
Y49000D01*
X87050Y76354D02*
X90772D01*
X91917Y128731D02*
X94293D01*
X83500Y98000D02*
X92953D01*
X115000Y100000D02*
Y102000D01*
X102949Y117500D02*
Y120075D01*
X91126Y129523D02*
X91917Y128731D01*
X93500Y98453D02*
Y110020D01*
X102949D02*
X106980D01*
X90772Y76354D02*
X92418Y78000D01*
X105250Y130000D02*
X112750D01*
X93500Y73500D02*
Y78000D01*
X103976Y92047D02*
Y97726D01*
X105250Y113760D02*
X113010D01*
X91875Y71875D02*
X93500Y73500D01*
X103976Y92047D02*
X114953D01*
X91126Y129523D02*
Y130000D01*
D33*
X74297Y93547D02*
X78750Y98000D01*
X83500D01*
X74297Y88250D02*
Y93547D01*
D34*
X58100Y118400D02*
D03*
X23000Y131000D02*
D03*
Y56500D02*
D03*
X125750Y77500D02*
D03*
X130900Y90600D02*
D03*
D35*
X58100Y128400D02*
D03*
X33000Y101000D02*
D03*
X23000D02*
D03*
X33000Y111000D02*
D03*
X23000D02*
D03*
X33000Y121000D02*
D03*
X23000D02*
D03*
X33000Y131000D02*
D03*
Y26500D02*
D03*
X23000D02*
D03*
X33000Y36500D02*
D03*
X23000D02*
D03*
X33000Y46500D02*
D03*
X23000D02*
D03*
X33000Y56500D02*
D03*
X125750Y37500D02*
D03*
Y47500D02*
D03*
Y57500D02*
D03*
Y67500D02*
D03*
X130900Y120600D02*
D03*
Y110600D02*
D03*
Y100600D02*
D03*
D36*
X98100Y29200D02*
D03*
X81600D02*
D03*
X74200Y35000D02*
D03*
X74800Y66000D02*
D03*
X83500Y98000D02*
D03*
X59000Y44250D02*
D03*
X51600Y47100D02*
D03*
X50400Y72500D02*
D03*
X49800Y11300D02*
D03*
X69200Y53500D02*
D03*
X50600Y65400D02*
D03*
X93500Y78000D02*
D03*
X119250Y118750D02*
D03*
X64800Y11200D02*
D03*
X98100Y11700D02*
D03*
X49700Y29800D02*
D03*
X101500Y75500D02*
D03*
X65000Y29300D02*
D03*
X104000Y97750D02*
D03*
X68600Y62100D02*
D03*
X81700Y11200D02*
D03*
M02*
