M48
;Layer_Color=9474304
;FILE_FORMAT=2:4
INCH,TZ
T3F00S00C0.2000
%
G90
G05
T03
G00X15274Y-400
M15
G01X15465Y-341
G01X15641Y-246
G01X15858Y-45
G01X16091Y245
G01X16199Y413
G01X16272Y599
G01X16310Y870
G01X16310Y14872
G01X16290Y15070
G01X16231Y15261
G01X16135Y15436
G01X16040Y15555
G01X15808Y15803
G01X15657Y15935
G01X15484Y16034
G01X15294Y16096
G01X15078Y16120
G01X1120Y16120
G01X921Y16100
G01X730Y16041
G01X555Y15945
G01X470Y15880
G01X156Y15612
G01X18Y15467
G01X-88Y15298
G01X-159Y15112
G01X-194Y14852
G01X-194Y841
G01X-174Y642
G01X-115Y451
G01X-19Y276
G01X110Y123
G01X212Y36
G01X526Y-195
G01X698Y-297
G01X887Y-363
G01X1118Y-391
G01X15076Y-420
G01X15274Y-400
M16
M17
M30
