G04*
G04 #@! TF.GenerationSoftware,Altium Limited,Altium Designer,20.2.6 (244)*
G04*
G04 Layer_Color=16711935*
%FSLAX25Y25*%
%MOIN*%
G70*
G04*
G04 #@! TF.SameCoordinates,B2635FF8-235B-44FB-8225-BCA2550F652E*
G04*
G04*
G04 #@! TF.FilePolarity,Positive*
G04*
G01*
G75*
%ADD12C,0.00787*%
%ADD37C,0.00394*%
D12*
X125549Y126850D02*
Y133150D01*
X112951D02*
X125549D01*
X112951Y126850D02*
Y133150D01*
Y126850D02*
X125549D01*
X98146Y25031D02*
X103854D01*
X98146Y16369D02*
Y25031D01*
Y16369D02*
X103854D01*
Y25031D01*
X81646Y24931D02*
X87354D01*
X81646Y16269D02*
Y24931D01*
Y16269D02*
X87354D01*
Y24931D01*
X65046D02*
X70754D01*
X65046Y16269D02*
Y24931D01*
Y16269D02*
X70754D01*
Y24931D01*
X49846Y25131D02*
X55554D01*
X49846Y16469D02*
Y25131D01*
Y16469D02*
X55554D01*
Y25131D01*
X90146Y99331D02*
X95854D01*
X90146Y90669D02*
Y99331D01*
Y90669D02*
X95854D01*
Y99331D01*
X112146Y99378D02*
X117854D01*
X112146Y90716D02*
Y99378D01*
Y90716D02*
X117854D01*
Y99378D01*
D37*
X87705Y70736D02*
X87441Y71720D01*
X86721Y72441D01*
X85736Y72705D01*
X84752Y72441D01*
X84031Y71720D01*
X83768Y70736D01*
X84031Y69752D01*
X84752Y69031D01*
X85736Y68768D01*
X86721Y69031D01*
X87441Y69752D01*
X87705Y70736D01*
X61721Y46720D02*
Y74279D01*
X89280Y46720D02*
Y74279D01*
X61721Y46720D02*
X89280D01*
X61721Y74279D02*
X89280D01*
X101669Y107854D02*
Y119665D01*
X94779Y107854D02*
Y119665D01*
Y107854D02*
X101669D01*
X94779Y119665D02*
X101669D01*
X102878Y126752D02*
Y133248D01*
X92248Y126752D02*
X102878D01*
X92248D02*
Y133248D01*
X102878D01*
X97630Y62951D02*
X101370D01*
X97630Y69644D02*
X101370D01*
X97630Y62951D02*
Y69644D01*
X101370Y62951D02*
Y69644D01*
X73904Y86380D02*
Y90120D01*
X80597Y86380D02*
Y90120D01*
X73904D02*
X80597D01*
X73904Y86380D02*
X80597D01*
M02*
