M48
;Layer_Color=9474304
;FILE_FORMAT=2:4
INCH,TZ
;TYPE=PLATED
T1F00S00C0.0280
T2F00S00C0.0354
;TYPE=NON_PLATED
%
T01
X4980Y1130
X6480Y1120
X8170
X9810Y1170
Y2920
X8160
X7420Y3500
X6500Y2930
X4970Y2980
X5900Y4425
X5160Y4710
X5060Y6540
X5040Y7250
X6860Y6210
X6920Y5350
X7480Y6600
X9350Y7800
X10150Y7550
X10400Y9775
X8350Y9800
X11925Y11875
T02
X2300Y2650
X3300
Y3650
X2300
X12575Y3750
Y4750
Y5750
Y6750
Y7750
X13090Y9060
Y10060
Y11060
Y12060
X5810Y11840
Y12840
X3300Y13100
Y12100
Y11100
Y10100
X2300
Y11100
Y12100
Y13100
Y5650
Y4650
X3300
Y5650
M30
