G04*
G04 #@! TF.GenerationSoftware,Altium Limited,Altium Designer,20.2.6 (244)*
G04*
G04 Layer_Color=16711935*
%FSLAX25Y25*%
%MOIN*%
G70*
G04*
G04 #@! TF.SameCoordinates,B2635FF8-235B-44FB-8225-BCA2550F652E*
G04*
G04*
G04 #@! TF.FilePolarity,Negative*
G04*
G01*
G75*
%ADD29R,0.06306X0.06306*%
%ADD30C,0.06306*%
%ADD31C,0.05400*%
D29*
X58100Y118400D02*
D03*
X23000Y131000D02*
D03*
Y56500D02*
D03*
X125750Y77500D02*
D03*
X130900Y90600D02*
D03*
D30*
X58100Y128400D02*
D03*
X33000Y101000D02*
D03*
X23000D02*
D03*
X33000Y111000D02*
D03*
X23000D02*
D03*
X33000Y121000D02*
D03*
X23000D02*
D03*
X33000Y131000D02*
D03*
Y26500D02*
D03*
X23000D02*
D03*
X33000Y36500D02*
D03*
X23000D02*
D03*
X33000Y46500D02*
D03*
X23000D02*
D03*
X33000Y56500D02*
D03*
X125750Y37500D02*
D03*
Y47500D02*
D03*
Y57500D02*
D03*
Y67500D02*
D03*
X130900Y120600D02*
D03*
Y110600D02*
D03*
Y100600D02*
D03*
D31*
X98100Y29200D02*
D03*
X81600D02*
D03*
X74200Y35000D02*
D03*
X74800Y66000D02*
D03*
X83500Y98000D02*
D03*
X59000Y44250D02*
D03*
X51600Y47100D02*
D03*
X50400Y72500D02*
D03*
X49800Y11300D02*
D03*
X69200Y53500D02*
D03*
X50600Y65400D02*
D03*
X93500Y78000D02*
D03*
X119250Y118750D02*
D03*
X64800Y11200D02*
D03*
X98100Y11700D02*
D03*
X49700Y29800D02*
D03*
X101500Y75500D02*
D03*
X65000Y29300D02*
D03*
X104000Y97750D02*
D03*
X68600Y62100D02*
D03*
X81700Y11200D02*
D03*
M02*
