G04*
G04 #@! TF.GenerationSoftware,Altium Limited,Altium Designer,20.2.6 (244)*
G04*
G04 Layer_Physical_Order=3*
G04 Layer_Color=16440176*
%FSLAX25Y25*%
%MOIN*%
G70*
G04*
G04 #@! TF.SameCoordinates,B2635FF8-235B-44FB-8225-BCA2550F652E*
G04*
G04*
G04 #@! TF.FilePolarity,Positive*
G04*
G01*
G75*
%ADD13C,0.01000*%
%ADD34R,0.05906X0.05906*%
%ADD35C,0.05906*%
%ADD36C,0.05000*%
D13*
X51600Y47100D02*
X57500Y53000D01*
X60250Y35000D02*
X74200D01*
X33000Y36500D02*
X34000D01*
X39400Y41900D02*
X53350D01*
X57700Y128000D02*
X58100Y128400D01*
X68600Y62100D02*
Y95500D01*
X34000Y36500D02*
X39400Y41900D01*
X58100Y106000D02*
X68600Y95500D01*
X50400Y72500D02*
Y93600D01*
X50100Y126200D02*
X51900Y128000D01*
X57500Y53000D02*
Y100200D01*
X51900Y128000D02*
X57700D01*
X50100Y107600D02*
Y126200D01*
X58100Y106000D02*
Y118400D01*
X50100Y107600D02*
X57500Y100200D01*
X33000Y111000D02*
X50400Y93600D01*
X53350Y41900D02*
X60250Y35000D01*
D34*
X58100Y118400D02*
D03*
D35*
Y128400D02*
D03*
X33000Y111000D02*
D03*
Y36500D02*
D03*
D36*
X74200Y35000D02*
D03*
X51600Y47100D02*
D03*
X50400Y72500D02*
D03*
X68600Y62100D02*
D03*
M02*
