G04*
G04 #@! TF.GenerationSoftware,Altium Limited,Altium Designer,20.2.6 (244)*
G04*
G04 Layer_Color=255*
%FSLAX25Y25*%
%MOIN*%
G70*
G04*
G04 #@! TF.SameCoordinates,B2635FF8-235B-44FB-8225-BCA2550F652E*
G04*
G04*
G04 #@! TF.FilePolarity,Positive*
G04*
G01*
G75*
%ADD15O,0.06102X0.00984*%
%ADD16O,0.00984X0.06102*%
%ADD17R,0.05118X0.02756*%
%ADD18R,0.03583X0.04803*%
%ADD19R,0.03543X0.02756*%
%ADD20R,0.02756X0.03543*%
%ADD21R,0.04331X0.07874*%
%ADD22R,0.05315X0.03740*%
%ADD34R,0.05906X0.05906*%
%ADD35C,0.05906*%
D15*
X91347Y71327D02*
D03*
Y69358D02*
D03*
Y67390D02*
D03*
Y65421D02*
D03*
Y63453D02*
D03*
Y61484D02*
D03*
Y59516D02*
D03*
Y57547D02*
D03*
Y55579D02*
D03*
Y53610D02*
D03*
Y51642D02*
D03*
Y49673D02*
D03*
X59654D02*
D03*
Y51642D02*
D03*
Y53610D02*
D03*
Y55579D02*
D03*
Y57547D02*
D03*
Y59516D02*
D03*
Y61484D02*
D03*
Y63453D02*
D03*
Y65421D02*
D03*
Y67390D02*
D03*
Y69358D02*
D03*
Y71327D02*
D03*
D16*
X86327Y44654D02*
D03*
X84358D02*
D03*
X82390D02*
D03*
X80421D02*
D03*
X78453D02*
D03*
X76484D02*
D03*
X74516D02*
D03*
X72547D02*
D03*
X70579D02*
D03*
X68610D02*
D03*
X66642D02*
D03*
X64673D02*
D03*
Y76346D02*
D03*
X66642D02*
D03*
X68610D02*
D03*
X70579D02*
D03*
X72547D02*
D03*
X74516D02*
D03*
X76484D02*
D03*
X78453D02*
D03*
X80421D02*
D03*
X82390D02*
D03*
X84358D02*
D03*
X86327D02*
D03*
D17*
X102949Y110020D02*
D03*
Y113760D02*
D03*
Y117500D02*
D03*
X93500D02*
D03*
Y110020D02*
D03*
D18*
X104000Y130000D02*
D03*
X91126D02*
D03*
D19*
X99500Y63345D02*
D03*
Y69250D02*
D03*
D20*
X74297Y88250D02*
D03*
X80203D02*
D03*
D21*
X114132Y130000D02*
D03*
X124368D02*
D03*
D22*
X101000Y17747D02*
D03*
Y23653D02*
D03*
X84500Y17647D02*
D03*
Y23553D02*
D03*
X67900Y17647D02*
D03*
Y23553D02*
D03*
X52700Y17847D02*
D03*
Y23753D02*
D03*
X93000Y92047D02*
D03*
Y97953D02*
D03*
X115000Y92094D02*
D03*
Y98000D02*
D03*
D34*
X58100Y118400D02*
D03*
X23000Y131000D02*
D03*
Y56500D02*
D03*
X125750Y77500D02*
D03*
X130900Y90600D02*
D03*
D35*
X58100Y128400D02*
D03*
X33000Y101000D02*
D03*
X23000D02*
D03*
X33000Y111000D02*
D03*
X23000D02*
D03*
X33000Y121000D02*
D03*
X23000D02*
D03*
X33000Y131000D02*
D03*
Y26500D02*
D03*
X23000D02*
D03*
X33000Y36500D02*
D03*
X23000D02*
D03*
X33000Y46500D02*
D03*
X23000D02*
D03*
X33000Y56500D02*
D03*
X125750Y37500D02*
D03*
Y47500D02*
D03*
Y57500D02*
D03*
Y67500D02*
D03*
X130900Y120600D02*
D03*
Y110600D02*
D03*
Y100600D02*
D03*
M02*
