%TF.GenerationSoftware,KiCad,Pcbnew,(5.1.8)-1*%
%TF.CreationDate,2020-12-30T10:18:30-07:00*%
%TF.ProjectId,Axle-Tx-PCB(STM32)v2,41786c65-2d54-4782-9d50-43422853544d,rev?*%
%TF.SameCoordinates,PX1a73ae0PY3563620*%
%TF.FileFunction,Copper,L1,Top*%
%TF.FilePolarity,Positive*%
%FSLAX46Y46*%
G04 Gerber Fmt 4.6, Leading zero omitted, Abs format (unit mm)*
G04 Created by KiCad (PCBNEW (5.1.8)-1) date 2020-12-30 10:18:30*
%MOMM*%
%LPD*%
G01*
G04 APERTURE LIST*
%TA.AperFunction,ComponentPad*%
%ADD10O,1.400000X1.400000*%
%TD*%
%TA.AperFunction,ComponentPad*%
%ADD11C,1.400000*%
%TD*%
%TA.AperFunction,SMDPad,CuDef*%
%ADD12R,1.060000X0.650000*%
%TD*%
%TA.AperFunction,ComponentPad*%
%ADD13O,1.700000X1.700000*%
%TD*%
%TA.AperFunction,ComponentPad*%
%ADD14R,1.700000X1.700000*%
%TD*%
%TA.AperFunction,SMDPad,CuDef*%
%ADD15R,1.100000X1.100000*%
%TD*%
%TA.AperFunction,ViaPad*%
%ADD16C,0.800000*%
%TD*%
%TA.AperFunction,Conductor*%
%ADD17C,0.300000*%
%TD*%
%TA.AperFunction,Conductor*%
%ADD18C,0.250000*%
%TD*%
%TA.AperFunction,Conductor*%
%ADD19C,0.254000*%
%TD*%
%TA.AperFunction,Conductor*%
%ADD20C,0.100000*%
%TD*%
G04 APERTURE END LIST*
%TO.P,STM32,48*%
%TO.N,+3V3*%
%TA.AperFunction,SMDPad,CuDef*%
G36*
G01*
X17318400Y12948800D02*
X17318400Y14273800D01*
G75*
G02*
X17393400Y14348800I75000J0D01*
G01*
X17543400Y14348800D01*
G75*
G02*
X17618400Y14273800I0J-75000D01*
G01*
X17618400Y12948800D01*
G75*
G02*
X17543400Y12873800I-75000J0D01*
G01*
X17393400Y12873800D01*
G75*
G02*
X17318400Y12948800I0J75000D01*
G01*
G37*
%TD.AperFunction*%
%TO.P,STM32,47*%
%TO.N,GND*%
%TA.AperFunction,SMDPad,CuDef*%
G36*
G01*
X17818400Y12948800D02*
X17818400Y14273800D01*
G75*
G02*
X17893400Y14348800I75000J0D01*
G01*
X18043400Y14348800D01*
G75*
G02*
X18118400Y14273800I0J-75000D01*
G01*
X18118400Y12948800D01*
G75*
G02*
X18043400Y12873800I-75000J0D01*
G01*
X17893400Y12873800D01*
G75*
G02*
X17818400Y12948800I0J75000D01*
G01*
G37*
%TD.AperFunction*%
%TO.P,STM32,46*%
%TO.N,Net-(STM32-Pad46)*%
%TA.AperFunction,SMDPad,CuDef*%
G36*
G01*
X18318400Y12948800D02*
X18318400Y14273800D01*
G75*
G02*
X18393400Y14348800I75000J0D01*
G01*
X18543400Y14348800D01*
G75*
G02*
X18618400Y14273800I0J-75000D01*
G01*
X18618400Y12948800D01*
G75*
G02*
X18543400Y12873800I-75000J0D01*
G01*
X18393400Y12873800D01*
G75*
G02*
X18318400Y12948800I0J75000D01*
G01*
G37*
%TD.AperFunction*%
%TO.P,STM32,45*%
%TO.N,Net-(STM32-Pad45)*%
%TA.AperFunction,SMDPad,CuDef*%
G36*
G01*
X18818400Y12948800D02*
X18818400Y14273800D01*
G75*
G02*
X18893400Y14348800I75000J0D01*
G01*
X19043400Y14348800D01*
G75*
G02*
X19118400Y14273800I0J-75000D01*
G01*
X19118400Y12948800D01*
G75*
G02*
X19043400Y12873800I-75000J0D01*
G01*
X18893400Y12873800D01*
G75*
G02*
X18818400Y12948800I0J75000D01*
G01*
G37*
%TD.AperFunction*%
%TO.P,STM32,44*%
%TO.N,Net-(R4-Pad1)*%
%TA.AperFunction,SMDPad,CuDef*%
G36*
G01*
X19318400Y12948800D02*
X19318400Y14273800D01*
G75*
G02*
X19393400Y14348800I75000J0D01*
G01*
X19543400Y14348800D01*
G75*
G02*
X19618400Y14273800I0J-75000D01*
G01*
X19618400Y12948800D01*
G75*
G02*
X19543400Y12873800I-75000J0D01*
G01*
X19393400Y12873800D01*
G75*
G02*
X19318400Y12948800I0J75000D01*
G01*
G37*
%TD.AperFunction*%
%TO.P,STM32,43*%
%TO.N,Net-(STM32-Pad43)*%
%TA.AperFunction,SMDPad,CuDef*%
G36*
G01*
X19818400Y12948800D02*
X19818400Y14273800D01*
G75*
G02*
X19893400Y14348800I75000J0D01*
G01*
X20043400Y14348800D01*
G75*
G02*
X20118400Y14273800I0J-75000D01*
G01*
X20118400Y12948800D01*
G75*
G02*
X20043400Y12873800I-75000J0D01*
G01*
X19893400Y12873800D01*
G75*
G02*
X19818400Y12948800I0J75000D01*
G01*
G37*
%TD.AperFunction*%
%TO.P,STM32,42*%
%TO.N,Net-(STM32-Pad42)*%
%TA.AperFunction,SMDPad,CuDef*%
G36*
G01*
X20318400Y12948800D02*
X20318400Y14273800D01*
G75*
G02*
X20393400Y14348800I75000J0D01*
G01*
X20543400Y14348800D01*
G75*
G02*
X20618400Y14273800I0J-75000D01*
G01*
X20618400Y12948800D01*
G75*
G02*
X20543400Y12873800I-75000J0D01*
G01*
X20393400Y12873800D01*
G75*
G02*
X20318400Y12948800I0J75000D01*
G01*
G37*
%TD.AperFunction*%
%TO.P,STM32,41*%
%TO.N,Net-(STM32-Pad41)*%
%TA.AperFunction,SMDPad,CuDef*%
G36*
G01*
X20818400Y12948800D02*
X20818400Y14273800D01*
G75*
G02*
X20893400Y14348800I75000J0D01*
G01*
X21043400Y14348800D01*
G75*
G02*
X21118400Y14273800I0J-75000D01*
G01*
X21118400Y12948800D01*
G75*
G02*
X21043400Y12873800I-75000J0D01*
G01*
X20893400Y12873800D01*
G75*
G02*
X20818400Y12948800I0J75000D01*
G01*
G37*
%TD.AperFunction*%
%TO.P,STM32,40*%
%TO.N,Net-(STM32-Pad40)*%
%TA.AperFunction,SMDPad,CuDef*%
G36*
G01*
X21318400Y12948800D02*
X21318400Y14273800D01*
G75*
G02*
X21393400Y14348800I75000J0D01*
G01*
X21543400Y14348800D01*
G75*
G02*
X21618400Y14273800I0J-75000D01*
G01*
X21618400Y12948800D01*
G75*
G02*
X21543400Y12873800I-75000J0D01*
G01*
X21393400Y12873800D01*
G75*
G02*
X21318400Y12948800I0J75000D01*
G01*
G37*
%TD.AperFunction*%
%TO.P,STM32,39*%
%TO.N,Net-(STM32-Pad39)*%
%TA.AperFunction,SMDPad,CuDef*%
G36*
G01*
X21818400Y12948800D02*
X21818400Y14273800D01*
G75*
G02*
X21893400Y14348800I75000J0D01*
G01*
X22043400Y14348800D01*
G75*
G02*
X22118400Y14273800I0J-75000D01*
G01*
X22118400Y12948800D01*
G75*
G02*
X22043400Y12873800I-75000J0D01*
G01*
X21893400Y12873800D01*
G75*
G02*
X21818400Y12948800I0J75000D01*
G01*
G37*
%TD.AperFunction*%
%TO.P,STM32,38*%
%TO.N,Net-(STM32-Pad38)*%
%TA.AperFunction,SMDPad,CuDef*%
G36*
G01*
X22318400Y12948800D02*
X22318400Y14273800D01*
G75*
G02*
X22393400Y14348800I75000J0D01*
G01*
X22543400Y14348800D01*
G75*
G02*
X22618400Y14273800I0J-75000D01*
G01*
X22618400Y12948800D01*
G75*
G02*
X22543400Y12873800I-75000J0D01*
G01*
X22393400Y12873800D01*
G75*
G02*
X22318400Y12948800I0J75000D01*
G01*
G37*
%TD.AperFunction*%
%TO.P,STM32,37*%
%TO.N,PA14-SWCLK*%
%TA.AperFunction,SMDPad,CuDef*%
G36*
G01*
X22818400Y12948800D02*
X22818400Y14273800D01*
G75*
G02*
X22893400Y14348800I75000J0D01*
G01*
X23043400Y14348800D01*
G75*
G02*
X23118400Y14273800I0J-75000D01*
G01*
X23118400Y12948800D01*
G75*
G02*
X23043400Y12873800I-75000J0D01*
G01*
X22893400Y12873800D01*
G75*
G02*
X22818400Y12948800I0J75000D01*
G01*
G37*
%TD.AperFunction*%
%TO.P,STM32,36*%
%TO.N,Net-(STM32-Pad36)*%
%TA.AperFunction,SMDPad,CuDef*%
G36*
G01*
X23643400Y12123800D02*
X23643400Y12273800D01*
G75*
G02*
X23718400Y12348800I75000J0D01*
G01*
X25043400Y12348800D01*
G75*
G02*
X25118400Y12273800I0J-75000D01*
G01*
X25118400Y12123800D01*
G75*
G02*
X25043400Y12048800I-75000J0D01*
G01*
X23718400Y12048800D01*
G75*
G02*
X23643400Y12123800I0J75000D01*
G01*
G37*
%TD.AperFunction*%
%TO.P,STM32,35*%
%TO.N,Net-(STM32-Pad35)*%
%TA.AperFunction,SMDPad,CuDef*%
G36*
G01*
X23643400Y11623800D02*
X23643400Y11773800D01*
G75*
G02*
X23718400Y11848800I75000J0D01*
G01*
X25043400Y11848800D01*
G75*
G02*
X25118400Y11773800I0J-75000D01*
G01*
X25118400Y11623800D01*
G75*
G02*
X25043400Y11548800I-75000J0D01*
G01*
X23718400Y11548800D01*
G75*
G02*
X23643400Y11623800I0J75000D01*
G01*
G37*
%TD.AperFunction*%
%TO.P,STM32,34*%
%TO.N,PA13-SWDIO*%
%TA.AperFunction,SMDPad,CuDef*%
G36*
G01*
X23643400Y11123800D02*
X23643400Y11273800D01*
G75*
G02*
X23718400Y11348800I75000J0D01*
G01*
X25043400Y11348800D01*
G75*
G02*
X25118400Y11273800I0J-75000D01*
G01*
X25118400Y11123800D01*
G75*
G02*
X25043400Y11048800I-75000J0D01*
G01*
X23718400Y11048800D01*
G75*
G02*
X23643400Y11123800I0J75000D01*
G01*
G37*
%TD.AperFunction*%
%TO.P,STM32,33*%
%TO.N,Net-(STM32-Pad33)*%
%TA.AperFunction,SMDPad,CuDef*%
G36*
G01*
X23643400Y10623800D02*
X23643400Y10773800D01*
G75*
G02*
X23718400Y10848800I75000J0D01*
G01*
X25043400Y10848800D01*
G75*
G02*
X25118400Y10773800I0J-75000D01*
G01*
X25118400Y10623800D01*
G75*
G02*
X25043400Y10548800I-75000J0D01*
G01*
X23718400Y10548800D01*
G75*
G02*
X23643400Y10623800I0J75000D01*
G01*
G37*
%TD.AperFunction*%
%TO.P,STM32,32*%
%TO.N,Net-(STM32-Pad32)*%
%TA.AperFunction,SMDPad,CuDef*%
G36*
G01*
X23643400Y10123800D02*
X23643400Y10273800D01*
G75*
G02*
X23718400Y10348800I75000J0D01*
G01*
X25043400Y10348800D01*
G75*
G02*
X25118400Y10273800I0J-75000D01*
G01*
X25118400Y10123800D01*
G75*
G02*
X25043400Y10048800I-75000J0D01*
G01*
X23718400Y10048800D01*
G75*
G02*
X23643400Y10123800I0J75000D01*
G01*
G37*
%TD.AperFunction*%
%TO.P,STM32,31*%
%TO.N,Net-(STM32-Pad31)*%
%TA.AperFunction,SMDPad,CuDef*%
G36*
G01*
X23643400Y9623800D02*
X23643400Y9773800D01*
G75*
G02*
X23718400Y9848800I75000J0D01*
G01*
X25043400Y9848800D01*
G75*
G02*
X25118400Y9773800I0J-75000D01*
G01*
X25118400Y9623800D01*
G75*
G02*
X25043400Y9548800I-75000J0D01*
G01*
X23718400Y9548800D01*
G75*
G02*
X23643400Y9623800I0J75000D01*
G01*
G37*
%TD.AperFunction*%
%TO.P,STM32,30*%
%TO.N,Net-(STM32-Pad30)*%
%TA.AperFunction,SMDPad,CuDef*%
G36*
G01*
X23643400Y9123800D02*
X23643400Y9273800D01*
G75*
G02*
X23718400Y9348800I75000J0D01*
G01*
X25043400Y9348800D01*
G75*
G02*
X25118400Y9273800I0J-75000D01*
G01*
X25118400Y9123800D01*
G75*
G02*
X25043400Y9048800I-75000J0D01*
G01*
X23718400Y9048800D01*
G75*
G02*
X23643400Y9123800I0J75000D01*
G01*
G37*
%TD.AperFunction*%
%TO.P,STM32,29*%
%TO.N,Net-(STM32-Pad29)*%
%TA.AperFunction,SMDPad,CuDef*%
G36*
G01*
X23643400Y8623800D02*
X23643400Y8773800D01*
G75*
G02*
X23718400Y8848800I75000J0D01*
G01*
X25043400Y8848800D01*
G75*
G02*
X25118400Y8773800I0J-75000D01*
G01*
X25118400Y8623800D01*
G75*
G02*
X25043400Y8548800I-75000J0D01*
G01*
X23718400Y8548800D01*
G75*
G02*
X23643400Y8623800I0J75000D01*
G01*
G37*
%TD.AperFunction*%
%TO.P,STM32,28*%
%TO.N,Net-(STM32-Pad28)*%
%TA.AperFunction,SMDPad,CuDef*%
G36*
G01*
X23643400Y8123800D02*
X23643400Y8273800D01*
G75*
G02*
X23718400Y8348800I75000J0D01*
G01*
X25043400Y8348800D01*
G75*
G02*
X25118400Y8273800I0J-75000D01*
G01*
X25118400Y8123800D01*
G75*
G02*
X25043400Y8048800I-75000J0D01*
G01*
X23718400Y8048800D01*
G75*
G02*
X23643400Y8123800I0J75000D01*
G01*
G37*
%TD.AperFunction*%
%TO.P,STM32,27*%
%TO.N,Net-(STM32-Pad27)*%
%TA.AperFunction,SMDPad,CuDef*%
G36*
G01*
X23643400Y7623800D02*
X23643400Y7773800D01*
G75*
G02*
X23718400Y7848800I75000J0D01*
G01*
X25043400Y7848800D01*
G75*
G02*
X25118400Y7773800I0J-75000D01*
G01*
X25118400Y7623800D01*
G75*
G02*
X25043400Y7548800I-75000J0D01*
G01*
X23718400Y7548800D01*
G75*
G02*
X23643400Y7623800I0J75000D01*
G01*
G37*
%TD.AperFunction*%
%TO.P,STM32,26*%
%TO.N,Net-(STM32-Pad26)*%
%TA.AperFunction,SMDPad,CuDef*%
G36*
G01*
X23643400Y7123800D02*
X23643400Y7273800D01*
G75*
G02*
X23718400Y7348800I75000J0D01*
G01*
X25043400Y7348800D01*
G75*
G02*
X25118400Y7273800I0J-75000D01*
G01*
X25118400Y7123800D01*
G75*
G02*
X25043400Y7048800I-75000J0D01*
G01*
X23718400Y7048800D01*
G75*
G02*
X23643400Y7123800I0J75000D01*
G01*
G37*
%TD.AperFunction*%
%TO.P,STM32,25*%
%TO.N,+3V3*%
%TA.AperFunction,SMDPad,CuDef*%
G36*
G01*
X23643400Y6623800D02*
X23643400Y6773800D01*
G75*
G02*
X23718400Y6848800I75000J0D01*
G01*
X25043400Y6848800D01*
G75*
G02*
X25118400Y6773800I0J-75000D01*
G01*
X25118400Y6623800D01*
G75*
G02*
X25043400Y6548800I-75000J0D01*
G01*
X23718400Y6548800D01*
G75*
G02*
X23643400Y6623800I0J75000D01*
G01*
G37*
%TD.AperFunction*%
%TO.P,STM32,24*%
%TA.AperFunction,SMDPad,CuDef*%
G36*
G01*
X22818400Y4623800D02*
X22818400Y5948800D01*
G75*
G02*
X22893400Y6023800I75000J0D01*
G01*
X23043400Y6023800D01*
G75*
G02*
X23118400Y5948800I0J-75000D01*
G01*
X23118400Y4623800D01*
G75*
G02*
X23043400Y4548800I-75000J0D01*
G01*
X22893400Y4548800D01*
G75*
G02*
X22818400Y4623800I0J75000D01*
G01*
G37*
%TD.AperFunction*%
%TO.P,STM32,23*%
%TO.N,GND*%
%TA.AperFunction,SMDPad,CuDef*%
G36*
G01*
X22318400Y4623800D02*
X22318400Y5948800D01*
G75*
G02*
X22393400Y6023800I75000J0D01*
G01*
X22543400Y6023800D01*
G75*
G02*
X22618400Y5948800I0J-75000D01*
G01*
X22618400Y4623800D01*
G75*
G02*
X22543400Y4548800I-75000J0D01*
G01*
X22393400Y4548800D01*
G75*
G02*
X22318400Y4623800I0J75000D01*
G01*
G37*
%TD.AperFunction*%
%TO.P,STM32,22*%
%TO.N,SDADC-AIN8m*%
%TA.AperFunction,SMDPad,CuDef*%
G36*
G01*
X21818400Y4623800D02*
X21818400Y5948800D01*
G75*
G02*
X21893400Y6023800I75000J0D01*
G01*
X22043400Y6023800D01*
G75*
G02*
X22118400Y5948800I0J-75000D01*
G01*
X22118400Y4623800D01*
G75*
G02*
X22043400Y4548800I-75000J0D01*
G01*
X21893400Y4548800D01*
G75*
G02*
X21818400Y4623800I0J75000D01*
G01*
G37*
%TD.AperFunction*%
%TO.P,STM32,21*%
%TO.N,SDADC1-AIN8p*%
%TA.AperFunction,SMDPad,CuDef*%
G36*
G01*
X21318400Y4623800D02*
X21318400Y5948800D01*
G75*
G02*
X21393400Y6023800I75000J0D01*
G01*
X21543400Y6023800D01*
G75*
G02*
X21618400Y5948800I0J-75000D01*
G01*
X21618400Y4623800D01*
G75*
G02*
X21543400Y4548800I-75000J0D01*
G01*
X21393400Y4548800D01*
G75*
G02*
X21318400Y4623800I0J75000D01*
G01*
G37*
%TD.AperFunction*%
%TO.P,STM32,20*%
%TO.N,Net-(STM32-Pad20)*%
%TA.AperFunction,SMDPad,CuDef*%
G36*
G01*
X20818400Y4623800D02*
X20818400Y5948800D01*
G75*
G02*
X20893400Y6023800I75000J0D01*
G01*
X21043400Y6023800D01*
G75*
G02*
X21118400Y5948800I0J-75000D01*
G01*
X21118400Y4623800D01*
G75*
G02*
X21043400Y4548800I-75000J0D01*
G01*
X20893400Y4548800D01*
G75*
G02*
X20818400Y4623800I0J75000D01*
G01*
G37*
%TD.AperFunction*%
%TO.P,STM32,19*%
%TO.N,Net-(STM32-Pad19)*%
%TA.AperFunction,SMDPad,CuDef*%
G36*
G01*
X20318400Y4623800D02*
X20318400Y5948800D01*
G75*
G02*
X20393400Y6023800I75000J0D01*
G01*
X20543400Y6023800D01*
G75*
G02*
X20618400Y5948800I0J-75000D01*
G01*
X20618400Y4623800D01*
G75*
G02*
X20543400Y4548800I-75000J0D01*
G01*
X20393400Y4548800D01*
G75*
G02*
X20318400Y4623800I0J75000D01*
G01*
G37*
%TD.AperFunction*%
%TO.P,STM32,18*%
%TO.N,SPI1-MOSI*%
%TA.AperFunction,SMDPad,CuDef*%
G36*
G01*
X19818400Y4623800D02*
X19818400Y5948800D01*
G75*
G02*
X19893400Y6023800I75000J0D01*
G01*
X20043400Y6023800D01*
G75*
G02*
X20118400Y5948800I0J-75000D01*
G01*
X20118400Y4623800D01*
G75*
G02*
X20043400Y4548800I-75000J0D01*
G01*
X19893400Y4548800D01*
G75*
G02*
X19818400Y4623800I0J75000D01*
G01*
G37*
%TD.AperFunction*%
%TO.P,STM32,17*%
%TO.N,+3V3*%
%TA.AperFunction,SMDPad,CuDef*%
G36*
G01*
X19318400Y4623800D02*
X19318400Y5948800D01*
G75*
G02*
X19393400Y6023800I75000J0D01*
G01*
X19543400Y6023800D01*
G75*
G02*
X19618400Y5948800I0J-75000D01*
G01*
X19618400Y4623800D01*
G75*
G02*
X19543400Y4548800I-75000J0D01*
G01*
X19393400Y4548800D01*
G75*
G02*
X19318400Y4623800I0J75000D01*
G01*
G37*
%TD.AperFunction*%
%TO.P,STM32,16*%
%TO.N,SPI1-MISO*%
%TA.AperFunction,SMDPad,CuDef*%
G36*
G01*
X18818400Y4623800D02*
X18818400Y5948800D01*
G75*
G02*
X18893400Y6023800I75000J0D01*
G01*
X19043400Y6023800D01*
G75*
G02*
X19118400Y5948800I0J-75000D01*
G01*
X19118400Y4623800D01*
G75*
G02*
X19043400Y4548800I-75000J0D01*
G01*
X18893400Y4548800D01*
G75*
G02*
X18818400Y4623800I0J75000D01*
G01*
G37*
%TD.AperFunction*%
%TO.P,STM32,15*%
%TO.N,SPI1-SCK*%
%TA.AperFunction,SMDPad,CuDef*%
G36*
G01*
X18318400Y4623800D02*
X18318400Y5948800D01*
G75*
G02*
X18393400Y6023800I75000J0D01*
G01*
X18543400Y6023800D01*
G75*
G02*
X18618400Y5948800I0J-75000D01*
G01*
X18618400Y4623800D01*
G75*
G02*
X18543400Y4548800I-75000J0D01*
G01*
X18393400Y4548800D01*
G75*
G02*
X18318400Y4623800I0J75000D01*
G01*
G37*
%TD.AperFunction*%
%TO.P,STM32,14*%
%TO.N,SPI1-IRQ*%
%TA.AperFunction,SMDPad,CuDef*%
G36*
G01*
X17818400Y4623800D02*
X17818400Y5948800D01*
G75*
G02*
X17893400Y6023800I75000J0D01*
G01*
X18043400Y6023800D01*
G75*
G02*
X18118400Y5948800I0J-75000D01*
G01*
X18118400Y4623800D01*
G75*
G02*
X18043400Y4548800I-75000J0D01*
G01*
X17893400Y4548800D01*
G75*
G02*
X17818400Y4623800I0J75000D01*
G01*
G37*
%TD.AperFunction*%
%TO.P,STM32,13*%
%TO.N,SPI1-CSn*%
%TA.AperFunction,SMDPad,CuDef*%
G36*
G01*
X17318400Y4623800D02*
X17318400Y5948800D01*
G75*
G02*
X17393400Y6023800I75000J0D01*
G01*
X17543400Y6023800D01*
G75*
G02*
X17618400Y5948800I0J-75000D01*
G01*
X17618400Y4623800D01*
G75*
G02*
X17543400Y4548800I-75000J0D01*
G01*
X17393400Y4548800D01*
G75*
G02*
X17318400Y4623800I0J75000D01*
G01*
G37*
%TD.AperFunction*%
%TO.P,STM32,12*%
%TO.N,SPI1-CE*%
%TA.AperFunction,SMDPad,CuDef*%
G36*
G01*
X15318400Y6623800D02*
X15318400Y6773800D01*
G75*
G02*
X15393400Y6848800I75000J0D01*
G01*
X16718400Y6848800D01*
G75*
G02*
X16793400Y6773800I0J-75000D01*
G01*
X16793400Y6623800D01*
G75*
G02*
X16718400Y6548800I-75000J0D01*
G01*
X15393400Y6548800D01*
G75*
G02*
X15318400Y6623800I0J75000D01*
G01*
G37*
%TD.AperFunction*%
%TO.P,STM32,11*%
%TO.N,Net-(STM32-Pad11)*%
%TA.AperFunction,SMDPad,CuDef*%
G36*
G01*
X15318400Y7123800D02*
X15318400Y7273800D01*
G75*
G02*
X15393400Y7348800I75000J0D01*
G01*
X16718400Y7348800D01*
G75*
G02*
X16793400Y7273800I0J-75000D01*
G01*
X16793400Y7123800D01*
G75*
G02*
X16718400Y7048800I-75000J0D01*
G01*
X15393400Y7048800D01*
G75*
G02*
X15318400Y7123800I0J75000D01*
G01*
G37*
%TD.AperFunction*%
%TO.P,STM32,10*%
%TO.N,Net-(STM32-Pad10)*%
%TA.AperFunction,SMDPad,CuDef*%
G36*
G01*
X15318400Y7623800D02*
X15318400Y7773800D01*
G75*
G02*
X15393400Y7848800I75000J0D01*
G01*
X16718400Y7848800D01*
G75*
G02*
X16793400Y7773800I0J-75000D01*
G01*
X16793400Y7623800D01*
G75*
G02*
X16718400Y7548800I-75000J0D01*
G01*
X15393400Y7548800D01*
G75*
G02*
X15318400Y7623800I0J75000D01*
G01*
G37*
%TD.AperFunction*%
%TO.P,STM32,9*%
%TO.N,+3V3*%
%TA.AperFunction,SMDPad,CuDef*%
G36*
G01*
X15318400Y8123800D02*
X15318400Y8273800D01*
G75*
G02*
X15393400Y8348800I75000J0D01*
G01*
X16718400Y8348800D01*
G75*
G02*
X16793400Y8273800I0J-75000D01*
G01*
X16793400Y8123800D01*
G75*
G02*
X16718400Y8048800I-75000J0D01*
G01*
X15393400Y8048800D01*
G75*
G02*
X15318400Y8123800I0J75000D01*
G01*
G37*
%TD.AperFunction*%
%TO.P,STM32,8*%
%TO.N,GND*%
%TA.AperFunction,SMDPad,CuDef*%
G36*
G01*
X15318400Y8623800D02*
X15318400Y8773800D01*
G75*
G02*
X15393400Y8848800I75000J0D01*
G01*
X16718400Y8848800D01*
G75*
G02*
X16793400Y8773800I0J-75000D01*
G01*
X16793400Y8623800D01*
G75*
G02*
X16718400Y8548800I-75000J0D01*
G01*
X15393400Y8548800D01*
G75*
G02*
X15318400Y8623800I0J75000D01*
G01*
G37*
%TD.AperFunction*%
%TO.P,STM32,7*%
%TO.N,NRST*%
%TA.AperFunction,SMDPad,CuDef*%
G36*
G01*
X15318400Y9123800D02*
X15318400Y9273800D01*
G75*
G02*
X15393400Y9348800I75000J0D01*
G01*
X16718400Y9348800D01*
G75*
G02*
X16793400Y9273800I0J-75000D01*
G01*
X16793400Y9123800D01*
G75*
G02*
X16718400Y9048800I-75000J0D01*
G01*
X15393400Y9048800D01*
G75*
G02*
X15318400Y9123800I0J75000D01*
G01*
G37*
%TD.AperFunction*%
%TO.P,STM32,6*%
%TO.N,Net-(STM32-Pad6)*%
%TA.AperFunction,SMDPad,CuDef*%
G36*
G01*
X15318400Y9623800D02*
X15318400Y9773800D01*
G75*
G02*
X15393400Y9848800I75000J0D01*
G01*
X16718400Y9848800D01*
G75*
G02*
X16793400Y9773800I0J-75000D01*
G01*
X16793400Y9623800D01*
G75*
G02*
X16718400Y9548800I-75000J0D01*
G01*
X15393400Y9548800D01*
G75*
G02*
X15318400Y9623800I0J75000D01*
G01*
G37*
%TD.AperFunction*%
%TO.P,STM32,5*%
%TO.N,Net-(STM32-Pad5)*%
%TA.AperFunction,SMDPad,CuDef*%
G36*
G01*
X15318400Y10123800D02*
X15318400Y10273800D01*
G75*
G02*
X15393400Y10348800I75000J0D01*
G01*
X16718400Y10348800D01*
G75*
G02*
X16793400Y10273800I0J-75000D01*
G01*
X16793400Y10123800D01*
G75*
G02*
X16718400Y10048800I-75000J0D01*
G01*
X15393400Y10048800D01*
G75*
G02*
X15318400Y10123800I0J75000D01*
G01*
G37*
%TD.AperFunction*%
%TO.P,STM32,4*%
%TO.N,Net-(STM32-Pad4)*%
%TA.AperFunction,SMDPad,CuDef*%
G36*
G01*
X15318400Y10623800D02*
X15318400Y10773800D01*
G75*
G02*
X15393400Y10848800I75000J0D01*
G01*
X16718400Y10848800D01*
G75*
G02*
X16793400Y10773800I0J-75000D01*
G01*
X16793400Y10623800D01*
G75*
G02*
X16718400Y10548800I-75000J0D01*
G01*
X15393400Y10548800D01*
G75*
G02*
X15318400Y10623800I0J75000D01*
G01*
G37*
%TD.AperFunction*%
%TO.P,STM32,3*%
%TO.N,Net-(STM32-Pad3)*%
%TA.AperFunction,SMDPad,CuDef*%
G36*
G01*
X15318400Y11123800D02*
X15318400Y11273800D01*
G75*
G02*
X15393400Y11348800I75000J0D01*
G01*
X16718400Y11348800D01*
G75*
G02*
X16793400Y11273800I0J-75000D01*
G01*
X16793400Y11123800D01*
G75*
G02*
X16718400Y11048800I-75000J0D01*
G01*
X15393400Y11048800D01*
G75*
G02*
X15318400Y11123800I0J75000D01*
G01*
G37*
%TD.AperFunction*%
%TO.P,STM32,2*%
%TO.N,Net-(STM32-Pad2)*%
%TA.AperFunction,SMDPad,CuDef*%
G36*
G01*
X15318400Y11623800D02*
X15318400Y11773800D01*
G75*
G02*
X15393400Y11848800I75000J0D01*
G01*
X16718400Y11848800D01*
G75*
G02*
X16793400Y11773800I0J-75000D01*
G01*
X16793400Y11623800D01*
G75*
G02*
X16718400Y11548800I-75000J0D01*
G01*
X15393400Y11548800D01*
G75*
G02*
X15318400Y11623800I0J75000D01*
G01*
G37*
%TD.AperFunction*%
%TO.P,STM32,1*%
%TO.N,+3V3*%
%TA.AperFunction,SMDPad,CuDef*%
G36*
G01*
X15318400Y12123800D02*
X15318400Y12273800D01*
G75*
G02*
X15393400Y12348800I75000J0D01*
G01*
X16718400Y12348800D01*
G75*
G02*
X16793400Y12273800I0J-75000D01*
G01*
X16793400Y12123800D01*
G75*
G02*
X16718400Y12048800I-75000J0D01*
G01*
X15393400Y12048800D01*
G75*
G02*
X15318400Y12123800I0J75000D01*
G01*
G37*
%TD.AperFunction*%
%TD*%
%TO.P,C1,2*%
%TO.N,GND*%
%TA.AperFunction,SMDPad,CuDef*%
G36*
G01*
X27211000Y15094800D02*
X28161000Y15094800D01*
G75*
G02*
X28411000Y14844800I0J-250000D01*
G01*
X28411000Y14169800D01*
G75*
G02*
X28161000Y13919800I-250000J0D01*
G01*
X27211000Y13919800D01*
G75*
G02*
X26961000Y14169800I0J250000D01*
G01*
X26961000Y14844800D01*
G75*
G02*
X27211000Y15094800I250000J0D01*
G01*
G37*
%TD.AperFunction*%
%TO.P,C1,1*%
%TO.N,+3V3*%
%TA.AperFunction,SMDPad,CuDef*%
G36*
G01*
X27211000Y17169800D02*
X28161000Y17169800D01*
G75*
G02*
X28411000Y16919800I0J-250000D01*
G01*
X28411000Y16244800D01*
G75*
G02*
X28161000Y15994800I-250000J0D01*
G01*
X27211000Y15994800D01*
G75*
G02*
X26961000Y16244800I0J250000D01*
G01*
X26961000Y16919800D01*
G75*
G02*
X27211000Y17169800I250000J0D01*
G01*
G37*
%TD.AperFunction*%
%TD*%
D10*
%TO.P,SG4,2*%
%TO.N,GND*%
X33883600Y10617200D03*
D11*
%TO.P,SG4,1*%
%TO.N,SDADC1-AIN8p*%
X33883600Y5537200D03*
%TD*%
D12*
%TO.P,3.3Vreg1,5*%
%TO.N,+3V3*%
X11158400Y11719600D03*
%TO.P,3.3Vreg1,4*%
%TO.N,Net-(3.3Vreg1-Pad4)*%
X11158400Y9819600D03*
%TO.P,3.3Vreg1,3*%
%TO.N,Net-(3.3Vreg1-Pad1)*%
X8958400Y9819600D03*
%TO.P,3.3Vreg1,2*%
%TO.N,GND*%
X8958400Y10769600D03*
%TO.P,3.3Vreg1,1*%
%TO.N,Net-(3.3Vreg1-Pad1)*%
X8958400Y11719600D03*
%TD*%
%TO.P,R6,2*%
%TO.N,SPI1-IRQ*%
%TA.AperFunction,SMDPad,CuDef*%
G36*
G01*
X16511600Y4125300D02*
X16711600Y4125300D01*
G75*
G02*
X16811600Y4025300I0J-100000D01*
G01*
X16811600Y3590300D01*
G75*
G02*
X16711600Y3490300I-100000J0D01*
G01*
X16511600Y3490300D01*
G75*
G02*
X16411600Y3590300I0J100000D01*
G01*
X16411600Y4025300D01*
G75*
G02*
X16511600Y4125300I100000J0D01*
G01*
G37*
%TD.AperFunction*%
%TO.P,R6,1*%
%TO.N,GND*%
%TA.AperFunction,SMDPad,CuDef*%
G36*
G01*
X16511600Y4940300D02*
X16711600Y4940300D01*
G75*
G02*
X16811600Y4840300I0J-100000D01*
G01*
X16811600Y4405300D01*
G75*
G02*
X16711600Y4305300I-100000J0D01*
G01*
X16511600Y4305300D01*
G75*
G02*
X16411600Y4405300I0J100000D01*
G01*
X16411600Y4840300D01*
G75*
G02*
X16511600Y4940300I100000J0D01*
G01*
G37*
%TD.AperFunction*%
%TD*%
D13*
%TO.P,J2,8*%
%TO.N,SPI1-IRQ*%
X11404600Y7112000D03*
%TO.P,J2,7*%
%TO.N,SPI1-MOSI*%
X11404600Y4572000D03*
%TO.P,J2,6*%
%TO.N,SPI1-CSn*%
X8864600Y7112000D03*
%TO.P,J2,5*%
%TO.N,+3V3*%
X8864600Y4572000D03*
%TO.P,J2,4*%
%TO.N,SPI1-MISO*%
X6324600Y7112000D03*
%TO.P,J2,3*%
%TO.N,SPI1-SCK*%
X6324600Y4572000D03*
%TO.P,J2,2*%
%TO.N,SPI1-CE*%
X3784600Y7112000D03*
D14*
%TO.P,J2,1*%
%TO.N,GND*%
X3784600Y4572000D03*
%TD*%
D13*
%TO.P,J1,5*%
%TO.N,PA14-SWCLK*%
X22936200Y16637000D03*
%TO.P,J1,4*%
%TO.N,PA13-SWDIO*%
X20396200Y16637000D03*
%TO.P,J1,3*%
%TO.N,NRST*%
X17856200Y16637000D03*
%TO.P,J1,2*%
%TO.N,GND*%
X15316200Y16637000D03*
D14*
%TO.P,J1,1*%
%TO.N,+3V3*%
X12776200Y16637000D03*
%TD*%
D10*
%TO.P,SG3,2*%
%TO.N,SDADC1-AIN8p*%
X31699200Y5542280D03*
D11*
%TO.P,SG3,1*%
%TO.N,+3V3*%
X31699200Y10622280D03*
%TD*%
%TO.P,R4,2*%
%TO.N,GND*%
%TA.AperFunction,SMDPad,CuDef*%
G36*
G01*
X24372400Y14124000D02*
X24372400Y14324000D01*
G75*
G02*
X24472400Y14424000I100000J0D01*
G01*
X24907400Y14424000D01*
G75*
G02*
X25007400Y14324000I0J-100000D01*
G01*
X25007400Y14124000D01*
G75*
G02*
X24907400Y14024000I-100000J0D01*
G01*
X24472400Y14024000D01*
G75*
G02*
X24372400Y14124000I0J100000D01*
G01*
G37*
%TD.AperFunction*%
%TO.P,R4,1*%
%TO.N,Net-(R4-Pad1)*%
%TA.AperFunction,SMDPad,CuDef*%
G36*
G01*
X23557400Y14124000D02*
X23557400Y14324000D01*
G75*
G02*
X23657400Y14424000I100000J0D01*
G01*
X24092400Y14424000D01*
G75*
G02*
X24192400Y14324000I0J-100000D01*
G01*
X24192400Y14124000D01*
G75*
G02*
X24092400Y14024000I-100000J0D01*
G01*
X23657400Y14024000D01*
G75*
G02*
X23557400Y14124000I0J100000D01*
G01*
G37*
%TD.AperFunction*%
%TD*%
%TO.P,C7,2*%
%TO.N,GND*%
%TA.AperFunction,SMDPad,CuDef*%
G36*
G01*
X14445000Y12968300D02*
X13495000Y12968300D01*
G75*
G02*
X13245000Y13218300I0J250000D01*
G01*
X13245000Y13893300D01*
G75*
G02*
X13495000Y14143300I250000J0D01*
G01*
X14445000Y14143300D01*
G75*
G02*
X14695000Y13893300I0J-250000D01*
G01*
X14695000Y13218300D01*
G75*
G02*
X14445000Y12968300I-250000J0D01*
G01*
G37*
%TD.AperFunction*%
%TO.P,C7,1*%
%TO.N,+3V3*%
%TA.AperFunction,SMDPad,CuDef*%
G36*
G01*
X14445000Y10893300D02*
X13495000Y10893300D01*
G75*
G02*
X13245000Y11143300I0J250000D01*
G01*
X13245000Y11818300D01*
G75*
G02*
X13495000Y12068300I250000J0D01*
G01*
X14445000Y12068300D01*
G75*
G02*
X14695000Y11818300I0J-250000D01*
G01*
X14695000Y11143300D01*
G75*
G02*
X14445000Y10893300I-250000J0D01*
G01*
G37*
%TD.AperFunction*%
%TD*%
%TO.P,R5,2*%
%TO.N,NRST*%
%TA.AperFunction,SMDPad,CuDef*%
G36*
G01*
X14527200Y9284800D02*
X14327200Y9284800D01*
G75*
G02*
X14227200Y9384800I0J100000D01*
G01*
X14227200Y9819800D01*
G75*
G02*
X14327200Y9919800I100000J0D01*
G01*
X14527200Y9919800D01*
G75*
G02*
X14627200Y9819800I0J-100000D01*
G01*
X14627200Y9384800D01*
G75*
G02*
X14527200Y9284800I-100000J0D01*
G01*
G37*
%TD.AperFunction*%
%TO.P,R5,1*%
%TO.N,+3V3*%
%TA.AperFunction,SMDPad,CuDef*%
G36*
G01*
X14527200Y8469800D02*
X14327200Y8469800D01*
G75*
G02*
X14227200Y8569800I0J100000D01*
G01*
X14227200Y9004800D01*
G75*
G02*
X14327200Y9104800I100000J0D01*
G01*
X14527200Y9104800D01*
G75*
G02*
X14627200Y9004800I0J-100000D01*
G01*
X14627200Y8569800D01*
G75*
G02*
X14527200Y8469800I-100000J0D01*
G01*
G37*
%TD.AperFunction*%
%TD*%
%TO.P,F1,2*%
%TO.N,Net-(BatCon1-Pad2)*%
%TA.AperFunction,SMDPad,CuDef*%
G36*
G01*
X3644600Y14417200D02*
X3644600Y13167200D01*
G75*
G02*
X3394600Y12917200I-250000J0D01*
G01*
X2469600Y12917200D01*
G75*
G02*
X2219600Y13167200I0J250000D01*
G01*
X2219600Y14417200D01*
G75*
G02*
X2469600Y14667200I250000J0D01*
G01*
X3394600Y14667200D01*
G75*
G02*
X3644600Y14417200I0J-250000D01*
G01*
G37*
%TD.AperFunction*%
%TO.P,F1,1*%
%TO.N,Net-(D1-Pad2)*%
%TA.AperFunction,SMDPad,CuDef*%
G36*
G01*
X6619600Y14417200D02*
X6619600Y13167200D01*
G75*
G02*
X6369600Y12917200I-250000J0D01*
G01*
X5444600Y12917200D01*
G75*
G02*
X5194600Y13167200I0J250000D01*
G01*
X5194600Y14417200D01*
G75*
G02*
X5444600Y14667200I250000J0D01*
G01*
X6369600Y14667200D01*
G75*
G02*
X6619600Y14417200I0J-250000D01*
G01*
G37*
%TD.AperFunction*%
%TD*%
D15*
%TO.P,D1,2*%
%TO.N,Net-(D1-Pad2)*%
X5591000Y16205200D03*
%TO.P,D1,1*%
%TO.N,Net-(3.3Vreg1-Pad1)*%
X2791000Y16205200D03*
%TD*%
%TO.P,C4,2*%
%TO.N,GND*%
%TA.AperFunction,SMDPad,CuDef*%
G36*
G01*
X31910000Y15056700D02*
X32860000Y15056700D01*
G75*
G02*
X33110000Y14806700I0J-250000D01*
G01*
X33110000Y14131700D01*
G75*
G02*
X32860000Y13881700I-250000J0D01*
G01*
X31910000Y13881700D01*
G75*
G02*
X31660000Y14131700I0J250000D01*
G01*
X31660000Y14806700D01*
G75*
G02*
X31910000Y15056700I250000J0D01*
G01*
G37*
%TD.AperFunction*%
%TO.P,C4,1*%
%TO.N,+3V3*%
%TA.AperFunction,SMDPad,CuDef*%
G36*
G01*
X31910000Y17131700D02*
X32860000Y17131700D01*
G75*
G02*
X33110000Y16881700I0J-250000D01*
G01*
X33110000Y16206700D01*
G75*
G02*
X32860000Y15956700I-250000J0D01*
G01*
X31910000Y15956700D01*
G75*
G02*
X31660000Y16206700I0J250000D01*
G01*
X31660000Y16881700D01*
G75*
G02*
X31910000Y17131700I250000J0D01*
G01*
G37*
%TD.AperFunction*%
%TD*%
D10*
%TO.P,SG2,2*%
%TO.N,GND*%
X29504640Y10637520D03*
D11*
%TO.P,SG2,1*%
%TO.N,SDADC-AIN8m*%
X29504640Y5557520D03*
%TD*%
D10*
%TO.P,SG1,2*%
%TO.N,SDADC-AIN8m*%
X27284680Y5572760D03*
D11*
%TO.P,SG1,1*%
%TO.N,+3V3*%
X27284680Y10652760D03*
%TD*%
%TO.P,C6,2*%
%TO.N,GND*%
%TA.AperFunction,SMDPad,CuDef*%
G36*
G01*
X7500600Y14104200D02*
X8450600Y14104200D01*
G75*
G02*
X8700600Y13854200I0J-250000D01*
G01*
X8700600Y13179200D01*
G75*
G02*
X8450600Y12929200I-250000J0D01*
G01*
X7500600Y12929200D01*
G75*
G02*
X7250600Y13179200I0J250000D01*
G01*
X7250600Y13854200D01*
G75*
G02*
X7500600Y14104200I250000J0D01*
G01*
G37*
%TD.AperFunction*%
%TO.P,C6,1*%
%TO.N,Net-(3.3Vreg1-Pad1)*%
%TA.AperFunction,SMDPad,CuDef*%
G36*
G01*
X7500600Y16179200D02*
X8450600Y16179200D01*
G75*
G02*
X8700600Y15929200I0J-250000D01*
G01*
X8700600Y15254200D01*
G75*
G02*
X8450600Y15004200I-250000J0D01*
G01*
X7500600Y15004200D01*
G75*
G02*
X7250600Y15254200I0J250000D01*
G01*
X7250600Y15929200D01*
G75*
G02*
X7500600Y16179200I250000J0D01*
G01*
G37*
%TD.AperFunction*%
%TD*%
%TO.P,C3,2*%
%TO.N,GND*%
%TA.AperFunction,SMDPad,CuDef*%
G36*
G01*
X29598600Y15094800D02*
X30548600Y15094800D01*
G75*
G02*
X30798600Y14844800I0J-250000D01*
G01*
X30798600Y14169800D01*
G75*
G02*
X30548600Y13919800I-250000J0D01*
G01*
X29598600Y13919800D01*
G75*
G02*
X29348600Y14169800I0J250000D01*
G01*
X29348600Y14844800D01*
G75*
G02*
X29598600Y15094800I250000J0D01*
G01*
G37*
%TD.AperFunction*%
%TO.P,C3,1*%
%TO.N,+3V3*%
%TA.AperFunction,SMDPad,CuDef*%
G36*
G01*
X29598600Y17169800D02*
X30548600Y17169800D01*
G75*
G02*
X30798600Y16919800I0J-250000D01*
G01*
X30798600Y16244800D01*
G75*
G02*
X30548600Y15994800I-250000J0D01*
G01*
X29598600Y15994800D01*
G75*
G02*
X29348600Y16244800I0J250000D01*
G01*
X29348600Y16919800D01*
G75*
G02*
X29598600Y17169800I250000J0D01*
G01*
G37*
%TD.AperFunction*%
%TD*%
%TO.P,C2,2*%
%TO.N,GND*%
%TA.AperFunction,SMDPad,CuDef*%
G36*
G01*
X34221400Y15044000D02*
X35171400Y15044000D01*
G75*
G02*
X35421400Y14794000I0J-250000D01*
G01*
X35421400Y14119000D01*
G75*
G02*
X35171400Y13869000I-250000J0D01*
G01*
X34221400Y13869000D01*
G75*
G02*
X33971400Y14119000I0J250000D01*
G01*
X33971400Y14794000D01*
G75*
G02*
X34221400Y15044000I250000J0D01*
G01*
G37*
%TD.AperFunction*%
%TO.P,C2,1*%
%TO.N,+3V3*%
%TA.AperFunction,SMDPad,CuDef*%
G36*
G01*
X34221400Y17119000D02*
X35171400Y17119000D01*
G75*
G02*
X35421400Y16869000I0J-250000D01*
G01*
X35421400Y16194000D01*
G75*
G02*
X35171400Y15944000I-250000J0D01*
G01*
X34221400Y15944000D01*
G75*
G02*
X33971400Y16194000I0J250000D01*
G01*
X33971400Y16869000D01*
G75*
G02*
X34221400Y17119000I250000J0D01*
G01*
G37*
%TD.AperFunction*%
%TD*%
D13*
%TO.P,BatCon1,2*%
%TO.N,Net-(BatCon1-Pad2)*%
X3733800Y10769600D03*
D14*
%TO.P,BatCon1,1*%
%TO.N,GND*%
X6273800Y10769600D03*
%TD*%
D16*
%TO.N,NRST*%
X17830800Y9804400D03*
%TO.N,SPI1-MOSI*%
X20015200Y3708400D03*
%TO.N,SPI1-MISO*%
X18948400Y3759200D03*
%TO.N,GND*%
X35306000Y13157200D03*
X32969200Y13157200D03*
X15240000Y4699000D03*
X28244800Y13208000D03*
X30683200Y13208000D03*
X33883600Y9093200D03*
X24762134Y4905066D03*
X29514800Y9042400D03*
X24485600Y15087600D03*
X17818800Y8698800D03*
%TD*%
D17*
%TO.N,Net-(BatCon1-Pad2)*%
X3733800Y10769600D02*
X3733800Y12990500D01*
D18*
X2932100Y13792200D02*
X2932100Y13565200D01*
X2932100Y13565200D02*
X3467100Y13030200D01*
X3467100Y11036300D02*
X3733800Y10769600D01*
X3467100Y13030200D02*
X3467100Y11036300D01*
X3733800Y12990500D02*
X3733800Y13525500D01*
X3467100Y13792200D02*
X2932100Y13792200D01*
X3733800Y13525500D02*
X3467100Y13792200D01*
X3733800Y10769600D02*
X3733800Y10985500D01*
X3733800Y10985500D02*
X3276600Y11442700D01*
X3276600Y11442700D02*
X3276600Y12903200D01*
%TO.N,PA14-SWCLK*%
X22936200Y16637000D02*
X22968400Y16604800D01*
X23371700Y13208000D02*
X22968400Y13611300D01*
X25146000Y13208000D02*
X23371700Y13208000D01*
X25654000Y15087600D02*
X25654000Y13716000D01*
X25654000Y13716000D02*
X25146000Y13208000D01*
X24138281Y16603319D02*
X25654000Y15087600D01*
X22969881Y16603319D02*
X22936200Y16637000D01*
X24138281Y16603319D02*
X22969881Y16603319D01*
%TO.N,PA13-SWDIO*%
X25184102Y11198800D02*
X24380900Y11198800D01*
X26162000Y12176698D02*
X25184102Y11198800D01*
X26162000Y15951200D02*
X26162000Y12176698D01*
X23876000Y18237200D02*
X26162000Y15951200D01*
X21031200Y18237200D02*
X23876000Y18237200D01*
X20396200Y17602200D02*
X21031200Y18237200D01*
X20396200Y16637000D02*
X20396200Y17602200D01*
%TO.N,NRST*%
X14530758Y9602300D02*
X14427200Y9602300D01*
X14934258Y9198800D02*
X14530758Y9602300D01*
X16055900Y9198800D02*
X14934258Y9198800D01*
X16055900Y9198800D02*
X17174400Y9198800D01*
X17174400Y9198800D02*
X17576800Y9601200D01*
X17576800Y9601200D02*
X17830800Y9601200D01*
X17830800Y9601200D02*
X17830800Y9601200D01*
%TO.N,Net-(D1-Pad2)*%
X5907100Y15889100D02*
X5591000Y16205200D01*
X5907100Y13792200D02*
X5907100Y15889100D01*
X5907100Y13792200D02*
X5907100Y14463700D01*
X5907100Y14463700D02*
X5689600Y14681200D01*
X5689600Y14681200D02*
X5689600Y15570200D01*
X5689600Y15570200D02*
X5499100Y15570200D01*
X5499100Y15570200D02*
X5499100Y14681200D01*
X5591000Y16205200D02*
X5591000Y15852600D01*
X5499100Y15760700D02*
X5499100Y15570200D01*
X5591000Y15852600D02*
X5499100Y15760700D01*
%TO.N,SDADC1-AIN8p*%
X33878520Y5542280D02*
X33883600Y5537200D01*
X32809180Y4335780D02*
X32809180Y5542280D01*
X31797172Y3323772D02*
X32809180Y4335780D01*
X21923828Y3323772D02*
X31797172Y3323772D01*
X21493390Y3754210D02*
X21923828Y3323772D01*
X21493390Y5261310D02*
X21493390Y3754210D01*
X21468400Y5286300D02*
X21493390Y5261310D01*
X32809180Y5542280D02*
X33878520Y5542280D01*
X31699200Y5542280D02*
X32809180Y5542280D01*
%TO.N,SPI1-IRQ*%
X17968400Y4483098D02*
X17968400Y5286300D01*
X17293102Y3807800D02*
X17968400Y4483098D01*
X16611600Y3807800D02*
X17293102Y3807800D01*
X12905200Y6197010D02*
X12319590Y6197010D01*
X13632610Y5469600D02*
X12905200Y6197010D01*
X12319590Y6197010D02*
X11404600Y7112000D01*
X13632610Y4809200D02*
X13632610Y5469600D01*
X14634010Y3807800D02*
X13632610Y4809200D01*
X16611600Y3807800D02*
X14634010Y3807800D01*
%TO.N,SPI1-MOSI*%
X19968400Y3907600D02*
X20116800Y3759200D01*
X19968400Y5286300D02*
X19968400Y3907600D01*
%TO.N,SPI1-CSn*%
X17465990Y5288710D02*
X17468400Y5286300D01*
X15996490Y5288710D02*
X17465990Y5288710D01*
X12852400Y8432800D02*
X15996490Y5288710D01*
X10185400Y8432800D02*
X12852400Y8432800D01*
X8864600Y7112000D02*
X10185400Y8432800D01*
%TO.N,SPI1-MISO*%
X6350000Y7112000D02*
X6324600Y7112000D01*
X18968400Y3779200D02*
X18948400Y3759200D01*
X18968400Y5286300D02*
X18968400Y3779200D01*
%TO.N,SPI1-SCK*%
X13182600Y5283200D02*
X12718799Y5747001D01*
X13182600Y4622800D02*
X13182600Y5283200D01*
X12718799Y5747001D02*
X7499601Y5747001D01*
X14640110Y3165290D02*
X13182600Y4622800D01*
X17287002Y3165290D02*
X14640110Y3165290D01*
X7499601Y5747001D02*
X6324600Y4572000D01*
X18468400Y4346688D02*
X17287002Y3165290D01*
X18468400Y5286300D02*
X18468400Y4346688D01*
%TO.N,SPI1-CE*%
X3784600Y7112000D02*
X5588000Y8915400D01*
X15241542Y6698800D02*
X16055900Y6698800D01*
X13024942Y8915400D02*
X15241542Y6698800D01*
X5588000Y8915400D02*
X13024942Y8915400D01*
%TO.N,SDADC-AIN8m*%
X27299920Y5557520D02*
X27284680Y5572760D01*
X21968400Y3990400D02*
X22185019Y3773781D01*
X21968400Y5286300D02*
X21968400Y3990400D01*
X25485701Y3773781D02*
X25008181Y3773781D01*
X27284680Y5572760D02*
X25485701Y3773781D01*
X22185019Y3773781D02*
X25008181Y3773781D01*
X27720901Y3773781D02*
X29504640Y5557520D01*
X25485701Y3773781D02*
X27720901Y3773781D01*
D17*
%TO.N,Net-(3.3Vreg1-Pad1)*%
X3632200Y17627600D02*
X7137400Y17627600D01*
X2791000Y16786400D02*
X3632200Y17627600D01*
D18*
X2791000Y16205200D02*
X2791000Y16786400D01*
D17*
X7137400Y17627600D02*
X7975600Y16789400D01*
X7975600Y16789400D02*
X7975600Y15591700D01*
D18*
X2791000Y16205200D02*
X2791000Y16563800D01*
X2791000Y16563800D02*
X2578100Y16776700D01*
X2578100Y16776700D02*
X2578100Y16840200D01*
X2578100Y16840200D02*
X3594100Y17856200D01*
X3594100Y17856200D02*
X7213600Y17856200D01*
X7213600Y17856200D02*
X8229600Y16840200D01*
X8229600Y15845700D02*
X7975600Y15591700D01*
X7975600Y15591700D02*
X8690700Y15591700D01*
X8690700Y15591700D02*
X9296400Y14986000D01*
X9296400Y14986000D02*
X9296400Y12649200D01*
X8958400Y12311200D02*
X8958400Y11719600D01*
X9296400Y12649200D02*
X8958400Y12311200D01*
X8229600Y16357600D02*
X8229600Y16408400D01*
X9499600Y12547600D02*
X9499600Y15087600D01*
X9194800Y12242800D02*
X9499600Y12547600D01*
X9194800Y12090400D02*
X9194800Y12242800D01*
X8958400Y11854000D02*
X9194800Y12090400D01*
X9499600Y15087600D02*
X8229600Y16357600D01*
X8958400Y11719600D02*
X8958400Y11854000D01*
X8229600Y16408400D02*
X8229600Y15845700D01*
X8229600Y16840200D02*
X8229600Y16408400D01*
X8958400Y11719600D02*
X9718000Y11719600D01*
X9718000Y11719600D02*
X10007600Y11430000D01*
X10007600Y11430000D02*
X10007600Y10210800D01*
X9616400Y9819600D02*
X8958400Y9819600D01*
X10007600Y10210800D02*
X9616400Y9819600D01*
X8958400Y9819600D02*
X9433600Y9819600D01*
X9433600Y9819600D02*
X9601200Y9652000D01*
X9601200Y9652000D02*
X9652000Y9652000D01*
X9652000Y9652000D02*
X10160000Y10160000D01*
X10160000Y10160000D02*
X10160000Y11480800D01*
X10160000Y11480800D02*
X9753600Y11887200D01*
X9753600Y11887200D02*
X9652000Y11887200D01*
X9652000Y11887200D02*
X9347200Y12192000D01*
X9347200Y12192000D02*
X9499600Y12039600D01*
X9499600Y12039600D02*
X9499600Y11836400D01*
%TO.N,Net-(R4-Pad1)*%
X19703010Y14673810D02*
X19468400Y14439200D01*
X23425090Y14673810D02*
X19703010Y14673810D01*
X19468400Y14439200D02*
X19468400Y13611300D01*
X23874900Y14224000D02*
X23425090Y14673810D01*
%TO.N,+3V3*%
X14663010Y12173810D02*
X15605890Y12173810D01*
X13970000Y11480800D02*
X14663010Y12173810D01*
X13970000Y11480800D02*
X13970000Y11785600D01*
X13970000Y11785600D02*
X14528800Y12344400D01*
X15436400Y12198800D02*
X15605890Y12198800D01*
X15290800Y12344400D02*
X15436400Y12198800D01*
X15605890Y12198800D02*
X15605890Y12173810D01*
X14528800Y12344400D02*
X15290800Y12344400D01*
X14224000Y11480800D02*
X13970000Y11480800D01*
X15087600Y12344400D02*
X14224000Y11480800D01*
X15748000Y12344400D02*
X15087600Y12344400D01*
X15893600Y12198800D02*
X15748000Y12344400D01*
X16055900Y12198800D02*
X15893600Y12198800D01*
X13731200Y11719600D02*
X13970000Y11480800D01*
X11158400Y11719600D02*
X13731200Y11719600D01*
X11158400Y11719600D02*
X11496000Y11719600D01*
X11496000Y11719600D02*
X11684000Y11531600D01*
X11684000Y11531600D02*
X13208000Y11531600D01*
X13208000Y11531600D02*
X13208000Y11887200D01*
X13208000Y11887200D02*
X11734800Y11887200D01*
X27156500Y10780940D02*
X27284680Y10652760D01*
X22968400Y5286300D02*
X22968400Y6394000D01*
X22968400Y6394000D02*
X22555200Y6807200D01*
X22555200Y6807200D02*
X19710400Y6807200D01*
X19468400Y6565200D02*
X19468400Y5286300D01*
X19710400Y6807200D02*
X19468400Y6565200D01*
X16210190Y8173810D02*
X17124590Y8173810D01*
X16185200Y8198800D02*
X16210190Y8173810D01*
X16055900Y8198800D02*
X16185200Y8198800D01*
X18733200Y6565200D02*
X19468400Y6565200D01*
X17124590Y8173810D02*
X18733200Y6565200D01*
X24380900Y6698800D02*
X23208800Y6698800D01*
X15015700Y8198800D02*
X14427200Y8787300D01*
X16055900Y8198800D02*
X15015700Y8198800D01*
X16096800Y12198800D02*
X16103600Y12192000D01*
X16055900Y12198800D02*
X16096800Y12198800D01*
X16103600Y12192000D02*
X17272000Y12192000D01*
X17468400Y12388400D02*
X17468400Y13611300D01*
X17272000Y12192000D02*
X17468400Y12388400D01*
%TO.N,GND*%
X29514800Y10210800D02*
X29514800Y9159240D01*
X22468400Y4433118D02*
X22468400Y5286300D01*
X22677728Y4223790D02*
X22468400Y4433118D01*
X24080859Y4223790D02*
X22677728Y4223790D01*
X29504640Y10637520D02*
X29504640Y9647571D01*
X6273800Y11814900D02*
X7975600Y13516700D01*
X6273800Y10769600D02*
X6273800Y11814900D01*
X16535400Y4699000D02*
X16611600Y4622800D01*
X15316200Y4622800D02*
X15240000Y4699000D01*
X16611600Y4622800D02*
X15316200Y4622800D01*
X33883600Y9347200D02*
X33883600Y10617200D01*
X32385000Y14469200D02*
X32533500Y14469200D01*
X15240000Y4699000D02*
X15582900Y4699000D01*
X15582900Y4699000D02*
X15722600Y4838700D01*
X15722600Y4838700D02*
X16357600Y4838700D01*
X32385000Y14469200D02*
X32724000Y14469200D01*
X13970000Y15290800D02*
X15316200Y16637000D01*
X13970000Y13555800D02*
X13970000Y15290800D01*
X15316200Y16637000D02*
X15316200Y16332200D01*
X15316200Y16332200D02*
X14173200Y15189200D01*
X14173200Y15189200D02*
X14173200Y14173200D01*
X7975600Y13516700D02*
X7975600Y13258800D01*
X7975600Y13258800D02*
X6451600Y11734800D01*
X6451600Y11480800D02*
X7162800Y10769600D01*
X6451600Y11734800D02*
X6451600Y11480800D01*
X7162800Y10769600D02*
X6273800Y10769600D01*
X8958400Y10769600D02*
X7162800Y10769600D01*
X8958400Y10769600D02*
X8686800Y10769600D01*
X8686800Y10769600D02*
X8483600Y10972800D01*
X8483600Y10972800D02*
X7213600Y10972800D01*
X7213600Y10972800D02*
X7213600Y11074400D01*
X6553200Y11734800D02*
X6451600Y11734800D01*
X7213600Y11074400D02*
X6553200Y11734800D01*
X16055900Y8698800D02*
X17588800Y8698800D01*
D17*
X34696400Y13766800D02*
X35306000Y13157200D01*
D18*
X34696400Y14456500D02*
X34696400Y13766800D01*
D17*
X32385000Y13741400D02*
X32969200Y13157200D01*
X32385000Y14469200D02*
X32385000Y13741400D01*
X30073600Y13817600D02*
X30683200Y13208000D01*
D18*
X30073600Y14507300D02*
X30073600Y13817600D01*
D17*
X27686000Y13766800D02*
X28244800Y13208000D01*
X27686000Y14507300D02*
X27686000Y13766800D01*
D18*
X24762134Y4905066D02*
X24080859Y4223790D01*
X17968400Y13611300D02*
X17968400Y14645200D01*
X17968400Y14645200D02*
X17576800Y15036800D01*
X17576800Y15036800D02*
X16205200Y15036800D01*
X15316200Y15925800D02*
X15316200Y16637000D01*
X16205200Y15036800D02*
X15316200Y15925800D01*
X24689900Y14883300D02*
X24485600Y15087600D01*
D17*
X24689900Y14224000D02*
X24689900Y14883300D01*
D18*
X17588800Y8698800D02*
X17818800Y8698800D01*
X17818800Y8698800D02*
X17818800Y8698800D01*
%TD*%
D19*
%TO.N,+3V3*%
X20491199Y18777201D02*
X20467400Y18748202D01*
X19885198Y18165999D01*
X19856200Y18142201D01*
X19832402Y18113203D01*
X19832401Y18113202D01*
X19761226Y18026476D01*
X19730238Y17968502D01*
X19692789Y17952990D01*
X19449568Y17790475D01*
X19242725Y17583632D01*
X19126200Y17409240D01*
X19009675Y17583632D01*
X18802832Y17790475D01*
X18559611Y17952990D01*
X18289358Y18064932D01*
X18002460Y18122000D01*
X17709940Y18122000D01*
X17423042Y18064932D01*
X17152789Y17952990D01*
X16909568Y17790475D01*
X16702725Y17583632D01*
X16586200Y17409240D01*
X16469675Y17583632D01*
X16262832Y17790475D01*
X16019611Y17952990D01*
X15749358Y18064932D01*
X15462460Y18122000D01*
X15169940Y18122000D01*
X14883042Y18064932D01*
X14612789Y17952990D01*
X14369568Y17790475D01*
X14237713Y17658620D01*
X14215702Y17731180D01*
X14156737Y17841494D01*
X14077385Y17938185D01*
X13980694Y18017537D01*
X13870380Y18076502D01*
X13750682Y18112812D01*
X13626200Y18125072D01*
X13061950Y18122000D01*
X12903200Y17963250D01*
X12903200Y16764000D01*
X12923200Y16764000D01*
X12923200Y16510000D01*
X12903200Y16510000D01*
X12903200Y15310750D01*
X13061950Y15152000D01*
X13210001Y15151194D01*
X13210001Y14730411D01*
X13155150Y14713772D01*
X13001614Y14631705D01*
X12867038Y14521262D01*
X12756595Y14386686D01*
X12674528Y14233150D01*
X12623992Y14066554D01*
X12606928Y13893300D01*
X12606928Y13218300D01*
X12623992Y13045046D01*
X12674528Y12878450D01*
X12756595Y12724914D01*
X12867038Y12590338D01*
X12873594Y12584958D01*
X12793815Y12519485D01*
X12714463Y12422794D01*
X12655498Y12312480D01*
X12619188Y12192782D01*
X12606928Y12068300D01*
X12610000Y11766550D01*
X12768750Y11607800D01*
X13843000Y11607800D01*
X13843000Y11627800D01*
X14097000Y11627800D01*
X14097000Y11607800D01*
X14117000Y11607800D01*
X14117000Y11353800D01*
X14097000Y11353800D01*
X14097000Y11333800D01*
X13843000Y11333800D01*
X13843000Y11353800D01*
X12768750Y11353800D01*
X12610000Y11195050D01*
X12606928Y10893300D01*
X12619188Y10768818D01*
X12655498Y10649120D01*
X12714463Y10538806D01*
X12793815Y10442115D01*
X12890506Y10362763D01*
X13000820Y10303798D01*
X13120518Y10267488D01*
X13245000Y10255228D01*
X13684250Y10258300D01*
X13842998Y10417048D01*
X13842998Y10372630D01*
X13805304Y10341696D01*
X13713516Y10229851D01*
X13645310Y10102248D01*
X13603310Y9963791D01*
X13589128Y9819800D01*
X13589128Y9426015D01*
X13588746Y9426397D01*
X13564943Y9455401D01*
X13449218Y9550374D01*
X13317189Y9620946D01*
X13173928Y9664403D01*
X13062275Y9675400D01*
X13062264Y9675400D01*
X13024942Y9679076D01*
X12987620Y9675400D01*
X12326472Y9675400D01*
X12326472Y10144600D01*
X12314212Y10269082D01*
X12277902Y10388780D01*
X12218937Y10499094D01*
X12139585Y10595785D01*
X12042894Y10675137D01*
X11932580Y10734102D01*
X11815559Y10769600D01*
X11932580Y10805098D01*
X12042894Y10864063D01*
X12139585Y10943415D01*
X12218937Y11040106D01*
X12277902Y11150420D01*
X12314212Y11270118D01*
X12326472Y11394600D01*
X12323400Y11433850D01*
X12164650Y11592600D01*
X11285400Y11592600D01*
X11285400Y11572600D01*
X11031400Y11572600D01*
X11031400Y11592600D01*
X11011400Y11592600D01*
X11011400Y11846600D01*
X11031400Y11846600D01*
X11031400Y12520850D01*
X11285400Y12520850D01*
X11285400Y11846600D01*
X12164650Y11846600D01*
X12323400Y12005350D01*
X12326472Y12044600D01*
X12314212Y12169082D01*
X12277902Y12288780D01*
X12218937Y12399094D01*
X12139585Y12495785D01*
X12042894Y12575137D01*
X11932580Y12634102D01*
X11812882Y12670412D01*
X11688400Y12682672D01*
X11444150Y12679600D01*
X11285400Y12520850D01*
X11031400Y12520850D01*
X10872650Y12679600D01*
X10628400Y12682672D01*
X10503918Y12670412D01*
X10384220Y12634102D01*
X10273906Y12575137D01*
X10261562Y12565006D01*
X10259600Y12584922D01*
X10259600Y15050278D01*
X10263276Y15087601D01*
X10259600Y15124924D01*
X10259600Y15124933D01*
X10248603Y15236586D01*
X10205146Y15379847D01*
X10134574Y15511876D01*
X10039601Y15627601D01*
X10010603Y15651399D01*
X9875002Y15787000D01*
X11288128Y15787000D01*
X11300388Y15662518D01*
X11336698Y15542820D01*
X11395663Y15432506D01*
X11475015Y15335815D01*
X11571706Y15256463D01*
X11682020Y15197498D01*
X11801718Y15161188D01*
X11926200Y15148928D01*
X12490450Y15152000D01*
X12649200Y15310750D01*
X12649200Y16510000D01*
X11449950Y16510000D01*
X11291200Y16351250D01*
X11288128Y15787000D01*
X9875002Y15787000D01*
X8989600Y16672401D01*
X8989600Y16802878D01*
X8993276Y16840200D01*
X8989600Y16877523D01*
X8989600Y16877533D01*
X8978603Y16989186D01*
X8935146Y17132447D01*
X8887692Y17221226D01*
X8864574Y17264477D01*
X8793399Y17351203D01*
X8769601Y17380201D01*
X8740604Y17403998D01*
X8657602Y17487000D01*
X11288128Y17487000D01*
X11291200Y16922750D01*
X11449950Y16764000D01*
X12649200Y16764000D01*
X12649200Y17963250D01*
X12490450Y18122000D01*
X11926200Y18125072D01*
X11801718Y18112812D01*
X11682020Y18076502D01*
X11571706Y18017537D01*
X11475015Y17938185D01*
X11395663Y17841494D01*
X11336698Y17731180D01*
X11300388Y17611482D01*
X11288128Y17487000D01*
X8657602Y17487000D01*
X7777404Y18367198D01*
X7753601Y18396201D01*
X7637876Y18491174D01*
X7505847Y18561746D01*
X7362586Y18605203D01*
X7250933Y18616200D01*
X7250922Y18616200D01*
X7213600Y18619876D01*
X7176278Y18616200D01*
X3631422Y18616200D01*
X3594100Y18619876D01*
X3556777Y18616200D01*
X3556767Y18616200D01*
X3445114Y18605203D01*
X3301853Y18561746D01*
X3169823Y18491174D01*
X3124682Y18454127D01*
X3054099Y18396201D01*
X3030301Y18367203D01*
X2067101Y17404002D01*
X2038099Y17380201D01*
X2012992Y17349608D01*
X1996820Y17344702D01*
X1886506Y17285737D01*
X1789815Y17206385D01*
X1710463Y17109694D01*
X1651498Y16999380D01*
X1615188Y16879682D01*
X1602928Y16755200D01*
X1602928Y15655200D01*
X1615188Y15530718D01*
X1651498Y15411020D01*
X1710463Y15300706D01*
X1789815Y15204015D01*
X1886506Y15124663D01*
X1917999Y15107829D01*
X1841638Y15045162D01*
X1731195Y14910586D01*
X1649128Y14757050D01*
X1598592Y14590454D01*
X1581528Y14417200D01*
X1581528Y13167200D01*
X1598592Y12993946D01*
X1649128Y12827350D01*
X1731195Y12673814D01*
X1841638Y12539238D01*
X1976214Y12428795D01*
X2129750Y12346728D01*
X2296346Y12296192D01*
X2469600Y12279128D01*
X2516601Y12279128D01*
X2516600Y11620861D01*
X2417810Y11473011D01*
X2305868Y11202758D01*
X2248800Y10915860D01*
X2248800Y10623340D01*
X2305868Y10336442D01*
X2417810Y10066189D01*
X2580325Y9822968D01*
X2787168Y9616125D01*
X3030389Y9453610D01*
X3300642Y9341668D01*
X3587540Y9284600D01*
X3880060Y9284600D01*
X4166958Y9341668D01*
X4437211Y9453610D01*
X4680432Y9616125D01*
X4812287Y9747980D01*
X4834298Y9675420D01*
X4893263Y9565106D01*
X4972615Y9468415D01*
X5024023Y9426225D01*
X4151008Y8553210D01*
X3930860Y8597000D01*
X3638340Y8597000D01*
X3351442Y8539932D01*
X3081189Y8427990D01*
X2837968Y8265475D01*
X2631125Y8058632D01*
X2468610Y7815411D01*
X2356668Y7545158D01*
X2299600Y7258260D01*
X2299600Y6965740D01*
X2356668Y6678842D01*
X2468610Y6408589D01*
X2631125Y6165368D01*
X2762980Y6033513D01*
X2690420Y6011502D01*
X2580106Y5952537D01*
X2483415Y5873185D01*
X2404063Y5776494D01*
X2345098Y5666180D01*
X2308788Y5546482D01*
X2296528Y5422000D01*
X2296528Y3722000D01*
X2308788Y3597518D01*
X2345098Y3477820D01*
X2404063Y3367506D01*
X2483415Y3270815D01*
X2580106Y3191463D01*
X2690420Y3132498D01*
X2810118Y3096188D01*
X2934600Y3083928D01*
X4634600Y3083928D01*
X4759082Y3096188D01*
X4878780Y3132498D01*
X4989094Y3191463D01*
X5085785Y3270815D01*
X5165137Y3367506D01*
X5224102Y3477820D01*
X5246113Y3550380D01*
X5377968Y3418525D01*
X5621189Y3256010D01*
X5891442Y3144068D01*
X6178340Y3087000D01*
X6470860Y3087000D01*
X6757758Y3144068D01*
X7028011Y3256010D01*
X7271232Y3418525D01*
X7478075Y3625368D01*
X7599795Y3807534D01*
X7669422Y3690645D01*
X7864331Y3474412D01*
X8097680Y3300359D01*
X8360501Y3175175D01*
X8507710Y3130524D01*
X8737600Y3251845D01*
X8737600Y4445000D01*
X8717600Y4445000D01*
X8717600Y4699000D01*
X8737600Y4699000D01*
X8737600Y4719000D01*
X8991600Y4719000D01*
X8991600Y4699000D01*
X9011600Y4699000D01*
X9011600Y4445000D01*
X8991600Y4445000D01*
X8991600Y3251845D01*
X9221490Y3130524D01*
X9368699Y3175175D01*
X9631520Y3300359D01*
X9864869Y3474412D01*
X10059778Y3690645D01*
X10129405Y3807534D01*
X10251125Y3625368D01*
X10457968Y3418525D01*
X10701189Y3256010D01*
X10971442Y3144068D01*
X11258340Y3087000D01*
X11550860Y3087000D01*
X11837758Y3144068D01*
X12108011Y3256010D01*
X12351232Y3418525D01*
X12558075Y3625368D01*
X12720590Y3868589D01*
X12762011Y3968588D01*
X14076315Y2654282D01*
X14100109Y2625289D01*
X14129102Y2601495D01*
X14129106Y2601491D01*
X14183500Y2556852D01*
X14215834Y2530316D01*
X14347863Y2459744D01*
X14491124Y2416287D01*
X14602777Y2405290D01*
X14602786Y2405290D01*
X14640109Y2401614D01*
X14677432Y2405290D01*
X17249680Y2405290D01*
X17287002Y2401614D01*
X17324324Y2405290D01*
X17324335Y2405290D01*
X17435988Y2416287D01*
X17579249Y2459744D01*
X17711278Y2530316D01*
X17827003Y2625289D01*
X17850806Y2654293D01*
X18220201Y3023688D01*
X18288626Y2955263D01*
X18458144Y2841995D01*
X18646502Y2763974D01*
X18846461Y2724200D01*
X19050339Y2724200D01*
X19250298Y2763974D01*
X19438656Y2841995D01*
X19443786Y2845423D01*
X19524944Y2791195D01*
X19713302Y2713174D01*
X19913261Y2673400D01*
X20117139Y2673400D01*
X20317098Y2713174D01*
X20505456Y2791195D01*
X20674974Y2904463D01*
X20819137Y3048626D01*
X20932405Y3218144D01*
X20938361Y3232522D01*
X20953390Y3214209D01*
X20982388Y3190411D01*
X21360024Y2812775D01*
X21383827Y2783771D01*
X21499552Y2688798D01*
X21631581Y2618226D01*
X21774842Y2574769D01*
X21886495Y2563772D01*
X21886504Y2563772D01*
X21923827Y2560096D01*
X21961150Y2563772D01*
X31759850Y2563772D01*
X31797172Y2560096D01*
X31834494Y2563772D01*
X31834505Y2563772D01*
X31946158Y2574769D01*
X32089419Y2618226D01*
X32221448Y2688798D01*
X32337173Y2783771D01*
X32360975Y2812774D01*
X33320189Y3771986D01*
X33349181Y3795779D01*
X33372975Y3824772D01*
X33372979Y3824776D01*
X33444153Y3911503D01*
X33444154Y3911504D01*
X33514726Y4043533D01*
X33558183Y4186794D01*
X33563398Y4239739D01*
X33752114Y4202200D01*
X34015086Y4202200D01*
X34273005Y4253504D01*
X34515959Y4354139D01*
X34734613Y4500238D01*
X34920562Y4686187D01*
X35066661Y4904841D01*
X35167296Y5147795D01*
X35218600Y5405714D01*
X35218600Y5668686D01*
X35167296Y5926605D01*
X35066661Y6169559D01*
X34920562Y6388213D01*
X34734613Y6574162D01*
X34515959Y6720261D01*
X34273005Y6820896D01*
X34015086Y6872200D01*
X33752114Y6872200D01*
X33494195Y6820896D01*
X33251241Y6720261D01*
X33032587Y6574162D01*
X32846638Y6388213D01*
X32793097Y6308083D01*
X32736162Y6393293D01*
X32550213Y6579242D01*
X32331559Y6725341D01*
X32088605Y6825976D01*
X31830686Y6877280D01*
X31567714Y6877280D01*
X31309795Y6825976D01*
X31066841Y6725341D01*
X30848187Y6579242D01*
X30662238Y6393293D01*
X30607011Y6310640D01*
X30541602Y6408533D01*
X30355653Y6594482D01*
X30136999Y6740581D01*
X29894045Y6841216D01*
X29636126Y6892520D01*
X29373154Y6892520D01*
X29115235Y6841216D01*
X28872281Y6740581D01*
X28653627Y6594482D01*
X28467678Y6408533D01*
X28399751Y6306873D01*
X28321642Y6423773D01*
X28135693Y6609722D01*
X27917039Y6755821D01*
X27674085Y6856456D01*
X27416166Y6907760D01*
X27153194Y6907760D01*
X26895275Y6856456D01*
X26652321Y6755821D01*
X26433667Y6609722D01*
X26247718Y6423773D01*
X26101619Y6205119D01*
X26000984Y5962165D01*
X25949680Y5704246D01*
X25949680Y5441274D01*
X25971035Y5333917D01*
X25771748Y5134630D01*
X25757360Y5206964D01*
X25679339Y5395322D01*
X25566071Y5564840D01*
X25421908Y5709003D01*
X25252390Y5822271D01*
X25064032Y5900292D01*
X25007758Y5911486D01*
X25108800Y5910800D01*
X25233452Y5921186D01*
X25353682Y5955691D01*
X25464871Y6012989D01*
X25562746Y6090878D01*
X25643544Y6186364D01*
X25704161Y6295779D01*
X25742268Y6414917D01*
X25753400Y6517050D01*
X25594650Y6675800D01*
X25593755Y6675800D01*
X25636298Y6727638D01*
X25677418Y6804568D01*
X25753400Y6880550D01*
X25742268Y6982683D01*
X25742214Y6982851D01*
X25742771Y6984687D01*
X25756472Y7123800D01*
X25756472Y7273800D01*
X25742771Y7412913D01*
X25731885Y7448800D01*
X25742771Y7484687D01*
X25756472Y7623800D01*
X25756472Y7773800D01*
X25742771Y7912913D01*
X25731885Y7948800D01*
X25742771Y7984687D01*
X25756472Y8123800D01*
X25756472Y8273800D01*
X25742771Y8412913D01*
X25731885Y8448800D01*
X25742771Y8484687D01*
X25756472Y8623800D01*
X25756472Y8773800D01*
X25742771Y8912913D01*
X25731885Y8948800D01*
X25742771Y8984687D01*
X25756472Y9123800D01*
X25756472Y9273800D01*
X25742771Y9412913D01*
X25731885Y9448800D01*
X25742771Y9484687D01*
X25756472Y9623800D01*
X25756472Y9731491D01*
X26543016Y9731491D01*
X26602477Y9497723D01*
X26840922Y9386826D01*
X27096420Y9324577D01*
X27359153Y9313370D01*
X27619024Y9353635D01*
X27866046Y9443825D01*
X27966883Y9497723D01*
X28026344Y9731491D01*
X27284680Y10473155D01*
X26543016Y9731491D01*
X25756472Y9731491D01*
X25756472Y9773800D01*
X25742771Y9912913D01*
X25731885Y9948800D01*
X25742771Y9984687D01*
X25756472Y10123800D01*
X25756472Y10273800D01*
X25742771Y10412913D01*
X25731885Y10448800D01*
X25742771Y10484687D01*
X25756472Y10623800D01*
X25756472Y10696369D01*
X25974334Y10914231D01*
X25956497Y10841020D01*
X25945290Y10578287D01*
X25985555Y10318416D01*
X26075745Y10071394D01*
X26129643Y9970557D01*
X26363411Y9911096D01*
X27105075Y10652760D01*
X27464285Y10652760D01*
X28205949Y9911096D01*
X28358503Y9949900D01*
X28467678Y9786507D01*
X28647236Y9606949D01*
X28597595Y9532656D01*
X28519574Y9344298D01*
X28479800Y9144339D01*
X28479800Y8940461D01*
X28519574Y8740502D01*
X28597595Y8552144D01*
X28710863Y8382626D01*
X28855026Y8238463D01*
X29024544Y8125195D01*
X29212902Y8047174D01*
X29412861Y8007400D01*
X29616739Y8007400D01*
X29816698Y8047174D01*
X30005056Y8125195D01*
X30174574Y8238463D01*
X30318737Y8382626D01*
X30432005Y8552144D01*
X30510026Y8740502D01*
X30549800Y8940461D01*
X30549800Y9144339D01*
X30510026Y9344298D01*
X30432005Y9532656D01*
X30374225Y9619130D01*
X30456106Y9701011D01*
X30957536Y9701011D01*
X31016997Y9467243D01*
X31255442Y9356346D01*
X31510940Y9294097D01*
X31773673Y9282890D01*
X32033544Y9323155D01*
X32280566Y9413345D01*
X32381403Y9467243D01*
X32440864Y9701011D01*
X31699200Y10442675D01*
X30957536Y9701011D01*
X30456106Y9701011D01*
X30541602Y9786507D01*
X30629679Y9918325D01*
X30777931Y9880616D01*
X31519595Y10622280D01*
X31878805Y10622280D01*
X32620469Y9880616D01*
X32748431Y9913164D01*
X32846638Y9766187D01*
X32991619Y9621206D01*
X32966395Y9583456D01*
X32888374Y9395098D01*
X32848600Y9195139D01*
X32848600Y8991261D01*
X32888374Y8791302D01*
X32966395Y8602944D01*
X33079663Y8433426D01*
X33223826Y8289263D01*
X33393344Y8175995D01*
X33581702Y8097974D01*
X33781661Y8058200D01*
X33985539Y8058200D01*
X34185498Y8097974D01*
X34373856Y8175995D01*
X34543374Y8289263D01*
X34687537Y8433426D01*
X34800805Y8602944D01*
X34878826Y8791302D01*
X34918600Y8991261D01*
X34918600Y9195139D01*
X34878826Y9395098D01*
X34800805Y9583456D01*
X34775581Y9621206D01*
X34920562Y9766187D01*
X35066661Y9984841D01*
X35167296Y10227795D01*
X35218600Y10485714D01*
X35218600Y10748686D01*
X35167296Y11006605D01*
X35066661Y11249559D01*
X34920562Y11468213D01*
X34734613Y11654162D01*
X34515959Y11800261D01*
X34273005Y11900896D01*
X34015086Y11952200D01*
X33752114Y11952200D01*
X33494195Y11900896D01*
X33251241Y11800261D01*
X33032587Y11654162D01*
X32846638Y11468213D01*
X32754234Y11329920D01*
X32620469Y11363944D01*
X31878805Y10622280D01*
X31519595Y10622280D01*
X30777931Y11363944D01*
X30647087Y11330663D01*
X30541602Y11488533D01*
X30486586Y11543549D01*
X30957536Y11543549D01*
X31699200Y10801885D01*
X32440864Y11543549D01*
X32381403Y11777317D01*
X32142958Y11888214D01*
X31887460Y11950463D01*
X31624727Y11961670D01*
X31364856Y11921405D01*
X31117834Y11831215D01*
X31016997Y11777317D01*
X30957536Y11543549D01*
X30486586Y11543549D01*
X30355653Y11674482D01*
X30136999Y11820581D01*
X29894045Y11921216D01*
X29636126Y11972520D01*
X29373154Y11972520D01*
X29115235Y11921216D01*
X28872281Y11820581D01*
X28653627Y11674482D01*
X28467678Y11488533D01*
X28375911Y11351193D01*
X28205949Y11394424D01*
X27464285Y10652760D01*
X27105075Y10652760D01*
X27090933Y10666902D01*
X27270538Y10846507D01*
X27284680Y10832365D01*
X28026344Y11574029D01*
X27966883Y11807797D01*
X27728438Y11918694D01*
X27472940Y11980943D01*
X27210207Y11992150D01*
X26950336Y11951885D01*
X26880238Y11926292D01*
X26911003Y12027712D01*
X26922000Y12139365D01*
X26925677Y12176698D01*
X26922000Y12214031D01*
X26922000Y13333903D01*
X27037746Y13298792D01*
X27056055Y13296989D01*
X27059854Y13292360D01*
X27103655Y13238988D01*
X27103659Y13238984D01*
X27128237Y13209036D01*
X27158185Y13184458D01*
X27209800Y13132843D01*
X27209800Y13106061D01*
X27249574Y12906102D01*
X27327595Y12717744D01*
X27440863Y12548226D01*
X27585026Y12404063D01*
X27754544Y12290795D01*
X27942902Y12212774D01*
X28142861Y12173000D01*
X28346739Y12173000D01*
X28546698Y12212774D01*
X28735056Y12290795D01*
X28904574Y12404063D01*
X29048737Y12548226D01*
X29162005Y12717744D01*
X29240026Y12906102D01*
X29279800Y13106061D01*
X29279800Y13309939D01*
X29272814Y13345062D01*
X29425346Y13298792D01*
X29489012Y13292521D01*
X29491255Y13289788D01*
X29648200Y13132843D01*
X29648200Y13106061D01*
X29687974Y12906102D01*
X29765995Y12717744D01*
X29879263Y12548226D01*
X30023426Y12404063D01*
X30192944Y12290795D01*
X30381302Y12212774D01*
X30581261Y12173000D01*
X30785139Y12173000D01*
X30985098Y12212774D01*
X31173456Y12290795D01*
X31342974Y12404063D01*
X31487137Y12548226D01*
X31600405Y12717744D01*
X31678426Y12906102D01*
X31718200Y13106061D01*
X31718200Y13266318D01*
X31736746Y13260692D01*
X31766394Y13257772D01*
X31802655Y13213588D01*
X31802659Y13213584D01*
X31827237Y13183636D01*
X31857185Y13159058D01*
X31934200Y13082043D01*
X31934200Y13055261D01*
X31973974Y12855302D01*
X32051995Y12666944D01*
X32165263Y12497426D01*
X32309426Y12353263D01*
X32478944Y12239995D01*
X32667302Y12161974D01*
X32867261Y12122200D01*
X33071139Y12122200D01*
X33271098Y12161974D01*
X33459456Y12239995D01*
X33628974Y12353263D01*
X33773137Y12497426D01*
X33886405Y12666944D01*
X33964426Y12855302D01*
X34004200Y13055261D01*
X34004200Y13259139D01*
X34003738Y13261463D01*
X34048146Y13247992D01*
X34111812Y13241721D01*
X34114055Y13238988D01*
X34271000Y13082043D01*
X34271000Y13055261D01*
X34310774Y12855302D01*
X34388795Y12666944D01*
X34502063Y12497426D01*
X34646226Y12353263D01*
X34815744Y12239995D01*
X35004102Y12161974D01*
X35204061Y12122200D01*
X35407939Y12122200D01*
X35607898Y12161974D01*
X35796256Y12239995D01*
X35965774Y12353263D01*
X36109937Y12497426D01*
X36223205Y12666944D01*
X36301226Y12855302D01*
X36341000Y13055261D01*
X36341000Y13259139D01*
X36301226Y13459098D01*
X36223205Y13647456D01*
X36109937Y13816974D01*
X36028154Y13898757D01*
X36042408Y13945746D01*
X36059472Y14119000D01*
X36059472Y14794000D01*
X36042408Y14967254D01*
X35991872Y15133850D01*
X35909805Y15287386D01*
X35799362Y15421962D01*
X35792806Y15427342D01*
X35872585Y15492815D01*
X35951937Y15589506D01*
X36010902Y15699820D01*
X36047212Y15819518D01*
X36059472Y15944000D01*
X36056400Y16245750D01*
X35897650Y16404500D01*
X34823400Y16404500D01*
X34823400Y16384500D01*
X34569400Y16384500D01*
X34569400Y16404500D01*
X33598950Y16404500D01*
X33586250Y16417200D01*
X32512000Y16417200D01*
X32512000Y16397200D01*
X32258000Y16397200D01*
X32258000Y16417200D01*
X31312950Y16417200D01*
X31274850Y16455300D01*
X30200600Y16455300D01*
X30200600Y16435300D01*
X29946600Y16435300D01*
X29946600Y16455300D01*
X27813000Y16455300D01*
X27813000Y16435300D01*
X27559000Y16435300D01*
X27559000Y16455300D01*
X27539000Y16455300D01*
X27539000Y16709300D01*
X27559000Y16709300D01*
X27559000Y17646050D01*
X27813000Y17646050D01*
X27813000Y16709300D01*
X29946600Y16709300D01*
X29946600Y17646050D01*
X30200600Y17646050D01*
X30200600Y16709300D01*
X31145650Y16709300D01*
X31183750Y16671200D01*
X32258000Y16671200D01*
X32258000Y17607950D01*
X32512000Y17607950D01*
X32512000Y16671200D01*
X33482450Y16671200D01*
X33495150Y16658500D01*
X34569400Y16658500D01*
X34569400Y17595250D01*
X34823400Y17595250D01*
X34823400Y16658500D01*
X35897650Y16658500D01*
X36056400Y16817250D01*
X36059472Y17119000D01*
X36047212Y17243482D01*
X36010902Y17363180D01*
X35951937Y17473494D01*
X35872585Y17570185D01*
X35775894Y17649537D01*
X35665580Y17708502D01*
X35545882Y17744812D01*
X35421400Y17757072D01*
X34982150Y17754000D01*
X34823400Y17595250D01*
X34569400Y17595250D01*
X34410650Y17754000D01*
X33971400Y17757072D01*
X33846918Y17744812D01*
X33727220Y17708502D01*
X33616906Y17649537D01*
X33548438Y17593347D01*
X33464494Y17662237D01*
X33354180Y17721202D01*
X33234482Y17757512D01*
X33110000Y17769772D01*
X32670750Y17766700D01*
X32512000Y17607950D01*
X32258000Y17607950D01*
X32099250Y17766700D01*
X31660000Y17769772D01*
X31535518Y17757512D01*
X31415820Y17721202D01*
X31305506Y17662237D01*
X31251980Y17618310D01*
X31249785Y17620985D01*
X31153094Y17700337D01*
X31042780Y17759302D01*
X30923082Y17795612D01*
X30798600Y17807872D01*
X30359350Y17804800D01*
X30200600Y17646050D01*
X29946600Y17646050D01*
X29787850Y17804800D01*
X29348600Y17807872D01*
X29224118Y17795612D01*
X29104420Y17759302D01*
X28994106Y17700337D01*
X28897415Y17620985D01*
X28879800Y17599521D01*
X28862185Y17620985D01*
X28765494Y17700337D01*
X28655180Y17759302D01*
X28535482Y17795612D01*
X28411000Y17807872D01*
X27971750Y17804800D01*
X27813000Y17646050D01*
X27559000Y17646050D01*
X27400250Y17804800D01*
X26961000Y17807872D01*
X26836518Y17795612D01*
X26716820Y17759302D01*
X26606506Y17700337D01*
X26509815Y17620985D01*
X26430463Y17524294D01*
X26371498Y17413980D01*
X26335188Y17294282D01*
X26322928Y17169800D01*
X26326000Y16868050D01*
X26484748Y16709302D01*
X26478700Y16709302D01*
X24439804Y18748197D01*
X24416001Y18777201D01*
X24330707Y18847200D01*
X36264319Y18847200D01*
X36365133Y18837315D01*
X36431057Y18817411D01*
X36491855Y18785085D01*
X36545219Y18741561D01*
X36589112Y18688504D01*
X36621866Y18627929D01*
X36642228Y18562147D01*
X36652601Y18463460D01*
X36652600Y2013481D01*
X36642715Y1912669D01*
X36622811Y1846742D01*
X36595690Y1795735D01*
X36374457Y1637711D01*
X36367547Y1635572D01*
X36268869Y1625200D01*
X1657881Y1625200D01*
X1557069Y1635085D01*
X1491142Y1654989D01*
X1430345Y1687315D01*
X1376982Y1730838D01*
X1333085Y1783900D01*
X1300334Y1844473D01*
X1279972Y1910253D01*
X1269600Y2008931D01*
X1269600Y18458919D01*
X1277332Y18537775D01*
X1625644Y18844290D01*
X1653330Y18847200D01*
X20576493Y18847200D01*
X20491199Y18777201D01*
%TA.AperFunction,Conductor*%
D20*
G36*
X20491199Y18777201D02*
G01*
X20467400Y18748202D01*
X19885198Y18165999D01*
X19856200Y18142201D01*
X19832402Y18113203D01*
X19832401Y18113202D01*
X19761226Y18026476D01*
X19730238Y17968502D01*
X19692789Y17952990D01*
X19449568Y17790475D01*
X19242725Y17583632D01*
X19126200Y17409240D01*
X19009675Y17583632D01*
X18802832Y17790475D01*
X18559611Y17952990D01*
X18289358Y18064932D01*
X18002460Y18122000D01*
X17709940Y18122000D01*
X17423042Y18064932D01*
X17152789Y17952990D01*
X16909568Y17790475D01*
X16702725Y17583632D01*
X16586200Y17409240D01*
X16469675Y17583632D01*
X16262832Y17790475D01*
X16019611Y17952990D01*
X15749358Y18064932D01*
X15462460Y18122000D01*
X15169940Y18122000D01*
X14883042Y18064932D01*
X14612789Y17952990D01*
X14369568Y17790475D01*
X14237713Y17658620D01*
X14215702Y17731180D01*
X14156737Y17841494D01*
X14077385Y17938185D01*
X13980694Y18017537D01*
X13870380Y18076502D01*
X13750682Y18112812D01*
X13626200Y18125072D01*
X13061950Y18122000D01*
X12903200Y17963250D01*
X12903200Y16764000D01*
X12923200Y16764000D01*
X12923200Y16510000D01*
X12903200Y16510000D01*
X12903200Y15310750D01*
X13061950Y15152000D01*
X13210001Y15151194D01*
X13210001Y14730411D01*
X13155150Y14713772D01*
X13001614Y14631705D01*
X12867038Y14521262D01*
X12756595Y14386686D01*
X12674528Y14233150D01*
X12623992Y14066554D01*
X12606928Y13893300D01*
X12606928Y13218300D01*
X12623992Y13045046D01*
X12674528Y12878450D01*
X12756595Y12724914D01*
X12867038Y12590338D01*
X12873594Y12584958D01*
X12793815Y12519485D01*
X12714463Y12422794D01*
X12655498Y12312480D01*
X12619188Y12192782D01*
X12606928Y12068300D01*
X12610000Y11766550D01*
X12768750Y11607800D01*
X13843000Y11607800D01*
X13843000Y11627800D01*
X14097000Y11627800D01*
X14097000Y11607800D01*
X14117000Y11607800D01*
X14117000Y11353800D01*
X14097000Y11353800D01*
X14097000Y11333800D01*
X13843000Y11333800D01*
X13843000Y11353800D01*
X12768750Y11353800D01*
X12610000Y11195050D01*
X12606928Y10893300D01*
X12619188Y10768818D01*
X12655498Y10649120D01*
X12714463Y10538806D01*
X12793815Y10442115D01*
X12890506Y10362763D01*
X13000820Y10303798D01*
X13120518Y10267488D01*
X13245000Y10255228D01*
X13684250Y10258300D01*
X13842998Y10417048D01*
X13842998Y10372630D01*
X13805304Y10341696D01*
X13713516Y10229851D01*
X13645310Y10102248D01*
X13603310Y9963791D01*
X13589128Y9819800D01*
X13589128Y9426015D01*
X13588746Y9426397D01*
X13564943Y9455401D01*
X13449218Y9550374D01*
X13317189Y9620946D01*
X13173928Y9664403D01*
X13062275Y9675400D01*
X13062264Y9675400D01*
X13024942Y9679076D01*
X12987620Y9675400D01*
X12326472Y9675400D01*
X12326472Y10144600D01*
X12314212Y10269082D01*
X12277902Y10388780D01*
X12218937Y10499094D01*
X12139585Y10595785D01*
X12042894Y10675137D01*
X11932580Y10734102D01*
X11815559Y10769600D01*
X11932580Y10805098D01*
X12042894Y10864063D01*
X12139585Y10943415D01*
X12218937Y11040106D01*
X12277902Y11150420D01*
X12314212Y11270118D01*
X12326472Y11394600D01*
X12323400Y11433850D01*
X12164650Y11592600D01*
X11285400Y11592600D01*
X11285400Y11572600D01*
X11031400Y11572600D01*
X11031400Y11592600D01*
X11011400Y11592600D01*
X11011400Y11846600D01*
X11031400Y11846600D01*
X11031400Y12520850D01*
X11285400Y12520850D01*
X11285400Y11846600D01*
X12164650Y11846600D01*
X12323400Y12005350D01*
X12326472Y12044600D01*
X12314212Y12169082D01*
X12277902Y12288780D01*
X12218937Y12399094D01*
X12139585Y12495785D01*
X12042894Y12575137D01*
X11932580Y12634102D01*
X11812882Y12670412D01*
X11688400Y12682672D01*
X11444150Y12679600D01*
X11285400Y12520850D01*
X11031400Y12520850D01*
X10872650Y12679600D01*
X10628400Y12682672D01*
X10503918Y12670412D01*
X10384220Y12634102D01*
X10273906Y12575137D01*
X10261562Y12565006D01*
X10259600Y12584922D01*
X10259600Y15050278D01*
X10263276Y15087601D01*
X10259600Y15124924D01*
X10259600Y15124933D01*
X10248603Y15236586D01*
X10205146Y15379847D01*
X10134574Y15511876D01*
X10039601Y15627601D01*
X10010603Y15651399D01*
X9875002Y15787000D01*
X11288128Y15787000D01*
X11300388Y15662518D01*
X11336698Y15542820D01*
X11395663Y15432506D01*
X11475015Y15335815D01*
X11571706Y15256463D01*
X11682020Y15197498D01*
X11801718Y15161188D01*
X11926200Y15148928D01*
X12490450Y15152000D01*
X12649200Y15310750D01*
X12649200Y16510000D01*
X11449950Y16510000D01*
X11291200Y16351250D01*
X11288128Y15787000D01*
X9875002Y15787000D01*
X8989600Y16672401D01*
X8989600Y16802878D01*
X8993276Y16840200D01*
X8989600Y16877523D01*
X8989600Y16877533D01*
X8978603Y16989186D01*
X8935146Y17132447D01*
X8887692Y17221226D01*
X8864574Y17264477D01*
X8793399Y17351203D01*
X8769601Y17380201D01*
X8740604Y17403998D01*
X8657602Y17487000D01*
X11288128Y17487000D01*
X11291200Y16922750D01*
X11449950Y16764000D01*
X12649200Y16764000D01*
X12649200Y17963250D01*
X12490450Y18122000D01*
X11926200Y18125072D01*
X11801718Y18112812D01*
X11682020Y18076502D01*
X11571706Y18017537D01*
X11475015Y17938185D01*
X11395663Y17841494D01*
X11336698Y17731180D01*
X11300388Y17611482D01*
X11288128Y17487000D01*
X8657602Y17487000D01*
X7777404Y18367198D01*
X7753601Y18396201D01*
X7637876Y18491174D01*
X7505847Y18561746D01*
X7362586Y18605203D01*
X7250933Y18616200D01*
X7250922Y18616200D01*
X7213600Y18619876D01*
X7176278Y18616200D01*
X3631422Y18616200D01*
X3594100Y18619876D01*
X3556777Y18616200D01*
X3556767Y18616200D01*
X3445114Y18605203D01*
X3301853Y18561746D01*
X3169823Y18491174D01*
X3124682Y18454127D01*
X3054099Y18396201D01*
X3030301Y18367203D01*
X2067101Y17404002D01*
X2038099Y17380201D01*
X2012992Y17349608D01*
X1996820Y17344702D01*
X1886506Y17285737D01*
X1789815Y17206385D01*
X1710463Y17109694D01*
X1651498Y16999380D01*
X1615188Y16879682D01*
X1602928Y16755200D01*
X1602928Y15655200D01*
X1615188Y15530718D01*
X1651498Y15411020D01*
X1710463Y15300706D01*
X1789815Y15204015D01*
X1886506Y15124663D01*
X1917999Y15107829D01*
X1841638Y15045162D01*
X1731195Y14910586D01*
X1649128Y14757050D01*
X1598592Y14590454D01*
X1581528Y14417200D01*
X1581528Y13167200D01*
X1598592Y12993946D01*
X1649128Y12827350D01*
X1731195Y12673814D01*
X1841638Y12539238D01*
X1976214Y12428795D01*
X2129750Y12346728D01*
X2296346Y12296192D01*
X2469600Y12279128D01*
X2516601Y12279128D01*
X2516600Y11620861D01*
X2417810Y11473011D01*
X2305868Y11202758D01*
X2248800Y10915860D01*
X2248800Y10623340D01*
X2305868Y10336442D01*
X2417810Y10066189D01*
X2580325Y9822968D01*
X2787168Y9616125D01*
X3030389Y9453610D01*
X3300642Y9341668D01*
X3587540Y9284600D01*
X3880060Y9284600D01*
X4166958Y9341668D01*
X4437211Y9453610D01*
X4680432Y9616125D01*
X4812287Y9747980D01*
X4834298Y9675420D01*
X4893263Y9565106D01*
X4972615Y9468415D01*
X5024023Y9426225D01*
X4151008Y8553210D01*
X3930860Y8597000D01*
X3638340Y8597000D01*
X3351442Y8539932D01*
X3081189Y8427990D01*
X2837968Y8265475D01*
X2631125Y8058632D01*
X2468610Y7815411D01*
X2356668Y7545158D01*
X2299600Y7258260D01*
X2299600Y6965740D01*
X2356668Y6678842D01*
X2468610Y6408589D01*
X2631125Y6165368D01*
X2762980Y6033513D01*
X2690420Y6011502D01*
X2580106Y5952537D01*
X2483415Y5873185D01*
X2404063Y5776494D01*
X2345098Y5666180D01*
X2308788Y5546482D01*
X2296528Y5422000D01*
X2296528Y3722000D01*
X2308788Y3597518D01*
X2345098Y3477820D01*
X2404063Y3367506D01*
X2483415Y3270815D01*
X2580106Y3191463D01*
X2690420Y3132498D01*
X2810118Y3096188D01*
X2934600Y3083928D01*
X4634600Y3083928D01*
X4759082Y3096188D01*
X4878780Y3132498D01*
X4989094Y3191463D01*
X5085785Y3270815D01*
X5165137Y3367506D01*
X5224102Y3477820D01*
X5246113Y3550380D01*
X5377968Y3418525D01*
X5621189Y3256010D01*
X5891442Y3144068D01*
X6178340Y3087000D01*
X6470860Y3087000D01*
X6757758Y3144068D01*
X7028011Y3256010D01*
X7271232Y3418525D01*
X7478075Y3625368D01*
X7599795Y3807534D01*
X7669422Y3690645D01*
X7864331Y3474412D01*
X8097680Y3300359D01*
X8360501Y3175175D01*
X8507710Y3130524D01*
X8737600Y3251845D01*
X8737600Y4445000D01*
X8717600Y4445000D01*
X8717600Y4699000D01*
X8737600Y4699000D01*
X8737600Y4719000D01*
X8991600Y4719000D01*
X8991600Y4699000D01*
X9011600Y4699000D01*
X9011600Y4445000D01*
X8991600Y4445000D01*
X8991600Y3251845D01*
X9221490Y3130524D01*
X9368699Y3175175D01*
X9631520Y3300359D01*
X9864869Y3474412D01*
X10059778Y3690645D01*
X10129405Y3807534D01*
X10251125Y3625368D01*
X10457968Y3418525D01*
X10701189Y3256010D01*
X10971442Y3144068D01*
X11258340Y3087000D01*
X11550860Y3087000D01*
X11837758Y3144068D01*
X12108011Y3256010D01*
X12351232Y3418525D01*
X12558075Y3625368D01*
X12720590Y3868589D01*
X12762011Y3968588D01*
X14076315Y2654282D01*
X14100109Y2625289D01*
X14129102Y2601495D01*
X14129106Y2601491D01*
X14183500Y2556852D01*
X14215834Y2530316D01*
X14347863Y2459744D01*
X14491124Y2416287D01*
X14602777Y2405290D01*
X14602786Y2405290D01*
X14640109Y2401614D01*
X14677432Y2405290D01*
X17249680Y2405290D01*
X17287002Y2401614D01*
X17324324Y2405290D01*
X17324335Y2405290D01*
X17435988Y2416287D01*
X17579249Y2459744D01*
X17711278Y2530316D01*
X17827003Y2625289D01*
X17850806Y2654293D01*
X18220201Y3023688D01*
X18288626Y2955263D01*
X18458144Y2841995D01*
X18646502Y2763974D01*
X18846461Y2724200D01*
X19050339Y2724200D01*
X19250298Y2763974D01*
X19438656Y2841995D01*
X19443786Y2845423D01*
X19524944Y2791195D01*
X19713302Y2713174D01*
X19913261Y2673400D01*
X20117139Y2673400D01*
X20317098Y2713174D01*
X20505456Y2791195D01*
X20674974Y2904463D01*
X20819137Y3048626D01*
X20932405Y3218144D01*
X20938361Y3232522D01*
X20953390Y3214209D01*
X20982388Y3190411D01*
X21360024Y2812775D01*
X21383827Y2783771D01*
X21499552Y2688798D01*
X21631581Y2618226D01*
X21774842Y2574769D01*
X21886495Y2563772D01*
X21886504Y2563772D01*
X21923827Y2560096D01*
X21961150Y2563772D01*
X31759850Y2563772D01*
X31797172Y2560096D01*
X31834494Y2563772D01*
X31834505Y2563772D01*
X31946158Y2574769D01*
X32089419Y2618226D01*
X32221448Y2688798D01*
X32337173Y2783771D01*
X32360975Y2812774D01*
X33320189Y3771986D01*
X33349181Y3795779D01*
X33372975Y3824772D01*
X33372979Y3824776D01*
X33444153Y3911503D01*
X33444154Y3911504D01*
X33514726Y4043533D01*
X33558183Y4186794D01*
X33563398Y4239739D01*
X33752114Y4202200D01*
X34015086Y4202200D01*
X34273005Y4253504D01*
X34515959Y4354139D01*
X34734613Y4500238D01*
X34920562Y4686187D01*
X35066661Y4904841D01*
X35167296Y5147795D01*
X35218600Y5405714D01*
X35218600Y5668686D01*
X35167296Y5926605D01*
X35066661Y6169559D01*
X34920562Y6388213D01*
X34734613Y6574162D01*
X34515959Y6720261D01*
X34273005Y6820896D01*
X34015086Y6872200D01*
X33752114Y6872200D01*
X33494195Y6820896D01*
X33251241Y6720261D01*
X33032587Y6574162D01*
X32846638Y6388213D01*
X32793097Y6308083D01*
X32736162Y6393293D01*
X32550213Y6579242D01*
X32331559Y6725341D01*
X32088605Y6825976D01*
X31830686Y6877280D01*
X31567714Y6877280D01*
X31309795Y6825976D01*
X31066841Y6725341D01*
X30848187Y6579242D01*
X30662238Y6393293D01*
X30607011Y6310640D01*
X30541602Y6408533D01*
X30355653Y6594482D01*
X30136999Y6740581D01*
X29894045Y6841216D01*
X29636126Y6892520D01*
X29373154Y6892520D01*
X29115235Y6841216D01*
X28872281Y6740581D01*
X28653627Y6594482D01*
X28467678Y6408533D01*
X28399751Y6306873D01*
X28321642Y6423773D01*
X28135693Y6609722D01*
X27917039Y6755821D01*
X27674085Y6856456D01*
X27416166Y6907760D01*
X27153194Y6907760D01*
X26895275Y6856456D01*
X26652321Y6755821D01*
X26433667Y6609722D01*
X26247718Y6423773D01*
X26101619Y6205119D01*
X26000984Y5962165D01*
X25949680Y5704246D01*
X25949680Y5441274D01*
X25971035Y5333917D01*
X25771748Y5134630D01*
X25757360Y5206964D01*
X25679339Y5395322D01*
X25566071Y5564840D01*
X25421908Y5709003D01*
X25252390Y5822271D01*
X25064032Y5900292D01*
X25007758Y5911486D01*
X25108800Y5910800D01*
X25233452Y5921186D01*
X25353682Y5955691D01*
X25464871Y6012989D01*
X25562746Y6090878D01*
X25643544Y6186364D01*
X25704161Y6295779D01*
X25742268Y6414917D01*
X25753400Y6517050D01*
X25594650Y6675800D01*
X25593755Y6675800D01*
X25636298Y6727638D01*
X25677418Y6804568D01*
X25753400Y6880550D01*
X25742268Y6982683D01*
X25742214Y6982851D01*
X25742771Y6984687D01*
X25756472Y7123800D01*
X25756472Y7273800D01*
X25742771Y7412913D01*
X25731885Y7448800D01*
X25742771Y7484687D01*
X25756472Y7623800D01*
X25756472Y7773800D01*
X25742771Y7912913D01*
X25731885Y7948800D01*
X25742771Y7984687D01*
X25756472Y8123800D01*
X25756472Y8273800D01*
X25742771Y8412913D01*
X25731885Y8448800D01*
X25742771Y8484687D01*
X25756472Y8623800D01*
X25756472Y8773800D01*
X25742771Y8912913D01*
X25731885Y8948800D01*
X25742771Y8984687D01*
X25756472Y9123800D01*
X25756472Y9273800D01*
X25742771Y9412913D01*
X25731885Y9448800D01*
X25742771Y9484687D01*
X25756472Y9623800D01*
X25756472Y9731491D01*
X26543016Y9731491D01*
X26602477Y9497723D01*
X26840922Y9386826D01*
X27096420Y9324577D01*
X27359153Y9313370D01*
X27619024Y9353635D01*
X27866046Y9443825D01*
X27966883Y9497723D01*
X28026344Y9731491D01*
X27284680Y10473155D01*
X26543016Y9731491D01*
X25756472Y9731491D01*
X25756472Y9773800D01*
X25742771Y9912913D01*
X25731885Y9948800D01*
X25742771Y9984687D01*
X25756472Y10123800D01*
X25756472Y10273800D01*
X25742771Y10412913D01*
X25731885Y10448800D01*
X25742771Y10484687D01*
X25756472Y10623800D01*
X25756472Y10696369D01*
X25974334Y10914231D01*
X25956497Y10841020D01*
X25945290Y10578287D01*
X25985555Y10318416D01*
X26075745Y10071394D01*
X26129643Y9970557D01*
X26363411Y9911096D01*
X27105075Y10652760D01*
X27464285Y10652760D01*
X28205949Y9911096D01*
X28358503Y9949900D01*
X28467678Y9786507D01*
X28647236Y9606949D01*
X28597595Y9532656D01*
X28519574Y9344298D01*
X28479800Y9144339D01*
X28479800Y8940461D01*
X28519574Y8740502D01*
X28597595Y8552144D01*
X28710863Y8382626D01*
X28855026Y8238463D01*
X29024544Y8125195D01*
X29212902Y8047174D01*
X29412861Y8007400D01*
X29616739Y8007400D01*
X29816698Y8047174D01*
X30005056Y8125195D01*
X30174574Y8238463D01*
X30318737Y8382626D01*
X30432005Y8552144D01*
X30510026Y8740502D01*
X30549800Y8940461D01*
X30549800Y9144339D01*
X30510026Y9344298D01*
X30432005Y9532656D01*
X30374225Y9619130D01*
X30456106Y9701011D01*
X30957536Y9701011D01*
X31016997Y9467243D01*
X31255442Y9356346D01*
X31510940Y9294097D01*
X31773673Y9282890D01*
X32033544Y9323155D01*
X32280566Y9413345D01*
X32381403Y9467243D01*
X32440864Y9701011D01*
X31699200Y10442675D01*
X30957536Y9701011D01*
X30456106Y9701011D01*
X30541602Y9786507D01*
X30629679Y9918325D01*
X30777931Y9880616D01*
X31519595Y10622280D01*
X31878805Y10622280D01*
X32620469Y9880616D01*
X32748431Y9913164D01*
X32846638Y9766187D01*
X32991619Y9621206D01*
X32966395Y9583456D01*
X32888374Y9395098D01*
X32848600Y9195139D01*
X32848600Y8991261D01*
X32888374Y8791302D01*
X32966395Y8602944D01*
X33079663Y8433426D01*
X33223826Y8289263D01*
X33393344Y8175995D01*
X33581702Y8097974D01*
X33781661Y8058200D01*
X33985539Y8058200D01*
X34185498Y8097974D01*
X34373856Y8175995D01*
X34543374Y8289263D01*
X34687537Y8433426D01*
X34800805Y8602944D01*
X34878826Y8791302D01*
X34918600Y8991261D01*
X34918600Y9195139D01*
X34878826Y9395098D01*
X34800805Y9583456D01*
X34775581Y9621206D01*
X34920562Y9766187D01*
X35066661Y9984841D01*
X35167296Y10227795D01*
X35218600Y10485714D01*
X35218600Y10748686D01*
X35167296Y11006605D01*
X35066661Y11249559D01*
X34920562Y11468213D01*
X34734613Y11654162D01*
X34515959Y11800261D01*
X34273005Y11900896D01*
X34015086Y11952200D01*
X33752114Y11952200D01*
X33494195Y11900896D01*
X33251241Y11800261D01*
X33032587Y11654162D01*
X32846638Y11468213D01*
X32754234Y11329920D01*
X32620469Y11363944D01*
X31878805Y10622280D01*
X31519595Y10622280D01*
X30777931Y11363944D01*
X30647087Y11330663D01*
X30541602Y11488533D01*
X30486586Y11543549D01*
X30957536Y11543549D01*
X31699200Y10801885D01*
X32440864Y11543549D01*
X32381403Y11777317D01*
X32142958Y11888214D01*
X31887460Y11950463D01*
X31624727Y11961670D01*
X31364856Y11921405D01*
X31117834Y11831215D01*
X31016997Y11777317D01*
X30957536Y11543549D01*
X30486586Y11543549D01*
X30355653Y11674482D01*
X30136999Y11820581D01*
X29894045Y11921216D01*
X29636126Y11972520D01*
X29373154Y11972520D01*
X29115235Y11921216D01*
X28872281Y11820581D01*
X28653627Y11674482D01*
X28467678Y11488533D01*
X28375911Y11351193D01*
X28205949Y11394424D01*
X27464285Y10652760D01*
X27105075Y10652760D01*
X27090933Y10666902D01*
X27270538Y10846507D01*
X27284680Y10832365D01*
X28026344Y11574029D01*
X27966883Y11807797D01*
X27728438Y11918694D01*
X27472940Y11980943D01*
X27210207Y11992150D01*
X26950336Y11951885D01*
X26880238Y11926292D01*
X26911003Y12027712D01*
X26922000Y12139365D01*
X26925677Y12176698D01*
X26922000Y12214031D01*
X26922000Y13333903D01*
X27037746Y13298792D01*
X27056055Y13296989D01*
X27059854Y13292360D01*
X27103655Y13238988D01*
X27103659Y13238984D01*
X27128237Y13209036D01*
X27158185Y13184458D01*
X27209800Y13132843D01*
X27209800Y13106061D01*
X27249574Y12906102D01*
X27327595Y12717744D01*
X27440863Y12548226D01*
X27585026Y12404063D01*
X27754544Y12290795D01*
X27942902Y12212774D01*
X28142861Y12173000D01*
X28346739Y12173000D01*
X28546698Y12212774D01*
X28735056Y12290795D01*
X28904574Y12404063D01*
X29048737Y12548226D01*
X29162005Y12717744D01*
X29240026Y12906102D01*
X29279800Y13106061D01*
X29279800Y13309939D01*
X29272814Y13345062D01*
X29425346Y13298792D01*
X29489012Y13292521D01*
X29491255Y13289788D01*
X29648200Y13132843D01*
X29648200Y13106061D01*
X29687974Y12906102D01*
X29765995Y12717744D01*
X29879263Y12548226D01*
X30023426Y12404063D01*
X30192944Y12290795D01*
X30381302Y12212774D01*
X30581261Y12173000D01*
X30785139Y12173000D01*
X30985098Y12212774D01*
X31173456Y12290795D01*
X31342974Y12404063D01*
X31487137Y12548226D01*
X31600405Y12717744D01*
X31678426Y12906102D01*
X31718200Y13106061D01*
X31718200Y13266318D01*
X31736746Y13260692D01*
X31766394Y13257772D01*
X31802655Y13213588D01*
X31802659Y13213584D01*
X31827237Y13183636D01*
X31857185Y13159058D01*
X31934200Y13082043D01*
X31934200Y13055261D01*
X31973974Y12855302D01*
X32051995Y12666944D01*
X32165263Y12497426D01*
X32309426Y12353263D01*
X32478944Y12239995D01*
X32667302Y12161974D01*
X32867261Y12122200D01*
X33071139Y12122200D01*
X33271098Y12161974D01*
X33459456Y12239995D01*
X33628974Y12353263D01*
X33773137Y12497426D01*
X33886405Y12666944D01*
X33964426Y12855302D01*
X34004200Y13055261D01*
X34004200Y13259139D01*
X34003738Y13261463D01*
X34048146Y13247992D01*
X34111812Y13241721D01*
X34114055Y13238988D01*
X34271000Y13082043D01*
X34271000Y13055261D01*
X34310774Y12855302D01*
X34388795Y12666944D01*
X34502063Y12497426D01*
X34646226Y12353263D01*
X34815744Y12239995D01*
X35004102Y12161974D01*
X35204061Y12122200D01*
X35407939Y12122200D01*
X35607898Y12161974D01*
X35796256Y12239995D01*
X35965774Y12353263D01*
X36109937Y12497426D01*
X36223205Y12666944D01*
X36301226Y12855302D01*
X36341000Y13055261D01*
X36341000Y13259139D01*
X36301226Y13459098D01*
X36223205Y13647456D01*
X36109937Y13816974D01*
X36028154Y13898757D01*
X36042408Y13945746D01*
X36059472Y14119000D01*
X36059472Y14794000D01*
X36042408Y14967254D01*
X35991872Y15133850D01*
X35909805Y15287386D01*
X35799362Y15421962D01*
X35792806Y15427342D01*
X35872585Y15492815D01*
X35951937Y15589506D01*
X36010902Y15699820D01*
X36047212Y15819518D01*
X36059472Y15944000D01*
X36056400Y16245750D01*
X35897650Y16404500D01*
X34823400Y16404500D01*
X34823400Y16384500D01*
X34569400Y16384500D01*
X34569400Y16404500D01*
X33598950Y16404500D01*
X33586250Y16417200D01*
X32512000Y16417200D01*
X32512000Y16397200D01*
X32258000Y16397200D01*
X32258000Y16417200D01*
X31312950Y16417200D01*
X31274850Y16455300D01*
X30200600Y16455300D01*
X30200600Y16435300D01*
X29946600Y16435300D01*
X29946600Y16455300D01*
X27813000Y16455300D01*
X27813000Y16435300D01*
X27559000Y16435300D01*
X27559000Y16455300D01*
X27539000Y16455300D01*
X27539000Y16709300D01*
X27559000Y16709300D01*
X27559000Y17646050D01*
X27813000Y17646050D01*
X27813000Y16709300D01*
X29946600Y16709300D01*
X29946600Y17646050D01*
X30200600Y17646050D01*
X30200600Y16709300D01*
X31145650Y16709300D01*
X31183750Y16671200D01*
X32258000Y16671200D01*
X32258000Y17607950D01*
X32512000Y17607950D01*
X32512000Y16671200D01*
X33482450Y16671200D01*
X33495150Y16658500D01*
X34569400Y16658500D01*
X34569400Y17595250D01*
X34823400Y17595250D01*
X34823400Y16658500D01*
X35897650Y16658500D01*
X36056400Y16817250D01*
X36059472Y17119000D01*
X36047212Y17243482D01*
X36010902Y17363180D01*
X35951937Y17473494D01*
X35872585Y17570185D01*
X35775894Y17649537D01*
X35665580Y17708502D01*
X35545882Y17744812D01*
X35421400Y17757072D01*
X34982150Y17754000D01*
X34823400Y17595250D01*
X34569400Y17595250D01*
X34410650Y17754000D01*
X33971400Y17757072D01*
X33846918Y17744812D01*
X33727220Y17708502D01*
X33616906Y17649537D01*
X33548438Y17593347D01*
X33464494Y17662237D01*
X33354180Y17721202D01*
X33234482Y17757512D01*
X33110000Y17769772D01*
X32670750Y17766700D01*
X32512000Y17607950D01*
X32258000Y17607950D01*
X32099250Y17766700D01*
X31660000Y17769772D01*
X31535518Y17757512D01*
X31415820Y17721202D01*
X31305506Y17662237D01*
X31251980Y17618310D01*
X31249785Y17620985D01*
X31153094Y17700337D01*
X31042780Y17759302D01*
X30923082Y17795612D01*
X30798600Y17807872D01*
X30359350Y17804800D01*
X30200600Y17646050D01*
X29946600Y17646050D01*
X29787850Y17804800D01*
X29348600Y17807872D01*
X29224118Y17795612D01*
X29104420Y17759302D01*
X28994106Y17700337D01*
X28897415Y17620985D01*
X28879800Y17599521D01*
X28862185Y17620985D01*
X28765494Y17700337D01*
X28655180Y17759302D01*
X28535482Y17795612D01*
X28411000Y17807872D01*
X27971750Y17804800D01*
X27813000Y17646050D01*
X27559000Y17646050D01*
X27400250Y17804800D01*
X26961000Y17807872D01*
X26836518Y17795612D01*
X26716820Y17759302D01*
X26606506Y17700337D01*
X26509815Y17620985D01*
X26430463Y17524294D01*
X26371498Y17413980D01*
X26335188Y17294282D01*
X26322928Y17169800D01*
X26326000Y16868050D01*
X26484748Y16709302D01*
X26478700Y16709302D01*
X24439804Y18748197D01*
X24416001Y18777201D01*
X24330707Y18847200D01*
X36264319Y18847200D01*
X36365133Y18837315D01*
X36431057Y18817411D01*
X36491855Y18785085D01*
X36545219Y18741561D01*
X36589112Y18688504D01*
X36621866Y18627929D01*
X36642228Y18562147D01*
X36652601Y18463460D01*
X36652600Y2013481D01*
X36642715Y1912669D01*
X36622811Y1846742D01*
X36595690Y1795735D01*
X36374457Y1637711D01*
X36367547Y1635572D01*
X36268869Y1625200D01*
X1657881Y1625200D01*
X1557069Y1635085D01*
X1491142Y1654989D01*
X1430345Y1687315D01*
X1376982Y1730838D01*
X1333085Y1783900D01*
X1300334Y1844473D01*
X1279972Y1910253D01*
X1269600Y2008931D01*
X1269600Y18458919D01*
X1277332Y18537775D01*
X1625644Y18844290D01*
X1653330Y18847200D01*
X20576493Y18847200D01*
X20491199Y18777201D01*
G37*
%TD.AperFunction*%
D19*
X17497238Y12355902D02*
X17574168Y12314782D01*
X17650150Y12238800D01*
X17752283Y12249932D01*
X17752451Y12249986D01*
X17754287Y12249429D01*
X17893400Y12235728D01*
X18043400Y12235728D01*
X18182513Y12249429D01*
X18218400Y12260315D01*
X18254287Y12249429D01*
X18393400Y12235728D01*
X18543400Y12235728D01*
X18682513Y12249429D01*
X18718400Y12260315D01*
X18754287Y12249429D01*
X18893400Y12235728D01*
X19043400Y12235728D01*
X19182513Y12249429D01*
X19218400Y12260315D01*
X19254287Y12249429D01*
X19393400Y12235728D01*
X19543400Y12235728D01*
X19682513Y12249429D01*
X19718400Y12260315D01*
X19754287Y12249429D01*
X19893400Y12235728D01*
X20043400Y12235728D01*
X20182513Y12249429D01*
X20218400Y12260315D01*
X20254287Y12249429D01*
X20393400Y12235728D01*
X20543400Y12235728D01*
X20682513Y12249429D01*
X20718400Y12260315D01*
X20754287Y12249429D01*
X20893400Y12235728D01*
X21043400Y12235728D01*
X21182513Y12249429D01*
X21218400Y12260315D01*
X21254287Y12249429D01*
X21393400Y12235728D01*
X21543400Y12235728D01*
X21682513Y12249429D01*
X21718400Y12260315D01*
X21754287Y12249429D01*
X21893400Y12235728D01*
X22043400Y12235728D01*
X22182513Y12249429D01*
X22218400Y12260315D01*
X22254287Y12249429D01*
X22393400Y12235728D01*
X22543400Y12235728D01*
X22682513Y12249429D01*
X22718400Y12260315D01*
X22754287Y12249429D01*
X22893400Y12235728D01*
X23005328Y12235728D01*
X23005328Y12123800D01*
X23019029Y11984687D01*
X23029915Y11948800D01*
X23019029Y11912913D01*
X23005328Y11773800D01*
X23005328Y11623800D01*
X23019029Y11484687D01*
X23029915Y11448800D01*
X23019029Y11412913D01*
X23005328Y11273800D01*
X23005328Y11123800D01*
X23019029Y10984687D01*
X23029915Y10948800D01*
X23019029Y10912913D01*
X23005328Y10773800D01*
X23005328Y10623800D01*
X23019029Y10484687D01*
X23029915Y10448800D01*
X23019029Y10412913D01*
X23005328Y10273800D01*
X23005328Y10123800D01*
X23019029Y9984687D01*
X23029915Y9948800D01*
X23019029Y9912913D01*
X23005328Y9773800D01*
X23005328Y9623800D01*
X23019029Y9484687D01*
X23029915Y9448800D01*
X23019029Y9412913D01*
X23005328Y9273800D01*
X23005328Y9123800D01*
X23019029Y8984687D01*
X23029915Y8948800D01*
X23019029Y8912913D01*
X23005328Y8773800D01*
X23005328Y8623800D01*
X23019029Y8484687D01*
X23029915Y8448800D01*
X23019029Y8412913D01*
X23005328Y8273800D01*
X23005328Y8123800D01*
X23019029Y7984687D01*
X23029915Y7948800D01*
X23019029Y7912913D01*
X23005328Y7773800D01*
X23005328Y7623800D01*
X23019029Y7484687D01*
X23029915Y7448800D01*
X23019029Y7412913D01*
X23005328Y7273800D01*
X23005328Y7123800D01*
X23019029Y6984687D01*
X23019586Y6982851D01*
X23019532Y6982683D01*
X23008400Y6880550D01*
X23084382Y6804568D01*
X23125502Y6727638D01*
X23168045Y6675800D01*
X23167150Y6675800D01*
X22991400Y6500050D01*
X22991400Y6499155D01*
X22939562Y6541698D01*
X22862632Y6582818D01*
X22786650Y6658800D01*
X22684517Y6647668D01*
X22684349Y6647614D01*
X22682513Y6648171D01*
X22543400Y6661872D01*
X22393400Y6661872D01*
X22254287Y6648171D01*
X22218400Y6637285D01*
X22182513Y6648171D01*
X22043400Y6661872D01*
X21893400Y6661872D01*
X21754287Y6648171D01*
X21718400Y6637285D01*
X21682513Y6648171D01*
X21543400Y6661872D01*
X21393400Y6661872D01*
X21254287Y6648171D01*
X21218400Y6637285D01*
X21182513Y6648171D01*
X21043400Y6661872D01*
X20893400Y6661872D01*
X20754287Y6648171D01*
X20718400Y6637285D01*
X20682513Y6648171D01*
X20543400Y6661872D01*
X20393400Y6661872D01*
X20254287Y6648171D01*
X20218400Y6637285D01*
X20182513Y6648171D01*
X20043400Y6661872D01*
X19893400Y6661872D01*
X19754287Y6648171D01*
X19752451Y6647614D01*
X19752283Y6647668D01*
X19650150Y6658800D01*
X19574168Y6582818D01*
X19497238Y6541698D01*
X19468400Y6518031D01*
X19439562Y6541698D01*
X19362632Y6582818D01*
X19286650Y6658800D01*
X19184517Y6647668D01*
X19184349Y6647614D01*
X19182513Y6648171D01*
X19043400Y6661872D01*
X18893400Y6661872D01*
X18754287Y6648171D01*
X18718400Y6637285D01*
X18682513Y6648171D01*
X18543400Y6661872D01*
X18393400Y6661872D01*
X18254287Y6648171D01*
X18218400Y6637285D01*
X18182513Y6648171D01*
X18043400Y6661872D01*
X17893400Y6661872D01*
X17754287Y6648171D01*
X17718400Y6637285D01*
X17682513Y6648171D01*
X17543400Y6661872D01*
X17431472Y6661872D01*
X17431472Y6773800D01*
X17417771Y6912913D01*
X17406885Y6948800D01*
X17417771Y6984687D01*
X17431472Y7123800D01*
X17431472Y7273800D01*
X17417771Y7412913D01*
X17406885Y7448800D01*
X17417771Y7484687D01*
X17431472Y7623800D01*
X17431472Y7738961D01*
X17516902Y7703574D01*
X17716861Y7663800D01*
X17920739Y7663800D01*
X18120698Y7703574D01*
X18309056Y7781595D01*
X18478574Y7894863D01*
X18622737Y8039026D01*
X18736005Y8208544D01*
X18814026Y8396902D01*
X18853800Y8596861D01*
X18853800Y8800739D01*
X18814026Y9000698D01*
X18736005Y9189056D01*
X18700215Y9242620D01*
X18748005Y9314144D01*
X18826026Y9502502D01*
X18865800Y9702461D01*
X18865800Y9906339D01*
X18826026Y10106298D01*
X18748005Y10294656D01*
X18634737Y10464174D01*
X18490574Y10608337D01*
X18321056Y10721605D01*
X18132698Y10799626D01*
X17932739Y10839400D01*
X17728861Y10839400D01*
X17528902Y10799626D01*
X17431472Y10759269D01*
X17431472Y10773800D01*
X17417771Y10912913D01*
X17406885Y10948800D01*
X17417771Y10984687D01*
X17431472Y11123800D01*
X17431472Y11273800D01*
X17417771Y11412913D01*
X17406885Y11448800D01*
X17417771Y11484687D01*
X17431472Y11623800D01*
X17431472Y11773800D01*
X17417771Y11912913D01*
X17417214Y11914749D01*
X17417268Y11914917D01*
X17428400Y12017050D01*
X17352418Y12093032D01*
X17311298Y12169962D01*
X17268755Y12221800D01*
X17269650Y12221800D01*
X17445400Y12397550D01*
X17445400Y12398445D01*
X17497238Y12355902D01*
%TA.AperFunction,Conductor*%
D20*
G36*
X17497238Y12355902D02*
G01*
X17574168Y12314782D01*
X17650150Y12238800D01*
X17752283Y12249932D01*
X17752451Y12249986D01*
X17754287Y12249429D01*
X17893400Y12235728D01*
X18043400Y12235728D01*
X18182513Y12249429D01*
X18218400Y12260315D01*
X18254287Y12249429D01*
X18393400Y12235728D01*
X18543400Y12235728D01*
X18682513Y12249429D01*
X18718400Y12260315D01*
X18754287Y12249429D01*
X18893400Y12235728D01*
X19043400Y12235728D01*
X19182513Y12249429D01*
X19218400Y12260315D01*
X19254287Y12249429D01*
X19393400Y12235728D01*
X19543400Y12235728D01*
X19682513Y12249429D01*
X19718400Y12260315D01*
X19754287Y12249429D01*
X19893400Y12235728D01*
X20043400Y12235728D01*
X20182513Y12249429D01*
X20218400Y12260315D01*
X20254287Y12249429D01*
X20393400Y12235728D01*
X20543400Y12235728D01*
X20682513Y12249429D01*
X20718400Y12260315D01*
X20754287Y12249429D01*
X20893400Y12235728D01*
X21043400Y12235728D01*
X21182513Y12249429D01*
X21218400Y12260315D01*
X21254287Y12249429D01*
X21393400Y12235728D01*
X21543400Y12235728D01*
X21682513Y12249429D01*
X21718400Y12260315D01*
X21754287Y12249429D01*
X21893400Y12235728D01*
X22043400Y12235728D01*
X22182513Y12249429D01*
X22218400Y12260315D01*
X22254287Y12249429D01*
X22393400Y12235728D01*
X22543400Y12235728D01*
X22682513Y12249429D01*
X22718400Y12260315D01*
X22754287Y12249429D01*
X22893400Y12235728D01*
X23005328Y12235728D01*
X23005328Y12123800D01*
X23019029Y11984687D01*
X23029915Y11948800D01*
X23019029Y11912913D01*
X23005328Y11773800D01*
X23005328Y11623800D01*
X23019029Y11484687D01*
X23029915Y11448800D01*
X23019029Y11412913D01*
X23005328Y11273800D01*
X23005328Y11123800D01*
X23019029Y10984687D01*
X23029915Y10948800D01*
X23019029Y10912913D01*
X23005328Y10773800D01*
X23005328Y10623800D01*
X23019029Y10484687D01*
X23029915Y10448800D01*
X23019029Y10412913D01*
X23005328Y10273800D01*
X23005328Y10123800D01*
X23019029Y9984687D01*
X23029915Y9948800D01*
X23019029Y9912913D01*
X23005328Y9773800D01*
X23005328Y9623800D01*
X23019029Y9484687D01*
X23029915Y9448800D01*
X23019029Y9412913D01*
X23005328Y9273800D01*
X23005328Y9123800D01*
X23019029Y8984687D01*
X23029915Y8948800D01*
X23019029Y8912913D01*
X23005328Y8773800D01*
X23005328Y8623800D01*
X23019029Y8484687D01*
X23029915Y8448800D01*
X23019029Y8412913D01*
X23005328Y8273800D01*
X23005328Y8123800D01*
X23019029Y7984687D01*
X23029915Y7948800D01*
X23019029Y7912913D01*
X23005328Y7773800D01*
X23005328Y7623800D01*
X23019029Y7484687D01*
X23029915Y7448800D01*
X23019029Y7412913D01*
X23005328Y7273800D01*
X23005328Y7123800D01*
X23019029Y6984687D01*
X23019586Y6982851D01*
X23019532Y6982683D01*
X23008400Y6880550D01*
X23084382Y6804568D01*
X23125502Y6727638D01*
X23168045Y6675800D01*
X23167150Y6675800D01*
X22991400Y6500050D01*
X22991400Y6499155D01*
X22939562Y6541698D01*
X22862632Y6582818D01*
X22786650Y6658800D01*
X22684517Y6647668D01*
X22684349Y6647614D01*
X22682513Y6648171D01*
X22543400Y6661872D01*
X22393400Y6661872D01*
X22254287Y6648171D01*
X22218400Y6637285D01*
X22182513Y6648171D01*
X22043400Y6661872D01*
X21893400Y6661872D01*
X21754287Y6648171D01*
X21718400Y6637285D01*
X21682513Y6648171D01*
X21543400Y6661872D01*
X21393400Y6661872D01*
X21254287Y6648171D01*
X21218400Y6637285D01*
X21182513Y6648171D01*
X21043400Y6661872D01*
X20893400Y6661872D01*
X20754287Y6648171D01*
X20718400Y6637285D01*
X20682513Y6648171D01*
X20543400Y6661872D01*
X20393400Y6661872D01*
X20254287Y6648171D01*
X20218400Y6637285D01*
X20182513Y6648171D01*
X20043400Y6661872D01*
X19893400Y6661872D01*
X19754287Y6648171D01*
X19752451Y6647614D01*
X19752283Y6647668D01*
X19650150Y6658800D01*
X19574168Y6582818D01*
X19497238Y6541698D01*
X19468400Y6518031D01*
X19439562Y6541698D01*
X19362632Y6582818D01*
X19286650Y6658800D01*
X19184517Y6647668D01*
X19184349Y6647614D01*
X19182513Y6648171D01*
X19043400Y6661872D01*
X18893400Y6661872D01*
X18754287Y6648171D01*
X18718400Y6637285D01*
X18682513Y6648171D01*
X18543400Y6661872D01*
X18393400Y6661872D01*
X18254287Y6648171D01*
X18218400Y6637285D01*
X18182513Y6648171D01*
X18043400Y6661872D01*
X17893400Y6661872D01*
X17754287Y6648171D01*
X17718400Y6637285D01*
X17682513Y6648171D01*
X17543400Y6661872D01*
X17431472Y6661872D01*
X17431472Y6773800D01*
X17417771Y6912913D01*
X17406885Y6948800D01*
X17417771Y6984687D01*
X17431472Y7123800D01*
X17431472Y7273800D01*
X17417771Y7412913D01*
X17406885Y7448800D01*
X17417771Y7484687D01*
X17431472Y7623800D01*
X17431472Y7738961D01*
X17516902Y7703574D01*
X17716861Y7663800D01*
X17920739Y7663800D01*
X18120698Y7703574D01*
X18309056Y7781595D01*
X18478574Y7894863D01*
X18622737Y8039026D01*
X18736005Y8208544D01*
X18814026Y8396902D01*
X18853800Y8596861D01*
X18853800Y8800739D01*
X18814026Y9000698D01*
X18736005Y9189056D01*
X18700215Y9242620D01*
X18748005Y9314144D01*
X18826026Y9502502D01*
X18865800Y9702461D01*
X18865800Y9906339D01*
X18826026Y10106298D01*
X18748005Y10294656D01*
X18634737Y10464174D01*
X18490574Y10608337D01*
X18321056Y10721605D01*
X18132698Y10799626D01*
X17932739Y10839400D01*
X17728861Y10839400D01*
X17528902Y10799626D01*
X17431472Y10759269D01*
X17431472Y10773800D01*
X17417771Y10912913D01*
X17406885Y10948800D01*
X17417771Y10984687D01*
X17431472Y11123800D01*
X17431472Y11273800D01*
X17417771Y11412913D01*
X17406885Y11448800D01*
X17417771Y11484687D01*
X17431472Y11623800D01*
X17431472Y11773800D01*
X17417771Y11912913D01*
X17417214Y11914749D01*
X17417268Y11914917D01*
X17428400Y12017050D01*
X17352418Y12093032D01*
X17311298Y12169962D01*
X17268755Y12221800D01*
X17269650Y12221800D01*
X17445400Y12397550D01*
X17445400Y12398445D01*
X17497238Y12355902D01*
G37*
%TD.AperFunction*%
%TD*%
M02*
