M48
; DRILL file {KiCad (5.1.8)-1} date 12/30/20 10:18:08
; FORMAT={-:-/ absolute / metric / decimal}
; #@! TF.CreationDate,2020-12-30T10:18:08-07:00
; #@! TF.GenerationSoftware,Kicad,Pcbnew,(5.1.8)-1
; #@! TF.FileFunction,Plated,1,2,PTH
FMAT,2
METRIC
T1C0.400
T2C0.700
T3C1.000
%
G90
G05
T1
X15.24Y4.699
X17.819Y8.699
X17.831Y9.804
X18.948Y3.759
X20.015Y3.708
X24.486Y15.088
X24.762Y4.905
X28.245Y13.208
X29.515Y9.042
X30.683Y13.208
X32.969Y13.157
X33.884Y9.093
X35.306Y13.157
T2
X27.285Y10.653
X27.285Y5.573
X29.505Y10.638
X29.505Y5.558
X33.884Y10.617
X33.884Y5.537
X31.699Y10.622
X31.699Y5.542
T3
X3.734Y10.77
X6.274Y10.77
X3.785Y7.112
X3.785Y4.572
X6.325Y7.112
X6.325Y4.572
X8.865Y7.112
X8.865Y4.572
X11.405Y7.112
X11.405Y4.572
X12.776Y16.637
X15.316Y16.637
X17.856Y16.637
X20.396Y16.637
X22.936Y16.637
T0
M30
