M48
; DRILL file {KiCad (5.1.8)-1} date 12/26/20 00:02:32
; FORMAT={-:-/ absolute / metric / decimal}
; #@! TF.CreationDate,2020-12-26T00:02:32-07:00
; #@! TF.GenerationSoftware,Kicad,Pcbnew,(5.1.8)-1
; #@! TF.FileFunction,Plated,1,2,PTH
FMAT,2
METRIC
T1C0.400
T2C0.700
T3C1.000
%
G90
G05
T1
X5.918Y4.877
X17.374Y6.477
X20.371Y11.125
X22.149Y13.741
X22.86Y8.738
X32.08Y17.856
X32.144Y15.824
T2
X31.638Y12.416
X31.638Y7.336
X36.017Y12.395
X36.017Y7.315
X29.418Y12.431
X29.418Y7.351
X33.833Y12.4
X33.833Y7.32
T3
X5.918Y8.89
X5.918Y6.35
X8.458Y8.89
X8.458Y6.35
X10.998Y8.89
X10.998Y6.35
X13.538Y8.89
X13.538Y6.35
X5.867Y12.548
X8.407Y12.548
X14.91Y18.415
X17.45Y18.415
X19.99Y18.415
X22.53Y18.415
X25.07Y18.415
T0
M30
