%TF.GenerationSoftware,KiCad,Pcbnew,(5.1.8)-1*%
%TF.CreationDate,2020-12-30T10:18:30-07:00*%
%TF.ProjectId,Axle-Tx-PCB(STM32)v2,41786c65-2d54-4782-9d50-43422853544d,rev?*%
%TF.SameCoordinates,PX1a73ae0PY3563620*%
%TF.FileFunction,Paste,Top*%
%TF.FilePolarity,Positive*%
%FSLAX46Y46*%
G04 Gerber Fmt 4.6, Leading zero omitted, Abs format (unit mm)*
G04 Created by KiCad (PCBNEW (5.1.8)-1) date 2020-12-30 10:18:30*
%MOMM*%
%LPD*%
G01*
G04 APERTURE LIST*
%ADD10R,1.060000X0.650000*%
%ADD11R,1.100000X1.100000*%
G04 APERTURE END LIST*
%TO.C,STM32*%
G36*
G01*
X17318400Y12948800D02*
X17318400Y14273800D01*
G75*
G02*
X17393400Y14348800I75000J0D01*
G01*
X17543400Y14348800D01*
G75*
G02*
X17618400Y14273800I0J-75000D01*
G01*
X17618400Y12948800D01*
G75*
G02*
X17543400Y12873800I-75000J0D01*
G01*
X17393400Y12873800D01*
G75*
G02*
X17318400Y12948800I0J75000D01*
G01*
G37*
G36*
G01*
X17818400Y12948800D02*
X17818400Y14273800D01*
G75*
G02*
X17893400Y14348800I75000J0D01*
G01*
X18043400Y14348800D01*
G75*
G02*
X18118400Y14273800I0J-75000D01*
G01*
X18118400Y12948800D01*
G75*
G02*
X18043400Y12873800I-75000J0D01*
G01*
X17893400Y12873800D01*
G75*
G02*
X17818400Y12948800I0J75000D01*
G01*
G37*
G36*
G01*
X18318400Y12948800D02*
X18318400Y14273800D01*
G75*
G02*
X18393400Y14348800I75000J0D01*
G01*
X18543400Y14348800D01*
G75*
G02*
X18618400Y14273800I0J-75000D01*
G01*
X18618400Y12948800D01*
G75*
G02*
X18543400Y12873800I-75000J0D01*
G01*
X18393400Y12873800D01*
G75*
G02*
X18318400Y12948800I0J75000D01*
G01*
G37*
G36*
G01*
X18818400Y12948800D02*
X18818400Y14273800D01*
G75*
G02*
X18893400Y14348800I75000J0D01*
G01*
X19043400Y14348800D01*
G75*
G02*
X19118400Y14273800I0J-75000D01*
G01*
X19118400Y12948800D01*
G75*
G02*
X19043400Y12873800I-75000J0D01*
G01*
X18893400Y12873800D01*
G75*
G02*
X18818400Y12948800I0J75000D01*
G01*
G37*
G36*
G01*
X19318400Y12948800D02*
X19318400Y14273800D01*
G75*
G02*
X19393400Y14348800I75000J0D01*
G01*
X19543400Y14348800D01*
G75*
G02*
X19618400Y14273800I0J-75000D01*
G01*
X19618400Y12948800D01*
G75*
G02*
X19543400Y12873800I-75000J0D01*
G01*
X19393400Y12873800D01*
G75*
G02*
X19318400Y12948800I0J75000D01*
G01*
G37*
G36*
G01*
X19818400Y12948800D02*
X19818400Y14273800D01*
G75*
G02*
X19893400Y14348800I75000J0D01*
G01*
X20043400Y14348800D01*
G75*
G02*
X20118400Y14273800I0J-75000D01*
G01*
X20118400Y12948800D01*
G75*
G02*
X20043400Y12873800I-75000J0D01*
G01*
X19893400Y12873800D01*
G75*
G02*
X19818400Y12948800I0J75000D01*
G01*
G37*
G36*
G01*
X20318400Y12948800D02*
X20318400Y14273800D01*
G75*
G02*
X20393400Y14348800I75000J0D01*
G01*
X20543400Y14348800D01*
G75*
G02*
X20618400Y14273800I0J-75000D01*
G01*
X20618400Y12948800D01*
G75*
G02*
X20543400Y12873800I-75000J0D01*
G01*
X20393400Y12873800D01*
G75*
G02*
X20318400Y12948800I0J75000D01*
G01*
G37*
G36*
G01*
X20818400Y12948800D02*
X20818400Y14273800D01*
G75*
G02*
X20893400Y14348800I75000J0D01*
G01*
X21043400Y14348800D01*
G75*
G02*
X21118400Y14273800I0J-75000D01*
G01*
X21118400Y12948800D01*
G75*
G02*
X21043400Y12873800I-75000J0D01*
G01*
X20893400Y12873800D01*
G75*
G02*
X20818400Y12948800I0J75000D01*
G01*
G37*
G36*
G01*
X21318400Y12948800D02*
X21318400Y14273800D01*
G75*
G02*
X21393400Y14348800I75000J0D01*
G01*
X21543400Y14348800D01*
G75*
G02*
X21618400Y14273800I0J-75000D01*
G01*
X21618400Y12948800D01*
G75*
G02*
X21543400Y12873800I-75000J0D01*
G01*
X21393400Y12873800D01*
G75*
G02*
X21318400Y12948800I0J75000D01*
G01*
G37*
G36*
G01*
X21818400Y12948800D02*
X21818400Y14273800D01*
G75*
G02*
X21893400Y14348800I75000J0D01*
G01*
X22043400Y14348800D01*
G75*
G02*
X22118400Y14273800I0J-75000D01*
G01*
X22118400Y12948800D01*
G75*
G02*
X22043400Y12873800I-75000J0D01*
G01*
X21893400Y12873800D01*
G75*
G02*
X21818400Y12948800I0J75000D01*
G01*
G37*
G36*
G01*
X22318400Y12948800D02*
X22318400Y14273800D01*
G75*
G02*
X22393400Y14348800I75000J0D01*
G01*
X22543400Y14348800D01*
G75*
G02*
X22618400Y14273800I0J-75000D01*
G01*
X22618400Y12948800D01*
G75*
G02*
X22543400Y12873800I-75000J0D01*
G01*
X22393400Y12873800D01*
G75*
G02*
X22318400Y12948800I0J75000D01*
G01*
G37*
G36*
G01*
X22818400Y12948800D02*
X22818400Y14273800D01*
G75*
G02*
X22893400Y14348800I75000J0D01*
G01*
X23043400Y14348800D01*
G75*
G02*
X23118400Y14273800I0J-75000D01*
G01*
X23118400Y12948800D01*
G75*
G02*
X23043400Y12873800I-75000J0D01*
G01*
X22893400Y12873800D01*
G75*
G02*
X22818400Y12948800I0J75000D01*
G01*
G37*
G36*
G01*
X23643400Y12123800D02*
X23643400Y12273800D01*
G75*
G02*
X23718400Y12348800I75000J0D01*
G01*
X25043400Y12348800D01*
G75*
G02*
X25118400Y12273800I0J-75000D01*
G01*
X25118400Y12123800D01*
G75*
G02*
X25043400Y12048800I-75000J0D01*
G01*
X23718400Y12048800D01*
G75*
G02*
X23643400Y12123800I0J75000D01*
G01*
G37*
G36*
G01*
X23643400Y11623800D02*
X23643400Y11773800D01*
G75*
G02*
X23718400Y11848800I75000J0D01*
G01*
X25043400Y11848800D01*
G75*
G02*
X25118400Y11773800I0J-75000D01*
G01*
X25118400Y11623800D01*
G75*
G02*
X25043400Y11548800I-75000J0D01*
G01*
X23718400Y11548800D01*
G75*
G02*
X23643400Y11623800I0J75000D01*
G01*
G37*
G36*
G01*
X23643400Y11123800D02*
X23643400Y11273800D01*
G75*
G02*
X23718400Y11348800I75000J0D01*
G01*
X25043400Y11348800D01*
G75*
G02*
X25118400Y11273800I0J-75000D01*
G01*
X25118400Y11123800D01*
G75*
G02*
X25043400Y11048800I-75000J0D01*
G01*
X23718400Y11048800D01*
G75*
G02*
X23643400Y11123800I0J75000D01*
G01*
G37*
G36*
G01*
X23643400Y10623800D02*
X23643400Y10773800D01*
G75*
G02*
X23718400Y10848800I75000J0D01*
G01*
X25043400Y10848800D01*
G75*
G02*
X25118400Y10773800I0J-75000D01*
G01*
X25118400Y10623800D01*
G75*
G02*
X25043400Y10548800I-75000J0D01*
G01*
X23718400Y10548800D01*
G75*
G02*
X23643400Y10623800I0J75000D01*
G01*
G37*
G36*
G01*
X23643400Y10123800D02*
X23643400Y10273800D01*
G75*
G02*
X23718400Y10348800I75000J0D01*
G01*
X25043400Y10348800D01*
G75*
G02*
X25118400Y10273800I0J-75000D01*
G01*
X25118400Y10123800D01*
G75*
G02*
X25043400Y10048800I-75000J0D01*
G01*
X23718400Y10048800D01*
G75*
G02*
X23643400Y10123800I0J75000D01*
G01*
G37*
G36*
G01*
X23643400Y9623800D02*
X23643400Y9773800D01*
G75*
G02*
X23718400Y9848800I75000J0D01*
G01*
X25043400Y9848800D01*
G75*
G02*
X25118400Y9773800I0J-75000D01*
G01*
X25118400Y9623800D01*
G75*
G02*
X25043400Y9548800I-75000J0D01*
G01*
X23718400Y9548800D01*
G75*
G02*
X23643400Y9623800I0J75000D01*
G01*
G37*
G36*
G01*
X23643400Y9123800D02*
X23643400Y9273800D01*
G75*
G02*
X23718400Y9348800I75000J0D01*
G01*
X25043400Y9348800D01*
G75*
G02*
X25118400Y9273800I0J-75000D01*
G01*
X25118400Y9123800D01*
G75*
G02*
X25043400Y9048800I-75000J0D01*
G01*
X23718400Y9048800D01*
G75*
G02*
X23643400Y9123800I0J75000D01*
G01*
G37*
G36*
G01*
X23643400Y8623800D02*
X23643400Y8773800D01*
G75*
G02*
X23718400Y8848800I75000J0D01*
G01*
X25043400Y8848800D01*
G75*
G02*
X25118400Y8773800I0J-75000D01*
G01*
X25118400Y8623800D01*
G75*
G02*
X25043400Y8548800I-75000J0D01*
G01*
X23718400Y8548800D01*
G75*
G02*
X23643400Y8623800I0J75000D01*
G01*
G37*
G36*
G01*
X23643400Y8123800D02*
X23643400Y8273800D01*
G75*
G02*
X23718400Y8348800I75000J0D01*
G01*
X25043400Y8348800D01*
G75*
G02*
X25118400Y8273800I0J-75000D01*
G01*
X25118400Y8123800D01*
G75*
G02*
X25043400Y8048800I-75000J0D01*
G01*
X23718400Y8048800D01*
G75*
G02*
X23643400Y8123800I0J75000D01*
G01*
G37*
G36*
G01*
X23643400Y7623800D02*
X23643400Y7773800D01*
G75*
G02*
X23718400Y7848800I75000J0D01*
G01*
X25043400Y7848800D01*
G75*
G02*
X25118400Y7773800I0J-75000D01*
G01*
X25118400Y7623800D01*
G75*
G02*
X25043400Y7548800I-75000J0D01*
G01*
X23718400Y7548800D01*
G75*
G02*
X23643400Y7623800I0J75000D01*
G01*
G37*
G36*
G01*
X23643400Y7123800D02*
X23643400Y7273800D01*
G75*
G02*
X23718400Y7348800I75000J0D01*
G01*
X25043400Y7348800D01*
G75*
G02*
X25118400Y7273800I0J-75000D01*
G01*
X25118400Y7123800D01*
G75*
G02*
X25043400Y7048800I-75000J0D01*
G01*
X23718400Y7048800D01*
G75*
G02*
X23643400Y7123800I0J75000D01*
G01*
G37*
G36*
G01*
X23643400Y6623800D02*
X23643400Y6773800D01*
G75*
G02*
X23718400Y6848800I75000J0D01*
G01*
X25043400Y6848800D01*
G75*
G02*
X25118400Y6773800I0J-75000D01*
G01*
X25118400Y6623800D01*
G75*
G02*
X25043400Y6548800I-75000J0D01*
G01*
X23718400Y6548800D01*
G75*
G02*
X23643400Y6623800I0J75000D01*
G01*
G37*
G36*
G01*
X22818400Y4623800D02*
X22818400Y5948800D01*
G75*
G02*
X22893400Y6023800I75000J0D01*
G01*
X23043400Y6023800D01*
G75*
G02*
X23118400Y5948800I0J-75000D01*
G01*
X23118400Y4623800D01*
G75*
G02*
X23043400Y4548800I-75000J0D01*
G01*
X22893400Y4548800D01*
G75*
G02*
X22818400Y4623800I0J75000D01*
G01*
G37*
G36*
G01*
X22318400Y4623800D02*
X22318400Y5948800D01*
G75*
G02*
X22393400Y6023800I75000J0D01*
G01*
X22543400Y6023800D01*
G75*
G02*
X22618400Y5948800I0J-75000D01*
G01*
X22618400Y4623800D01*
G75*
G02*
X22543400Y4548800I-75000J0D01*
G01*
X22393400Y4548800D01*
G75*
G02*
X22318400Y4623800I0J75000D01*
G01*
G37*
G36*
G01*
X21818400Y4623800D02*
X21818400Y5948800D01*
G75*
G02*
X21893400Y6023800I75000J0D01*
G01*
X22043400Y6023800D01*
G75*
G02*
X22118400Y5948800I0J-75000D01*
G01*
X22118400Y4623800D01*
G75*
G02*
X22043400Y4548800I-75000J0D01*
G01*
X21893400Y4548800D01*
G75*
G02*
X21818400Y4623800I0J75000D01*
G01*
G37*
G36*
G01*
X21318400Y4623800D02*
X21318400Y5948800D01*
G75*
G02*
X21393400Y6023800I75000J0D01*
G01*
X21543400Y6023800D01*
G75*
G02*
X21618400Y5948800I0J-75000D01*
G01*
X21618400Y4623800D01*
G75*
G02*
X21543400Y4548800I-75000J0D01*
G01*
X21393400Y4548800D01*
G75*
G02*
X21318400Y4623800I0J75000D01*
G01*
G37*
G36*
G01*
X20818400Y4623800D02*
X20818400Y5948800D01*
G75*
G02*
X20893400Y6023800I75000J0D01*
G01*
X21043400Y6023800D01*
G75*
G02*
X21118400Y5948800I0J-75000D01*
G01*
X21118400Y4623800D01*
G75*
G02*
X21043400Y4548800I-75000J0D01*
G01*
X20893400Y4548800D01*
G75*
G02*
X20818400Y4623800I0J75000D01*
G01*
G37*
G36*
G01*
X20318400Y4623800D02*
X20318400Y5948800D01*
G75*
G02*
X20393400Y6023800I75000J0D01*
G01*
X20543400Y6023800D01*
G75*
G02*
X20618400Y5948800I0J-75000D01*
G01*
X20618400Y4623800D01*
G75*
G02*
X20543400Y4548800I-75000J0D01*
G01*
X20393400Y4548800D01*
G75*
G02*
X20318400Y4623800I0J75000D01*
G01*
G37*
G36*
G01*
X19818400Y4623800D02*
X19818400Y5948800D01*
G75*
G02*
X19893400Y6023800I75000J0D01*
G01*
X20043400Y6023800D01*
G75*
G02*
X20118400Y5948800I0J-75000D01*
G01*
X20118400Y4623800D01*
G75*
G02*
X20043400Y4548800I-75000J0D01*
G01*
X19893400Y4548800D01*
G75*
G02*
X19818400Y4623800I0J75000D01*
G01*
G37*
G36*
G01*
X19318400Y4623800D02*
X19318400Y5948800D01*
G75*
G02*
X19393400Y6023800I75000J0D01*
G01*
X19543400Y6023800D01*
G75*
G02*
X19618400Y5948800I0J-75000D01*
G01*
X19618400Y4623800D01*
G75*
G02*
X19543400Y4548800I-75000J0D01*
G01*
X19393400Y4548800D01*
G75*
G02*
X19318400Y4623800I0J75000D01*
G01*
G37*
G36*
G01*
X18818400Y4623800D02*
X18818400Y5948800D01*
G75*
G02*
X18893400Y6023800I75000J0D01*
G01*
X19043400Y6023800D01*
G75*
G02*
X19118400Y5948800I0J-75000D01*
G01*
X19118400Y4623800D01*
G75*
G02*
X19043400Y4548800I-75000J0D01*
G01*
X18893400Y4548800D01*
G75*
G02*
X18818400Y4623800I0J75000D01*
G01*
G37*
G36*
G01*
X18318400Y4623800D02*
X18318400Y5948800D01*
G75*
G02*
X18393400Y6023800I75000J0D01*
G01*
X18543400Y6023800D01*
G75*
G02*
X18618400Y5948800I0J-75000D01*
G01*
X18618400Y4623800D01*
G75*
G02*
X18543400Y4548800I-75000J0D01*
G01*
X18393400Y4548800D01*
G75*
G02*
X18318400Y4623800I0J75000D01*
G01*
G37*
G36*
G01*
X17818400Y4623800D02*
X17818400Y5948800D01*
G75*
G02*
X17893400Y6023800I75000J0D01*
G01*
X18043400Y6023800D01*
G75*
G02*
X18118400Y5948800I0J-75000D01*
G01*
X18118400Y4623800D01*
G75*
G02*
X18043400Y4548800I-75000J0D01*
G01*
X17893400Y4548800D01*
G75*
G02*
X17818400Y4623800I0J75000D01*
G01*
G37*
G36*
G01*
X17318400Y4623800D02*
X17318400Y5948800D01*
G75*
G02*
X17393400Y6023800I75000J0D01*
G01*
X17543400Y6023800D01*
G75*
G02*
X17618400Y5948800I0J-75000D01*
G01*
X17618400Y4623800D01*
G75*
G02*
X17543400Y4548800I-75000J0D01*
G01*
X17393400Y4548800D01*
G75*
G02*
X17318400Y4623800I0J75000D01*
G01*
G37*
G36*
G01*
X15318400Y6623800D02*
X15318400Y6773800D01*
G75*
G02*
X15393400Y6848800I75000J0D01*
G01*
X16718400Y6848800D01*
G75*
G02*
X16793400Y6773800I0J-75000D01*
G01*
X16793400Y6623800D01*
G75*
G02*
X16718400Y6548800I-75000J0D01*
G01*
X15393400Y6548800D01*
G75*
G02*
X15318400Y6623800I0J75000D01*
G01*
G37*
G36*
G01*
X15318400Y7123800D02*
X15318400Y7273800D01*
G75*
G02*
X15393400Y7348800I75000J0D01*
G01*
X16718400Y7348800D01*
G75*
G02*
X16793400Y7273800I0J-75000D01*
G01*
X16793400Y7123800D01*
G75*
G02*
X16718400Y7048800I-75000J0D01*
G01*
X15393400Y7048800D01*
G75*
G02*
X15318400Y7123800I0J75000D01*
G01*
G37*
G36*
G01*
X15318400Y7623800D02*
X15318400Y7773800D01*
G75*
G02*
X15393400Y7848800I75000J0D01*
G01*
X16718400Y7848800D01*
G75*
G02*
X16793400Y7773800I0J-75000D01*
G01*
X16793400Y7623800D01*
G75*
G02*
X16718400Y7548800I-75000J0D01*
G01*
X15393400Y7548800D01*
G75*
G02*
X15318400Y7623800I0J75000D01*
G01*
G37*
G36*
G01*
X15318400Y8123800D02*
X15318400Y8273800D01*
G75*
G02*
X15393400Y8348800I75000J0D01*
G01*
X16718400Y8348800D01*
G75*
G02*
X16793400Y8273800I0J-75000D01*
G01*
X16793400Y8123800D01*
G75*
G02*
X16718400Y8048800I-75000J0D01*
G01*
X15393400Y8048800D01*
G75*
G02*
X15318400Y8123800I0J75000D01*
G01*
G37*
G36*
G01*
X15318400Y8623800D02*
X15318400Y8773800D01*
G75*
G02*
X15393400Y8848800I75000J0D01*
G01*
X16718400Y8848800D01*
G75*
G02*
X16793400Y8773800I0J-75000D01*
G01*
X16793400Y8623800D01*
G75*
G02*
X16718400Y8548800I-75000J0D01*
G01*
X15393400Y8548800D01*
G75*
G02*
X15318400Y8623800I0J75000D01*
G01*
G37*
G36*
G01*
X15318400Y9123800D02*
X15318400Y9273800D01*
G75*
G02*
X15393400Y9348800I75000J0D01*
G01*
X16718400Y9348800D01*
G75*
G02*
X16793400Y9273800I0J-75000D01*
G01*
X16793400Y9123800D01*
G75*
G02*
X16718400Y9048800I-75000J0D01*
G01*
X15393400Y9048800D01*
G75*
G02*
X15318400Y9123800I0J75000D01*
G01*
G37*
G36*
G01*
X15318400Y9623800D02*
X15318400Y9773800D01*
G75*
G02*
X15393400Y9848800I75000J0D01*
G01*
X16718400Y9848800D01*
G75*
G02*
X16793400Y9773800I0J-75000D01*
G01*
X16793400Y9623800D01*
G75*
G02*
X16718400Y9548800I-75000J0D01*
G01*
X15393400Y9548800D01*
G75*
G02*
X15318400Y9623800I0J75000D01*
G01*
G37*
G36*
G01*
X15318400Y10123800D02*
X15318400Y10273800D01*
G75*
G02*
X15393400Y10348800I75000J0D01*
G01*
X16718400Y10348800D01*
G75*
G02*
X16793400Y10273800I0J-75000D01*
G01*
X16793400Y10123800D01*
G75*
G02*
X16718400Y10048800I-75000J0D01*
G01*
X15393400Y10048800D01*
G75*
G02*
X15318400Y10123800I0J75000D01*
G01*
G37*
G36*
G01*
X15318400Y10623800D02*
X15318400Y10773800D01*
G75*
G02*
X15393400Y10848800I75000J0D01*
G01*
X16718400Y10848800D01*
G75*
G02*
X16793400Y10773800I0J-75000D01*
G01*
X16793400Y10623800D01*
G75*
G02*
X16718400Y10548800I-75000J0D01*
G01*
X15393400Y10548800D01*
G75*
G02*
X15318400Y10623800I0J75000D01*
G01*
G37*
G36*
G01*
X15318400Y11123800D02*
X15318400Y11273800D01*
G75*
G02*
X15393400Y11348800I75000J0D01*
G01*
X16718400Y11348800D01*
G75*
G02*
X16793400Y11273800I0J-75000D01*
G01*
X16793400Y11123800D01*
G75*
G02*
X16718400Y11048800I-75000J0D01*
G01*
X15393400Y11048800D01*
G75*
G02*
X15318400Y11123800I0J75000D01*
G01*
G37*
G36*
G01*
X15318400Y11623800D02*
X15318400Y11773800D01*
G75*
G02*
X15393400Y11848800I75000J0D01*
G01*
X16718400Y11848800D01*
G75*
G02*
X16793400Y11773800I0J-75000D01*
G01*
X16793400Y11623800D01*
G75*
G02*
X16718400Y11548800I-75000J0D01*
G01*
X15393400Y11548800D01*
G75*
G02*
X15318400Y11623800I0J75000D01*
G01*
G37*
G36*
G01*
X15318400Y12123800D02*
X15318400Y12273800D01*
G75*
G02*
X15393400Y12348800I75000J0D01*
G01*
X16718400Y12348800D01*
G75*
G02*
X16793400Y12273800I0J-75000D01*
G01*
X16793400Y12123800D01*
G75*
G02*
X16718400Y12048800I-75000J0D01*
G01*
X15393400Y12048800D01*
G75*
G02*
X15318400Y12123800I0J75000D01*
G01*
G37*
%TD*%
%TO.C,C1*%
G36*
G01*
X27211000Y15094800D02*
X28161000Y15094800D01*
G75*
G02*
X28411000Y14844800I0J-250000D01*
G01*
X28411000Y14169800D01*
G75*
G02*
X28161000Y13919800I-250000J0D01*
G01*
X27211000Y13919800D01*
G75*
G02*
X26961000Y14169800I0J250000D01*
G01*
X26961000Y14844800D01*
G75*
G02*
X27211000Y15094800I250000J0D01*
G01*
G37*
G36*
G01*
X27211000Y17169800D02*
X28161000Y17169800D01*
G75*
G02*
X28411000Y16919800I0J-250000D01*
G01*
X28411000Y16244800D01*
G75*
G02*
X28161000Y15994800I-250000J0D01*
G01*
X27211000Y15994800D01*
G75*
G02*
X26961000Y16244800I0J250000D01*
G01*
X26961000Y16919800D01*
G75*
G02*
X27211000Y17169800I250000J0D01*
G01*
G37*
%TD*%
D10*
%TO.C,3.3Vreg1*%
X11158400Y11719600D03*
X11158400Y9819600D03*
X8958400Y9819600D03*
X8958400Y10769600D03*
X8958400Y11719600D03*
%TD*%
%TO.C,R6*%
G36*
G01*
X16521600Y4011800D02*
X16701600Y4011800D01*
G75*
G02*
X16791600Y3921800I0J-90000D01*
G01*
X16791600Y3643800D01*
G75*
G02*
X16701600Y3553800I-90000J0D01*
G01*
X16521600Y3553800D01*
G75*
G02*
X16431600Y3643800I0J90000D01*
G01*
X16431600Y3921800D01*
G75*
G02*
X16521600Y4011800I90000J0D01*
G01*
G37*
G36*
G01*
X16521600Y4876800D02*
X16701600Y4876800D01*
G75*
G02*
X16791600Y4786800I0J-90000D01*
G01*
X16791600Y4508800D01*
G75*
G02*
X16701600Y4418800I-90000J0D01*
G01*
X16521600Y4418800D01*
G75*
G02*
X16431600Y4508800I0J90000D01*
G01*
X16431600Y4786800D01*
G75*
G02*
X16521600Y4876800I90000J0D01*
G01*
G37*
%TD*%
%TO.C,R4*%
G36*
G01*
X24485900Y14134000D02*
X24485900Y14314000D01*
G75*
G02*
X24575900Y14404000I90000J0D01*
G01*
X24853900Y14404000D01*
G75*
G02*
X24943900Y14314000I0J-90000D01*
G01*
X24943900Y14134000D01*
G75*
G02*
X24853900Y14044000I-90000J0D01*
G01*
X24575900Y14044000D01*
G75*
G02*
X24485900Y14134000I0J90000D01*
G01*
G37*
G36*
G01*
X23620900Y14134000D02*
X23620900Y14314000D01*
G75*
G02*
X23710900Y14404000I90000J0D01*
G01*
X23988900Y14404000D01*
G75*
G02*
X24078900Y14314000I0J-90000D01*
G01*
X24078900Y14134000D01*
G75*
G02*
X23988900Y14044000I-90000J0D01*
G01*
X23710900Y14044000D01*
G75*
G02*
X23620900Y14134000I0J90000D01*
G01*
G37*
%TD*%
%TO.C,C7*%
G36*
G01*
X14445000Y12968300D02*
X13495000Y12968300D01*
G75*
G02*
X13245000Y13218300I0J250000D01*
G01*
X13245000Y13893300D01*
G75*
G02*
X13495000Y14143300I250000J0D01*
G01*
X14445000Y14143300D01*
G75*
G02*
X14695000Y13893300I0J-250000D01*
G01*
X14695000Y13218300D01*
G75*
G02*
X14445000Y12968300I-250000J0D01*
G01*
G37*
G36*
G01*
X14445000Y10893300D02*
X13495000Y10893300D01*
G75*
G02*
X13245000Y11143300I0J250000D01*
G01*
X13245000Y11818300D01*
G75*
G02*
X13495000Y12068300I250000J0D01*
G01*
X14445000Y12068300D01*
G75*
G02*
X14695000Y11818300I0J-250000D01*
G01*
X14695000Y11143300D01*
G75*
G02*
X14445000Y10893300I-250000J0D01*
G01*
G37*
%TD*%
%TO.C,R5*%
G36*
G01*
X14517200Y9398300D02*
X14337200Y9398300D01*
G75*
G02*
X14247200Y9488300I0J90000D01*
G01*
X14247200Y9766300D01*
G75*
G02*
X14337200Y9856300I90000J0D01*
G01*
X14517200Y9856300D01*
G75*
G02*
X14607200Y9766300I0J-90000D01*
G01*
X14607200Y9488300D01*
G75*
G02*
X14517200Y9398300I-90000J0D01*
G01*
G37*
G36*
G01*
X14517200Y8533300D02*
X14337200Y8533300D01*
G75*
G02*
X14247200Y8623300I0J90000D01*
G01*
X14247200Y8901300D01*
G75*
G02*
X14337200Y8991300I90000J0D01*
G01*
X14517200Y8991300D01*
G75*
G02*
X14607200Y8901300I0J-90000D01*
G01*
X14607200Y8623300D01*
G75*
G02*
X14517200Y8533300I-90000J0D01*
G01*
G37*
%TD*%
%TO.C,F1*%
G36*
G01*
X3644600Y14417200D02*
X3644600Y13167200D01*
G75*
G02*
X3394600Y12917200I-250000J0D01*
G01*
X2469600Y12917200D01*
G75*
G02*
X2219600Y13167200I0J250000D01*
G01*
X2219600Y14417200D01*
G75*
G02*
X2469600Y14667200I250000J0D01*
G01*
X3394600Y14667200D01*
G75*
G02*
X3644600Y14417200I0J-250000D01*
G01*
G37*
G36*
G01*
X6619600Y14417200D02*
X6619600Y13167200D01*
G75*
G02*
X6369600Y12917200I-250000J0D01*
G01*
X5444600Y12917200D01*
G75*
G02*
X5194600Y13167200I0J250000D01*
G01*
X5194600Y14417200D01*
G75*
G02*
X5444600Y14667200I250000J0D01*
G01*
X6369600Y14667200D01*
G75*
G02*
X6619600Y14417200I0J-250000D01*
G01*
G37*
%TD*%
D11*
%TO.C,D1*%
X5591000Y16205200D03*
X2791000Y16205200D03*
%TD*%
%TO.C,C4*%
G36*
G01*
X31910000Y15056700D02*
X32860000Y15056700D01*
G75*
G02*
X33110000Y14806700I0J-250000D01*
G01*
X33110000Y14131700D01*
G75*
G02*
X32860000Y13881700I-250000J0D01*
G01*
X31910000Y13881700D01*
G75*
G02*
X31660000Y14131700I0J250000D01*
G01*
X31660000Y14806700D01*
G75*
G02*
X31910000Y15056700I250000J0D01*
G01*
G37*
G36*
G01*
X31910000Y17131700D02*
X32860000Y17131700D01*
G75*
G02*
X33110000Y16881700I0J-250000D01*
G01*
X33110000Y16206700D01*
G75*
G02*
X32860000Y15956700I-250000J0D01*
G01*
X31910000Y15956700D01*
G75*
G02*
X31660000Y16206700I0J250000D01*
G01*
X31660000Y16881700D01*
G75*
G02*
X31910000Y17131700I250000J0D01*
G01*
G37*
%TD*%
%TO.C,C6*%
G36*
G01*
X7500600Y14104200D02*
X8450600Y14104200D01*
G75*
G02*
X8700600Y13854200I0J-250000D01*
G01*
X8700600Y13179200D01*
G75*
G02*
X8450600Y12929200I-250000J0D01*
G01*
X7500600Y12929200D01*
G75*
G02*
X7250600Y13179200I0J250000D01*
G01*
X7250600Y13854200D01*
G75*
G02*
X7500600Y14104200I250000J0D01*
G01*
G37*
G36*
G01*
X7500600Y16179200D02*
X8450600Y16179200D01*
G75*
G02*
X8700600Y15929200I0J-250000D01*
G01*
X8700600Y15254200D01*
G75*
G02*
X8450600Y15004200I-250000J0D01*
G01*
X7500600Y15004200D01*
G75*
G02*
X7250600Y15254200I0J250000D01*
G01*
X7250600Y15929200D01*
G75*
G02*
X7500600Y16179200I250000J0D01*
G01*
G37*
%TD*%
%TO.C,C3*%
G36*
G01*
X29598600Y15094800D02*
X30548600Y15094800D01*
G75*
G02*
X30798600Y14844800I0J-250000D01*
G01*
X30798600Y14169800D01*
G75*
G02*
X30548600Y13919800I-250000J0D01*
G01*
X29598600Y13919800D01*
G75*
G02*
X29348600Y14169800I0J250000D01*
G01*
X29348600Y14844800D01*
G75*
G02*
X29598600Y15094800I250000J0D01*
G01*
G37*
G36*
G01*
X29598600Y17169800D02*
X30548600Y17169800D01*
G75*
G02*
X30798600Y16919800I0J-250000D01*
G01*
X30798600Y16244800D01*
G75*
G02*
X30548600Y15994800I-250000J0D01*
G01*
X29598600Y15994800D01*
G75*
G02*
X29348600Y16244800I0J250000D01*
G01*
X29348600Y16919800D01*
G75*
G02*
X29598600Y17169800I250000J0D01*
G01*
G37*
%TD*%
%TO.C,C2*%
G36*
G01*
X34221400Y15044000D02*
X35171400Y15044000D01*
G75*
G02*
X35421400Y14794000I0J-250000D01*
G01*
X35421400Y14119000D01*
G75*
G02*
X35171400Y13869000I-250000J0D01*
G01*
X34221400Y13869000D01*
G75*
G02*
X33971400Y14119000I0J250000D01*
G01*
X33971400Y14794000D01*
G75*
G02*
X34221400Y15044000I250000J0D01*
G01*
G37*
G36*
G01*
X34221400Y17119000D02*
X35171400Y17119000D01*
G75*
G02*
X35421400Y16869000I0J-250000D01*
G01*
X35421400Y16194000D01*
G75*
G02*
X35171400Y15944000I-250000J0D01*
G01*
X34221400Y15944000D01*
G75*
G02*
X33971400Y16194000I0J250000D01*
G01*
X33971400Y16869000D01*
G75*
G02*
X34221400Y17119000I250000J0D01*
G01*
G37*
%TD*%
M02*
