%TF.GenerationSoftware,KiCad,Pcbnew,(5.1.8)-1*%
%TF.CreationDate,2020-12-26T00:02:07-07:00*%
%TF.ProjectId,Axle-Tx-PCB(STM32)v2,41786c65-2d54-4782-9d50-43422853544d,rev?*%
%TF.SameCoordinates,Original*%
%TF.FileFunction,Copper,L1,Top*%
%TF.FilePolarity,Positive*%
%FSLAX46Y46*%
G04 Gerber Fmt 4.6, Leading zero omitted, Abs format (unit mm)*
G04 Created by KiCad (PCBNEW (5.1.8)-1) date 2020-12-26 00:02:07*
%MOMM*%
%LPD*%
G01*
G04 APERTURE LIST*
%TA.AperFunction,ComponentPad*%
%ADD10O,1.400000X1.400000*%
%TD*%
%TA.AperFunction,ComponentPad*%
%ADD11C,1.400000*%
%TD*%
%TA.AperFunction,SMDPad,CuDef*%
%ADD12R,1.060000X0.650000*%
%TD*%
%TA.AperFunction,ComponentPad*%
%ADD13O,1.700000X1.700000*%
%TD*%
%TA.AperFunction,ComponentPad*%
%ADD14R,1.700000X1.700000*%
%TD*%
%TA.AperFunction,SMDPad,CuDef*%
%ADD15R,1.100000X1.100000*%
%TD*%
%TA.AperFunction,ViaPad*%
%ADD16C,0.800000*%
%TD*%
%TA.AperFunction,Conductor*%
%ADD17C,0.300000*%
%TD*%
%TA.AperFunction,Conductor*%
%ADD18C,0.250000*%
%TD*%
%TA.AperFunction,Conductor*%
%ADD19C,0.254000*%
%TD*%
%TA.AperFunction,Conductor*%
%ADD20C,0.100000*%
%TD*%
G04 APERTURE END LIST*
D10*
%TO.P,SG4,2*%
%TO.N,SPI1-MISO*%
X36017200Y12395200D03*
D11*
%TO.P,SG4,1*%
%TO.N,SDADC1-AIN8p*%
X36017200Y7315200D03*
%TD*%
%TO.P,STM32,48*%
%TO.N,+3V3*%
%TA.AperFunction,SMDPad,CuDef*%
G36*
G01*
X19452000Y14726800D02*
X19452000Y16051800D01*
G75*
G02*
X19527000Y16126800I75000J0D01*
G01*
X19677000Y16126800D01*
G75*
G02*
X19752000Y16051800I0J-75000D01*
G01*
X19752000Y14726800D01*
G75*
G02*
X19677000Y14651800I-75000J0D01*
G01*
X19527000Y14651800D01*
G75*
G02*
X19452000Y14726800I0J75000D01*
G01*
G37*
%TD.AperFunction*%
%TO.P,STM32,47*%
%TO.N,SPI1-MISO*%
%TA.AperFunction,SMDPad,CuDef*%
G36*
G01*
X19952000Y14726800D02*
X19952000Y16051800D01*
G75*
G02*
X20027000Y16126800I75000J0D01*
G01*
X20177000Y16126800D01*
G75*
G02*
X20252000Y16051800I0J-75000D01*
G01*
X20252000Y14726800D01*
G75*
G02*
X20177000Y14651800I-75000J0D01*
G01*
X20027000Y14651800D01*
G75*
G02*
X19952000Y14726800I0J75000D01*
G01*
G37*
%TD.AperFunction*%
%TO.P,STM32,46*%
%TO.N,Net-(STM32-Pad46)*%
%TA.AperFunction,SMDPad,CuDef*%
G36*
G01*
X20452000Y14726800D02*
X20452000Y16051800D01*
G75*
G02*
X20527000Y16126800I75000J0D01*
G01*
X20677000Y16126800D01*
G75*
G02*
X20752000Y16051800I0J-75000D01*
G01*
X20752000Y14726800D01*
G75*
G02*
X20677000Y14651800I-75000J0D01*
G01*
X20527000Y14651800D01*
G75*
G02*
X20452000Y14726800I0J75000D01*
G01*
G37*
%TD.AperFunction*%
%TO.P,STM32,45*%
%TO.N,Net-(STM32-Pad45)*%
%TA.AperFunction,SMDPad,CuDef*%
G36*
G01*
X20952000Y14726800D02*
X20952000Y16051800D01*
G75*
G02*
X21027000Y16126800I75000J0D01*
G01*
X21177000Y16126800D01*
G75*
G02*
X21252000Y16051800I0J-75000D01*
G01*
X21252000Y14726800D01*
G75*
G02*
X21177000Y14651800I-75000J0D01*
G01*
X21027000Y14651800D01*
G75*
G02*
X20952000Y14726800I0J75000D01*
G01*
G37*
%TD.AperFunction*%
%TO.P,STM32,44*%
%TO.N,Net-(R4-Pad1)*%
%TA.AperFunction,SMDPad,CuDef*%
G36*
G01*
X21452000Y14726800D02*
X21452000Y16051800D01*
G75*
G02*
X21527000Y16126800I75000J0D01*
G01*
X21677000Y16126800D01*
G75*
G02*
X21752000Y16051800I0J-75000D01*
G01*
X21752000Y14726800D01*
G75*
G02*
X21677000Y14651800I-75000J0D01*
G01*
X21527000Y14651800D01*
G75*
G02*
X21452000Y14726800I0J75000D01*
G01*
G37*
%TD.AperFunction*%
%TO.P,STM32,43*%
%TO.N,Net-(STM32-Pad43)*%
%TA.AperFunction,SMDPad,CuDef*%
G36*
G01*
X21952000Y14726800D02*
X21952000Y16051800D01*
G75*
G02*
X22027000Y16126800I75000J0D01*
G01*
X22177000Y16126800D01*
G75*
G02*
X22252000Y16051800I0J-75000D01*
G01*
X22252000Y14726800D01*
G75*
G02*
X22177000Y14651800I-75000J0D01*
G01*
X22027000Y14651800D01*
G75*
G02*
X21952000Y14726800I0J75000D01*
G01*
G37*
%TD.AperFunction*%
%TO.P,STM32,42*%
%TO.N,Net-(STM32-Pad42)*%
%TA.AperFunction,SMDPad,CuDef*%
G36*
G01*
X22452000Y14726800D02*
X22452000Y16051800D01*
G75*
G02*
X22527000Y16126800I75000J0D01*
G01*
X22677000Y16126800D01*
G75*
G02*
X22752000Y16051800I0J-75000D01*
G01*
X22752000Y14726800D01*
G75*
G02*
X22677000Y14651800I-75000J0D01*
G01*
X22527000Y14651800D01*
G75*
G02*
X22452000Y14726800I0J75000D01*
G01*
G37*
%TD.AperFunction*%
%TO.P,STM32,41*%
%TO.N,Net-(STM32-Pad41)*%
%TA.AperFunction,SMDPad,CuDef*%
G36*
G01*
X22952000Y14726800D02*
X22952000Y16051800D01*
G75*
G02*
X23027000Y16126800I75000J0D01*
G01*
X23177000Y16126800D01*
G75*
G02*
X23252000Y16051800I0J-75000D01*
G01*
X23252000Y14726800D01*
G75*
G02*
X23177000Y14651800I-75000J0D01*
G01*
X23027000Y14651800D01*
G75*
G02*
X22952000Y14726800I0J75000D01*
G01*
G37*
%TD.AperFunction*%
%TO.P,STM32,40*%
%TO.N,Net-(STM32-Pad40)*%
%TA.AperFunction,SMDPad,CuDef*%
G36*
G01*
X23452000Y14726800D02*
X23452000Y16051800D01*
G75*
G02*
X23527000Y16126800I75000J0D01*
G01*
X23677000Y16126800D01*
G75*
G02*
X23752000Y16051800I0J-75000D01*
G01*
X23752000Y14726800D01*
G75*
G02*
X23677000Y14651800I-75000J0D01*
G01*
X23527000Y14651800D01*
G75*
G02*
X23452000Y14726800I0J75000D01*
G01*
G37*
%TD.AperFunction*%
%TO.P,STM32,39*%
%TO.N,Net-(STM32-Pad39)*%
%TA.AperFunction,SMDPad,CuDef*%
G36*
G01*
X23952000Y14726800D02*
X23952000Y16051800D01*
G75*
G02*
X24027000Y16126800I75000J0D01*
G01*
X24177000Y16126800D01*
G75*
G02*
X24252000Y16051800I0J-75000D01*
G01*
X24252000Y14726800D01*
G75*
G02*
X24177000Y14651800I-75000J0D01*
G01*
X24027000Y14651800D01*
G75*
G02*
X23952000Y14726800I0J75000D01*
G01*
G37*
%TD.AperFunction*%
%TO.P,STM32,38*%
%TO.N,Net-(STM32-Pad38)*%
%TA.AperFunction,SMDPad,CuDef*%
G36*
G01*
X24452000Y14726800D02*
X24452000Y16051800D01*
G75*
G02*
X24527000Y16126800I75000J0D01*
G01*
X24677000Y16126800D01*
G75*
G02*
X24752000Y16051800I0J-75000D01*
G01*
X24752000Y14726800D01*
G75*
G02*
X24677000Y14651800I-75000J0D01*
G01*
X24527000Y14651800D01*
G75*
G02*
X24452000Y14726800I0J75000D01*
G01*
G37*
%TD.AperFunction*%
%TO.P,STM32,37*%
%TO.N,PA14-SWCLK*%
%TA.AperFunction,SMDPad,CuDef*%
G36*
G01*
X24952000Y14726800D02*
X24952000Y16051800D01*
G75*
G02*
X25027000Y16126800I75000J0D01*
G01*
X25177000Y16126800D01*
G75*
G02*
X25252000Y16051800I0J-75000D01*
G01*
X25252000Y14726800D01*
G75*
G02*
X25177000Y14651800I-75000J0D01*
G01*
X25027000Y14651800D01*
G75*
G02*
X24952000Y14726800I0J75000D01*
G01*
G37*
%TD.AperFunction*%
%TO.P,STM32,36*%
%TO.N,Net-(STM32-Pad36)*%
%TA.AperFunction,SMDPad,CuDef*%
G36*
G01*
X25777000Y13901800D02*
X25777000Y14051800D01*
G75*
G02*
X25852000Y14126800I75000J0D01*
G01*
X27177000Y14126800D01*
G75*
G02*
X27252000Y14051800I0J-75000D01*
G01*
X27252000Y13901800D01*
G75*
G02*
X27177000Y13826800I-75000J0D01*
G01*
X25852000Y13826800D01*
G75*
G02*
X25777000Y13901800I0J75000D01*
G01*
G37*
%TD.AperFunction*%
%TO.P,STM32,35*%
%TO.N,Net-(STM32-Pad35)*%
%TA.AperFunction,SMDPad,CuDef*%
G36*
G01*
X25777000Y13401800D02*
X25777000Y13551800D01*
G75*
G02*
X25852000Y13626800I75000J0D01*
G01*
X27177000Y13626800D01*
G75*
G02*
X27252000Y13551800I0J-75000D01*
G01*
X27252000Y13401800D01*
G75*
G02*
X27177000Y13326800I-75000J0D01*
G01*
X25852000Y13326800D01*
G75*
G02*
X25777000Y13401800I0J75000D01*
G01*
G37*
%TD.AperFunction*%
%TO.P,STM32,34*%
%TO.N,PA13-SWDIO*%
%TA.AperFunction,SMDPad,CuDef*%
G36*
G01*
X25777000Y12901800D02*
X25777000Y13051800D01*
G75*
G02*
X25852000Y13126800I75000J0D01*
G01*
X27177000Y13126800D01*
G75*
G02*
X27252000Y13051800I0J-75000D01*
G01*
X27252000Y12901800D01*
G75*
G02*
X27177000Y12826800I-75000J0D01*
G01*
X25852000Y12826800D01*
G75*
G02*
X25777000Y12901800I0J75000D01*
G01*
G37*
%TD.AperFunction*%
%TO.P,STM32,33*%
%TO.N,Net-(STM32-Pad33)*%
%TA.AperFunction,SMDPad,CuDef*%
G36*
G01*
X25777000Y12401800D02*
X25777000Y12551800D01*
G75*
G02*
X25852000Y12626800I75000J0D01*
G01*
X27177000Y12626800D01*
G75*
G02*
X27252000Y12551800I0J-75000D01*
G01*
X27252000Y12401800D01*
G75*
G02*
X27177000Y12326800I-75000J0D01*
G01*
X25852000Y12326800D01*
G75*
G02*
X25777000Y12401800I0J75000D01*
G01*
G37*
%TD.AperFunction*%
%TO.P,STM32,32*%
%TO.N,Net-(STM32-Pad32)*%
%TA.AperFunction,SMDPad,CuDef*%
G36*
G01*
X25777000Y11901800D02*
X25777000Y12051800D01*
G75*
G02*
X25852000Y12126800I75000J0D01*
G01*
X27177000Y12126800D01*
G75*
G02*
X27252000Y12051800I0J-75000D01*
G01*
X27252000Y11901800D01*
G75*
G02*
X27177000Y11826800I-75000J0D01*
G01*
X25852000Y11826800D01*
G75*
G02*
X25777000Y11901800I0J75000D01*
G01*
G37*
%TD.AperFunction*%
%TO.P,STM32,31*%
%TO.N,Net-(STM32-Pad31)*%
%TA.AperFunction,SMDPad,CuDef*%
G36*
G01*
X25777000Y11401800D02*
X25777000Y11551800D01*
G75*
G02*
X25852000Y11626800I75000J0D01*
G01*
X27177000Y11626800D01*
G75*
G02*
X27252000Y11551800I0J-75000D01*
G01*
X27252000Y11401800D01*
G75*
G02*
X27177000Y11326800I-75000J0D01*
G01*
X25852000Y11326800D01*
G75*
G02*
X25777000Y11401800I0J75000D01*
G01*
G37*
%TD.AperFunction*%
%TO.P,STM32,30*%
%TO.N,Net-(STM32-Pad30)*%
%TA.AperFunction,SMDPad,CuDef*%
G36*
G01*
X25777000Y10901800D02*
X25777000Y11051800D01*
G75*
G02*
X25852000Y11126800I75000J0D01*
G01*
X27177000Y11126800D01*
G75*
G02*
X27252000Y11051800I0J-75000D01*
G01*
X27252000Y10901800D01*
G75*
G02*
X27177000Y10826800I-75000J0D01*
G01*
X25852000Y10826800D01*
G75*
G02*
X25777000Y10901800I0J75000D01*
G01*
G37*
%TD.AperFunction*%
%TO.P,STM32,29*%
%TO.N,Net-(STM32-Pad29)*%
%TA.AperFunction,SMDPad,CuDef*%
G36*
G01*
X25777000Y10401800D02*
X25777000Y10551800D01*
G75*
G02*
X25852000Y10626800I75000J0D01*
G01*
X27177000Y10626800D01*
G75*
G02*
X27252000Y10551800I0J-75000D01*
G01*
X27252000Y10401800D01*
G75*
G02*
X27177000Y10326800I-75000J0D01*
G01*
X25852000Y10326800D01*
G75*
G02*
X25777000Y10401800I0J75000D01*
G01*
G37*
%TD.AperFunction*%
%TO.P,STM32,28*%
%TO.N,Net-(STM32-Pad28)*%
%TA.AperFunction,SMDPad,CuDef*%
G36*
G01*
X25777000Y9901800D02*
X25777000Y10051800D01*
G75*
G02*
X25852000Y10126800I75000J0D01*
G01*
X27177000Y10126800D01*
G75*
G02*
X27252000Y10051800I0J-75000D01*
G01*
X27252000Y9901800D01*
G75*
G02*
X27177000Y9826800I-75000J0D01*
G01*
X25852000Y9826800D01*
G75*
G02*
X25777000Y9901800I0J75000D01*
G01*
G37*
%TD.AperFunction*%
%TO.P,STM32,27*%
%TO.N,Net-(STM32-Pad27)*%
%TA.AperFunction,SMDPad,CuDef*%
G36*
G01*
X25777000Y9401800D02*
X25777000Y9551800D01*
G75*
G02*
X25852000Y9626800I75000J0D01*
G01*
X27177000Y9626800D01*
G75*
G02*
X27252000Y9551800I0J-75000D01*
G01*
X27252000Y9401800D01*
G75*
G02*
X27177000Y9326800I-75000J0D01*
G01*
X25852000Y9326800D01*
G75*
G02*
X25777000Y9401800I0J75000D01*
G01*
G37*
%TD.AperFunction*%
%TO.P,STM32,26*%
%TO.N,Net-(STM32-Pad26)*%
%TA.AperFunction,SMDPad,CuDef*%
G36*
G01*
X25777000Y8901800D02*
X25777000Y9051800D01*
G75*
G02*
X25852000Y9126800I75000J0D01*
G01*
X27177000Y9126800D01*
G75*
G02*
X27252000Y9051800I0J-75000D01*
G01*
X27252000Y8901800D01*
G75*
G02*
X27177000Y8826800I-75000J0D01*
G01*
X25852000Y8826800D01*
G75*
G02*
X25777000Y8901800I0J75000D01*
G01*
G37*
%TD.AperFunction*%
%TO.P,STM32,25*%
%TO.N,+3V3*%
%TA.AperFunction,SMDPad,CuDef*%
G36*
G01*
X25777000Y8401800D02*
X25777000Y8551800D01*
G75*
G02*
X25852000Y8626800I75000J0D01*
G01*
X27177000Y8626800D01*
G75*
G02*
X27252000Y8551800I0J-75000D01*
G01*
X27252000Y8401800D01*
G75*
G02*
X27177000Y8326800I-75000J0D01*
G01*
X25852000Y8326800D01*
G75*
G02*
X25777000Y8401800I0J75000D01*
G01*
G37*
%TD.AperFunction*%
%TO.P,STM32,24*%
%TA.AperFunction,SMDPad,CuDef*%
G36*
G01*
X24952000Y6401800D02*
X24952000Y7726800D01*
G75*
G02*
X25027000Y7801800I75000J0D01*
G01*
X25177000Y7801800D01*
G75*
G02*
X25252000Y7726800I0J-75000D01*
G01*
X25252000Y6401800D01*
G75*
G02*
X25177000Y6326800I-75000J0D01*
G01*
X25027000Y6326800D01*
G75*
G02*
X24952000Y6401800I0J75000D01*
G01*
G37*
%TD.AperFunction*%
%TO.P,STM32,23*%
%TO.N,SPI1-MISO*%
%TA.AperFunction,SMDPad,CuDef*%
G36*
G01*
X24452000Y6401800D02*
X24452000Y7726800D01*
G75*
G02*
X24527000Y7801800I75000J0D01*
G01*
X24677000Y7801800D01*
G75*
G02*
X24752000Y7726800I0J-75000D01*
G01*
X24752000Y6401800D01*
G75*
G02*
X24677000Y6326800I-75000J0D01*
G01*
X24527000Y6326800D01*
G75*
G02*
X24452000Y6401800I0J75000D01*
G01*
G37*
%TD.AperFunction*%
%TO.P,STM32,22*%
%TO.N,SDADC-AIN8m*%
%TA.AperFunction,SMDPad,CuDef*%
G36*
G01*
X23952000Y6401800D02*
X23952000Y7726800D01*
G75*
G02*
X24027000Y7801800I75000J0D01*
G01*
X24177000Y7801800D01*
G75*
G02*
X24252000Y7726800I0J-75000D01*
G01*
X24252000Y6401800D01*
G75*
G02*
X24177000Y6326800I-75000J0D01*
G01*
X24027000Y6326800D01*
G75*
G02*
X23952000Y6401800I0J75000D01*
G01*
G37*
%TD.AperFunction*%
%TO.P,STM32,21*%
%TO.N,SDADC1-AIN8p*%
%TA.AperFunction,SMDPad,CuDef*%
G36*
G01*
X23452000Y6401800D02*
X23452000Y7726800D01*
G75*
G02*
X23527000Y7801800I75000J0D01*
G01*
X23677000Y7801800D01*
G75*
G02*
X23752000Y7726800I0J-75000D01*
G01*
X23752000Y6401800D01*
G75*
G02*
X23677000Y6326800I-75000J0D01*
G01*
X23527000Y6326800D01*
G75*
G02*
X23452000Y6401800I0J75000D01*
G01*
G37*
%TD.AperFunction*%
%TO.P,STM32,20*%
%TO.N,Net-(STM32-Pad20)*%
%TA.AperFunction,SMDPad,CuDef*%
G36*
G01*
X22952000Y6401800D02*
X22952000Y7726800D01*
G75*
G02*
X23027000Y7801800I75000J0D01*
G01*
X23177000Y7801800D01*
G75*
G02*
X23252000Y7726800I0J-75000D01*
G01*
X23252000Y6401800D01*
G75*
G02*
X23177000Y6326800I-75000J0D01*
G01*
X23027000Y6326800D01*
G75*
G02*
X22952000Y6401800I0J75000D01*
G01*
G37*
%TD.AperFunction*%
%TO.P,STM32,19*%
%TO.N,Net-(STM32-Pad19)*%
%TA.AperFunction,SMDPad,CuDef*%
G36*
G01*
X22452000Y6401800D02*
X22452000Y7726800D01*
G75*
G02*
X22527000Y7801800I75000J0D01*
G01*
X22677000Y7801800D01*
G75*
G02*
X22752000Y7726800I0J-75000D01*
G01*
X22752000Y6401800D01*
G75*
G02*
X22677000Y6326800I-75000J0D01*
G01*
X22527000Y6326800D01*
G75*
G02*
X22452000Y6401800I0J75000D01*
G01*
G37*
%TD.AperFunction*%
%TO.P,STM32,18*%
%TO.N,SPI1-MOSI*%
%TA.AperFunction,SMDPad,CuDef*%
G36*
G01*
X21952000Y6401800D02*
X21952000Y7726800D01*
G75*
G02*
X22027000Y7801800I75000J0D01*
G01*
X22177000Y7801800D01*
G75*
G02*
X22252000Y7726800I0J-75000D01*
G01*
X22252000Y6401800D01*
G75*
G02*
X22177000Y6326800I-75000J0D01*
G01*
X22027000Y6326800D01*
G75*
G02*
X21952000Y6401800I0J75000D01*
G01*
G37*
%TD.AperFunction*%
%TO.P,STM32,17*%
%TO.N,+3V3*%
%TA.AperFunction,SMDPad,CuDef*%
G36*
G01*
X21452000Y6401800D02*
X21452000Y7726800D01*
G75*
G02*
X21527000Y7801800I75000J0D01*
G01*
X21677000Y7801800D01*
G75*
G02*
X21752000Y7726800I0J-75000D01*
G01*
X21752000Y6401800D01*
G75*
G02*
X21677000Y6326800I-75000J0D01*
G01*
X21527000Y6326800D01*
G75*
G02*
X21452000Y6401800I0J75000D01*
G01*
G37*
%TD.AperFunction*%
%TO.P,STM32,16*%
%TO.N,Net-(STM32-Pad16)*%
%TA.AperFunction,SMDPad,CuDef*%
G36*
G01*
X20952000Y6401800D02*
X20952000Y7726800D01*
G75*
G02*
X21027000Y7801800I75000J0D01*
G01*
X21177000Y7801800D01*
G75*
G02*
X21252000Y7726800I0J-75000D01*
G01*
X21252000Y6401800D01*
G75*
G02*
X21177000Y6326800I-75000J0D01*
G01*
X21027000Y6326800D01*
G75*
G02*
X20952000Y6401800I0J75000D01*
G01*
G37*
%TD.AperFunction*%
%TO.P,STM32,15*%
%TO.N,SPI1-SCK*%
%TA.AperFunction,SMDPad,CuDef*%
G36*
G01*
X20452000Y6401800D02*
X20452000Y7726800D01*
G75*
G02*
X20527000Y7801800I75000J0D01*
G01*
X20677000Y7801800D01*
G75*
G02*
X20752000Y7726800I0J-75000D01*
G01*
X20752000Y6401800D01*
G75*
G02*
X20677000Y6326800I-75000J0D01*
G01*
X20527000Y6326800D01*
G75*
G02*
X20452000Y6401800I0J75000D01*
G01*
G37*
%TD.AperFunction*%
%TO.P,STM32,14*%
%TO.N,SPI1-IRQ*%
%TA.AperFunction,SMDPad,CuDef*%
G36*
G01*
X19952000Y6401800D02*
X19952000Y7726800D01*
G75*
G02*
X20027000Y7801800I75000J0D01*
G01*
X20177000Y7801800D01*
G75*
G02*
X20252000Y7726800I0J-75000D01*
G01*
X20252000Y6401800D01*
G75*
G02*
X20177000Y6326800I-75000J0D01*
G01*
X20027000Y6326800D01*
G75*
G02*
X19952000Y6401800I0J75000D01*
G01*
G37*
%TD.AperFunction*%
%TO.P,STM32,13*%
%TO.N,SPI1-CSn*%
%TA.AperFunction,SMDPad,CuDef*%
G36*
G01*
X19452000Y6401800D02*
X19452000Y7726800D01*
G75*
G02*
X19527000Y7801800I75000J0D01*
G01*
X19677000Y7801800D01*
G75*
G02*
X19752000Y7726800I0J-75000D01*
G01*
X19752000Y6401800D01*
G75*
G02*
X19677000Y6326800I-75000J0D01*
G01*
X19527000Y6326800D01*
G75*
G02*
X19452000Y6401800I0J75000D01*
G01*
G37*
%TD.AperFunction*%
%TO.P,STM32,12*%
%TO.N,SPI1-CE*%
%TA.AperFunction,SMDPad,CuDef*%
G36*
G01*
X17452000Y8401800D02*
X17452000Y8551800D01*
G75*
G02*
X17527000Y8626800I75000J0D01*
G01*
X18852000Y8626800D01*
G75*
G02*
X18927000Y8551800I0J-75000D01*
G01*
X18927000Y8401800D01*
G75*
G02*
X18852000Y8326800I-75000J0D01*
G01*
X17527000Y8326800D01*
G75*
G02*
X17452000Y8401800I0J75000D01*
G01*
G37*
%TD.AperFunction*%
%TO.P,STM32,11*%
%TO.N,Net-(STM32-Pad11)*%
%TA.AperFunction,SMDPad,CuDef*%
G36*
G01*
X17452000Y8901800D02*
X17452000Y9051800D01*
G75*
G02*
X17527000Y9126800I75000J0D01*
G01*
X18852000Y9126800D01*
G75*
G02*
X18927000Y9051800I0J-75000D01*
G01*
X18927000Y8901800D01*
G75*
G02*
X18852000Y8826800I-75000J0D01*
G01*
X17527000Y8826800D01*
G75*
G02*
X17452000Y8901800I0J75000D01*
G01*
G37*
%TD.AperFunction*%
%TO.P,STM32,10*%
%TO.N,Net-(STM32-Pad10)*%
%TA.AperFunction,SMDPad,CuDef*%
G36*
G01*
X17452000Y9401800D02*
X17452000Y9551800D01*
G75*
G02*
X17527000Y9626800I75000J0D01*
G01*
X18852000Y9626800D01*
G75*
G02*
X18927000Y9551800I0J-75000D01*
G01*
X18927000Y9401800D01*
G75*
G02*
X18852000Y9326800I-75000J0D01*
G01*
X17527000Y9326800D01*
G75*
G02*
X17452000Y9401800I0J75000D01*
G01*
G37*
%TD.AperFunction*%
%TO.P,STM32,9*%
%TO.N,+3V3*%
%TA.AperFunction,SMDPad,CuDef*%
G36*
G01*
X17452000Y9901800D02*
X17452000Y10051800D01*
G75*
G02*
X17527000Y10126800I75000J0D01*
G01*
X18852000Y10126800D01*
G75*
G02*
X18927000Y10051800I0J-75000D01*
G01*
X18927000Y9901800D01*
G75*
G02*
X18852000Y9826800I-75000J0D01*
G01*
X17527000Y9826800D01*
G75*
G02*
X17452000Y9901800I0J75000D01*
G01*
G37*
%TD.AperFunction*%
%TO.P,STM32,8*%
%TO.N,SPI1-MISO*%
%TA.AperFunction,SMDPad,CuDef*%
G36*
G01*
X17452000Y10401800D02*
X17452000Y10551800D01*
G75*
G02*
X17527000Y10626800I75000J0D01*
G01*
X18852000Y10626800D01*
G75*
G02*
X18927000Y10551800I0J-75000D01*
G01*
X18927000Y10401800D01*
G75*
G02*
X18852000Y10326800I-75000J0D01*
G01*
X17527000Y10326800D01*
G75*
G02*
X17452000Y10401800I0J75000D01*
G01*
G37*
%TD.AperFunction*%
%TO.P,STM32,7*%
%TO.N,NRST*%
%TA.AperFunction,SMDPad,CuDef*%
G36*
G01*
X17452000Y10901800D02*
X17452000Y11051800D01*
G75*
G02*
X17527000Y11126800I75000J0D01*
G01*
X18852000Y11126800D01*
G75*
G02*
X18927000Y11051800I0J-75000D01*
G01*
X18927000Y10901800D01*
G75*
G02*
X18852000Y10826800I-75000J0D01*
G01*
X17527000Y10826800D01*
G75*
G02*
X17452000Y10901800I0J75000D01*
G01*
G37*
%TD.AperFunction*%
%TO.P,STM32,6*%
%TO.N,Net-(STM32-Pad6)*%
%TA.AperFunction,SMDPad,CuDef*%
G36*
G01*
X17452000Y11401800D02*
X17452000Y11551800D01*
G75*
G02*
X17527000Y11626800I75000J0D01*
G01*
X18852000Y11626800D01*
G75*
G02*
X18927000Y11551800I0J-75000D01*
G01*
X18927000Y11401800D01*
G75*
G02*
X18852000Y11326800I-75000J0D01*
G01*
X17527000Y11326800D01*
G75*
G02*
X17452000Y11401800I0J75000D01*
G01*
G37*
%TD.AperFunction*%
%TO.P,STM32,5*%
%TO.N,Net-(STM32-Pad5)*%
%TA.AperFunction,SMDPad,CuDef*%
G36*
G01*
X17452000Y11901800D02*
X17452000Y12051800D01*
G75*
G02*
X17527000Y12126800I75000J0D01*
G01*
X18852000Y12126800D01*
G75*
G02*
X18927000Y12051800I0J-75000D01*
G01*
X18927000Y11901800D01*
G75*
G02*
X18852000Y11826800I-75000J0D01*
G01*
X17527000Y11826800D01*
G75*
G02*
X17452000Y11901800I0J75000D01*
G01*
G37*
%TD.AperFunction*%
%TO.P,STM32,4*%
%TO.N,Net-(STM32-Pad4)*%
%TA.AperFunction,SMDPad,CuDef*%
G36*
G01*
X17452000Y12401800D02*
X17452000Y12551800D01*
G75*
G02*
X17527000Y12626800I75000J0D01*
G01*
X18852000Y12626800D01*
G75*
G02*
X18927000Y12551800I0J-75000D01*
G01*
X18927000Y12401800D01*
G75*
G02*
X18852000Y12326800I-75000J0D01*
G01*
X17527000Y12326800D01*
G75*
G02*
X17452000Y12401800I0J75000D01*
G01*
G37*
%TD.AperFunction*%
%TO.P,STM32,3*%
%TO.N,Net-(STM32-Pad3)*%
%TA.AperFunction,SMDPad,CuDef*%
G36*
G01*
X17452000Y12901800D02*
X17452000Y13051800D01*
G75*
G02*
X17527000Y13126800I75000J0D01*
G01*
X18852000Y13126800D01*
G75*
G02*
X18927000Y13051800I0J-75000D01*
G01*
X18927000Y12901800D01*
G75*
G02*
X18852000Y12826800I-75000J0D01*
G01*
X17527000Y12826800D01*
G75*
G02*
X17452000Y12901800I0J75000D01*
G01*
G37*
%TD.AperFunction*%
%TO.P,STM32,2*%
%TO.N,Net-(STM32-Pad2)*%
%TA.AperFunction,SMDPad,CuDef*%
G36*
G01*
X17452000Y13401800D02*
X17452000Y13551800D01*
G75*
G02*
X17527000Y13626800I75000J0D01*
G01*
X18852000Y13626800D01*
G75*
G02*
X18927000Y13551800I0J-75000D01*
G01*
X18927000Y13401800D01*
G75*
G02*
X18852000Y13326800I-75000J0D01*
G01*
X17527000Y13326800D01*
G75*
G02*
X17452000Y13401800I0J75000D01*
G01*
G37*
%TD.AperFunction*%
%TO.P,STM32,1*%
%TO.N,VBAT*%
%TA.AperFunction,SMDPad,CuDef*%
G36*
G01*
X17452000Y13901800D02*
X17452000Y14051800D01*
G75*
G02*
X17527000Y14126800I75000J0D01*
G01*
X18852000Y14126800D01*
G75*
G02*
X18927000Y14051800I0J-75000D01*
G01*
X18927000Y13901800D01*
G75*
G02*
X18852000Y13826800I-75000J0D01*
G01*
X17527000Y13826800D01*
G75*
G02*
X17452000Y13901800I0J75000D01*
G01*
G37*
%TD.AperFunction*%
%TD*%
D12*
%TO.P,3.3Vreg1,5*%
%TO.N,VBAT*%
X13292000Y13497600D03*
%TO.P,3.3Vreg1,4*%
%TO.N,Net-(3.3Vreg1-Pad4)*%
X13292000Y11597600D03*
%TO.P,3.3Vreg1,3*%
%TO.N,Net-(3.3Vreg1-Pad1)*%
X11092000Y11597600D03*
%TO.P,3.3Vreg1,2*%
%TO.N,SPI1-MISO*%
X11092000Y12547600D03*
%TO.P,3.3Vreg1,1*%
%TO.N,Net-(3.3Vreg1-Pad1)*%
X11092000Y13497600D03*
%TD*%
%TO.P,R6,2*%
%TO.N,SPI1-IRQ*%
%TA.AperFunction,SMDPad,CuDef*%
G36*
G01*
X18645200Y5903300D02*
X18845200Y5903300D01*
G75*
G02*
X18945200Y5803300I0J-100000D01*
G01*
X18945200Y5368300D01*
G75*
G02*
X18845200Y5268300I-100000J0D01*
G01*
X18645200Y5268300D01*
G75*
G02*
X18545200Y5368300I0J100000D01*
G01*
X18545200Y5803300D01*
G75*
G02*
X18645200Y5903300I100000J0D01*
G01*
G37*
%TD.AperFunction*%
%TO.P,R6,1*%
%TO.N,SPI1-MISO*%
%TA.AperFunction,SMDPad,CuDef*%
G36*
G01*
X18645200Y6718300D02*
X18845200Y6718300D01*
G75*
G02*
X18945200Y6618300I0J-100000D01*
G01*
X18945200Y6183300D01*
G75*
G02*
X18845200Y6083300I-100000J0D01*
G01*
X18645200Y6083300D01*
G75*
G02*
X18545200Y6183300I0J100000D01*
G01*
X18545200Y6618300D01*
G75*
G02*
X18645200Y6718300I100000J0D01*
G01*
G37*
%TD.AperFunction*%
%TD*%
D13*
%TO.P,J2,8*%
%TO.N,SPI1-IRQ*%
X13538200Y8890000D03*
%TO.P,J2,7*%
%TO.N,SPI1-MOSI*%
X13538200Y6350000D03*
%TO.P,J2,6*%
%TO.N,SPI1-CSn*%
X10998200Y8890000D03*
%TO.P,J2,5*%
%TO.N,+3V3*%
X10998200Y6350000D03*
%TO.P,J2,4*%
%TO.N,SPI1-MISO*%
X8458200Y8890000D03*
%TO.P,J2,3*%
%TO.N,SPI1-SCK*%
X8458200Y6350000D03*
%TO.P,J2,2*%
%TO.N,SPI1-CE*%
X5918200Y8890000D03*
D14*
%TO.P,J2,1*%
%TO.N,SPI1-MISO*%
X5918200Y6350000D03*
%TD*%
D13*
%TO.P,J1,5*%
%TO.N,PA14-SWCLK*%
X25069800Y18415000D03*
%TO.P,J1,4*%
%TO.N,PA13-SWDIO*%
X22529800Y18415000D03*
%TO.P,J1,3*%
%TO.N,NRST*%
X19989800Y18415000D03*
%TO.P,J1,2*%
%TO.N,SPI1-MISO*%
X17449800Y18415000D03*
D14*
%TO.P,J1,1*%
%TO.N,+3V3*%
X14909800Y18415000D03*
%TD*%
D10*
%TO.P,SG3,2*%
%TO.N,SDADC1-AIN8p*%
X33832800Y7320280D03*
D11*
%TO.P,SG3,1*%
%TO.N,+3V3*%
X33832800Y12400280D03*
%TD*%
%TO.P,R4,2*%
%TO.N,SPI1-MISO*%
%TA.AperFunction,SMDPad,CuDef*%
G36*
G01*
X26506000Y15902000D02*
X26506000Y16102000D01*
G75*
G02*
X26606000Y16202000I100000J0D01*
G01*
X27041000Y16202000D01*
G75*
G02*
X27141000Y16102000I0J-100000D01*
G01*
X27141000Y15902000D01*
G75*
G02*
X27041000Y15802000I-100000J0D01*
G01*
X26606000Y15802000D01*
G75*
G02*
X26506000Y15902000I0J100000D01*
G01*
G37*
%TD.AperFunction*%
%TO.P,R4,1*%
%TO.N,Net-(R4-Pad1)*%
%TA.AperFunction,SMDPad,CuDef*%
G36*
G01*
X25691000Y15902000D02*
X25691000Y16102000D01*
G75*
G02*
X25791000Y16202000I100000J0D01*
G01*
X26226000Y16202000D01*
G75*
G02*
X26326000Y16102000I0J-100000D01*
G01*
X26326000Y15902000D01*
G75*
G02*
X26226000Y15802000I-100000J0D01*
G01*
X25791000Y15802000D01*
G75*
G02*
X25691000Y15902000I0J100000D01*
G01*
G37*
%TD.AperFunction*%
%TD*%
%TO.P,C7,2*%
%TO.N,SPI1-MISO*%
%TA.AperFunction,SMDPad,CuDef*%
G36*
G01*
X16578600Y14746300D02*
X15628600Y14746300D01*
G75*
G02*
X15378600Y14996300I0J250000D01*
G01*
X15378600Y15671300D01*
G75*
G02*
X15628600Y15921300I250000J0D01*
G01*
X16578600Y15921300D01*
G75*
G02*
X16828600Y15671300I0J-250000D01*
G01*
X16828600Y14996300D01*
G75*
G02*
X16578600Y14746300I-250000J0D01*
G01*
G37*
%TD.AperFunction*%
%TO.P,C7,1*%
%TO.N,VBAT*%
%TA.AperFunction,SMDPad,CuDef*%
G36*
G01*
X16578600Y12671300D02*
X15628600Y12671300D01*
G75*
G02*
X15378600Y12921300I0J250000D01*
G01*
X15378600Y13596300D01*
G75*
G02*
X15628600Y13846300I250000J0D01*
G01*
X16578600Y13846300D01*
G75*
G02*
X16828600Y13596300I0J-250000D01*
G01*
X16828600Y12921300D01*
G75*
G02*
X16578600Y12671300I-250000J0D01*
G01*
G37*
%TD.AperFunction*%
%TD*%
%TO.P,R5,2*%
%TO.N,NRST*%
%TA.AperFunction,SMDPad,CuDef*%
G36*
G01*
X16356000Y11215200D02*
X16156000Y11215200D01*
G75*
G02*
X16056000Y11315200I0J100000D01*
G01*
X16056000Y11750200D01*
G75*
G02*
X16156000Y11850200I100000J0D01*
G01*
X16356000Y11850200D01*
G75*
G02*
X16456000Y11750200I0J-100000D01*
G01*
X16456000Y11315200D01*
G75*
G02*
X16356000Y11215200I-100000J0D01*
G01*
G37*
%TD.AperFunction*%
%TO.P,R5,1*%
%TO.N,+3V3*%
%TA.AperFunction,SMDPad,CuDef*%
G36*
G01*
X16356000Y10400200D02*
X16156000Y10400200D01*
G75*
G02*
X16056000Y10500200I0J100000D01*
G01*
X16056000Y10935200D01*
G75*
G02*
X16156000Y11035200I100000J0D01*
G01*
X16356000Y11035200D01*
G75*
G02*
X16456000Y10935200I0J-100000D01*
G01*
X16456000Y10500200D01*
G75*
G02*
X16356000Y10400200I-100000J0D01*
G01*
G37*
%TD.AperFunction*%
%TD*%
%TO.P,F1,2*%
%TO.N,Net-(BatCon1-Pad2)*%
%TA.AperFunction,SMDPad,CuDef*%
G36*
G01*
X5778200Y16195200D02*
X5778200Y14945200D01*
G75*
G02*
X5528200Y14695200I-250000J0D01*
G01*
X4603200Y14695200D01*
G75*
G02*
X4353200Y14945200I0J250000D01*
G01*
X4353200Y16195200D01*
G75*
G02*
X4603200Y16445200I250000J0D01*
G01*
X5528200Y16445200D01*
G75*
G02*
X5778200Y16195200I0J-250000D01*
G01*
G37*
%TD.AperFunction*%
%TO.P,F1,1*%
%TO.N,Net-(D1-Pad2)*%
%TA.AperFunction,SMDPad,CuDef*%
G36*
G01*
X8753200Y16195200D02*
X8753200Y14945200D01*
G75*
G02*
X8503200Y14695200I-250000J0D01*
G01*
X7578200Y14695200D01*
G75*
G02*
X7328200Y14945200I0J250000D01*
G01*
X7328200Y16195200D01*
G75*
G02*
X7578200Y16445200I250000J0D01*
G01*
X8503200Y16445200D01*
G75*
G02*
X8753200Y16195200I0J-250000D01*
G01*
G37*
%TD.AperFunction*%
%TD*%
D15*
%TO.P,D1,2*%
%TO.N,Net-(D1-Pad2)*%
X7724600Y17983200D03*
%TO.P,D1,1*%
%TO.N,Net-(3.3Vreg1-Pad1)*%
X4924600Y17983200D03*
%TD*%
%TO.P,C5,2*%
%TO.N,SPI1-MISO*%
%TA.AperFunction,SMDPad,CuDef*%
G36*
G01*
X33598700Y15219700D02*
X33598700Y14269700D01*
G75*
G02*
X33348700Y14019700I-250000J0D01*
G01*
X32673700Y14019700D01*
G75*
G02*
X32423700Y14269700I0J250000D01*
G01*
X32423700Y15219700D01*
G75*
G02*
X32673700Y15469700I250000J0D01*
G01*
X33348700Y15469700D01*
G75*
G02*
X33598700Y15219700I0J-250000D01*
G01*
G37*
%TD.AperFunction*%
%TO.P,C5,1*%
%TO.N,+3V3*%
%TA.AperFunction,SMDPad,CuDef*%
G36*
G01*
X35673700Y15219700D02*
X35673700Y14269700D01*
G75*
G02*
X35423700Y14019700I-250000J0D01*
G01*
X34748700Y14019700D01*
G75*
G02*
X34498700Y14269700I0J250000D01*
G01*
X34498700Y15219700D01*
G75*
G02*
X34748700Y15469700I250000J0D01*
G01*
X35423700Y15469700D01*
G75*
G02*
X35673700Y15219700I0J-250000D01*
G01*
G37*
%TD.AperFunction*%
%TD*%
%TO.P,C4,2*%
%TO.N,SPI1-MISO*%
%TA.AperFunction,SMDPad,CuDef*%
G36*
G01*
X33598700Y17315200D02*
X33598700Y16365200D01*
G75*
G02*
X33348700Y16115200I-250000J0D01*
G01*
X32673700Y16115200D01*
G75*
G02*
X32423700Y16365200I0J250000D01*
G01*
X32423700Y17315200D01*
G75*
G02*
X32673700Y17565200I250000J0D01*
G01*
X33348700Y17565200D01*
G75*
G02*
X33598700Y17315200I0J-250000D01*
G01*
G37*
%TD.AperFunction*%
%TO.P,C4,1*%
%TO.N,+3V3*%
%TA.AperFunction,SMDPad,CuDef*%
G36*
G01*
X35673700Y17315200D02*
X35673700Y16365200D01*
G75*
G02*
X35423700Y16115200I-250000J0D01*
G01*
X34748700Y16115200D01*
G75*
G02*
X34498700Y16365200I0J250000D01*
G01*
X34498700Y17315200D01*
G75*
G02*
X34748700Y17565200I250000J0D01*
G01*
X35423700Y17565200D01*
G75*
G02*
X35673700Y17315200I0J-250000D01*
G01*
G37*
%TD.AperFunction*%
%TD*%
D10*
%TO.P,SG2,2*%
%TO.N,SPI1-MISO*%
X31638240Y12415520D03*
D11*
%TO.P,SG2,1*%
%TO.N,SDADC-AIN8m*%
X31638240Y7335520D03*
%TD*%
D10*
%TO.P,SG1,2*%
%TO.N,SDADC-AIN8m*%
X29418280Y7350760D03*
D11*
%TO.P,SG1,1*%
%TO.N,+3V3*%
X29418280Y12430760D03*
%TD*%
%TO.P,C6,2*%
%TO.N,SPI1-MISO*%
%TA.AperFunction,SMDPad,CuDef*%
G36*
G01*
X9634200Y15882200D02*
X10584200Y15882200D01*
G75*
G02*
X10834200Y15632200I0J-250000D01*
G01*
X10834200Y14957200D01*
G75*
G02*
X10584200Y14707200I-250000J0D01*
G01*
X9634200Y14707200D01*
G75*
G02*
X9384200Y14957200I0J250000D01*
G01*
X9384200Y15632200D01*
G75*
G02*
X9634200Y15882200I250000J0D01*
G01*
G37*
%TD.AperFunction*%
%TO.P,C6,1*%
%TO.N,Net-(3.3Vreg1-Pad1)*%
%TA.AperFunction,SMDPad,CuDef*%
G36*
G01*
X9634200Y17957200D02*
X10584200Y17957200D01*
G75*
G02*
X10834200Y17707200I0J-250000D01*
G01*
X10834200Y17032200D01*
G75*
G02*
X10584200Y16782200I-250000J0D01*
G01*
X9634200Y16782200D01*
G75*
G02*
X9384200Y17032200I0J250000D01*
G01*
X9384200Y17707200D01*
G75*
G02*
X9634200Y17957200I250000J0D01*
G01*
G37*
%TD.AperFunction*%
%TD*%
%TO.P,C3,2*%
%TO.N,SPI1-MISO*%
%TA.AperFunction,SMDPad,CuDef*%
G36*
G01*
X30625200Y14269700D02*
X30625200Y15219700D01*
G75*
G02*
X30875200Y15469700I250000J0D01*
G01*
X31550200Y15469700D01*
G75*
G02*
X31800200Y15219700I0J-250000D01*
G01*
X31800200Y14269700D01*
G75*
G02*
X31550200Y14019700I-250000J0D01*
G01*
X30875200Y14019700D01*
G75*
G02*
X30625200Y14269700I0J250000D01*
G01*
G37*
%TD.AperFunction*%
%TO.P,C3,1*%
%TO.N,+3V3*%
%TA.AperFunction,SMDPad,CuDef*%
G36*
G01*
X28550200Y14269700D02*
X28550200Y15219700D01*
G75*
G02*
X28800200Y15469700I250000J0D01*
G01*
X29475200Y15469700D01*
G75*
G02*
X29725200Y15219700I0J-250000D01*
G01*
X29725200Y14269700D01*
G75*
G02*
X29475200Y14019700I-250000J0D01*
G01*
X28800200Y14019700D01*
G75*
G02*
X28550200Y14269700I0J250000D01*
G01*
G37*
%TD.AperFunction*%
%TD*%
%TO.P,C2,2*%
%TO.N,SPI1-MISO*%
%TA.AperFunction,SMDPad,CuDef*%
G36*
G01*
X30625200Y16365200D02*
X30625200Y17315200D01*
G75*
G02*
X30875200Y17565200I250000J0D01*
G01*
X31550200Y17565200D01*
G75*
G02*
X31800200Y17315200I0J-250000D01*
G01*
X31800200Y16365200D01*
G75*
G02*
X31550200Y16115200I-250000J0D01*
G01*
X30875200Y16115200D01*
G75*
G02*
X30625200Y16365200I0J250000D01*
G01*
G37*
%TD.AperFunction*%
%TO.P,C2,1*%
%TO.N,+3V3*%
%TA.AperFunction,SMDPad,CuDef*%
G36*
G01*
X28550200Y16365200D02*
X28550200Y17315200D01*
G75*
G02*
X28800200Y17565200I250000J0D01*
G01*
X29475200Y17565200D01*
G75*
G02*
X29725200Y17315200I0J-250000D01*
G01*
X29725200Y16365200D01*
G75*
G02*
X29475200Y16115200I-250000J0D01*
G01*
X28800200Y16115200D01*
G75*
G02*
X28550200Y16365200I0J250000D01*
G01*
G37*
%TD.AperFunction*%
%TD*%
%TO.P,C1,2*%
%TO.N,SPI1-MISO*%
%TA.AperFunction,SMDPad,CuDef*%
G36*
G01*
X30625200Y18460700D02*
X30625200Y19410700D01*
G75*
G02*
X30875200Y19660700I250000J0D01*
G01*
X31550200Y19660700D01*
G75*
G02*
X31800200Y19410700I0J-250000D01*
G01*
X31800200Y18460700D01*
G75*
G02*
X31550200Y18210700I-250000J0D01*
G01*
X30875200Y18210700D01*
G75*
G02*
X30625200Y18460700I0J250000D01*
G01*
G37*
%TD.AperFunction*%
%TO.P,C1,1*%
%TO.N,+3V3*%
%TA.AperFunction,SMDPad,CuDef*%
G36*
G01*
X28550200Y18460700D02*
X28550200Y19410700D01*
G75*
G02*
X28800200Y19660700I250000J0D01*
G01*
X29475200Y19660700D01*
G75*
G02*
X29725200Y19410700I0J-250000D01*
G01*
X29725200Y18460700D01*
G75*
G02*
X29475200Y18210700I-250000J0D01*
G01*
X28800200Y18210700D01*
G75*
G02*
X28550200Y18460700I0J250000D01*
G01*
G37*
%TD.AperFunction*%
%TD*%
D13*
%TO.P,BatCon1,2*%
%TO.N,Net-(BatCon1-Pad2)*%
X5867400Y12547600D03*
D14*
%TO.P,BatCon1,1*%
%TO.N,SPI1-MISO*%
X8407400Y12547600D03*
%TD*%
D16*
%TO.N,SPI1-MISO*%
X22860000Y8737600D03*
X22148800Y13741400D03*
X17373600Y6477000D03*
X32080200Y17856200D03*
X32143700Y15824200D03*
X5918200Y4876800D03*
X20370800Y11125200D03*
%TD*%
D17*
%TO.N,Net-(BatCon1-Pad2)*%
X5867400Y12547600D02*
X5867400Y14768500D01*
D18*
X5065700Y15570200D02*
X5065700Y15343200D01*
X5065700Y15343200D02*
X5600700Y14808200D01*
X5600700Y12814300D02*
X5867400Y12547600D01*
X5600700Y14808200D02*
X5600700Y12814300D01*
X5867400Y14768500D02*
X5867400Y15303500D01*
X5600700Y15570200D02*
X5065700Y15570200D01*
X5867400Y15303500D02*
X5600700Y15570200D01*
X5867400Y12547600D02*
X5867400Y12763500D01*
X5867400Y12763500D02*
X5410200Y13220700D01*
X5410200Y13220700D02*
X5410200Y14681200D01*
%TO.N,PA14-SWCLK*%
X25069800Y18415000D02*
X25102000Y18382800D01*
X26271881Y18415000D02*
X25069800Y18415000D01*
X27466010Y17220871D02*
X26271881Y18415000D01*
X27466010Y15725952D02*
X27466010Y17220871D01*
X27129358Y15389300D02*
X27466010Y15725952D01*
X25102000Y15389300D02*
X27129358Y15389300D01*
%TO.N,PA13-SWDIO*%
X27317702Y12976800D02*
X26514500Y12976800D01*
X27916020Y13575118D02*
X27317702Y12976800D01*
X27916020Y17407271D02*
X27916020Y13575118D01*
X25733290Y19590001D02*
X27916020Y17407271D01*
X23704801Y19590001D02*
X25733290Y19590001D01*
X22529800Y18415000D02*
X23704801Y19590001D01*
%TO.N,NRST*%
X18992702Y10976800D02*
X18189500Y10976800D01*
X19253200Y11237298D02*
X18992702Y10976800D01*
X19253200Y14216302D02*
X19253200Y11237298D01*
X18839102Y14630400D02*
X19253200Y14216302D01*
X18440400Y17424400D02*
X17983200Y16967200D01*
X18338800Y14630400D02*
X18839102Y14630400D01*
X17983200Y14986000D02*
X18338800Y14630400D01*
X18999200Y17424400D02*
X18440400Y17424400D01*
X17983200Y16967200D02*
X17983200Y14986000D01*
X19989800Y18415000D02*
X18999200Y17424400D01*
X16456000Y11532700D02*
X17011900Y10976800D01*
X17011900Y10976800D02*
X17276000Y10976800D01*
X16256000Y11532700D02*
X16456000Y11532700D01*
X18189500Y10976800D02*
X17276000Y10976800D01*
%TO.N,+3V3*%
X25102000Y7064300D02*
X26514500Y8476800D01*
X21602000Y7867502D02*
X21602000Y7064300D01*
X19492702Y9976800D02*
X21602000Y7867502D01*
X18189500Y9976800D02*
X19492702Y9976800D01*
X29290100Y12558940D02*
X29418280Y12430760D01*
X27317702Y8476800D02*
X26514500Y8476800D01*
X29418280Y10577378D02*
X27317702Y8476800D01*
X29418280Y12430760D02*
X29418280Y10577378D01*
X25102000Y7867502D02*
X25120600Y7886102D01*
X25102000Y7064300D02*
X25102000Y7867502D01*
X25120600Y7886102D02*
X25120600Y8483600D01*
X25120600Y8483600D02*
X24460200Y9144000D01*
X24460200Y9144000D02*
X24434800Y9144000D01*
X24434800Y9144000D02*
X23602000Y9976800D01*
X21432200Y9976800D02*
X19492702Y9976800D01*
X23602000Y9976800D02*
X21432200Y9976800D01*
X29137700Y18935700D02*
X29137700Y16840200D01*
X29137700Y16840200D02*
X29137700Y14744700D01*
X29137700Y12711340D02*
X29418280Y12430760D01*
X29137700Y14744700D02*
X29137700Y12711340D01*
X35086200Y13653680D02*
X33832800Y12400280D01*
X35086200Y14744700D02*
X35086200Y13653680D01*
X35086200Y16840200D02*
X35086200Y14744700D01*
%TO.N,Net-(D1-Pad2)*%
X8040700Y17667100D02*
X7724600Y17983200D01*
X8040700Y15570200D02*
X8040700Y17667100D01*
X8040700Y15570200D02*
X8040700Y16241700D01*
X8040700Y16241700D02*
X7823200Y16459200D01*
X7823200Y16459200D02*
X7823200Y17348200D01*
X7823200Y17348200D02*
X7632700Y17348200D01*
X7632700Y17348200D02*
X7632700Y16459200D01*
X7724600Y17983200D02*
X7724600Y17630600D01*
X7632700Y17538700D02*
X7632700Y17348200D01*
X7724600Y17630600D02*
X7632700Y17538700D01*
%TO.N,SDADC1-AIN8p*%
X36012120Y7320280D02*
X36017200Y7315200D01*
X34942780Y6113780D02*
X34942780Y7320280D01*
X33930772Y5101772D02*
X34942780Y6113780D01*
X24057428Y5101772D02*
X33930772Y5101772D01*
X23626990Y5532210D02*
X24057428Y5101772D01*
X23626990Y7039310D02*
X23626990Y5532210D01*
X23602000Y7064300D02*
X23626990Y7039310D01*
X34942780Y7320280D02*
X36012120Y7320280D01*
X33832800Y7320280D02*
X34942780Y7320280D01*
%TO.N,SPI1-IRQ*%
X20102000Y6261098D02*
X20102000Y7064300D01*
X19426702Y5585800D02*
X20102000Y6261098D01*
X18745200Y5585800D02*
X19426702Y5585800D01*
X15038800Y7975010D02*
X14453190Y7975010D01*
X15766210Y7247600D02*
X15038800Y7975010D01*
X14453190Y7975010D02*
X13538200Y8890000D01*
X15766210Y6587200D02*
X15766210Y7247600D01*
X16767610Y5585800D02*
X15766210Y6587200D01*
X18745200Y5585800D02*
X16767610Y5585800D01*
%TO.N,SPI1-MOSI*%
X22102000Y6261098D02*
X22102000Y7064300D01*
X20334184Y4493282D02*
X22102000Y6261098D01*
X15394918Y4493282D02*
X20334184Y4493282D01*
X13538200Y6350000D02*
X15394918Y4493282D01*
%TO.N,SPI1-CSn*%
X19599590Y7066710D02*
X19602000Y7064300D01*
X18130090Y7066710D02*
X19599590Y7066710D01*
X14986000Y10210800D02*
X18130090Y7066710D01*
X12319000Y10210800D02*
X14986000Y10210800D01*
X10998200Y8890000D02*
X12319000Y10210800D01*
%TO.N,SPI1-MISO*%
X31638240Y12415520D02*
X31638240Y11363960D01*
X31638240Y11363960D02*
X32283400Y10718800D01*
X24602000Y6211118D02*
X24602000Y7064300D01*
X24811328Y6001790D02*
X24602000Y6211118D01*
X26214459Y6001790D02*
X24811328Y6001790D01*
X31638240Y11425571D02*
X26214459Y6001790D01*
X31638240Y12415520D02*
X31638240Y11425571D01*
X24602000Y7867502D02*
X23731902Y8737600D01*
X24602000Y7064300D02*
X24602000Y7867502D01*
X23731902Y8737600D02*
X22860000Y8737600D01*
X22860000Y8737600D02*
X22860000Y8737600D01*
X20946698Y13741400D02*
X22148800Y13741400D01*
X20102000Y14586098D02*
X20946698Y13741400D01*
X20102000Y15389300D02*
X20102000Y14586098D01*
X8407400Y13592900D02*
X10109200Y15294700D01*
X8407400Y12547600D02*
X8407400Y13592900D01*
X8483600Y8890000D02*
X8458200Y8890000D01*
X18669000Y6477000D02*
X18745200Y6400800D01*
X5918200Y4876800D02*
X5918200Y4876800D01*
X5918200Y6350000D02*
X8458200Y8890000D01*
X17449800Y6400800D02*
X17373600Y6477000D01*
X18745200Y6400800D02*
X17449800Y6400800D01*
X32283400Y10718800D02*
X35610800Y10718800D01*
X36017200Y11125200D02*
X36017200Y12395200D01*
X35610800Y10718800D02*
X36017200Y11125200D01*
X31212700Y14744700D02*
X33011200Y14744700D01*
X31212700Y14744700D02*
X31212700Y16840200D01*
X31212700Y18935700D02*
X31212700Y16840200D01*
X31212700Y16840200D02*
X31212700Y16988700D01*
X31212700Y18723700D02*
X32080200Y17856200D01*
X31212700Y18935700D02*
X31212700Y18723700D01*
X33011200Y16925200D02*
X32080200Y17856200D01*
X33011200Y16840200D02*
X33011200Y16925200D01*
X33011200Y14956700D02*
X32143700Y15824200D01*
X33011200Y14744700D02*
X33011200Y14956700D01*
X31212700Y14744700D02*
X31212700Y14893200D01*
X31212700Y16755200D02*
X32143700Y15824200D01*
X31212700Y16840200D02*
X31212700Y16755200D01*
X33011200Y16691700D02*
X32143700Y15824200D01*
X33011200Y16840200D02*
X33011200Y16691700D01*
X5918200Y4876800D02*
X5918200Y5092700D01*
X5918200Y5092700D02*
X5727700Y5283200D01*
X5727700Y6159500D02*
X5918200Y6350000D01*
X5727700Y5283200D02*
X5727700Y6159500D01*
X6108700Y5067300D02*
X5918200Y4876800D01*
X6108700Y5410200D02*
X6108700Y5067300D01*
X17373600Y6477000D02*
X17716500Y6477000D01*
X17716500Y6477000D02*
X17856200Y6616700D01*
X17856200Y6616700D02*
X18491200Y6616700D01*
X31212700Y18935700D02*
X31212700Y18520500D01*
X31212700Y18520500D02*
X31597600Y18135600D01*
X31597600Y18135600D02*
X31597600Y17729200D01*
X31597600Y17729200D02*
X31496000Y17627600D01*
X31496000Y17627600D02*
X31496000Y17983200D01*
X31496000Y17983200D02*
X31343600Y18135600D01*
X31343600Y18135600D02*
X31343600Y17678400D01*
X31212700Y17344300D02*
X31597600Y17729200D01*
X31212700Y16840200D02*
X31212700Y17344300D01*
X31496000Y17881600D02*
X31800800Y17576800D01*
X31496000Y17983200D02*
X31496000Y17881600D01*
X31800800Y17576800D02*
X32080200Y17856200D01*
X31212700Y16988700D02*
X31800800Y17576800D01*
X31750000Y16052800D02*
X31750000Y15849600D01*
X31750000Y15849600D02*
X31597600Y15697200D01*
X31597600Y15697200D02*
X31807150Y15487650D01*
X31807150Y15487650D02*
X32143700Y15824200D01*
X31212700Y14893200D02*
X31807150Y15487650D01*
X31212700Y16840200D02*
X31212700Y16285300D01*
X31212700Y16285300D02*
X31394400Y16103600D01*
X31394400Y16103600D02*
X31394400Y15494000D01*
X31394400Y15494000D02*
X31597600Y15494000D01*
X31597600Y16103600D02*
X31648400Y16154400D01*
X31597600Y15494000D02*
X31597600Y16103600D01*
X31648400Y16154400D02*
X31750000Y16052800D01*
X32562800Y15646400D02*
X32715200Y15494000D01*
X32715200Y15494000D02*
X32715200Y15951200D01*
X33011200Y16501200D02*
X32562800Y16052800D01*
X32816800Y16052800D02*
X32867600Y16002000D01*
X33011200Y16840200D02*
X33011200Y16501200D01*
X32715200Y15951200D02*
X32816800Y16052800D01*
X32562800Y16052800D02*
X32562800Y15646400D01*
X32867600Y16002000D02*
X32969200Y16103600D01*
X33011200Y16061600D02*
X33011200Y14744700D01*
X32969200Y16103600D02*
X33011200Y16061600D01*
X33011200Y14744700D02*
X33011200Y15147200D01*
X33011200Y15147200D02*
X32867600Y15290800D01*
X32867600Y15290800D02*
X32867600Y15849600D01*
X31212700Y16840200D02*
X33011200Y16840200D01*
X5918200Y4876800D02*
X5918200Y4876800D01*
X16103600Y17068800D02*
X17449800Y18415000D01*
X16103600Y15333800D02*
X16103600Y17068800D01*
X17449800Y18415000D02*
X17449800Y18110200D01*
X17449800Y18110200D02*
X16306800Y16967200D01*
X16306800Y16967200D02*
X16306800Y15951200D01*
X20102000Y16192502D02*
X20102000Y15389300D01*
X20811318Y16901820D02*
X20102000Y16192502D01*
X26123680Y16901820D02*
X20811318Y16901820D01*
X26823500Y16202000D02*
X26123680Y16901820D01*
X26823500Y16002000D02*
X26823500Y16202000D01*
X10109200Y15294700D02*
X10109200Y15036800D01*
X10109200Y15036800D02*
X8585200Y13512800D01*
X8585200Y13258800D02*
X9296400Y12547600D01*
X8585200Y13512800D02*
X8585200Y13258800D01*
X9296400Y12547600D02*
X8407400Y12547600D01*
X11092000Y12547600D02*
X9296400Y12547600D01*
X11092000Y12547600D02*
X10820400Y12547600D01*
X10820400Y12547600D02*
X10617200Y12750800D01*
X10617200Y12750800D02*
X9347200Y12750800D01*
X9347200Y12750800D02*
X9347200Y12852400D01*
X8686800Y13512800D02*
X8585200Y13512800D01*
X9347200Y12852400D02*
X8686800Y13512800D01*
X18189500Y10476800D02*
X19722400Y10476800D01*
X19722400Y10476800D02*
X20370800Y11125200D01*
X20370800Y11125200D02*
X20370800Y11125200D01*
%TO.N,SPI1-SCK*%
X15316200Y7061200D02*
X14852399Y7525001D01*
X15316200Y6400800D02*
X15316200Y7061200D01*
X14852399Y7525001D02*
X9633201Y7525001D01*
X16773710Y4943290D02*
X15316200Y6400800D01*
X19420602Y4943290D02*
X16773710Y4943290D01*
X9633201Y7525001D02*
X8458200Y6350000D01*
X20602000Y6124688D02*
X19420602Y4943290D01*
X20602000Y7064300D02*
X20602000Y6124688D01*
%TO.N,SPI1-CE*%
X5918200Y8890000D02*
X7721600Y10693400D01*
X17375142Y8476800D02*
X18189500Y8476800D01*
X15158542Y10693400D02*
X17375142Y8476800D01*
X7721600Y10693400D02*
X15158542Y10693400D01*
%TO.N,SDADC-AIN8m*%
X29433520Y7335520D02*
X29418280Y7350760D01*
X24318619Y5551781D02*
X30062781Y5551781D01*
X24102000Y5768400D02*
X24318619Y5551781D01*
X24102000Y7064300D02*
X24102000Y5768400D01*
X30513020Y6002020D02*
X30513020Y7335520D01*
X30062781Y5551781D02*
X30513020Y6002020D01*
X30513020Y7335520D02*
X29433520Y7335520D01*
X31638240Y7335520D02*
X30513020Y7335520D01*
D17*
%TO.N,Net-(3.3Vreg1-Pad1)*%
X5765800Y19405600D02*
X9271000Y19405600D01*
X4924600Y18564400D02*
X5765800Y19405600D01*
D18*
X4924600Y17983200D02*
X4924600Y18564400D01*
D17*
X9271000Y19405600D02*
X10109200Y18567400D01*
X10109200Y18567400D02*
X10109200Y17369700D01*
D18*
X4924600Y17983200D02*
X4924600Y18341800D01*
X4924600Y18341800D02*
X4711700Y18554700D01*
X4711700Y18554700D02*
X4711700Y18618200D01*
X4711700Y18618200D02*
X5727700Y19634200D01*
X5727700Y19634200D02*
X9347200Y19634200D01*
X9347200Y19634200D02*
X10363200Y18618200D01*
X10363200Y17623700D02*
X10109200Y17369700D01*
X10109200Y17369700D02*
X10824300Y17369700D01*
X10824300Y17369700D02*
X11430000Y16764000D01*
X11430000Y16764000D02*
X11430000Y14427200D01*
X11092000Y14089200D02*
X11092000Y13497600D01*
X11430000Y14427200D02*
X11092000Y14089200D01*
X10363200Y18135600D02*
X10363200Y18186400D01*
X11633200Y14325600D02*
X11633200Y16865600D01*
X11328400Y14020800D02*
X11633200Y14325600D01*
X11328400Y13868400D02*
X11328400Y14020800D01*
X11092000Y13632000D02*
X11328400Y13868400D01*
X11633200Y16865600D02*
X10363200Y18135600D01*
X11092000Y13497600D02*
X11092000Y13632000D01*
X10363200Y18186400D02*
X10363200Y17623700D01*
X10363200Y18618200D02*
X10363200Y18186400D01*
X11092000Y13497600D02*
X11851600Y13497600D01*
X11851600Y13497600D02*
X12141200Y13208000D01*
X12141200Y13208000D02*
X12141200Y11988800D01*
X11750000Y11597600D02*
X11092000Y11597600D01*
X12141200Y11988800D02*
X11750000Y11597600D01*
X11092000Y11597600D02*
X11567200Y11597600D01*
X11567200Y11597600D02*
X11734800Y11430000D01*
X11734800Y11430000D02*
X11785600Y11430000D01*
X11785600Y11430000D02*
X12293600Y11938000D01*
X12293600Y11938000D02*
X12293600Y13258800D01*
X12293600Y13258800D02*
X11887200Y13665200D01*
X11887200Y13665200D02*
X11785600Y13665200D01*
X11785600Y13665200D02*
X11480800Y13970000D01*
X11480800Y13970000D02*
X11633200Y13817600D01*
X11633200Y13817600D02*
X11633200Y13614400D01*
%TO.N,Net-(R4-Pad1)*%
X21836610Y16451810D02*
X21602000Y16217200D01*
X25558690Y16451810D02*
X21836610Y16451810D01*
X21602000Y16217200D02*
X21602000Y15389300D01*
X26008500Y16002000D02*
X25558690Y16451810D01*
%TO.N,VBAT*%
X16796610Y13951810D02*
X17739490Y13951810D01*
X16103600Y13258800D02*
X16796610Y13951810D01*
X16103600Y13258800D02*
X16103600Y13563600D01*
X16103600Y13563600D02*
X16662400Y14122400D01*
X17570000Y13976800D02*
X17739490Y13976800D01*
X17424400Y14122400D02*
X17570000Y13976800D01*
X17739490Y13976800D02*
X17739490Y13951810D01*
X16662400Y14122400D02*
X17424400Y14122400D01*
X16357600Y13258800D02*
X16103600Y13258800D01*
X17221200Y14122400D02*
X16357600Y13258800D01*
X17881600Y14122400D02*
X17221200Y14122400D01*
X18027200Y13976800D02*
X17881600Y14122400D01*
X18189500Y13976800D02*
X18027200Y13976800D01*
X15864800Y13497600D02*
X16103600Y13258800D01*
X13292000Y13497600D02*
X15864800Y13497600D01*
X13292000Y13497600D02*
X13629600Y13497600D01*
X13629600Y13497600D02*
X13817600Y13309600D01*
X13817600Y13309600D02*
X15341600Y13309600D01*
X15341600Y13309600D02*
X15341600Y13665200D01*
X15341600Y13665200D02*
X13868400Y13665200D01*
%TO.N,+3V3*%
X19602000Y16328912D02*
X21285200Y18012112D01*
X19602000Y15389300D02*
X19602000Y16328912D01*
X21285200Y18012112D02*
X21285200Y19253200D01*
X16996900Y9976800D02*
X17139600Y9976800D01*
X16256000Y10717700D02*
X16996900Y9976800D01*
X17139600Y9976800D02*
X18189500Y9976800D01*
%TD*%
D19*
%TO.N,+3V3*%
X38498733Y20615315D02*
X38564657Y20595411D01*
X38625455Y20563085D01*
X38678819Y20519561D01*
X38722712Y20466504D01*
X38755466Y20405929D01*
X38775828Y20340147D01*
X38786201Y20241460D01*
X38786200Y3791481D01*
X38776315Y3690669D01*
X38756411Y3624742D01*
X38724085Y3563945D01*
X38680562Y3510582D01*
X38627500Y3466685D01*
X38566927Y3433934D01*
X38501147Y3413572D01*
X38402469Y3403200D01*
X3791481Y3403200D01*
X3690669Y3413085D01*
X3624742Y3432989D01*
X3563945Y3465315D01*
X3510582Y3508838D01*
X3466685Y3561900D01*
X3433934Y3622473D01*
X3413572Y3688253D01*
X3403200Y3786931D01*
X3403200Y16195200D01*
X3715128Y16195200D01*
X3715128Y14945200D01*
X3732192Y14771946D01*
X3782728Y14605350D01*
X3864795Y14451814D01*
X3975238Y14317238D01*
X4109814Y14206795D01*
X4263350Y14124728D01*
X4429946Y14074192D01*
X4603200Y14057128D01*
X4650201Y14057128D01*
X4650200Y13398861D01*
X4551410Y13251011D01*
X4439468Y12980758D01*
X4382400Y12693860D01*
X4382400Y12401340D01*
X4439468Y12114442D01*
X4551410Y11844189D01*
X4713925Y11600968D01*
X4920768Y11394125D01*
X5163989Y11231610D01*
X5434242Y11119668D01*
X5721140Y11062600D01*
X6013660Y11062600D01*
X6300558Y11119668D01*
X6570811Y11231610D01*
X6814032Y11394125D01*
X6945887Y11525980D01*
X6967898Y11453420D01*
X7026863Y11343106D01*
X7106215Y11246415D01*
X7157623Y11204225D01*
X6284608Y10331210D01*
X6064460Y10375000D01*
X5771940Y10375000D01*
X5485042Y10317932D01*
X5214789Y10205990D01*
X4971568Y10043475D01*
X4764725Y9836632D01*
X4602210Y9593411D01*
X4490268Y9323158D01*
X4433200Y9036260D01*
X4433200Y8743740D01*
X4490268Y8456842D01*
X4602210Y8186589D01*
X4764725Y7943368D01*
X4896580Y7811513D01*
X4824020Y7789502D01*
X4713706Y7730537D01*
X4617015Y7651185D01*
X4537663Y7554494D01*
X4478698Y7444180D01*
X4442388Y7324482D01*
X4430128Y7200000D01*
X4430128Y5500000D01*
X4442388Y5375518D01*
X4478698Y5255820D01*
X4537663Y5145506D01*
X4617015Y5048815D01*
X4713706Y4969463D01*
X4824020Y4910498D01*
X4883200Y4892546D01*
X4883200Y4774861D01*
X4922974Y4574902D01*
X5000995Y4386544D01*
X5114263Y4217026D01*
X5258426Y4072863D01*
X5427944Y3959595D01*
X5616302Y3881574D01*
X5816261Y3841800D01*
X6020139Y3841800D01*
X6220098Y3881574D01*
X6408456Y3959595D01*
X6577974Y4072863D01*
X6722137Y4217026D01*
X6835405Y4386544D01*
X6913426Y4574902D01*
X6953200Y4774861D01*
X6953200Y4892546D01*
X7012380Y4910498D01*
X7122694Y4969463D01*
X7219385Y5048815D01*
X7298737Y5145506D01*
X7357702Y5255820D01*
X7379713Y5328380D01*
X7511568Y5196525D01*
X7754789Y5034010D01*
X8025042Y4922068D01*
X8311940Y4865000D01*
X8604460Y4865000D01*
X8891358Y4922068D01*
X9161611Y5034010D01*
X9404832Y5196525D01*
X9611675Y5403368D01*
X9733395Y5585534D01*
X9803022Y5468645D01*
X9997931Y5252412D01*
X10231280Y5078359D01*
X10494101Y4953175D01*
X10641310Y4908524D01*
X10871200Y5029845D01*
X10871200Y6223000D01*
X10851200Y6223000D01*
X10851200Y6477000D01*
X10871200Y6477000D01*
X10871200Y6497000D01*
X11125200Y6497000D01*
X11125200Y6477000D01*
X11145200Y6477000D01*
X11145200Y6223000D01*
X11125200Y6223000D01*
X11125200Y5029845D01*
X11355090Y4908524D01*
X11502299Y4953175D01*
X11765120Y5078359D01*
X11998469Y5252412D01*
X12193378Y5468645D01*
X12263005Y5585534D01*
X12384725Y5403368D01*
X12591568Y5196525D01*
X12834789Y5034010D01*
X13105042Y4922068D01*
X13391940Y4865000D01*
X13684460Y4865000D01*
X13904608Y4908790D01*
X14831119Y3982279D01*
X14854917Y3953281D01*
X14970642Y3858308D01*
X15102671Y3787736D01*
X15245932Y3744279D01*
X15357585Y3733282D01*
X15357593Y3733282D01*
X15394918Y3729606D01*
X15432243Y3733282D01*
X20296862Y3733282D01*
X20334184Y3729606D01*
X20371506Y3733282D01*
X20371517Y3733282D01*
X20483170Y3744279D01*
X20626431Y3787736D01*
X20758460Y3858308D01*
X20874185Y3953281D01*
X20897988Y3982285D01*
X22604432Y5688728D01*
X22677000Y5688728D01*
X22816113Y5702429D01*
X22852000Y5713315D01*
X22866991Y5708768D01*
X22866991Y5569542D01*
X22863314Y5532210D01*
X22866991Y5494877D01*
X22877988Y5383224D01*
X22882965Y5366817D01*
X22921444Y5239964D01*
X22992016Y5107934D01*
X23052685Y5034010D01*
X23086990Y4992209D01*
X23115988Y4968411D01*
X23493624Y4590775D01*
X23517427Y4561771D01*
X23633152Y4466798D01*
X23765181Y4396226D01*
X23908442Y4352769D01*
X24020095Y4341772D01*
X24020104Y4341772D01*
X24057427Y4338096D01*
X24094750Y4341772D01*
X33893450Y4341772D01*
X33930772Y4338096D01*
X33968094Y4341772D01*
X33968105Y4341772D01*
X34079758Y4352769D01*
X34223019Y4396226D01*
X34355048Y4466798D01*
X34470773Y4561771D01*
X34494575Y4590774D01*
X35453789Y5549986D01*
X35482781Y5573779D01*
X35506575Y5602772D01*
X35506579Y5602776D01*
X35577753Y5689503D01*
X35577754Y5689504D01*
X35648326Y5821533D01*
X35691783Y5964794D01*
X35696998Y6017739D01*
X35885714Y5980200D01*
X36148686Y5980200D01*
X36406605Y6031504D01*
X36649559Y6132139D01*
X36868213Y6278238D01*
X37054162Y6464187D01*
X37200261Y6682841D01*
X37300896Y6925795D01*
X37352200Y7183714D01*
X37352200Y7446686D01*
X37300896Y7704605D01*
X37200261Y7947559D01*
X37054162Y8166213D01*
X36868213Y8352162D01*
X36649559Y8498261D01*
X36406605Y8598896D01*
X36148686Y8650200D01*
X35885714Y8650200D01*
X35627795Y8598896D01*
X35384841Y8498261D01*
X35166187Y8352162D01*
X34980238Y8166213D01*
X34926697Y8086083D01*
X34869762Y8171293D01*
X34683813Y8357242D01*
X34465159Y8503341D01*
X34222205Y8603976D01*
X33964286Y8655280D01*
X33701314Y8655280D01*
X33443395Y8603976D01*
X33200441Y8503341D01*
X32981787Y8357242D01*
X32795838Y8171293D01*
X32740611Y8088640D01*
X32675202Y8186533D01*
X32489253Y8372482D01*
X32270599Y8518581D01*
X32027645Y8619216D01*
X31769726Y8670520D01*
X31506754Y8670520D01*
X31248835Y8619216D01*
X31005881Y8518581D01*
X30787227Y8372482D01*
X30601278Y8186533D01*
X30541076Y8096434D01*
X30524539Y8098062D01*
X30455242Y8201773D01*
X30269293Y8387722D01*
X30050639Y8533821D01*
X29888466Y8600995D01*
X31607435Y10319964D01*
X31719600Y10207798D01*
X31743399Y10178799D01*
X31772397Y10155001D01*
X31859123Y10083826D01*
X31934614Y10043475D01*
X31991153Y10013254D01*
X32134414Y9969797D01*
X32246067Y9958800D01*
X32246076Y9958800D01*
X32283399Y9955124D01*
X32320722Y9958800D01*
X35573478Y9958800D01*
X35610800Y9955124D01*
X35648122Y9958800D01*
X35648133Y9958800D01*
X35759786Y9969797D01*
X35903047Y10013254D01*
X36035076Y10083826D01*
X36150801Y10178799D01*
X36174603Y10207802D01*
X36528203Y10561401D01*
X36557201Y10585199D01*
X36652174Y10700924D01*
X36722746Y10832953D01*
X36766203Y10976214D01*
X36777200Y11087867D01*
X36777200Y11087876D01*
X36780876Y11125199D01*
X36777200Y11162522D01*
X36777200Y11297425D01*
X36868213Y11358238D01*
X37054162Y11544187D01*
X37200261Y11762841D01*
X37300896Y12005795D01*
X37352200Y12263714D01*
X37352200Y12526686D01*
X37300896Y12784605D01*
X37200261Y13027559D01*
X37054162Y13246213D01*
X36868213Y13432162D01*
X36649559Y13578261D01*
X36406605Y13678896D01*
X36230300Y13713966D01*
X36263202Y13775520D01*
X36299512Y13895218D01*
X36311772Y14019700D01*
X36308700Y14458950D01*
X36149950Y14617700D01*
X35213200Y14617700D01*
X35213200Y13543450D01*
X35261082Y13495568D01*
X35166187Y13432162D01*
X34980238Y13246213D01*
X34887834Y13107920D01*
X34754069Y13141944D01*
X34012405Y12400280D01*
X34026548Y12386138D01*
X33846943Y12206533D01*
X33832800Y12220675D01*
X33818658Y12206533D01*
X33639053Y12386138D01*
X33653195Y12400280D01*
X32911531Y13141944D01*
X32780687Y13108663D01*
X32675202Y13266533D01*
X32547697Y13394038D01*
X32673700Y13381628D01*
X33106418Y13381628D01*
X33091136Y13321549D01*
X33832800Y12579885D01*
X34574464Y13321549D01*
X34559026Y13382242D01*
X34800450Y13384700D01*
X34959200Y13543450D01*
X34959200Y14617700D01*
X34939200Y14617700D01*
X34939200Y14871700D01*
X34959200Y14871700D01*
X34959200Y16713200D01*
X35213200Y16713200D01*
X35213200Y14871700D01*
X36149950Y14871700D01*
X36308700Y15030450D01*
X36311772Y15469700D01*
X36299512Y15594182D01*
X36263202Y15713880D01*
X36221205Y15792450D01*
X36263202Y15871020D01*
X36299512Y15990718D01*
X36311772Y16115200D01*
X36308700Y16554450D01*
X36149950Y16713200D01*
X35213200Y16713200D01*
X34959200Y16713200D01*
X34939200Y16713200D01*
X34939200Y16967200D01*
X34959200Y16967200D01*
X34959200Y18041450D01*
X35213200Y18041450D01*
X35213200Y16967200D01*
X36149950Y16967200D01*
X36308700Y17125950D01*
X36311772Y17565200D01*
X36299512Y17689682D01*
X36263202Y17809380D01*
X36204237Y17919694D01*
X36124885Y18016385D01*
X36028194Y18095737D01*
X35917880Y18154702D01*
X35798182Y18191012D01*
X35673700Y18203272D01*
X35371950Y18200200D01*
X35213200Y18041450D01*
X34959200Y18041450D01*
X34800450Y18200200D01*
X34498700Y18203272D01*
X34374218Y18191012D01*
X34254520Y18154702D01*
X34144206Y18095737D01*
X34047515Y18016385D01*
X33982042Y17936606D01*
X33976662Y17943162D01*
X33842086Y18053605D01*
X33688550Y18135672D01*
X33521954Y18186208D01*
X33348700Y18203272D01*
X33056714Y18203272D01*
X32997405Y18346456D01*
X32884137Y18515974D01*
X32739974Y18660137D01*
X32570456Y18773405D01*
X32438272Y18828158D01*
X32438272Y19410700D01*
X32421208Y19583954D01*
X32370672Y19750550D01*
X32288605Y19904086D01*
X32178162Y20038662D01*
X32043586Y20149105D01*
X31890050Y20231172D01*
X31723454Y20281708D01*
X31550200Y20298772D01*
X30875200Y20298772D01*
X30701946Y20281708D01*
X30535350Y20231172D01*
X30381814Y20149105D01*
X30247238Y20038662D01*
X30241858Y20032106D01*
X30176385Y20111885D01*
X30079694Y20191237D01*
X29969380Y20250202D01*
X29849682Y20286512D01*
X29725200Y20298772D01*
X29423450Y20295700D01*
X29264700Y20136950D01*
X29264700Y19062700D01*
X29284700Y19062700D01*
X29284700Y18808700D01*
X29264700Y18808700D01*
X29264700Y16967200D01*
X29284700Y16967200D01*
X29284700Y16713200D01*
X29264700Y16713200D01*
X29264700Y14871700D01*
X29284700Y14871700D01*
X29284700Y14617700D01*
X29264700Y14617700D01*
X29264700Y14597700D01*
X29010700Y14597700D01*
X29010700Y14617700D01*
X28990700Y14617700D01*
X28990700Y14871700D01*
X29010700Y14871700D01*
X29010700Y16713200D01*
X28990700Y16713200D01*
X28990700Y16967200D01*
X29010700Y16967200D01*
X29010700Y18808700D01*
X28073950Y18808700D01*
X27915200Y18649950D01*
X27914040Y18484053D01*
X26737393Y19660700D01*
X27912128Y19660700D01*
X27915200Y19221450D01*
X28073950Y19062700D01*
X29010700Y19062700D01*
X29010700Y20136950D01*
X28851950Y20295700D01*
X28550200Y20298772D01*
X28425718Y20286512D01*
X28306020Y20250202D01*
X28195706Y20191237D01*
X28099015Y20111885D01*
X28019663Y20015194D01*
X27960698Y19904880D01*
X27924388Y19785182D01*
X27912128Y19660700D01*
X26737393Y19660700D01*
X26297094Y20100998D01*
X26273291Y20130002D01*
X26157566Y20224975D01*
X26025537Y20295547D01*
X25882276Y20339004D01*
X25770623Y20350001D01*
X25770612Y20350001D01*
X25733290Y20353677D01*
X25695968Y20350001D01*
X23742123Y20350001D01*
X23704800Y20353677D01*
X23667477Y20350001D01*
X23667468Y20350001D01*
X23555815Y20339004D01*
X23412554Y20295547D01*
X23280525Y20224975D01*
X23164800Y20130002D01*
X23141002Y20101004D01*
X22896208Y19856210D01*
X22676060Y19900000D01*
X22383540Y19900000D01*
X22096642Y19842932D01*
X21826389Y19730990D01*
X21583168Y19568475D01*
X21376325Y19361632D01*
X21259800Y19187240D01*
X21143275Y19361632D01*
X20936432Y19568475D01*
X20693211Y19730990D01*
X20422958Y19842932D01*
X20136060Y19900000D01*
X19843540Y19900000D01*
X19556642Y19842932D01*
X19286389Y19730990D01*
X19043168Y19568475D01*
X18836325Y19361632D01*
X18719800Y19187240D01*
X18603275Y19361632D01*
X18396432Y19568475D01*
X18153211Y19730990D01*
X17882958Y19842932D01*
X17596060Y19900000D01*
X17303540Y19900000D01*
X17016642Y19842932D01*
X16746389Y19730990D01*
X16503168Y19568475D01*
X16371313Y19436620D01*
X16349302Y19509180D01*
X16290337Y19619494D01*
X16210985Y19716185D01*
X16114294Y19795537D01*
X16003980Y19854502D01*
X15884282Y19890812D01*
X15759800Y19903072D01*
X15195550Y19900000D01*
X15036800Y19741250D01*
X15036800Y18542000D01*
X15056800Y18542000D01*
X15056800Y18288000D01*
X15036800Y18288000D01*
X15036800Y17088750D01*
X15195550Y16930000D01*
X15343601Y16929194D01*
X15343601Y16508411D01*
X15288750Y16491772D01*
X15135214Y16409705D01*
X15000638Y16299262D01*
X14890195Y16164686D01*
X14808128Y16011150D01*
X14757592Y15844554D01*
X14740528Y15671300D01*
X14740528Y14996300D01*
X14757592Y14823046D01*
X14808128Y14656450D01*
X14890195Y14502914D01*
X14953973Y14425200D01*
X14023002Y14425200D01*
X13946482Y14448412D01*
X13822000Y14460672D01*
X12762000Y14460672D01*
X12637518Y14448412D01*
X12517820Y14412102D01*
X12407506Y14353137D01*
X12395162Y14343006D01*
X12393200Y14362922D01*
X12393200Y16828278D01*
X12396876Y16865601D01*
X12393200Y16902924D01*
X12393200Y16902933D01*
X12382203Y17014586D01*
X12338746Y17157847D01*
X12268174Y17289876D01*
X12173201Y17405601D01*
X12144203Y17429399D01*
X12008602Y17565000D01*
X13421728Y17565000D01*
X13433988Y17440518D01*
X13470298Y17320820D01*
X13529263Y17210506D01*
X13608615Y17113815D01*
X13705306Y17034463D01*
X13815620Y16975498D01*
X13935318Y16939188D01*
X14059800Y16926928D01*
X14624050Y16930000D01*
X14782800Y17088750D01*
X14782800Y18288000D01*
X13583550Y18288000D01*
X13424800Y18129250D01*
X13421728Y17565000D01*
X12008602Y17565000D01*
X11123200Y18450401D01*
X11123200Y18580878D01*
X11126876Y18618200D01*
X11123200Y18655523D01*
X11123200Y18655533D01*
X11112203Y18767186D01*
X11068746Y18910447D01*
X11055407Y18935403D01*
X10998174Y19042477D01*
X10926999Y19129203D01*
X10903201Y19158201D01*
X10874204Y19181998D01*
X10791202Y19265000D01*
X13421728Y19265000D01*
X13424800Y18700750D01*
X13583550Y18542000D01*
X14782800Y18542000D01*
X14782800Y19741250D01*
X14624050Y19900000D01*
X14059800Y19903072D01*
X13935318Y19890812D01*
X13815620Y19854502D01*
X13705306Y19795537D01*
X13608615Y19716185D01*
X13529263Y19619494D01*
X13470298Y19509180D01*
X13433988Y19389482D01*
X13421728Y19265000D01*
X10791202Y19265000D01*
X9911004Y20145198D01*
X9887201Y20174201D01*
X9771476Y20269174D01*
X9639447Y20339746D01*
X9496186Y20383203D01*
X9384533Y20394200D01*
X9384522Y20394200D01*
X9347200Y20397876D01*
X9309878Y20394200D01*
X5765022Y20394200D01*
X5727700Y20397876D01*
X5690377Y20394200D01*
X5690367Y20394200D01*
X5578714Y20383203D01*
X5435453Y20339746D01*
X5303423Y20269174D01*
X5258282Y20232127D01*
X5187699Y20174201D01*
X5163901Y20145203D01*
X4200701Y19182002D01*
X4171699Y19158201D01*
X4146592Y19127608D01*
X4130420Y19122702D01*
X4020106Y19063737D01*
X3923415Y18984385D01*
X3844063Y18887694D01*
X3785098Y18777380D01*
X3748788Y18657682D01*
X3736528Y18533200D01*
X3736528Y17433200D01*
X3748788Y17308718D01*
X3785098Y17189020D01*
X3844063Y17078706D01*
X3923415Y16982015D01*
X4020106Y16902663D01*
X4051599Y16885829D01*
X3975238Y16823162D01*
X3864795Y16688586D01*
X3782728Y16535050D01*
X3732192Y16368454D01*
X3715128Y16195200D01*
X3403200Y16195200D01*
X3403200Y20236919D01*
X3410932Y20315775D01*
X3759244Y20622290D01*
X3786930Y20625200D01*
X38397919Y20625200D01*
X38498733Y20615315D01*
%TA.AperFunction,Conductor*%
D20*
G36*
X38498733Y20615315D02*
G01*
X38564657Y20595411D01*
X38625455Y20563085D01*
X38678819Y20519561D01*
X38722712Y20466504D01*
X38755466Y20405929D01*
X38775828Y20340147D01*
X38786201Y20241460D01*
X38786200Y3791481D01*
X38776315Y3690669D01*
X38756411Y3624742D01*
X38724085Y3563945D01*
X38680562Y3510582D01*
X38627500Y3466685D01*
X38566927Y3433934D01*
X38501147Y3413572D01*
X38402469Y3403200D01*
X3791481Y3403200D01*
X3690669Y3413085D01*
X3624742Y3432989D01*
X3563945Y3465315D01*
X3510582Y3508838D01*
X3466685Y3561900D01*
X3433934Y3622473D01*
X3413572Y3688253D01*
X3403200Y3786931D01*
X3403200Y16195200D01*
X3715128Y16195200D01*
X3715128Y14945200D01*
X3732192Y14771946D01*
X3782728Y14605350D01*
X3864795Y14451814D01*
X3975238Y14317238D01*
X4109814Y14206795D01*
X4263350Y14124728D01*
X4429946Y14074192D01*
X4603200Y14057128D01*
X4650201Y14057128D01*
X4650200Y13398861D01*
X4551410Y13251011D01*
X4439468Y12980758D01*
X4382400Y12693860D01*
X4382400Y12401340D01*
X4439468Y12114442D01*
X4551410Y11844189D01*
X4713925Y11600968D01*
X4920768Y11394125D01*
X5163989Y11231610D01*
X5434242Y11119668D01*
X5721140Y11062600D01*
X6013660Y11062600D01*
X6300558Y11119668D01*
X6570811Y11231610D01*
X6814032Y11394125D01*
X6945887Y11525980D01*
X6967898Y11453420D01*
X7026863Y11343106D01*
X7106215Y11246415D01*
X7157623Y11204225D01*
X6284608Y10331210D01*
X6064460Y10375000D01*
X5771940Y10375000D01*
X5485042Y10317932D01*
X5214789Y10205990D01*
X4971568Y10043475D01*
X4764725Y9836632D01*
X4602210Y9593411D01*
X4490268Y9323158D01*
X4433200Y9036260D01*
X4433200Y8743740D01*
X4490268Y8456842D01*
X4602210Y8186589D01*
X4764725Y7943368D01*
X4896580Y7811513D01*
X4824020Y7789502D01*
X4713706Y7730537D01*
X4617015Y7651185D01*
X4537663Y7554494D01*
X4478698Y7444180D01*
X4442388Y7324482D01*
X4430128Y7200000D01*
X4430128Y5500000D01*
X4442388Y5375518D01*
X4478698Y5255820D01*
X4537663Y5145506D01*
X4617015Y5048815D01*
X4713706Y4969463D01*
X4824020Y4910498D01*
X4883200Y4892546D01*
X4883200Y4774861D01*
X4922974Y4574902D01*
X5000995Y4386544D01*
X5114263Y4217026D01*
X5258426Y4072863D01*
X5427944Y3959595D01*
X5616302Y3881574D01*
X5816261Y3841800D01*
X6020139Y3841800D01*
X6220098Y3881574D01*
X6408456Y3959595D01*
X6577974Y4072863D01*
X6722137Y4217026D01*
X6835405Y4386544D01*
X6913426Y4574902D01*
X6953200Y4774861D01*
X6953200Y4892546D01*
X7012380Y4910498D01*
X7122694Y4969463D01*
X7219385Y5048815D01*
X7298737Y5145506D01*
X7357702Y5255820D01*
X7379713Y5328380D01*
X7511568Y5196525D01*
X7754789Y5034010D01*
X8025042Y4922068D01*
X8311940Y4865000D01*
X8604460Y4865000D01*
X8891358Y4922068D01*
X9161611Y5034010D01*
X9404832Y5196525D01*
X9611675Y5403368D01*
X9733395Y5585534D01*
X9803022Y5468645D01*
X9997931Y5252412D01*
X10231280Y5078359D01*
X10494101Y4953175D01*
X10641310Y4908524D01*
X10871200Y5029845D01*
X10871200Y6223000D01*
X10851200Y6223000D01*
X10851200Y6477000D01*
X10871200Y6477000D01*
X10871200Y6497000D01*
X11125200Y6497000D01*
X11125200Y6477000D01*
X11145200Y6477000D01*
X11145200Y6223000D01*
X11125200Y6223000D01*
X11125200Y5029845D01*
X11355090Y4908524D01*
X11502299Y4953175D01*
X11765120Y5078359D01*
X11998469Y5252412D01*
X12193378Y5468645D01*
X12263005Y5585534D01*
X12384725Y5403368D01*
X12591568Y5196525D01*
X12834789Y5034010D01*
X13105042Y4922068D01*
X13391940Y4865000D01*
X13684460Y4865000D01*
X13904608Y4908790D01*
X14831119Y3982279D01*
X14854917Y3953281D01*
X14970642Y3858308D01*
X15102671Y3787736D01*
X15245932Y3744279D01*
X15357585Y3733282D01*
X15357593Y3733282D01*
X15394918Y3729606D01*
X15432243Y3733282D01*
X20296862Y3733282D01*
X20334184Y3729606D01*
X20371506Y3733282D01*
X20371517Y3733282D01*
X20483170Y3744279D01*
X20626431Y3787736D01*
X20758460Y3858308D01*
X20874185Y3953281D01*
X20897988Y3982285D01*
X22604432Y5688728D01*
X22677000Y5688728D01*
X22816113Y5702429D01*
X22852000Y5713315D01*
X22866991Y5708768D01*
X22866991Y5569542D01*
X22863314Y5532210D01*
X22866991Y5494877D01*
X22877988Y5383224D01*
X22882965Y5366817D01*
X22921444Y5239964D01*
X22992016Y5107934D01*
X23052685Y5034010D01*
X23086990Y4992209D01*
X23115988Y4968411D01*
X23493624Y4590775D01*
X23517427Y4561771D01*
X23633152Y4466798D01*
X23765181Y4396226D01*
X23908442Y4352769D01*
X24020095Y4341772D01*
X24020104Y4341772D01*
X24057427Y4338096D01*
X24094750Y4341772D01*
X33893450Y4341772D01*
X33930772Y4338096D01*
X33968094Y4341772D01*
X33968105Y4341772D01*
X34079758Y4352769D01*
X34223019Y4396226D01*
X34355048Y4466798D01*
X34470773Y4561771D01*
X34494575Y4590774D01*
X35453789Y5549986D01*
X35482781Y5573779D01*
X35506575Y5602772D01*
X35506579Y5602776D01*
X35577753Y5689503D01*
X35577754Y5689504D01*
X35648326Y5821533D01*
X35691783Y5964794D01*
X35696998Y6017739D01*
X35885714Y5980200D01*
X36148686Y5980200D01*
X36406605Y6031504D01*
X36649559Y6132139D01*
X36868213Y6278238D01*
X37054162Y6464187D01*
X37200261Y6682841D01*
X37300896Y6925795D01*
X37352200Y7183714D01*
X37352200Y7446686D01*
X37300896Y7704605D01*
X37200261Y7947559D01*
X37054162Y8166213D01*
X36868213Y8352162D01*
X36649559Y8498261D01*
X36406605Y8598896D01*
X36148686Y8650200D01*
X35885714Y8650200D01*
X35627795Y8598896D01*
X35384841Y8498261D01*
X35166187Y8352162D01*
X34980238Y8166213D01*
X34926697Y8086083D01*
X34869762Y8171293D01*
X34683813Y8357242D01*
X34465159Y8503341D01*
X34222205Y8603976D01*
X33964286Y8655280D01*
X33701314Y8655280D01*
X33443395Y8603976D01*
X33200441Y8503341D01*
X32981787Y8357242D01*
X32795838Y8171293D01*
X32740611Y8088640D01*
X32675202Y8186533D01*
X32489253Y8372482D01*
X32270599Y8518581D01*
X32027645Y8619216D01*
X31769726Y8670520D01*
X31506754Y8670520D01*
X31248835Y8619216D01*
X31005881Y8518581D01*
X30787227Y8372482D01*
X30601278Y8186533D01*
X30541076Y8096434D01*
X30524539Y8098062D01*
X30455242Y8201773D01*
X30269293Y8387722D01*
X30050639Y8533821D01*
X29888466Y8600995D01*
X31607435Y10319964D01*
X31719600Y10207798D01*
X31743399Y10178799D01*
X31772397Y10155001D01*
X31859123Y10083826D01*
X31934614Y10043475D01*
X31991153Y10013254D01*
X32134414Y9969797D01*
X32246067Y9958800D01*
X32246076Y9958800D01*
X32283399Y9955124D01*
X32320722Y9958800D01*
X35573478Y9958800D01*
X35610800Y9955124D01*
X35648122Y9958800D01*
X35648133Y9958800D01*
X35759786Y9969797D01*
X35903047Y10013254D01*
X36035076Y10083826D01*
X36150801Y10178799D01*
X36174603Y10207802D01*
X36528203Y10561401D01*
X36557201Y10585199D01*
X36652174Y10700924D01*
X36722746Y10832953D01*
X36766203Y10976214D01*
X36777200Y11087867D01*
X36777200Y11087876D01*
X36780876Y11125199D01*
X36777200Y11162522D01*
X36777200Y11297425D01*
X36868213Y11358238D01*
X37054162Y11544187D01*
X37200261Y11762841D01*
X37300896Y12005795D01*
X37352200Y12263714D01*
X37352200Y12526686D01*
X37300896Y12784605D01*
X37200261Y13027559D01*
X37054162Y13246213D01*
X36868213Y13432162D01*
X36649559Y13578261D01*
X36406605Y13678896D01*
X36230300Y13713966D01*
X36263202Y13775520D01*
X36299512Y13895218D01*
X36311772Y14019700D01*
X36308700Y14458950D01*
X36149950Y14617700D01*
X35213200Y14617700D01*
X35213200Y13543450D01*
X35261082Y13495568D01*
X35166187Y13432162D01*
X34980238Y13246213D01*
X34887834Y13107920D01*
X34754069Y13141944D01*
X34012405Y12400280D01*
X34026548Y12386138D01*
X33846943Y12206533D01*
X33832800Y12220675D01*
X33818658Y12206533D01*
X33639053Y12386138D01*
X33653195Y12400280D01*
X32911531Y13141944D01*
X32780687Y13108663D01*
X32675202Y13266533D01*
X32547697Y13394038D01*
X32673700Y13381628D01*
X33106418Y13381628D01*
X33091136Y13321549D01*
X33832800Y12579885D01*
X34574464Y13321549D01*
X34559026Y13382242D01*
X34800450Y13384700D01*
X34959200Y13543450D01*
X34959200Y14617700D01*
X34939200Y14617700D01*
X34939200Y14871700D01*
X34959200Y14871700D01*
X34959200Y16713200D01*
X35213200Y16713200D01*
X35213200Y14871700D01*
X36149950Y14871700D01*
X36308700Y15030450D01*
X36311772Y15469700D01*
X36299512Y15594182D01*
X36263202Y15713880D01*
X36221205Y15792450D01*
X36263202Y15871020D01*
X36299512Y15990718D01*
X36311772Y16115200D01*
X36308700Y16554450D01*
X36149950Y16713200D01*
X35213200Y16713200D01*
X34959200Y16713200D01*
X34939200Y16713200D01*
X34939200Y16967200D01*
X34959200Y16967200D01*
X34959200Y18041450D01*
X35213200Y18041450D01*
X35213200Y16967200D01*
X36149950Y16967200D01*
X36308700Y17125950D01*
X36311772Y17565200D01*
X36299512Y17689682D01*
X36263202Y17809380D01*
X36204237Y17919694D01*
X36124885Y18016385D01*
X36028194Y18095737D01*
X35917880Y18154702D01*
X35798182Y18191012D01*
X35673700Y18203272D01*
X35371950Y18200200D01*
X35213200Y18041450D01*
X34959200Y18041450D01*
X34800450Y18200200D01*
X34498700Y18203272D01*
X34374218Y18191012D01*
X34254520Y18154702D01*
X34144206Y18095737D01*
X34047515Y18016385D01*
X33982042Y17936606D01*
X33976662Y17943162D01*
X33842086Y18053605D01*
X33688550Y18135672D01*
X33521954Y18186208D01*
X33348700Y18203272D01*
X33056714Y18203272D01*
X32997405Y18346456D01*
X32884137Y18515974D01*
X32739974Y18660137D01*
X32570456Y18773405D01*
X32438272Y18828158D01*
X32438272Y19410700D01*
X32421208Y19583954D01*
X32370672Y19750550D01*
X32288605Y19904086D01*
X32178162Y20038662D01*
X32043586Y20149105D01*
X31890050Y20231172D01*
X31723454Y20281708D01*
X31550200Y20298772D01*
X30875200Y20298772D01*
X30701946Y20281708D01*
X30535350Y20231172D01*
X30381814Y20149105D01*
X30247238Y20038662D01*
X30241858Y20032106D01*
X30176385Y20111885D01*
X30079694Y20191237D01*
X29969380Y20250202D01*
X29849682Y20286512D01*
X29725200Y20298772D01*
X29423450Y20295700D01*
X29264700Y20136950D01*
X29264700Y19062700D01*
X29284700Y19062700D01*
X29284700Y18808700D01*
X29264700Y18808700D01*
X29264700Y16967200D01*
X29284700Y16967200D01*
X29284700Y16713200D01*
X29264700Y16713200D01*
X29264700Y14871700D01*
X29284700Y14871700D01*
X29284700Y14617700D01*
X29264700Y14617700D01*
X29264700Y14597700D01*
X29010700Y14597700D01*
X29010700Y14617700D01*
X28990700Y14617700D01*
X28990700Y14871700D01*
X29010700Y14871700D01*
X29010700Y16713200D01*
X28990700Y16713200D01*
X28990700Y16967200D01*
X29010700Y16967200D01*
X29010700Y18808700D01*
X28073950Y18808700D01*
X27915200Y18649950D01*
X27914040Y18484053D01*
X26737393Y19660700D01*
X27912128Y19660700D01*
X27915200Y19221450D01*
X28073950Y19062700D01*
X29010700Y19062700D01*
X29010700Y20136950D01*
X28851950Y20295700D01*
X28550200Y20298772D01*
X28425718Y20286512D01*
X28306020Y20250202D01*
X28195706Y20191237D01*
X28099015Y20111885D01*
X28019663Y20015194D01*
X27960698Y19904880D01*
X27924388Y19785182D01*
X27912128Y19660700D01*
X26737393Y19660700D01*
X26297094Y20100998D01*
X26273291Y20130002D01*
X26157566Y20224975D01*
X26025537Y20295547D01*
X25882276Y20339004D01*
X25770623Y20350001D01*
X25770612Y20350001D01*
X25733290Y20353677D01*
X25695968Y20350001D01*
X23742123Y20350001D01*
X23704800Y20353677D01*
X23667477Y20350001D01*
X23667468Y20350001D01*
X23555815Y20339004D01*
X23412554Y20295547D01*
X23280525Y20224975D01*
X23164800Y20130002D01*
X23141002Y20101004D01*
X22896208Y19856210D01*
X22676060Y19900000D01*
X22383540Y19900000D01*
X22096642Y19842932D01*
X21826389Y19730990D01*
X21583168Y19568475D01*
X21376325Y19361632D01*
X21259800Y19187240D01*
X21143275Y19361632D01*
X20936432Y19568475D01*
X20693211Y19730990D01*
X20422958Y19842932D01*
X20136060Y19900000D01*
X19843540Y19900000D01*
X19556642Y19842932D01*
X19286389Y19730990D01*
X19043168Y19568475D01*
X18836325Y19361632D01*
X18719800Y19187240D01*
X18603275Y19361632D01*
X18396432Y19568475D01*
X18153211Y19730990D01*
X17882958Y19842932D01*
X17596060Y19900000D01*
X17303540Y19900000D01*
X17016642Y19842932D01*
X16746389Y19730990D01*
X16503168Y19568475D01*
X16371313Y19436620D01*
X16349302Y19509180D01*
X16290337Y19619494D01*
X16210985Y19716185D01*
X16114294Y19795537D01*
X16003980Y19854502D01*
X15884282Y19890812D01*
X15759800Y19903072D01*
X15195550Y19900000D01*
X15036800Y19741250D01*
X15036800Y18542000D01*
X15056800Y18542000D01*
X15056800Y18288000D01*
X15036800Y18288000D01*
X15036800Y17088750D01*
X15195550Y16930000D01*
X15343601Y16929194D01*
X15343601Y16508411D01*
X15288750Y16491772D01*
X15135214Y16409705D01*
X15000638Y16299262D01*
X14890195Y16164686D01*
X14808128Y16011150D01*
X14757592Y15844554D01*
X14740528Y15671300D01*
X14740528Y14996300D01*
X14757592Y14823046D01*
X14808128Y14656450D01*
X14890195Y14502914D01*
X14953973Y14425200D01*
X14023002Y14425200D01*
X13946482Y14448412D01*
X13822000Y14460672D01*
X12762000Y14460672D01*
X12637518Y14448412D01*
X12517820Y14412102D01*
X12407506Y14353137D01*
X12395162Y14343006D01*
X12393200Y14362922D01*
X12393200Y16828278D01*
X12396876Y16865601D01*
X12393200Y16902924D01*
X12393200Y16902933D01*
X12382203Y17014586D01*
X12338746Y17157847D01*
X12268174Y17289876D01*
X12173201Y17405601D01*
X12144203Y17429399D01*
X12008602Y17565000D01*
X13421728Y17565000D01*
X13433988Y17440518D01*
X13470298Y17320820D01*
X13529263Y17210506D01*
X13608615Y17113815D01*
X13705306Y17034463D01*
X13815620Y16975498D01*
X13935318Y16939188D01*
X14059800Y16926928D01*
X14624050Y16930000D01*
X14782800Y17088750D01*
X14782800Y18288000D01*
X13583550Y18288000D01*
X13424800Y18129250D01*
X13421728Y17565000D01*
X12008602Y17565000D01*
X11123200Y18450401D01*
X11123200Y18580878D01*
X11126876Y18618200D01*
X11123200Y18655523D01*
X11123200Y18655533D01*
X11112203Y18767186D01*
X11068746Y18910447D01*
X11055407Y18935403D01*
X10998174Y19042477D01*
X10926999Y19129203D01*
X10903201Y19158201D01*
X10874204Y19181998D01*
X10791202Y19265000D01*
X13421728Y19265000D01*
X13424800Y18700750D01*
X13583550Y18542000D01*
X14782800Y18542000D01*
X14782800Y19741250D01*
X14624050Y19900000D01*
X14059800Y19903072D01*
X13935318Y19890812D01*
X13815620Y19854502D01*
X13705306Y19795537D01*
X13608615Y19716185D01*
X13529263Y19619494D01*
X13470298Y19509180D01*
X13433988Y19389482D01*
X13421728Y19265000D01*
X10791202Y19265000D01*
X9911004Y20145198D01*
X9887201Y20174201D01*
X9771476Y20269174D01*
X9639447Y20339746D01*
X9496186Y20383203D01*
X9384533Y20394200D01*
X9384522Y20394200D01*
X9347200Y20397876D01*
X9309878Y20394200D01*
X5765022Y20394200D01*
X5727700Y20397876D01*
X5690377Y20394200D01*
X5690367Y20394200D01*
X5578714Y20383203D01*
X5435453Y20339746D01*
X5303423Y20269174D01*
X5258282Y20232127D01*
X5187699Y20174201D01*
X5163901Y20145203D01*
X4200701Y19182002D01*
X4171699Y19158201D01*
X4146592Y19127608D01*
X4130420Y19122702D01*
X4020106Y19063737D01*
X3923415Y18984385D01*
X3844063Y18887694D01*
X3785098Y18777380D01*
X3748788Y18657682D01*
X3736528Y18533200D01*
X3736528Y17433200D01*
X3748788Y17308718D01*
X3785098Y17189020D01*
X3844063Y17078706D01*
X3923415Y16982015D01*
X4020106Y16902663D01*
X4051599Y16885829D01*
X3975238Y16823162D01*
X3864795Y16688586D01*
X3782728Y16535050D01*
X3732192Y16368454D01*
X3715128Y16195200D01*
X3403200Y16195200D01*
X3403200Y20236919D01*
X3410932Y20315775D01*
X3759244Y20622290D01*
X3786930Y20625200D01*
X38397919Y20625200D01*
X38498733Y20615315D01*
G37*
%TD.AperFunction*%
D19*
X24887887Y14027429D02*
X25027000Y14013728D01*
X25138928Y14013728D01*
X25138928Y13901800D01*
X25152629Y13762687D01*
X25163515Y13726800D01*
X25152629Y13690913D01*
X25138928Y13551800D01*
X25138928Y13401800D01*
X25152629Y13262687D01*
X25163515Y13226800D01*
X25152629Y13190913D01*
X25138928Y13051800D01*
X25138928Y12901800D01*
X25152629Y12762687D01*
X25163515Y12726800D01*
X25152629Y12690913D01*
X25138928Y12551800D01*
X25138928Y12401800D01*
X25152629Y12262687D01*
X25163515Y12226800D01*
X25152629Y12190913D01*
X25138928Y12051800D01*
X25138928Y11901800D01*
X25152629Y11762687D01*
X25163515Y11726800D01*
X25152629Y11690913D01*
X25138928Y11551800D01*
X25138928Y11401800D01*
X25152629Y11262687D01*
X25163515Y11226800D01*
X25152629Y11190913D01*
X25138928Y11051800D01*
X25138928Y10901800D01*
X25152629Y10762687D01*
X25163515Y10726800D01*
X25152629Y10690913D01*
X25138928Y10551800D01*
X25138928Y10401800D01*
X25152629Y10262687D01*
X25163515Y10226800D01*
X25152629Y10190913D01*
X25138928Y10051800D01*
X25138928Y9901800D01*
X25152629Y9762687D01*
X25163515Y9726800D01*
X25152629Y9690913D01*
X25138928Y9551800D01*
X25138928Y9401800D01*
X25152629Y9262687D01*
X25163515Y9226800D01*
X25152629Y9190913D01*
X25138928Y9051800D01*
X25138928Y8901800D01*
X25152629Y8762687D01*
X25153186Y8760851D01*
X25153132Y8760683D01*
X25142000Y8658550D01*
X25217982Y8582568D01*
X25259102Y8505638D01*
X25301645Y8453800D01*
X25300750Y8453800D01*
X25229002Y8382052D01*
X25229002Y8436800D01*
X25107505Y8436800D01*
X24295705Y9248598D01*
X24271903Y9277601D01*
X24156178Y9372574D01*
X24024149Y9443146D01*
X23880888Y9486603D01*
X23769235Y9497600D01*
X23769224Y9497600D01*
X23731902Y9501276D01*
X23694580Y9497600D01*
X23563711Y9497600D01*
X23519774Y9541537D01*
X23350256Y9654805D01*
X23161898Y9732826D01*
X22961939Y9772600D01*
X22758061Y9772600D01*
X22558102Y9732826D01*
X22369744Y9654805D01*
X22200226Y9541537D01*
X22056063Y9397374D01*
X21942795Y9227856D01*
X21864774Y9039498D01*
X21825000Y8839539D01*
X21825000Y8635661D01*
X21864774Y8435702D01*
X21868129Y8427603D01*
X21783750Y8436800D01*
X21707768Y8360818D01*
X21630838Y8319698D01*
X21602000Y8296031D01*
X21573162Y8319698D01*
X21496232Y8360818D01*
X21420250Y8436800D01*
X21318117Y8425668D01*
X21317949Y8425614D01*
X21316113Y8426171D01*
X21177000Y8439872D01*
X21027000Y8439872D01*
X20887887Y8426171D01*
X20852000Y8415285D01*
X20816113Y8426171D01*
X20677000Y8439872D01*
X20527000Y8439872D01*
X20387887Y8426171D01*
X20352000Y8415285D01*
X20316113Y8426171D01*
X20177000Y8439872D01*
X20027000Y8439872D01*
X19887887Y8426171D01*
X19852000Y8415285D01*
X19816113Y8426171D01*
X19677000Y8439872D01*
X19565072Y8439872D01*
X19565072Y8551800D01*
X19551371Y8690913D01*
X19540485Y8726800D01*
X19551371Y8762687D01*
X19565072Y8901800D01*
X19565072Y9051800D01*
X19551371Y9190913D01*
X19540485Y9226800D01*
X19551371Y9262687D01*
X19565072Y9401800D01*
X19565072Y9551800D01*
X19551371Y9690913D01*
X19550814Y9692749D01*
X19550868Y9692917D01*
X19553471Y9716800D01*
X19685078Y9716800D01*
X19722400Y9713124D01*
X19759722Y9716800D01*
X19759733Y9716800D01*
X19871386Y9727797D01*
X20014647Y9771254D01*
X20146676Y9841826D01*
X20262401Y9936799D01*
X20286203Y9965802D01*
X20410601Y10090200D01*
X20472739Y10090200D01*
X20672698Y10129974D01*
X20861056Y10207995D01*
X21030574Y10321263D01*
X21174737Y10465426D01*
X21288005Y10634944D01*
X21366026Y10823302D01*
X21405800Y11023261D01*
X21405800Y11227139D01*
X21366026Y11427098D01*
X21288005Y11615456D01*
X21174737Y11784974D01*
X21030574Y11929137D01*
X20861056Y12042405D01*
X20672698Y12120426D01*
X20472739Y12160200D01*
X20268861Y12160200D01*
X20068902Y12120426D01*
X20013200Y12097353D01*
X20013200Y13600096D01*
X20382899Y13230397D01*
X20406697Y13201399D01*
X20522422Y13106426D01*
X20654451Y13035854D01*
X20797712Y12992397D01*
X20909365Y12981400D01*
X20909374Y12981400D01*
X20946697Y12977724D01*
X20984020Y12981400D01*
X21445089Y12981400D01*
X21489026Y12937463D01*
X21658544Y12824195D01*
X21846902Y12746174D01*
X22046861Y12706400D01*
X22250739Y12706400D01*
X22450698Y12746174D01*
X22639056Y12824195D01*
X22808574Y12937463D01*
X22952737Y13081626D01*
X23066005Y13251144D01*
X23144026Y13439502D01*
X23183800Y13639461D01*
X23183800Y13843339D01*
X23149908Y14013728D01*
X23177000Y14013728D01*
X23316113Y14027429D01*
X23352000Y14038315D01*
X23387887Y14027429D01*
X23527000Y14013728D01*
X23677000Y14013728D01*
X23816113Y14027429D01*
X23852000Y14038315D01*
X23887887Y14027429D01*
X24027000Y14013728D01*
X24177000Y14013728D01*
X24316113Y14027429D01*
X24352000Y14038315D01*
X24387887Y14027429D01*
X24527000Y14013728D01*
X24677000Y14013728D01*
X24816113Y14027429D01*
X24852000Y14038315D01*
X24887887Y14027429D01*
%TA.AperFunction,Conductor*%
D20*
G36*
X24887887Y14027429D02*
G01*
X25027000Y14013728D01*
X25138928Y14013728D01*
X25138928Y13901800D01*
X25152629Y13762687D01*
X25163515Y13726800D01*
X25152629Y13690913D01*
X25138928Y13551800D01*
X25138928Y13401800D01*
X25152629Y13262687D01*
X25163515Y13226800D01*
X25152629Y13190913D01*
X25138928Y13051800D01*
X25138928Y12901800D01*
X25152629Y12762687D01*
X25163515Y12726800D01*
X25152629Y12690913D01*
X25138928Y12551800D01*
X25138928Y12401800D01*
X25152629Y12262687D01*
X25163515Y12226800D01*
X25152629Y12190913D01*
X25138928Y12051800D01*
X25138928Y11901800D01*
X25152629Y11762687D01*
X25163515Y11726800D01*
X25152629Y11690913D01*
X25138928Y11551800D01*
X25138928Y11401800D01*
X25152629Y11262687D01*
X25163515Y11226800D01*
X25152629Y11190913D01*
X25138928Y11051800D01*
X25138928Y10901800D01*
X25152629Y10762687D01*
X25163515Y10726800D01*
X25152629Y10690913D01*
X25138928Y10551800D01*
X25138928Y10401800D01*
X25152629Y10262687D01*
X25163515Y10226800D01*
X25152629Y10190913D01*
X25138928Y10051800D01*
X25138928Y9901800D01*
X25152629Y9762687D01*
X25163515Y9726800D01*
X25152629Y9690913D01*
X25138928Y9551800D01*
X25138928Y9401800D01*
X25152629Y9262687D01*
X25163515Y9226800D01*
X25152629Y9190913D01*
X25138928Y9051800D01*
X25138928Y8901800D01*
X25152629Y8762687D01*
X25153186Y8760851D01*
X25153132Y8760683D01*
X25142000Y8658550D01*
X25217982Y8582568D01*
X25259102Y8505638D01*
X25301645Y8453800D01*
X25300750Y8453800D01*
X25229002Y8382052D01*
X25229002Y8436800D01*
X25107505Y8436800D01*
X24295705Y9248598D01*
X24271903Y9277601D01*
X24156178Y9372574D01*
X24024149Y9443146D01*
X23880888Y9486603D01*
X23769235Y9497600D01*
X23769224Y9497600D01*
X23731902Y9501276D01*
X23694580Y9497600D01*
X23563711Y9497600D01*
X23519774Y9541537D01*
X23350256Y9654805D01*
X23161898Y9732826D01*
X22961939Y9772600D01*
X22758061Y9772600D01*
X22558102Y9732826D01*
X22369744Y9654805D01*
X22200226Y9541537D01*
X22056063Y9397374D01*
X21942795Y9227856D01*
X21864774Y9039498D01*
X21825000Y8839539D01*
X21825000Y8635661D01*
X21864774Y8435702D01*
X21868129Y8427603D01*
X21783750Y8436800D01*
X21707768Y8360818D01*
X21630838Y8319698D01*
X21602000Y8296031D01*
X21573162Y8319698D01*
X21496232Y8360818D01*
X21420250Y8436800D01*
X21318117Y8425668D01*
X21317949Y8425614D01*
X21316113Y8426171D01*
X21177000Y8439872D01*
X21027000Y8439872D01*
X20887887Y8426171D01*
X20852000Y8415285D01*
X20816113Y8426171D01*
X20677000Y8439872D01*
X20527000Y8439872D01*
X20387887Y8426171D01*
X20352000Y8415285D01*
X20316113Y8426171D01*
X20177000Y8439872D01*
X20027000Y8439872D01*
X19887887Y8426171D01*
X19852000Y8415285D01*
X19816113Y8426171D01*
X19677000Y8439872D01*
X19565072Y8439872D01*
X19565072Y8551800D01*
X19551371Y8690913D01*
X19540485Y8726800D01*
X19551371Y8762687D01*
X19565072Y8901800D01*
X19565072Y9051800D01*
X19551371Y9190913D01*
X19540485Y9226800D01*
X19551371Y9262687D01*
X19565072Y9401800D01*
X19565072Y9551800D01*
X19551371Y9690913D01*
X19550814Y9692749D01*
X19550868Y9692917D01*
X19553471Y9716800D01*
X19685078Y9716800D01*
X19722400Y9713124D01*
X19759722Y9716800D01*
X19759733Y9716800D01*
X19871386Y9727797D01*
X20014647Y9771254D01*
X20146676Y9841826D01*
X20262401Y9936799D01*
X20286203Y9965802D01*
X20410601Y10090200D01*
X20472739Y10090200D01*
X20672698Y10129974D01*
X20861056Y10207995D01*
X21030574Y10321263D01*
X21174737Y10465426D01*
X21288005Y10634944D01*
X21366026Y10823302D01*
X21405800Y11023261D01*
X21405800Y11227139D01*
X21366026Y11427098D01*
X21288005Y11615456D01*
X21174737Y11784974D01*
X21030574Y11929137D01*
X20861056Y12042405D01*
X20672698Y12120426D01*
X20472739Y12160200D01*
X20268861Y12160200D01*
X20068902Y12120426D01*
X20013200Y12097353D01*
X20013200Y13600096D01*
X20382899Y13230397D01*
X20406697Y13201399D01*
X20522422Y13106426D01*
X20654451Y13035854D01*
X20797712Y12992397D01*
X20909365Y12981400D01*
X20909374Y12981400D01*
X20946697Y12977724D01*
X20984020Y12981400D01*
X21445089Y12981400D01*
X21489026Y12937463D01*
X21658544Y12824195D01*
X21846902Y12746174D01*
X22046861Y12706400D01*
X22250739Y12706400D01*
X22450698Y12746174D01*
X22639056Y12824195D01*
X22808574Y12937463D01*
X22952737Y13081626D01*
X23066005Y13251144D01*
X23144026Y13439502D01*
X23183800Y13639461D01*
X23183800Y13843339D01*
X23149908Y14013728D01*
X23177000Y14013728D01*
X23316113Y14027429D01*
X23352000Y14038315D01*
X23387887Y14027429D01*
X23527000Y14013728D01*
X23677000Y14013728D01*
X23816113Y14027429D01*
X23852000Y14038315D01*
X23887887Y14027429D01*
X24027000Y14013728D01*
X24177000Y14013728D01*
X24316113Y14027429D01*
X24352000Y14038315D01*
X24387887Y14027429D01*
X24527000Y14013728D01*
X24677000Y14013728D01*
X24816113Y14027429D01*
X24852000Y14038315D01*
X24887887Y14027429D01*
G37*
%TD.AperFunction*%
D19*
X30247238Y13641738D02*
X30381814Y13531295D01*
X30535350Y13449228D01*
X30701946Y13398692D01*
X30730614Y13395869D01*
X30601278Y13266533D01*
X30509511Y13129193D01*
X30339549Y13172424D01*
X29597885Y12430760D01*
X30339549Y11689096D01*
X30492103Y11727900D01*
X30601278Y11564507D01*
X30651826Y11513959D01*
X27878097Y8740230D01*
X27875868Y8760683D01*
X27875814Y8760851D01*
X27876371Y8762687D01*
X27890072Y8901800D01*
X27890072Y9051800D01*
X27876371Y9190913D01*
X27865485Y9226800D01*
X27876371Y9262687D01*
X27890072Y9401800D01*
X27890072Y9551800D01*
X27876371Y9690913D01*
X27865485Y9726800D01*
X27876371Y9762687D01*
X27890072Y9901800D01*
X27890072Y10051800D01*
X27876371Y10190913D01*
X27865485Y10226800D01*
X27876371Y10262687D01*
X27890072Y10401800D01*
X27890072Y10551800D01*
X27876371Y10690913D01*
X27865485Y10726800D01*
X27876371Y10762687D01*
X27890072Y10901800D01*
X27890072Y11051800D01*
X27876371Y11190913D01*
X27865485Y11226800D01*
X27876371Y11262687D01*
X27890072Y11401800D01*
X27890072Y11509491D01*
X28676616Y11509491D01*
X28736077Y11275723D01*
X28974522Y11164826D01*
X29230020Y11102577D01*
X29492753Y11091370D01*
X29752624Y11131635D01*
X29999646Y11221825D01*
X30100483Y11275723D01*
X30159944Y11509491D01*
X29418280Y12251155D01*
X28676616Y11509491D01*
X27890072Y11509491D01*
X27890072Y11551800D01*
X27876371Y11690913D01*
X27865485Y11726800D01*
X27876371Y11762687D01*
X27890072Y11901800D01*
X27890072Y12051800D01*
X27876371Y12190913D01*
X27865485Y12226800D01*
X27876371Y12262687D01*
X27890072Y12401800D01*
X27890072Y12474369D01*
X28107934Y12692230D01*
X28090097Y12619020D01*
X28078890Y12356287D01*
X28119155Y12096416D01*
X28209345Y11849394D01*
X28263243Y11748557D01*
X28497011Y11689096D01*
X29238675Y12430760D01*
X29224533Y12444903D01*
X29404138Y12624508D01*
X29418280Y12610365D01*
X30159944Y13352029D01*
X30117228Y13519966D01*
X30176385Y13568515D01*
X30241858Y13648294D01*
X30247238Y13641738D01*
%TA.AperFunction,Conductor*%
D20*
G36*
X30247238Y13641738D02*
G01*
X30381814Y13531295D01*
X30535350Y13449228D01*
X30701946Y13398692D01*
X30730614Y13395869D01*
X30601278Y13266533D01*
X30509511Y13129193D01*
X30339549Y13172424D01*
X29597885Y12430760D01*
X30339549Y11689096D01*
X30492103Y11727900D01*
X30601278Y11564507D01*
X30651826Y11513959D01*
X27878097Y8740230D01*
X27875868Y8760683D01*
X27875814Y8760851D01*
X27876371Y8762687D01*
X27890072Y8901800D01*
X27890072Y9051800D01*
X27876371Y9190913D01*
X27865485Y9226800D01*
X27876371Y9262687D01*
X27890072Y9401800D01*
X27890072Y9551800D01*
X27876371Y9690913D01*
X27865485Y9726800D01*
X27876371Y9762687D01*
X27890072Y9901800D01*
X27890072Y10051800D01*
X27876371Y10190913D01*
X27865485Y10226800D01*
X27876371Y10262687D01*
X27890072Y10401800D01*
X27890072Y10551800D01*
X27876371Y10690913D01*
X27865485Y10726800D01*
X27876371Y10762687D01*
X27890072Y10901800D01*
X27890072Y11051800D01*
X27876371Y11190913D01*
X27865485Y11226800D01*
X27876371Y11262687D01*
X27890072Y11401800D01*
X27890072Y11509491D01*
X28676616Y11509491D01*
X28736077Y11275723D01*
X28974522Y11164826D01*
X29230020Y11102577D01*
X29492753Y11091370D01*
X29752624Y11131635D01*
X29999646Y11221825D01*
X30100483Y11275723D01*
X30159944Y11509491D01*
X29418280Y12251155D01*
X28676616Y11509491D01*
X27890072Y11509491D01*
X27890072Y11551800D01*
X27876371Y11690913D01*
X27865485Y11726800D01*
X27876371Y11762687D01*
X27890072Y11901800D01*
X27890072Y12051800D01*
X27876371Y12190913D01*
X27865485Y12226800D01*
X27876371Y12262687D01*
X27890072Y12401800D01*
X27890072Y12474369D01*
X28107934Y12692230D01*
X28090097Y12619020D01*
X28078890Y12356287D01*
X28119155Y12096416D01*
X28209345Y11849394D01*
X28263243Y11748557D01*
X28497011Y11689096D01*
X29238675Y12430760D01*
X29224533Y12444903D01*
X29404138Y12624508D01*
X29418280Y12610365D01*
X30159944Y13352029D01*
X30117228Y13519966D01*
X30176385Y13568515D01*
X30241858Y13648294D01*
X30247238Y13641738D01*
G37*
%TD.AperFunction*%
%TD*%
M02*
