%TF.GenerationSoftware,KiCad,Pcbnew,(5.1.8)-1*%
%TF.CreationDate,2020-12-30T10:18:30-07:00*%
%TF.ProjectId,Axle-Tx-PCB(STM32)v2,41786c65-2d54-4782-9d50-43422853544d,rev?*%
%TF.SameCoordinates,PX1a73ae0PY3563620*%
%TF.FileFunction,Other,User*%
%FSLAX46Y46*%
G04 Gerber Fmt 4.6, Leading zero omitted, Abs format (unit mm)*
G04 Created by KiCad (PCBNEW (5.1.8)-1) date 2020-12-30 10:18:30*
%MOMM*%
%LPD*%
G01*
G04 APERTURE LIST*
%ADD10C,0.050000*%
G04 APERTURE END LIST*
D10*
%TO.C,STM32*%
X20218400Y14598800D02*
X17068400Y14598800D01*
X17068400Y14598800D02*
X17068400Y13198800D01*
X17068400Y13198800D02*
X16468400Y13198800D01*
X16468400Y13198800D02*
X16468400Y12598800D01*
X16468400Y12598800D02*
X15068400Y12598800D01*
X15068400Y12598800D02*
X15068400Y9448800D01*
X20218400Y14598800D02*
X23368400Y14598800D01*
X23368400Y14598800D02*
X23368400Y13198800D01*
X23368400Y13198800D02*
X23968400Y13198800D01*
X23968400Y13198800D02*
X23968400Y12598800D01*
X23968400Y12598800D02*
X25368400Y12598800D01*
X25368400Y12598800D02*
X25368400Y9448800D01*
X20218400Y4298800D02*
X17068400Y4298800D01*
X17068400Y4298800D02*
X17068400Y5698800D01*
X17068400Y5698800D02*
X16468400Y5698800D01*
X16468400Y5698800D02*
X16468400Y6298800D01*
X16468400Y6298800D02*
X15068400Y6298800D01*
X15068400Y6298800D02*
X15068400Y9448800D01*
X20218400Y4298800D02*
X23368400Y4298800D01*
X23368400Y4298800D02*
X23368400Y5698800D01*
X23368400Y5698800D02*
X23968400Y5698800D01*
X23968400Y5698800D02*
X23968400Y6298800D01*
X23968400Y6298800D02*
X25368400Y6298800D01*
X25368400Y6298800D02*
X25368400Y9448800D01*
%TO.C,C1*%
X26706000Y17424800D02*
X28666000Y17424800D01*
X28666000Y17424800D02*
X28666000Y13664800D01*
X28666000Y13664800D02*
X26706000Y13664800D01*
X26706000Y13664800D02*
X26706000Y17424800D01*
%TO.C,SG4*%
X32833600Y4587200D02*
X34933600Y4587200D01*
X34933600Y4587200D02*
X34933600Y11567200D01*
X34933600Y11567200D02*
X32833600Y11567200D01*
X32833600Y11567200D02*
X32833600Y4587200D01*
%TO.C,3.3Vreg1*%
X8158400Y12569600D02*
X11958400Y12569600D01*
X11958400Y12569600D02*
X11958400Y8969600D01*
X11958400Y8969600D02*
X8158400Y8969600D01*
X8158400Y8969600D02*
X8158400Y12569600D01*
%TO.C,R6*%
X16261600Y3335300D02*
X16261600Y5095300D01*
X16961600Y3335300D02*
X16261600Y3335300D01*
X16961600Y5095300D02*
X16961600Y3335300D01*
X16261600Y5095300D02*
X16961600Y5095300D01*
%TO.C,J2*%
X1984600Y2772000D02*
X13184600Y2772000D01*
X13184600Y2772000D02*
X13184600Y8922000D01*
X13184600Y8922000D02*
X1984600Y8922000D01*
X1984600Y8922000D02*
X1984600Y2772000D01*
%TO.C,J1*%
X10976200Y14837000D02*
X24726200Y14837000D01*
X24726200Y14837000D02*
X24726200Y18437000D01*
X24726200Y18437000D02*
X10976200Y18437000D01*
X10976200Y18437000D02*
X10976200Y14837000D01*
%TO.C,SG3*%
X32749200Y11572280D02*
X30649200Y11572280D01*
X30649200Y11572280D02*
X30649200Y4592280D01*
X30649200Y4592280D02*
X32749200Y4592280D01*
X32749200Y4592280D02*
X32749200Y11572280D01*
%TO.C,R4*%
X25162400Y13874000D02*
X23402400Y13874000D01*
X25162400Y14574000D02*
X25162400Y13874000D01*
X23402400Y14574000D02*
X25162400Y14574000D01*
X23402400Y13874000D02*
X23402400Y14574000D01*
%TO.C,C7*%
X14950000Y10638300D02*
X12990000Y10638300D01*
X12990000Y10638300D02*
X12990000Y14398300D01*
X12990000Y14398300D02*
X14950000Y14398300D01*
X14950000Y14398300D02*
X14950000Y10638300D01*
%TO.C,R5*%
X14777200Y10074800D02*
X14777200Y8314800D01*
X14077200Y10074800D02*
X14777200Y10074800D01*
X14077200Y8314800D02*
X14077200Y10074800D01*
X14777200Y8314800D02*
X14077200Y8314800D01*
%TO.C,F1*%
X1969600Y14912200D02*
X6869600Y14912200D01*
X1969600Y12672200D02*
X1969600Y14912200D01*
X6869600Y12672200D02*
X1969600Y12672200D01*
X6869600Y14912200D02*
X6869600Y12672200D01*
%TO.C,D1*%
X1991000Y17355200D02*
X1991000Y15055200D01*
X6391000Y15055200D02*
X1991000Y15055200D01*
X6391000Y17355200D02*
X6391000Y15055200D01*
X1991000Y17355200D02*
X6391000Y17355200D01*
%TO.C,C4*%
X31405000Y13626700D02*
X31405000Y17386700D01*
X33365000Y13626700D02*
X31405000Y13626700D01*
X33365000Y17386700D02*
X33365000Y13626700D01*
X31405000Y17386700D02*
X33365000Y17386700D01*
%TO.C,SG2*%
X28454640Y4607520D02*
X30554640Y4607520D01*
X30554640Y4607520D02*
X30554640Y11587520D01*
X30554640Y11587520D02*
X28454640Y11587520D01*
X28454640Y11587520D02*
X28454640Y4607520D01*
%TO.C,SG1*%
X28334680Y11602760D02*
X26234680Y11602760D01*
X26234680Y11602760D02*
X26234680Y4622760D01*
X26234680Y4622760D02*
X28334680Y4622760D01*
X28334680Y4622760D02*
X28334680Y11602760D01*
%TO.C,C6*%
X6995600Y16434200D02*
X8955600Y16434200D01*
X8955600Y16434200D02*
X8955600Y12674200D01*
X8955600Y12674200D02*
X6995600Y12674200D01*
X6995600Y12674200D02*
X6995600Y16434200D01*
%TO.C,C3*%
X29093600Y17424800D02*
X31053600Y17424800D01*
X31053600Y17424800D02*
X31053600Y13664800D01*
X31053600Y13664800D02*
X29093600Y13664800D01*
X29093600Y13664800D02*
X29093600Y17424800D01*
%TO.C,C2*%
X33716400Y17374000D02*
X35676400Y17374000D01*
X35676400Y17374000D02*
X35676400Y13614000D01*
X35676400Y13614000D02*
X33716400Y13614000D01*
X33716400Y13614000D02*
X33716400Y17374000D01*
%TO.C,BatCon1*%
X8073800Y12569600D02*
X8073800Y9019600D01*
X8073800Y9019600D02*
X1973800Y9019600D01*
X1973800Y9019600D02*
X1973800Y12569600D01*
X1973800Y12569600D02*
X8073800Y12569600D01*
%TD*%
M02*
