%TF.GenerationSoftware,KiCad,Pcbnew,(5.1.8)-1*%
%TF.CreationDate,2020-12-26T00:02:07-07:00*%
%TF.ProjectId,Axle-Tx-PCB(STM32)v2,41786c65-2d54-4782-9d50-43422853544d,rev?*%
%TF.SameCoordinates,Original*%
%TF.FileFunction,Paste,Top*%
%TF.FilePolarity,Positive*%
%FSLAX46Y46*%
G04 Gerber Fmt 4.6, Leading zero omitted, Abs format (unit mm)*
G04 Created by KiCad (PCBNEW (5.1.8)-1) date 2020-12-26 00:02:07*
%MOMM*%
%LPD*%
G01*
G04 APERTURE LIST*
%ADD10R,1.060000X0.650000*%
%ADD11R,1.100000X1.100000*%
G04 APERTURE END LIST*
%TO.C,STM32*%
G36*
G01*
X19452000Y14726800D02*
X19452000Y16051800D01*
G75*
G02*
X19527000Y16126800I75000J0D01*
G01*
X19677000Y16126800D01*
G75*
G02*
X19752000Y16051800I0J-75000D01*
G01*
X19752000Y14726800D01*
G75*
G02*
X19677000Y14651800I-75000J0D01*
G01*
X19527000Y14651800D01*
G75*
G02*
X19452000Y14726800I0J75000D01*
G01*
G37*
G36*
G01*
X19952000Y14726800D02*
X19952000Y16051800D01*
G75*
G02*
X20027000Y16126800I75000J0D01*
G01*
X20177000Y16126800D01*
G75*
G02*
X20252000Y16051800I0J-75000D01*
G01*
X20252000Y14726800D01*
G75*
G02*
X20177000Y14651800I-75000J0D01*
G01*
X20027000Y14651800D01*
G75*
G02*
X19952000Y14726800I0J75000D01*
G01*
G37*
G36*
G01*
X20452000Y14726800D02*
X20452000Y16051800D01*
G75*
G02*
X20527000Y16126800I75000J0D01*
G01*
X20677000Y16126800D01*
G75*
G02*
X20752000Y16051800I0J-75000D01*
G01*
X20752000Y14726800D01*
G75*
G02*
X20677000Y14651800I-75000J0D01*
G01*
X20527000Y14651800D01*
G75*
G02*
X20452000Y14726800I0J75000D01*
G01*
G37*
G36*
G01*
X20952000Y14726800D02*
X20952000Y16051800D01*
G75*
G02*
X21027000Y16126800I75000J0D01*
G01*
X21177000Y16126800D01*
G75*
G02*
X21252000Y16051800I0J-75000D01*
G01*
X21252000Y14726800D01*
G75*
G02*
X21177000Y14651800I-75000J0D01*
G01*
X21027000Y14651800D01*
G75*
G02*
X20952000Y14726800I0J75000D01*
G01*
G37*
G36*
G01*
X21452000Y14726800D02*
X21452000Y16051800D01*
G75*
G02*
X21527000Y16126800I75000J0D01*
G01*
X21677000Y16126800D01*
G75*
G02*
X21752000Y16051800I0J-75000D01*
G01*
X21752000Y14726800D01*
G75*
G02*
X21677000Y14651800I-75000J0D01*
G01*
X21527000Y14651800D01*
G75*
G02*
X21452000Y14726800I0J75000D01*
G01*
G37*
G36*
G01*
X21952000Y14726800D02*
X21952000Y16051800D01*
G75*
G02*
X22027000Y16126800I75000J0D01*
G01*
X22177000Y16126800D01*
G75*
G02*
X22252000Y16051800I0J-75000D01*
G01*
X22252000Y14726800D01*
G75*
G02*
X22177000Y14651800I-75000J0D01*
G01*
X22027000Y14651800D01*
G75*
G02*
X21952000Y14726800I0J75000D01*
G01*
G37*
G36*
G01*
X22452000Y14726800D02*
X22452000Y16051800D01*
G75*
G02*
X22527000Y16126800I75000J0D01*
G01*
X22677000Y16126800D01*
G75*
G02*
X22752000Y16051800I0J-75000D01*
G01*
X22752000Y14726800D01*
G75*
G02*
X22677000Y14651800I-75000J0D01*
G01*
X22527000Y14651800D01*
G75*
G02*
X22452000Y14726800I0J75000D01*
G01*
G37*
G36*
G01*
X22952000Y14726800D02*
X22952000Y16051800D01*
G75*
G02*
X23027000Y16126800I75000J0D01*
G01*
X23177000Y16126800D01*
G75*
G02*
X23252000Y16051800I0J-75000D01*
G01*
X23252000Y14726800D01*
G75*
G02*
X23177000Y14651800I-75000J0D01*
G01*
X23027000Y14651800D01*
G75*
G02*
X22952000Y14726800I0J75000D01*
G01*
G37*
G36*
G01*
X23452000Y14726800D02*
X23452000Y16051800D01*
G75*
G02*
X23527000Y16126800I75000J0D01*
G01*
X23677000Y16126800D01*
G75*
G02*
X23752000Y16051800I0J-75000D01*
G01*
X23752000Y14726800D01*
G75*
G02*
X23677000Y14651800I-75000J0D01*
G01*
X23527000Y14651800D01*
G75*
G02*
X23452000Y14726800I0J75000D01*
G01*
G37*
G36*
G01*
X23952000Y14726800D02*
X23952000Y16051800D01*
G75*
G02*
X24027000Y16126800I75000J0D01*
G01*
X24177000Y16126800D01*
G75*
G02*
X24252000Y16051800I0J-75000D01*
G01*
X24252000Y14726800D01*
G75*
G02*
X24177000Y14651800I-75000J0D01*
G01*
X24027000Y14651800D01*
G75*
G02*
X23952000Y14726800I0J75000D01*
G01*
G37*
G36*
G01*
X24452000Y14726800D02*
X24452000Y16051800D01*
G75*
G02*
X24527000Y16126800I75000J0D01*
G01*
X24677000Y16126800D01*
G75*
G02*
X24752000Y16051800I0J-75000D01*
G01*
X24752000Y14726800D01*
G75*
G02*
X24677000Y14651800I-75000J0D01*
G01*
X24527000Y14651800D01*
G75*
G02*
X24452000Y14726800I0J75000D01*
G01*
G37*
G36*
G01*
X24952000Y14726800D02*
X24952000Y16051800D01*
G75*
G02*
X25027000Y16126800I75000J0D01*
G01*
X25177000Y16126800D01*
G75*
G02*
X25252000Y16051800I0J-75000D01*
G01*
X25252000Y14726800D01*
G75*
G02*
X25177000Y14651800I-75000J0D01*
G01*
X25027000Y14651800D01*
G75*
G02*
X24952000Y14726800I0J75000D01*
G01*
G37*
G36*
G01*
X25777000Y13901800D02*
X25777000Y14051800D01*
G75*
G02*
X25852000Y14126800I75000J0D01*
G01*
X27177000Y14126800D01*
G75*
G02*
X27252000Y14051800I0J-75000D01*
G01*
X27252000Y13901800D01*
G75*
G02*
X27177000Y13826800I-75000J0D01*
G01*
X25852000Y13826800D01*
G75*
G02*
X25777000Y13901800I0J75000D01*
G01*
G37*
G36*
G01*
X25777000Y13401800D02*
X25777000Y13551800D01*
G75*
G02*
X25852000Y13626800I75000J0D01*
G01*
X27177000Y13626800D01*
G75*
G02*
X27252000Y13551800I0J-75000D01*
G01*
X27252000Y13401800D01*
G75*
G02*
X27177000Y13326800I-75000J0D01*
G01*
X25852000Y13326800D01*
G75*
G02*
X25777000Y13401800I0J75000D01*
G01*
G37*
G36*
G01*
X25777000Y12901800D02*
X25777000Y13051800D01*
G75*
G02*
X25852000Y13126800I75000J0D01*
G01*
X27177000Y13126800D01*
G75*
G02*
X27252000Y13051800I0J-75000D01*
G01*
X27252000Y12901800D01*
G75*
G02*
X27177000Y12826800I-75000J0D01*
G01*
X25852000Y12826800D01*
G75*
G02*
X25777000Y12901800I0J75000D01*
G01*
G37*
G36*
G01*
X25777000Y12401800D02*
X25777000Y12551800D01*
G75*
G02*
X25852000Y12626800I75000J0D01*
G01*
X27177000Y12626800D01*
G75*
G02*
X27252000Y12551800I0J-75000D01*
G01*
X27252000Y12401800D01*
G75*
G02*
X27177000Y12326800I-75000J0D01*
G01*
X25852000Y12326800D01*
G75*
G02*
X25777000Y12401800I0J75000D01*
G01*
G37*
G36*
G01*
X25777000Y11901800D02*
X25777000Y12051800D01*
G75*
G02*
X25852000Y12126800I75000J0D01*
G01*
X27177000Y12126800D01*
G75*
G02*
X27252000Y12051800I0J-75000D01*
G01*
X27252000Y11901800D01*
G75*
G02*
X27177000Y11826800I-75000J0D01*
G01*
X25852000Y11826800D01*
G75*
G02*
X25777000Y11901800I0J75000D01*
G01*
G37*
G36*
G01*
X25777000Y11401800D02*
X25777000Y11551800D01*
G75*
G02*
X25852000Y11626800I75000J0D01*
G01*
X27177000Y11626800D01*
G75*
G02*
X27252000Y11551800I0J-75000D01*
G01*
X27252000Y11401800D01*
G75*
G02*
X27177000Y11326800I-75000J0D01*
G01*
X25852000Y11326800D01*
G75*
G02*
X25777000Y11401800I0J75000D01*
G01*
G37*
G36*
G01*
X25777000Y10901800D02*
X25777000Y11051800D01*
G75*
G02*
X25852000Y11126800I75000J0D01*
G01*
X27177000Y11126800D01*
G75*
G02*
X27252000Y11051800I0J-75000D01*
G01*
X27252000Y10901800D01*
G75*
G02*
X27177000Y10826800I-75000J0D01*
G01*
X25852000Y10826800D01*
G75*
G02*
X25777000Y10901800I0J75000D01*
G01*
G37*
G36*
G01*
X25777000Y10401800D02*
X25777000Y10551800D01*
G75*
G02*
X25852000Y10626800I75000J0D01*
G01*
X27177000Y10626800D01*
G75*
G02*
X27252000Y10551800I0J-75000D01*
G01*
X27252000Y10401800D01*
G75*
G02*
X27177000Y10326800I-75000J0D01*
G01*
X25852000Y10326800D01*
G75*
G02*
X25777000Y10401800I0J75000D01*
G01*
G37*
G36*
G01*
X25777000Y9901800D02*
X25777000Y10051800D01*
G75*
G02*
X25852000Y10126800I75000J0D01*
G01*
X27177000Y10126800D01*
G75*
G02*
X27252000Y10051800I0J-75000D01*
G01*
X27252000Y9901800D01*
G75*
G02*
X27177000Y9826800I-75000J0D01*
G01*
X25852000Y9826800D01*
G75*
G02*
X25777000Y9901800I0J75000D01*
G01*
G37*
G36*
G01*
X25777000Y9401800D02*
X25777000Y9551800D01*
G75*
G02*
X25852000Y9626800I75000J0D01*
G01*
X27177000Y9626800D01*
G75*
G02*
X27252000Y9551800I0J-75000D01*
G01*
X27252000Y9401800D01*
G75*
G02*
X27177000Y9326800I-75000J0D01*
G01*
X25852000Y9326800D01*
G75*
G02*
X25777000Y9401800I0J75000D01*
G01*
G37*
G36*
G01*
X25777000Y8901800D02*
X25777000Y9051800D01*
G75*
G02*
X25852000Y9126800I75000J0D01*
G01*
X27177000Y9126800D01*
G75*
G02*
X27252000Y9051800I0J-75000D01*
G01*
X27252000Y8901800D01*
G75*
G02*
X27177000Y8826800I-75000J0D01*
G01*
X25852000Y8826800D01*
G75*
G02*
X25777000Y8901800I0J75000D01*
G01*
G37*
G36*
G01*
X25777000Y8401800D02*
X25777000Y8551800D01*
G75*
G02*
X25852000Y8626800I75000J0D01*
G01*
X27177000Y8626800D01*
G75*
G02*
X27252000Y8551800I0J-75000D01*
G01*
X27252000Y8401800D01*
G75*
G02*
X27177000Y8326800I-75000J0D01*
G01*
X25852000Y8326800D01*
G75*
G02*
X25777000Y8401800I0J75000D01*
G01*
G37*
G36*
G01*
X24952000Y6401800D02*
X24952000Y7726800D01*
G75*
G02*
X25027000Y7801800I75000J0D01*
G01*
X25177000Y7801800D01*
G75*
G02*
X25252000Y7726800I0J-75000D01*
G01*
X25252000Y6401800D01*
G75*
G02*
X25177000Y6326800I-75000J0D01*
G01*
X25027000Y6326800D01*
G75*
G02*
X24952000Y6401800I0J75000D01*
G01*
G37*
G36*
G01*
X24452000Y6401800D02*
X24452000Y7726800D01*
G75*
G02*
X24527000Y7801800I75000J0D01*
G01*
X24677000Y7801800D01*
G75*
G02*
X24752000Y7726800I0J-75000D01*
G01*
X24752000Y6401800D01*
G75*
G02*
X24677000Y6326800I-75000J0D01*
G01*
X24527000Y6326800D01*
G75*
G02*
X24452000Y6401800I0J75000D01*
G01*
G37*
G36*
G01*
X23952000Y6401800D02*
X23952000Y7726800D01*
G75*
G02*
X24027000Y7801800I75000J0D01*
G01*
X24177000Y7801800D01*
G75*
G02*
X24252000Y7726800I0J-75000D01*
G01*
X24252000Y6401800D01*
G75*
G02*
X24177000Y6326800I-75000J0D01*
G01*
X24027000Y6326800D01*
G75*
G02*
X23952000Y6401800I0J75000D01*
G01*
G37*
G36*
G01*
X23452000Y6401800D02*
X23452000Y7726800D01*
G75*
G02*
X23527000Y7801800I75000J0D01*
G01*
X23677000Y7801800D01*
G75*
G02*
X23752000Y7726800I0J-75000D01*
G01*
X23752000Y6401800D01*
G75*
G02*
X23677000Y6326800I-75000J0D01*
G01*
X23527000Y6326800D01*
G75*
G02*
X23452000Y6401800I0J75000D01*
G01*
G37*
G36*
G01*
X22952000Y6401800D02*
X22952000Y7726800D01*
G75*
G02*
X23027000Y7801800I75000J0D01*
G01*
X23177000Y7801800D01*
G75*
G02*
X23252000Y7726800I0J-75000D01*
G01*
X23252000Y6401800D01*
G75*
G02*
X23177000Y6326800I-75000J0D01*
G01*
X23027000Y6326800D01*
G75*
G02*
X22952000Y6401800I0J75000D01*
G01*
G37*
G36*
G01*
X22452000Y6401800D02*
X22452000Y7726800D01*
G75*
G02*
X22527000Y7801800I75000J0D01*
G01*
X22677000Y7801800D01*
G75*
G02*
X22752000Y7726800I0J-75000D01*
G01*
X22752000Y6401800D01*
G75*
G02*
X22677000Y6326800I-75000J0D01*
G01*
X22527000Y6326800D01*
G75*
G02*
X22452000Y6401800I0J75000D01*
G01*
G37*
G36*
G01*
X21952000Y6401800D02*
X21952000Y7726800D01*
G75*
G02*
X22027000Y7801800I75000J0D01*
G01*
X22177000Y7801800D01*
G75*
G02*
X22252000Y7726800I0J-75000D01*
G01*
X22252000Y6401800D01*
G75*
G02*
X22177000Y6326800I-75000J0D01*
G01*
X22027000Y6326800D01*
G75*
G02*
X21952000Y6401800I0J75000D01*
G01*
G37*
G36*
G01*
X21452000Y6401800D02*
X21452000Y7726800D01*
G75*
G02*
X21527000Y7801800I75000J0D01*
G01*
X21677000Y7801800D01*
G75*
G02*
X21752000Y7726800I0J-75000D01*
G01*
X21752000Y6401800D01*
G75*
G02*
X21677000Y6326800I-75000J0D01*
G01*
X21527000Y6326800D01*
G75*
G02*
X21452000Y6401800I0J75000D01*
G01*
G37*
G36*
G01*
X20952000Y6401800D02*
X20952000Y7726800D01*
G75*
G02*
X21027000Y7801800I75000J0D01*
G01*
X21177000Y7801800D01*
G75*
G02*
X21252000Y7726800I0J-75000D01*
G01*
X21252000Y6401800D01*
G75*
G02*
X21177000Y6326800I-75000J0D01*
G01*
X21027000Y6326800D01*
G75*
G02*
X20952000Y6401800I0J75000D01*
G01*
G37*
G36*
G01*
X20452000Y6401800D02*
X20452000Y7726800D01*
G75*
G02*
X20527000Y7801800I75000J0D01*
G01*
X20677000Y7801800D01*
G75*
G02*
X20752000Y7726800I0J-75000D01*
G01*
X20752000Y6401800D01*
G75*
G02*
X20677000Y6326800I-75000J0D01*
G01*
X20527000Y6326800D01*
G75*
G02*
X20452000Y6401800I0J75000D01*
G01*
G37*
G36*
G01*
X19952000Y6401800D02*
X19952000Y7726800D01*
G75*
G02*
X20027000Y7801800I75000J0D01*
G01*
X20177000Y7801800D01*
G75*
G02*
X20252000Y7726800I0J-75000D01*
G01*
X20252000Y6401800D01*
G75*
G02*
X20177000Y6326800I-75000J0D01*
G01*
X20027000Y6326800D01*
G75*
G02*
X19952000Y6401800I0J75000D01*
G01*
G37*
G36*
G01*
X19452000Y6401800D02*
X19452000Y7726800D01*
G75*
G02*
X19527000Y7801800I75000J0D01*
G01*
X19677000Y7801800D01*
G75*
G02*
X19752000Y7726800I0J-75000D01*
G01*
X19752000Y6401800D01*
G75*
G02*
X19677000Y6326800I-75000J0D01*
G01*
X19527000Y6326800D01*
G75*
G02*
X19452000Y6401800I0J75000D01*
G01*
G37*
G36*
G01*
X17452000Y8401800D02*
X17452000Y8551800D01*
G75*
G02*
X17527000Y8626800I75000J0D01*
G01*
X18852000Y8626800D01*
G75*
G02*
X18927000Y8551800I0J-75000D01*
G01*
X18927000Y8401800D01*
G75*
G02*
X18852000Y8326800I-75000J0D01*
G01*
X17527000Y8326800D01*
G75*
G02*
X17452000Y8401800I0J75000D01*
G01*
G37*
G36*
G01*
X17452000Y8901800D02*
X17452000Y9051800D01*
G75*
G02*
X17527000Y9126800I75000J0D01*
G01*
X18852000Y9126800D01*
G75*
G02*
X18927000Y9051800I0J-75000D01*
G01*
X18927000Y8901800D01*
G75*
G02*
X18852000Y8826800I-75000J0D01*
G01*
X17527000Y8826800D01*
G75*
G02*
X17452000Y8901800I0J75000D01*
G01*
G37*
G36*
G01*
X17452000Y9401800D02*
X17452000Y9551800D01*
G75*
G02*
X17527000Y9626800I75000J0D01*
G01*
X18852000Y9626800D01*
G75*
G02*
X18927000Y9551800I0J-75000D01*
G01*
X18927000Y9401800D01*
G75*
G02*
X18852000Y9326800I-75000J0D01*
G01*
X17527000Y9326800D01*
G75*
G02*
X17452000Y9401800I0J75000D01*
G01*
G37*
G36*
G01*
X17452000Y9901800D02*
X17452000Y10051800D01*
G75*
G02*
X17527000Y10126800I75000J0D01*
G01*
X18852000Y10126800D01*
G75*
G02*
X18927000Y10051800I0J-75000D01*
G01*
X18927000Y9901800D01*
G75*
G02*
X18852000Y9826800I-75000J0D01*
G01*
X17527000Y9826800D01*
G75*
G02*
X17452000Y9901800I0J75000D01*
G01*
G37*
G36*
G01*
X17452000Y10401800D02*
X17452000Y10551800D01*
G75*
G02*
X17527000Y10626800I75000J0D01*
G01*
X18852000Y10626800D01*
G75*
G02*
X18927000Y10551800I0J-75000D01*
G01*
X18927000Y10401800D01*
G75*
G02*
X18852000Y10326800I-75000J0D01*
G01*
X17527000Y10326800D01*
G75*
G02*
X17452000Y10401800I0J75000D01*
G01*
G37*
G36*
G01*
X17452000Y10901800D02*
X17452000Y11051800D01*
G75*
G02*
X17527000Y11126800I75000J0D01*
G01*
X18852000Y11126800D01*
G75*
G02*
X18927000Y11051800I0J-75000D01*
G01*
X18927000Y10901800D01*
G75*
G02*
X18852000Y10826800I-75000J0D01*
G01*
X17527000Y10826800D01*
G75*
G02*
X17452000Y10901800I0J75000D01*
G01*
G37*
G36*
G01*
X17452000Y11401800D02*
X17452000Y11551800D01*
G75*
G02*
X17527000Y11626800I75000J0D01*
G01*
X18852000Y11626800D01*
G75*
G02*
X18927000Y11551800I0J-75000D01*
G01*
X18927000Y11401800D01*
G75*
G02*
X18852000Y11326800I-75000J0D01*
G01*
X17527000Y11326800D01*
G75*
G02*
X17452000Y11401800I0J75000D01*
G01*
G37*
G36*
G01*
X17452000Y11901800D02*
X17452000Y12051800D01*
G75*
G02*
X17527000Y12126800I75000J0D01*
G01*
X18852000Y12126800D01*
G75*
G02*
X18927000Y12051800I0J-75000D01*
G01*
X18927000Y11901800D01*
G75*
G02*
X18852000Y11826800I-75000J0D01*
G01*
X17527000Y11826800D01*
G75*
G02*
X17452000Y11901800I0J75000D01*
G01*
G37*
G36*
G01*
X17452000Y12401800D02*
X17452000Y12551800D01*
G75*
G02*
X17527000Y12626800I75000J0D01*
G01*
X18852000Y12626800D01*
G75*
G02*
X18927000Y12551800I0J-75000D01*
G01*
X18927000Y12401800D01*
G75*
G02*
X18852000Y12326800I-75000J0D01*
G01*
X17527000Y12326800D01*
G75*
G02*
X17452000Y12401800I0J75000D01*
G01*
G37*
G36*
G01*
X17452000Y12901800D02*
X17452000Y13051800D01*
G75*
G02*
X17527000Y13126800I75000J0D01*
G01*
X18852000Y13126800D01*
G75*
G02*
X18927000Y13051800I0J-75000D01*
G01*
X18927000Y12901800D01*
G75*
G02*
X18852000Y12826800I-75000J0D01*
G01*
X17527000Y12826800D01*
G75*
G02*
X17452000Y12901800I0J75000D01*
G01*
G37*
G36*
G01*
X17452000Y13401800D02*
X17452000Y13551800D01*
G75*
G02*
X17527000Y13626800I75000J0D01*
G01*
X18852000Y13626800D01*
G75*
G02*
X18927000Y13551800I0J-75000D01*
G01*
X18927000Y13401800D01*
G75*
G02*
X18852000Y13326800I-75000J0D01*
G01*
X17527000Y13326800D01*
G75*
G02*
X17452000Y13401800I0J75000D01*
G01*
G37*
G36*
G01*
X17452000Y13901800D02*
X17452000Y14051800D01*
G75*
G02*
X17527000Y14126800I75000J0D01*
G01*
X18852000Y14126800D01*
G75*
G02*
X18927000Y14051800I0J-75000D01*
G01*
X18927000Y13901800D01*
G75*
G02*
X18852000Y13826800I-75000J0D01*
G01*
X17527000Y13826800D01*
G75*
G02*
X17452000Y13901800I0J75000D01*
G01*
G37*
%TD*%
D10*
%TO.C,3.3Vreg1*%
X13292000Y13497600D03*
X13292000Y11597600D03*
X11092000Y11597600D03*
X11092000Y12547600D03*
X11092000Y13497600D03*
%TD*%
%TO.C,R6*%
G36*
G01*
X18655200Y5789800D02*
X18835200Y5789800D01*
G75*
G02*
X18925200Y5699800I0J-90000D01*
G01*
X18925200Y5421800D01*
G75*
G02*
X18835200Y5331800I-90000J0D01*
G01*
X18655200Y5331800D01*
G75*
G02*
X18565200Y5421800I0J90000D01*
G01*
X18565200Y5699800D01*
G75*
G02*
X18655200Y5789800I90000J0D01*
G01*
G37*
G36*
G01*
X18655200Y6654800D02*
X18835200Y6654800D01*
G75*
G02*
X18925200Y6564800I0J-90000D01*
G01*
X18925200Y6286800D01*
G75*
G02*
X18835200Y6196800I-90000J0D01*
G01*
X18655200Y6196800D01*
G75*
G02*
X18565200Y6286800I0J90000D01*
G01*
X18565200Y6564800D01*
G75*
G02*
X18655200Y6654800I90000J0D01*
G01*
G37*
%TD*%
%TO.C,R4*%
G36*
G01*
X26619500Y15912000D02*
X26619500Y16092000D01*
G75*
G02*
X26709500Y16182000I90000J0D01*
G01*
X26987500Y16182000D01*
G75*
G02*
X27077500Y16092000I0J-90000D01*
G01*
X27077500Y15912000D01*
G75*
G02*
X26987500Y15822000I-90000J0D01*
G01*
X26709500Y15822000D01*
G75*
G02*
X26619500Y15912000I0J90000D01*
G01*
G37*
G36*
G01*
X25754500Y15912000D02*
X25754500Y16092000D01*
G75*
G02*
X25844500Y16182000I90000J0D01*
G01*
X26122500Y16182000D01*
G75*
G02*
X26212500Y16092000I0J-90000D01*
G01*
X26212500Y15912000D01*
G75*
G02*
X26122500Y15822000I-90000J0D01*
G01*
X25844500Y15822000D01*
G75*
G02*
X25754500Y15912000I0J90000D01*
G01*
G37*
%TD*%
%TO.C,C7*%
G36*
G01*
X16578600Y14746300D02*
X15628600Y14746300D01*
G75*
G02*
X15378600Y14996300I0J250000D01*
G01*
X15378600Y15671300D01*
G75*
G02*
X15628600Y15921300I250000J0D01*
G01*
X16578600Y15921300D01*
G75*
G02*
X16828600Y15671300I0J-250000D01*
G01*
X16828600Y14996300D01*
G75*
G02*
X16578600Y14746300I-250000J0D01*
G01*
G37*
G36*
G01*
X16578600Y12671300D02*
X15628600Y12671300D01*
G75*
G02*
X15378600Y12921300I0J250000D01*
G01*
X15378600Y13596300D01*
G75*
G02*
X15628600Y13846300I250000J0D01*
G01*
X16578600Y13846300D01*
G75*
G02*
X16828600Y13596300I0J-250000D01*
G01*
X16828600Y12921300D01*
G75*
G02*
X16578600Y12671300I-250000J0D01*
G01*
G37*
%TD*%
%TO.C,R5*%
G36*
G01*
X16346000Y11328700D02*
X16166000Y11328700D01*
G75*
G02*
X16076000Y11418700I0J90000D01*
G01*
X16076000Y11696700D01*
G75*
G02*
X16166000Y11786700I90000J0D01*
G01*
X16346000Y11786700D01*
G75*
G02*
X16436000Y11696700I0J-90000D01*
G01*
X16436000Y11418700D01*
G75*
G02*
X16346000Y11328700I-90000J0D01*
G01*
G37*
G36*
G01*
X16346000Y10463700D02*
X16166000Y10463700D01*
G75*
G02*
X16076000Y10553700I0J90000D01*
G01*
X16076000Y10831700D01*
G75*
G02*
X16166000Y10921700I90000J0D01*
G01*
X16346000Y10921700D01*
G75*
G02*
X16436000Y10831700I0J-90000D01*
G01*
X16436000Y10553700D01*
G75*
G02*
X16346000Y10463700I-90000J0D01*
G01*
G37*
%TD*%
%TO.C,F1*%
G36*
G01*
X5778200Y16195200D02*
X5778200Y14945200D01*
G75*
G02*
X5528200Y14695200I-250000J0D01*
G01*
X4603200Y14695200D01*
G75*
G02*
X4353200Y14945200I0J250000D01*
G01*
X4353200Y16195200D01*
G75*
G02*
X4603200Y16445200I250000J0D01*
G01*
X5528200Y16445200D01*
G75*
G02*
X5778200Y16195200I0J-250000D01*
G01*
G37*
G36*
G01*
X8753200Y16195200D02*
X8753200Y14945200D01*
G75*
G02*
X8503200Y14695200I-250000J0D01*
G01*
X7578200Y14695200D01*
G75*
G02*
X7328200Y14945200I0J250000D01*
G01*
X7328200Y16195200D01*
G75*
G02*
X7578200Y16445200I250000J0D01*
G01*
X8503200Y16445200D01*
G75*
G02*
X8753200Y16195200I0J-250000D01*
G01*
G37*
%TD*%
D11*
%TO.C,D1*%
X7724600Y17983200D03*
X4924600Y17983200D03*
%TD*%
%TO.C,C5*%
G36*
G01*
X33598700Y15219700D02*
X33598700Y14269700D01*
G75*
G02*
X33348700Y14019700I-250000J0D01*
G01*
X32673700Y14019700D01*
G75*
G02*
X32423700Y14269700I0J250000D01*
G01*
X32423700Y15219700D01*
G75*
G02*
X32673700Y15469700I250000J0D01*
G01*
X33348700Y15469700D01*
G75*
G02*
X33598700Y15219700I0J-250000D01*
G01*
G37*
G36*
G01*
X35673700Y15219700D02*
X35673700Y14269700D01*
G75*
G02*
X35423700Y14019700I-250000J0D01*
G01*
X34748700Y14019700D01*
G75*
G02*
X34498700Y14269700I0J250000D01*
G01*
X34498700Y15219700D01*
G75*
G02*
X34748700Y15469700I250000J0D01*
G01*
X35423700Y15469700D01*
G75*
G02*
X35673700Y15219700I0J-250000D01*
G01*
G37*
%TD*%
%TO.C,C4*%
G36*
G01*
X33598700Y17315200D02*
X33598700Y16365200D01*
G75*
G02*
X33348700Y16115200I-250000J0D01*
G01*
X32673700Y16115200D01*
G75*
G02*
X32423700Y16365200I0J250000D01*
G01*
X32423700Y17315200D01*
G75*
G02*
X32673700Y17565200I250000J0D01*
G01*
X33348700Y17565200D01*
G75*
G02*
X33598700Y17315200I0J-250000D01*
G01*
G37*
G36*
G01*
X35673700Y17315200D02*
X35673700Y16365200D01*
G75*
G02*
X35423700Y16115200I-250000J0D01*
G01*
X34748700Y16115200D01*
G75*
G02*
X34498700Y16365200I0J250000D01*
G01*
X34498700Y17315200D01*
G75*
G02*
X34748700Y17565200I250000J0D01*
G01*
X35423700Y17565200D01*
G75*
G02*
X35673700Y17315200I0J-250000D01*
G01*
G37*
%TD*%
%TO.C,C6*%
G36*
G01*
X9634200Y15882200D02*
X10584200Y15882200D01*
G75*
G02*
X10834200Y15632200I0J-250000D01*
G01*
X10834200Y14957200D01*
G75*
G02*
X10584200Y14707200I-250000J0D01*
G01*
X9634200Y14707200D01*
G75*
G02*
X9384200Y14957200I0J250000D01*
G01*
X9384200Y15632200D01*
G75*
G02*
X9634200Y15882200I250000J0D01*
G01*
G37*
G36*
G01*
X9634200Y17957200D02*
X10584200Y17957200D01*
G75*
G02*
X10834200Y17707200I0J-250000D01*
G01*
X10834200Y17032200D01*
G75*
G02*
X10584200Y16782200I-250000J0D01*
G01*
X9634200Y16782200D01*
G75*
G02*
X9384200Y17032200I0J250000D01*
G01*
X9384200Y17707200D01*
G75*
G02*
X9634200Y17957200I250000J0D01*
G01*
G37*
%TD*%
%TO.C,C3*%
G36*
G01*
X30625200Y14269700D02*
X30625200Y15219700D01*
G75*
G02*
X30875200Y15469700I250000J0D01*
G01*
X31550200Y15469700D01*
G75*
G02*
X31800200Y15219700I0J-250000D01*
G01*
X31800200Y14269700D01*
G75*
G02*
X31550200Y14019700I-250000J0D01*
G01*
X30875200Y14019700D01*
G75*
G02*
X30625200Y14269700I0J250000D01*
G01*
G37*
G36*
G01*
X28550200Y14269700D02*
X28550200Y15219700D01*
G75*
G02*
X28800200Y15469700I250000J0D01*
G01*
X29475200Y15469700D01*
G75*
G02*
X29725200Y15219700I0J-250000D01*
G01*
X29725200Y14269700D01*
G75*
G02*
X29475200Y14019700I-250000J0D01*
G01*
X28800200Y14019700D01*
G75*
G02*
X28550200Y14269700I0J250000D01*
G01*
G37*
%TD*%
%TO.C,C2*%
G36*
G01*
X30625200Y16365200D02*
X30625200Y17315200D01*
G75*
G02*
X30875200Y17565200I250000J0D01*
G01*
X31550200Y17565200D01*
G75*
G02*
X31800200Y17315200I0J-250000D01*
G01*
X31800200Y16365200D01*
G75*
G02*
X31550200Y16115200I-250000J0D01*
G01*
X30875200Y16115200D01*
G75*
G02*
X30625200Y16365200I0J250000D01*
G01*
G37*
G36*
G01*
X28550200Y16365200D02*
X28550200Y17315200D01*
G75*
G02*
X28800200Y17565200I250000J0D01*
G01*
X29475200Y17565200D01*
G75*
G02*
X29725200Y17315200I0J-250000D01*
G01*
X29725200Y16365200D01*
G75*
G02*
X29475200Y16115200I-250000J0D01*
G01*
X28800200Y16115200D01*
G75*
G02*
X28550200Y16365200I0J250000D01*
G01*
G37*
%TD*%
%TO.C,C1*%
G36*
G01*
X30625200Y18460700D02*
X30625200Y19410700D01*
G75*
G02*
X30875200Y19660700I250000J0D01*
G01*
X31550200Y19660700D01*
G75*
G02*
X31800200Y19410700I0J-250000D01*
G01*
X31800200Y18460700D01*
G75*
G02*
X31550200Y18210700I-250000J0D01*
G01*
X30875200Y18210700D01*
G75*
G02*
X30625200Y18460700I0J250000D01*
G01*
G37*
G36*
G01*
X28550200Y18460700D02*
X28550200Y19410700D01*
G75*
G02*
X28800200Y19660700I250000J0D01*
G01*
X29475200Y19660700D01*
G75*
G02*
X29725200Y19410700I0J-250000D01*
G01*
X29725200Y18460700D01*
G75*
G02*
X29475200Y18210700I-250000J0D01*
G01*
X28800200Y18210700D01*
G75*
G02*
X28550200Y18460700I0J250000D01*
G01*
G37*
%TD*%
M02*
