M48
; DRILL file {KiCad (5.1.8)-1} date 12/24/20 23:30:05
; FORMAT={-:-/ absolute / inch / decimal}
; #@! TF.CreationDate,2020-12-24T23:30:05-07:00
; #@! TF.GenerationSoftware,Kicad,Pcbnew,(5.1.8)-1
FMAT,2
INCH
T1C0.0394
%
G90
G05
T1
X2.0325Y1.7875
X2.0325Y1.6875
X2.0325Y1.5875
X2.0325Y1.4875
X2.0325Y1.3875
X2.0325Y1.2875
X2.0325Y1.1875
X2.0325Y1.0875
X2.0325Y0.9875
X2.0325Y0.8875
X2.0325Y0.7875
X2.0325Y0.6875
X0.9775Y2.2925
X1.0775Y2.2925
X1.1775Y2.2925
X1.2775Y2.2925
X1.3775Y2.2925
X0.625Y0.315
X0.725Y0.315
X0.825Y0.315
X0.925Y0.315
X1.025Y0.315
X1.125Y0.315
X1.225Y0.315
X1.325Y0.315
X1.425Y0.315
X1.525Y0.315
X1.625Y0.315
X1.725Y0.315
X0.32Y1.79
X0.32Y1.69
X0.32Y1.59
X0.32Y1.49
X0.32Y1.39
X0.32Y1.29
X0.32Y1.19
X0.32Y1.09
X0.32Y0.99
X0.32Y0.89
X0.32Y0.79
X0.32Y0.69
X0.65Y2.08
X0.75Y2.08
X0.85Y2.08
X0.95Y2.08
X1.05Y2.08
X1.15Y2.08
X1.25Y2.08
X1.35Y2.08
X1.45Y2.08
X1.55Y2.08
X1.65Y2.08
X1.75Y2.08
T0
M30
