%FSTAX23Y23*%
%MOIN*%
%SFA1B1*%

%IPPOS*%
%ADD15O,0.061020X0.009840*%
%ADD16O,0.009840X0.061020*%
%ADD17R,0.051180X0.027560*%
%ADD18R,0.035830X0.048030*%
%ADD19R,0.035430X0.027560*%
%ADD20R,0.027560X0.035430*%
%ADD21R,0.043310X0.078740*%
%ADD22R,0.053150X0.037400*%
%ADD34R,0.059060X0.059060*%
%ADD35C,0.059060*%
G54D15*
X00913Y00713D03*
Y00693D03*
Y00673D03*
Y00654D03*
Y00634D03*
Y00614D03*
Y00595D03*
Y00575D03*
Y00555D03*
Y00536D03*
Y00516D03*
Y00496D03*
X00596D03*
Y00516D03*
Y00536D03*
Y00555D03*
Y00575D03*
Y00595D03*
Y00614D03*
Y00634D03*
Y00654D03*
Y00673D03*
Y00693D03*
Y00713D03*
G54D16*
X00863Y00446D03*
X00843D03*
X00823D03*
X00804D03*
X00784D03*
X00764D03*
X00745D03*
X00725D03*
X00705D03*
X00686D03*
X00666D03*
X00646D03*
Y00763D03*
X00666D03*
X00686D03*
X00705D03*
X00725D03*
X00745D03*
X00764D03*
X00784D03*
X00804D03*
X00823D03*
X00843D03*
X00863D03*
G54D17*
X01029Y011D03*
Y01137D03*
Y01175D03*
X00935D03*
Y011D03*
G54D18*
X0104Y013D03*
X00911D03*
G54D19*
X00995Y00633D03*
Y00692D03*
G54D20*
X00742Y00882D03*
X00802D03*
G54D21*
X01141Y013D03*
X01243D03*
G54D22*
X0101Y00177D03*
Y00236D03*
X00845Y00176D03*
Y00235D03*
X00679Y00176D03*
Y00235D03*
X00527Y00178D03*
Y00237D03*
X0093Y0092D03*
Y00979D03*
X0115Y0092D03*
Y0098D03*
G54D34*
X00581Y01184D03*
X0023Y0131D03*
Y00565D03*
X01257Y00775D03*
X01309Y00906D03*
G54D35*
X00581Y01284D03*
X0033Y0101D03*
X0023D03*
X0033Y0111D03*
X0023D03*
X0033Y0121D03*
X0023D03*
X0033Y0131D03*
Y00265D03*
X0023D03*
X0033Y00365D03*
X0023D03*
X0033Y00465D03*
X0023D03*
X0033Y00565D03*
X01257Y00375D03*
Y00475D03*
Y00575D03*
Y00675D03*
X01309Y01206D03*
Y01106D03*
Y01006D03*
M02*