%FSTAX23Y23*%
%MOIN*%
%SFA1B1*%

%IPPOS*%
%ADD34R,0.059060X0.059060*%
%ADD35C,0.059060*%
%ADD36C,0.050000*%
%ADD39C,0.005000*%
G54D39*
X0151Y00106D02*
X01523Y00092D01*
X01513Y00082*
X00998*
X00998Y00083*
X00999Y00084*
X01007Y0009*
X01013Y00098*
X01017Y00107*
X01018Y00114*
X00943*
X00944Y00107*
X00948Y00098*
X00954Y0009*
X00962Y00084*
X00963Y00083*
X00963Y00082*
X00842*
X00842Y00084*
X00843Y00085*
X00849Y00093*
X00853Y00102*
X00854Y00109*
X00779*
X0078Y00102*
X00784Y00093*
X0079Y00085*
X00791Y00084*
X00791Y00082*
X00673*
X00673Y00084*
X00674Y00085*
X0068Y00093*
X00684Y00102*
X00685Y00109*
X0061*
X00611Y00102*
X00615Y00093*
X00621Y00085*
X00622Y00084*
X00622Y00082*
X00522*
X00521Y00084*
X00524Y00086*
X0053Y00094*
X00534Y00103*
X00535Y0011*
X0046*
X00461Y00103*
X00465Y00094*
X00471Y00086*
X00474Y00084*
X00473Y00082*
X00105*
Y01488*
X00106Y0149*
X00109*
X0151*
Y00106*
X00106Y00084D02*
X00473D01*
X00523D02*
X00622D01*
X00674D02*
X00791D01*
X00843D02*
X00961D01*
X01001D02*
X01515D01*
X00106Y00089D02*
X00468D01*
X00529D02*
X00617D01*
X00679D02*
X00786D01*
X00848D02*
X00955D01*
X01008D02*
X0152D01*
X00106Y00094D02*
X00464D01*
X00532D02*
X00614D01*
X00683D02*
X00783D01*
X00852D02*
X0095D01*
X01012D02*
X01521D01*
X00106Y00099D02*
X00462D01*
X00535D02*
X00612D01*
X00685D02*
X00781D01*
X00854D02*
X00947D01*
X01016D02*
X01516D01*
X00106Y00104D02*
X0046D01*
X00536D02*
X0061D01*
X00686D02*
X00779D01*
X00855D02*
X00945D01*
X01018D02*
X01511D01*
X00106Y00109D02*
X0046D01*
X00536D02*
X00943D01*
X01019D02*
X01509D01*
X00106Y00114D02*
X01509D01*
X00106Y00119D02*
X01509D01*
X00106Y00124D02*
X01509D01*
X00106Y00129D02*
X01509D01*
X00106Y00134D02*
X01509D01*
X00106Y00139D02*
X01509D01*
X00106Y00144D02*
X01509D01*
X00106Y00149D02*
X01509D01*
X00106Y00154D02*
X01509D01*
X00106Y00159D02*
X01509D01*
X00106Y00164D02*
X01509D01*
X00106Y00169D02*
X01509D01*
X00106Y00174D02*
X01509D01*
X00106Y00179D02*
X01509D01*
X00106Y00184D02*
X01509D01*
X00106Y00189D02*
X01509D01*
X00106Y00194D02*
X01509D01*
X00106Y00199D02*
X01509D01*
X00106Y00204D02*
X01509D01*
X00106Y00209D02*
X01509D01*
X00106Y00214D02*
X01509D01*
X00106Y00219D02*
X01509D01*
X00106Y00224D02*
X01509D01*
X00106Y00229D02*
X01509D01*
X00106Y00234D02*
X01509D01*
X00106Y00239D02*
X01509D01*
X00106Y00244D02*
X01509D01*
X00106Y00249D02*
X01509D01*
X00106Y00254D02*
X01509D01*
X00106Y00259D02*
X01509D01*
X00106Y00264D02*
X01509D01*
X00106Y00269D02*
X01509D01*
X00106Y00274D02*
X01509D01*
X00106Y00279D02*
X01509D01*
X00106Y00284D02*
X01509D01*
X00106Y00289D02*
X01509D01*
X00106Y00294D02*
X01509D01*
X00106Y00299D02*
X01509D01*
X00106Y00304D02*
X01509D01*
X00106Y00309D02*
X01509D01*
X00106Y00314D02*
X01509D01*
X00106Y00319D02*
X01509D01*
X00106Y00324D02*
X01509D01*
X00106Y00329D02*
X01509D01*
X00106Y00334D02*
X01509D01*
X00106Y00339D02*
X01509D01*
X00106Y00344D02*
X01509D01*
X00106Y00349D02*
X01509D01*
X00106Y00354D02*
X01509D01*
X00106Y00359D02*
X01509D01*
X00106Y00364D02*
X01509D01*
X00106Y00369D02*
X01509D01*
X00106Y00374D02*
X01509D01*
X00106Y00379D02*
X01509D01*
X00106Y00384D02*
X01509D01*
X00106Y00389D02*
X01509D01*
X00106Y00394D02*
X01509D01*
X00106Y00399D02*
X01509D01*
X00106Y00404D02*
X01509D01*
X00106Y00409D02*
X01509D01*
X00106Y00414D02*
X01509D01*
X00106Y00419D02*
X01509D01*
X00106Y00424D02*
X01509D01*
X00106Y00429D02*
X01509D01*
X00106Y00434D02*
X01509D01*
X00106Y00439D02*
X01509D01*
X00106Y00444D02*
X01509D01*
X00106Y00449D02*
X01509D01*
X00106Y00454D02*
X01509D01*
X00106Y00459D02*
X01509D01*
X00106Y00464D02*
X01509D01*
X00106Y00469D02*
X01509D01*
X00106Y00474D02*
X01509D01*
X00106Y00479D02*
X01509D01*
X00106Y00484D02*
X01509D01*
X00106Y00489D02*
X01509D01*
X00106Y00494D02*
X01509D01*
X00106Y00499D02*
X01509D01*
X00106Y00504D02*
X01509D01*
X00106Y00509D02*
X01509D01*
X00106Y00514D02*
X01509D01*
X00106Y00519D02*
X01509D01*
X00106Y00524D02*
X01509D01*
X00106Y00529D02*
X01509D01*
X00106Y00534D02*
X01509D01*
X00106Y00539D02*
X01509D01*
X00106Y00544D02*
X01509D01*
X00106Y00549D02*
X01509D01*
X00106Y00554D02*
X01509D01*
X00106Y00559D02*
X01509D01*
X00106Y00564D02*
X01509D01*
X00106Y00569D02*
X01509D01*
X00106Y00574D02*
X01509D01*
X00106Y00579D02*
X01509D01*
X00106Y00584D02*
X01509D01*
X00106Y00589D02*
X01509D01*
X00106Y00594D02*
X01509D01*
X00106Y00599D02*
X01509D01*
X00106Y00604D02*
X01509D01*
X00106Y00609D02*
X01509D01*
X00106Y00614D02*
X01509D01*
X00106Y00619D02*
X01509D01*
X00106Y00624D02*
X01509D01*
X00106Y00629D02*
X01509D01*
X00106Y00634D02*
X01509D01*
X00106Y00639D02*
X01509D01*
X00106Y00644D02*
X01509D01*
X00106Y00649D02*
X01509D01*
X00106Y00654D02*
X01509D01*
X00106Y00659D02*
X01509D01*
X00106Y00664D02*
X01509D01*
X00106Y00669D02*
X01509D01*
X00106Y00674D02*
X01509D01*
X00106Y00679D02*
X01509D01*
X00106Y00684D02*
X01509D01*
X00106Y00689D02*
X01509D01*
X00106Y00694D02*
X01509D01*
X00106Y00699D02*
X01509D01*
X00106Y00704D02*
X01509D01*
X00106Y00709D02*
X01509D01*
X00106Y00714D02*
X01509D01*
X00106Y00719D02*
X01509D01*
X00106Y00724D02*
X01509D01*
X00106Y00729D02*
X01509D01*
X00106Y00734D02*
X01509D01*
X00106Y00739D02*
X01509D01*
X00106Y00744D02*
X01509D01*
X00106Y00749D02*
X01509D01*
X00106Y00754D02*
X01509D01*
X00106Y00759D02*
X01509D01*
X00106Y00764D02*
X01509D01*
X00106Y00769D02*
X01509D01*
X00106Y00774D02*
X01509D01*
X00106Y00779D02*
X01509D01*
X00106Y00784D02*
X01509D01*
X00106Y00789D02*
X01509D01*
X00106Y00794D02*
X01509D01*
X00106Y00799D02*
X01509D01*
X00106Y00804D02*
X01509D01*
X00106Y00809D02*
X01509D01*
X00106Y00814D02*
X01509D01*
X00106Y00819D02*
X01509D01*
X00106Y00824D02*
X01509D01*
X00106Y00829D02*
X01509D01*
X00106Y00834D02*
X01509D01*
X00106Y00839D02*
X01509D01*
X00106Y00844D02*
X01509D01*
X00106Y00849D02*
X01509D01*
X00106Y00854D02*
X01509D01*
X00106Y00859D02*
X01509D01*
X00106Y00864D02*
X01509D01*
X00106Y00869D02*
X01509D01*
X00106Y00874D02*
X01509D01*
X00106Y00879D02*
X01509D01*
X00106Y00884D02*
X01509D01*
X00106Y00889D02*
X01509D01*
X00106Y00894D02*
X01509D01*
X00106Y00899D02*
X01509D01*
X00106Y00904D02*
X01509D01*
X00106Y00909D02*
X01509D01*
X00106Y00914D02*
X01509D01*
X00106Y00919D02*
X01509D01*
X00106Y00924D02*
X01509D01*
X00106Y00929D02*
X01509D01*
X00106Y00934D02*
X01509D01*
X00106Y00939D02*
X01509D01*
X00106Y00944D02*
X01509D01*
X00106Y00949D02*
X01509D01*
X00106Y00954D02*
X01509D01*
X00106Y00959D02*
X01509D01*
X00106Y00964D02*
X01509D01*
X00106Y00969D02*
X01509D01*
X00106Y00974D02*
X01509D01*
X00106Y00979D02*
X01509D01*
X00106Y00984D02*
X01509D01*
X00106Y00989D02*
X01509D01*
X00106Y00994D02*
X01509D01*
X00106Y00999D02*
X01509D01*
X00106Y01004D02*
X01509D01*
X00106Y01009D02*
X01509D01*
X00106Y01014D02*
X01509D01*
X00106Y01019D02*
X01509D01*
X00106Y01024D02*
X01509D01*
X00106Y01029D02*
X01509D01*
X00106Y01034D02*
X01509D01*
X00106Y01039D02*
X01509D01*
X00106Y01044D02*
X01509D01*
X00106Y01049D02*
X01509D01*
X00106Y01054D02*
X01509D01*
X00106Y01059D02*
X01509D01*
X00106Y01064D02*
X01509D01*
X00106Y01069D02*
X01509D01*
X00106Y01074D02*
X01509D01*
X00106Y01079D02*
X01509D01*
X00106Y01084D02*
X01509D01*
X00106Y01089D02*
X01509D01*
X00106Y01094D02*
X01509D01*
X00106Y01099D02*
X01509D01*
X00106Y01104D02*
X01509D01*
X00106Y01109D02*
X01509D01*
X00106Y01114D02*
X01509D01*
X00106Y01119D02*
X01509D01*
X00106Y01124D02*
X01509D01*
X00106Y01129D02*
X01509D01*
X00106Y01134D02*
X01509D01*
X00106Y01139D02*
X01509D01*
X00106Y01144D02*
X01509D01*
X00106Y01149D02*
X01509D01*
X00106Y01154D02*
X01509D01*
X00106Y01159D02*
X01509D01*
X00106Y01164D02*
X01509D01*
X00106Y01169D02*
X01509D01*
X00106Y01174D02*
X01509D01*
X00106Y01179D02*
X01509D01*
X00106Y01184D02*
X01509D01*
X00106Y01189D02*
X01509D01*
X00106Y01194D02*
X01509D01*
X00106Y01199D02*
X01509D01*
X00106Y01204D02*
X01509D01*
X00106Y01209D02*
X01509D01*
X00106Y01214D02*
X01509D01*
X00106Y01219D02*
X01509D01*
X00106Y01224D02*
X01509D01*
X00106Y01229D02*
X01509D01*
X00106Y01234D02*
X01509D01*
X00106Y01239D02*
X01509D01*
X00106Y01244D02*
X01509D01*
X00106Y01249D02*
X01509D01*
X00106Y01254D02*
X01509D01*
X00106Y01259D02*
X01509D01*
X00106Y01264D02*
X01509D01*
X00106Y01269D02*
X01509D01*
X00106Y01274D02*
X01509D01*
X00106Y01279D02*
X01509D01*
X00106Y01284D02*
X01509D01*
X00106Y01289D02*
X01509D01*
X00106Y01294D02*
X01509D01*
X00106Y01299D02*
X01509D01*
X00106Y01304D02*
X01509D01*
X00106Y01309D02*
X01509D01*
X00106Y01314D02*
X01509D01*
X00106Y01319D02*
X01509D01*
X00106Y01324D02*
X01509D01*
X00106Y01329D02*
X01509D01*
X00106Y01334D02*
X01509D01*
X00106Y01339D02*
X01509D01*
X00106Y01344D02*
X01509D01*
X00106Y01349D02*
X01509D01*
X00106Y01354D02*
X01509D01*
X00106Y01359D02*
X01509D01*
X00106Y01364D02*
X01509D01*
X00106Y01369D02*
X01509D01*
X00106Y01374D02*
X01509D01*
X00106Y01379D02*
X01509D01*
X00106Y01384D02*
X01509D01*
X00106Y01389D02*
X01509D01*
X00106Y01394D02*
X01509D01*
X00106Y01399D02*
X01509D01*
X00106Y01404D02*
X01509D01*
X00106Y01409D02*
X01509D01*
X00106Y01414D02*
X01509D01*
X00106Y01419D02*
X01509D01*
X00106Y01424D02*
X01509D01*
X00106Y01429D02*
X01509D01*
X00106Y01434D02*
X01509D01*
X00106Y01439D02*
X01509D01*
X00106Y01444D02*
X01509D01*
X00106Y01449D02*
X01509D01*
X00106Y01454D02*
X01509D01*
X00106Y01459D02*
X01509D01*
X00106Y01464D02*
X01509D01*
X00106Y01469D02*
X01509D01*
X00106Y01474D02*
X01509D01*
X00106Y01479D02*
X01509D01*
X00106Y01484D02*
X01509D01*
X00106Y01489D02*
X01509D01*
M02*