%FSTAX23Y23*%
%MOIN*%
%SFA1B1*%

%IPPOS*%
%ADD13C,0.010000*%
%ADD15O,0.061020X0.009840*%
%ADD16O,0.009840X0.061020*%
%ADD17R,0.051180X0.027560*%
%ADD18R,0.035830X0.048030*%
%ADD19R,0.035430X0.027560*%
%ADD20R,0.027560X0.035430*%
%ADD21R,0.043310X0.078740*%
%ADD22R,0.053150X0.037400*%
%ADD32C,0.020000*%
%ADD33C,0.015000*%
%ADD34R,0.059060X0.059060*%
%ADD35C,0.059060*%
%ADD36C,0.050000*%
G54D13*
X01227Y00363D02*
X01229Y00365D01*
X0037Y0097D02*
X00528D01*
X0065Y00566D02*
Y00585D01*
X00783Y00378D02*
X0082Y00342D01*
X00804Y00388D02*
X00827Y00365D01*
X00764Y00372D02*
Y00446D01*
X01348Y003D02*
Y00778D01*
X00497Y00265D02*
Y00298D01*
X00648Y00153D02*
X00671Y00176D01*
Y00235D02*
X00679D01*
X00672Y00355D02*
X00706Y00388D01*
X00352Y00467D02*
X00434D01*
X01195Y00272D02*
X01319D01*
X0037Y0021D02*
X0041Y0025D01*
X0023Y00265D02*
X00237Y00272D01*
X0093Y00979D02*
X00935Y00984D01*
X01095Y00337D02*
X01165D01*
X0015Y00532D02*
X00217Y00465D01*
X00128Y00474D02*
Y01203D01*
X00665Y00794D02*
Y00798D01*
X00237Y00975D02*
Y01002D01*
X01257Y00475D02*
X0133Y00402D01*
X01242Y00939D02*
X01309Y01006D01*
X00981Y00156D02*
X01002Y00177D01*
Y00236D02*
X0101D01*
X00706Y00388D02*
Y00416D01*
X00842Y00842D02*
X01002D01*
X00913Y00634D02*
X00913Y00634D01*
X01157Y0031D02*
X01195Y00272D01*
X01327Y00252D02*
X01373Y00297D01*
X0028Y00987D02*
X00325Y00942D01*
X00705Y00845D02*
X00742Y00882D01*
X002Y0021D02*
X0037D01*
X00437Y00517D02*
X00515Y00595D01*
X0098Y01117D02*
X00997Y011D01*
X00843Y00385D02*
X01048D01*
X00522Y00511D02*
X00547Y00536D01*
X00526Y00713D02*
X00596D01*
X0041Y0025D02*
Y00305D01*
X01243Y01282D02*
Y013D01*
X0065Y00256D02*
Y00293D01*
X00498Y00113D02*
Y00154D01*
X00536Y00634D02*
X00596D01*
X00686Y00403D02*
Y00446D01*
X00995Y00718D02*
X01015Y00738D01*
X01082Y00617D02*
Y00762D01*
X00282Y00415D02*
X00312Y00445D01*
X00745Y00792D02*
Y00821D01*
X00594Y00446D02*
X00646D01*
X0059Y00442D02*
X00594Y00446D01*
X00993Y00693D02*
X00995Y00692D01*
X01186Y00251D02*
X01187Y00252D01*
X0028Y00987D02*
Y01059D01*
X0017Y00305D02*
X0023Y00365D01*
X00541Y00575D02*
X00566D01*
X01149Y0092D02*
X0115Y0092D01*
X0098Y01165D02*
X0099Y01175D01*
X0098Y01117D02*
Y01165D01*
X011Y00363D02*
X01227D01*
X01048Y00385D02*
X01095Y00337D01*
X00128Y00474D02*
X00187Y00415D01*
X00522Y00477D02*
Y00511D01*
X00504Y00725D02*
X00514D01*
X00827Y00365D02*
X0104D01*
X00357Y0032D02*
X00436Y004D01*
X01242Y00884D02*
Y00939D01*
X00981Y00257D02*
Y00292D01*
X00817Y00112D02*
Y00152D01*
X00816Y00256D02*
Y00292D01*
X00521Y00178D02*
X00527D01*
X0104Y00365D02*
X01095Y0031D01*
X00666Y00412D02*
Y00421D01*
X00653Y004D02*
X00666Y00412D01*
X01208Y00295D02*
X01309D01*
X0023Y0111D02*
X0028Y01059D01*
X00325Y0121D02*
X0033D01*
X00924Y0078D02*
X00935D01*
X01039Y00977D02*
X0104Y00977D01*
X0099Y01175D02*
X01029D01*
X00966Y00496D02*
X011Y00363D01*
X0033Y0101D02*
X0037Y0097D01*
X00528D02*
X00685Y00812D01*
X00325Y00942D02*
X00521D01*
X0023Y0101D02*
X00237Y01002D01*
X00596Y00555D02*
X00639D01*
X00804Y00388D02*
Y00416D01*
X00497Y00265D02*
X00524Y00237D01*
X00837Y00235D02*
X00845D01*
X0082Y00342D02*
X01027D01*
X00596Y00516D02*
X00662D01*
X00516Y00654D02*
X00536Y00634D01*
X00662Y0038D02*
X00686Y00403D01*
X01002Y00842D02*
X01082Y00762D01*
X00434Y00467D02*
X00541Y00575D01*
X00705Y00792D02*
Y00845D01*
X01095Y0031D02*
X01157D01*
X00745Y00821D02*
X00802Y00878D01*
Y00882*
X0017Y0024D02*
X002Y0021D01*
X00274Y00272D02*
X00322Y0032D01*
X00282Y00517D02*
X00437D01*
X01082Y00617D02*
X01125Y00575D01*
X01165Y00337D02*
X01208Y00295D01*
X00217Y00465D02*
X0023D01*
X0015Y0113D02*
X0023Y0121D01*
X00685Y00793D02*
Y00812D01*
X00646Y00763D02*
Y00792D01*
X00291Y00921D02*
X00517D01*
X00237Y00975D02*
X00291Y00921D01*
X00824Y00404D02*
Y00419D01*
X00516Y00471D02*
X00522Y00477D01*
X0046Y00355D02*
X00672D01*
X0033Y00265D02*
X00445Y0038D01*
X01309Y00906D02*
X01373Y00842D01*
X01319Y00272D02*
X01348Y003D01*
X01309Y00295D02*
X0133Y00315D01*
X00981Y00117D02*
Y00156D01*
X0084Y00176D02*
X00845D01*
X00783Y00378D02*
Y00415D01*
X00662Y00516D02*
X00681Y00535D01*
X00515Y00595D02*
X00567D01*
X0017Y0024D02*
Y00305D01*
X0028Y01255D02*
X00325Y0121D01*
X01125Y00575D02*
X01257D01*
X00929Y0098D02*
X0093Y00979D01*
X01248Y00365D02*
X01257Y00375D01*
X0015Y00532D02*
Y0113D01*
X00128Y01203D02*
X0018Y01255D01*
X0065Y00585D02*
X00686Y00621D01*
X0033Y00365D02*
X00335D01*
X00322Y0032D02*
X00357D01*
X0041Y00305D02*
X0046Y00355D01*
X00817Y00152D02*
X0084Y00176D01*
X00816Y00256D02*
X00837Y00235D01*
X00671Y00176D02*
X00679D01*
X00725Y00693D02*
Y00763D01*
Y00693D02*
X00748Y0067D01*
X00681Y00535D02*
X00692D01*
X01015Y00738D02*
Y00755D01*
X00913Y00634D02*
X00994D01*
X00995Y00633*
X00784Y00415D02*
Y00417D01*
X01153Y00284D02*
X01186Y00251D01*
X01187Y00252D02*
X01327D01*
X0018Y01255D02*
X0028D01*
X0023Y00465D02*
X00282Y00517D01*
X00863Y00763D02*
X00863Y00763D01*
X00913Y00496D02*
X00966D01*
X01229Y00365D02*
X01248D01*
X00187Y00415D02*
X00282D01*
X00517Y00921D02*
X00646Y00792D01*
X00521Y00942D02*
X00665Y00798D01*
X00824Y00404D02*
X00843Y00385D01*
X00639Y00555D02*
X0065Y00566D01*
X00547Y00536D02*
X00596D01*
X00514Y00725D02*
X00526Y00713D01*
X00742Y0035D02*
X00764Y00372D01*
X00436Y004D02*
X00653D01*
X00445Y0038D02*
X00662D01*
X01309Y01206D02*
Y01216D01*
X01373Y00297D02*
Y00842D01*
X01242Y00884D02*
X01348Y00778D01*
X0133Y00315D02*
Y00402D01*
X0065Y00256D02*
X00671Y00235D01*
X00981Y00257D02*
X01002Y00236D01*
X00498Y00154D02*
X00521Y00178D01*
X00648Y00112D02*
Y00153D01*
X00524Y00237D02*
X00527D01*
X01002Y00177D02*
X0101D01*
X01027Y00342D02*
X01085Y00284D01*
X00748Y0066D02*
Y0067D01*
X00506Y00654D02*
X00516D01*
X00783Y00415D02*
X00784Y00415D01*
X00942Y00693D02*
X00993D01*
X00913Y00634D02*
X00913Y00634D01*
X01085Y00284D02*
X01153D01*
X00802Y00882D02*
X00842Y00842D01*
X00237Y00272D02*
X00274D01*
X00995Y00692D02*
Y00718D01*
X00997Y011D02*
X01029D01*
G54D15*
X00913Y00713D03*
Y00693D03*
Y00673D03*
Y00654D03*
Y00634D03*
Y00614D03*
Y00595D03*
Y00575D03*
Y00555D03*
Y00536D03*
Y00516D03*
Y00496D03*
X00596D03*
Y00516D03*
Y00536D03*
Y00555D03*
Y00575D03*
Y00595D03*
Y00614D03*
Y00634D03*
Y00654D03*
Y00673D03*
Y00693D03*
Y00713D03*
G54D16*
X00863Y00446D03*
X00843D03*
X00823D03*
X00804D03*
X00784D03*
X00764D03*
X00745D03*
X00725D03*
X00705D03*
X00686D03*
X00666D03*
X00646D03*
Y00763D03*
X00666D03*
X00686D03*
X00705D03*
X00725D03*
X00745D03*
X00764D03*
X00784D03*
X00804D03*
X00823D03*
X00843D03*
X00863D03*
G54D17*
X01029Y011D03*
Y01137D03*
Y01175D03*
X00935D03*
Y011D03*
G54D18*
X0104Y013D03*
X00911D03*
G54D19*
X00995Y00633D03*
Y00692D03*
G54D20*
X00742Y00882D03*
X00802D03*
G54D21*
X01141Y013D03*
X01243D03*
G54D22*
X0101Y00177D03*
Y00236D03*
X00845Y00176D03*
Y00235D03*
X00679Y00176D03*
Y00235D03*
X00527Y00178D03*
Y00237D03*
X0093Y0092D03*
Y00979D03*
X0115Y0092D03*
Y0098D03*
G54D32*
X0093Y0092D02*
X01039D01*
X01069Y011D02*
X0115Y0102D01*
X00942Y01287D02*
X01029Y012D01*
X01243Y01282D02*
X01309Y01216D01*
X0113Y01137D02*
X0117Y01177D01*
X00596Y0045D02*
Y0049D01*
X0087Y00763D02*
X00907D01*
X00919Y01287D02*
X00942D01*
X00835Y0098D02*
X00929D01*
X0115Y01D02*
Y0102D01*
X01029Y01175D02*
Y012D01*
X00911Y01295D02*
X00919Y01287D01*
X00935Y00984D02*
Y011D01*
X01029D02*
X01069D01*
X00907Y00763D02*
X00924Y0078D01*
X01052Y013D02*
X01127D01*
X00935Y00735D02*
Y0078D01*
X01039Y0092D02*
Y00977D01*
X01052Y01137D02*
X0113D01*
X00918Y00718D02*
X00935Y00735D01*
X01039Y0092D02*
X01149D01*
X00911Y01295D02*
Y013D01*
G54D33*
X00742Y00935D02*
X00787Y0098D01*
X00835*
X00742Y00882D02*
Y00935D01*
G54D34*
X00581Y01184D03*
X0023Y0131D03*
Y00565D03*
X01257Y00775D03*
X01309Y00906D03*
G54D35*
X00581Y01284D03*
X0033Y0101D03*
X0023D03*
X0033Y0111D03*
X0023D03*
X0033Y0121D03*
X0023D03*
X0033Y0131D03*
Y00265D03*
X0023D03*
X0033Y00365D03*
X0023D03*
X0033Y00465D03*
X0023D03*
X0033Y00565D03*
X01257Y00375D03*
Y00475D03*
Y00575D03*
Y00675D03*
X01309Y01206D03*
Y01106D03*
Y01006D03*
G54D36*
X00981Y00292D03*
X00816D03*
X00742Y0035D03*
X00748Y0066D03*
X00835Y0098D03*
X0059Y00442D03*
X00516Y00471D03*
X00504Y00725D03*
X00498Y00113D03*
X00692Y00535D03*
X00506Y00654D03*
X00935Y0078D03*
X01192Y01187D03*
X00648Y00112D03*
X00981Y00117D03*
X00497Y00298D03*
X01015Y00755D03*
X0065Y00293D03*
X0104Y00977D03*
X00686Y00621D03*
X00817Y00112D03*
M02*