G04*
G04 #@! TF.GenerationSoftware,Altium Limited,Altium Designer,20.2.6 (244)*
G04*
G04 Layer_Color=8421504*
%FSLAX25Y25*%
%MOIN*%
G70*
G04*
G04 #@! TF.SameCoordinates,009D9B9B-B68C-4BF6-A67E-57AE18EDBAF9*
G04*
G04*
G04 #@! TF.FilePolarity,Positive*
G04*
G01*
G75*
%ADD18R,0.05315X0.03740*%
%ADD19R,0.06890X0.05906*%
%ADD20R,0.03740X0.05315*%
%ADD21R,0.02756X0.03543*%
%ADD22O,0.06102X0.00984*%
%ADD23O,0.00984X0.06102*%
%ADD24R,0.02756X0.05118*%
%ADD25R,0.03583X0.04803*%
%ADD26R,0.03543X0.02756*%
%ADD27R,0.07874X0.04331*%
D18*
X108900Y74553D02*
D03*
Y68647D02*
D03*
X56500Y35847D02*
D03*
Y41753D02*
D03*
X64200Y29447D02*
D03*
Y35353D02*
D03*
D19*
X39182Y78600D02*
D03*
X24418D02*
D03*
X39382Y64800D02*
D03*
X24618D02*
D03*
X39382Y51100D02*
D03*
X24618D02*
D03*
D20*
X65847Y115800D02*
D03*
X71753D02*
D03*
X65947Y100300D02*
D03*
X71853D02*
D03*
X80153Y88000D02*
D03*
X74247D02*
D03*
D21*
X53453Y64500D02*
D03*
X47547D02*
D03*
X53453Y71300D02*
D03*
X47547D02*
D03*
X47647Y57700D02*
D03*
X53553D02*
D03*
X107947Y61200D02*
D03*
X113853D02*
D03*
D22*
X98347Y69027D02*
D03*
Y67058D02*
D03*
Y65090D02*
D03*
Y63121D02*
D03*
Y61153D02*
D03*
Y59184D02*
D03*
Y57216D02*
D03*
Y55247D02*
D03*
Y53279D02*
D03*
Y51310D02*
D03*
Y49342D02*
D03*
Y47373D02*
D03*
X66654D02*
D03*
Y49342D02*
D03*
Y51310D02*
D03*
Y53279D02*
D03*
Y55247D02*
D03*
Y57216D02*
D03*
Y59184D02*
D03*
Y61153D02*
D03*
Y63121D02*
D03*
Y65090D02*
D03*
Y67058D02*
D03*
Y69027D02*
D03*
D23*
X93327Y42354D02*
D03*
X91358D02*
D03*
X89390D02*
D03*
X87421D02*
D03*
X85453D02*
D03*
X83484D02*
D03*
X81516D02*
D03*
X79547D02*
D03*
X77579D02*
D03*
X75610D02*
D03*
X73642D02*
D03*
X71673D02*
D03*
Y74046D02*
D03*
X73642D02*
D03*
X75610D02*
D03*
X77579D02*
D03*
X79547D02*
D03*
X81516D02*
D03*
X83484D02*
D03*
X85453D02*
D03*
X87421D02*
D03*
X89390D02*
D03*
X91358D02*
D03*
X93327D02*
D03*
D24*
X58140Y106724D02*
D03*
X54400D02*
D03*
X50660D02*
D03*
Y97276D02*
D03*
X58140D02*
D03*
D25*
X31563Y107500D02*
D03*
X44437D02*
D03*
D26*
X86100Y89653D02*
D03*
Y83747D02*
D03*
D27*
X24200Y107482D02*
D03*
Y117718D02*
D03*
M02*
