G04*
G04 #@! TF.GenerationSoftware,Altium Limited,Altium Designer,20.2.6 (244)*
G04*
G04 Layer_Physical_Order=4*
G04 Layer_Color=16711680*
%FSLAX25Y25*%
%MOIN*%
G70*
G04*
G04 #@! TF.SameCoordinates,009D9B9B-B68C-4BF6-A67E-57AE18EDBAF9*
G04*
G04*
G04 #@! TF.FilePolarity,Positive*
G04*
G01*
G75*
%ADD15C,0.01000*%
%ADD40R,0.05906X0.05906*%
%ADD41C,0.05906*%
%ADD42R,0.05906X0.05906*%
%ADD43C,0.13780*%
%ADD44C,0.03150*%
D15*
X85474Y45700D02*
X89674Y49900D01*
X91300D01*
X69244Y45700D02*
X85474D01*
X28964Y88526D02*
X67990Y49500D01*
X83900D01*
X79500Y56700D02*
X93478D01*
X98265Y51913D01*
X86400Y60500D02*
X87000Y59900D01*
X98265Y51913D02*
X118013D01*
X87000Y59900D02*
X119000D01*
X87700Y66300D02*
X90600D01*
X95200Y61700D01*
X27164Y87780D02*
X69244Y45700D01*
X62400Y85500D02*
Y89000D01*
X61200Y90200D02*
X62400Y89000D01*
X66574Y81700D02*
X83700Y98826D01*
X60826Y81700D02*
X66574D01*
X57000Y85526D02*
X60826Y81700D01*
X57000Y85526D02*
Y90000D01*
X72474Y79900D02*
X99961Y107387D01*
X54955Y79900D02*
X72474D01*
X48555Y86300D02*
X54955Y79900D01*
X61200Y90200D02*
Y95500D01*
X70500Y104800D01*
X57674Y94600D02*
X69700Y106626D01*
X51726Y94600D02*
X57674D01*
X47226Y90100D02*
X51726Y94600D01*
X32764Y90100D02*
X47226D01*
X79800Y80600D02*
X110900Y111700D01*
Y117200D01*
X79800Y66802D02*
Y80600D01*
X78000Y81700D02*
X105400Y109100D01*
Y117714D01*
X78000Y72000D02*
Y81700D01*
X99961Y107387D02*
Y116261D01*
X90900Y115873D02*
Y117200D01*
X89200Y114173D02*
X90900Y115873D01*
X89200Y114100D02*
Y114173D01*
X70500Y104800D02*
X79900D01*
X89200Y114100D01*
X69700Y106626D02*
Y110974D01*
X27164Y87780D02*
Y100510D01*
X28964Y88526D02*
Y99764D01*
X38500Y86300D02*
X48555D01*
X27164Y100510D02*
X44300Y117646D01*
Y125100D01*
X28964Y99764D02*
X54300Y125100D01*
X69700Y110974D02*
X85926Y127200D01*
X83700Y101874D02*
X96400Y114574D01*
Y118714D01*
X83700Y98826D02*
Y101874D01*
X119000Y59900D02*
X131600Y72500D01*
X131500Y78900D02*
X131600Y78800D01*
Y72500D02*
Y78800D01*
X124800Y68400D02*
Y82000D01*
X118100Y61700D02*
X124800Y68400D01*
Y82000D02*
X132400Y89600D01*
X85926Y127200D02*
X90900D01*
X99961Y116261D02*
X100900Y117200D01*
X100433Y126733D02*
X100900Y127200D01*
X100433Y122747D02*
Y126733D01*
X96400Y118714D02*
X100433Y122747D01*
X74805Y62773D02*
Y68805D01*
X78000Y72000D01*
X79700Y66702D02*
X79800Y66802D01*
X110433Y126733D02*
X110900Y127200D01*
X110433Y122747D02*
Y126733D01*
X105400Y117714D02*
X110433Y122747D01*
X132400Y99600D02*
X133400D01*
X138400Y94600D01*
X118013Y51913D02*
X138400Y72300D01*
Y94600D01*
X139100Y107400D02*
X146600Y99900D01*
Y30900D02*
Y99900D01*
X132200Y16500D02*
X146600Y30900D01*
X112800Y42400D02*
X116900Y46500D01*
X104638Y42400D02*
X112800D01*
X116900Y46500D02*
X131300D01*
X104419Y42181D02*
X104638Y42400D01*
X95200Y61700D02*
X118100D01*
X123800Y107400D02*
X139100D01*
X100500Y84100D02*
X123800Y107400D01*
X91700Y84100D02*
X100500D01*
X131300Y16500D02*
X132200D01*
X121500Y36300D02*
X131300Y26500D01*
X99100Y36300D02*
X121500D01*
D40*
X131500Y78900D02*
D03*
X131300Y56500D02*
D03*
D41*
X131500Y88900D02*
D03*
Y98900D02*
D03*
X110100Y16100D02*
D03*
X100100Y26100D02*
D03*
Y16100D02*
D03*
X90100Y26100D02*
D03*
Y16100D02*
D03*
X80100Y26100D02*
D03*
Y16100D02*
D03*
X120900Y117200D02*
D03*
X110900Y127200D02*
D03*
Y117200D02*
D03*
X100900Y127200D02*
D03*
Y117200D02*
D03*
X90900Y127200D02*
D03*
Y117200D02*
D03*
X36000Y35500D02*
D03*
X131300Y16500D02*
D03*
Y26500D02*
D03*
Y36500D02*
D03*
Y46500D02*
D03*
X24300Y125100D02*
D03*
X34300D02*
D03*
X44300D02*
D03*
D42*
X110100Y26100D02*
D03*
X120900Y127200D02*
D03*
X26000Y35500D02*
D03*
X54300Y125100D02*
D03*
D43*
X20800Y17800D02*
D03*
X139300Y139200D02*
D03*
D44*
X113832Y55768D02*
D03*
X116400Y68700D02*
D03*
X114800Y77300D02*
D03*
X51300Y113800D02*
D03*
X38500Y86300D02*
D03*
X32764Y90100D02*
D03*
X24400Y71800D02*
D03*
Y57900D02*
D03*
X48400Y37400D02*
D03*
X63600Y22293D02*
D03*
X71900Y32600D02*
D03*
X99100Y36300D02*
D03*
X104409Y42191D02*
D03*
X91300Y49900D02*
D03*
X83900Y49500D02*
D03*
X74805Y62773D02*
D03*
X79700Y66702D02*
D03*
X79500Y56700D02*
D03*
X86400Y60500D02*
D03*
X87700Y66300D02*
D03*
X90676Y83724D02*
D03*
X97900Y90800D02*
D03*
X57000Y90000D02*
D03*
X62400Y85500D02*
D03*
X66500Y91500D02*
D03*
X87500Y100300D02*
D03*
X79700Y100200D02*
D03*
X65900Y108000D02*
D03*
X79900Y115800D02*
D03*
X55700Y28000D02*
D03*
M02*
