G04*
G04 #@! TF.GenerationSoftware,Altium Limited,Altium Designer,20.2.6 (244)*
G04*
G04 Layer_Physical_Order=2*
G04 Layer_Color=36540*
%FSLAX25Y25*%
%MOIN*%
G70*
G04*
G04 #@! TF.SameCoordinates,009D9B9B-B68C-4BF6-A67E-57AE18EDBAF9*
G04*
G04*
G04 #@! TF.FilePolarity,Positive*
G04*
G01*
G75*
%ADD40R,0.05906X0.05906*%
%ADD41C,0.05906*%
%ADD42R,0.05906X0.05906*%
%ADD43C,0.13780*%
%ADD44C,0.03150*%
G36*
X147027Y148273D02*
X150777Y144523D01*
X150350Y12050D01*
X148358Y8715D01*
X12832Y9014D01*
X10300Y12050D01*
Y145400D01*
X13407Y148507D01*
X147027Y148273D01*
D02*
G37*
%LPC*%
G36*
X139300Y146927D02*
X137793Y146779D01*
X136343Y146339D01*
X135007Y145625D01*
X133836Y144664D01*
X132875Y143493D01*
X132161Y142157D01*
X131721Y140708D01*
X131573Y139200D01*
X131721Y137692D01*
X132161Y136243D01*
X132875Y134907D01*
X133836Y133736D01*
X135007Y132775D01*
X136343Y132061D01*
X137793Y131622D01*
X139300Y131473D01*
X140807Y131622D01*
X142257Y132061D01*
X143593Y132775D01*
X144764Y133736D01*
X145725Y134907D01*
X146439Y136243D01*
X146879Y137692D01*
X147027Y139200D01*
X146879Y140708D01*
X146439Y142157D01*
X145725Y143493D01*
X144764Y144664D01*
X143593Y145625D01*
X142257Y146339D01*
X140807Y146779D01*
X139300Y146927D01*
D02*
G37*
G36*
X124653Y130953D02*
X117147D01*
Y123447D01*
X124653D01*
Y130953D01*
D02*
G37*
G36*
X110900Y130985D02*
X109920Y130856D01*
X109007Y130478D01*
X108223Y129876D01*
X107622Y129093D01*
X107244Y128180D01*
X107115Y127200D01*
X107244Y126220D01*
X107622Y125307D01*
X108223Y124523D01*
X109007Y123922D01*
X109920Y123544D01*
X110900Y123415D01*
X111880Y123544D01*
X112793Y123922D01*
X113576Y124523D01*
X114178Y125307D01*
X114556Y126220D01*
X114685Y127200D01*
X114556Y128180D01*
X114178Y129093D01*
X113576Y129876D01*
X112793Y130478D01*
X111880Y130856D01*
X110900Y130985D01*
D02*
G37*
G36*
X100900D02*
X99920Y130856D01*
X99007Y130478D01*
X98224Y129876D01*
X97622Y129093D01*
X97244Y128180D01*
X97115Y127200D01*
X97244Y126220D01*
X97622Y125307D01*
X98224Y124523D01*
X99007Y123922D01*
X99920Y123544D01*
X100900Y123415D01*
X101880Y123544D01*
X102793Y123922D01*
X103577Y124523D01*
X104178Y125307D01*
X104556Y126220D01*
X104685Y127200D01*
X104556Y128180D01*
X104178Y129093D01*
X103577Y129876D01*
X102793Y130478D01*
X101880Y130856D01*
X100900Y130985D01*
D02*
G37*
G36*
X90900D02*
X89920Y130856D01*
X89007Y130478D01*
X88223Y129876D01*
X87622Y129093D01*
X87244Y128180D01*
X87115Y127200D01*
X87244Y126220D01*
X87622Y125307D01*
X88223Y124523D01*
X89007Y123922D01*
X89920Y123544D01*
X90900Y123415D01*
X91880Y123544D01*
X92793Y123922D01*
X93577Y124523D01*
X94178Y125307D01*
X94556Y126220D01*
X94685Y127200D01*
X94556Y128180D01*
X94178Y129093D01*
X93577Y129876D01*
X92793Y130478D01*
X91880Y130856D01*
X90900Y130985D01*
D02*
G37*
G36*
X58053Y128853D02*
X50547D01*
Y121347D01*
X58053D01*
Y128853D01*
D02*
G37*
G36*
X44300Y128885D02*
X43320Y128756D01*
X42407Y128378D01*
X41623Y127777D01*
X41022Y126993D01*
X40644Y126080D01*
X40515Y125100D01*
X40644Y124120D01*
X41022Y123207D01*
X41623Y122424D01*
X42407Y121822D01*
X43320Y121444D01*
X44300Y121315D01*
X45280Y121444D01*
X46193Y121822D01*
X46977Y122424D01*
X47578Y123207D01*
X47956Y124120D01*
X48085Y125100D01*
X47956Y126080D01*
X47578Y126993D01*
X46977Y127777D01*
X46193Y128378D01*
X45280Y128756D01*
X44300Y128885D01*
D02*
G37*
G36*
X34300D02*
X33320Y128756D01*
X32407Y128378D01*
X31624Y127777D01*
X31022Y126993D01*
X30644Y126080D01*
X30515Y125100D01*
X30644Y124120D01*
X31022Y123207D01*
X31624Y122424D01*
X32407Y121822D01*
X33320Y121444D01*
X34300Y121315D01*
X35280Y121444D01*
X36193Y121822D01*
X36977Y122424D01*
X37578Y123207D01*
X37956Y124120D01*
X38085Y125100D01*
X37956Y126080D01*
X37578Y126993D01*
X36977Y127777D01*
X36193Y128378D01*
X35280Y128756D01*
X34300Y128885D01*
D02*
G37*
G36*
X24300D02*
X23320Y128756D01*
X22407Y128378D01*
X21623Y127777D01*
X21022Y126993D01*
X20644Y126080D01*
X20515Y125100D01*
X20644Y124120D01*
X21022Y123207D01*
X21623Y122424D01*
X22407Y121822D01*
X23320Y121444D01*
X24300Y121315D01*
X25280Y121444D01*
X26193Y121822D01*
X26976Y122424D01*
X27578Y123207D01*
X27956Y124120D01*
X28085Y125100D01*
X27956Y126080D01*
X27578Y126993D01*
X26976Y127777D01*
X26193Y128378D01*
X25280Y128756D01*
X24300Y128885D01*
D02*
G37*
G36*
X121400Y121121D02*
Y117700D01*
X124821D01*
X124751Y118232D01*
X124353Y119193D01*
X123719Y120019D01*
X122893Y120653D01*
X121932Y121051D01*
X121400Y121121D01*
D02*
G37*
G36*
X120400Y121121D02*
X119868Y121051D01*
X118907Y120653D01*
X118081Y120019D01*
X117447Y119193D01*
X117049Y118232D01*
X116979Y117700D01*
X120400D01*
Y121121D01*
D02*
G37*
G36*
X110900Y120985D02*
X109920Y120856D01*
X109007Y120478D01*
X108223Y119877D01*
X107622Y119093D01*
X107244Y118180D01*
X107115Y117200D01*
X107244Y116220D01*
X107622Y115307D01*
X108223Y114523D01*
X109007Y113922D01*
X109920Y113544D01*
X110900Y113415D01*
X111880Y113544D01*
X112793Y113922D01*
X113576Y114523D01*
X114178Y115307D01*
X114556Y116220D01*
X114685Y117200D01*
X114556Y118180D01*
X114178Y119093D01*
X113576Y119877D01*
X112793Y120478D01*
X111880Y120856D01*
X110900Y120985D01*
D02*
G37*
G36*
X100900D02*
X99920Y120856D01*
X99007Y120478D01*
X98224Y119877D01*
X97622Y119093D01*
X97244Y118180D01*
X97115Y117200D01*
X97244Y116220D01*
X97622Y115307D01*
X98224Y114523D01*
X99007Y113922D01*
X99920Y113544D01*
X100900Y113415D01*
X101880Y113544D01*
X102793Y113922D01*
X103577Y114523D01*
X104178Y115307D01*
X104556Y116220D01*
X104685Y117200D01*
X104556Y118180D01*
X104178Y119093D01*
X103577Y119877D01*
X102793Y120478D01*
X101880Y120856D01*
X100900Y120985D01*
D02*
G37*
G36*
X90900D02*
X89920Y120856D01*
X89007Y120478D01*
X88223Y119877D01*
X87622Y119093D01*
X87244Y118180D01*
X87115Y117200D01*
X87244Y116220D01*
X87622Y115307D01*
X88223Y114523D01*
X89007Y113922D01*
X89920Y113544D01*
X90900Y113415D01*
X91880Y113544D01*
X92793Y113922D01*
X93577Y114523D01*
X94178Y115307D01*
X94556Y116220D01*
X94685Y117200D01*
X94556Y118180D01*
X94178Y119093D01*
X93577Y119877D01*
X92793Y120478D01*
X91880Y120856D01*
X90900Y120985D01*
D02*
G37*
G36*
X79900Y118221D02*
X78973Y118037D01*
X78188Y117512D01*
X77663Y116727D01*
X77479Y115800D01*
X77663Y114873D01*
X78188Y114088D01*
X78973Y113563D01*
X79900Y113379D01*
X80827Y113563D01*
X81612Y114088D01*
X82137Y114873D01*
X82321Y115800D01*
X82137Y116727D01*
X81612Y117512D01*
X80827Y118037D01*
X79900Y118221D01*
D02*
G37*
G36*
X120400Y116700D02*
X116979D01*
X117049Y116168D01*
X117447Y115207D01*
X118081Y114381D01*
X118907Y113747D01*
X119868Y113349D01*
X120400Y113279D01*
Y116700D01*
D02*
G37*
G36*
X124821D02*
X121400D01*
Y113279D01*
X121932Y113349D01*
X122893Y113747D01*
X123719Y114381D01*
X124353Y115207D01*
X124751Y116168D01*
X124821Y116700D01*
D02*
G37*
G36*
X51300Y116221D02*
X50373Y116037D01*
X49588Y115512D01*
X49063Y114727D01*
X48879Y113800D01*
X49063Y112873D01*
X49588Y112088D01*
X50373Y111563D01*
X51300Y111379D01*
X52227Y111563D01*
X53012Y112088D01*
X53537Y112873D01*
X53721Y113800D01*
X53537Y114727D01*
X53012Y115512D01*
X52227Y116037D01*
X51300Y116221D01*
D02*
G37*
G36*
X66400Y110531D02*
Y108500D01*
X68431D01*
X68409Y108672D01*
X68149Y109299D01*
X67736Y109836D01*
X67198Y110249D01*
X66572Y110509D01*
X66400Y110531D01*
D02*
G37*
G36*
X65400D02*
X65228Y110509D01*
X64601Y110249D01*
X64064Y109836D01*
X63651Y109299D01*
X63392Y108672D01*
X63369Y108500D01*
X65400D01*
Y110531D01*
D02*
G37*
G36*
X68431Y107500D02*
X66400D01*
Y105469D01*
X66572Y105491D01*
X67198Y105751D01*
X67736Y106164D01*
X68149Y106702D01*
X68409Y107328D01*
X68431Y107500D01*
D02*
G37*
G36*
X65400D02*
X63369D01*
X63392Y107328D01*
X63651Y106702D01*
X64064Y106164D01*
X64601Y105751D01*
X65228Y105491D01*
X65400Y105469D01*
Y107500D01*
D02*
G37*
G36*
X87500Y102721D02*
X86573Y102537D01*
X85788Y102012D01*
X85263Y101227D01*
X85079Y100300D01*
X85263Y99373D01*
X85788Y98588D01*
X86573Y98063D01*
X87500Y97879D01*
X88427Y98063D01*
X89212Y98588D01*
X89737Y99373D01*
X89921Y100300D01*
X89737Y101227D01*
X89212Y102012D01*
X88427Y102537D01*
X87500Y102721D01*
D02*
G37*
G36*
X79700Y102621D02*
X78773Y102437D01*
X77988Y101912D01*
X77463Y101127D01*
X77279Y100200D01*
X77463Y99273D01*
X77988Y98488D01*
X78773Y97963D01*
X79700Y97779D01*
X80627Y97963D01*
X81412Y98488D01*
X81937Y99273D01*
X82121Y100200D01*
X81937Y101127D01*
X81412Y101912D01*
X80627Y102437D01*
X79700Y102621D01*
D02*
G37*
G36*
X131500Y102685D02*
X130520Y102556D01*
X129607Y102178D01*
X128823Y101576D01*
X128222Y100793D01*
X127844Y99880D01*
X127715Y98900D01*
X127844Y97920D01*
X128222Y97007D01*
X128823Y96223D01*
X129607Y95622D01*
X130520Y95244D01*
X131500Y95115D01*
X132480Y95244D01*
X133393Y95622D01*
X134177Y96223D01*
X134778Y97007D01*
X135156Y97920D01*
X135285Y98900D01*
X135156Y99880D01*
X134778Y100793D01*
X134177Y101576D01*
X133393Y102178D01*
X132480Y102556D01*
X131500Y102685D01*
D02*
G37*
G36*
X67000Y94031D02*
Y92000D01*
X69031D01*
X69008Y92172D01*
X68749Y92799D01*
X68336Y93336D01*
X67799Y93749D01*
X67172Y94008D01*
X67000Y94031D01*
D02*
G37*
G36*
X66000D02*
X65828Y94008D01*
X65201Y93749D01*
X64664Y93336D01*
X64251Y92799D01*
X63991Y92172D01*
X63969Y92000D01*
X66000D01*
Y94031D01*
D02*
G37*
G36*
X98400Y93331D02*
Y91300D01*
X100431D01*
X100408Y91472D01*
X100149Y92098D01*
X99736Y92636D01*
X99199Y93049D01*
X98572Y93309D01*
X98400Y93331D01*
D02*
G37*
G36*
X97400D02*
X97228Y93309D01*
X96601Y93049D01*
X96064Y92636D01*
X95651Y92098D01*
X95391Y91472D01*
X95369Y91300D01*
X97400D01*
Y93331D01*
D02*
G37*
G36*
X69031Y91000D02*
X67000D01*
Y88969D01*
X67172Y88991D01*
X67799Y89251D01*
X68336Y89664D01*
X68749Y90201D01*
X69008Y90828D01*
X69031Y91000D01*
D02*
G37*
G36*
X66000D02*
X63969D01*
X63991Y90828D01*
X64251Y90201D01*
X64664Y89664D01*
X65201Y89251D01*
X65828Y88991D01*
X66000Y88969D01*
Y91000D01*
D02*
G37*
G36*
X100431Y90300D02*
X98400D01*
Y88269D01*
X98572Y88292D01*
X99199Y88551D01*
X99736Y88964D01*
X100149Y89502D01*
X100408Y90128D01*
X100431Y90300D01*
D02*
G37*
G36*
X97400D02*
X95369D01*
X95391Y90128D01*
X95651Y89502D01*
X96064Y88964D01*
X96601Y88551D01*
X97228Y88292D01*
X97400Y88269D01*
Y90300D01*
D02*
G37*
G36*
X32764Y92521D02*
X31837Y92337D01*
X31052Y91812D01*
X30527Y91027D01*
X30343Y90100D01*
X30527Y89173D01*
X31052Y88388D01*
X31837Y87863D01*
X32764Y87679D01*
X33691Y87863D01*
X34476Y88388D01*
X35001Y89173D01*
X35185Y90100D01*
X35001Y91027D01*
X34476Y91812D01*
X33691Y92337D01*
X32764Y92521D01*
D02*
G37*
G36*
X57000Y92421D02*
X56073Y92237D01*
X55288Y91712D01*
X54763Y90927D01*
X54579Y90000D01*
X54763Y89073D01*
X55288Y88288D01*
X56073Y87763D01*
X57000Y87579D01*
X57927Y87763D01*
X58712Y88288D01*
X59237Y89073D01*
X59421Y90000D01*
X59237Y90927D01*
X58712Y91712D01*
X57927Y92237D01*
X57000Y92421D01*
D02*
G37*
G36*
X131500Y92685D02*
X130520Y92556D01*
X129607Y92178D01*
X128823Y91576D01*
X128222Y90793D01*
X127844Y89880D01*
X127715Y88900D01*
X127844Y87920D01*
X128222Y87007D01*
X128823Y86224D01*
X129607Y85622D01*
X130520Y85244D01*
X131500Y85115D01*
X132480Y85244D01*
X133393Y85622D01*
X134177Y86224D01*
X134778Y87007D01*
X135156Y87920D01*
X135285Y88900D01*
X135156Y89880D01*
X134778Y90793D01*
X134177Y91576D01*
X133393Y92178D01*
X132480Y92556D01*
X131500Y92685D01*
D02*
G37*
G36*
X38500Y88721D02*
X37573Y88537D01*
X36788Y88012D01*
X36263Y87227D01*
X36079Y86300D01*
X36263Y85373D01*
X36788Y84588D01*
X37573Y84063D01*
X38500Y83879D01*
X39427Y84063D01*
X40212Y84588D01*
X40737Y85373D01*
X40921Y86300D01*
X40737Y87227D01*
X40212Y88012D01*
X39427Y88537D01*
X38500Y88721D01*
D02*
G37*
G36*
X62400Y87921D02*
X61473Y87737D01*
X60688Y87212D01*
X60163Y86427D01*
X59979Y85500D01*
X60163Y84573D01*
X60688Y83788D01*
X61473Y83263D01*
X62400Y83079D01*
X63327Y83263D01*
X64112Y83788D01*
X64637Y84573D01*
X64821Y85500D01*
X64637Y86427D01*
X64112Y87212D01*
X63327Y87737D01*
X62400Y87921D01*
D02*
G37*
G36*
X90676Y86145D02*
X89750Y85961D01*
X88964Y85436D01*
X88439Y84650D01*
X88255Y83724D01*
X88439Y82797D01*
X88964Y82011D01*
X89750Y81487D01*
X90676Y81302D01*
X91603Y81487D01*
X92388Y82011D01*
X92913Y82797D01*
X93098Y83724D01*
X92913Y84650D01*
X92388Y85436D01*
X91603Y85961D01*
X90676Y86145D01*
D02*
G37*
G36*
X115300Y79831D02*
Y77800D01*
X117331D01*
X117308Y77972D01*
X117049Y78598D01*
X116636Y79136D01*
X116098Y79549D01*
X115472Y79808D01*
X115300Y79831D01*
D02*
G37*
G36*
X114300D02*
X114128Y79808D01*
X113502Y79549D01*
X112964Y79136D01*
X112551Y78598D01*
X112292Y77972D01*
X112269Y77800D01*
X114300D01*
Y79831D01*
D02*
G37*
G36*
X135253Y82653D02*
X127747D01*
Y75147D01*
X135253D01*
Y82653D01*
D02*
G37*
G36*
X117331Y76800D02*
X115300D01*
Y74769D01*
X115472Y74792D01*
X116098Y75051D01*
X116636Y75464D01*
X117049Y76002D01*
X117308Y76628D01*
X117331Y76800D01*
D02*
G37*
G36*
X114300D02*
X112269D01*
X112292Y76628D01*
X112551Y76002D01*
X112964Y75464D01*
X113502Y75051D01*
X114128Y74792D01*
X114300Y74769D01*
Y76800D01*
D02*
G37*
G36*
X24400Y74221D02*
X23473Y74037D01*
X22688Y73512D01*
X22163Y72727D01*
X21979Y71800D01*
X22163Y70873D01*
X22688Y70088D01*
X23473Y69563D01*
X24400Y69379D01*
X25327Y69563D01*
X26112Y70088D01*
X26637Y70873D01*
X26821Y71800D01*
X26637Y72727D01*
X26112Y73512D01*
X25327Y74037D01*
X24400Y74221D01*
D02*
G37*
G36*
X116400Y71121D02*
X115473Y70937D01*
X114688Y70412D01*
X114163Y69627D01*
X113979Y68700D01*
X114163Y67773D01*
X114688Y66988D01*
X115473Y66463D01*
X116400Y66279D01*
X117327Y66463D01*
X118112Y66988D01*
X118637Y67773D01*
X118821Y68700D01*
X118637Y69627D01*
X118112Y70412D01*
X117327Y70937D01*
X116400Y71121D01*
D02*
G37*
G36*
X79700Y69124D02*
X78773Y68939D01*
X77988Y68414D01*
X77463Y67629D01*
X77279Y66702D01*
X77463Y65776D01*
X77988Y64990D01*
X78773Y64465D01*
X79700Y64281D01*
X80627Y64465D01*
X81412Y64990D01*
X81937Y65776D01*
X82121Y66702D01*
X81937Y67629D01*
X81412Y68414D01*
X80627Y68939D01*
X79700Y69124D01*
D02*
G37*
G36*
X87700Y68721D02*
X86773Y68537D01*
X85988Y68012D01*
X85463Y67227D01*
X85279Y66300D01*
X85463Y65373D01*
X85988Y64588D01*
X86773Y64063D01*
X87700Y63879D01*
X88627Y64063D01*
X89412Y64588D01*
X89937Y65373D01*
X90121Y66300D01*
X89937Y67227D01*
X89412Y68012D01*
X88627Y68537D01*
X87700Y68721D01*
D02*
G37*
G36*
X74805Y65195D02*
X73878Y65010D01*
X73093Y64486D01*
X72568Y63700D01*
X72383Y62773D01*
X72568Y61847D01*
X73093Y61061D01*
X73878Y60536D01*
X74805Y60352D01*
X75731Y60536D01*
X76517Y61061D01*
X77042Y61847D01*
X77226Y62773D01*
X77042Y63700D01*
X76517Y64486D01*
X75731Y65010D01*
X74805Y65195D01*
D02*
G37*
G36*
X86400Y62921D02*
X85473Y62737D01*
X84688Y62212D01*
X84163Y61427D01*
X83979Y60500D01*
X84163Y59573D01*
X84688Y58788D01*
X85473Y58263D01*
X86400Y58079D01*
X87327Y58263D01*
X88112Y58788D01*
X88637Y59573D01*
X88821Y60500D01*
X88637Y61427D01*
X88112Y62212D01*
X87327Y62737D01*
X86400Y62921D01*
D02*
G37*
G36*
X135253Y60453D02*
X131800D01*
Y57000D01*
X135253D01*
Y60453D01*
D02*
G37*
G36*
X130800D02*
X127347D01*
Y57000D01*
X130800D01*
Y60453D01*
D02*
G37*
G36*
X24400Y60321D02*
X23473Y60137D01*
X22688Y59612D01*
X22163Y58827D01*
X21979Y57900D01*
X22163Y56973D01*
X22688Y56188D01*
X23473Y55663D01*
X24400Y55479D01*
X25327Y55663D01*
X26112Y56188D01*
X26637Y56973D01*
X26821Y57900D01*
X26637Y58827D01*
X26112Y59612D01*
X25327Y60137D01*
X24400Y60321D01*
D02*
G37*
G36*
X79500Y59121D02*
X78573Y58937D01*
X77788Y58412D01*
X77263Y57627D01*
X77079Y56700D01*
X77263Y55773D01*
X77788Y54988D01*
X78573Y54463D01*
X79500Y54279D01*
X80427Y54463D01*
X81212Y54988D01*
X81737Y55773D01*
X81921Y56700D01*
X81737Y57627D01*
X81212Y58412D01*
X80427Y58937D01*
X79500Y59121D01*
D02*
G37*
G36*
X113832Y58190D02*
X112905Y58005D01*
X112120Y57480D01*
X111595Y56695D01*
X111410Y55768D01*
X111595Y54842D01*
X112120Y54056D01*
X112905Y53531D01*
X113832Y53347D01*
X114758Y53531D01*
X115544Y54056D01*
X116069Y54842D01*
X116253Y55768D01*
X116069Y56695D01*
X115544Y57480D01*
X114758Y58005D01*
X113832Y58190D01*
D02*
G37*
G36*
X135253Y56000D02*
X131800D01*
Y52547D01*
X135253D01*
Y56000D01*
D02*
G37*
G36*
X130800D02*
X127347D01*
Y52547D01*
X130800D01*
Y56000D01*
D02*
G37*
G36*
X91300Y52321D02*
X90373Y52137D01*
X89588Y51612D01*
X89063Y50827D01*
X88879Y49900D01*
X89063Y48973D01*
X89588Y48188D01*
X90373Y47663D01*
X91300Y47479D01*
X92227Y47663D01*
X93012Y48188D01*
X93537Y48973D01*
X93721Y49900D01*
X93537Y50827D01*
X93012Y51612D01*
X92227Y52137D01*
X91300Y52321D01*
D02*
G37*
G36*
X83900Y51921D02*
X82973Y51737D01*
X82188Y51212D01*
X81663Y50427D01*
X81479Y49500D01*
X81663Y48573D01*
X82188Y47788D01*
X82973Y47263D01*
X83900Y47079D01*
X84827Y47263D01*
X85612Y47788D01*
X86137Y48573D01*
X86321Y49500D01*
X86137Y50427D01*
X85612Y51212D01*
X84827Y51737D01*
X83900Y51921D01*
D02*
G37*
G36*
X131300Y50285D02*
X130320Y50156D01*
X129407Y49778D01*
X128623Y49176D01*
X128022Y48393D01*
X127644Y47480D01*
X127515Y46500D01*
X127644Y45520D01*
X128022Y44607D01*
X128623Y43824D01*
X129407Y43222D01*
X130320Y42844D01*
X131300Y42715D01*
X132280Y42844D01*
X133193Y43222D01*
X133976Y43824D01*
X134578Y44607D01*
X134956Y45520D01*
X135085Y46500D01*
X134956Y47480D01*
X134578Y48393D01*
X133976Y49176D01*
X133193Y49778D01*
X132280Y50156D01*
X131300Y50285D01*
D02*
G37*
G36*
X104409Y44612D02*
X103483Y44427D01*
X102697Y43903D01*
X102172Y43117D01*
X101988Y42191D01*
X102172Y41264D01*
X102697Y40478D01*
X103483Y39954D01*
X104409Y39769D01*
X105336Y39954D01*
X106122Y40478D01*
X106646Y41264D01*
X106831Y42191D01*
X106646Y43117D01*
X106122Y43903D01*
X105336Y44427D01*
X104409Y44612D01*
D02*
G37*
G36*
X48400Y39821D02*
X47473Y39637D01*
X46688Y39112D01*
X46163Y38327D01*
X45979Y37400D01*
X46163Y36473D01*
X46688Y35688D01*
X47473Y35163D01*
X48400Y34979D01*
X49327Y35163D01*
X50112Y35688D01*
X50637Y36473D01*
X50821Y37400D01*
X50637Y38327D01*
X50112Y39112D01*
X49327Y39637D01*
X48400Y39821D01*
D02*
G37*
G36*
X99100Y38721D02*
X98173Y38537D01*
X97388Y38012D01*
X96863Y37227D01*
X96679Y36300D01*
X96863Y35373D01*
X97388Y34588D01*
X98173Y34063D01*
X99100Y33879D01*
X100027Y34063D01*
X100812Y34588D01*
X101337Y35373D01*
X101521Y36300D01*
X101337Y37227D01*
X100812Y38012D01*
X100027Y38537D01*
X99100Y38721D01*
D02*
G37*
G36*
X72400Y35131D02*
Y33100D01*
X74431D01*
X74409Y33272D01*
X74149Y33898D01*
X73736Y34436D01*
X73198Y34849D01*
X72572Y35109D01*
X72400Y35131D01*
D02*
G37*
G36*
X71400D02*
X71228Y35109D01*
X70601Y34849D01*
X70064Y34436D01*
X69651Y33898D01*
X69392Y33272D01*
X69369Y33100D01*
X71400D01*
Y35131D01*
D02*
G37*
G36*
X131300Y40285D02*
X130320Y40156D01*
X129407Y39778D01*
X128623Y39176D01*
X128022Y38393D01*
X127644Y37480D01*
X127515Y36500D01*
X127644Y35520D01*
X128022Y34607D01*
X128623Y33823D01*
X129407Y33222D01*
X130320Y32844D01*
X131300Y32715D01*
X132280Y32844D01*
X133193Y33222D01*
X133976Y33823D01*
X134578Y34607D01*
X134956Y35520D01*
X135085Y36500D01*
X134956Y37480D01*
X134578Y38393D01*
X133976Y39176D01*
X133193Y39778D01*
X132280Y40156D01*
X131300Y40285D01*
D02*
G37*
G36*
X29753Y39253D02*
X22247D01*
Y31747D01*
X29753D01*
Y39253D01*
D02*
G37*
G36*
X36000Y39285D02*
X35020Y39156D01*
X34107Y38778D01*
X33323Y38177D01*
X32722Y37393D01*
X32344Y36480D01*
X32215Y35500D01*
X32344Y34520D01*
X32722Y33607D01*
X33323Y32824D01*
X34107Y32222D01*
X35020Y31844D01*
X36000Y31715D01*
X36980Y31844D01*
X37893Y32222D01*
X38677Y32824D01*
X39278Y33607D01*
X39656Y34520D01*
X39785Y35500D01*
X39656Y36480D01*
X39278Y37393D01*
X38677Y38177D01*
X37893Y38778D01*
X36980Y39156D01*
X36000Y39285D01*
D02*
G37*
G36*
X74431Y32100D02*
X72400D01*
Y30069D01*
X72572Y30092D01*
X73198Y30351D01*
X73736Y30764D01*
X74149Y31302D01*
X74409Y31928D01*
X74431Y32100D01*
D02*
G37*
G36*
X71400D02*
X69369D01*
X69392Y31928D01*
X69651Y31302D01*
X70064Y30764D01*
X70601Y30351D01*
X71228Y30092D01*
X71400Y30069D01*
Y32100D01*
D02*
G37*
G36*
X56200Y30531D02*
Y28500D01*
X58231D01*
X58209Y28672D01*
X57949Y29298D01*
X57536Y29836D01*
X56998Y30249D01*
X56372Y30509D01*
X56200Y30531D01*
D02*
G37*
G36*
X55200D02*
X55028Y30509D01*
X54401Y30249D01*
X53864Y29836D01*
X53451Y29298D01*
X53192Y28672D01*
X53169Y28500D01*
X55200D01*
Y30531D01*
D02*
G37*
G36*
X58231Y27500D02*
X56200D01*
Y25469D01*
X56372Y25491D01*
X56998Y25751D01*
X57536Y26164D01*
X57949Y26702D01*
X58209Y27328D01*
X58231Y27500D01*
D02*
G37*
G36*
X55200D02*
X53169D01*
X53192Y27328D01*
X53451Y26702D01*
X53864Y26164D01*
X54401Y25751D01*
X55028Y25491D01*
X55200Y25469D01*
Y27500D01*
D02*
G37*
G36*
X131300Y30285D02*
X130320Y30156D01*
X129407Y29778D01*
X128623Y29177D01*
X128022Y28393D01*
X127644Y27480D01*
X127515Y26500D01*
X127644Y25520D01*
X128022Y24607D01*
X128623Y23823D01*
X129407Y23222D01*
X130320Y22844D01*
X131300Y22715D01*
X132280Y22844D01*
X133193Y23222D01*
X133976Y23823D01*
X134578Y24607D01*
X134956Y25520D01*
X135085Y26500D01*
X134956Y27480D01*
X134578Y28393D01*
X133976Y29177D01*
X133193Y29778D01*
X132280Y30156D01*
X131300Y30285D01*
D02*
G37*
G36*
X113853Y29853D02*
X106347D01*
Y22347D01*
X113853D01*
Y29853D01*
D02*
G37*
G36*
X100100Y29885D02*
X99120Y29756D01*
X98207Y29378D01*
X97423Y28776D01*
X96822Y27993D01*
X96444Y27080D01*
X96315Y26100D01*
X96444Y25120D01*
X96822Y24207D01*
X97423Y23424D01*
X98207Y22822D01*
X99120Y22444D01*
X100100Y22315D01*
X101080Y22444D01*
X101993Y22822D01*
X102777Y23424D01*
X103378Y24207D01*
X103756Y25120D01*
X103885Y26100D01*
X103756Y27080D01*
X103378Y27993D01*
X102777Y28776D01*
X101993Y29378D01*
X101080Y29756D01*
X100100Y29885D01*
D02*
G37*
G36*
X90100D02*
X89120Y29756D01*
X88207Y29378D01*
X87423Y28776D01*
X86822Y27993D01*
X86444Y27080D01*
X86315Y26100D01*
X86444Y25120D01*
X86822Y24207D01*
X87423Y23424D01*
X88207Y22822D01*
X89120Y22444D01*
X90100Y22315D01*
X91080Y22444D01*
X91993Y22822D01*
X92777Y23424D01*
X93378Y24207D01*
X93756Y25120D01*
X93885Y26100D01*
X93756Y27080D01*
X93378Y27993D01*
X92777Y28776D01*
X91993Y29378D01*
X91080Y29756D01*
X90100Y29885D01*
D02*
G37*
G36*
X80100D02*
X79120Y29756D01*
X78207Y29378D01*
X77424Y28776D01*
X76822Y27993D01*
X76444Y27080D01*
X76315Y26100D01*
X76444Y25120D01*
X76822Y24207D01*
X77424Y23424D01*
X78207Y22822D01*
X79120Y22444D01*
X80100Y22315D01*
X81080Y22444D01*
X81993Y22822D01*
X82776Y23424D01*
X83378Y24207D01*
X83756Y25120D01*
X83885Y26100D01*
X83756Y27080D01*
X83378Y27993D01*
X82776Y28776D01*
X81993Y29378D01*
X81080Y29756D01*
X80100Y29885D01*
D02*
G37*
G36*
X63600Y24714D02*
X62673Y24530D01*
X61888Y24005D01*
X61363Y23219D01*
X61179Y22293D01*
X61363Y21366D01*
X61888Y20580D01*
X62673Y20055D01*
X63600Y19871D01*
X64527Y20055D01*
X65312Y20580D01*
X65837Y21366D01*
X66021Y22293D01*
X65837Y23219D01*
X65312Y24005D01*
X64527Y24530D01*
X63600Y24714D01*
D02*
G37*
G36*
X110600Y20021D02*
Y16600D01*
X114021D01*
X113951Y17132D01*
X113553Y18093D01*
X112919Y18919D01*
X112093Y19553D01*
X111132Y19951D01*
X110600Y20021D01*
D02*
G37*
G36*
X109600Y20021D02*
X109068Y19951D01*
X108107Y19553D01*
X107281Y18919D01*
X106647Y18093D01*
X106249Y17132D01*
X106179Y16600D01*
X109600D01*
Y20021D01*
D02*
G37*
G36*
X131300Y20285D02*
X130320Y20156D01*
X129407Y19778D01*
X128623Y19176D01*
X128022Y18393D01*
X127644Y17480D01*
X127515Y16500D01*
X127644Y15520D01*
X128022Y14607D01*
X128623Y13824D01*
X129407Y13222D01*
X130320Y12844D01*
X131300Y12715D01*
X132280Y12844D01*
X133193Y13222D01*
X133976Y13824D01*
X134578Y14607D01*
X134956Y15520D01*
X135085Y16500D01*
X134956Y17480D01*
X134578Y18393D01*
X133976Y19176D01*
X133193Y19778D01*
X132280Y20156D01*
X131300Y20285D01*
D02*
G37*
G36*
X100100Y19885D02*
X99120Y19756D01*
X98207Y19378D01*
X97423Y18777D01*
X96822Y17993D01*
X96444Y17080D01*
X96315Y16100D01*
X96444Y15120D01*
X96822Y14207D01*
X97423Y13423D01*
X98207Y12822D01*
X99120Y12444D01*
X100100Y12315D01*
X101080Y12444D01*
X101993Y12822D01*
X102777Y13423D01*
X103378Y14207D01*
X103756Y15120D01*
X103885Y16100D01*
X103756Y17080D01*
X103378Y17993D01*
X102777Y18777D01*
X101993Y19378D01*
X101080Y19756D01*
X100100Y19885D01*
D02*
G37*
G36*
X90100D02*
X89120Y19756D01*
X88207Y19378D01*
X87423Y18777D01*
X86822Y17993D01*
X86444Y17080D01*
X86315Y16100D01*
X86444Y15120D01*
X86822Y14207D01*
X87423Y13423D01*
X88207Y12822D01*
X89120Y12444D01*
X90100Y12315D01*
X91080Y12444D01*
X91993Y12822D01*
X92777Y13423D01*
X93378Y14207D01*
X93756Y15120D01*
X93885Y16100D01*
X93756Y17080D01*
X93378Y17993D01*
X92777Y18777D01*
X91993Y19378D01*
X91080Y19756D01*
X90100Y19885D01*
D02*
G37*
G36*
X80100D02*
X79120Y19756D01*
X78207Y19378D01*
X77424Y18777D01*
X76822Y17993D01*
X76444Y17080D01*
X76315Y16100D01*
X76444Y15120D01*
X76822Y14207D01*
X77424Y13423D01*
X78207Y12822D01*
X79120Y12444D01*
X80100Y12315D01*
X81080Y12444D01*
X81993Y12822D01*
X82776Y13423D01*
X83378Y14207D01*
X83756Y15120D01*
X83885Y16100D01*
X83756Y17080D01*
X83378Y17993D01*
X82776Y18777D01*
X81993Y19378D01*
X81080Y19756D01*
X80100Y19885D01*
D02*
G37*
G36*
X109600Y15600D02*
X106179D01*
X106249Y15068D01*
X106647Y14107D01*
X107281Y13281D01*
X108107Y12647D01*
X109068Y12249D01*
X109600Y12179D01*
Y15600D01*
D02*
G37*
G36*
X114021D02*
X110600D01*
Y12179D01*
X111132Y12249D01*
X112093Y12647D01*
X112919Y13281D01*
X113553Y14107D01*
X113951Y15068D01*
X114021Y15600D01*
D02*
G37*
G36*
X20800Y25527D02*
X19293Y25379D01*
X17843Y24939D01*
X16507Y24225D01*
X15336Y23264D01*
X14375Y22093D01*
X13661Y20757D01*
X13221Y19308D01*
X13073Y17800D01*
X13221Y16293D01*
X13661Y14843D01*
X14375Y13507D01*
X15336Y12336D01*
X16507Y11375D01*
X17843Y10661D01*
X19293Y10221D01*
X20800Y10073D01*
X22308Y10221D01*
X23757Y10661D01*
X25093Y11375D01*
X26264Y12336D01*
X27225Y13507D01*
X27939Y14843D01*
X28378Y16293D01*
X28527Y17800D01*
X28378Y19308D01*
X27939Y20757D01*
X27225Y22093D01*
X26264Y23264D01*
X25093Y24225D01*
X23757Y24939D01*
X22308Y25379D01*
X20800Y25527D01*
D02*
G37*
%LPD*%
D40*
X131500Y78900D02*
D03*
X131300Y56500D02*
D03*
D41*
X131500Y88900D02*
D03*
Y98900D02*
D03*
X110100Y16100D02*
D03*
X100100Y26100D02*
D03*
Y16100D02*
D03*
X90100Y26100D02*
D03*
Y16100D02*
D03*
X80100Y26100D02*
D03*
Y16100D02*
D03*
X120900Y117200D02*
D03*
X110900Y127200D02*
D03*
Y117200D02*
D03*
X100900Y127200D02*
D03*
Y117200D02*
D03*
X90900Y127200D02*
D03*
Y117200D02*
D03*
X36000Y35500D02*
D03*
X131300Y16500D02*
D03*
Y26500D02*
D03*
Y36500D02*
D03*
Y46500D02*
D03*
X24300Y125100D02*
D03*
X34300D02*
D03*
X44300D02*
D03*
D42*
X110100Y26100D02*
D03*
X120900Y127200D02*
D03*
X26000Y35500D02*
D03*
X54300Y125100D02*
D03*
D43*
X20800Y17800D02*
D03*
X139300Y139200D02*
D03*
D44*
X113832Y55768D02*
D03*
X116400Y68700D02*
D03*
X114800Y77300D02*
D03*
X51300Y113800D02*
D03*
X38500Y86300D02*
D03*
X32764Y90100D02*
D03*
X24400Y71800D02*
D03*
Y57900D02*
D03*
X48400Y37400D02*
D03*
X63600Y22293D02*
D03*
X71900Y32600D02*
D03*
X99100Y36300D02*
D03*
X104409Y42191D02*
D03*
X91300Y49900D02*
D03*
X83900Y49500D02*
D03*
X74805Y62773D02*
D03*
X79700Y66702D02*
D03*
X79500Y56700D02*
D03*
X86400Y60500D02*
D03*
X87700Y66300D02*
D03*
X90676Y83724D02*
D03*
X97900Y90800D02*
D03*
X57000Y90000D02*
D03*
X62400Y85500D02*
D03*
X66500Y91500D02*
D03*
X87500Y100300D02*
D03*
X79700Y100200D02*
D03*
X65900Y108000D02*
D03*
X79900Y115800D02*
D03*
X55700Y28000D02*
D03*
M02*
