G04*
G04 #@! TF.GenerationSoftware,Altium Limited,Altium Designer,20.2.6 (244)*
G04*
G04 Layer_Color=16711935*
%FSLAX25Y25*%
%MOIN*%
G70*
G04*
G04 #@! TF.SameCoordinates,009D9B9B-B68C-4BF6-A67E-57AE18EDBAF9*
G04*
G04*
G04 #@! TF.FilePolarity,Negative*
G04*
G01*
G75*
%ADD34R,0.06306X0.06306*%
%ADD35C,0.06306*%
%ADD36R,0.06306X0.06306*%
%ADD37C,0.14179*%
%ADD38C,0.03550*%
D34*
X131500Y78900D02*
D03*
X131300Y56500D02*
D03*
D35*
X131500Y88900D02*
D03*
Y98900D02*
D03*
X110100Y16100D02*
D03*
X100100Y26100D02*
D03*
Y16100D02*
D03*
X90100Y26100D02*
D03*
Y16100D02*
D03*
X80100Y26100D02*
D03*
Y16100D02*
D03*
X120900Y117200D02*
D03*
X110900Y127200D02*
D03*
Y117200D02*
D03*
X100900Y127200D02*
D03*
Y117200D02*
D03*
X90900Y127200D02*
D03*
Y117200D02*
D03*
X36000Y35500D02*
D03*
X131300Y16500D02*
D03*
Y26500D02*
D03*
Y36500D02*
D03*
Y46500D02*
D03*
X24300Y125100D02*
D03*
X34300D02*
D03*
X44300D02*
D03*
D36*
X110100Y26100D02*
D03*
X120900Y127200D02*
D03*
X26000Y35500D02*
D03*
X54300Y125100D02*
D03*
D37*
X20800Y17800D02*
D03*
X139300Y139200D02*
D03*
D38*
X113832Y55768D02*
D03*
X116400Y68700D02*
D03*
X114800Y77300D02*
D03*
X51300Y113800D02*
D03*
X38500Y86300D02*
D03*
X32764Y90100D02*
D03*
X24400Y71800D02*
D03*
Y57900D02*
D03*
X48400Y37400D02*
D03*
X63600Y22293D02*
D03*
X71900Y32600D02*
D03*
X99100Y36300D02*
D03*
X104409Y42191D02*
D03*
X91300Y49900D02*
D03*
X83900Y49500D02*
D03*
X74805Y62773D02*
D03*
X79700Y66702D02*
D03*
X79500Y56700D02*
D03*
X86400Y60500D02*
D03*
X87700Y66300D02*
D03*
X90676Y83724D02*
D03*
X97900Y90800D02*
D03*
X57000Y90000D02*
D03*
X62400Y85500D02*
D03*
X66500Y91500D02*
D03*
X87500Y100300D02*
D03*
X79700Y100200D02*
D03*
X65900Y108000D02*
D03*
X79900Y115800D02*
D03*
X55700Y28000D02*
D03*
M02*
