G04*
G04 #@! TF.GenerationSoftware,Altium Limited,Altium Designer,20.2.6 (244)*
G04*
G04 Layer_Color=65535*
%FSLAX25Y25*%
%MOIN*%
G70*
G04*
G04 #@! TF.SameCoordinates,009D9B9B-B68C-4BF6-A67E-57AE18EDBAF9*
G04*
G04*
G04 #@! TF.FilePolarity,Positive*
G04*
G01*
G75*
%ADD10C,0.00050*%
%ADD11C,0.00984*%
%ADD12C,0.02362*%
%ADD13C,0.00787*%
%ADD14C,0.00800*%
%ADD15C,0.01000*%
%ADD16C,0.00394*%
%ADD17C,0.00500*%
D10*
X52367Y19634D02*
X52377Y19601D01*
X52377D02*
X52511Y19390D01*
X52511D02*
X52670Y19149D01*
X52858Y18871D01*
X53043Y18593D02*
X52858Y18871D01*
X53192Y18352D02*
X53043Y18593D01*
X53310Y18147D02*
X53192Y18352D01*
X53306Y18112D02*
X53310Y18147D01*
X53269Y18092D02*
X53306Y18112D01*
X53091Y18049D02*
X53269Y18092D01*
X52879Y18003D02*
X53091Y18049D01*
X52635Y17957D02*
X52879Y18003D01*
X51735Y17855D02*
X52635Y17957D01*
X50738Y17852D02*
X51735Y17855D01*
X49343Y17952D02*
X50738Y17852D01*
X46967Y18207D02*
X48154Y18076D01*
X49343Y17952D01*
X46967Y18207D02*
X45682Y18347D01*
X45122Y18385D01*
X44786Y18364D01*
X44523Y18279D01*
X44381Y18196D01*
X44169Y18054D01*
X43933Y17886D01*
X43933D02*
X43706Y17714D01*
X43424Y17506D02*
X43706Y17714D01*
X43191Y17366D02*
X43424Y17506D01*
X42975Y17272D02*
X43191Y17366D01*
X42746Y17211D02*
X42975Y17272D01*
X42471Y17178D02*
X42746Y17211D01*
X41733Y17143D02*
X42471Y17178D01*
X40852Y17112D02*
X41733Y17143D01*
X39887Y17092D02*
X40852Y17112D01*
X39887Y17092D02*
X38717Y17063D01*
X37547Y17015D01*
X37547Y17015D02*
X36098Y16850D01*
Y16850D02*
X35083Y16559D01*
Y16559D02*
X34254Y16085D01*
X34083Y15945D01*
X33908Y15784D01*
X33755Y15628D01*
X33654Y15504D01*
X34685Y16162D02*
X33735Y15490D01*
X35751Y16551D02*
X34685Y16162D01*
X37312Y16760D02*
X36527Y16686D01*
X35751Y16551D01*
X40157Y16872D02*
X39209Y16844D01*
X38260Y16807D01*
X37312Y16760D01*
X40157Y16872D02*
X41137Y16898D01*
X42116Y16930D01*
X42116D02*
X42845Y17010D01*
Y17010D02*
X43336Y17188D01*
X43900Y17564D01*
X44080Y17700D02*
X43900Y17564D01*
X44243Y17816D02*
X44080Y17700D01*
X44382Y17906D02*
X44243Y17816D01*
X44431Y17920D02*
X44382Y17906D01*
X44431Y17920D02*
X44467Y17929D01*
Y17929D02*
X44517Y17958D01*
X44517Y17958D02*
X44568Y18000D01*
X44568Y18000D02*
X44615Y18050D01*
X44804Y18143D02*
X44615Y18050D01*
X45297Y18139D02*
X44804Y18143D01*
X46125Y18068D02*
X45297Y18139D01*
X47767Y17874D02*
X46946Y17973D01*
X46125Y18068D01*
X47767Y17874D02*
X48571Y17785D01*
X49377Y17713D01*
X49377D02*
X50842Y17645D01*
Y17645D02*
X52112Y17668D01*
Y17668D02*
X53114Y17789D01*
X53607Y18261D02*
X53705Y18149D01*
X53466Y18435D02*
X53607Y18261D01*
X53311Y18632D02*
X53466Y18435D01*
X53164Y18826D02*
X53311Y18632D01*
X53004Y19052D02*
X53164Y18826D01*
X52919Y19201D02*
X53004Y19052D01*
X52892Y19299D02*
X52919Y19201D01*
X52918Y19355D02*
X52892Y19299D01*
X53002Y19381D02*
X52918Y19355D01*
X53651Y19415D02*
X53002Y19381D01*
X54402Y19447D02*
X53651Y19415D01*
X55273Y19473D02*
X54402Y19447D01*
X55273Y19473D02*
X56147Y19495D01*
X57020Y19517D01*
X57894Y19539D01*
X57894D02*
X58031Y19599D01*
Y19599D02*
X58007Y19656D01*
X58008D02*
X57161Y19660D01*
X56314Y19664D01*
X55467Y19668D01*
X55467D02*
X54278Y19669D01*
X53278Y19663D01*
X53278D02*
X52386Y19652D01*
X52386D02*
X52367Y19634D01*
X53116Y16811D02*
X52633Y16507D01*
X52633D02*
X52205Y16075D01*
Y16075D02*
X51903Y15606D01*
Y15606D02*
X51811Y15195D01*
X51824Y15122D01*
X51854Y15115D01*
X51854D02*
X51907Y15184D01*
Y15184D02*
X52018Y15391D01*
X52285Y15807D02*
X52018Y15391D01*
X52632Y16188D02*
X52285Y15807D01*
X53016Y16492D02*
X52632Y16188D01*
X53390Y16674D02*
X53016Y16492D01*
X53919Y16757D02*
X53390Y16674D01*
X54449Y16665D02*
X53919Y16757D01*
X55145Y16349D02*
X54449Y16665D01*
X56322Y15653D02*
X55145Y16349D01*
X56322Y15653D02*
X56724Y15429D01*
X57174Y15224D01*
X57591Y15063D01*
X57750Y15061D01*
Y15061D02*
X57754Y15086D01*
X57633Y15170D01*
Y15170D02*
X57460Y15276D01*
Y15276D02*
X57239Y15396D01*
X56973Y15539D02*
X57239Y15396D01*
X56661Y15716D02*
X56973Y15539D01*
X56354Y15897D02*
X56661Y15716D01*
X56104Y16053D02*
X56354Y15897D01*
X56104Y16053D02*
X55416Y16472D01*
X54903Y16726D01*
X54461Y16870D01*
Y16870D02*
X54007Y16936D01*
Y16936D02*
X53714Y16943D01*
X53495Y16928D01*
X53307Y16885D01*
Y16885D02*
X53116Y16811D01*
X36887Y16415D02*
X36456Y16161D01*
X36456Y16161D02*
X36110Y15847D01*
X36110D02*
X35883Y15508D01*
X35807Y15184D01*
X35811Y15077D01*
X35827Y15067D01*
X35854Y15091D01*
X35932Y15240D01*
X36122Y15529D02*
X35932Y15240D01*
X36393Y15816D02*
X36122Y15529D01*
X36696Y16059D02*
X36393Y15816D01*
X36982Y16210D02*
X36696Y16059D01*
X37351Y16298D02*
X36982Y16210D01*
X37735Y16288D02*
X37351Y16298D01*
X38156Y16175D02*
X37735Y16288D01*
X38639Y15954D02*
X38156Y16175D01*
X38639Y15954D02*
X39550Y15475D01*
X39550D02*
X40079Y15216D01*
X40424Y15071D01*
X40599Y15053D01*
X40616Y15118D01*
Y15118D02*
X40371Y15285D01*
Y15285D02*
X39834Y15583D01*
Y15583D02*
X38667Y16188D01*
X38667D02*
X38137Y16420D01*
Y16420D02*
X37677Y16533D01*
Y16533D02*
X37268Y16529D01*
Y16529D02*
X36887Y16415D01*
X44307Y16024D02*
X42930Y16007D01*
X42930D02*
X42146Y15982D01*
X41619Y15953D01*
X41619D02*
X41570Y15899D01*
X41570D02*
X41616Y15792D01*
X41616D02*
X41929Y15496D01*
X42241Y15221D01*
X42241D02*
X42287Y15242D01*
X42279Y15274D01*
X42238Y15348D01*
X42185Y15435D01*
X42122Y15528D01*
X42342Y15756D02*
X42610Y15756D01*
X42610Y15756D02*
X43558Y15766D01*
X43558Y15766D02*
X44683Y15779D01*
X44683D02*
X45943Y15795D01*
X47923Y15818D02*
X46933Y15808D01*
X45943Y15795D01*
X48791Y15809D02*
X47923Y15818D01*
X49347Y15767D02*
X48791Y15809D01*
X49863Y15677D02*
X49347Y15767D01*
X49863Y15677D02*
X50620Y15505D01*
X50620Y15505D02*
X50829Y15464D01*
Y15464D02*
X50883Y15474D01*
X50887Y15507D01*
Y15507D02*
X50827Y15548D01*
X50827D02*
X50643Y15628D01*
X50643Y15628D02*
X50418Y15717D01*
Y15717D02*
X50167Y15807D01*
X49547Y15958D01*
X48786Y16028D01*
X47502Y16048D01*
X47502Y16048D02*
X46437Y16041D01*
X45372Y16034D01*
X44307Y16024D01*
X79302Y139148D02*
X78237Y139141D01*
X77172Y139134D01*
X76107Y139124D01*
X80586Y139128D02*
X79302Y139148D01*
X81347Y139058D02*
X80586Y139128D01*
X81967Y138907D02*
X81347Y139058D01*
X82218Y138817D02*
X81967Y138907D01*
X82442Y138728D02*
X82218Y138816D01*
X82627Y138648D02*
X82442Y138728D01*
X82687Y138607D02*
X82627Y138648D01*
X82683Y138574D02*
X82687Y138607D01*
X82629Y138564D02*
X82683Y138574D01*
X82420Y138605D02*
X82629Y138564D01*
X81663Y138777D02*
X82420Y138605D01*
X81663Y138777D02*
X81147Y138867D01*
X80590Y138909D01*
X79723Y138918D01*
X79723D02*
X78733Y138908D01*
X77743Y138895D01*
X76483Y138879D02*
X77743Y138895D01*
X75358Y138866D02*
X76483Y138879D01*
X74410Y138856D02*
X75358Y138866D01*
X74142Y138856D02*
X74410Y138856D01*
X73985Y138535D02*
X73922Y138628D01*
X74038Y138448D02*
X73985Y138535D01*
X74079Y138374D02*
X74038Y138448D01*
X74087Y138342D02*
X74079Y138374D01*
X74041Y138321D02*
X74087Y138342D01*
X73729Y138596D02*
X74041Y138321D01*
X73416Y138892D02*
X73729Y138596D01*
X73370Y138999D02*
X73416Y138892D01*
X73419Y139053D02*
X73370Y138999D01*
X73946Y139083D02*
X73419Y139053D01*
X74730Y139107D02*
X73946Y139083D01*
X76107Y139124D02*
X74730Y139107D01*
X69068Y139629D02*
X68687Y139515D01*
X69477Y139632D02*
X69068Y139629D01*
X69937Y139521D02*
X69477Y139632D01*
X70467Y139288D02*
X69937Y139521D01*
X71634Y138683D02*
X70467Y139288D01*
X72171Y138385D02*
X71634Y138683D01*
X72416Y138218D02*
X72171Y138385D01*
X72399Y138153D02*
X72416Y138218D01*
X72224Y138171D02*
X72399Y138153D01*
X71879Y138316D02*
X72224Y138171D01*
X71350Y138575D02*
X71879Y138316D01*
X70439Y139054D02*
X71350Y138575D01*
X70439Y139054D02*
X69956Y139275D01*
X69535Y139388D01*
X69151Y139398D01*
X68782Y139310D01*
X68496Y139159D01*
X68193Y138916D01*
X67922Y138629D01*
X67732Y138340D01*
X67654Y138191D02*
X67732Y138340D01*
X67628Y138167D02*
X67654Y138191D01*
X67611Y138177D02*
X67628Y138167D01*
X67607Y138284D02*
X67611Y138177D01*
X67683Y138608D02*
X67607Y138284D01*
X67910Y138947D02*
X67683Y138608D01*
X68256Y139261D02*
X67910Y138947D01*
X68687Y139515D02*
X68256Y139261D01*
X85107Y139986D02*
X84916Y139911D01*
X85295Y140028D02*
X85107Y139986D01*
X85514Y140043D02*
X85295Y140028D01*
X85807Y140036D02*
X85514Y140043D01*
X86261Y139970D02*
X85807Y140036D01*
X86703Y139826D02*
X86261Y139970D01*
X87216Y139572D02*
X86703Y139826D01*
X87904Y139153D02*
X87216Y139572D01*
X87904Y139153D02*
X88155Y138997D01*
X88461Y138816D01*
X88773Y138639D01*
X89039Y138496D01*
X89260Y138376D02*
X89039Y138496D01*
X89433Y138270D02*
X89260Y138376D01*
X89554Y138186D02*
X89433Y138270D01*
X89550Y138161D02*
X89554Y138186D01*
X89390Y138163D02*
X89550Y138161D01*
X88974Y138324D02*
X89390Y138163D01*
X88524Y138529D02*
X88974Y138324D01*
X88122Y138753D02*
X88524Y138529D01*
X88122Y138753D02*
X86945Y139449D01*
X86249Y139765D01*
X85719Y139857D01*
X85190Y139774D01*
X84816Y139592D01*
X84432Y139288D01*
Y139288D02*
X84085Y138907D01*
X84085Y138907D02*
X83818Y138491D01*
X83707Y138284D02*
X83818Y138491D01*
X83654Y138215D02*
X83707Y138284D01*
X83624Y138222D02*
X83654Y138215D01*
X83611Y138295D02*
X83624Y138222D01*
X83703Y138706D02*
X83611Y138295D01*
X84004Y139175D02*
X83703Y138706D01*
X84433Y139607D02*
X84004Y139175D01*
X84916Y139911D02*
X84433Y139607D01*
X84186Y142753D02*
X84167Y142734D01*
X85078Y142763D02*
X84186Y142753D01*
X86078Y142769D02*
X85078Y142763D01*
X87267Y142768D02*
X86078Y142769D01*
X89807Y142756D02*
X88961Y142760D01*
X88114Y142764D01*
X87267Y142768D01*
X89831Y142699D02*
X89807Y142756D01*
X89694Y142640D02*
X89831Y142699D01*
X87073Y142573D02*
X87947Y142595D01*
X88820Y142617D01*
X89694Y142640D01*
X87073Y142573D02*
X86202Y142547D01*
X86202Y142547D02*
X85452Y142515D01*
X85452D02*
X84802Y142481D01*
X84802Y142481D02*
X84719Y142455D01*
Y142455D02*
X84692Y142399D01*
X84692D02*
X84719Y142301D01*
X84804Y142152D01*
X84804D02*
X84964Y141926D01*
X84964D02*
X85111Y141732D01*
X85266Y141535D01*
Y141535D02*
X85407Y141361D01*
X85407Y141361D02*
X85505Y141249D01*
X83912Y140768D02*
X84914Y140889D01*
X82642Y140745D02*
X83912Y140768D01*
X81177Y140813D02*
X82642Y140745D01*
X79567Y140974D02*
X80371Y140884D01*
X81177Y140813D01*
X79567Y140974D02*
X78746Y141073D01*
X77925Y141168D01*
Y141168D02*
X77097Y141239D01*
X76604Y141243D01*
Y141243D02*
X76415Y141150D01*
X76368Y141100D02*
X76415Y141150D01*
X76316Y141058D02*
X76368Y141100D01*
X76267Y141029D02*
X76316Y141058D01*
X76230Y141020D02*
X76267Y141029D01*
X76230Y141020D02*
X76182Y141006D01*
X76043Y140916D01*
X75880Y140800D01*
X75700Y140664D01*
X75136Y140288D02*
X75700Y140664D01*
X74645Y140110D02*
X75136Y140288D01*
X73916Y140030D02*
X74645Y140110D01*
X71957Y139972D02*
X72937Y139998D01*
X73916Y140030D01*
X71957Y139972D02*
X71009Y139944D01*
X70060Y139907D01*
X69112Y139860D01*
X68327Y139786D01*
X67551Y139651D01*
X66485Y139262D01*
X66485D02*
X65535Y138590D01*
X65555Y138728D02*
X65453Y138604D01*
X65708Y138884D02*
X65555Y138728D01*
X65883Y139045D02*
X65708Y138884D01*
X66054Y139185D02*
X65883Y139045D01*
X66883Y139659D02*
X66054Y139185D01*
X67898Y139950D02*
X66883Y139659D01*
X69347Y140115D02*
X67898Y139950D01*
X71687Y140192D02*
X70517Y140163D01*
X69347Y140115D01*
X71687Y140192D02*
X72652Y140213D01*
X72652D02*
X73533Y140243D01*
X73533Y140243D02*
X74271Y140278D01*
X74271Y140278D02*
X74546Y140311D01*
X74775Y140372D01*
Y140372D02*
X74991Y140466D01*
Y140466D02*
X75224Y140606D01*
X75224D02*
X75506Y140814D01*
X75733Y140986D02*
X75506Y140814D01*
X75969Y141154D02*
X75733Y140986D01*
X76182Y141296D02*
X75969Y141154D01*
X76323Y141378D02*
X76182Y141296D01*
X76586Y141464D02*
X76323Y141378D01*
X76922Y141485D02*
X76586Y141464D01*
X77482Y141447D02*
X76922Y141485D01*
X78767Y141307D02*
X77482Y141447D01*
X78767Y141307D02*
X79954Y141176D01*
X81142Y141052D01*
X81142Y141052D02*
X82538Y140952D01*
X82538Y140952D02*
X83535Y140955D01*
X84435Y141058D01*
X84435D02*
X84679Y141103D01*
X84679D02*
X84891Y141149D01*
Y141149D02*
X85069Y141192D01*
Y141192D02*
X85106Y141212D01*
X85110Y141247D01*
X84992Y141453D01*
X84843Y141693D01*
X84658Y141971D01*
X84470Y142249D02*
X84658Y141971D01*
X84311Y142490D02*
X84470Y142249D01*
X84176Y142701D02*
X84311Y142490D01*
X84167Y142734D02*
X84176Y142701D01*
X33463Y15240D02*
X33654Y15504D01*
X33463Y15240D02*
X33735Y15490D01*
X53114Y17789D02*
X53900Y17937D01*
X53705Y18149D02*
X53900Y17937D01*
X41956Y15760D02*
X42122Y15528D01*
X41956Y15760D02*
X42342Y15756D01*
X73756Y138860D02*
X74142Y138856D01*
X73756Y138860D02*
X73922Y138628D01*
X85505Y141249D02*
X85701Y141037D01*
X84914Y140889D02*
X85701Y141037D01*
X65263Y138340D02*
X65535Y138590D01*
X65263Y138340D02*
X65453Y138604D01*
D11*
X19005Y78600D02*
X18267Y79026D01*
Y78174D01*
X19005Y78600D01*
X19205Y64800D02*
X18466Y65226D01*
Y64374D01*
X19205Y64800D01*
Y51100D02*
X18466Y51526D01*
Y50674D01*
X19205Y51100D01*
X96476Y74046D02*
X95738Y74473D01*
Y73620D01*
X96476Y74046D01*
X62176Y106724D02*
X61437Y107151D01*
Y106298D01*
X62176Y106724D01*
X44929Y102933D02*
X44191Y103359D01*
Y102507D01*
X44929Y102933D01*
D12*
X90965Y65483D02*
X90520Y66407D01*
X89521Y66635D01*
X88719Y65996D01*
Y64971D01*
X89521Y64332D01*
X90520Y64560D01*
X90965Y65483D01*
D13*
X113132Y67269D02*
Y75931D01*
X104668Y67269D02*
Y75931D01*
X29339Y75057D02*
X34261D01*
X29339Y82143D02*
X34261D01*
X29539Y61257D02*
X34461D01*
X29539Y68343D02*
X34461D01*
X29539Y47557D02*
X34461D01*
X29539Y54643D02*
X34461D01*
X52268Y34469D02*
Y43131D01*
X60732Y34469D02*
Y43131D01*
X64469Y120032D02*
X73131D01*
X64469Y111568D02*
X73131D01*
X64569Y104532D02*
X73231D01*
X64569Y96068D02*
X73231D01*
X49713Y63122D02*
X51287D01*
X49713Y65878D02*
X51287D01*
X49713Y69922D02*
X51287D01*
X49713Y72678D02*
X51287D01*
X49813Y59078D02*
X51387D01*
X49813Y56322D02*
X51387D01*
X136500Y73900D02*
Y103900D01*
X126500D02*
X136500D01*
X126500Y73900D02*
Y103900D01*
Y73900D02*
X136500D01*
X75100Y11100D02*
Y31100D01*
X115100Y11100D02*
Y31100D01*
X75100Y11100D02*
X115100D01*
X75100Y31100D02*
X115100D01*
X85900Y112200D02*
Y132200D01*
X125900Y112200D02*
Y132200D01*
X85900Y112200D02*
X125900D01*
X85900Y132200D02*
X125900D01*
X21000Y40500D02*
X41000D01*
X21000Y30500D02*
Y40500D01*
Y30500D02*
X41000D01*
Y40500D01*
X71280Y46979D02*
Y69420D01*
X93721Y46979D02*
Y69420D01*
X71280Y46979D02*
X93721D01*
X71280Y69420D02*
X93721D01*
X60306Y101409D02*
Y102591D01*
X48494Y101409D02*
Y102591D01*
X60306D01*
X48494Y101409D02*
X60306D01*
X34929Y104252D02*
X41071D01*
X34929D02*
Y110748D01*
X41071D01*
Y104252D02*
Y110748D01*
X110113Y62578D02*
X111687D01*
X110113Y59822D02*
X111687D01*
X87478Y85913D02*
Y87487D01*
X84722Y85913D02*
Y87487D01*
X21050Y111124D02*
Y114076D01*
X27350Y111124D02*
Y114076D01*
X59968Y28069D02*
Y36731D01*
X68432Y28069D02*
Y36731D01*
X72869Y83768D02*
X81531D01*
X72869Y92232D02*
X81531D01*
X126300Y61500D02*
X136300D01*
Y11500D02*
Y61500D01*
X126300Y11500D02*
Y61500D01*
Y11500D02*
X136300D01*
X19300Y130100D02*
X59300D01*
X22633Y135100D02*
Y148433D01*
X24300Y150100D01*
X25967Y148433D01*
Y135100D02*
Y148433D01*
X32633Y135100D02*
Y148433D01*
X34300Y150100D01*
X35967Y148433D01*
Y135100D02*
Y148433D01*
X42633Y135100D02*
Y148433D01*
X44300Y150100D01*
X45967Y148433D01*
Y135100D02*
Y148433D01*
X52633Y135100D02*
Y148433D01*
X54300Y150100D01*
X55967Y148433D01*
Y135100D02*
Y148433D01*
X59300Y130100D02*
Y135100D01*
X19300Y130100D02*
Y135100D01*
X59300D01*
D14*
X74100Y13935D02*
X73267Y13102D01*
X71601D01*
X70768Y13935D01*
Y14768D01*
X71601Y15601D01*
X70768Y16434D01*
Y17267D01*
X71601Y18100D01*
X73267D01*
X74100Y17267D01*
Y16434D01*
X73267Y15601D01*
X74100Y14768D01*
Y13935D01*
X73267Y15601D02*
X71601D01*
X71200Y28398D02*
X74532D01*
Y27565D01*
X71200Y24233D01*
Y23400D01*
X116700Y24600D02*
X118366D01*
X117533D01*
Y29598D01*
X116700Y28765D01*
X119932Y12900D02*
X116600D01*
X119932Y16232D01*
Y17065D01*
X119099Y17898D01*
X117433D01*
X116600Y17065D01*
X82000Y118565D02*
X82833Y119398D01*
X84499D01*
X85332Y118565D01*
Y117732D01*
X84499Y116899D01*
X85332Y116066D01*
Y115233D01*
X84499Y114400D01*
X82833D01*
X82000Y115233D01*
Y116066D01*
X82833Y116899D01*
X82000Y117732D01*
Y118565D01*
X82833Y116899D02*
X84499D01*
X82200Y130498D02*
X85532D01*
Y129665D01*
X82200Y126333D01*
Y125500D01*
X128500D02*
X130166D01*
X129333D01*
Y130498D01*
X128500Y129665D01*
X130632Y114400D02*
X127300D01*
X130632Y117732D01*
Y118565D01*
X129799Y119398D01*
X128133D01*
X127300Y118565D01*
D15*
X138499Y48199D02*
X137999Y48699D01*
X137000D01*
X136500Y48199D01*
Y47699D01*
X137000Y47199D01*
X137999D01*
X138499Y46700D01*
Y46200D01*
X137999Y45700D01*
X137000D01*
X136500Y46200D01*
X139499Y48699D02*
Y45700D01*
X140499Y46700D01*
X141498Y45700D01*
Y48699D01*
X144497Y48199D02*
X143998Y48699D01*
X142998D01*
X142498Y48199D01*
Y46200D01*
X142998Y45700D01*
X143998D01*
X144497Y46200D01*
X145497Y48699D02*
Y45700D01*
X147496D01*
X148496Y48699D02*
Y45700D01*
Y46700D01*
X150496Y48699D01*
X148996Y47199D01*
X150496Y45700D01*
X136600Y38699D02*
Y36700D01*
X137600Y35700D01*
X138599Y36700D01*
Y38699D01*
X141598Y38199D02*
X141099Y38699D01*
X140099D01*
X139599Y38199D01*
Y37699D01*
X140099Y37200D01*
X141099D01*
X141598Y36700D01*
Y36200D01*
X141099Y35700D01*
X140099D01*
X139599Y36200D01*
X144597Y38199D02*
X144098Y38699D01*
X143098D01*
X142598Y38199D01*
Y37699D01*
X143098Y37200D01*
X144098D01*
X144597Y36700D01*
Y36200D01*
X144098Y35700D01*
X143098D01*
X142598Y36200D01*
X136700Y56799D02*
Y54800D01*
X137700Y53800D01*
X138699Y54800D01*
Y56799D01*
X139699D02*
Y53800D01*
X141199D01*
X141698Y54300D01*
Y56299D01*
X141199Y56799D01*
X139699D01*
X142698D02*
Y53800D01*
X144198D01*
X144697Y54300D01*
Y56299D01*
X144198Y56799D01*
X142698D01*
X51933Y142171D02*
X48934D01*
Y143670D01*
X49434Y144170D01*
X50434D01*
X50934Y143670D01*
Y142171D01*
Y143170D02*
X51933Y144170D01*
X49934Y145169D02*
X51933Y147169D01*
X50934Y146169D01*
X49934Y147169D01*
X51933Y145169D01*
X39434Y142171D02*
Y144170D01*
Y143170D01*
X42433D01*
X40434Y145169D02*
X42433Y147169D01*
X41434Y146169D01*
X40434Y147169D01*
X42433Y145169D01*
X138799Y27999D02*
X138300Y28499D01*
X137300D01*
X136800Y27999D01*
Y27499D01*
X137300Y27000D01*
X138300D01*
X138799Y26500D01*
Y26000D01*
X138300Y25500D01*
X137300D01*
X136800Y26000D01*
X139799Y28499D02*
Y25500D01*
X140799Y26500D01*
X141798Y25500D01*
Y28499D01*
X142798D02*
Y25500D01*
X144298D01*
X144797Y26000D01*
Y27999D01*
X144298Y28499D01*
X142798D01*
X145797D02*
X146797D01*
X146297D01*
Y25500D01*
X145797D01*
X146797D01*
X149796Y28499D02*
X148796D01*
X148296Y27999D01*
Y26000D01*
X148796Y25500D01*
X149796D01*
X150296Y26000D01*
Y27999D01*
X149796Y28499D01*
X29234Y141870D02*
X28734Y142370D01*
Y143370D01*
X29234Y143870D01*
X31234D01*
X31733Y143370D01*
Y142370D01*
X31234Y141870D01*
X29234D01*
X29734Y144869D02*
X31733Y145869D01*
X29734Y146869D01*
X137200Y14900D02*
Y17899D01*
X139199Y14900D01*
Y17899D01*
X140199Y14900D02*
Y17899D01*
X141699D01*
X142198Y17399D01*
Y16399D01*
X141699Y15900D01*
X140199D01*
X141199D02*
X142198Y14900D01*
X145197Y17399D02*
X144698Y17899D01*
X143698D01*
X143198Y17399D01*
Y16899D01*
X143698Y16399D01*
X144698D01*
X145197Y15900D01*
Y15400D01*
X144698Y14900D01*
X143698D01*
X143198Y15400D01*
X146197Y17899D02*
X148196D01*
X147197D01*
Y14900D01*
X19734Y141771D02*
X19234Y142270D01*
Y143270D01*
X19734Y143770D01*
X20234D01*
X20734Y143270D01*
Y142770D01*
Y143270D01*
X21234Y143770D01*
X21734D01*
X22233Y143270D01*
Y142270D01*
X21734Y141771D01*
X20234Y144770D02*
X22233Y145769D01*
X20234Y146769D01*
X19734Y147768D02*
X19234Y148268D01*
Y149268D01*
X19734Y149768D01*
X20234D01*
X20734Y149268D01*
Y148768D01*
Y149268D01*
X21234Y149768D01*
X21734D01*
X22233Y149268D01*
Y148268D01*
X21734Y147768D01*
X11702Y50099D02*
Y44101D01*
X14701D01*
X15700Y45101D01*
Y49099D01*
X14701Y50099D01*
X11702D01*
X20699Y44101D02*
Y50099D01*
X17700Y47100D01*
X21698D01*
X11702Y63099D02*
Y57101D01*
X14701D01*
X15700Y58101D01*
Y62099D01*
X14701Y63099D01*
X11702D01*
X17700Y62099D02*
X18699Y63099D01*
X20699D01*
X21698Y62099D01*
Y61100D01*
X20699Y60100D01*
X19699D01*
X20699D01*
X21698Y59100D01*
Y58101D01*
X20699Y57101D01*
X18699D01*
X17700Y58101D01*
X11702Y76699D02*
Y70701D01*
X14701D01*
X15700Y71701D01*
Y75699D01*
X14701Y76699D01*
X11702D01*
X21698Y70701D02*
X17700D01*
X21698Y74700D01*
Y75699D01*
X20699Y76699D01*
X18699D01*
X17700Y75699D01*
X138801Y74405D02*
X143799D01*
X144799Y75405D01*
Y77404D01*
X143799Y78404D01*
X138801D01*
X139801Y84402D02*
X138801Y83402D01*
Y81403D01*
X139801Y80403D01*
X140800D01*
X141800Y81403D01*
Y83402D01*
X142800Y84402D01*
X143799D01*
X144799Y83402D01*
Y81403D01*
X143799Y80403D01*
X144799Y86401D02*
X140800D01*
X138801Y88401D01*
X140800Y90400D01*
X144799D01*
X141800D01*
Y86401D01*
X144799Y92399D02*
X138801D01*
Y95398D01*
X139801Y96398D01*
X141800D01*
X142800Y95398D01*
Y92399D01*
Y94399D02*
X144799Y96398D01*
X138801Y98397D02*
Y102396D01*
Y100397D01*
X144799D01*
Y104395D02*
Y106395D01*
Y105395D01*
X138801D01*
X139801Y104395D01*
X21803Y25601D02*
Y29600D01*
X23803Y31599D01*
X25802Y29600D01*
Y25601D01*
Y28600D01*
X21803D01*
X27801Y31599D02*
Y25601D01*
X30800D01*
X31800Y26601D01*
Y30599D01*
X30800Y31599D01*
X27801D01*
X37798Y30599D02*
X36798Y31599D01*
X34799D01*
X33799Y30599D01*
Y26601D01*
X34799Y25601D01*
X36798D01*
X37798Y26601D01*
X39797Y25601D02*
X41797D01*
X40797D01*
Y31599D01*
X39797Y30599D01*
X49002Y116599D02*
Y111601D01*
X50001Y110601D01*
X52001D01*
X53000Y111601D01*
Y116599D01*
X58998Y110601D02*
X55000D01*
X58998Y114600D01*
Y115599D01*
X57999Y116599D01*
X55999D01*
X55000Y115599D01*
X61101Y78299D02*
Y73301D01*
X62101Y72301D01*
X64100D01*
X65100Y73301D01*
Y78299D01*
X67099Y72301D02*
X69099D01*
X68099D01*
Y78299D01*
X67099Y77299D01*
X98303Y133601D02*
Y139599D01*
X101302D01*
X102301Y138599D01*
Y136600D01*
X101302Y135600D01*
X98303D01*
X100302D02*
X102301Y133601D01*
X108299Y139599D02*
X104301D01*
Y136600D01*
X106300D01*
X104301D01*
Y133601D01*
X110299Y138599D02*
X111298Y139599D01*
X113298D01*
X114297Y138599D01*
Y137600D01*
X113298Y136600D01*
X112298D01*
X113298D01*
X114297Y135600D01*
Y134601D01*
X113298Y133601D01*
X111298D01*
X110299Y134601D01*
X98903Y32301D02*
Y38299D01*
X101902D01*
X102901Y37299D01*
Y35300D01*
X101902Y34300D01*
X98903D01*
X100902D02*
X102901Y32301D01*
X108899Y38299D02*
X104901D01*
Y35300D01*
X106900D01*
X104901D01*
Y32301D01*
X114897D02*
X110899D01*
X114897Y36300D01*
Y37299D01*
X113898Y38299D01*
X111898D01*
X110899Y37299D01*
X136301Y67699D02*
X135302Y68699D01*
X133302D01*
X132303Y67699D01*
Y66700D01*
X133302Y65700D01*
X135302D01*
X136301Y64700D01*
Y63701D01*
X135302Y62701D01*
X133302D01*
X132303Y63701D01*
X138301Y68699D02*
Y62701D01*
X140300Y64700D01*
X142299Y62701D01*
Y68699D01*
X144299D02*
Y62701D01*
X147298D01*
X148297Y63701D01*
Y67699D01*
X147298Y68699D01*
X144299D01*
X11201Y129701D02*
Y135699D01*
X14200D01*
X15200Y134699D01*
Y132700D01*
X14200Y131700D01*
X11201D01*
X17199Y129701D02*
X19199D01*
X18199D01*
Y135699D01*
X17199Y134699D01*
X15800Y115699D02*
X11801D01*
Y112700D01*
X13801D01*
X11801D01*
Y109701D01*
X17799D02*
X19799D01*
X18799D01*
Y115699D01*
X17799Y114699D01*
X34201Y117899D02*
Y111901D01*
X37200D01*
X38200Y112901D01*
Y116899D01*
X37200Y117899D01*
X34201D01*
X40199Y111901D02*
X42199D01*
X41199D01*
Y117899D01*
X40199Y116899D01*
X67700Y110299D02*
X66701Y111299D01*
X64701D01*
X63702Y110299D01*
Y106301D01*
X64701Y105301D01*
X66701D01*
X67700Y106301D01*
X73698Y105301D02*
X69700D01*
X73698Y109300D01*
Y110299D01*
X72699Y111299D01*
X70699D01*
X69700Y110299D01*
X69000Y126199D02*
X68000Y127199D01*
X66001D01*
X65001Y126199D01*
Y122201D01*
X66001Y121201D01*
X68000D01*
X69000Y122201D01*
X70999Y121201D02*
X72999D01*
X71999D01*
Y127199D01*
X70999Y126199D01*
D16*
X59368Y54420D02*
X55432D01*
Y56388D01*
X56088Y57044D01*
X57400D01*
X58056Y56388D01*
Y54420D01*
Y55732D02*
X59368Y57044D01*
X55432Y60980D02*
Y58356D01*
X57400D01*
X56744Y59668D01*
Y60324D01*
X57400Y60980D01*
X58712D01*
X59368Y60324D01*
Y59012D01*
X58712Y58356D01*
X59368Y61620D02*
X55432D01*
Y63588D01*
X56088Y64244D01*
X57400D01*
X58056Y63588D01*
Y61620D01*
Y62932D02*
X59368Y64244D01*
Y67524D02*
X55432D01*
X57400Y65556D01*
Y68180D01*
X59268Y68020D02*
X55332D01*
Y69988D01*
X55988Y70644D01*
X57300D01*
X57956Y69988D01*
Y68020D01*
Y69332D02*
X59268Y70644D01*
X55988Y71956D02*
X55332Y72612D01*
Y73924D01*
X55988Y74580D01*
X56644D01*
X57300Y73924D01*
Y73268D01*
Y73924D01*
X57956Y74580D01*
X58612D01*
X59268Y73924D01*
Y72612D01*
X58612Y71956D01*
D17*
X108501Y55800D02*
Y58799D01*
X110000D01*
X110500Y58300D01*
Y57300D01*
X110000Y56800D01*
X108501D01*
X109501D02*
X110500Y55800D01*
X113499D02*
X111500D01*
X113499Y57800D01*
Y58300D01*
X112999Y58799D01*
X112000D01*
X111500Y58300D01*
X88701Y85300D02*
Y88300D01*
X90200D01*
X90700Y87800D01*
Y86800D01*
X90200Y86300D01*
X88701D01*
X89700D02*
X90700Y85300D01*
X91700D02*
X92699D01*
X92199D01*
Y88300D01*
X91700Y87800D01*
X56900Y44300D02*
X57400Y43801D01*
X58399Y43800D01*
X58899Y44300D01*
X58899Y46300D01*
X58399Y46799D01*
X57400Y46799D01*
X56900Y46300D01*
X53901Y43801D02*
X54900Y44300D01*
X55900Y45300D01*
X55900Y46300D01*
X55400Y46799D01*
X54401Y46800D01*
X53901Y46300D01*
X53901Y45800D01*
X54401Y45300D01*
X55900Y45300D01*
X63696Y26798D02*
X63194Y27295D01*
X62195Y27291D01*
X61697Y26790D01*
X61705Y24790D01*
X62207Y24292D01*
X63206Y24296D01*
X63704Y24798D01*
X66693Y27310D02*
X64694Y27301D01*
X64700Y25802D01*
X65697Y26306D01*
X66197Y26308D01*
X66699Y25810D01*
X66703Y24811D01*
X66205Y24309D01*
X65206Y24305D01*
X64704Y24802D01*
X79204Y95402D02*
X78707Y95904D01*
X77707Y95908D01*
X77205Y95410D01*
X77197Y93411D01*
X77694Y92909D01*
X78694Y92905D01*
X79196Y93402D01*
X81693Y92892D02*
X81706Y95891D01*
X80200Y94398D01*
X82199Y94389D01*
X108398Y79072D02*
X107898Y79571D01*
X106898Y79569D01*
X106399Y79068D01*
X106403Y77069D01*
X106903Y76570D01*
X107903Y76572D01*
X108402Y77072D01*
X109398Y79073D02*
X109897Y79574D01*
X110897Y79576D01*
X111397Y79077D01*
X111398Y78577D01*
X110899Y78076D01*
X110399Y78075D01*
X110899Y78076D01*
X111400Y77577D01*
X111401Y77078D01*
X110902Y76577D01*
X109902Y76575D01*
X109402Y77074D01*
M02*
