G04*
G04 #@! TF.GenerationSoftware,Altium Limited,Altium Designer,20.2.6 (244)*
G04*
G04 Layer_Color=32768*
%FSLAX25Y25*%
%MOIN*%
G70*
G04*
G04 #@! TF.SameCoordinates,009D9B9B-B68C-4BF6-A67E-57AE18EDBAF9*
G04*
G04*
G04 #@! TF.FilePolarity,Positive*
G04*
G01*
G75*
%ADD13C,0.00787*%
%ADD16C,0.00394*%
%ADD45C,0.00197*%
D13*
X112247Y66088D02*
Y77112D01*
X105553Y66088D02*
X112247D01*
X105553D02*
Y77112D01*
X112247D01*
X20580Y74663D02*
Y82537D01*
Y74663D02*
X43020D01*
Y82537D01*
X20580D02*
X43020D01*
X20779Y60863D02*
Y68737D01*
Y60863D02*
X43220D01*
Y68737D01*
X20779D02*
X43220D01*
X20779Y47163D02*
Y55037D01*
Y47163D02*
X43220D01*
Y55037D01*
X20779D02*
X43220D01*
X53154Y33288D02*
Y44312D01*
X59847D01*
Y33288D02*
Y44312D01*
X53154Y33288D02*
X59847D01*
X63288Y119147D02*
X74312D01*
Y112453D02*
Y119147D01*
X63288Y112453D02*
X74312D01*
X63288D02*
Y119147D01*
X63388Y103647D02*
X74412D01*
Y96953D02*
Y103647D01*
X63388Y96953D02*
X74412D01*
X63388D02*
Y103647D01*
X19869Y120277D02*
X28531D01*
X19869Y104923D02*
Y120277D01*
Y104923D02*
X28531D01*
Y120277D01*
X60853Y37912D02*
X67546D01*
X60853Y26888D02*
Y37912D01*
Y26888D02*
X67546D01*
Y37912D01*
X71688Y84654D02*
Y91347D01*
Y84654D02*
X82712D01*
Y91347D01*
X71688D02*
X82712D01*
D16*
X55224Y62335D02*
Y66665D01*
X45776Y62335D02*
Y66665D01*
Y62335D02*
X55224D01*
X45776Y66665D02*
X55224D01*
X48630Y64500D02*
X52370D01*
X50500Y62630D02*
Y66370D01*
X55224Y69135D02*
Y73465D01*
X45776Y69135D02*
Y73465D01*
Y69135D02*
X55224D01*
X45776Y73465D02*
X55224D01*
X48630Y71300D02*
X52370D01*
X50500Y69430D02*
Y73170D01*
X45876Y55535D02*
Y59865D01*
X55324Y55535D02*
Y59865D01*
X45876D02*
X55324D01*
X45876Y55535D02*
X55324D01*
X48730Y57700D02*
X52470D01*
X50600Y55830D02*
Y59570D01*
X80532Y58200D02*
X84469D01*
X82500Y56231D02*
Y60168D01*
X54400Y100031D02*
Y103969D01*
X52431Y102000D02*
X56368D01*
X38000Y105532D02*
Y109468D01*
X36031Y107500D02*
X39968D01*
X106176Y59035D02*
Y63365D01*
X115624Y59035D02*
Y63365D01*
X106176D02*
X115624D01*
X106176Y59035D02*
X115624D01*
X109030Y61200D02*
X112770D01*
X110900Y59330D02*
Y63070D01*
X83935Y91424D02*
X88265D01*
X83935Y81976D02*
X88265D01*
Y91424D01*
X83935Y81976D02*
Y91424D01*
X86100Y84830D02*
Y88570D01*
X84230Y86700D02*
X87970D01*
D45*
X63209Y38909D02*
Y77491D01*
X101791Y38909D02*
Y77491D01*
X63209Y38909D02*
X101791D01*
X63209Y77491D02*
X101791D01*
X46526Y111252D02*
X62274D01*
X46526Y92748D02*
X62274D01*
Y111252D01*
X46526Y92748D02*
Y111252D01*
X29378Y103858D02*
Y111142D01*
X46622D01*
Y103858D02*
Y111142D01*
X29378Y103858D02*
X46622D01*
M02*
