G04*
G04 #@! TF.GenerationSoftware,Altium Limited,Altium Designer,20.2.6 (244)*
G04*
G04 Layer_Physical_Order=1*
G04 Layer_Color=255*
%FSLAX25Y25*%
%MOIN*%
G70*
G04*
G04 #@! TF.SameCoordinates,009D9B9B-B68C-4BF6-A67E-57AE18EDBAF9*
G04*
G04*
G04 #@! TF.FilePolarity,Positive*
G04*
G01*
G75*
%ADD15C,0.01000*%
%ADD18R,0.05315X0.03740*%
%ADD19R,0.06890X0.05906*%
%ADD20R,0.03740X0.05315*%
%ADD21R,0.02756X0.03543*%
%ADD22O,0.06102X0.00984*%
%ADD23O,0.00984X0.06102*%
%ADD24R,0.02756X0.05118*%
%ADD25R,0.03583X0.04803*%
%ADD26R,0.03543X0.02756*%
%ADD27R,0.07874X0.04331*%
%ADD39C,0.01575*%
%ADD40R,0.05906X0.05906*%
%ADD41C,0.05906*%
%ADD42R,0.05906X0.05906*%
%ADD43C,0.13780*%
%ADD44C,0.03150*%
D15*
X36000Y35500D02*
Y41000D01*
X26000Y40300D02*
X30400Y44700D01*
X37900Y42900D02*
X46246D01*
X36000Y35500D02*
X36700Y36200D01*
X36000Y41000D02*
X37900Y42900D01*
X26000Y35500D02*
Y40300D01*
X30400Y44700D02*
X45400D01*
X53979Y53279D02*
X66654D01*
X45400Y44700D02*
X53979Y53279D01*
X46246Y42900D02*
X54656Y51310D01*
X66654D01*
X55400Y34447D02*
X56800Y35847D01*
X64987Y35353D02*
X67740Y32600D01*
X71900D01*
X51383Y40383D02*
X55130D01*
X48400Y37400D02*
X51383Y40383D01*
X55700Y28000D02*
Y34147D01*
X55400Y34447D02*
X55700Y34147D01*
X87421Y46021D02*
X91300Y49900D01*
X87421Y42354D02*
Y46021D01*
X83900Y47100D02*
X85445Y45555D01*
X83900Y47100D02*
Y49500D01*
X79500Y44944D02*
Y56700D01*
Y44944D02*
X79539Y44905D01*
X72653Y55247D02*
X79700Y62295D01*
X66654Y55247D02*
X72653D01*
X79700Y62295D02*
Y66702D01*
X86400Y60500D02*
X91360D01*
X94476Y57384D01*
X98178D01*
X98347Y57216D01*
X95214Y59192D02*
X98339D01*
X88106Y66300D02*
X95214Y59192D01*
X87700Y66300D02*
X88106D01*
X79547Y42354D02*
Y45478D01*
X63600Y28847D02*
X64200Y29447D01*
X63600Y22293D02*
Y28847D01*
X56800Y35847D02*
X57287D01*
X56500D02*
X56800D01*
X71535Y91500D02*
X74247Y88787D01*
X66500Y91500D02*
X71535D01*
X62400Y85500D02*
X69779D01*
X75610Y79668D01*
X61026Y81500D02*
X71233D01*
X57000Y85526D02*
X61026Y81500D01*
X57000Y85526D02*
Y90000D01*
X59026Y79700D02*
X69500D01*
X48626Y90100D02*
X59026Y79700D01*
X32764Y90100D02*
X48626D01*
X111047Y68700D02*
X116400D01*
X109947Y67600D02*
X111047Y68700D01*
X108900Y68647D02*
X109947Y67600D01*
X56400Y41853D02*
X56500Y41753D01*
X56400Y41853D02*
Y45100D01*
X60642Y49342D02*
X66654D01*
X56400Y45100D02*
X60642Y49342D01*
X55130Y40383D02*
X56500Y41753D01*
X71005Y64347D02*
X77571Y70914D01*
Y74039D01*
X69786Y61161D02*
X71005Y62379D01*
X66661Y61161D02*
X69786D01*
X66654Y61153D02*
X66661Y61161D01*
X71005Y62379D02*
Y64347D01*
X77571Y74039D02*
X77579Y74046D01*
X90519Y90800D02*
X97900D01*
X89372Y89653D02*
X90519Y90800D01*
X74247Y88000D02*
Y88787D01*
X46837Y86300D02*
X64110Y69027D01*
X38500Y86300D02*
X46837D01*
X77579Y74046D02*
Y83881D01*
X74247Y87213D02*
X77579Y83881D01*
X74247Y87213D02*
Y88000D01*
X86100Y89653D02*
X89372D01*
X79547Y74046D02*
Y88500D01*
X80923Y93823D02*
X87400Y100300D01*
X87600D01*
X79553Y88500D02*
X80923Y89870D01*
Y93823D01*
X57287Y35847D02*
X63705D01*
X64200Y35353D01*
X64987D01*
X65570Y36723D02*
X68523D01*
X64200Y35353D02*
X65570Y36723D01*
X71673Y39810D02*
Y42354D01*
X71665Y39802D02*
X71673Y39810D01*
X71602Y39802D02*
X71665D01*
X68523Y36723D02*
X71602Y39802D01*
X57287Y35847D02*
X60779Y39339D01*
Y44879D01*
X66646Y47365D02*
X66654Y47373D01*
X63265Y47365D02*
X66646D01*
X60779Y44879D02*
X63265Y47365D01*
X65947Y99513D02*
Y100300D01*
X50660Y106724D02*
X51538Y105847D01*
Y103811D02*
Y105847D01*
Y103811D02*
X52484Y102865D01*
X56316D01*
X57262Y103811D01*
Y105847D01*
X58140Y106724D01*
X49884Y107500D02*
X50660Y106724D01*
X31545Y107482D02*
X31563Y107500D01*
X24200Y117718D02*
X24300Y117818D01*
X98347Y67058D02*
X106524D01*
X108113Y68647D01*
X108900D01*
X98347Y69027D02*
X102898D01*
X106743Y72872D01*
Y73183D01*
X108113Y74553D01*
X108900D01*
X110270Y75923D01*
X112340D01*
X113718Y77300D01*
X114800D01*
X93327Y71503D02*
Y74046D01*
Y71503D02*
X95803Y69027D01*
X98347D01*
X113776Y55824D02*
Y61124D01*
Y55824D02*
X113887Y55713D01*
X104400Y42200D02*
X104419Y42181D01*
X70616Y57216D02*
X74805Y61405D01*
Y62773D01*
X66654Y57216D02*
X70616D01*
X113776Y61124D02*
X113853Y61200D01*
X104400Y42200D02*
Y45500D01*
X92300Y36300D02*
X99100D01*
X64110Y69027D02*
X66654D01*
X71233Y81500D02*
X73642Y79091D01*
X69500Y79700D02*
X71673Y77527D01*
Y74046D02*
Y77527D01*
X75610Y74046D02*
Y79668D01*
X73642Y74046D02*
Y79091D01*
X98339Y59192D02*
X98347Y59184D01*
X54043Y65090D02*
X66654D01*
X53453Y64500D02*
X54043Y65090D01*
X112900Y37290D02*
Y48746D01*
X104353Y28742D02*
X112900Y37290D01*
X101449Y29049D02*
X111100Y38700D01*
Y48000D01*
X107790Y51310D02*
X111100Y48000D01*
X100100Y26100D02*
Y27427D01*
X101449Y28776D02*
Y29049D01*
X100100Y27427D02*
X101449Y28776D01*
X108367Y53279D02*
X112900Y48746D01*
X98347Y51310D02*
X107790D01*
X89398Y39202D02*
X92300Y36300D01*
X102527Y47373D02*
X104400Y45500D01*
X98347Y47373D02*
X102527D01*
X100567Y20553D02*
X104353Y24339D01*
Y28742D01*
X98347Y53279D02*
X108367D01*
X90653Y83747D02*
X90700Y83700D01*
X86100Y83747D02*
X90653D01*
X89390Y42354D02*
X89398Y42346D01*
Y39202D02*
Y42346D01*
X85445Y42361D02*
X85453Y42354D01*
X85445Y42361D02*
Y45555D01*
X98347Y61153D02*
X107900D01*
X107947Y61200D01*
X100567Y16567D02*
Y20553D01*
X100100Y16100D02*
X100567Y16567D01*
X24400Y65018D02*
X24618Y64800D01*
X24400Y65018D02*
Y71800D01*
Y64582D02*
X24618Y64800D01*
X24400Y57900D02*
Y64582D01*
Y51318D02*
X24618Y51100D01*
X24400Y51318D02*
Y57900D01*
Y78582D02*
X24418Y78600D01*
X24400Y71800D02*
Y78582D01*
X47547Y71300D02*
Y71694D01*
X43094Y76147D02*
X47547Y71694D01*
X42135Y76147D02*
X43094D01*
X39682Y78600D02*
X42135Y76147D01*
X47647Y57306D02*
Y57700D01*
X43894Y53553D02*
X47647Y57306D01*
X42535Y53553D02*
X43894D01*
X40082Y51100D02*
X42535Y53553D01*
X40082Y64500D02*
X47547D01*
X39782Y64800D02*
X40082Y64500D01*
X81516Y74046D02*
Y79557D01*
X85706Y83747D01*
X86100D01*
X57301Y67058D02*
X66654D01*
X53453Y70906D02*
X57301Y67058D01*
X53453Y70906D02*
Y71300D01*
X58580Y63121D02*
X66654D01*
X53553Y58094D02*
X58580Y63121D01*
X53553Y57700D02*
Y58094D01*
X94353Y24339D02*
Y27861D01*
X90567Y20553D02*
X94353Y24339D01*
X83492Y38722D02*
X94353Y27861D01*
X83492Y38722D02*
Y42346D01*
X90100Y16100D02*
X90567Y16567D01*
Y20553D01*
X83484Y42354D02*
X83492Y42346D01*
X75618Y38036D02*
X84353Y29302D01*
X73642Y37620D02*
Y42354D01*
Y37620D02*
X73979Y37282D01*
Y37130D02*
Y37282D01*
X80100Y26100D02*
Y31009D01*
X84353Y20353D02*
Y29302D01*
X77579Y42354D02*
X77587Y42346D01*
X73979Y37130D02*
X80100Y31009D01*
X75618Y38036D02*
Y42346D01*
X77587Y38613D02*
Y42346D01*
Y38613D02*
X90100Y26100D01*
X75610Y42354D02*
X75618Y42346D01*
X80100Y16100D02*
X84353Y20353D01*
D18*
X108900Y74553D02*
D03*
Y68647D02*
D03*
X56500Y35847D02*
D03*
Y41753D02*
D03*
X64200Y29447D02*
D03*
Y35353D02*
D03*
D19*
X39182Y78600D02*
D03*
X24418D02*
D03*
X39382Y64800D02*
D03*
X24618D02*
D03*
X39382Y51100D02*
D03*
X24618D02*
D03*
D20*
X65847Y115800D02*
D03*
X71753D02*
D03*
X65947Y100300D02*
D03*
X71853D02*
D03*
X80153Y88000D02*
D03*
X74247D02*
D03*
D21*
X53453Y64500D02*
D03*
X47547D02*
D03*
X53453Y71300D02*
D03*
X47547D02*
D03*
X47647Y57700D02*
D03*
X53553D02*
D03*
X107947Y61200D02*
D03*
X113853D02*
D03*
D22*
X98347Y69027D02*
D03*
Y67058D02*
D03*
Y65090D02*
D03*
Y63121D02*
D03*
Y61153D02*
D03*
Y59184D02*
D03*
Y57216D02*
D03*
Y55247D02*
D03*
Y53279D02*
D03*
Y51310D02*
D03*
Y49342D02*
D03*
Y47373D02*
D03*
X66654D02*
D03*
Y49342D02*
D03*
Y51310D02*
D03*
Y53279D02*
D03*
Y55247D02*
D03*
Y57216D02*
D03*
Y59184D02*
D03*
Y61153D02*
D03*
Y63121D02*
D03*
Y65090D02*
D03*
Y67058D02*
D03*
Y69027D02*
D03*
D23*
X93327Y42354D02*
D03*
X91358D02*
D03*
X89390D02*
D03*
X87421D02*
D03*
X85453D02*
D03*
X83484D02*
D03*
X81516D02*
D03*
X79547D02*
D03*
X77579D02*
D03*
X75610D02*
D03*
X73642D02*
D03*
X71673D02*
D03*
Y74046D02*
D03*
X73642D02*
D03*
X75610D02*
D03*
X77579D02*
D03*
X79547D02*
D03*
X81516D02*
D03*
X83484D02*
D03*
X85453D02*
D03*
X87421D02*
D03*
X89390D02*
D03*
X91358D02*
D03*
X93327D02*
D03*
D24*
X58140Y106724D02*
D03*
X54400D02*
D03*
X50660D02*
D03*
Y97276D02*
D03*
X58140D02*
D03*
D25*
X31563Y107500D02*
D03*
X44437D02*
D03*
D26*
X86100Y89653D02*
D03*
Y83747D02*
D03*
D27*
X24200Y107482D02*
D03*
Y117718D02*
D03*
D39*
X65900Y100347D02*
Y108000D01*
Y100347D02*
X65947Y100300D01*
X71753Y115800D02*
X79900D01*
X71953Y100200D02*
X79700D01*
X71853Y100300D02*
X71953Y100200D01*
X58140Y97276D02*
X63710D01*
X65947Y99513D01*
X56700Y118500D02*
X58200Y117000D01*
X59400Y115800D01*
X65847D01*
X54400Y106724D02*
Y110700D01*
X51300Y113800D02*
X54400Y110700D01*
X48600Y118500D02*
X56700D01*
X58200Y106784D02*
Y117000D01*
X58140Y106724D02*
X58200Y106784D01*
X44437Y114337D02*
X48600Y118500D01*
X44437Y107500D02*
Y114337D01*
Y107500D02*
X49884D01*
X24200Y107482D02*
X31545D01*
X24300Y117818D02*
Y125100D01*
D40*
X131500Y78900D02*
D03*
X131300Y56500D02*
D03*
D41*
X131500Y88900D02*
D03*
Y98900D02*
D03*
X110100Y16100D02*
D03*
X100100Y26100D02*
D03*
Y16100D02*
D03*
X90100Y26100D02*
D03*
Y16100D02*
D03*
X80100Y26100D02*
D03*
Y16100D02*
D03*
X120900Y117200D02*
D03*
X110900Y127200D02*
D03*
Y117200D02*
D03*
X100900Y127200D02*
D03*
Y117200D02*
D03*
X90900Y127200D02*
D03*
Y117200D02*
D03*
X36000Y35500D02*
D03*
X131300Y16500D02*
D03*
Y26500D02*
D03*
Y36500D02*
D03*
Y46500D02*
D03*
X24300Y125100D02*
D03*
X34300D02*
D03*
X44300D02*
D03*
D42*
X110100Y26100D02*
D03*
X120900Y127200D02*
D03*
X26000Y35500D02*
D03*
X54300Y125100D02*
D03*
D43*
X20800Y17800D02*
D03*
X139300Y139200D02*
D03*
D44*
X113832Y55768D02*
D03*
X116400Y68700D02*
D03*
X114800Y77300D02*
D03*
X51300Y113800D02*
D03*
X38500Y86300D02*
D03*
X32764Y90100D02*
D03*
X24400Y71800D02*
D03*
Y57900D02*
D03*
X48400Y37400D02*
D03*
X63600Y22293D02*
D03*
X71900Y32600D02*
D03*
X99100Y36300D02*
D03*
X104409Y42191D02*
D03*
X91300Y49900D02*
D03*
X83900Y49500D02*
D03*
X74805Y62773D02*
D03*
X79700Y66702D02*
D03*
X79500Y56700D02*
D03*
X86400Y60500D02*
D03*
X87700Y66300D02*
D03*
X90676Y83724D02*
D03*
X97900Y90800D02*
D03*
X57000Y90000D02*
D03*
X62400Y85500D02*
D03*
X66500Y91500D02*
D03*
X87500Y100300D02*
D03*
X79700Y100200D02*
D03*
X65900Y108000D02*
D03*
X79900Y115800D02*
D03*
X55700Y28000D02*
D03*
M02*
