G04*
G04 #@! TF.GenerationSoftware,Altium Limited,Altium Designer,20.2.6 (244)*
G04*
G04 Layer_Color=32896*
%FSLAX25Y25*%
%MOIN*%
G70*
G04*
G04 #@! TF.SameCoordinates,009D9B9B-B68C-4BF6-A67E-57AE18EDBAF9*
G04*
G04*
G04 #@! TF.FilePolarity,Positive*
G04*
G01*
G75*
%ADD10C,0.00050*%
D10*
X36197Y70350D02*
X35555Y69822D01*
X35555D02*
X34900Y69220D01*
Y69220D02*
X34325Y68634D01*
X34325Y68634D02*
X33945Y68171D01*
X37813Y70636D02*
X36864Y70093D01*
X35951Y69491D01*
X35080Y68831D01*
X34251Y68117D01*
X39305Y72127D02*
X38484Y71764D01*
X37690Y71346D01*
X36926Y70873D01*
X36197Y70350D01*
X42022Y66969D02*
X42034Y66568D01*
X42097Y66530D01*
X42097Y66530D02*
X42195Y66621D01*
X42195Y66621D02*
X42490Y67179D01*
X46071Y71586D02*
X45240Y71148D01*
X44454Y70635D01*
Y70635D02*
X43772Y70081D01*
X43156Y69454D01*
X42690Y68847D01*
X42306Y68185D01*
X44217Y69341D02*
X43201Y68262D01*
X45352Y70251D02*
X44217Y69341D01*
X47811Y71145D02*
X46425Y70816D01*
X49251Y71108D02*
X47811Y71145D01*
X49035Y72026D02*
X48266Y72072D01*
X47498Y72014D01*
X46425Y70816D02*
X45352Y70251D01*
X48544Y73835D02*
X47452Y73767D01*
X46362Y73672D01*
X45274Y73548D01*
X44190Y73397D01*
X43111Y73218D01*
X47664Y72879D02*
X46681Y72812D01*
X45700Y72720D01*
X44722Y72602D01*
X43747Y72458D01*
X42776Y72289D01*
X41810Y72094D01*
X47498Y72014D02*
X46071Y71586D01*
X52641Y69858D02*
X51748Y70300D01*
X50830Y70687D01*
X52745Y70734D02*
X51764Y71201D01*
X50756Y71606D01*
X52641Y69858D02*
X53493Y69405D01*
X54347Y68954D01*
X55202Y68506D01*
X56058Y68059D01*
X57120Y68465D02*
X56246Y68921D01*
X55372Y69376D01*
X54497Y69830D01*
X53622Y70282D01*
X52745Y70734D01*
X58042Y67088D02*
X59335Y66546D01*
Y66546D02*
X59990Y66477D01*
Y66477D02*
X60054Y66722D01*
X59135Y67348D01*
X63817Y69855D02*
X63630Y69650D01*
X63806Y69249D01*
X64388Y68690D01*
X64979Y68140D01*
X60940Y74201D02*
X62041Y74234D01*
X63143Y74272D01*
X64244Y74315D01*
X66146Y67107D02*
X66321Y67187D01*
X66291Y67307D01*
X68732Y70054D02*
X67751Y70034D01*
X66771Y70004D01*
X65792Y69964D01*
X66138Y67584D02*
X65938Y67910D01*
X65700Y68258D01*
X66525Y69114D02*
X67531Y69114D01*
X68900Y74800D02*
X69712Y75151D01*
X68041Y74570D02*
X68900Y74800D01*
X67010Y74445D02*
X68041Y74570D01*
X65679Y73517D02*
X66594Y73572D01*
X67506Y73672D01*
X68412Y73817D01*
X68412D02*
X69361Y74074D01*
X70255Y74484D01*
X67531Y69114D02*
X68420Y69123D01*
X69309Y69132D01*
X70197Y69142D01*
X71086Y69151D01*
X73378Y77732D02*
X72494Y77101D01*
X71641Y76455D01*
X70584Y75678D02*
X71641Y76455D01*
X73042Y76406D02*
X72370Y75895D01*
X75307Y69201D02*
X76253Y69213D01*
X77200Y69225D01*
X78146Y69237D01*
X79092Y69249D01*
X80031Y69262D01*
X76952Y78971D02*
X75692Y78894D01*
X74706Y78574D01*
X74175Y78266D01*
X74177Y77177D02*
X73655Y76837D01*
X74358Y77229D02*
X74177Y77177D01*
X74358Y77229D02*
X74497Y77262D01*
X74681Y77373D01*
X74876Y77531D01*
X74876D02*
X75052Y77717D01*
X75759Y78066D02*
X75052Y77717D01*
X77607Y78049D02*
X76683Y78079D01*
X75759Y78066D01*
X79052Y78830D02*
X78003Y78921D01*
X76952Y78971D01*
X80715Y77786D02*
X79680Y77894D01*
X78644Y77982D01*
X77607Y78049D01*
X92794Y69156D02*
X91753Y69257D01*
X90709Y69312D01*
X93546Y69872D02*
X92598Y69994D01*
X91646Y70082D01*
X90692Y70135D01*
X96812Y68966D02*
X95871Y69305D01*
X94732Y68819D02*
X93767Y69014D01*
X92794Y69156D01*
X95871Y69305D02*
X94722Y69643D01*
X93546Y69872D01*
X102034Y67010D02*
X102085Y66737D01*
X102085Y66737D02*
X102196Y66711D01*
Y66711D02*
X102396Y66970D01*
X97569Y68172D02*
X98352Y68018D01*
X98556Y68057D01*
X98571Y68182D01*
X98346Y68335D01*
X97654Y68634D01*
X105119Y71930D02*
X104273Y71161D01*
X103511Y70310D01*
Y70310D02*
X102899Y69462D01*
X102382Y68552D01*
X103811Y69307D02*
X103276Y68548D01*
X102811Y67745D01*
X105115Y70736D02*
X104435Y70047D01*
X103811Y69307D01*
X98011Y76972D02*
X98946Y76942D01*
X99880Y76934D01*
X100815Y76949D01*
X101749Y76985D01*
X104661Y82743D02*
X105255Y81837D01*
X101749Y76985D02*
X102880Y77066D01*
X104006Y77195D01*
X105126Y77370D01*
X98403Y76199D02*
X99356Y76190D01*
X100308Y76195D01*
X101260Y76212D01*
X102212Y76242D01*
X103164Y76285D01*
X104121Y83655D02*
X104156Y83533D01*
X104191Y83726D02*
X104121Y83655D01*
X109940Y72869D02*
X108936Y72796D01*
X107958Y72558D01*
X110271Y73538D02*
X109172Y73567D01*
Y73567D02*
X108350Y73508D01*
X107646Y73350D01*
Y73350D02*
X106929Y73071D01*
X107958Y72558D02*
X107233Y72263D01*
X106554Y71874D01*
X111928Y72522D02*
X110948Y72776D01*
X109940Y72869D01*
X111971Y73293D02*
X111126Y73453D01*
X110271Y73538D01*
X107213Y78851D02*
X106654Y79754D01*
X107658Y78081D02*
X107213Y78851D01*
X107641Y77949D02*
X107658Y78081D01*
X107504Y77873D02*
X107641Y77949D01*
X106836Y77713D02*
X107504Y77873D01*
X106040Y77543D02*
X106836Y77713D01*
X108772Y78507D02*
X109139Y78087D01*
X108241Y79160D02*
X108772Y78507D01*
X107660Y79900D02*
X108241Y79160D01*
X106509Y81474D02*
X107110Y80628D01*
X106192Y82033D02*
X106509Y81474D01*
X106088Y82401D02*
X106192Y82033D01*
X106188Y82610D02*
X106088Y82401D01*
X106501Y82708D02*
X106188Y82610D01*
X108937Y82835D02*
X107719Y82773D01*
X106501Y82708D01*
X106654Y79754D02*
X105960Y80795D01*
X107110Y80628D02*
X107660Y79900D01*
X111750Y82955D02*
X110812Y82920D01*
X109875Y82880D01*
X108937Y82835D01*
X111288Y83789D02*
X110350Y83786D01*
X109412Y83781D01*
X108474Y83774D01*
X107535Y83765D01*
X118133Y70227D02*
X117281Y70764D01*
X116421Y71288D01*
X115553Y71798D01*
X118952Y68727D02*
X119696Y68292D01*
X120458Y67890D01*
X120224Y68964D02*
X121392Y68302D01*
X119074Y69643D02*
X120224Y68964D01*
X115553Y71798D02*
X114607Y72305D01*
X113631Y72753D01*
X118952Y68727D02*
X118077Y69262D01*
X117198Y69791D01*
X116315Y70313D01*
X115428Y70829D01*
X114538Y71338D01*
X118133Y70227D02*
X119074Y69643D01*
X122146Y67119D02*
X122924Y66807D01*
X123709Y66515D01*
Y66515D02*
X124306Y66508D01*
X124321Y66602D01*
X124321D02*
X123868Y66919D01*
X123220Y67314D01*
X125361Y83524D02*
X125272Y83739D01*
X42306Y68185D02*
X42022Y66969D01*
X43201Y68262D02*
X42490Y67179D01*
X66291Y67307D02*
X66138Y67584D01*
X69712Y75151D02*
X70584Y75678D01*
X70255Y74484D02*
X70984Y74918D01*
X71690Y75388D01*
X72370Y75895D01*
X102396Y66970D02*
X102811Y67745D01*
X102382Y68552D02*
X102115Y67802D01*
X102034Y67010D01*
X104156Y83533D02*
X104661Y82743D01*
X123220Y67314D02*
X122390Y67765D01*
X124846Y83302D02*
X125361Y83524D01*
X43111Y73218D02*
X42140Y73019D01*
X41180Y72770D01*
X40235Y72473D01*
X39305Y72127D01*
X50830Y70687D02*
X50052Y70940D01*
X49251Y71108D01*
X50756Y71606D02*
X49907Y71865D01*
X49035Y72026D01*
X41810Y72094D02*
X40775Y71834D01*
X39761Y71503D01*
X38772Y71103D01*
X37813Y70636D01*
X57321Y74123D02*
X58225Y74139D01*
X59130Y74157D01*
X60035Y74178D01*
X60940Y74201D01*
X65792Y69964D02*
X64804Y69914D01*
X63817Y69855D01*
X64244Y74315D02*
X65166Y74355D01*
X66088Y74399D01*
X67010Y74445D01*
X71089Y69151D02*
X72143Y69163D01*
X73197Y69175D01*
X74251Y69188D01*
X75305Y69201D01*
X58335Y73298D02*
X59384Y73324D01*
X60433Y73352D01*
X61482Y73382D01*
X62531Y73413D01*
X63580Y73446D01*
X64629Y73481D01*
X65678Y73517D01*
X73896Y70119D02*
X72863Y70109D01*
X71830Y70097D01*
X70797Y70084D01*
X69765Y70070D01*
X68732Y70054D01*
X74175Y78266D02*
X73378Y77732D01*
X73655Y76837D02*
X73042Y76406D01*
X83871Y78304D02*
X82907Y78412D01*
X81944Y78519D01*
X80980Y78625D01*
X80016Y78728D01*
X79052Y78830D01*
X90709Y69312D02*
X89625Y69337D01*
X88541Y69349D01*
X87457Y69346D01*
X94732Y68819D02*
X95677Y68603D01*
X96623Y68387D01*
X97569Y68172D01*
X97654Y68634D02*
X96812Y68966D01*
X106554Y71874D02*
X105811Y71335D01*
X105115Y70736D01*
X113631Y72753D02*
X112813Y73058D01*
X111971Y73293D01*
X106929Y73071D02*
X105989Y72557D01*
X105119Y71930D01*
X114538Y71338D02*
X113692Y71785D01*
X112821Y72180D01*
X111928Y72522D01*
X90692Y70135D02*
X89729Y70166D01*
X88766Y70189D01*
X87803Y70205D01*
X86839Y70211D01*
X85876Y70210D01*
X86870Y77057D02*
X87875Y76938D01*
X88880Y76826D01*
X89885Y76721D01*
X90892Y76625D01*
X91899Y76536D01*
X92907Y76454D01*
X105126Y77370D02*
X106040Y77543D01*
X103164Y76285D02*
X104108Y76351D01*
X105050Y76448D01*
X105988Y76577D01*
X106921Y76737D01*
X105255Y81837D02*
X105960Y80795D01*
X115018Y83052D02*
X113928Y83023D01*
X112839Y82991D01*
X111750Y82955D01*
X92779Y77350D02*
X93823Y77251D01*
X94869Y77164D01*
X95916Y77088D01*
X96963Y77024D01*
X98011Y76972D01*
X92908Y76454D02*
X93822Y76389D01*
X94738Y76332D01*
X95653Y76285D01*
X96570Y76247D01*
X97486Y76218D01*
X98403Y76199D01*
X107536Y83765D02*
X106421Y83752D01*
X105306Y83740D01*
X104191Y83726D01*
X115745Y83784D02*
X114631Y83787D01*
X113517Y83789D01*
X112402Y83790D01*
X111288Y83789D01*
X121392Y68302D02*
X122390Y67765D01*
X56058Y68059D02*
X57044Y67562D01*
X58042Y67088D01*
X59135Y67347D02*
X58135Y67919D01*
X57120Y68465D01*
X64979Y68140D02*
X65558Y67619D01*
X66146Y67107D01*
X120458Y67890D02*
X121295Y67489D01*
X122146Y67119D01*
X57320Y74123D02*
X56345Y74105D01*
X55370Y74084D01*
X54394Y74060D01*
X53419Y74031D01*
X52444Y73999D01*
X51469Y73964D01*
X50494Y73924D01*
X49519Y73882D01*
X48544Y73835D01*
X58335Y73298D02*
X57364Y73274D01*
X56394Y73246D01*
X55423Y73216D01*
X54453Y73183D01*
X53483Y73148D01*
X52513Y73110D01*
X51543Y73069D01*
X50573Y73026D01*
X49603Y72979D01*
X48634Y72930D01*
X47664Y72879D01*
X87457Y69346D02*
X86396Y69336D01*
X85335Y69325D01*
X84274Y69314D01*
X83213Y69302D01*
X82153Y69289D01*
X81092Y69276D01*
X80032Y69262D01*
X85876Y70210D02*
X84878Y70204D01*
X83879Y70198D01*
X82880Y70192D01*
X81882Y70185D01*
X80883Y70178D01*
X79885Y70171D01*
X78886Y70163D01*
X77888Y70155D01*
X76889Y70146D01*
X75891Y70138D01*
X74892Y70129D01*
X73896Y70119D01*
X83871Y78304D02*
X84860Y78193D01*
X85849Y78082D01*
X86839Y77974D01*
X87829Y77866D01*
X88818Y77760D01*
X89808Y77656D01*
X90799Y77553D01*
X91789Y77451D01*
X92779Y77350D01*
X86870Y77057D02*
X85845Y77182D01*
X84819Y77306D01*
X83793Y77428D01*
X82767Y77549D01*
X81741Y77668D01*
X80715Y77786D01*
X115019Y83052D02*
X116003Y83076D01*
X116986Y83101D01*
X117970Y83126D01*
X118953Y83151D01*
X119937Y83176D01*
X120921Y83201D01*
X121904Y83226D01*
X122888Y83251D01*
X123871Y83277D01*
X124847Y83302D01*
X125272Y83739D02*
X124320Y83744D01*
X123368Y83749D01*
X122415Y83754D01*
X121463Y83759D01*
X120511Y83763D01*
X119559Y83767D01*
X118606Y83772D01*
X117654Y83776D01*
X116702Y83780D01*
X115750Y83784D01*
X106921Y76737D02*
X109871Y77294D01*
X109139Y78087D02*
X109871Y77294D01*
X65080Y69129D02*
X65700Y68258D01*
X65080Y69129D02*
X66525Y69114D01*
X33233Y67179D02*
X33945Y68171D01*
X33233Y67179D02*
X34251Y68117D01*
M02*
