G04*
G04 #@! TF.GenerationSoftware,Altium Limited,Altium Designer,20.2.6 (244)*
G04*
G04 Layer_Color=16711935*
%FSLAX25Y25*%
%MOIN*%
G70*
G04*
G04 #@! TF.SameCoordinates,009D9B9B-B68C-4BF6-A67E-57AE18EDBAF9*
G04*
G04*
G04 #@! TF.FilePolarity,Positive*
G04*
G01*
G75*
%ADD13C,0.00787*%
%ADD16C,0.00394*%
D13*
X111754Y67269D02*
Y75931D01*
X106046Y67269D02*
X111754D01*
X106046D02*
Y75931D01*
X111754D01*
X25107Y75057D02*
Y82143D01*
Y75057D02*
X38493D01*
Y82143D01*
X25107D02*
X38493D01*
X25307Y61257D02*
Y68343D01*
Y61257D02*
X38693D01*
Y68343D01*
X25307D02*
X38693D01*
X25307Y47557D02*
Y54643D01*
Y47557D02*
X38693D01*
Y54643D01*
X25307D02*
X38693D01*
X53646Y34469D02*
Y43131D01*
X59354D01*
Y34469D02*
Y43131D01*
X53646Y34469D02*
X59354D01*
X64469Y118654D02*
X73131D01*
Y112946D02*
Y118654D01*
X64469Y112946D02*
X73131D01*
X64469D02*
Y118654D01*
X64569Y103154D02*
X73231D01*
Y97446D02*
Y103154D01*
X64569Y97446D02*
X73231D01*
X64569D02*
Y103154D01*
X21050Y118899D02*
X27350D01*
X21050Y106301D02*
Y118899D01*
Y106301D02*
X27350D01*
Y118899D01*
X61346Y36731D02*
X67054D01*
X61346Y28069D02*
Y36731D01*
Y28069D02*
X67054D01*
Y36731D01*
X72869Y85146D02*
Y90854D01*
Y85146D02*
X81531D01*
Y90854D01*
X72869D02*
X81531D01*
D16*
X94705Y68436D02*
X94441Y69420D01*
X93721Y70141D01*
X92736Y70405D01*
X91752Y70141D01*
X91031Y69420D01*
X90768Y68436D01*
X91031Y67452D01*
X91752Y66731D01*
X92736Y66468D01*
X93721Y66731D01*
X94441Y67452D01*
X94705Y68436D01*
X53847Y62630D02*
Y66370D01*
X47153Y62630D02*
Y66370D01*
Y62630D02*
X53847D01*
X47153Y66370D02*
X53847D01*
Y69430D02*
Y73170D01*
X47153Y69430D02*
Y73170D01*
Y69430D02*
X53847D01*
X47153Y73170D02*
X53847D01*
X47254Y55830D02*
Y59570D01*
X53947Y55830D02*
Y59570D01*
X47254D02*
X53947D01*
X47254Y55830D02*
X53947D01*
X68721Y44420D02*
Y71979D01*
X96280Y44420D02*
Y71979D01*
X68721Y44420D02*
X96280D01*
X68721Y71979D02*
X96280D01*
X48494Y105445D02*
X60306D01*
X48494Y98555D02*
X60306D01*
Y105445D01*
X48494Y98555D02*
Y105445D01*
X32685Y104252D02*
Y110748D01*
X43315D01*
Y104252D02*
Y110748D01*
X32685Y104252D02*
X43315D01*
X107554Y59330D02*
Y63070D01*
X114246Y59330D02*
Y63070D01*
X107554D02*
X114246D01*
X107554Y59330D02*
X114246D01*
X84230Y90047D02*
X87970D01*
X84230Y83354D02*
X87970D01*
Y90047D01*
X84230Y83354D02*
Y90047D01*
M02*
