G04*
G04 #@! TF.GenerationSoftware,Altium Limited,Altium Designer,20.2.6 (244)*
G04*
G04 Layer_Color=16711935*
%FSLAX25Y25*%
%MOIN*%
G70*
G04*
G04 #@! TF.SameCoordinates,009D9B9B-B68C-4BF6-A67E-57AE18EDBAF9*
G04*
G04*
G04 #@! TF.FilePolarity,Positive*
G04*
G01*
G75*
%ADD13C,0.00787*%
G36*
X110287Y71596D02*
X110323D01*
X110360Y71593D01*
X110407Y71589D01*
X110454Y71582D01*
X110560Y71564D01*
X110676Y71538D01*
X110793Y71502D01*
X110906Y71451D01*
X110909Y71447D01*
X110920Y71443D01*
X110935Y71436D01*
X110953Y71422D01*
X110978Y71407D01*
X111007Y71389D01*
X111073Y71342D01*
X111146Y71280D01*
X111219Y71207D01*
X111291Y71123D01*
X111353Y71025D01*
X111357Y71021D01*
X111361Y71010D01*
X111368Y70996D01*
X111379Y70978D01*
X111390Y70948D01*
X111401Y70919D01*
X111415Y70883D01*
X111430Y70843D01*
X111444Y70799D01*
X111459Y70752D01*
X111481Y70650D01*
X111499Y70534D01*
X111506Y70413D01*
Y70377D01*
X111503Y70351D01*
X111499Y70319D01*
X111495Y70279D01*
X111492Y70239D01*
X111481Y70191D01*
X111459Y70093D01*
X111426Y69984D01*
X111404Y69929D01*
X111379Y69878D01*
X111346Y69827D01*
X111313Y69776D01*
X111310Y69773D01*
X111306Y69766D01*
X111295Y69751D01*
X111277Y69733D01*
X111259Y69714D01*
X111233Y69689D01*
X111204Y69664D01*
X111175Y69634D01*
X111139Y69605D01*
X111095Y69576D01*
X111051Y69543D01*
X111004Y69514D01*
X110949Y69489D01*
X110895Y69460D01*
X110836Y69438D01*
X110771Y69416D01*
X110695Y69744D01*
X110698D01*
X110705Y69747D01*
X110720Y69754D01*
X110738Y69762D01*
X110760Y69769D01*
X110789Y69780D01*
X110847Y69809D01*
X110913Y69846D01*
X110978Y69889D01*
X111040Y69944D01*
X111095Y70002D01*
X111102Y70009D01*
X111117Y70031D01*
X111135Y70068D01*
X111160Y70115D01*
X111182Y70177D01*
X111204Y70246D01*
X111219Y70330D01*
X111222Y70421D01*
Y70450D01*
X111219Y70468D01*
Y70494D01*
X111215Y70523D01*
X111204Y70592D01*
X111189Y70668D01*
X111164Y70748D01*
X111128Y70832D01*
X111080Y70908D01*
Y70912D01*
X111073Y70916D01*
X111055Y70941D01*
X111026Y70974D01*
X110982Y71014D01*
X110927Y71061D01*
X110866Y71105D01*
X110789Y71145D01*
X110705Y71181D01*
X110702D01*
X110695Y71185D01*
X110684Y71189D01*
X110665Y71192D01*
X110643Y71200D01*
X110618Y71207D01*
X110556Y71218D01*
X110483Y71232D01*
X110403Y71247D01*
X110316Y71254D01*
X110221Y71258D01*
X110218D01*
X110207D01*
X110188D01*
X110167D01*
X110141Y71254D01*
X110108D01*
X110072Y71251D01*
X110032Y71247D01*
X109945Y71236D01*
X109850Y71218D01*
X109755Y71196D01*
X109661Y71167D01*
X109657D01*
X109650Y71163D01*
X109639Y71156D01*
X109621Y71149D01*
X109577Y71127D01*
X109526Y71094D01*
X109468Y71054D01*
X109406Y71003D01*
X109351Y70945D01*
X109300Y70876D01*
Y70872D01*
X109297Y70865D01*
X109289Y70854D01*
X109282Y70839D01*
X109275Y70821D01*
X109264Y70799D01*
X109242Y70748D01*
X109220Y70683D01*
X109202Y70610D01*
X109187Y70530D01*
X109184Y70446D01*
Y70421D01*
X109187Y70399D01*
Y70373D01*
X109191Y70348D01*
X109206Y70282D01*
X109224Y70206D01*
X109253Y70130D01*
X109293Y70049D01*
X109315Y70009D01*
X109344Y69973D01*
X109348Y69969D01*
X109351Y69966D01*
X109362Y69955D01*
X109373Y69940D01*
X109391Y69926D01*
X109413Y69907D01*
X109435Y69886D01*
X109464Y69867D01*
X109497Y69846D01*
X109533Y69820D01*
X109570Y69798D01*
X109613Y69776D01*
X109661Y69758D01*
X109712Y69740D01*
X109766Y69722D01*
X109825Y69707D01*
X109741Y69372D01*
X109737D01*
X109723Y69376D01*
X109701Y69383D01*
X109672Y69394D01*
X109639Y69405D01*
X109599Y69420D01*
X109555Y69438D01*
X109508Y69460D01*
X109406Y69511D01*
X109304Y69576D01*
X109253Y69616D01*
X109202Y69656D01*
X109158Y69700D01*
X109115Y69751D01*
X109111Y69754D01*
X109104Y69762D01*
X109097Y69780D01*
X109082Y69798D01*
X109064Y69827D01*
X109046Y69857D01*
X109027Y69897D01*
X109009Y69937D01*
X108987Y69984D01*
X108969Y70035D01*
X108951Y70089D01*
X108933Y70148D01*
X108918Y70210D01*
X108911Y70275D01*
X108904Y70344D01*
X108900Y70417D01*
Y70457D01*
X108904Y70486D01*
Y70519D01*
X108907Y70559D01*
X108914Y70603D01*
X108922Y70654D01*
X108940Y70759D01*
X108969Y70868D01*
X109009Y70978D01*
X109035Y71029D01*
X109064Y71079D01*
X109067Y71083D01*
X109071Y71090D01*
X109082Y71105D01*
X109097Y71120D01*
X109111Y71141D01*
X109133Y71167D01*
X109158Y71196D01*
X109187Y71225D01*
X109220Y71254D01*
X109253Y71287D01*
X109337Y71352D01*
X109435Y71414D01*
X109544Y71469D01*
X109548D01*
X109559Y71476D01*
X109577Y71480D01*
X109599Y71491D01*
X109628Y71498D01*
X109664Y71509D01*
X109704Y71524D01*
X109748Y71535D01*
X109795Y71545D01*
X109850Y71560D01*
X109963Y71578D01*
X110090Y71593D01*
X110221Y71600D01*
X110225D01*
X110240D01*
X110261D01*
X110287Y71596D01*
D02*
G37*
G36*
X109650Y68775D02*
X109646D01*
X109639Y68772D01*
X109624Y68768D01*
X109606Y68765D01*
X109584Y68761D01*
X109559Y68753D01*
X109504Y68735D01*
X109439Y68710D01*
X109377Y68677D01*
X109319Y68641D01*
X109268Y68597D01*
X109264Y68590D01*
X109249Y68575D01*
X109231Y68546D01*
X109213Y68510D01*
X109191Y68466D01*
X109173Y68411D01*
X109158Y68349D01*
X109155Y68284D01*
Y68262D01*
X109158Y68248D01*
X109162Y68208D01*
X109173Y68157D01*
X109191Y68098D01*
X109217Y68037D01*
X109253Y67975D01*
X109304Y67916D01*
X109311Y67909D01*
X109333Y67891D01*
X109366Y67869D01*
X109409Y67840D01*
X109464Y67811D01*
X109526Y67789D01*
X109599Y67771D01*
X109679Y67764D01*
X109683D01*
X109690D01*
X109701D01*
X109715Y67767D01*
X109755Y67771D01*
X109803Y67782D01*
X109861Y67796D01*
X109919Y67822D01*
X109977Y67858D01*
X110032Y67905D01*
X110039Y67913D01*
X110054Y67931D01*
X110076Y67960D01*
X110101Y68000D01*
X110127Y68051D01*
X110149Y68113D01*
X110163Y68182D01*
X110170Y68259D01*
Y68291D01*
X110167Y68317D01*
X110163Y68349D01*
X110156Y68386D01*
X110149Y68430D01*
X110138Y68477D01*
X110410Y68441D01*
Y68422D01*
X110407Y68408D01*
Y68360D01*
X110414Y68320D01*
X110422Y68273D01*
X110432Y68218D01*
X110451Y68157D01*
X110476Y68098D01*
X110509Y68037D01*
Y68033D01*
X110512Y68029D01*
X110527Y68011D01*
X110553Y67985D01*
X110585Y67956D01*
X110633Y67927D01*
X110687Y67902D01*
X110749Y67884D01*
X110785Y67876D01*
X110826D01*
X110829D01*
X110833D01*
X110855D01*
X110884Y67884D01*
X110924Y67891D01*
X110968Y67905D01*
X111015Y67924D01*
X111062Y67953D01*
X111106Y67993D01*
X111109Y67996D01*
X111124Y68015D01*
X111142Y68040D01*
X111164Y68073D01*
X111182Y68116D01*
X111200Y68168D01*
X111215Y68226D01*
X111219Y68291D01*
Y68320D01*
X111211Y68353D01*
X111204Y68397D01*
X111189Y68444D01*
X111171Y68492D01*
X111142Y68542D01*
X111106Y68590D01*
X111102Y68593D01*
X111084Y68608D01*
X111058Y68630D01*
X111022Y68655D01*
X110975Y68681D01*
X110916Y68706D01*
X110847Y68728D01*
X110767Y68743D01*
X110822Y69052D01*
X110826D01*
X110836Y69048D01*
X110851Y69045D01*
X110873Y69041D01*
X110898Y69034D01*
X110927Y69023D01*
X110997Y69001D01*
X111077Y68965D01*
X111157Y68921D01*
X111233Y68866D01*
X111302Y68797D01*
X111306Y68794D01*
X111310Y68786D01*
X111317Y68775D01*
X111328Y68761D01*
X111342Y68743D01*
X111357Y68717D01*
X111372Y68692D01*
X111390Y68659D01*
X111419Y68586D01*
X111448Y68502D01*
X111466Y68404D01*
X111473Y68353D01*
Y68262D01*
X111470Y68222D01*
X111462Y68175D01*
X111452Y68116D01*
X111433Y68051D01*
X111412Y67985D01*
X111382Y67920D01*
Y67916D01*
X111379Y67913D01*
X111368Y67891D01*
X111346Y67858D01*
X111321Y67822D01*
X111284Y67778D01*
X111244Y67734D01*
X111197Y67691D01*
X111142Y67654D01*
X111135Y67651D01*
X111117Y67640D01*
X111084Y67625D01*
X111044Y67607D01*
X110997Y67589D01*
X110942Y67574D01*
X110880Y67563D01*
X110818Y67560D01*
X110811D01*
X110789D01*
X110760Y67563D01*
X110720Y67571D01*
X110673Y67581D01*
X110622Y67600D01*
X110571Y67621D01*
X110520Y67651D01*
X110512Y67654D01*
X110498Y67665D01*
X110472Y67687D01*
X110443Y67716D01*
X110410Y67752D01*
X110374Y67796D01*
X110341Y67847D01*
X110309Y67909D01*
Y67905D01*
X110305Y67898D01*
X110301Y67887D01*
X110298Y67873D01*
X110283Y67833D01*
X110261Y67782D01*
X110232Y67723D01*
X110196Y67665D01*
X110149Y67611D01*
X110094Y67560D01*
X110087Y67556D01*
X110065Y67541D01*
X110028Y67520D01*
X109981Y67498D01*
X109923Y67476D01*
X109854Y67454D01*
X109774Y67440D01*
X109686Y67436D01*
X109683D01*
X109672D01*
X109653D01*
X109632Y67440D01*
X109602Y67443D01*
X109570Y67450D01*
X109533Y67458D01*
X109493Y67465D01*
X109406Y67494D01*
X109359Y67516D01*
X109315Y67538D01*
X109268Y67567D01*
X109220Y67600D01*
X109173Y67636D01*
X109129Y67680D01*
X109126Y67683D01*
X109118Y67691D01*
X109107Y67705D01*
X109093Y67723D01*
X109075Y67745D01*
X109056Y67774D01*
X109035Y67807D01*
X109016Y67847D01*
X108995Y67887D01*
X108973Y67935D01*
X108955Y67982D01*
X108936Y68037D01*
X108922Y68095D01*
X108911Y68157D01*
X108904Y68218D01*
X108900Y68288D01*
Y68320D01*
X108904Y68342D01*
X108907Y68371D01*
X108911Y68404D01*
X108918Y68441D01*
X108925Y68481D01*
X108947Y68568D01*
X108984Y68659D01*
X109005Y68706D01*
X109031Y68750D01*
X109064Y68794D01*
X109097Y68837D01*
X109100Y68841D01*
X109107Y68848D01*
X109118Y68859D01*
X109133Y68870D01*
X109151Y68888D01*
X109177Y68906D01*
X109202Y68928D01*
X109235Y68950D01*
X109271Y68972D01*
X109308Y68994D01*
X109395Y69034D01*
X109497Y69067D01*
X109552Y69077D01*
X109610Y69085D01*
X109650Y68775D01*
D02*
G37*
G36*
X35109Y80385D02*
X35138Y80381D01*
X35174Y80378D01*
X35214Y80370D01*
X35254Y80363D01*
X35349Y80338D01*
X35444Y80301D01*
X35491Y80279D01*
X35538Y80254D01*
X35582Y80221D01*
X35622Y80185D01*
X35626Y80181D01*
X35633Y80178D01*
X35640Y80163D01*
X35655Y80148D01*
X35673Y80130D01*
X35691Y80105D01*
X35709Y80079D01*
X35731Y80046D01*
X35768Y79977D01*
X35804Y79890D01*
X35819Y79846D01*
X35826Y79795D01*
X35833Y79744D01*
X35837Y79690D01*
Y79682D01*
Y79664D01*
X35833Y79635D01*
X35829Y79595D01*
X35822Y79552D01*
X35808Y79501D01*
X35793Y79446D01*
X35771Y79391D01*
X35768Y79384D01*
X35760Y79366D01*
X35746Y79337D01*
X35724Y79297D01*
X35695Y79253D01*
X35658Y79198D01*
X35615Y79144D01*
X35564Y79082D01*
X35557Y79075D01*
X35538Y79053D01*
X35520Y79035D01*
X35502Y79016D01*
X35480Y78995D01*
X35451Y78965D01*
X35422Y78936D01*
X35385Y78904D01*
X35349Y78867D01*
X35305Y78827D01*
X35258Y78787D01*
X35207Y78740D01*
X35149Y78692D01*
X35091Y78641D01*
X35087Y78638D01*
X35080Y78631D01*
X35065Y78620D01*
X35047Y78605D01*
X35025Y78583D01*
X35000Y78561D01*
X34941Y78514D01*
X34879Y78460D01*
X34821Y78405D01*
X34770Y78358D01*
X34748Y78339D01*
X34730Y78321D01*
X34727Y78317D01*
X34716Y78307D01*
X34701Y78292D01*
X34683Y78270D01*
X34665Y78245D01*
X34643Y78219D01*
X34599Y78157D01*
X35840D01*
Y77859D01*
X34170D01*
Y77863D01*
Y77877D01*
Y77899D01*
X34173Y77928D01*
X34177Y77961D01*
X34184Y77997D01*
X34192Y78034D01*
X34206Y78074D01*
Y78077D01*
X34210Y78081D01*
X34217Y78103D01*
X34231Y78136D01*
X34253Y78179D01*
X34282Y78230D01*
X34319Y78288D01*
X34359Y78347D01*
X34410Y78408D01*
Y78412D01*
X34417Y78416D01*
X34435Y78438D01*
X34468Y78470D01*
X34515Y78518D01*
X34570Y78572D01*
X34639Y78638D01*
X34723Y78711D01*
X34814Y78787D01*
X34818Y78791D01*
X34832Y78802D01*
X34854Y78820D01*
X34879Y78842D01*
X34912Y78871D01*
X34952Y78904D01*
X34992Y78940D01*
X35040Y78980D01*
X35131Y79067D01*
X35222Y79155D01*
X35265Y79198D01*
X35305Y79242D01*
X35342Y79282D01*
X35371Y79322D01*
Y79326D01*
X35378Y79329D01*
X35385Y79340D01*
X35393Y79355D01*
X35418Y79395D01*
X35447Y79442D01*
X35473Y79501D01*
X35498Y79562D01*
X35513Y79632D01*
X35520Y79697D01*
Y79701D01*
Y79704D01*
X35516Y79726D01*
X35513Y79763D01*
X35502Y79803D01*
X35487Y79854D01*
X35462Y79905D01*
X35429Y79956D01*
X35385Y80006D01*
X35378Y80014D01*
X35360Y80028D01*
X35334Y80046D01*
X35294Y80072D01*
X35243Y80094D01*
X35185Y80116D01*
X35116Y80130D01*
X35040Y80134D01*
X35018D01*
X35003Y80130D01*
X34960Y80127D01*
X34909Y80116D01*
X34854Y80101D01*
X34792Y80076D01*
X34734Y80043D01*
X34679Y79999D01*
X34672Y79992D01*
X34657Y79974D01*
X34636Y79945D01*
X34614Y79901D01*
X34588Y79850D01*
X34566Y79784D01*
X34552Y79712D01*
X34545Y79628D01*
X34228Y79661D01*
Y79664D01*
X34231Y79675D01*
Y79693D01*
X34235Y79719D01*
X34242Y79748D01*
X34250Y79781D01*
X34261Y79821D01*
X34272Y79861D01*
X34301Y79948D01*
X34344Y80036D01*
X34370Y80079D01*
X34403Y80123D01*
X34435Y80163D01*
X34472Y80199D01*
X34475Y80203D01*
X34483Y80207D01*
X34494Y80218D01*
X34512Y80229D01*
X34534Y80243D01*
X34559Y80258D01*
X34588Y80276D01*
X34625Y80294D01*
X34665Y80312D01*
X34708Y80330D01*
X34756Y80345D01*
X34807Y80360D01*
X34861Y80370D01*
X34920Y80381D01*
X34981Y80385D01*
X35047Y80389D01*
X35083D01*
X35109Y80385D01*
D02*
G37*
G36*
X32834Y80374D02*
X32907Y80370D01*
X32979Y80363D01*
X33052Y80352D01*
X33114Y80341D01*
X33118D01*
X33125Y80338D01*
X33136D01*
X33150Y80330D01*
X33191Y80319D01*
X33241Y80301D01*
X33300Y80276D01*
X33362Y80243D01*
X33423Y80207D01*
X33482Y80159D01*
X33485Y80156D01*
X33489Y80152D01*
X33500Y80141D01*
X33514Y80130D01*
X33551Y80094D01*
X33595Y80043D01*
X33642Y79981D01*
X33693Y79908D01*
X33740Y79825D01*
X33780Y79730D01*
Y79726D01*
X33784Y79719D01*
X33791Y79704D01*
X33795Y79682D01*
X33806Y79657D01*
X33813Y79628D01*
X33820Y79595D01*
X33831Y79555D01*
X33842Y79515D01*
X33849Y79468D01*
X33867Y79366D01*
X33878Y79253D01*
X33882Y79129D01*
Y79126D01*
Y79118D01*
Y79100D01*
Y79082D01*
X33878Y79056D01*
Y79027D01*
X33875Y78958D01*
X33864Y78878D01*
X33853Y78794D01*
X33835Y78707D01*
X33813Y78620D01*
Y78616D01*
X33809Y78609D01*
X33806Y78598D01*
X33802Y78583D01*
X33787Y78543D01*
X33766Y78492D01*
X33744Y78434D01*
X33715Y78376D01*
X33678Y78314D01*
X33642Y78256D01*
X33638Y78248D01*
X33624Y78230D01*
X33602Y78205D01*
X33573Y78172D01*
X33540Y78136D01*
X33500Y78099D01*
X33460Y78059D01*
X33413Y78026D01*
X33405Y78023D01*
X33391Y78012D01*
X33365Y77997D01*
X33329Y77979D01*
X33285Y77957D01*
X33234Y77939D01*
X33176Y77917D01*
X33110Y77899D01*
X33103D01*
X33092Y77895D01*
X33081Y77892D01*
X33045Y77888D01*
X32994Y77881D01*
X32936Y77873D01*
X32866Y77866D01*
X32790Y77863D01*
X32706Y77859D01*
X31800D01*
Y80378D01*
X32768D01*
X32834Y80374D01*
D02*
G37*
G36*
X35280Y66629D02*
X35327Y66621D01*
X35385Y66610D01*
X35451Y66592D01*
X35516Y66571D01*
X35582Y66541D01*
X35585D01*
X35589Y66538D01*
X35611Y66527D01*
X35644Y66505D01*
X35680Y66479D01*
X35724Y66443D01*
X35767Y66403D01*
X35811Y66356D01*
X35847Y66301D01*
X35851Y66294D01*
X35862Y66276D01*
X35877Y66243D01*
X35895Y66203D01*
X35913Y66155D01*
X35928Y66101D01*
X35939Y66039D01*
X35942Y65977D01*
Y65970D01*
Y65948D01*
X35939Y65919D01*
X35931Y65879D01*
X35920Y65832D01*
X35902Y65781D01*
X35880Y65730D01*
X35851Y65679D01*
X35847Y65671D01*
X35837Y65657D01*
X35815Y65631D01*
X35786Y65602D01*
X35749Y65570D01*
X35706Y65533D01*
X35655Y65500D01*
X35593Y65468D01*
X35596D01*
X35604Y65464D01*
X35614Y65460D01*
X35629Y65457D01*
X35669Y65442D01*
X35720Y65420D01*
X35778Y65391D01*
X35837Y65355D01*
X35891Y65307D01*
X35942Y65253D01*
X35946Y65245D01*
X35960Y65224D01*
X35982Y65187D01*
X36004Y65140D01*
X36026Y65082D01*
X36048Y65013D01*
X36062Y64933D01*
X36066Y64845D01*
Y64842D01*
Y64831D01*
Y64812D01*
X36062Y64790D01*
X36059Y64761D01*
X36051Y64729D01*
X36044Y64692D01*
X36037Y64652D01*
X36008Y64565D01*
X35986Y64517D01*
X35964Y64474D01*
X35935Y64426D01*
X35902Y64379D01*
X35866Y64332D01*
X35822Y64288D01*
X35818Y64285D01*
X35811Y64277D01*
X35796Y64266D01*
X35778Y64252D01*
X35756Y64234D01*
X35727Y64215D01*
X35695Y64194D01*
X35655Y64175D01*
X35614Y64153D01*
X35567Y64132D01*
X35520Y64113D01*
X35465Y64095D01*
X35407Y64081D01*
X35345Y64070D01*
X35283Y64062D01*
X35214Y64059D01*
X35181D01*
X35160Y64062D01*
X35130Y64066D01*
X35098Y64070D01*
X35061Y64077D01*
X35021Y64084D01*
X34934Y64106D01*
X34843Y64143D01*
X34795Y64164D01*
X34752Y64190D01*
X34708Y64223D01*
X34664Y64255D01*
X34661Y64259D01*
X34654Y64266D01*
X34643Y64277D01*
X34632Y64292D01*
X34613Y64310D01*
X34595Y64336D01*
X34574Y64361D01*
X34552Y64394D01*
X34530Y64430D01*
X34508Y64467D01*
X34468Y64554D01*
X34435Y64656D01*
X34424Y64710D01*
X34417Y64769D01*
X34726Y64809D01*
Y64805D01*
X34730Y64798D01*
X34734Y64783D01*
X34737Y64765D01*
X34741Y64743D01*
X34748Y64718D01*
X34766Y64663D01*
X34792Y64598D01*
X34825Y64536D01*
X34861Y64477D01*
X34905Y64426D01*
X34912Y64423D01*
X34927Y64408D01*
X34956Y64390D01*
X34992Y64372D01*
X35036Y64350D01*
X35090Y64332D01*
X35152Y64317D01*
X35218Y64314D01*
X35240D01*
X35254Y64317D01*
X35294Y64321D01*
X35345Y64332D01*
X35403Y64350D01*
X35465Y64376D01*
X35527Y64412D01*
X35585Y64463D01*
X35593Y64470D01*
X35611Y64492D01*
X35633Y64525D01*
X35662Y64569D01*
X35691Y64623D01*
X35713Y64685D01*
X35731Y64758D01*
X35738Y64838D01*
Y64842D01*
Y64849D01*
Y64860D01*
X35735Y64874D01*
X35731Y64914D01*
X35720Y64962D01*
X35706Y65020D01*
X35680Y65078D01*
X35644Y65136D01*
X35596Y65191D01*
X35589Y65198D01*
X35571Y65213D01*
X35542Y65235D01*
X35502Y65260D01*
X35451Y65286D01*
X35389Y65307D01*
X35320Y65322D01*
X35243Y65329D01*
X35210D01*
X35185Y65326D01*
X35152Y65322D01*
X35116Y65315D01*
X35072Y65307D01*
X35025Y65297D01*
X35061Y65570D01*
X35079D01*
X35094Y65566D01*
X35141D01*
X35181Y65573D01*
X35229Y65580D01*
X35283Y65591D01*
X35345Y65610D01*
X35403Y65635D01*
X35465Y65668D01*
X35469D01*
X35473Y65671D01*
X35491Y65686D01*
X35516Y65711D01*
X35545Y65744D01*
X35574Y65791D01*
X35600Y65846D01*
X35618Y65908D01*
X35625Y65944D01*
Y65984D01*
Y65988D01*
Y65992D01*
Y66014D01*
X35618Y66043D01*
X35611Y66083D01*
X35596Y66126D01*
X35578Y66174D01*
X35549Y66221D01*
X35509Y66265D01*
X35505Y66268D01*
X35487Y66283D01*
X35462Y66301D01*
X35429Y66323D01*
X35385Y66341D01*
X35334Y66359D01*
X35276Y66374D01*
X35210Y66378D01*
X35181D01*
X35149Y66370D01*
X35105Y66363D01*
X35058Y66348D01*
X35010Y66330D01*
X34959Y66301D01*
X34912Y66265D01*
X34908Y66261D01*
X34894Y66243D01*
X34872Y66217D01*
X34846Y66181D01*
X34821Y66134D01*
X34795Y66075D01*
X34774Y66006D01*
X34759Y65926D01*
X34450Y65981D01*
Y65984D01*
X34453Y65995D01*
X34457Y66010D01*
X34461Y66032D01*
X34468Y66057D01*
X34479Y66086D01*
X34501Y66155D01*
X34537Y66236D01*
X34581Y66316D01*
X34635Y66392D01*
X34705Y66461D01*
X34708Y66465D01*
X34715Y66469D01*
X34726Y66476D01*
X34741Y66487D01*
X34759Y66501D01*
X34785Y66516D01*
X34810Y66530D01*
X34843Y66549D01*
X34916Y66578D01*
X34999Y66607D01*
X35098Y66625D01*
X35149Y66632D01*
X35240D01*
X35280Y66629D01*
D02*
G37*
G36*
X33034Y66618D02*
X33107Y66614D01*
X33179Y66607D01*
X33252Y66596D01*
X33314Y66585D01*
X33318D01*
X33325Y66581D01*
X33336D01*
X33350Y66574D01*
X33391Y66563D01*
X33441Y66545D01*
X33500Y66519D01*
X33562Y66487D01*
X33623Y66450D01*
X33682Y66403D01*
X33685Y66399D01*
X33689Y66396D01*
X33700Y66385D01*
X33714Y66374D01*
X33751Y66338D01*
X33795Y66287D01*
X33842Y66225D01*
X33893Y66152D01*
X33940Y66068D01*
X33980Y65974D01*
Y65970D01*
X33984Y65963D01*
X33991Y65948D01*
X33995Y65926D01*
X34006Y65901D01*
X34013Y65872D01*
X34020Y65839D01*
X34031Y65799D01*
X34042Y65759D01*
X34049Y65711D01*
X34067Y65610D01*
X34078Y65497D01*
X34082Y65373D01*
Y65369D01*
Y65362D01*
Y65344D01*
Y65326D01*
X34078Y65300D01*
Y65271D01*
X34075Y65202D01*
X34064Y65122D01*
X34053Y65038D01*
X34035Y64951D01*
X34013Y64863D01*
Y64860D01*
X34009Y64852D01*
X34006Y64842D01*
X34002Y64827D01*
X33987Y64787D01*
X33966Y64736D01*
X33944Y64678D01*
X33915Y64619D01*
X33878Y64558D01*
X33842Y64499D01*
X33838Y64492D01*
X33824Y64474D01*
X33802Y64448D01*
X33773Y64416D01*
X33740Y64379D01*
X33700Y64343D01*
X33660Y64303D01*
X33612Y64270D01*
X33605Y64266D01*
X33591Y64255D01*
X33565Y64241D01*
X33529Y64223D01*
X33485Y64201D01*
X33434Y64183D01*
X33376Y64161D01*
X33310Y64143D01*
X33303D01*
X33292Y64139D01*
X33281Y64135D01*
X33245Y64132D01*
X33194Y64124D01*
X33136Y64117D01*
X33066Y64110D01*
X32990Y64106D01*
X32906Y64103D01*
X32000D01*
Y66621D01*
X32968D01*
X33034Y66618D01*
D02*
G37*
G36*
X35713Y51247D02*
X36055D01*
Y50963D01*
X35713D01*
Y50359D01*
X35403D01*
Y50963D01*
X34308D01*
Y51247D01*
X35462Y52878D01*
X35713D01*
Y51247D01*
D02*
G37*
G36*
X33034Y52874D02*
X33107Y52871D01*
X33179Y52863D01*
X33252Y52852D01*
X33314Y52841D01*
X33318D01*
X33325Y52838D01*
X33336D01*
X33350Y52830D01*
X33391Y52820D01*
X33441Y52801D01*
X33500Y52776D01*
X33562Y52743D01*
X33623Y52707D01*
X33682Y52659D01*
X33685Y52656D01*
X33689Y52652D01*
X33700Y52641D01*
X33714Y52630D01*
X33751Y52594D01*
X33795Y52543D01*
X33842Y52481D01*
X33893Y52408D01*
X33940Y52324D01*
X33980Y52230D01*
Y52226D01*
X33984Y52219D01*
X33991Y52204D01*
X33995Y52183D01*
X34006Y52157D01*
X34013Y52128D01*
X34020Y52095D01*
X34031Y52055D01*
X34042Y52015D01*
X34049Y51968D01*
X34067Y51866D01*
X34078Y51753D01*
X34082Y51629D01*
Y51626D01*
Y51618D01*
Y51600D01*
Y51582D01*
X34078Y51556D01*
Y51527D01*
X34075Y51458D01*
X34064Y51378D01*
X34053Y51294D01*
X34035Y51207D01*
X34013Y51120D01*
Y51116D01*
X34009Y51109D01*
X34006Y51098D01*
X34002Y51083D01*
X33987Y51043D01*
X33966Y50992D01*
X33944Y50934D01*
X33915Y50876D01*
X33878Y50814D01*
X33842Y50756D01*
X33838Y50748D01*
X33824Y50730D01*
X33802Y50705D01*
X33773Y50672D01*
X33740Y50635D01*
X33700Y50599D01*
X33660Y50559D01*
X33612Y50526D01*
X33605Y50523D01*
X33591Y50512D01*
X33565Y50497D01*
X33529Y50479D01*
X33485Y50457D01*
X33434Y50439D01*
X33376Y50417D01*
X33310Y50399D01*
X33303D01*
X33292Y50395D01*
X33281Y50392D01*
X33245Y50388D01*
X33194Y50381D01*
X33136Y50373D01*
X33066Y50366D01*
X32990Y50362D01*
X32906Y50359D01*
X32000D01*
Y52878D01*
X32968D01*
X33034Y52874D01*
D02*
G37*
G36*
X55703Y42961D02*
X55725D01*
X55783Y42950D01*
X55852Y42939D01*
X55925Y42920D01*
X56005Y42895D01*
X56081Y42859D01*
X56085D01*
X56089Y42855D01*
X56100Y42848D01*
X56114Y42840D01*
X56151Y42818D01*
X56198Y42786D01*
X56249Y42746D01*
X56300Y42698D01*
X56351Y42640D01*
X56394Y42578D01*
Y42575D01*
X56398Y42571D01*
X56405Y42560D01*
X56409Y42546D01*
X56427Y42509D01*
X56445Y42462D01*
X56467Y42400D01*
X56482Y42331D01*
X56496Y42254D01*
X56500Y42171D01*
Y42152D01*
X56496Y42134D01*
Y42105D01*
X56493Y42072D01*
X56485Y42036D01*
X56475Y41992D01*
X56464Y41949D01*
X56449Y41898D01*
X56431Y41847D01*
X56409Y41796D01*
X56380Y41741D01*
X56347Y41690D01*
X56311Y41639D01*
X56267Y41588D01*
X56216Y41541D01*
X56213Y41537D01*
X56201Y41530D01*
X56187Y41519D01*
X56161Y41504D01*
X56129Y41483D01*
X56092Y41464D01*
X56045Y41443D01*
X55994Y41421D01*
X55932Y41395D01*
X55863Y41373D01*
X55787Y41355D01*
X55703Y41337D01*
X55608Y41319D01*
X55506Y41308D01*
X55397Y41301D01*
X55281Y41297D01*
X55277D01*
X55273D01*
X55262D01*
X55248D01*
X55212Y41301D01*
X55160D01*
X55102Y41304D01*
X55033Y41311D01*
X54957Y41319D01*
X54873Y41330D01*
X54789Y41344D01*
X54698Y41363D01*
X54611Y41384D01*
X54523Y41410D01*
X54440Y41443D01*
X54360Y41479D01*
X54283Y41519D01*
X54218Y41566D01*
X54214Y41570D01*
X54207Y41577D01*
X54192Y41592D01*
X54170Y41610D01*
X54149Y41632D01*
X54127Y41661D01*
X54098Y41697D01*
X54072Y41734D01*
X54047Y41778D01*
X54018Y41825D01*
X53996Y41879D01*
X53970Y41934D01*
X53952Y41996D01*
X53938Y42061D01*
X53930Y42131D01*
X53926Y42203D01*
Y42232D01*
X53930Y42254D01*
Y42280D01*
X53934Y42309D01*
X53948Y42378D01*
X53967Y42454D01*
X53996Y42535D01*
X54039Y42615D01*
X54065Y42655D01*
X54094Y42691D01*
X54098Y42695D01*
X54101Y42698D01*
X54112Y42709D01*
X54123Y42720D01*
X54141Y42738D01*
X54163Y42753D01*
X54214Y42793D01*
X54280Y42833D01*
X54360Y42869D01*
X54451Y42902D01*
X54553Y42924D01*
X54578Y42615D01*
X54575D01*
X54571Y42611D01*
X54549Y42607D01*
X54516Y42597D01*
X54476Y42582D01*
X54432Y42567D01*
X54389Y42546D01*
X54349Y42520D01*
X54316Y42494D01*
X54309Y42487D01*
X54294Y42473D01*
X54272Y42447D01*
X54247Y42411D01*
X54225Y42364D01*
X54203Y42312D01*
X54189Y42251D01*
X54181Y42185D01*
Y42160D01*
X54185Y42131D01*
X54192Y42098D01*
X54203Y42054D01*
X54218Y42010D01*
X54236Y41967D01*
X54265Y41923D01*
X54269Y41916D01*
X54283Y41898D01*
X54309Y41872D01*
X54345Y41839D01*
X54389Y41803D01*
X54440Y41763D01*
X54505Y41726D01*
X54578Y41690D01*
X54582D01*
X54589Y41686D01*
X54600Y41683D01*
X54615Y41675D01*
X54636Y41672D01*
X54662Y41665D01*
X54691Y41657D01*
X54727Y41650D01*
X54767Y41639D01*
X54811Y41632D01*
X54858Y41625D01*
X54909Y41621D01*
X54968Y41614D01*
X55026Y41610D01*
X55091Y41606D01*
X55157D01*
X55153Y41610D01*
X55131Y41625D01*
X55102Y41650D01*
X55066Y41683D01*
X55022Y41719D01*
X54982Y41767D01*
X54942Y41818D01*
X54906Y41876D01*
Y41879D01*
X54902Y41883D01*
X54891Y41905D01*
X54880Y41938D01*
X54862Y41981D01*
X54848Y42032D01*
X54836Y42090D01*
X54826Y42152D01*
X54822Y42218D01*
Y42247D01*
X54826Y42269D01*
X54829Y42298D01*
X54833Y42327D01*
X54840Y42364D01*
X54851Y42400D01*
X54877Y42484D01*
X54895Y42527D01*
X54920Y42571D01*
X54946Y42615D01*
X54975Y42662D01*
X55011Y42706D01*
X55051Y42746D01*
X55055Y42749D01*
X55062Y42757D01*
X55073Y42768D01*
X55091Y42779D01*
X55117Y42797D01*
X55142Y42815D01*
X55175Y42833D01*
X55212Y42855D01*
X55251Y42877D01*
X55295Y42895D01*
X55346Y42913D01*
X55397Y42931D01*
X55452Y42942D01*
X55514Y42953D01*
X55576Y42961D01*
X55641Y42964D01*
X55645D01*
X55652D01*
X55663D01*
X55681D01*
X55703Y42961D01*
D02*
G37*
G36*
X55677Y41024D02*
X55699Y41017D01*
X55728Y41006D01*
X55761Y40995D01*
X55801Y40980D01*
X55845Y40962D01*
X55892Y40940D01*
X55994Y40889D01*
X56096Y40824D01*
X56147Y40784D01*
X56198Y40744D01*
X56242Y40700D01*
X56285Y40649D01*
X56289Y40645D01*
X56296Y40638D01*
X56304Y40620D01*
X56318Y40602D01*
X56336Y40573D01*
X56354Y40543D01*
X56373Y40503D01*
X56391Y40463D01*
X56413Y40416D01*
X56431Y40365D01*
X56449Y40311D01*
X56467Y40252D01*
X56482Y40190D01*
X56489Y40125D01*
X56496Y40056D01*
X56500Y39983D01*
Y39943D01*
X56496Y39914D01*
Y39881D01*
X56493Y39841D01*
X56485Y39797D01*
X56478Y39746D01*
X56460Y39641D01*
X56431Y39532D01*
X56391Y39422D01*
X56365Y39371D01*
X56336Y39320D01*
X56333Y39317D01*
X56329Y39310D01*
X56318Y39295D01*
X56304Y39280D01*
X56289Y39259D01*
X56267Y39233D01*
X56242Y39204D01*
X56213Y39175D01*
X56180Y39146D01*
X56147Y39113D01*
X56063Y39048D01*
X55965Y38986D01*
X55856Y38931D01*
X55852D01*
X55841Y38924D01*
X55823Y38920D01*
X55801Y38909D01*
X55772Y38902D01*
X55736Y38891D01*
X55696Y38876D01*
X55652Y38866D01*
X55605Y38855D01*
X55550Y38840D01*
X55437Y38822D01*
X55310Y38807D01*
X55179Y38800D01*
X55175D01*
X55160D01*
X55139D01*
X55113Y38804D01*
X55077D01*
X55040Y38807D01*
X54993Y38811D01*
X54946Y38818D01*
X54840Y38836D01*
X54724Y38862D01*
X54607Y38898D01*
X54494Y38949D01*
X54491Y38953D01*
X54480Y38956D01*
X54465Y38964D01*
X54447Y38978D01*
X54422Y38993D01*
X54392Y39011D01*
X54327Y39058D01*
X54254Y39120D01*
X54181Y39193D01*
X54109Y39277D01*
X54047Y39375D01*
X54043Y39379D01*
X54039Y39390D01*
X54032Y39404D01*
X54021Y39422D01*
X54010Y39452D01*
X53999Y39481D01*
X53985Y39517D01*
X53970Y39557D01*
X53956Y39601D01*
X53941Y39648D01*
X53919Y39750D01*
X53901Y39867D01*
X53894Y39987D01*
Y40023D01*
X53897Y40049D01*
X53901Y40081D01*
X53905Y40121D01*
X53908Y40161D01*
X53919Y40209D01*
X53941Y40307D01*
X53974Y40416D01*
X53996Y40471D01*
X54021Y40522D01*
X54054Y40573D01*
X54087Y40624D01*
X54090Y40627D01*
X54094Y40635D01*
X54105Y40649D01*
X54123Y40667D01*
X54141Y40685D01*
X54167Y40711D01*
X54196Y40736D01*
X54225Y40766D01*
X54261Y40795D01*
X54305Y40824D01*
X54349Y40857D01*
X54396Y40886D01*
X54451Y40911D01*
X54505Y40940D01*
X54563Y40962D01*
X54629Y40984D01*
X54706Y40656D01*
X54702D01*
X54695Y40653D01*
X54680Y40645D01*
X54662Y40638D01*
X54640Y40631D01*
X54611Y40620D01*
X54553Y40591D01*
X54487Y40554D01*
X54422Y40511D01*
X54360Y40456D01*
X54305Y40398D01*
X54298Y40391D01*
X54283Y40369D01*
X54265Y40332D01*
X54240Y40285D01*
X54218Y40223D01*
X54196Y40154D01*
X54181Y40070D01*
X54178Y39979D01*
Y39950D01*
X54181Y39932D01*
Y39906D01*
X54185Y39877D01*
X54196Y39808D01*
X54211Y39732D01*
X54236Y39652D01*
X54272Y39568D01*
X54320Y39492D01*
Y39488D01*
X54327Y39484D01*
X54345Y39459D01*
X54374Y39426D01*
X54418Y39386D01*
X54473Y39339D01*
X54534Y39295D01*
X54611Y39255D01*
X54695Y39219D01*
X54698D01*
X54706Y39215D01*
X54716Y39211D01*
X54735Y39208D01*
X54756Y39200D01*
X54782Y39193D01*
X54844Y39182D01*
X54917Y39168D01*
X54997Y39153D01*
X55084Y39146D01*
X55179Y39142D01*
X55182D01*
X55193D01*
X55212D01*
X55233D01*
X55259Y39146D01*
X55291D01*
X55328Y39149D01*
X55368Y39153D01*
X55455Y39164D01*
X55550Y39182D01*
X55645Y39204D01*
X55739Y39233D01*
X55743D01*
X55750Y39237D01*
X55761Y39244D01*
X55779Y39251D01*
X55823Y39273D01*
X55874Y39306D01*
X55932Y39346D01*
X55994Y39397D01*
X56049Y39455D01*
X56100Y39524D01*
Y39528D01*
X56103Y39535D01*
X56111Y39546D01*
X56118Y39561D01*
X56125Y39579D01*
X56136Y39601D01*
X56158Y39652D01*
X56180Y39717D01*
X56198Y39790D01*
X56213Y39870D01*
X56216Y39954D01*
Y39979D01*
X56213Y40001D01*
Y40027D01*
X56209Y40052D01*
X56194Y40118D01*
X56176Y40194D01*
X56147Y40271D01*
X56107Y40351D01*
X56085Y40391D01*
X56056Y40427D01*
X56052Y40431D01*
X56049Y40434D01*
X56038Y40445D01*
X56027Y40460D01*
X56009Y40474D01*
X55987Y40492D01*
X55965Y40514D01*
X55936Y40533D01*
X55903Y40554D01*
X55867Y40580D01*
X55830Y40602D01*
X55787Y40624D01*
X55739Y40642D01*
X55688Y40660D01*
X55634Y40678D01*
X55576Y40693D01*
X55659Y41028D01*
X55663D01*
X55677Y41024D01*
D02*
G37*
G36*
X70048Y118403D02*
X70081Y118399D01*
X70121Y118395D01*
X70161Y118392D01*
X70209Y118381D01*
X70307Y118359D01*
X70416Y118326D01*
X70471Y118304D01*
X70522Y118279D01*
X70573Y118246D01*
X70624Y118213D01*
X70627Y118210D01*
X70635Y118206D01*
X70649Y118195D01*
X70667Y118177D01*
X70685Y118159D01*
X70711Y118133D01*
X70736Y118104D01*
X70766Y118075D01*
X70795Y118039D01*
X70824Y117995D01*
X70857Y117951D01*
X70886Y117904D01*
X70911Y117849D01*
X70940Y117795D01*
X70962Y117736D01*
X70984Y117671D01*
X70656Y117595D01*
Y117598D01*
X70653Y117605D01*
X70645Y117620D01*
X70638Y117638D01*
X70631Y117660D01*
X70620Y117689D01*
X70591Y117747D01*
X70554Y117813D01*
X70511Y117878D01*
X70456Y117940D01*
X70398Y117995D01*
X70391Y118002D01*
X70369Y118017D01*
X70332Y118035D01*
X70285Y118060D01*
X70223Y118082D01*
X70154Y118104D01*
X70070Y118119D01*
X69979Y118122D01*
X69950D01*
X69932Y118119D01*
X69907D01*
X69877Y118115D01*
X69808Y118104D01*
X69732Y118089D01*
X69652Y118064D01*
X69568Y118028D01*
X69491Y117980D01*
X69488D01*
X69484Y117973D01*
X69459Y117955D01*
X69426Y117926D01*
X69386Y117882D01*
X69339Y117827D01*
X69295Y117766D01*
X69255Y117689D01*
X69219Y117605D01*
Y117602D01*
X69215Y117595D01*
X69211Y117584D01*
X69208Y117565D01*
X69200Y117543D01*
X69193Y117518D01*
X69182Y117456D01*
X69168Y117383D01*
X69153Y117303D01*
X69146Y117216D01*
X69142Y117121D01*
Y117118D01*
Y117107D01*
Y117088D01*
Y117067D01*
X69146Y117041D01*
Y117008D01*
X69149Y116972D01*
X69153Y116932D01*
X69164Y116845D01*
X69182Y116750D01*
X69204Y116655D01*
X69233Y116561D01*
Y116557D01*
X69237Y116550D01*
X69244Y116539D01*
X69251Y116521D01*
X69273Y116477D01*
X69306Y116426D01*
X69346Y116368D01*
X69397Y116306D01*
X69455Y116251D01*
X69524Y116200D01*
X69528D01*
X69535Y116197D01*
X69546Y116189D01*
X69561Y116182D01*
X69579Y116175D01*
X69601Y116164D01*
X69652Y116142D01*
X69717Y116120D01*
X69790Y116102D01*
X69870Y116087D01*
X69954Y116084D01*
X69979D01*
X70001Y116087D01*
X70027D01*
X70052Y116091D01*
X70118Y116106D01*
X70194Y116124D01*
X70271Y116153D01*
X70351Y116193D01*
X70391Y116215D01*
X70427Y116244D01*
X70431Y116248D01*
X70434Y116251D01*
X70445Y116262D01*
X70460Y116273D01*
X70474Y116291D01*
X70493Y116313D01*
X70514Y116335D01*
X70533Y116364D01*
X70554Y116397D01*
X70580Y116433D01*
X70602Y116470D01*
X70624Y116513D01*
X70642Y116561D01*
X70660Y116612D01*
X70678Y116666D01*
X70693Y116725D01*
X71028Y116641D01*
Y116637D01*
X71024Y116623D01*
X71017Y116601D01*
X71006Y116572D01*
X70995Y116539D01*
X70980Y116499D01*
X70962Y116455D01*
X70940Y116408D01*
X70889Y116306D01*
X70824Y116204D01*
X70784Y116153D01*
X70744Y116102D01*
X70700Y116058D01*
X70649Y116015D01*
X70645Y116011D01*
X70638Y116004D01*
X70620Y115997D01*
X70602Y115982D01*
X70573Y115964D01*
X70543Y115946D01*
X70503Y115927D01*
X70463Y115909D01*
X70416Y115887D01*
X70365Y115869D01*
X70311Y115851D01*
X70252Y115833D01*
X70190Y115818D01*
X70125Y115811D01*
X70056Y115804D01*
X69983Y115800D01*
X69943D01*
X69914Y115804D01*
X69881D01*
X69841Y115807D01*
X69797Y115814D01*
X69746Y115822D01*
X69641Y115840D01*
X69532Y115869D01*
X69422Y115909D01*
X69371Y115935D01*
X69320Y115964D01*
X69317Y115967D01*
X69310Y115971D01*
X69295Y115982D01*
X69280Y115997D01*
X69259Y116011D01*
X69233Y116033D01*
X69204Y116058D01*
X69175Y116087D01*
X69146Y116120D01*
X69113Y116153D01*
X69047Y116237D01*
X68986Y116335D01*
X68931Y116444D01*
Y116448D01*
X68924Y116459D01*
X68920Y116477D01*
X68909Y116499D01*
X68902Y116528D01*
X68891Y116564D01*
X68876Y116604D01*
X68866Y116648D01*
X68854Y116695D01*
X68840Y116750D01*
X68822Y116863D01*
X68807Y116990D01*
X68800Y117121D01*
Y117125D01*
Y117139D01*
Y117161D01*
X68804Y117187D01*
Y117223D01*
X68807Y117260D01*
X68811Y117307D01*
X68818Y117354D01*
X68836Y117460D01*
X68862Y117576D01*
X68898Y117693D01*
X68949Y117806D01*
X68953Y117809D01*
X68957Y117820D01*
X68964Y117835D01*
X68978Y117853D01*
X68993Y117878D01*
X69011Y117908D01*
X69058Y117973D01*
X69120Y118046D01*
X69193Y118119D01*
X69277Y118191D01*
X69375Y118253D01*
X69379Y118257D01*
X69390Y118261D01*
X69404Y118268D01*
X69422Y118279D01*
X69451Y118290D01*
X69481Y118301D01*
X69517Y118315D01*
X69557Y118330D01*
X69601Y118344D01*
X69648Y118359D01*
X69750Y118381D01*
X69867Y118399D01*
X69987Y118406D01*
X70023D01*
X70048Y118403D01*
D02*
G37*
G36*
X72476Y115844D02*
X72167D01*
Y117813D01*
X72163Y117809D01*
X72145Y117795D01*
X72123Y117773D01*
X72087Y117747D01*
X72047Y117715D01*
X71996Y117678D01*
X71938Y117638D01*
X71872Y117598D01*
X71868D01*
X71865Y117595D01*
X71843Y117580D01*
X71807Y117562D01*
X71763Y117540D01*
X71712Y117514D01*
X71657Y117489D01*
X71603Y117463D01*
X71548Y117442D01*
Y117740D01*
X71552D01*
X71559Y117747D01*
X71574Y117751D01*
X71592Y117762D01*
X71614Y117773D01*
X71639Y117787D01*
X71701Y117824D01*
X71774Y117864D01*
X71847Y117915D01*
X71923Y117973D01*
X72000Y118035D01*
X72003Y118039D01*
X72007Y118042D01*
X72018Y118053D01*
X72032Y118064D01*
X72065Y118100D01*
X72109Y118144D01*
X72152Y118195D01*
X72200Y118253D01*
X72240Y118312D01*
X72276Y118373D01*
X72476D01*
Y115844D01*
D02*
G37*
G36*
X70148Y102902D02*
X70181Y102899D01*
X70221Y102895D01*
X70261Y102892D01*
X70309Y102881D01*
X70407Y102859D01*
X70516Y102826D01*
X70571Y102804D01*
X70622Y102779D01*
X70673Y102746D01*
X70724Y102713D01*
X70727Y102710D01*
X70735Y102706D01*
X70749Y102695D01*
X70767Y102677D01*
X70785Y102659D01*
X70811Y102633D01*
X70836Y102604D01*
X70865Y102575D01*
X70895Y102539D01*
X70924Y102495D01*
X70957Y102451D01*
X70986Y102404D01*
X71011Y102349D01*
X71040Y102295D01*
X71062Y102236D01*
X71084Y102171D01*
X70756Y102094D01*
Y102098D01*
X70753Y102105D01*
X70745Y102120D01*
X70738Y102138D01*
X70731Y102160D01*
X70720Y102189D01*
X70691Y102247D01*
X70654Y102313D01*
X70611Y102378D01*
X70556Y102440D01*
X70498Y102495D01*
X70491Y102502D01*
X70469Y102517D01*
X70432Y102535D01*
X70385Y102560D01*
X70323Y102582D01*
X70254Y102604D01*
X70170Y102619D01*
X70079Y102622D01*
X70050D01*
X70032Y102619D01*
X70007D01*
X69977Y102615D01*
X69908Y102604D01*
X69832Y102589D01*
X69752Y102564D01*
X69668Y102528D01*
X69591Y102480D01*
X69588D01*
X69584Y102473D01*
X69559Y102455D01*
X69526Y102426D01*
X69486Y102382D01*
X69439Y102327D01*
X69395Y102266D01*
X69355Y102189D01*
X69319Y102105D01*
Y102102D01*
X69315Y102094D01*
X69311Y102084D01*
X69308Y102065D01*
X69300Y102043D01*
X69293Y102018D01*
X69282Y101956D01*
X69268Y101883D01*
X69253Y101803D01*
X69246Y101716D01*
X69242Y101621D01*
Y101618D01*
Y101607D01*
Y101588D01*
Y101567D01*
X69246Y101541D01*
Y101508D01*
X69249Y101472D01*
X69253Y101432D01*
X69264Y101345D01*
X69282Y101250D01*
X69304Y101155D01*
X69333Y101061D01*
Y101057D01*
X69337Y101050D01*
X69344Y101039D01*
X69351Y101021D01*
X69373Y100977D01*
X69406Y100926D01*
X69446Y100868D01*
X69497Y100806D01*
X69555Y100751D01*
X69624Y100700D01*
X69628D01*
X69635Y100697D01*
X69646Y100689D01*
X69661Y100682D01*
X69679Y100675D01*
X69701Y100664D01*
X69752Y100642D01*
X69817Y100620D01*
X69890Y100602D01*
X69970Y100587D01*
X70054Y100584D01*
X70079D01*
X70101Y100587D01*
X70127D01*
X70152Y100591D01*
X70218Y100606D01*
X70294Y100624D01*
X70371Y100653D01*
X70451Y100693D01*
X70491Y100715D01*
X70527Y100744D01*
X70531Y100748D01*
X70534Y100751D01*
X70545Y100762D01*
X70560Y100773D01*
X70574Y100791D01*
X70593Y100813D01*
X70614Y100835D01*
X70633Y100864D01*
X70654Y100897D01*
X70680Y100933D01*
X70702Y100970D01*
X70724Y101013D01*
X70742Y101061D01*
X70760Y101112D01*
X70778Y101166D01*
X70793Y101225D01*
X71128Y101141D01*
Y101137D01*
X71124Y101123D01*
X71117Y101101D01*
X71106Y101072D01*
X71095Y101039D01*
X71080Y100999D01*
X71062Y100955D01*
X71040Y100908D01*
X70989Y100806D01*
X70924Y100704D01*
X70884Y100653D01*
X70844Y100602D01*
X70800Y100558D01*
X70749Y100515D01*
X70745Y100511D01*
X70738Y100504D01*
X70720Y100496D01*
X70702Y100482D01*
X70673Y100464D01*
X70644Y100446D01*
X70604Y100427D01*
X70563Y100409D01*
X70516Y100387D01*
X70465Y100369D01*
X70411Y100351D01*
X70352Y100333D01*
X70290Y100318D01*
X70225Y100311D01*
X70156Y100304D01*
X70083Y100300D01*
X70043D01*
X70014Y100304D01*
X69981D01*
X69941Y100307D01*
X69897Y100314D01*
X69846Y100322D01*
X69741Y100340D01*
X69632Y100369D01*
X69522Y100409D01*
X69471Y100435D01*
X69420Y100464D01*
X69417Y100467D01*
X69410Y100471D01*
X69395Y100482D01*
X69380Y100496D01*
X69359Y100511D01*
X69333Y100533D01*
X69304Y100558D01*
X69275Y100587D01*
X69246Y100620D01*
X69213Y100653D01*
X69147Y100737D01*
X69086Y100835D01*
X69031Y100944D01*
Y100948D01*
X69024Y100959D01*
X69020Y100977D01*
X69009Y100999D01*
X69002Y101028D01*
X68991Y101064D01*
X68976Y101104D01*
X68966Y101148D01*
X68954Y101195D01*
X68940Y101250D01*
X68922Y101363D01*
X68907Y101490D01*
X68900Y101621D01*
Y101625D01*
Y101639D01*
Y101661D01*
X68904Y101687D01*
Y101723D01*
X68907Y101760D01*
X68911Y101807D01*
X68918Y101854D01*
X68936Y101960D01*
X68962Y102076D01*
X68998Y102193D01*
X69049Y102306D01*
X69053Y102309D01*
X69056Y102320D01*
X69064Y102335D01*
X69078Y102353D01*
X69093Y102378D01*
X69111Y102408D01*
X69158Y102473D01*
X69220Y102546D01*
X69293Y102619D01*
X69377Y102691D01*
X69475Y102753D01*
X69479Y102757D01*
X69490Y102761D01*
X69504Y102768D01*
X69522Y102779D01*
X69551Y102790D01*
X69581Y102801D01*
X69617Y102815D01*
X69657Y102830D01*
X69701Y102844D01*
X69748Y102859D01*
X69850Y102881D01*
X69967Y102899D01*
X70087Y102906D01*
X70123D01*
X70148Y102902D01*
D02*
G37*
G36*
X72307Y102870D02*
X72336Y102866D01*
X72373Y102863D01*
X72413Y102855D01*
X72453Y102848D01*
X72547Y102822D01*
X72642Y102786D01*
X72689Y102764D01*
X72737Y102739D01*
X72780Y102706D01*
X72820Y102670D01*
X72824Y102666D01*
X72831Y102662D01*
X72838Y102648D01*
X72853Y102633D01*
X72871Y102615D01*
X72889Y102589D01*
X72908Y102564D01*
X72929Y102531D01*
X72966Y102462D01*
X73002Y102375D01*
X73017Y102331D01*
X73024Y102280D01*
X73031Y102229D01*
X73035Y102174D01*
Y102167D01*
Y102149D01*
X73031Y102120D01*
X73028Y102080D01*
X73020Y102036D01*
X73006Y101985D01*
X72991Y101931D01*
X72970Y101876D01*
X72966Y101869D01*
X72959Y101851D01*
X72944Y101821D01*
X72922Y101781D01*
X72893Y101738D01*
X72857Y101683D01*
X72813Y101628D01*
X72762Y101567D01*
X72755Y101559D01*
X72737Y101538D01*
X72718Y101519D01*
X72700Y101501D01*
X72678Y101479D01*
X72649Y101450D01*
X72620Y101421D01*
X72584Y101388D01*
X72547Y101352D01*
X72504Y101312D01*
X72456Y101272D01*
X72405Y101225D01*
X72347Y101177D01*
X72289Y101126D01*
X72285Y101123D01*
X72278Y101115D01*
X72263Y101104D01*
X72245Y101090D01*
X72223Y101068D01*
X72198Y101046D01*
X72140Y100999D01*
X72078Y100944D01*
X72019Y100890D01*
X71969Y100842D01*
X71947Y100824D01*
X71928Y100806D01*
X71925Y100802D01*
X71914Y100791D01*
X71899Y100777D01*
X71881Y100755D01*
X71863Y100730D01*
X71841Y100704D01*
X71797Y100642D01*
X73039D01*
Y100344D01*
X71368D01*
Y100347D01*
Y100362D01*
Y100384D01*
X71372Y100413D01*
X71375Y100446D01*
X71382Y100482D01*
X71390Y100518D01*
X71404Y100558D01*
Y100562D01*
X71408Y100566D01*
X71415Y100587D01*
X71430Y100620D01*
X71452Y100664D01*
X71481Y100715D01*
X71517Y100773D01*
X71557Y100831D01*
X71608Y100893D01*
Y100897D01*
X71615Y100900D01*
X71634Y100922D01*
X71666Y100955D01*
X71714Y101003D01*
X71768Y101057D01*
X71837Y101123D01*
X71921Y101195D01*
X72012Y101272D01*
X72016Y101276D01*
X72030Y101286D01*
X72052Y101305D01*
X72078Y101326D01*
X72110Y101356D01*
X72150Y101388D01*
X72190Y101425D01*
X72238Y101465D01*
X72329Y101552D01*
X72420Y101639D01*
X72464Y101683D01*
X72504Y101727D01*
X72540Y101767D01*
X72569Y101807D01*
Y101811D01*
X72576Y101814D01*
X72584Y101825D01*
X72591Y101840D01*
X72616Y101880D01*
X72645Y101927D01*
X72671Y101985D01*
X72697Y102047D01*
X72711Y102116D01*
X72718Y102182D01*
Y102185D01*
Y102189D01*
X72715Y102211D01*
X72711Y102247D01*
X72700Y102287D01*
X72686Y102338D01*
X72660Y102389D01*
X72627Y102440D01*
X72584Y102491D01*
X72576Y102498D01*
X72558Y102513D01*
X72533Y102531D01*
X72493Y102557D01*
X72442Y102579D01*
X72383Y102600D01*
X72314Y102615D01*
X72238Y102619D01*
X72216D01*
X72201Y102615D01*
X72158Y102611D01*
X72107Y102600D01*
X72052Y102586D01*
X71990Y102560D01*
X71932Y102528D01*
X71877Y102484D01*
X71870Y102477D01*
X71856Y102459D01*
X71834Y102429D01*
X71812Y102386D01*
X71786Y102335D01*
X71765Y102269D01*
X71750Y102196D01*
X71743Y102113D01*
X71426Y102145D01*
Y102149D01*
X71430Y102160D01*
Y102178D01*
X71433Y102204D01*
X71441Y102233D01*
X71448Y102266D01*
X71459Y102306D01*
X71470Y102346D01*
X71499Y102433D01*
X71543Y102520D01*
X71568Y102564D01*
X71601Y102608D01*
X71634Y102648D01*
X71670Y102684D01*
X71674Y102688D01*
X71681Y102691D01*
X71692Y102702D01*
X71710Y102713D01*
X71732Y102728D01*
X71757Y102742D01*
X71786Y102761D01*
X71823Y102779D01*
X71863Y102797D01*
X71907Y102815D01*
X71954Y102830D01*
X72005Y102844D01*
X72060Y102855D01*
X72118Y102866D01*
X72180Y102870D01*
X72245Y102873D01*
X72281D01*
X72307Y102870D01*
D02*
G37*
G36*
X26719Y110897D02*
X26420D01*
Y112265D01*
X25641D01*
Y111082D01*
X25343D01*
Y112265D01*
X24200D01*
Y112600D01*
X26719D01*
Y110897D01*
D02*
G37*
G36*
X26096Y110351D02*
X26104Y110343D01*
X26107Y110329D01*
X26118Y110310D01*
X26129Y110289D01*
X26144Y110263D01*
X26180Y110201D01*
X26220Y110128D01*
X26271Y110056D01*
X26329Y109979D01*
X26391Y109903D01*
X26395Y109899D01*
X26399Y109896D01*
X26409Y109885D01*
X26420Y109870D01*
X26457Y109837D01*
X26500Y109794D01*
X26551Y109750D01*
X26610Y109703D01*
X26668Y109663D01*
X26730Y109626D01*
Y109426D01*
X24200D01*
Y109735D01*
X26169D01*
X26166Y109739D01*
X26151Y109757D01*
X26129Y109779D01*
X26104Y109815D01*
X26071Y109855D01*
X26035Y109906D01*
X25995Y109965D01*
X25954Y110030D01*
Y110034D01*
X25951Y110038D01*
X25936Y110059D01*
X25918Y110096D01*
X25896Y110139D01*
X25871Y110190D01*
X25845Y110245D01*
X25820Y110300D01*
X25798Y110354D01*
X26096D01*
Y110351D01*
D02*
G37*
G36*
X65587Y32396D02*
X65623D01*
X65660Y32393D01*
X65707Y32389D01*
X65754Y32382D01*
X65860Y32364D01*
X65976Y32338D01*
X66093Y32302D01*
X66206Y32251D01*
X66209Y32247D01*
X66220Y32243D01*
X66235Y32236D01*
X66253Y32222D01*
X66278Y32207D01*
X66307Y32189D01*
X66373Y32142D01*
X66446Y32080D01*
X66519Y32007D01*
X66591Y31923D01*
X66653Y31825D01*
X66657Y31821D01*
X66661Y31810D01*
X66668Y31796D01*
X66679Y31778D01*
X66690Y31749D01*
X66701Y31719D01*
X66715Y31683D01*
X66730Y31643D01*
X66744Y31599D01*
X66759Y31552D01*
X66781Y31450D01*
X66799Y31334D01*
X66806Y31213D01*
Y31177D01*
X66803Y31152D01*
X66799Y31119D01*
X66795Y31079D01*
X66792Y31039D01*
X66781Y30991D01*
X66759Y30893D01*
X66726Y30784D01*
X66704Y30729D01*
X66679Y30678D01*
X66646Y30627D01*
X66613Y30576D01*
X66610Y30573D01*
X66606Y30566D01*
X66595Y30551D01*
X66577Y30533D01*
X66559Y30514D01*
X66533Y30489D01*
X66504Y30463D01*
X66475Y30434D01*
X66439Y30405D01*
X66395Y30376D01*
X66351Y30343D01*
X66304Y30314D01*
X66249Y30289D01*
X66195Y30260D01*
X66136Y30238D01*
X66071Y30216D01*
X65995Y30544D01*
X65998D01*
X66005Y30547D01*
X66020Y30555D01*
X66038Y30562D01*
X66060Y30569D01*
X66089Y30580D01*
X66147Y30609D01*
X66213Y30645D01*
X66278Y30689D01*
X66340Y30744D01*
X66395Y30802D01*
X66402Y30809D01*
X66417Y30831D01*
X66435Y30868D01*
X66460Y30915D01*
X66482Y30977D01*
X66504Y31046D01*
X66519Y31130D01*
X66522Y31221D01*
Y31250D01*
X66519Y31268D01*
Y31293D01*
X66515Y31323D01*
X66504Y31392D01*
X66489Y31468D01*
X66464Y31548D01*
X66428Y31632D01*
X66380Y31708D01*
Y31712D01*
X66373Y31716D01*
X66355Y31741D01*
X66326Y31774D01*
X66282Y31814D01*
X66227Y31861D01*
X66166Y31905D01*
X66089Y31945D01*
X66005Y31981D01*
X66002D01*
X65995Y31985D01*
X65984Y31989D01*
X65965Y31992D01*
X65943Y32000D01*
X65918Y32007D01*
X65856Y32018D01*
X65783Y32032D01*
X65703Y32047D01*
X65616Y32054D01*
X65521Y32058D01*
X65518D01*
X65507D01*
X65488D01*
X65467D01*
X65441Y32054D01*
X65408D01*
X65372Y32051D01*
X65332Y32047D01*
X65245Y32036D01*
X65150Y32018D01*
X65055Y31996D01*
X64961Y31967D01*
X64957D01*
X64950Y31963D01*
X64939Y31956D01*
X64921Y31949D01*
X64877Y31927D01*
X64826Y31894D01*
X64768Y31854D01*
X64706Y31803D01*
X64651Y31745D01*
X64600Y31676D01*
Y31672D01*
X64597Y31665D01*
X64589Y31654D01*
X64582Y31639D01*
X64575Y31621D01*
X64564Y31599D01*
X64542Y31548D01*
X64520Y31483D01*
X64502Y31410D01*
X64487Y31330D01*
X64484Y31246D01*
Y31221D01*
X64487Y31199D01*
Y31173D01*
X64491Y31148D01*
X64506Y31082D01*
X64524Y31006D01*
X64553Y30929D01*
X64593Y30849D01*
X64615Y30809D01*
X64644Y30773D01*
X64648Y30769D01*
X64651Y30766D01*
X64662Y30755D01*
X64673Y30740D01*
X64691Y30726D01*
X64713Y30707D01*
X64735Y30686D01*
X64764Y30667D01*
X64797Y30645D01*
X64833Y30620D01*
X64870Y30598D01*
X64913Y30576D01*
X64961Y30558D01*
X65012Y30540D01*
X65066Y30522D01*
X65124Y30507D01*
X65041Y30172D01*
X65037D01*
X65023Y30176D01*
X65001Y30183D01*
X64972Y30194D01*
X64939Y30205D01*
X64899Y30220D01*
X64855Y30238D01*
X64808Y30260D01*
X64706Y30311D01*
X64604Y30376D01*
X64553Y30416D01*
X64502Y30456D01*
X64458Y30500D01*
X64415Y30551D01*
X64411Y30555D01*
X64404Y30562D01*
X64397Y30580D01*
X64382Y30598D01*
X64364Y30627D01*
X64346Y30656D01*
X64327Y30696D01*
X64309Y30737D01*
X64287Y30784D01*
X64269Y30835D01*
X64251Y30889D01*
X64233Y30948D01*
X64218Y31010D01*
X64211Y31075D01*
X64204Y31144D01*
X64200Y31217D01*
Y31257D01*
X64204Y31286D01*
Y31319D01*
X64207Y31359D01*
X64214Y31403D01*
X64222Y31454D01*
X64240Y31559D01*
X64269Y31668D01*
X64309Y31778D01*
X64335Y31829D01*
X64364Y31879D01*
X64367Y31883D01*
X64371Y31890D01*
X64382Y31905D01*
X64397Y31920D01*
X64411Y31941D01*
X64433Y31967D01*
X64458Y31996D01*
X64487Y32025D01*
X64520Y32054D01*
X64553Y32087D01*
X64637Y32153D01*
X64735Y32214D01*
X64844Y32269D01*
X64848D01*
X64859Y32276D01*
X64877Y32280D01*
X64899Y32291D01*
X64928Y32298D01*
X64964Y32309D01*
X65004Y32324D01*
X65048Y32335D01*
X65095Y32345D01*
X65150Y32360D01*
X65263Y32378D01*
X65390Y32393D01*
X65521Y32400D01*
X65525D01*
X65539D01*
X65561D01*
X65587Y32396D01*
D02*
G37*
G36*
X64928Y29564D02*
X64924D01*
X64917D01*
X64906Y29561D01*
X64888Y29557D01*
X64848Y29546D01*
X64793Y29532D01*
X64739Y29510D01*
X64677Y29481D01*
X64622Y29444D01*
X64571Y29401D01*
X64568Y29393D01*
X64553Y29379D01*
X64535Y29350D01*
X64513Y29310D01*
X64491Y29266D01*
X64473Y29211D01*
X64458Y29149D01*
X64455Y29080D01*
Y29059D01*
X64458Y29044D01*
X64462Y29000D01*
X64477Y28949D01*
X64495Y28887D01*
X64524Y28826D01*
X64568Y28760D01*
X64593Y28731D01*
X64622Y28702D01*
X64626Y28698D01*
X64630Y28694D01*
X64640Y28687D01*
X64651Y28676D01*
X64691Y28651D01*
X64742Y28622D01*
X64804Y28596D01*
X64881Y28571D01*
X64972Y28553D01*
X65019Y28545D01*
X65070D01*
X65074D01*
X65081D01*
X65095D01*
X65114Y28549D01*
X65135D01*
X65161Y28553D01*
X65219Y28563D01*
X65288Y28582D01*
X65358Y28607D01*
X65423Y28644D01*
X65485Y28694D01*
X65488D01*
X65492Y28702D01*
X65510Y28720D01*
X65536Y28753D01*
X65565Y28796D01*
X65590Y28855D01*
X65616Y28920D01*
X65634Y28997D01*
X65641Y29040D01*
Y29109D01*
X65638Y29139D01*
X65634Y29175D01*
X65623Y29219D01*
X65612Y29262D01*
X65594Y29310D01*
X65572Y29357D01*
X65569Y29361D01*
X65561Y29375D01*
X65543Y29397D01*
X65525Y29426D01*
X65499Y29455D01*
X65467Y29484D01*
X65434Y29517D01*
X65394Y29543D01*
X65434Y29834D01*
X66730Y29590D01*
Y28338D01*
X66435D01*
Y29346D01*
X65754Y29481D01*
X65758Y29477D01*
X65762Y29470D01*
X65769Y29459D01*
X65780Y29441D01*
X65791Y29419D01*
X65805Y29393D01*
X65834Y29335D01*
X65863Y29262D01*
X65889Y29182D01*
X65907Y29095D01*
X65914Y29051D01*
Y28971D01*
X65911Y28949D01*
X65907Y28920D01*
X65904Y28887D01*
X65896Y28851D01*
X65885Y28811D01*
X65860Y28724D01*
X65842Y28676D01*
X65816Y28629D01*
X65791Y28582D01*
X65762Y28534D01*
X65725Y28491D01*
X65685Y28447D01*
X65681Y28443D01*
X65674Y28436D01*
X65663Y28425D01*
X65645Y28411D01*
X65620Y28392D01*
X65594Y28374D01*
X65561Y28352D01*
X65525Y28330D01*
X65485Y28312D01*
X65441Y28291D01*
X65390Y28272D01*
X65339Y28254D01*
X65285Y28240D01*
X65223Y28229D01*
X65161Y28221D01*
X65095Y28218D01*
X65092D01*
X65081D01*
X65063D01*
X65037Y28221D01*
X65008Y28225D01*
X64975Y28229D01*
X64935Y28236D01*
X64895Y28243D01*
X64801Y28265D01*
X64702Y28301D01*
X64651Y28323D01*
X64604Y28352D01*
X64553Y28381D01*
X64506Y28418D01*
X64502Y28422D01*
X64491Y28429D01*
X64477Y28443D01*
X64458Y28462D01*
X64437Y28487D01*
X64407Y28516D01*
X64382Y28553D01*
X64353Y28593D01*
X64324Y28636D01*
X64298Y28687D01*
X64273Y28742D01*
X64247Y28800D01*
X64229Y28862D01*
X64214Y28931D01*
X64204Y29004D01*
X64200Y29080D01*
Y29113D01*
X64204Y29139D01*
X64207Y29168D01*
X64211Y29201D01*
X64214Y29241D01*
X64225Y29280D01*
X64247Y29372D01*
X64280Y29463D01*
X64302Y29510D01*
X64327Y29557D01*
X64356Y29601D01*
X64389Y29645D01*
X64393Y29648D01*
X64397Y29656D01*
X64411Y29663D01*
X64426Y29677D01*
X64444Y29695D01*
X64466Y29714D01*
X64495Y29736D01*
X64527Y29754D01*
X64560Y29776D01*
X64600Y29797D01*
X64688Y29838D01*
X64790Y29870D01*
X64844Y29881D01*
X64903Y29888D01*
X64928Y29564D01*
D02*
G37*
G36*
X78448Y90602D02*
X78481Y90599D01*
X78521Y90595D01*
X78561Y90592D01*
X78609Y90581D01*
X78707Y90559D01*
X78816Y90526D01*
X78871Y90504D01*
X78922Y90479D01*
X78973Y90446D01*
X79024Y90413D01*
X79027Y90410D01*
X79035Y90406D01*
X79049Y90395D01*
X79067Y90377D01*
X79085Y90359D01*
X79111Y90333D01*
X79136Y90304D01*
X79166Y90275D01*
X79195Y90238D01*
X79224Y90195D01*
X79257Y90151D01*
X79286Y90104D01*
X79311Y90049D01*
X79340Y89995D01*
X79362Y89936D01*
X79384Y89871D01*
X79056Y89794D01*
Y89798D01*
X79053Y89805D01*
X79045Y89820D01*
X79038Y89838D01*
X79031Y89860D01*
X79020Y89889D01*
X78991Y89947D01*
X78954Y90013D01*
X78911Y90078D01*
X78856Y90140D01*
X78798Y90195D01*
X78791Y90202D01*
X78769Y90217D01*
X78732Y90235D01*
X78685Y90260D01*
X78623Y90282D01*
X78554Y90304D01*
X78470Y90319D01*
X78379Y90322D01*
X78350D01*
X78332Y90319D01*
X78307D01*
X78277Y90315D01*
X78208Y90304D01*
X78132Y90289D01*
X78052Y90264D01*
X77968Y90228D01*
X77891Y90180D01*
X77888D01*
X77884Y90173D01*
X77859Y90155D01*
X77826Y90126D01*
X77786Y90082D01*
X77739Y90027D01*
X77695Y89965D01*
X77655Y89889D01*
X77619Y89805D01*
Y89802D01*
X77615Y89794D01*
X77611Y89784D01*
X77608Y89765D01*
X77600Y89744D01*
X77593Y89718D01*
X77582Y89656D01*
X77568Y89583D01*
X77553Y89503D01*
X77546Y89416D01*
X77542Y89321D01*
Y89318D01*
Y89307D01*
Y89289D01*
Y89267D01*
X77546Y89241D01*
Y89208D01*
X77549Y89172D01*
X77553Y89132D01*
X77564Y89045D01*
X77582Y88950D01*
X77604Y88855D01*
X77633Y88761D01*
Y88757D01*
X77637Y88750D01*
X77644Y88739D01*
X77651Y88721D01*
X77673Y88677D01*
X77706Y88626D01*
X77746Y88568D01*
X77797Y88506D01*
X77855Y88451D01*
X77924Y88400D01*
X77928D01*
X77935Y88397D01*
X77946Y88389D01*
X77961Y88382D01*
X77979Y88375D01*
X78001Y88364D01*
X78052Y88342D01*
X78117Y88320D01*
X78190Y88302D01*
X78270Y88288D01*
X78354Y88284D01*
X78379D01*
X78401Y88288D01*
X78427D01*
X78452Y88291D01*
X78518Y88306D01*
X78594Y88324D01*
X78671Y88353D01*
X78751Y88393D01*
X78791Y88415D01*
X78827Y88444D01*
X78831Y88448D01*
X78834Y88451D01*
X78845Y88462D01*
X78860Y88473D01*
X78874Y88491D01*
X78893Y88513D01*
X78914Y88535D01*
X78933Y88564D01*
X78954Y88597D01*
X78980Y88633D01*
X79002Y88670D01*
X79024Y88713D01*
X79042Y88761D01*
X79060Y88812D01*
X79078Y88866D01*
X79093Y88924D01*
X79428Y88841D01*
Y88837D01*
X79424Y88823D01*
X79417Y88801D01*
X79406Y88772D01*
X79395Y88739D01*
X79380Y88699D01*
X79362Y88655D01*
X79340Y88608D01*
X79289Y88506D01*
X79224Y88404D01*
X79184Y88353D01*
X79144Y88302D01*
X79100Y88258D01*
X79049Y88215D01*
X79045Y88211D01*
X79038Y88204D01*
X79020Y88196D01*
X79002Y88182D01*
X78973Y88164D01*
X78944Y88146D01*
X78904Y88127D01*
X78863Y88109D01*
X78816Y88087D01*
X78765Y88069D01*
X78711Y88051D01*
X78652Y88033D01*
X78590Y88018D01*
X78525Y88011D01*
X78456Y88004D01*
X78383Y88000D01*
X78343D01*
X78314Y88004D01*
X78281D01*
X78241Y88007D01*
X78197Y88015D01*
X78146Y88022D01*
X78041Y88040D01*
X77932Y88069D01*
X77822Y88109D01*
X77771Y88135D01*
X77720Y88164D01*
X77717Y88167D01*
X77710Y88171D01*
X77695Y88182D01*
X77680Y88196D01*
X77659Y88211D01*
X77633Y88233D01*
X77604Y88258D01*
X77575Y88288D01*
X77546Y88320D01*
X77513Y88353D01*
X77447Y88437D01*
X77386Y88535D01*
X77331Y88644D01*
Y88648D01*
X77324Y88659D01*
X77320Y88677D01*
X77309Y88699D01*
X77302Y88728D01*
X77291Y88764D01*
X77276Y88804D01*
X77266Y88848D01*
X77254Y88895D01*
X77240Y88950D01*
X77222Y89063D01*
X77207Y89190D01*
X77200Y89321D01*
Y89325D01*
Y89340D01*
Y89361D01*
X77204Y89387D01*
Y89423D01*
X77207Y89460D01*
X77211Y89507D01*
X77218Y89554D01*
X77236Y89660D01*
X77262Y89776D01*
X77298Y89893D01*
X77349Y90006D01*
X77353Y90009D01*
X77356Y90020D01*
X77364Y90035D01*
X77378Y90053D01*
X77393Y90078D01*
X77411Y90108D01*
X77458Y90173D01*
X77520Y90246D01*
X77593Y90319D01*
X77677Y90391D01*
X77775Y90453D01*
X77779Y90457D01*
X77790Y90461D01*
X77804Y90468D01*
X77822Y90479D01*
X77851Y90490D01*
X77881Y90501D01*
X77917Y90515D01*
X77957Y90530D01*
X78001Y90544D01*
X78048Y90559D01*
X78150Y90581D01*
X78267Y90599D01*
X78387Y90606D01*
X78423D01*
X78448Y90602D01*
D02*
G37*
G36*
X81011Y88932D02*
X81353D01*
Y88648D01*
X81011D01*
Y88044D01*
X80702D01*
Y88648D01*
X79606D01*
Y88932D01*
X80760Y90562D01*
X81011D01*
Y88932D01*
D02*
G37*
%LPC*%
G36*
X32717Y80079D02*
X32135D01*
Y78157D01*
X32732D01*
X32757Y78161D01*
X32812Y78165D01*
X32874Y78168D01*
X32939Y78176D01*
X33005Y78187D01*
X33059Y78201D01*
X33067Y78205D01*
X33085Y78208D01*
X33110Y78219D01*
X33143Y78234D01*
X33180Y78256D01*
X33216Y78277D01*
X33252Y78303D01*
X33289Y78332D01*
X33292Y78339D01*
X33307Y78354D01*
X33329Y78379D01*
X33354Y78416D01*
X33383Y78463D01*
X33416Y78518D01*
X33445Y78580D01*
X33471Y78649D01*
Y78652D01*
X33474Y78660D01*
X33478Y78671D01*
X33482Y78685D01*
X33485Y78703D01*
X33493Y78729D01*
X33500Y78754D01*
X33507Y78783D01*
X33518Y78856D01*
X33529Y78940D01*
X33536Y79035D01*
X33540Y79137D01*
Y79140D01*
Y79155D01*
Y79173D01*
X33536Y79202D01*
Y79235D01*
X33533Y79271D01*
X33529Y79315D01*
X33525Y79359D01*
X33507Y79457D01*
X33485Y79559D01*
X33453Y79653D01*
X33431Y79701D01*
X33409Y79741D01*
Y79744D01*
X33402Y79752D01*
X33394Y79763D01*
X33387Y79777D01*
X33358Y79814D01*
X33321Y79857D01*
X33274Y79905D01*
X33220Y79952D01*
X33158Y79992D01*
X33092Y80025D01*
X33085Y80028D01*
X33067Y80032D01*
X33034Y80043D01*
X32987Y80054D01*
X32928Y80061D01*
X32856Y80072D01*
X32812Y80076D01*
X32765D01*
X32717Y80079D01*
D02*
G37*
G36*
X32917Y66323D02*
X32335D01*
Y64401D01*
X32932D01*
X32957Y64405D01*
X33012Y64408D01*
X33074Y64412D01*
X33139Y64419D01*
X33205Y64430D01*
X33259Y64445D01*
X33267Y64448D01*
X33285Y64452D01*
X33310Y64463D01*
X33343Y64477D01*
X33380Y64499D01*
X33416Y64521D01*
X33452Y64547D01*
X33489Y64576D01*
X33492Y64583D01*
X33507Y64598D01*
X33529Y64623D01*
X33554Y64660D01*
X33583Y64707D01*
X33616Y64761D01*
X33645Y64823D01*
X33671Y64892D01*
Y64896D01*
X33674Y64903D01*
X33678Y64914D01*
X33682Y64929D01*
X33685Y64947D01*
X33693Y64973D01*
X33700Y64998D01*
X33707Y65027D01*
X33718Y65100D01*
X33729Y65184D01*
X33736Y65278D01*
X33740Y65380D01*
Y65384D01*
Y65398D01*
Y65417D01*
X33736Y65446D01*
Y65478D01*
X33733Y65515D01*
X33729Y65559D01*
X33725Y65602D01*
X33707Y65701D01*
X33685Y65802D01*
X33653Y65897D01*
X33631Y65944D01*
X33609Y65984D01*
Y65988D01*
X33602Y65995D01*
X33594Y66006D01*
X33587Y66021D01*
X33558Y66057D01*
X33522Y66101D01*
X33474Y66148D01*
X33420Y66196D01*
X33358Y66236D01*
X33292Y66268D01*
X33285Y66272D01*
X33267Y66276D01*
X33234Y66287D01*
X33187Y66298D01*
X33128Y66305D01*
X33056Y66316D01*
X33012Y66319D01*
X32965D01*
X32917Y66323D01*
D02*
G37*
G36*
X35403Y52375D02*
X34610Y51247D01*
X35403D01*
Y52375D01*
D02*
G37*
G36*
X32917Y52579D02*
X32335D01*
Y50657D01*
X32932D01*
X32957Y50661D01*
X33012Y50665D01*
X33074Y50668D01*
X33139Y50676D01*
X33205Y50687D01*
X33259Y50701D01*
X33267Y50705D01*
X33285Y50708D01*
X33310Y50719D01*
X33343Y50734D01*
X33380Y50756D01*
X33416Y50778D01*
X33452Y50803D01*
X33489Y50832D01*
X33492Y50839D01*
X33507Y50854D01*
X33529Y50879D01*
X33554Y50916D01*
X33583Y50963D01*
X33616Y51018D01*
X33645Y51080D01*
X33671Y51149D01*
Y51152D01*
X33674Y51160D01*
X33678Y51171D01*
X33682Y51185D01*
X33685Y51203D01*
X33693Y51229D01*
X33700Y51254D01*
X33707Y51283D01*
X33718Y51356D01*
X33729Y51440D01*
X33736Y51535D01*
X33740Y51636D01*
Y51640D01*
Y51655D01*
Y51673D01*
X33736Y51702D01*
Y51735D01*
X33733Y51771D01*
X33729Y51815D01*
X33725Y51859D01*
X33707Y51957D01*
X33685Y52059D01*
X33653Y52153D01*
X33631Y52201D01*
X33609Y52241D01*
Y52244D01*
X33602Y52252D01*
X33594Y52263D01*
X33587Y52277D01*
X33558Y52314D01*
X33522Y52357D01*
X33474Y52405D01*
X33420Y52452D01*
X33358Y52492D01*
X33292Y52525D01*
X33285Y52528D01*
X33267Y52532D01*
X33234Y52543D01*
X33187Y52554D01*
X33128Y52561D01*
X33056Y52572D01*
X33012Y52576D01*
X32965D01*
X32917Y52579D01*
D02*
G37*
G36*
X55659Y42647D02*
X55656D01*
X55648D01*
X55634D01*
X55616Y42644D01*
X55594D01*
X55568Y42640D01*
X55510Y42629D01*
X55444Y42615D01*
X55375Y42589D01*
X55310Y42553D01*
X55248Y42505D01*
X55241Y42498D01*
X55222Y42480D01*
X55200Y42451D01*
X55171Y42411D01*
X55142Y42360D01*
X55120Y42302D01*
X55102Y42232D01*
X55095Y42156D01*
Y42134D01*
X55099Y42120D01*
X55102Y42083D01*
X55113Y42032D01*
X55131Y41978D01*
X55160Y41916D01*
X55197Y41857D01*
X55248Y41799D01*
X55255Y41792D01*
X55273Y41778D01*
X55306Y41752D01*
X55353Y41726D01*
X55408Y41701D01*
X55477Y41675D01*
X55554Y41661D01*
X55641Y41654D01*
X55648D01*
X55667D01*
X55699Y41657D01*
X55739Y41661D01*
X55787Y41668D01*
X55838Y41683D01*
X55892Y41697D01*
X55947Y41719D01*
X55954Y41723D01*
X55972Y41734D01*
X55998Y41748D01*
X56030Y41770D01*
X56063Y41796D01*
X56103Y41828D01*
X56136Y41865D01*
X56169Y41908D01*
X56172Y41916D01*
X56180Y41930D01*
X56194Y41956D01*
X56205Y41989D01*
X56220Y42025D01*
X56234Y42069D01*
X56242Y42116D01*
X56245Y42167D01*
Y42185D01*
X56242Y42200D01*
X56238Y42236D01*
X56227Y42283D01*
X56205Y42334D01*
X56180Y42393D01*
X56140Y42451D01*
X56118Y42480D01*
X56089Y42505D01*
X56085D01*
X56081Y42513D01*
X56060Y42527D01*
X56023Y42549D01*
X55976Y42578D01*
X55914Y42604D01*
X55841Y42626D01*
X55757Y42640D01*
X55659Y42647D01*
D02*
G37*
G36*
X80702Y90060D02*
X79908Y88932D01*
X80702D01*
Y90060D01*
D02*
G37*
%LPD*%
D13*
X112247Y66088D02*
Y77112D01*
X105553Y66088D02*
X112247D01*
X105553D02*
Y77112D01*
X112247D01*
X20580Y74663D02*
Y82537D01*
Y74663D02*
X43020D01*
Y82537D01*
X20580D02*
X43020D01*
X20779Y60863D02*
Y68737D01*
Y60863D02*
X43220D01*
Y68737D01*
X20779D02*
X43220D01*
X20779Y47163D02*
Y55037D01*
Y47163D02*
X43220D01*
Y55037D01*
X20779D02*
X43220D01*
X53154Y33288D02*
Y44312D01*
X59847D01*
Y33288D02*
Y44312D01*
X53154Y33288D02*
X59847D01*
X63288Y119147D02*
X74312D01*
Y112453D02*
Y119147D01*
X63288Y112453D02*
X74312D01*
X63288D02*
Y119147D01*
X63388Y103647D02*
X74412D01*
Y96953D02*
Y103647D01*
X63388Y96953D02*
X74412D01*
X63388D02*
Y103647D01*
X19869Y120277D02*
X28531D01*
X19869Y104923D02*
Y120277D01*
Y104923D02*
X28531D01*
Y120277D01*
X60853Y37912D02*
X67546D01*
X60853Y26888D02*
Y37912D01*
Y26888D02*
X67546D01*
Y37912D01*
X71688Y84654D02*
Y91347D01*
Y84654D02*
X82712D01*
Y91347D01*
X71688D02*
X82712D01*
M02*
