M48
;Layer_Color=9474304
;FILE_FORMAT=2:5
INCH,TZ
;TYPE=PLATED
T1F00S00C0.01575
T2F00S00C0.03543
T3F00S00C0.09843
;TYPE=NON_PLATED
%
T01
X55700Y28000
X63600Y22293
X71900Y32600
X48400Y37400
X99100Y36300
X104409Y42191
X91300Y49900
X83900Y49500
X79500Y56700
X79700Y66702
X87700Y66300
X86400Y60500
X74805Y62773
X62400Y85500
X57000Y90000
X66500Y91500
X65900Y108000
X51300Y113800
X79900Y115800
X79700Y100200
X87500Y100300
X90676Y83724
X97900Y90800
X114800Y77300
X116400Y68700
X113832Y55768
X24400Y57900
Y71800
X32764Y90100
X38500Y86300
T02
X26000Y35500
X36000
X80100Y26100
X90100
X100100
X110100
Y16100
X100100
X90100
X80100
X131300Y16500
Y26500
Y36500
Y46500
Y56500
X131500Y78900
Y88900
Y98900
X120900Y117200
Y127200
X110900
Y117200
X100900
Y127200
X90900
Y117200
X54300Y125100
X44300
X34300
X24300
T03
X20800Y17800
X139300Y139200
M30
