G04*
G04 #@! TF.GenerationSoftware,Altium Limited,Altium Designer,20.2.6 (244)*
G04*
G04 Layer_Physical_Order=3*
G04 Layer_Color=16440176*
%FSLAX25Y25*%
%MOIN*%
G70*
G04*
G04 #@! TF.SameCoordinates,009D9B9B-B68C-4BF6-A67E-57AE18EDBAF9*
G04*
G04*
G04 #@! TF.FilePolarity,Positive*
G04*
G01*
G75*
%ADD40R,0.05906X0.05906*%
%ADD41C,0.05906*%
%ADD42R,0.05906X0.05906*%
%ADD43C,0.13780*%
%ADD44C,0.03150*%
G36*
X146688Y147788D02*
X150438Y144038D01*
X150011Y11565D01*
X148019Y8230D01*
X12493Y8529D01*
X9962Y11565D01*
Y144915D01*
X13069Y148022D01*
X146688Y147788D01*
D02*
G37*
%LPC*%
G36*
X139300Y146927D02*
X137793Y146779D01*
X136343Y146339D01*
X135007Y145625D01*
X133836Y144664D01*
X132875Y143493D01*
X132161Y142157D01*
X131721Y140708D01*
X131573Y139200D01*
X131721Y137692D01*
X132161Y136243D01*
X132875Y134907D01*
X133836Y133736D01*
X135007Y132775D01*
X136343Y132061D01*
X137793Y131622D01*
X139300Y131473D01*
X140807Y131622D01*
X142257Y132061D01*
X143593Y132775D01*
X144764Y133736D01*
X145725Y134907D01*
X146439Y136243D01*
X146879Y137692D01*
X147027Y139200D01*
X146879Y140708D01*
X146439Y142157D01*
X145725Y143493D01*
X144764Y144664D01*
X143593Y145625D01*
X142257Y146339D01*
X140807Y146779D01*
X139300Y146927D01*
D02*
G37*
G36*
X124853Y131153D02*
X121400D01*
Y127700D01*
X124853D01*
Y131153D01*
D02*
G37*
G36*
X120400D02*
X116947D01*
Y127700D01*
X120400D01*
Y131153D01*
D02*
G37*
G36*
X34800Y129021D02*
Y125600D01*
X38221D01*
X38151Y126132D01*
X37753Y127093D01*
X37119Y127919D01*
X36293Y128553D01*
X35332Y128951D01*
X34800Y129021D01*
D02*
G37*
G36*
X33800Y129021D02*
X33268Y128951D01*
X32307Y128553D01*
X31481Y127919D01*
X30847Y127093D01*
X30449Y126132D01*
X30379Y125600D01*
X33800D01*
Y129021D01*
D02*
G37*
G36*
X110900Y130985D02*
X109920Y130856D01*
X109007Y130478D01*
X108223Y129876D01*
X107622Y129093D01*
X107244Y128180D01*
X107115Y127200D01*
X107244Y126220D01*
X107622Y125307D01*
X108223Y124523D01*
X109007Y123922D01*
X109920Y123544D01*
X110900Y123415D01*
X111880Y123544D01*
X112793Y123922D01*
X113576Y124523D01*
X114178Y125307D01*
X114556Y126220D01*
X114685Y127200D01*
X114556Y128180D01*
X114178Y129093D01*
X113576Y129876D01*
X112793Y130478D01*
X111880Y130856D01*
X110900Y130985D01*
D02*
G37*
G36*
X100900D02*
X99920Y130856D01*
X99007Y130478D01*
X98224Y129876D01*
X97622Y129093D01*
X97244Y128180D01*
X97115Y127200D01*
X97244Y126220D01*
X97622Y125307D01*
X98224Y124523D01*
X99007Y123922D01*
X99920Y123544D01*
X100900Y123415D01*
X101880Y123544D01*
X102793Y123922D01*
X103577Y124523D01*
X104178Y125307D01*
X104556Y126220D01*
X104685Y127200D01*
X104556Y128180D01*
X104178Y129093D01*
X103577Y129876D01*
X102793Y130478D01*
X101880Y130856D01*
X100900Y130985D01*
D02*
G37*
G36*
X90900D02*
X89920Y130856D01*
X89007Y130478D01*
X88223Y129876D01*
X87622Y129093D01*
X87244Y128180D01*
X87115Y127200D01*
X87244Y126220D01*
X87622Y125307D01*
X88223Y124523D01*
X89007Y123922D01*
X89920Y123544D01*
X90900Y123415D01*
X91880Y123544D01*
X92793Y123922D01*
X93577Y124523D01*
X94178Y125307D01*
X94556Y126220D01*
X94685Y127200D01*
X94556Y128180D01*
X94178Y129093D01*
X93577Y129876D01*
X92793Y130478D01*
X91880Y130856D01*
X90900Y130985D01*
D02*
G37*
G36*
X124853Y126700D02*
X121400D01*
Y123247D01*
X124853D01*
Y126700D01*
D02*
G37*
G36*
X120400D02*
X116947D01*
Y123247D01*
X120400D01*
Y126700D01*
D02*
G37*
G36*
X58053Y128853D02*
X50547D01*
Y121347D01*
X58053D01*
Y128853D01*
D02*
G37*
G36*
X44300Y128885D02*
X43320Y128756D01*
X42407Y128378D01*
X41623Y127777D01*
X41022Y126993D01*
X40644Y126080D01*
X40515Y125100D01*
X40644Y124120D01*
X41022Y123207D01*
X41623Y122424D01*
X42407Y121822D01*
X43320Y121444D01*
X44300Y121315D01*
X45280Y121444D01*
X46193Y121822D01*
X46977Y122424D01*
X47578Y123207D01*
X47956Y124120D01*
X48085Y125100D01*
X47956Y126080D01*
X47578Y126993D01*
X46977Y127777D01*
X46193Y128378D01*
X45280Y128756D01*
X44300Y128885D01*
D02*
G37*
G36*
X24300D02*
X23320Y128756D01*
X22407Y128378D01*
X21623Y127777D01*
X21022Y126993D01*
X20644Y126080D01*
X20515Y125100D01*
X20644Y124120D01*
X21022Y123207D01*
X21623Y122424D01*
X22407Y121822D01*
X23320Y121444D01*
X24300Y121315D01*
X25280Y121444D01*
X26193Y121822D01*
X26976Y122424D01*
X27578Y123207D01*
X27956Y124120D01*
X28085Y125100D01*
X27956Y126080D01*
X27578Y126993D01*
X26976Y127777D01*
X26193Y128378D01*
X25280Y128756D01*
X24300Y128885D01*
D02*
G37*
G36*
X33800Y124600D02*
X30379D01*
X30449Y124068D01*
X30847Y123107D01*
X31481Y122281D01*
X32307Y121647D01*
X33268Y121249D01*
X33800Y121179D01*
Y124600D01*
D02*
G37*
G36*
X38221D02*
X34800D01*
Y121179D01*
X35332Y121249D01*
X36293Y121647D01*
X37119Y122281D01*
X37753Y123107D01*
X38151Y124068D01*
X38221Y124600D01*
D02*
G37*
G36*
X80400Y118331D02*
Y116300D01*
X82431D01*
X82408Y116472D01*
X82149Y117098D01*
X81736Y117636D01*
X81199Y118049D01*
X80572Y118308D01*
X80400Y118331D01*
D02*
G37*
G36*
X79400D02*
X79228Y118308D01*
X78601Y118049D01*
X78064Y117636D01*
X77651Y117098D01*
X77391Y116472D01*
X77369Y116300D01*
X79400D01*
Y118331D01*
D02*
G37*
G36*
X51800Y116331D02*
Y114300D01*
X53831D01*
X53808Y114472D01*
X53549Y115099D01*
X53136Y115636D01*
X52599Y116049D01*
X51972Y116308D01*
X51800Y116331D01*
D02*
G37*
G36*
X50800D02*
X50628Y116308D01*
X50002Y116049D01*
X49464Y115636D01*
X49051Y115099D01*
X48792Y114472D01*
X48769Y114300D01*
X50800D01*
Y116331D01*
D02*
G37*
G36*
X120900Y120985D02*
X119920Y120856D01*
X119007Y120478D01*
X118224Y119877D01*
X117622Y119093D01*
X117244Y118180D01*
X117115Y117200D01*
X117244Y116220D01*
X117622Y115307D01*
X118224Y114523D01*
X119007Y113922D01*
X119920Y113544D01*
X120900Y113415D01*
X121880Y113544D01*
X122793Y113922D01*
X123576Y114523D01*
X124178Y115307D01*
X124556Y116220D01*
X124685Y117200D01*
X124556Y118180D01*
X124178Y119093D01*
X123576Y119877D01*
X122793Y120478D01*
X121880Y120856D01*
X120900Y120985D01*
D02*
G37*
G36*
X110900D02*
X109920Y120856D01*
X109007Y120478D01*
X108223Y119877D01*
X107622Y119093D01*
X107244Y118180D01*
X107115Y117200D01*
X107244Y116220D01*
X107622Y115307D01*
X108223Y114523D01*
X109007Y113922D01*
X109920Y113544D01*
X110900Y113415D01*
X111880Y113544D01*
X112793Y113922D01*
X113576Y114523D01*
X114178Y115307D01*
X114556Y116220D01*
X114685Y117200D01*
X114556Y118180D01*
X114178Y119093D01*
X113576Y119877D01*
X112793Y120478D01*
X111880Y120856D01*
X110900Y120985D01*
D02*
G37*
G36*
X100900D02*
X99920Y120856D01*
X99007Y120478D01*
X98224Y119877D01*
X97622Y119093D01*
X97244Y118180D01*
X97115Y117200D01*
X97244Y116220D01*
X97622Y115307D01*
X98224Y114523D01*
X99007Y113922D01*
X99920Y113544D01*
X100900Y113415D01*
X101880Y113544D01*
X102793Y113922D01*
X103577Y114523D01*
X104178Y115307D01*
X104556Y116220D01*
X104685Y117200D01*
X104556Y118180D01*
X104178Y119093D01*
X103577Y119877D01*
X102793Y120478D01*
X101880Y120856D01*
X100900Y120985D01*
D02*
G37*
G36*
X90900D02*
X89920Y120856D01*
X89007Y120478D01*
X88223Y119877D01*
X87622Y119093D01*
X87244Y118180D01*
X87115Y117200D01*
X87244Y116220D01*
X87622Y115307D01*
X88223Y114523D01*
X89007Y113922D01*
X89920Y113544D01*
X90900Y113415D01*
X91880Y113544D01*
X92793Y113922D01*
X93577Y114523D01*
X94178Y115307D01*
X94556Y116220D01*
X94685Y117200D01*
X94556Y118180D01*
X94178Y119093D01*
X93577Y119877D01*
X92793Y120478D01*
X91880Y120856D01*
X90900Y120985D01*
D02*
G37*
G36*
X82431Y115300D02*
X80400D01*
Y113269D01*
X80572Y113292D01*
X81199Y113551D01*
X81736Y113964D01*
X82149Y114502D01*
X82408Y115128D01*
X82431Y115300D01*
D02*
G37*
G36*
X79400D02*
X77369D01*
X77391Y115128D01*
X77651Y114502D01*
X78064Y113964D01*
X78601Y113551D01*
X79228Y113292D01*
X79400Y113269D01*
Y115300D01*
D02*
G37*
G36*
X53831Y113300D02*
X51800D01*
Y111269D01*
X51972Y111292D01*
X52599Y111551D01*
X53136Y111964D01*
X53549Y112502D01*
X53808Y113128D01*
X53831Y113300D01*
D02*
G37*
G36*
X50800D02*
X48769D01*
X48792Y113128D01*
X49051Y112502D01*
X49464Y111964D01*
X50002Y111551D01*
X50628Y111292D01*
X50800Y111269D01*
Y113300D01*
D02*
G37*
G36*
X65900Y110421D02*
X64973Y110237D01*
X64188Y109712D01*
X63663Y108927D01*
X63479Y108000D01*
X63663Y107073D01*
X64188Y106288D01*
X64973Y105763D01*
X65900Y105579D01*
X66827Y105763D01*
X67612Y106288D01*
X68137Y107073D01*
X68321Y108000D01*
X68137Y108927D01*
X67612Y109712D01*
X66827Y110237D01*
X65900Y110421D01*
D02*
G37*
G36*
X88000Y102831D02*
Y100800D01*
X90031D01*
X90008Y100972D01*
X89749Y101599D01*
X89336Y102136D01*
X88798Y102549D01*
X88172Y102808D01*
X88000Y102831D01*
D02*
G37*
G36*
X87000D02*
X86828Y102808D01*
X86202Y102549D01*
X85664Y102136D01*
X85251Y101599D01*
X84992Y100972D01*
X84969Y100800D01*
X87000D01*
Y102831D01*
D02*
G37*
G36*
X80200Y102731D02*
Y100700D01*
X82231D01*
X82209Y100872D01*
X81949Y101498D01*
X81536Y102036D01*
X80998Y102449D01*
X80372Y102708D01*
X80200Y102731D01*
D02*
G37*
G36*
X79200D02*
X79028Y102708D01*
X78401Y102449D01*
X77864Y102036D01*
X77451Y101498D01*
X77192Y100872D01*
X77169Y100700D01*
X79200D01*
Y102731D01*
D02*
G37*
G36*
X90031Y99800D02*
X88000D01*
Y97769D01*
X88172Y97791D01*
X88798Y98051D01*
X89336Y98464D01*
X89749Y99001D01*
X90008Y99628D01*
X90031Y99800D01*
D02*
G37*
G36*
X87000D02*
X84969D01*
X84992Y99628D01*
X85251Y99001D01*
X85664Y98464D01*
X86202Y98051D01*
X86828Y97791D01*
X87000Y97769D01*
Y99800D01*
D02*
G37*
G36*
X82231Y99700D02*
X80200D01*
Y97669D01*
X80372Y97692D01*
X80998Y97951D01*
X81536Y98364D01*
X81949Y98901D01*
X82209Y99528D01*
X82231Y99700D01*
D02*
G37*
G36*
X79200D02*
X77169D01*
X77192Y99528D01*
X77451Y98901D01*
X77864Y98364D01*
X78401Y97951D01*
X79028Y97692D01*
X79200Y97669D01*
Y99700D01*
D02*
G37*
G36*
X131500Y102685D02*
X130520Y102556D01*
X129607Y102178D01*
X128823Y101576D01*
X128222Y100793D01*
X127844Y99880D01*
X127715Y98900D01*
X127844Y97920D01*
X128222Y97007D01*
X128823Y96223D01*
X129607Y95622D01*
X130520Y95244D01*
X131500Y95115D01*
X132480Y95244D01*
X133393Y95622D01*
X134177Y96223D01*
X134778Y97007D01*
X135156Y97920D01*
X135285Y98900D01*
X135156Y99880D01*
X134778Y100793D01*
X134177Y101576D01*
X133393Y102178D01*
X132480Y102556D01*
X131500Y102685D01*
D02*
G37*
G36*
X66500Y93921D02*
X65573Y93737D01*
X64788Y93212D01*
X64263Y92427D01*
X64079Y91500D01*
X64263Y90573D01*
X64788Y89788D01*
X65573Y89263D01*
X66500Y89079D01*
X67427Y89263D01*
X68212Y89788D01*
X68737Y90573D01*
X68921Y91500D01*
X68737Y92427D01*
X68212Y93212D01*
X67427Y93737D01*
X66500Y93921D01*
D02*
G37*
G36*
X97900Y93221D02*
X96973Y93037D01*
X96188Y92512D01*
X95663Y91727D01*
X95479Y90800D01*
X95663Y89873D01*
X96188Y89088D01*
X96973Y88563D01*
X97900Y88379D01*
X98827Y88563D01*
X99612Y89088D01*
X100137Y89873D01*
X100321Y90800D01*
X100137Y91727D01*
X99612Y92512D01*
X98827Y93037D01*
X97900Y93221D01*
D02*
G37*
G36*
X32764Y92521D02*
X31837Y92337D01*
X31052Y91812D01*
X30527Y91027D01*
X30343Y90100D01*
X30527Y89173D01*
X31052Y88388D01*
X31837Y87863D01*
X32764Y87679D01*
X33691Y87863D01*
X34476Y88388D01*
X35001Y89173D01*
X35185Y90100D01*
X35001Y91027D01*
X34476Y91812D01*
X33691Y92337D01*
X32764Y92521D01*
D02*
G37*
G36*
X57000Y92421D02*
X56073Y92237D01*
X55288Y91712D01*
X54763Y90927D01*
X54579Y90000D01*
X54763Y89073D01*
X55288Y88288D01*
X56073Y87763D01*
X57000Y87579D01*
X57927Y87763D01*
X58712Y88288D01*
X59237Y89073D01*
X59421Y90000D01*
X59237Y90927D01*
X58712Y91712D01*
X57927Y92237D01*
X57000Y92421D01*
D02*
G37*
G36*
X131500Y92685D02*
X130520Y92556D01*
X129607Y92178D01*
X128823Y91576D01*
X128222Y90793D01*
X127844Y89880D01*
X127715Y88900D01*
X127844Y87920D01*
X128222Y87007D01*
X128823Y86224D01*
X129607Y85622D01*
X130520Y85244D01*
X131500Y85115D01*
X132480Y85244D01*
X133393Y85622D01*
X134177Y86224D01*
X134778Y87007D01*
X135156Y87920D01*
X135285Y88900D01*
X135156Y89880D01*
X134778Y90793D01*
X134177Y91576D01*
X133393Y92178D01*
X132480Y92556D01*
X131500Y92685D01*
D02*
G37*
G36*
X38500Y88721D02*
X37573Y88537D01*
X36788Y88012D01*
X36263Y87227D01*
X36079Y86300D01*
X36263Y85373D01*
X36788Y84588D01*
X37573Y84063D01*
X38500Y83879D01*
X39427Y84063D01*
X40212Y84588D01*
X40737Y85373D01*
X40921Y86300D01*
X40737Y87227D01*
X40212Y88012D01*
X39427Y88537D01*
X38500Y88721D01*
D02*
G37*
G36*
X62400Y87921D02*
X61473Y87737D01*
X60688Y87212D01*
X60163Y86427D01*
X59979Y85500D01*
X60163Y84573D01*
X60688Y83788D01*
X61473Y83263D01*
X62400Y83079D01*
X63327Y83263D01*
X64112Y83788D01*
X64637Y84573D01*
X64821Y85500D01*
X64637Y86427D01*
X64112Y87212D01*
X63327Y87737D01*
X62400Y87921D01*
D02*
G37*
G36*
X90676Y86145D02*
X89750Y85961D01*
X88964Y85436D01*
X88439Y84650D01*
X88255Y83724D01*
X88439Y82797D01*
X88964Y82011D01*
X89750Y81487D01*
X90676Y81302D01*
X91603Y81487D01*
X92388Y82011D01*
X92913Y82797D01*
X93098Y83724D01*
X92913Y84650D01*
X92388Y85436D01*
X91603Y85961D01*
X90676Y86145D01*
D02*
G37*
G36*
X135253Y82653D02*
X127747D01*
Y75147D01*
X135253D01*
Y82653D01*
D02*
G37*
G36*
X114800Y79721D02*
X113873Y79537D01*
X113088Y79012D01*
X112563Y78227D01*
X112379Y77300D01*
X112563Y76373D01*
X113088Y75588D01*
X113873Y75063D01*
X114800Y74879D01*
X115727Y75063D01*
X116512Y75588D01*
X117037Y76373D01*
X117221Y77300D01*
X117037Y78227D01*
X116512Y79012D01*
X115727Y79537D01*
X114800Y79721D01*
D02*
G37*
G36*
X24900Y74331D02*
Y72300D01*
X26931D01*
X26908Y72472D01*
X26649Y73098D01*
X26236Y73636D01*
X25699Y74049D01*
X25072Y74309D01*
X24900Y74331D01*
D02*
G37*
G36*
X23900D02*
X23728Y74309D01*
X23101Y74049D01*
X22564Y73636D01*
X22151Y73098D01*
X21892Y72472D01*
X21869Y72300D01*
X23900D01*
Y74331D01*
D02*
G37*
G36*
X26931Y71300D02*
X24900D01*
Y69269D01*
X25072Y69292D01*
X25699Y69551D01*
X26236Y69964D01*
X26649Y70502D01*
X26908Y71128D01*
X26931Y71300D01*
D02*
G37*
G36*
X23900D02*
X21869D01*
X21892Y71128D01*
X22151Y70502D01*
X22564Y69964D01*
X23101Y69551D01*
X23728Y69292D01*
X23900Y69269D01*
Y71300D01*
D02*
G37*
G36*
X116900Y71231D02*
Y69200D01*
X118931D01*
X118909Y69372D01*
X118649Y69999D01*
X118236Y70536D01*
X117699Y70949D01*
X117072Y71209D01*
X116900Y71231D01*
D02*
G37*
G36*
X115900D02*
X115728Y71209D01*
X115102Y70949D01*
X114564Y70536D01*
X114151Y69999D01*
X113891Y69372D01*
X113869Y69200D01*
X115900D01*
Y71231D01*
D02*
G37*
G36*
X118931Y68200D02*
X116900D01*
Y66169D01*
X117072Y66192D01*
X117699Y66451D01*
X118236Y66864D01*
X118649Y67401D01*
X118909Y68028D01*
X118931Y68200D01*
D02*
G37*
G36*
X115900D02*
X113869D01*
X113891Y68028D01*
X114151Y67401D01*
X114564Y66864D01*
X115102Y66451D01*
X115728Y66192D01*
X115900Y66169D01*
Y68200D01*
D02*
G37*
G36*
X79700Y69124D02*
X78773Y68939D01*
X77988Y68414D01*
X77463Y67629D01*
X77279Y66702D01*
X77463Y65776D01*
X77988Y64990D01*
X78773Y64465D01*
X79700Y64281D01*
X80627Y64465D01*
X81412Y64990D01*
X81937Y65776D01*
X82121Y66702D01*
X81937Y67629D01*
X81412Y68414D01*
X80627Y68939D01*
X79700Y69124D01*
D02*
G37*
G36*
X87700Y68721D02*
X86773Y68537D01*
X85988Y68012D01*
X85463Y67227D01*
X85279Y66300D01*
X85463Y65373D01*
X85988Y64588D01*
X86773Y64063D01*
X87700Y63879D01*
X88627Y64063D01*
X89412Y64588D01*
X89937Y65373D01*
X90121Y66300D01*
X89937Y67227D01*
X89412Y68012D01*
X88627Y68537D01*
X87700Y68721D01*
D02*
G37*
G36*
X74805Y65195D02*
X73878Y65010D01*
X73093Y64486D01*
X72568Y63700D01*
X72383Y62773D01*
X72568Y61847D01*
X73093Y61061D01*
X73878Y60536D01*
X74805Y60352D01*
X75731Y60536D01*
X76517Y61061D01*
X77042Y61847D01*
X77226Y62773D01*
X77042Y63700D01*
X76517Y64486D01*
X75731Y65010D01*
X74805Y65195D01*
D02*
G37*
G36*
X24900Y60431D02*
Y58400D01*
X26931D01*
X26908Y58572D01*
X26649Y59198D01*
X26236Y59736D01*
X25699Y60149D01*
X25072Y60409D01*
X24900Y60431D01*
D02*
G37*
G36*
X23900D02*
X23728Y60409D01*
X23101Y60149D01*
X22564Y59736D01*
X22151Y59198D01*
X21892Y58572D01*
X21869Y58400D01*
X23900D01*
Y60431D01*
D02*
G37*
G36*
X86400Y62921D02*
X85473Y62737D01*
X84688Y62212D01*
X84163Y61427D01*
X83979Y60500D01*
X84163Y59573D01*
X84688Y58788D01*
X85473Y58263D01*
X86400Y58079D01*
X87327Y58263D01*
X88112Y58788D01*
X88637Y59573D01*
X88821Y60500D01*
X88637Y61427D01*
X88112Y62212D01*
X87327Y62737D01*
X86400Y62921D01*
D02*
G37*
G36*
X114332Y58299D02*
Y56268D01*
X116363D01*
X116340Y56441D01*
X116081Y57067D01*
X115668Y57605D01*
X115130Y58017D01*
X114504Y58277D01*
X114332Y58299D01*
D02*
G37*
G36*
X113332D02*
X113160Y58277D01*
X112533Y58017D01*
X111995Y57605D01*
X111583Y57067D01*
X111323Y56441D01*
X111301Y56268D01*
X113332D01*
Y58299D01*
D02*
G37*
G36*
X26931Y57400D02*
X24900D01*
Y55369D01*
X25072Y55392D01*
X25699Y55651D01*
X26236Y56064D01*
X26649Y56602D01*
X26908Y57228D01*
X26931Y57400D01*
D02*
G37*
G36*
X23900D02*
X21869D01*
X21892Y57228D01*
X22151Y56602D01*
X22564Y56064D01*
X23101Y55651D01*
X23728Y55392D01*
X23900Y55369D01*
Y57400D01*
D02*
G37*
G36*
X79500Y59121D02*
X78573Y58937D01*
X77788Y58412D01*
X77263Y57627D01*
X77079Y56700D01*
X77263Y55773D01*
X77788Y54988D01*
X78573Y54463D01*
X79500Y54279D01*
X80427Y54463D01*
X81212Y54988D01*
X81737Y55773D01*
X81921Y56700D01*
X81737Y57627D01*
X81212Y58412D01*
X80427Y58937D01*
X79500Y59121D01*
D02*
G37*
G36*
X116363Y55268D02*
X114332D01*
Y53237D01*
X114504Y53260D01*
X115130Y53519D01*
X115668Y53932D01*
X116081Y54470D01*
X116340Y55096D01*
X116363Y55268D01*
D02*
G37*
G36*
X113332D02*
X111301D01*
X111323Y55096D01*
X111583Y54470D01*
X111995Y53932D01*
X112533Y53519D01*
X113160Y53260D01*
X113332Y53237D01*
Y55268D01*
D02*
G37*
G36*
X135053Y60253D02*
X127547D01*
Y52747D01*
X135053D01*
Y60253D01*
D02*
G37*
G36*
X91300Y52321D02*
X90373Y52137D01*
X89588Y51612D01*
X89063Y50827D01*
X88879Y49900D01*
X89063Y48973D01*
X89588Y48188D01*
X90373Y47663D01*
X91300Y47479D01*
X92227Y47663D01*
X93012Y48188D01*
X93537Y48973D01*
X93721Y49900D01*
X93537Y50827D01*
X93012Y51612D01*
X92227Y52137D01*
X91300Y52321D01*
D02*
G37*
G36*
X83900Y51921D02*
X82973Y51737D01*
X82188Y51212D01*
X81663Y50427D01*
X81479Y49500D01*
X81663Y48573D01*
X82188Y47788D01*
X82973Y47263D01*
X83900Y47079D01*
X84827Y47263D01*
X85612Y47788D01*
X86137Y48573D01*
X86321Y49500D01*
X86137Y50427D01*
X85612Y51212D01*
X84827Y51737D01*
X83900Y51921D01*
D02*
G37*
G36*
X131300Y50285D02*
X130320Y50156D01*
X129407Y49778D01*
X128623Y49176D01*
X128022Y48393D01*
X127644Y47480D01*
X127515Y46500D01*
X127644Y45520D01*
X128022Y44607D01*
X128623Y43824D01*
X129407Y43222D01*
X130320Y42844D01*
X131300Y42715D01*
X132280Y42844D01*
X133193Y43222D01*
X133976Y43824D01*
X134578Y44607D01*
X134956Y45520D01*
X135085Y46500D01*
X134956Y47480D01*
X134578Y48393D01*
X133976Y49176D01*
X133193Y49778D01*
X132280Y50156D01*
X131300Y50285D01*
D02*
G37*
G36*
X104409Y44612D02*
X103483Y44427D01*
X102697Y43903D01*
X102172Y43117D01*
X101988Y42191D01*
X102172Y41264D01*
X102697Y40478D01*
X103483Y39954D01*
X104409Y39769D01*
X105336Y39954D01*
X106122Y40478D01*
X106646Y41264D01*
X106831Y42191D01*
X106646Y43117D01*
X106122Y43903D01*
X105336Y44427D01*
X104409Y44612D01*
D02*
G37*
G36*
X48900Y39931D02*
Y37900D01*
X50931D01*
X50908Y38072D01*
X50649Y38699D01*
X50236Y39236D01*
X49698Y39649D01*
X49072Y39908D01*
X48900Y39931D01*
D02*
G37*
G36*
X47900D02*
X47728Y39908D01*
X47102Y39649D01*
X46564Y39236D01*
X46151Y38699D01*
X45891Y38072D01*
X45869Y37900D01*
X47900D01*
Y39931D01*
D02*
G37*
G36*
X131800Y40421D02*
Y37000D01*
X135221D01*
X135151Y37532D01*
X134753Y38493D01*
X134119Y39319D01*
X133293Y39953D01*
X132332Y40351D01*
X131800Y40421D01*
D02*
G37*
G36*
X130800Y40421D02*
X130268Y40351D01*
X129307Y39953D01*
X128481Y39319D01*
X127847Y38493D01*
X127449Y37532D01*
X127379Y37000D01*
X130800D01*
Y40421D01*
D02*
G37*
G36*
X50931Y36900D02*
X48900D01*
Y34869D01*
X49072Y34892D01*
X49698Y35151D01*
X50236Y35564D01*
X50649Y36101D01*
X50908Y36728D01*
X50931Y36900D01*
D02*
G37*
G36*
X47900D02*
X45869D01*
X45891Y36728D01*
X46151Y36101D01*
X46564Y35564D01*
X47102Y35151D01*
X47728Y34892D01*
X47900Y34869D01*
Y36900D01*
D02*
G37*
G36*
X99100Y38721D02*
X98173Y38537D01*
X97388Y38012D01*
X96863Y37227D01*
X96679Y36300D01*
X96863Y35373D01*
X97388Y34588D01*
X98173Y34063D01*
X99100Y33879D01*
X100027Y34063D01*
X100812Y34588D01*
X101337Y35373D01*
X101521Y36300D01*
X101337Y37227D01*
X100812Y38012D01*
X100027Y38537D01*
X99100Y38721D01*
D02*
G37*
G36*
X130800Y36000D02*
X127379D01*
X127449Y35468D01*
X127847Y34507D01*
X128481Y33681D01*
X129307Y33047D01*
X130268Y32649D01*
X130800Y32579D01*
Y36000D01*
D02*
G37*
G36*
X135221D02*
X131800D01*
Y32579D01*
X132332Y32649D01*
X133293Y33047D01*
X134119Y33681D01*
X134753Y34507D01*
X135151Y35468D01*
X135221Y36000D01*
D02*
G37*
G36*
X29753Y39253D02*
X22247D01*
Y31747D01*
X29753D01*
Y39253D01*
D02*
G37*
G36*
X36000Y39285D02*
X35020Y39156D01*
X34107Y38778D01*
X33323Y38177D01*
X32722Y37393D01*
X32344Y36480D01*
X32215Y35500D01*
X32344Y34520D01*
X32722Y33607D01*
X33323Y32824D01*
X34107Y32222D01*
X35020Y31844D01*
X36000Y31715D01*
X36980Y31844D01*
X37893Y32222D01*
X38677Y32824D01*
X39278Y33607D01*
X39656Y34520D01*
X39785Y35500D01*
X39656Y36480D01*
X39278Y37393D01*
X38677Y38177D01*
X37893Y38778D01*
X36980Y39156D01*
X36000Y39285D01*
D02*
G37*
G36*
X71900Y35021D02*
X70973Y34837D01*
X70188Y34312D01*
X69663Y33527D01*
X69479Y32600D01*
X69663Y31673D01*
X70188Y30888D01*
X70973Y30363D01*
X71900Y30179D01*
X72827Y30363D01*
X73612Y30888D01*
X74137Y31673D01*
X74321Y32600D01*
X74137Y33527D01*
X73612Y34312D01*
X72827Y34837D01*
X71900Y35021D01*
D02*
G37*
G36*
X114053Y30053D02*
X110600D01*
Y26600D01*
X114053D01*
Y30053D01*
D02*
G37*
G36*
X109600D02*
X106147D01*
Y26600D01*
X109600D01*
Y30053D01*
D02*
G37*
G36*
X55700Y30421D02*
X54773Y30237D01*
X53988Y29712D01*
X53463Y28927D01*
X53279Y28000D01*
X53463Y27073D01*
X53988Y26288D01*
X54773Y25763D01*
X55700Y25579D01*
X56627Y25763D01*
X57412Y26288D01*
X57937Y27073D01*
X58121Y28000D01*
X57937Y28927D01*
X57412Y29712D01*
X56627Y30237D01*
X55700Y30421D01*
D02*
G37*
G36*
X64100Y24824D02*
Y22793D01*
X66131D01*
X66109Y22965D01*
X65849Y23591D01*
X65436Y24129D01*
X64899Y24542D01*
X64272Y24801D01*
X64100Y24824D01*
D02*
G37*
G36*
X63100D02*
X62928Y24801D01*
X62301Y24542D01*
X61764Y24129D01*
X61351Y23591D01*
X61092Y22965D01*
X61069Y22793D01*
X63100D01*
Y24824D01*
D02*
G37*
G36*
X131300Y30285D02*
X130320Y30156D01*
X129407Y29778D01*
X128623Y29177D01*
X128022Y28393D01*
X127644Y27480D01*
X127515Y26500D01*
X127644Y25520D01*
X128022Y24607D01*
X128623Y23823D01*
X129407Y23222D01*
X130320Y22844D01*
X131300Y22715D01*
X132280Y22844D01*
X133193Y23222D01*
X133976Y23823D01*
X134578Y24607D01*
X134956Y25520D01*
X135085Y26500D01*
X134956Y27480D01*
X134578Y28393D01*
X133976Y29177D01*
X133193Y29778D01*
X132280Y30156D01*
X131300Y30285D01*
D02*
G37*
G36*
X100100Y29885D02*
X99120Y29756D01*
X98207Y29378D01*
X97423Y28776D01*
X96822Y27993D01*
X96444Y27080D01*
X96315Y26100D01*
X96444Y25120D01*
X96822Y24207D01*
X97423Y23424D01*
X98207Y22822D01*
X99120Y22444D01*
X100100Y22315D01*
X101080Y22444D01*
X101993Y22822D01*
X102777Y23424D01*
X103378Y24207D01*
X103756Y25120D01*
X103885Y26100D01*
X103756Y27080D01*
X103378Y27993D01*
X102777Y28776D01*
X101993Y29378D01*
X101080Y29756D01*
X100100Y29885D01*
D02*
G37*
G36*
X90100D02*
X89120Y29756D01*
X88207Y29378D01*
X87423Y28776D01*
X86822Y27993D01*
X86444Y27080D01*
X86315Y26100D01*
X86444Y25120D01*
X86822Y24207D01*
X87423Y23424D01*
X88207Y22822D01*
X89120Y22444D01*
X90100Y22315D01*
X91080Y22444D01*
X91993Y22822D01*
X92777Y23424D01*
X93378Y24207D01*
X93756Y25120D01*
X93885Y26100D01*
X93756Y27080D01*
X93378Y27993D01*
X92777Y28776D01*
X91993Y29378D01*
X91080Y29756D01*
X90100Y29885D01*
D02*
G37*
G36*
X80100D02*
X79120Y29756D01*
X78207Y29378D01*
X77424Y28776D01*
X76822Y27993D01*
X76444Y27080D01*
X76315Y26100D01*
X76444Y25120D01*
X76822Y24207D01*
X77424Y23424D01*
X78207Y22822D01*
X79120Y22444D01*
X80100Y22315D01*
X81080Y22444D01*
X81993Y22822D01*
X82776Y23424D01*
X83378Y24207D01*
X83756Y25120D01*
X83885Y26100D01*
X83756Y27080D01*
X83378Y27993D01*
X82776Y28776D01*
X81993Y29378D01*
X81080Y29756D01*
X80100Y29885D01*
D02*
G37*
G36*
X114053Y25600D02*
X110600D01*
Y22147D01*
X114053D01*
Y25600D01*
D02*
G37*
G36*
X109600D02*
X106147D01*
Y22147D01*
X109600D01*
Y25600D01*
D02*
G37*
G36*
X66131Y21792D02*
X64100D01*
Y19761D01*
X64272Y19784D01*
X64899Y20043D01*
X65436Y20456D01*
X65849Y20994D01*
X66109Y21620D01*
X66131Y21792D01*
D02*
G37*
G36*
X63100D02*
X61069D01*
X61092Y21620D01*
X61351Y20994D01*
X61764Y20456D01*
X62301Y20043D01*
X62928Y19784D01*
X63100Y19761D01*
Y21792D01*
D02*
G37*
G36*
X131300Y20285D02*
X130320Y20156D01*
X129407Y19778D01*
X128623Y19176D01*
X128022Y18393D01*
X127644Y17480D01*
X127515Y16500D01*
X127644Y15520D01*
X128022Y14607D01*
X128623Y13824D01*
X129407Y13222D01*
X130320Y12844D01*
X131300Y12715D01*
X132280Y12844D01*
X133193Y13222D01*
X133976Y13824D01*
X134578Y14607D01*
X134956Y15520D01*
X135085Y16500D01*
X134956Y17480D01*
X134578Y18393D01*
X133976Y19176D01*
X133193Y19778D01*
X132280Y20156D01*
X131300Y20285D01*
D02*
G37*
G36*
X110100Y19885D02*
X109120Y19756D01*
X108207Y19378D01*
X107423Y18777D01*
X106822Y17993D01*
X106444Y17080D01*
X106315Y16100D01*
X106444Y15120D01*
X106822Y14207D01*
X107423Y13423D01*
X108207Y12822D01*
X109120Y12444D01*
X110100Y12315D01*
X111080Y12444D01*
X111993Y12822D01*
X112777Y13423D01*
X113378Y14207D01*
X113756Y15120D01*
X113885Y16100D01*
X113756Y17080D01*
X113378Y17993D01*
X112777Y18777D01*
X111993Y19378D01*
X111080Y19756D01*
X110100Y19885D01*
D02*
G37*
G36*
X100100D02*
X99120Y19756D01*
X98207Y19378D01*
X97423Y18777D01*
X96822Y17993D01*
X96444Y17080D01*
X96315Y16100D01*
X96444Y15120D01*
X96822Y14207D01*
X97423Y13423D01*
X98207Y12822D01*
X99120Y12444D01*
X100100Y12315D01*
X101080Y12444D01*
X101993Y12822D01*
X102777Y13423D01*
X103378Y14207D01*
X103756Y15120D01*
X103885Y16100D01*
X103756Y17080D01*
X103378Y17993D01*
X102777Y18777D01*
X101993Y19378D01*
X101080Y19756D01*
X100100Y19885D01*
D02*
G37*
G36*
X90100D02*
X89120Y19756D01*
X88207Y19378D01*
X87423Y18777D01*
X86822Y17993D01*
X86444Y17080D01*
X86315Y16100D01*
X86444Y15120D01*
X86822Y14207D01*
X87423Y13423D01*
X88207Y12822D01*
X89120Y12444D01*
X90100Y12315D01*
X91080Y12444D01*
X91993Y12822D01*
X92777Y13423D01*
X93378Y14207D01*
X93756Y15120D01*
X93885Y16100D01*
X93756Y17080D01*
X93378Y17993D01*
X92777Y18777D01*
X91993Y19378D01*
X91080Y19756D01*
X90100Y19885D01*
D02*
G37*
G36*
X80100D02*
X79120Y19756D01*
X78207Y19378D01*
X77424Y18777D01*
X76822Y17993D01*
X76444Y17080D01*
X76315Y16100D01*
X76444Y15120D01*
X76822Y14207D01*
X77424Y13423D01*
X78207Y12822D01*
X79120Y12444D01*
X80100Y12315D01*
X81080Y12444D01*
X81993Y12822D01*
X82776Y13423D01*
X83378Y14207D01*
X83756Y15120D01*
X83885Y16100D01*
X83756Y17080D01*
X83378Y17993D01*
X82776Y18777D01*
X81993Y19378D01*
X81080Y19756D01*
X80100Y19885D01*
D02*
G37*
G36*
X20800Y25527D02*
X19293Y25379D01*
X17843Y24939D01*
X16507Y24225D01*
X15336Y23264D01*
X14375Y22093D01*
X13661Y20757D01*
X13221Y19308D01*
X13073Y17800D01*
X13221Y16293D01*
X13661Y14843D01*
X14375Y13507D01*
X15336Y12336D01*
X16507Y11375D01*
X17843Y10661D01*
X19293Y10221D01*
X20800Y10073D01*
X22308Y10221D01*
X23757Y10661D01*
X25093Y11375D01*
X26264Y12336D01*
X27225Y13507D01*
X27939Y14843D01*
X28378Y16293D01*
X28527Y17800D01*
X28378Y19308D01*
X27939Y20757D01*
X27225Y22093D01*
X26264Y23264D01*
X25093Y24225D01*
X23757Y24939D01*
X22308Y25379D01*
X20800Y25527D01*
D02*
G37*
%LPD*%
D40*
X131500Y78900D02*
D03*
X131300Y56500D02*
D03*
D41*
X131500Y88900D02*
D03*
Y98900D02*
D03*
X110100Y16100D02*
D03*
X100100Y26100D02*
D03*
Y16100D02*
D03*
X90100Y26100D02*
D03*
Y16100D02*
D03*
X80100Y26100D02*
D03*
Y16100D02*
D03*
X120900Y117200D02*
D03*
X110900Y127200D02*
D03*
Y117200D02*
D03*
X100900Y127200D02*
D03*
Y117200D02*
D03*
X90900Y127200D02*
D03*
Y117200D02*
D03*
X36000Y35500D02*
D03*
X131300Y16500D02*
D03*
Y26500D02*
D03*
Y36500D02*
D03*
Y46500D02*
D03*
X24300Y125100D02*
D03*
X34300D02*
D03*
X44300D02*
D03*
D42*
X110100Y26100D02*
D03*
X120900Y127200D02*
D03*
X26000Y35500D02*
D03*
X54300Y125100D02*
D03*
D43*
X20800Y17800D02*
D03*
X139300Y139200D02*
D03*
D44*
X113832Y55768D02*
D03*
X116400Y68700D02*
D03*
X114800Y77300D02*
D03*
X51300Y113800D02*
D03*
X38500Y86300D02*
D03*
X32764Y90100D02*
D03*
X24400Y71800D02*
D03*
Y57900D02*
D03*
X48400Y37400D02*
D03*
X63600Y22293D02*
D03*
X71900Y32600D02*
D03*
X99100Y36300D02*
D03*
X104409Y42191D02*
D03*
X91300Y49900D02*
D03*
X83900Y49500D02*
D03*
X74805Y62773D02*
D03*
X79700Y66702D02*
D03*
X79500Y56700D02*
D03*
X86400Y60500D02*
D03*
X87700Y66300D02*
D03*
X90676Y83724D02*
D03*
X97900Y90800D02*
D03*
X57000Y90000D02*
D03*
X62400Y85500D02*
D03*
X66500Y91500D02*
D03*
X87500Y100300D02*
D03*
X79700Y100200D02*
D03*
X65900Y108000D02*
D03*
X79900Y115800D02*
D03*
X55700Y28000D02*
D03*
M02*
