%TF.GenerationSoftware,KiCad,Pcbnew,(5.1.8)-1*%
%TF.CreationDate,2021-01-31T15:43:31-07:00*%
%TF.ProjectId,Axle-Tx-PCB(STM32)v2,41786c65-2d54-4782-9d50-43422853544d,rev?*%
%TF.SameCoordinates,Original*%
%TF.FileFunction,Soldermask,Top*%
%TF.FilePolarity,Negative*%
%FSLAX46Y46*%
G04 Gerber Fmt 4.6, Leading zero omitted, Abs format (unit mm)*
G04 Created by KiCad (PCBNEW (5.1.8)-1) date 2021-01-31 15:43:31*
%MOMM*%
%LPD*%
G01*
G04 APERTURE LIST*
%TA.AperFunction,Profile*%
%ADD10C,0.050000*%
%TD*%
%ADD11O,1.700000X1.700000*%
%ADD12R,1.700000X1.700000*%
%ADD13O,1.400000X1.400000*%
%ADD14C,1.400000*%
%ADD15R,1.100000X1.100000*%
%ADD16R,1.060000X0.650000*%
G04 APERTURE END LIST*
D10*
X67945000Y-36322000D02*
G75*
G02*
X68707000Y-37084000I0J-762000D01*
G01*
X68707000Y-51308000D02*
G75*
G02*
X67945000Y-52070000I-762000J0D01*
G01*
X23622000Y-52070000D02*
G75*
G02*
X22860000Y-51308000I0J762000D01*
G01*
X22860000Y-37084000D02*
G75*
G02*
X23622000Y-36322000I762000J0D01*
G01*
X22860000Y-51308000D02*
X22860000Y-37084000D01*
X67945000Y-52070000D02*
X23622000Y-52070000D01*
X68707000Y-37084000D02*
X68707000Y-51308000D01*
X23622000Y-36322000D02*
X67945000Y-36322000D01*
D11*
%TO.C,J1*%
X34798000Y-46583600D03*
X32258000Y-46583600D03*
X34798000Y-44043600D03*
X32258000Y-44043600D03*
X34798000Y-41503600D03*
X32258000Y-41503600D03*
X34798000Y-38963600D03*
D12*
X32258000Y-38963600D03*
%TD*%
%TO.C,STM32*%
G36*
G01*
X49778800Y-42108800D02*
X51103800Y-42108800D01*
G75*
G02*
X51178800Y-42183800I0J-75000D01*
G01*
X51178800Y-42333800D01*
G75*
G02*
X51103800Y-42408800I-75000J0D01*
G01*
X49778800Y-42408800D01*
G75*
G02*
X49703800Y-42333800I0J75000D01*
G01*
X49703800Y-42183800D01*
G75*
G02*
X49778800Y-42108800I75000J0D01*
G01*
G37*
G36*
G01*
X49778800Y-42608800D02*
X51103800Y-42608800D01*
G75*
G02*
X51178800Y-42683800I0J-75000D01*
G01*
X51178800Y-42833800D01*
G75*
G02*
X51103800Y-42908800I-75000J0D01*
G01*
X49778800Y-42908800D01*
G75*
G02*
X49703800Y-42833800I0J75000D01*
G01*
X49703800Y-42683800D01*
G75*
G02*
X49778800Y-42608800I75000J0D01*
G01*
G37*
G36*
G01*
X49778800Y-43108800D02*
X51103800Y-43108800D01*
G75*
G02*
X51178800Y-43183800I0J-75000D01*
G01*
X51178800Y-43333800D01*
G75*
G02*
X51103800Y-43408800I-75000J0D01*
G01*
X49778800Y-43408800D01*
G75*
G02*
X49703800Y-43333800I0J75000D01*
G01*
X49703800Y-43183800D01*
G75*
G02*
X49778800Y-43108800I75000J0D01*
G01*
G37*
G36*
G01*
X49778800Y-43608800D02*
X51103800Y-43608800D01*
G75*
G02*
X51178800Y-43683800I0J-75000D01*
G01*
X51178800Y-43833800D01*
G75*
G02*
X51103800Y-43908800I-75000J0D01*
G01*
X49778800Y-43908800D01*
G75*
G02*
X49703800Y-43833800I0J75000D01*
G01*
X49703800Y-43683800D01*
G75*
G02*
X49778800Y-43608800I75000J0D01*
G01*
G37*
G36*
G01*
X49778800Y-44108800D02*
X51103800Y-44108800D01*
G75*
G02*
X51178800Y-44183800I0J-75000D01*
G01*
X51178800Y-44333800D01*
G75*
G02*
X51103800Y-44408800I-75000J0D01*
G01*
X49778800Y-44408800D01*
G75*
G02*
X49703800Y-44333800I0J75000D01*
G01*
X49703800Y-44183800D01*
G75*
G02*
X49778800Y-44108800I75000J0D01*
G01*
G37*
G36*
G01*
X49778800Y-44608800D02*
X51103800Y-44608800D01*
G75*
G02*
X51178800Y-44683800I0J-75000D01*
G01*
X51178800Y-44833800D01*
G75*
G02*
X51103800Y-44908800I-75000J0D01*
G01*
X49778800Y-44908800D01*
G75*
G02*
X49703800Y-44833800I0J75000D01*
G01*
X49703800Y-44683800D01*
G75*
G02*
X49778800Y-44608800I75000J0D01*
G01*
G37*
G36*
G01*
X49778800Y-45108800D02*
X51103800Y-45108800D01*
G75*
G02*
X51178800Y-45183800I0J-75000D01*
G01*
X51178800Y-45333800D01*
G75*
G02*
X51103800Y-45408800I-75000J0D01*
G01*
X49778800Y-45408800D01*
G75*
G02*
X49703800Y-45333800I0J75000D01*
G01*
X49703800Y-45183800D01*
G75*
G02*
X49778800Y-45108800I75000J0D01*
G01*
G37*
G36*
G01*
X49778800Y-45608800D02*
X51103800Y-45608800D01*
G75*
G02*
X51178800Y-45683800I0J-75000D01*
G01*
X51178800Y-45833800D01*
G75*
G02*
X51103800Y-45908800I-75000J0D01*
G01*
X49778800Y-45908800D01*
G75*
G02*
X49703800Y-45833800I0J75000D01*
G01*
X49703800Y-45683800D01*
G75*
G02*
X49778800Y-45608800I75000J0D01*
G01*
G37*
G36*
G01*
X49778800Y-46108800D02*
X51103800Y-46108800D01*
G75*
G02*
X51178800Y-46183800I0J-75000D01*
G01*
X51178800Y-46333800D01*
G75*
G02*
X51103800Y-46408800I-75000J0D01*
G01*
X49778800Y-46408800D01*
G75*
G02*
X49703800Y-46333800I0J75000D01*
G01*
X49703800Y-46183800D01*
G75*
G02*
X49778800Y-46108800I75000J0D01*
G01*
G37*
G36*
G01*
X49778800Y-46608800D02*
X51103800Y-46608800D01*
G75*
G02*
X51178800Y-46683800I0J-75000D01*
G01*
X51178800Y-46833800D01*
G75*
G02*
X51103800Y-46908800I-75000J0D01*
G01*
X49778800Y-46908800D01*
G75*
G02*
X49703800Y-46833800I0J75000D01*
G01*
X49703800Y-46683800D01*
G75*
G02*
X49778800Y-46608800I75000J0D01*
G01*
G37*
G36*
G01*
X49778800Y-47108800D02*
X51103800Y-47108800D01*
G75*
G02*
X51178800Y-47183800I0J-75000D01*
G01*
X51178800Y-47333800D01*
G75*
G02*
X51103800Y-47408800I-75000J0D01*
G01*
X49778800Y-47408800D01*
G75*
G02*
X49703800Y-47333800I0J75000D01*
G01*
X49703800Y-47183800D01*
G75*
G02*
X49778800Y-47108800I75000J0D01*
G01*
G37*
G36*
G01*
X49778800Y-47608800D02*
X51103800Y-47608800D01*
G75*
G02*
X51178800Y-47683800I0J-75000D01*
G01*
X51178800Y-47833800D01*
G75*
G02*
X51103800Y-47908800I-75000J0D01*
G01*
X49778800Y-47908800D01*
G75*
G02*
X49703800Y-47833800I0J75000D01*
G01*
X49703800Y-47683800D01*
G75*
G02*
X49778800Y-47608800I75000J0D01*
G01*
G37*
G36*
G01*
X48953800Y-48433800D02*
X49103800Y-48433800D01*
G75*
G02*
X49178800Y-48508800I0J-75000D01*
G01*
X49178800Y-49833800D01*
G75*
G02*
X49103800Y-49908800I-75000J0D01*
G01*
X48953800Y-49908800D01*
G75*
G02*
X48878800Y-49833800I0J75000D01*
G01*
X48878800Y-48508800D01*
G75*
G02*
X48953800Y-48433800I75000J0D01*
G01*
G37*
G36*
G01*
X48453800Y-48433800D02*
X48603800Y-48433800D01*
G75*
G02*
X48678800Y-48508800I0J-75000D01*
G01*
X48678800Y-49833800D01*
G75*
G02*
X48603800Y-49908800I-75000J0D01*
G01*
X48453800Y-49908800D01*
G75*
G02*
X48378800Y-49833800I0J75000D01*
G01*
X48378800Y-48508800D01*
G75*
G02*
X48453800Y-48433800I75000J0D01*
G01*
G37*
G36*
G01*
X47953800Y-48433800D02*
X48103800Y-48433800D01*
G75*
G02*
X48178800Y-48508800I0J-75000D01*
G01*
X48178800Y-49833800D01*
G75*
G02*
X48103800Y-49908800I-75000J0D01*
G01*
X47953800Y-49908800D01*
G75*
G02*
X47878800Y-49833800I0J75000D01*
G01*
X47878800Y-48508800D01*
G75*
G02*
X47953800Y-48433800I75000J0D01*
G01*
G37*
G36*
G01*
X47453800Y-48433800D02*
X47603800Y-48433800D01*
G75*
G02*
X47678800Y-48508800I0J-75000D01*
G01*
X47678800Y-49833800D01*
G75*
G02*
X47603800Y-49908800I-75000J0D01*
G01*
X47453800Y-49908800D01*
G75*
G02*
X47378800Y-49833800I0J75000D01*
G01*
X47378800Y-48508800D01*
G75*
G02*
X47453800Y-48433800I75000J0D01*
G01*
G37*
G36*
G01*
X46953800Y-48433800D02*
X47103800Y-48433800D01*
G75*
G02*
X47178800Y-48508800I0J-75000D01*
G01*
X47178800Y-49833800D01*
G75*
G02*
X47103800Y-49908800I-75000J0D01*
G01*
X46953800Y-49908800D01*
G75*
G02*
X46878800Y-49833800I0J75000D01*
G01*
X46878800Y-48508800D01*
G75*
G02*
X46953800Y-48433800I75000J0D01*
G01*
G37*
G36*
G01*
X46453800Y-48433800D02*
X46603800Y-48433800D01*
G75*
G02*
X46678800Y-48508800I0J-75000D01*
G01*
X46678800Y-49833800D01*
G75*
G02*
X46603800Y-49908800I-75000J0D01*
G01*
X46453800Y-49908800D01*
G75*
G02*
X46378800Y-49833800I0J75000D01*
G01*
X46378800Y-48508800D01*
G75*
G02*
X46453800Y-48433800I75000J0D01*
G01*
G37*
G36*
G01*
X45953800Y-48433800D02*
X46103800Y-48433800D01*
G75*
G02*
X46178800Y-48508800I0J-75000D01*
G01*
X46178800Y-49833800D01*
G75*
G02*
X46103800Y-49908800I-75000J0D01*
G01*
X45953800Y-49908800D01*
G75*
G02*
X45878800Y-49833800I0J75000D01*
G01*
X45878800Y-48508800D01*
G75*
G02*
X45953800Y-48433800I75000J0D01*
G01*
G37*
G36*
G01*
X45453800Y-48433800D02*
X45603800Y-48433800D01*
G75*
G02*
X45678800Y-48508800I0J-75000D01*
G01*
X45678800Y-49833800D01*
G75*
G02*
X45603800Y-49908800I-75000J0D01*
G01*
X45453800Y-49908800D01*
G75*
G02*
X45378800Y-49833800I0J75000D01*
G01*
X45378800Y-48508800D01*
G75*
G02*
X45453800Y-48433800I75000J0D01*
G01*
G37*
G36*
G01*
X44953800Y-48433800D02*
X45103800Y-48433800D01*
G75*
G02*
X45178800Y-48508800I0J-75000D01*
G01*
X45178800Y-49833800D01*
G75*
G02*
X45103800Y-49908800I-75000J0D01*
G01*
X44953800Y-49908800D01*
G75*
G02*
X44878800Y-49833800I0J75000D01*
G01*
X44878800Y-48508800D01*
G75*
G02*
X44953800Y-48433800I75000J0D01*
G01*
G37*
G36*
G01*
X44453800Y-48433800D02*
X44603800Y-48433800D01*
G75*
G02*
X44678800Y-48508800I0J-75000D01*
G01*
X44678800Y-49833800D01*
G75*
G02*
X44603800Y-49908800I-75000J0D01*
G01*
X44453800Y-49908800D01*
G75*
G02*
X44378800Y-49833800I0J75000D01*
G01*
X44378800Y-48508800D01*
G75*
G02*
X44453800Y-48433800I75000J0D01*
G01*
G37*
G36*
G01*
X43953800Y-48433800D02*
X44103800Y-48433800D01*
G75*
G02*
X44178800Y-48508800I0J-75000D01*
G01*
X44178800Y-49833800D01*
G75*
G02*
X44103800Y-49908800I-75000J0D01*
G01*
X43953800Y-49908800D01*
G75*
G02*
X43878800Y-49833800I0J75000D01*
G01*
X43878800Y-48508800D01*
G75*
G02*
X43953800Y-48433800I75000J0D01*
G01*
G37*
G36*
G01*
X43453800Y-48433800D02*
X43603800Y-48433800D01*
G75*
G02*
X43678800Y-48508800I0J-75000D01*
G01*
X43678800Y-49833800D01*
G75*
G02*
X43603800Y-49908800I-75000J0D01*
G01*
X43453800Y-49908800D01*
G75*
G02*
X43378800Y-49833800I0J75000D01*
G01*
X43378800Y-48508800D01*
G75*
G02*
X43453800Y-48433800I75000J0D01*
G01*
G37*
G36*
G01*
X41453800Y-47608800D02*
X42778800Y-47608800D01*
G75*
G02*
X42853800Y-47683800I0J-75000D01*
G01*
X42853800Y-47833800D01*
G75*
G02*
X42778800Y-47908800I-75000J0D01*
G01*
X41453800Y-47908800D01*
G75*
G02*
X41378800Y-47833800I0J75000D01*
G01*
X41378800Y-47683800D01*
G75*
G02*
X41453800Y-47608800I75000J0D01*
G01*
G37*
G36*
G01*
X41453800Y-47108800D02*
X42778800Y-47108800D01*
G75*
G02*
X42853800Y-47183800I0J-75000D01*
G01*
X42853800Y-47333800D01*
G75*
G02*
X42778800Y-47408800I-75000J0D01*
G01*
X41453800Y-47408800D01*
G75*
G02*
X41378800Y-47333800I0J75000D01*
G01*
X41378800Y-47183800D01*
G75*
G02*
X41453800Y-47108800I75000J0D01*
G01*
G37*
G36*
G01*
X41453800Y-46608800D02*
X42778800Y-46608800D01*
G75*
G02*
X42853800Y-46683800I0J-75000D01*
G01*
X42853800Y-46833800D01*
G75*
G02*
X42778800Y-46908800I-75000J0D01*
G01*
X41453800Y-46908800D01*
G75*
G02*
X41378800Y-46833800I0J75000D01*
G01*
X41378800Y-46683800D01*
G75*
G02*
X41453800Y-46608800I75000J0D01*
G01*
G37*
G36*
G01*
X41453800Y-46108800D02*
X42778800Y-46108800D01*
G75*
G02*
X42853800Y-46183800I0J-75000D01*
G01*
X42853800Y-46333800D01*
G75*
G02*
X42778800Y-46408800I-75000J0D01*
G01*
X41453800Y-46408800D01*
G75*
G02*
X41378800Y-46333800I0J75000D01*
G01*
X41378800Y-46183800D01*
G75*
G02*
X41453800Y-46108800I75000J0D01*
G01*
G37*
G36*
G01*
X41453800Y-45608800D02*
X42778800Y-45608800D01*
G75*
G02*
X42853800Y-45683800I0J-75000D01*
G01*
X42853800Y-45833800D01*
G75*
G02*
X42778800Y-45908800I-75000J0D01*
G01*
X41453800Y-45908800D01*
G75*
G02*
X41378800Y-45833800I0J75000D01*
G01*
X41378800Y-45683800D01*
G75*
G02*
X41453800Y-45608800I75000J0D01*
G01*
G37*
G36*
G01*
X41453800Y-45108800D02*
X42778800Y-45108800D01*
G75*
G02*
X42853800Y-45183800I0J-75000D01*
G01*
X42853800Y-45333800D01*
G75*
G02*
X42778800Y-45408800I-75000J0D01*
G01*
X41453800Y-45408800D01*
G75*
G02*
X41378800Y-45333800I0J75000D01*
G01*
X41378800Y-45183800D01*
G75*
G02*
X41453800Y-45108800I75000J0D01*
G01*
G37*
G36*
G01*
X41453800Y-44608800D02*
X42778800Y-44608800D01*
G75*
G02*
X42853800Y-44683800I0J-75000D01*
G01*
X42853800Y-44833800D01*
G75*
G02*
X42778800Y-44908800I-75000J0D01*
G01*
X41453800Y-44908800D01*
G75*
G02*
X41378800Y-44833800I0J75000D01*
G01*
X41378800Y-44683800D01*
G75*
G02*
X41453800Y-44608800I75000J0D01*
G01*
G37*
G36*
G01*
X41453800Y-44108800D02*
X42778800Y-44108800D01*
G75*
G02*
X42853800Y-44183800I0J-75000D01*
G01*
X42853800Y-44333800D01*
G75*
G02*
X42778800Y-44408800I-75000J0D01*
G01*
X41453800Y-44408800D01*
G75*
G02*
X41378800Y-44333800I0J75000D01*
G01*
X41378800Y-44183800D01*
G75*
G02*
X41453800Y-44108800I75000J0D01*
G01*
G37*
G36*
G01*
X41453800Y-43608800D02*
X42778800Y-43608800D01*
G75*
G02*
X42853800Y-43683800I0J-75000D01*
G01*
X42853800Y-43833800D01*
G75*
G02*
X42778800Y-43908800I-75000J0D01*
G01*
X41453800Y-43908800D01*
G75*
G02*
X41378800Y-43833800I0J75000D01*
G01*
X41378800Y-43683800D01*
G75*
G02*
X41453800Y-43608800I75000J0D01*
G01*
G37*
G36*
G01*
X41453800Y-43108800D02*
X42778800Y-43108800D01*
G75*
G02*
X42853800Y-43183800I0J-75000D01*
G01*
X42853800Y-43333800D01*
G75*
G02*
X42778800Y-43408800I-75000J0D01*
G01*
X41453800Y-43408800D01*
G75*
G02*
X41378800Y-43333800I0J75000D01*
G01*
X41378800Y-43183800D01*
G75*
G02*
X41453800Y-43108800I75000J0D01*
G01*
G37*
G36*
G01*
X41453800Y-42608800D02*
X42778800Y-42608800D01*
G75*
G02*
X42853800Y-42683800I0J-75000D01*
G01*
X42853800Y-42833800D01*
G75*
G02*
X42778800Y-42908800I-75000J0D01*
G01*
X41453800Y-42908800D01*
G75*
G02*
X41378800Y-42833800I0J75000D01*
G01*
X41378800Y-42683800D01*
G75*
G02*
X41453800Y-42608800I75000J0D01*
G01*
G37*
G36*
G01*
X41453800Y-42108800D02*
X42778800Y-42108800D01*
G75*
G02*
X42853800Y-42183800I0J-75000D01*
G01*
X42853800Y-42333800D01*
G75*
G02*
X42778800Y-42408800I-75000J0D01*
G01*
X41453800Y-42408800D01*
G75*
G02*
X41378800Y-42333800I0J75000D01*
G01*
X41378800Y-42183800D01*
G75*
G02*
X41453800Y-42108800I75000J0D01*
G01*
G37*
G36*
G01*
X43453800Y-40108800D02*
X43603800Y-40108800D01*
G75*
G02*
X43678800Y-40183800I0J-75000D01*
G01*
X43678800Y-41508800D01*
G75*
G02*
X43603800Y-41583800I-75000J0D01*
G01*
X43453800Y-41583800D01*
G75*
G02*
X43378800Y-41508800I0J75000D01*
G01*
X43378800Y-40183800D01*
G75*
G02*
X43453800Y-40108800I75000J0D01*
G01*
G37*
G36*
G01*
X43953800Y-40108800D02*
X44103800Y-40108800D01*
G75*
G02*
X44178800Y-40183800I0J-75000D01*
G01*
X44178800Y-41508800D01*
G75*
G02*
X44103800Y-41583800I-75000J0D01*
G01*
X43953800Y-41583800D01*
G75*
G02*
X43878800Y-41508800I0J75000D01*
G01*
X43878800Y-40183800D01*
G75*
G02*
X43953800Y-40108800I75000J0D01*
G01*
G37*
G36*
G01*
X44453800Y-40108800D02*
X44603800Y-40108800D01*
G75*
G02*
X44678800Y-40183800I0J-75000D01*
G01*
X44678800Y-41508800D01*
G75*
G02*
X44603800Y-41583800I-75000J0D01*
G01*
X44453800Y-41583800D01*
G75*
G02*
X44378800Y-41508800I0J75000D01*
G01*
X44378800Y-40183800D01*
G75*
G02*
X44453800Y-40108800I75000J0D01*
G01*
G37*
G36*
G01*
X44953800Y-40108800D02*
X45103800Y-40108800D01*
G75*
G02*
X45178800Y-40183800I0J-75000D01*
G01*
X45178800Y-41508800D01*
G75*
G02*
X45103800Y-41583800I-75000J0D01*
G01*
X44953800Y-41583800D01*
G75*
G02*
X44878800Y-41508800I0J75000D01*
G01*
X44878800Y-40183800D01*
G75*
G02*
X44953800Y-40108800I75000J0D01*
G01*
G37*
G36*
G01*
X45453800Y-40108800D02*
X45603800Y-40108800D01*
G75*
G02*
X45678800Y-40183800I0J-75000D01*
G01*
X45678800Y-41508800D01*
G75*
G02*
X45603800Y-41583800I-75000J0D01*
G01*
X45453800Y-41583800D01*
G75*
G02*
X45378800Y-41508800I0J75000D01*
G01*
X45378800Y-40183800D01*
G75*
G02*
X45453800Y-40108800I75000J0D01*
G01*
G37*
G36*
G01*
X45953800Y-40108800D02*
X46103800Y-40108800D01*
G75*
G02*
X46178800Y-40183800I0J-75000D01*
G01*
X46178800Y-41508800D01*
G75*
G02*
X46103800Y-41583800I-75000J0D01*
G01*
X45953800Y-41583800D01*
G75*
G02*
X45878800Y-41508800I0J75000D01*
G01*
X45878800Y-40183800D01*
G75*
G02*
X45953800Y-40108800I75000J0D01*
G01*
G37*
G36*
G01*
X46453800Y-40108800D02*
X46603800Y-40108800D01*
G75*
G02*
X46678800Y-40183800I0J-75000D01*
G01*
X46678800Y-41508800D01*
G75*
G02*
X46603800Y-41583800I-75000J0D01*
G01*
X46453800Y-41583800D01*
G75*
G02*
X46378800Y-41508800I0J75000D01*
G01*
X46378800Y-40183800D01*
G75*
G02*
X46453800Y-40108800I75000J0D01*
G01*
G37*
G36*
G01*
X46953800Y-40108800D02*
X47103800Y-40108800D01*
G75*
G02*
X47178800Y-40183800I0J-75000D01*
G01*
X47178800Y-41508800D01*
G75*
G02*
X47103800Y-41583800I-75000J0D01*
G01*
X46953800Y-41583800D01*
G75*
G02*
X46878800Y-41508800I0J75000D01*
G01*
X46878800Y-40183800D01*
G75*
G02*
X46953800Y-40108800I75000J0D01*
G01*
G37*
G36*
G01*
X47453800Y-40108800D02*
X47603800Y-40108800D01*
G75*
G02*
X47678800Y-40183800I0J-75000D01*
G01*
X47678800Y-41508800D01*
G75*
G02*
X47603800Y-41583800I-75000J0D01*
G01*
X47453800Y-41583800D01*
G75*
G02*
X47378800Y-41508800I0J75000D01*
G01*
X47378800Y-40183800D01*
G75*
G02*
X47453800Y-40108800I75000J0D01*
G01*
G37*
G36*
G01*
X47953800Y-40108800D02*
X48103800Y-40108800D01*
G75*
G02*
X48178800Y-40183800I0J-75000D01*
G01*
X48178800Y-41508800D01*
G75*
G02*
X48103800Y-41583800I-75000J0D01*
G01*
X47953800Y-41583800D01*
G75*
G02*
X47878800Y-41508800I0J75000D01*
G01*
X47878800Y-40183800D01*
G75*
G02*
X47953800Y-40108800I75000J0D01*
G01*
G37*
G36*
G01*
X48453800Y-40108800D02*
X48603800Y-40108800D01*
G75*
G02*
X48678800Y-40183800I0J-75000D01*
G01*
X48678800Y-41508800D01*
G75*
G02*
X48603800Y-41583800I-75000J0D01*
G01*
X48453800Y-41583800D01*
G75*
G02*
X48378800Y-41508800I0J75000D01*
G01*
X48378800Y-40183800D01*
G75*
G02*
X48453800Y-40108800I75000J0D01*
G01*
G37*
G36*
G01*
X48953800Y-40108800D02*
X49103800Y-40108800D01*
G75*
G02*
X49178800Y-40183800I0J-75000D01*
G01*
X49178800Y-41508800D01*
G75*
G02*
X49103800Y-41583800I-75000J0D01*
G01*
X48953800Y-41583800D01*
G75*
G02*
X48878800Y-41508800I0J75000D01*
G01*
X48878800Y-40183800D01*
G75*
G02*
X48953800Y-40108800I75000J0D01*
G01*
G37*
%TD*%
D11*
%TO.C,SWD1*%
X51816000Y-49987200D03*
X54356000Y-49987200D03*
X56896000Y-49987200D03*
D12*
X59436000Y-49987200D03*
%TD*%
D13*
%TO.C,SG4*%
X24282400Y-41910000D03*
D14*
X29362400Y-41910000D03*
%TD*%
D13*
%TO.C,SG3*%
X29362400Y-39776400D03*
D14*
X24282400Y-39776400D03*
%TD*%
D13*
%TO.C,SG2*%
X24282400Y-44069000D03*
D14*
X29362400Y-44069000D03*
%TD*%
D13*
%TO.C,SG1*%
X29362400Y-46202600D03*
D14*
X24282400Y-46202600D03*
%TD*%
%TO.C,R6*%
G36*
G01*
X28544000Y-48751500D02*
X28544000Y-48276500D01*
G75*
G02*
X28781500Y-48039000I237500J0D01*
G01*
X29356500Y-48039000D01*
G75*
G02*
X29594000Y-48276500I0J-237500D01*
G01*
X29594000Y-48751500D01*
G75*
G02*
X29356500Y-48989000I-237500J0D01*
G01*
X28781500Y-48989000D01*
G75*
G02*
X28544000Y-48751500I0J237500D01*
G01*
G37*
G36*
G01*
X26794000Y-48751500D02*
X26794000Y-48276500D01*
G75*
G02*
X27031500Y-48039000I237500J0D01*
G01*
X27606500Y-48039000D01*
G75*
G02*
X27844000Y-48276500I0J-237500D01*
G01*
X27844000Y-48751500D01*
G75*
G02*
X27606500Y-48989000I-237500J0D01*
G01*
X27031500Y-48989000D01*
G75*
G02*
X26794000Y-48751500I0J237500D01*
G01*
G37*
%TD*%
%TO.C,R5*%
G36*
G01*
X51669200Y-37862500D02*
X51669200Y-38337500D01*
G75*
G02*
X51431700Y-38575000I-237500J0D01*
G01*
X50856700Y-38575000D01*
G75*
G02*
X50619200Y-38337500I0J237500D01*
G01*
X50619200Y-37862500D01*
G75*
G02*
X50856700Y-37625000I237500J0D01*
G01*
X51431700Y-37625000D01*
G75*
G02*
X51669200Y-37862500I0J-237500D01*
G01*
G37*
G36*
G01*
X53419200Y-37862500D02*
X53419200Y-38337500D01*
G75*
G02*
X53181700Y-38575000I-237500J0D01*
G01*
X52606700Y-38575000D01*
G75*
G02*
X52369200Y-38337500I0J237500D01*
G01*
X52369200Y-37862500D01*
G75*
G02*
X52606700Y-37625000I237500J0D01*
G01*
X53181700Y-37625000D01*
G75*
G02*
X53419200Y-37862500I0J-237500D01*
G01*
G37*
%TD*%
%TO.C,R4*%
G36*
G01*
X53994800Y-46821100D02*
X53994800Y-46346100D01*
G75*
G02*
X54232300Y-46108600I237500J0D01*
G01*
X54807300Y-46108600D01*
G75*
G02*
X55044800Y-46346100I0J-237500D01*
G01*
X55044800Y-46821100D01*
G75*
G02*
X54807300Y-47058600I-237500J0D01*
G01*
X54232300Y-47058600D01*
G75*
G02*
X53994800Y-46821100I0J237500D01*
G01*
G37*
G36*
G01*
X52244800Y-46821100D02*
X52244800Y-46346100D01*
G75*
G02*
X52482300Y-46108600I237500J0D01*
G01*
X53057300Y-46108600D01*
G75*
G02*
X53294800Y-46346100I0J-237500D01*
G01*
X53294800Y-46821100D01*
G75*
G02*
X53057300Y-47058600I-237500J0D01*
G01*
X52482300Y-47058600D01*
G75*
G02*
X52244800Y-46821100I0J237500D01*
G01*
G37*
%TD*%
%TO.C,R2*%
G36*
G01*
X56484000Y-38794700D02*
X56484000Y-38319700D01*
G75*
G02*
X56721500Y-38082200I237500J0D01*
G01*
X57296500Y-38082200D01*
G75*
G02*
X57534000Y-38319700I0J-237500D01*
G01*
X57534000Y-38794700D01*
G75*
G02*
X57296500Y-39032200I-237500J0D01*
G01*
X56721500Y-39032200D01*
G75*
G02*
X56484000Y-38794700I0J237500D01*
G01*
G37*
G36*
G01*
X54734000Y-38794700D02*
X54734000Y-38319700D01*
G75*
G02*
X54971500Y-38082200I237500J0D01*
G01*
X55546500Y-38082200D01*
G75*
G02*
X55784000Y-38319700I0J-237500D01*
G01*
X55784000Y-38794700D01*
G75*
G02*
X55546500Y-39032200I-237500J0D01*
G01*
X54971500Y-39032200D01*
G75*
G02*
X54734000Y-38794700I0J237500D01*
G01*
G37*
%TD*%
%TO.C,R1*%
G36*
G01*
X56433200Y-40623500D02*
X56433200Y-40148500D01*
G75*
G02*
X56670700Y-39911000I237500J0D01*
G01*
X57245700Y-39911000D01*
G75*
G02*
X57483200Y-40148500I0J-237500D01*
G01*
X57483200Y-40623500D01*
G75*
G02*
X57245700Y-40861000I-237500J0D01*
G01*
X56670700Y-40861000D01*
G75*
G02*
X56433200Y-40623500I0J237500D01*
G01*
G37*
G36*
G01*
X54683200Y-40623500D02*
X54683200Y-40148500D01*
G75*
G02*
X54920700Y-39911000I237500J0D01*
G01*
X55495700Y-39911000D01*
G75*
G02*
X55733200Y-40148500I0J-237500D01*
G01*
X55733200Y-40623500D01*
G75*
G02*
X55495700Y-40861000I-237500J0D01*
G01*
X54920700Y-40861000D01*
G75*
G02*
X54683200Y-40623500I0J237500D01*
G01*
G37*
%TD*%
%TO.C,F1*%
G36*
G01*
X66611800Y-47208600D02*
X66611800Y-45958600D01*
G75*
G02*
X66861800Y-45708600I250000J0D01*
G01*
X67786800Y-45708600D01*
G75*
G02*
X68036800Y-45958600I0J-250000D01*
G01*
X68036800Y-47208600D01*
G75*
G02*
X67786800Y-47458600I-250000J0D01*
G01*
X66861800Y-47458600D01*
G75*
G02*
X66611800Y-47208600I0J250000D01*
G01*
G37*
G36*
G01*
X63636800Y-47208600D02*
X63636800Y-45958600D01*
G75*
G02*
X63886800Y-45708600I250000J0D01*
G01*
X64811800Y-45708600D01*
G75*
G02*
X65061800Y-45958600I0J-250000D01*
G01*
X65061800Y-47208600D01*
G75*
G02*
X64811800Y-47458600I-250000J0D01*
G01*
X63886800Y-47458600D01*
G75*
G02*
X63636800Y-47208600I0J250000D01*
G01*
G37*
%TD*%
%TO.C,LED2*%
G36*
G01*
X60235800Y-38135400D02*
X60235800Y-39385400D01*
G75*
G02*
X59985800Y-39635400I-250000J0D01*
G01*
X59060800Y-39635400D01*
G75*
G02*
X58810800Y-39385400I0J250000D01*
G01*
X58810800Y-38135400D01*
G75*
G02*
X59060800Y-37885400I250000J0D01*
G01*
X59985800Y-37885400D01*
G75*
G02*
X60235800Y-38135400I0J-250000D01*
G01*
G37*
G36*
G01*
X63210800Y-38135400D02*
X63210800Y-39385400D01*
G75*
G02*
X62960800Y-39635400I-250000J0D01*
G01*
X62035800Y-39635400D01*
G75*
G02*
X61785800Y-39385400I0J250000D01*
G01*
X61785800Y-38135400D01*
G75*
G02*
X62035800Y-37885400I250000J0D01*
G01*
X62960800Y-37885400D01*
G75*
G02*
X63210800Y-38135400I0J-250000D01*
G01*
G37*
%TD*%
%TO.C,LED1*%
G36*
G01*
X60235800Y-40421400D02*
X60235800Y-41671400D01*
G75*
G02*
X59985800Y-41921400I-250000J0D01*
G01*
X59060800Y-41921400D01*
G75*
G02*
X58810800Y-41671400I0J250000D01*
G01*
X58810800Y-40421400D01*
G75*
G02*
X59060800Y-40171400I250000J0D01*
G01*
X59985800Y-40171400D01*
G75*
G02*
X60235800Y-40421400I0J-250000D01*
G01*
G37*
G36*
G01*
X63210800Y-40421400D02*
X63210800Y-41671400D01*
G75*
G02*
X62960800Y-41921400I-250000J0D01*
G01*
X62035800Y-41921400D01*
G75*
G02*
X61785800Y-41671400I0J250000D01*
G01*
X61785800Y-40421400D01*
G75*
G02*
X62035800Y-40171400I250000J0D01*
G01*
X62960800Y-40171400D01*
G75*
G02*
X63210800Y-40421400I0J-250000D01*
G01*
G37*
%TD*%
D15*
%TO.C,D1*%
X67490800Y-43942000D03*
X64690800Y-43942000D03*
%TD*%
%TO.C,C7*%
G36*
G01*
X58488600Y-44406400D02*
X57538600Y-44406400D01*
G75*
G02*
X57288600Y-44156400I0J250000D01*
G01*
X57288600Y-43481400D01*
G75*
G02*
X57538600Y-43231400I250000J0D01*
G01*
X58488600Y-43231400D01*
G75*
G02*
X58738600Y-43481400I0J-250000D01*
G01*
X58738600Y-44156400D01*
G75*
G02*
X58488600Y-44406400I-250000J0D01*
G01*
G37*
G36*
G01*
X58488600Y-46481400D02*
X57538600Y-46481400D01*
G75*
G02*
X57288600Y-46231400I0J250000D01*
G01*
X57288600Y-45556400D01*
G75*
G02*
X57538600Y-45306400I250000J0D01*
G01*
X58488600Y-45306400D01*
G75*
G02*
X58738600Y-45556400I0J-250000D01*
G01*
X58738600Y-46231400D01*
G75*
G02*
X58488600Y-46481400I-250000J0D01*
G01*
G37*
%TD*%
%TO.C,C6*%
G36*
G01*
X67277000Y-40088400D02*
X66327000Y-40088400D01*
G75*
G02*
X66077000Y-39838400I0J250000D01*
G01*
X66077000Y-39163400D01*
G75*
G02*
X66327000Y-38913400I250000J0D01*
G01*
X67277000Y-38913400D01*
G75*
G02*
X67527000Y-39163400I0J-250000D01*
G01*
X67527000Y-39838400D01*
G75*
G02*
X67277000Y-40088400I-250000J0D01*
G01*
G37*
G36*
G01*
X67277000Y-42163400D02*
X66327000Y-42163400D01*
G75*
G02*
X66077000Y-41913400I0J250000D01*
G01*
X66077000Y-41238400D01*
G75*
G02*
X66327000Y-40988400I250000J0D01*
G01*
X67277000Y-40988400D01*
G75*
G02*
X67527000Y-41238400I0J-250000D01*
G01*
X67527000Y-41913400D01*
G75*
G02*
X67277000Y-42163400I-250000J0D01*
G01*
G37*
%TD*%
%TO.C,C4*%
G36*
G01*
X40200600Y-46743200D02*
X39250600Y-46743200D01*
G75*
G02*
X39000600Y-46493200I0J250000D01*
G01*
X39000600Y-45818200D01*
G75*
G02*
X39250600Y-45568200I250000J0D01*
G01*
X40200600Y-45568200D01*
G75*
G02*
X40450600Y-45818200I0J-250000D01*
G01*
X40450600Y-46493200D01*
G75*
G02*
X40200600Y-46743200I-250000J0D01*
G01*
G37*
G36*
G01*
X40200600Y-48818200D02*
X39250600Y-48818200D01*
G75*
G02*
X39000600Y-48568200I0J250000D01*
G01*
X39000600Y-47893200D01*
G75*
G02*
X39250600Y-47643200I250000J0D01*
G01*
X40200600Y-47643200D01*
G75*
G02*
X40450600Y-47893200I0J-250000D01*
G01*
X40450600Y-48568200D01*
G75*
G02*
X40200600Y-48818200I-250000J0D01*
G01*
G37*
%TD*%
%TO.C,C3*%
G36*
G01*
X40748800Y-50172600D02*
X40748800Y-51122600D01*
G75*
G02*
X40498800Y-51372600I-250000J0D01*
G01*
X39823800Y-51372600D01*
G75*
G02*
X39573800Y-51122600I0J250000D01*
G01*
X39573800Y-50172600D01*
G75*
G02*
X39823800Y-49922600I250000J0D01*
G01*
X40498800Y-49922600D01*
G75*
G02*
X40748800Y-50172600I0J-250000D01*
G01*
G37*
G36*
G01*
X42823800Y-50172600D02*
X42823800Y-51122600D01*
G75*
G02*
X42573800Y-51372600I-250000J0D01*
G01*
X41898800Y-51372600D01*
G75*
G02*
X41648800Y-51122600I0J250000D01*
G01*
X41648800Y-50172600D01*
G75*
G02*
X41898800Y-49922600I250000J0D01*
G01*
X42573800Y-49922600D01*
G75*
G02*
X42823800Y-50172600I0J-250000D01*
G01*
G37*
%TD*%
%TO.C,C2*%
G36*
G01*
X45103200Y-38829000D02*
X45103200Y-37879000D01*
G75*
G02*
X45353200Y-37629000I250000J0D01*
G01*
X46028200Y-37629000D01*
G75*
G02*
X46278200Y-37879000I0J-250000D01*
G01*
X46278200Y-38829000D01*
G75*
G02*
X46028200Y-39079000I-250000J0D01*
G01*
X45353200Y-39079000D01*
G75*
G02*
X45103200Y-38829000I0J250000D01*
G01*
G37*
G36*
G01*
X43028200Y-38829000D02*
X43028200Y-37879000D01*
G75*
G02*
X43278200Y-37629000I250000J0D01*
G01*
X43953200Y-37629000D01*
G75*
G02*
X44203200Y-37879000I0J-250000D01*
G01*
X44203200Y-38829000D01*
G75*
G02*
X43953200Y-39079000I-250000J0D01*
G01*
X43278200Y-39079000D01*
G75*
G02*
X43028200Y-38829000I0J250000D01*
G01*
G37*
%TD*%
%TO.C,C1*%
G36*
G01*
X52458600Y-43579200D02*
X53408600Y-43579200D01*
G75*
G02*
X53658600Y-43829200I0J-250000D01*
G01*
X53658600Y-44504200D01*
G75*
G02*
X53408600Y-44754200I-250000J0D01*
G01*
X52458600Y-44754200D01*
G75*
G02*
X52208600Y-44504200I0J250000D01*
G01*
X52208600Y-43829200D01*
G75*
G02*
X52458600Y-43579200I250000J0D01*
G01*
G37*
G36*
G01*
X52458600Y-41504200D02*
X53408600Y-41504200D01*
G75*
G02*
X53658600Y-41754200I0J-250000D01*
G01*
X53658600Y-42429200D01*
G75*
G02*
X53408600Y-42679200I-250000J0D01*
G01*
X52458600Y-42679200D01*
G75*
G02*
X52208600Y-42429200I0J250000D01*
G01*
X52208600Y-41754200D01*
G75*
G02*
X52458600Y-41504200I250000J0D01*
G01*
G37*
%TD*%
D11*
%TO.C,B+1*%
X66446400Y-49936400D03*
D12*
X63906400Y-49936400D03*
%TD*%
D16*
%TO.C,3v3reg1*%
X60012400Y-45908000D03*
X60012400Y-44008000D03*
X62212400Y-44008000D03*
X62212400Y-44958000D03*
X62212400Y-45908000D03*
%TD*%
M02*
