%TF.GenerationSoftware,KiCad,Pcbnew,(5.1.8)-1*%
%TF.CreationDate,2021-01-31T15:43:31-07:00*%
%TF.ProjectId,Axle-Tx-PCB(STM32)v2,41786c65-2d54-4782-9d50-43422853544d,rev?*%
%TF.SameCoordinates,Original*%
%TF.FileFunction,Copper,L1,Top*%
%TF.FilePolarity,Positive*%
%FSLAX46Y46*%
G04 Gerber Fmt 4.6, Leading zero omitted, Abs format (unit mm)*
G04 Created by KiCad (PCBNEW (5.1.8)-1) date 2021-01-31 15:43:31*
%MOMM*%
%LPD*%
G01*
G04 APERTURE LIST*
%TA.AperFunction,Profile*%
%ADD10C,0.050000*%
%TD*%
%TA.AperFunction,ComponentPad*%
%ADD11O,1.700000X1.700000*%
%TD*%
%TA.AperFunction,ComponentPad*%
%ADD12R,1.700000X1.700000*%
%TD*%
%TA.AperFunction,ComponentPad*%
%ADD13O,1.400000X1.400000*%
%TD*%
%TA.AperFunction,ComponentPad*%
%ADD14C,1.400000*%
%TD*%
%TA.AperFunction,SMDPad,CuDef*%
%ADD15R,1.100000X1.100000*%
%TD*%
%TA.AperFunction,SMDPad,CuDef*%
%ADD16R,1.060000X0.650000*%
%TD*%
%TA.AperFunction,ViaPad*%
%ADD17C,0.800000*%
%TD*%
%TA.AperFunction,Conductor*%
%ADD18C,0.250000*%
%TD*%
%TA.AperFunction,Conductor*%
%ADD19C,0.400000*%
%TD*%
%TA.AperFunction,Conductor*%
%ADD20C,0.254000*%
%TD*%
%TA.AperFunction,Conductor*%
%ADD21C,0.100000*%
%TD*%
G04 APERTURE END LIST*
D10*
X67945000Y-36322000D02*
G75*
G02*
X68707000Y-37084000I0J-762000D01*
G01*
X68707000Y-51308000D02*
G75*
G02*
X67945000Y-52070000I-762000J0D01*
G01*
X23622000Y-52070000D02*
G75*
G02*
X22860000Y-51308000I0J762000D01*
G01*
X22860000Y-37084000D02*
G75*
G02*
X23622000Y-36322000I762000J0D01*
G01*
X22860000Y-51308000D02*
X22860000Y-37084000D01*
X67945000Y-52070000D02*
X23622000Y-52070000D01*
X68707000Y-37084000D02*
X68707000Y-51308000D01*
X23622000Y-36322000D02*
X67945000Y-36322000D01*
D11*
%TO.P,J1,8*%
%TO.N,SPI1-IRQ*%
X34798000Y-46583600D03*
%TO.P,J1,7*%
%TO.N,SPI1-MISO*%
X32258000Y-46583600D03*
%TO.P,J1,6*%
%TO.N,SPI1-MOSI*%
X34798000Y-44043600D03*
%TO.P,J1,5*%
%TO.N,SPI1-SCK*%
X32258000Y-44043600D03*
%TO.P,J1,4*%
%TO.N,SPI1-CSn*%
X34798000Y-41503600D03*
%TO.P,J1,3*%
%TO.N,SPI1-CE*%
X32258000Y-41503600D03*
%TO.P,J1,2*%
%TO.N,+3V3*%
X34798000Y-38963600D03*
D12*
%TO.P,J1,1*%
%TO.N,GND*%
X32258000Y-38963600D03*
%TD*%
%TO.P,STM32,48*%
%TO.N,+3V3*%
%TA.AperFunction,SMDPad,CuDef*%
G36*
G01*
X49778800Y-42108800D02*
X51103800Y-42108800D01*
G75*
G02*
X51178800Y-42183800I0J-75000D01*
G01*
X51178800Y-42333800D01*
G75*
G02*
X51103800Y-42408800I-75000J0D01*
G01*
X49778800Y-42408800D01*
G75*
G02*
X49703800Y-42333800I0J75000D01*
G01*
X49703800Y-42183800D01*
G75*
G02*
X49778800Y-42108800I75000J0D01*
G01*
G37*
%TD.AperFunction*%
%TO.P,STM32,47*%
%TO.N,GND*%
%TA.AperFunction,SMDPad,CuDef*%
G36*
G01*
X49778800Y-42608800D02*
X51103800Y-42608800D01*
G75*
G02*
X51178800Y-42683800I0J-75000D01*
G01*
X51178800Y-42833800D01*
G75*
G02*
X51103800Y-42908800I-75000J0D01*
G01*
X49778800Y-42908800D01*
G75*
G02*
X49703800Y-42833800I0J75000D01*
G01*
X49703800Y-42683800D01*
G75*
G02*
X49778800Y-42608800I75000J0D01*
G01*
G37*
%TD.AperFunction*%
%TO.P,STM32,46*%
%TO.N,Net-(STM32-Pad46)*%
%TA.AperFunction,SMDPad,CuDef*%
G36*
G01*
X49778800Y-43108800D02*
X51103800Y-43108800D01*
G75*
G02*
X51178800Y-43183800I0J-75000D01*
G01*
X51178800Y-43333800D01*
G75*
G02*
X51103800Y-43408800I-75000J0D01*
G01*
X49778800Y-43408800D01*
G75*
G02*
X49703800Y-43333800I0J75000D01*
G01*
X49703800Y-43183800D01*
G75*
G02*
X49778800Y-43108800I75000J0D01*
G01*
G37*
%TD.AperFunction*%
%TO.P,STM32,45*%
%TO.N,Net-(STM32-Pad45)*%
%TA.AperFunction,SMDPad,CuDef*%
G36*
G01*
X49778800Y-43608800D02*
X51103800Y-43608800D01*
G75*
G02*
X51178800Y-43683800I0J-75000D01*
G01*
X51178800Y-43833800D01*
G75*
G02*
X51103800Y-43908800I-75000J0D01*
G01*
X49778800Y-43908800D01*
G75*
G02*
X49703800Y-43833800I0J75000D01*
G01*
X49703800Y-43683800D01*
G75*
G02*
X49778800Y-43608800I75000J0D01*
G01*
G37*
%TD.AperFunction*%
%TO.P,STM32,44*%
%TO.N,Net-(R4-Pad1)*%
%TA.AperFunction,SMDPad,CuDef*%
G36*
G01*
X49778800Y-44108800D02*
X51103800Y-44108800D01*
G75*
G02*
X51178800Y-44183800I0J-75000D01*
G01*
X51178800Y-44333800D01*
G75*
G02*
X51103800Y-44408800I-75000J0D01*
G01*
X49778800Y-44408800D01*
G75*
G02*
X49703800Y-44333800I0J75000D01*
G01*
X49703800Y-44183800D01*
G75*
G02*
X49778800Y-44108800I75000J0D01*
G01*
G37*
%TD.AperFunction*%
%TO.P,STM32,43*%
%TO.N,Net-(STM32-Pad43)*%
%TA.AperFunction,SMDPad,CuDef*%
G36*
G01*
X49778800Y-44608800D02*
X51103800Y-44608800D01*
G75*
G02*
X51178800Y-44683800I0J-75000D01*
G01*
X51178800Y-44833800D01*
G75*
G02*
X51103800Y-44908800I-75000J0D01*
G01*
X49778800Y-44908800D01*
G75*
G02*
X49703800Y-44833800I0J75000D01*
G01*
X49703800Y-44683800D01*
G75*
G02*
X49778800Y-44608800I75000J0D01*
G01*
G37*
%TD.AperFunction*%
%TO.P,STM32,42*%
%TO.N,Net-(STM32-Pad42)*%
%TA.AperFunction,SMDPad,CuDef*%
G36*
G01*
X49778800Y-45108800D02*
X51103800Y-45108800D01*
G75*
G02*
X51178800Y-45183800I0J-75000D01*
G01*
X51178800Y-45333800D01*
G75*
G02*
X51103800Y-45408800I-75000J0D01*
G01*
X49778800Y-45408800D01*
G75*
G02*
X49703800Y-45333800I0J75000D01*
G01*
X49703800Y-45183800D01*
G75*
G02*
X49778800Y-45108800I75000J0D01*
G01*
G37*
%TD.AperFunction*%
%TO.P,STM32,41*%
%TO.N,Net-(STM32-Pad41)*%
%TA.AperFunction,SMDPad,CuDef*%
G36*
G01*
X49778800Y-45608800D02*
X51103800Y-45608800D01*
G75*
G02*
X51178800Y-45683800I0J-75000D01*
G01*
X51178800Y-45833800D01*
G75*
G02*
X51103800Y-45908800I-75000J0D01*
G01*
X49778800Y-45908800D01*
G75*
G02*
X49703800Y-45833800I0J75000D01*
G01*
X49703800Y-45683800D01*
G75*
G02*
X49778800Y-45608800I75000J0D01*
G01*
G37*
%TD.AperFunction*%
%TO.P,STM32,40*%
%TO.N,Net-(STM32-Pad40)*%
%TA.AperFunction,SMDPad,CuDef*%
G36*
G01*
X49778800Y-46108800D02*
X51103800Y-46108800D01*
G75*
G02*
X51178800Y-46183800I0J-75000D01*
G01*
X51178800Y-46333800D01*
G75*
G02*
X51103800Y-46408800I-75000J0D01*
G01*
X49778800Y-46408800D01*
G75*
G02*
X49703800Y-46333800I0J75000D01*
G01*
X49703800Y-46183800D01*
G75*
G02*
X49778800Y-46108800I75000J0D01*
G01*
G37*
%TD.AperFunction*%
%TO.P,STM32,39*%
%TO.N,Net-(STM32-Pad39)*%
%TA.AperFunction,SMDPad,CuDef*%
G36*
G01*
X49778800Y-46608800D02*
X51103800Y-46608800D01*
G75*
G02*
X51178800Y-46683800I0J-75000D01*
G01*
X51178800Y-46833800D01*
G75*
G02*
X51103800Y-46908800I-75000J0D01*
G01*
X49778800Y-46908800D01*
G75*
G02*
X49703800Y-46833800I0J75000D01*
G01*
X49703800Y-46683800D01*
G75*
G02*
X49778800Y-46608800I75000J0D01*
G01*
G37*
%TD.AperFunction*%
%TO.P,STM32,38*%
%TO.N,Net-(STM32-Pad38)*%
%TA.AperFunction,SMDPad,CuDef*%
G36*
G01*
X49778800Y-47108800D02*
X51103800Y-47108800D01*
G75*
G02*
X51178800Y-47183800I0J-75000D01*
G01*
X51178800Y-47333800D01*
G75*
G02*
X51103800Y-47408800I-75000J0D01*
G01*
X49778800Y-47408800D01*
G75*
G02*
X49703800Y-47333800I0J75000D01*
G01*
X49703800Y-47183800D01*
G75*
G02*
X49778800Y-47108800I75000J0D01*
G01*
G37*
%TD.AperFunction*%
%TO.P,STM32,37*%
%TO.N,PA14-SWCLK*%
%TA.AperFunction,SMDPad,CuDef*%
G36*
G01*
X49778800Y-47608800D02*
X51103800Y-47608800D01*
G75*
G02*
X51178800Y-47683800I0J-75000D01*
G01*
X51178800Y-47833800D01*
G75*
G02*
X51103800Y-47908800I-75000J0D01*
G01*
X49778800Y-47908800D01*
G75*
G02*
X49703800Y-47833800I0J75000D01*
G01*
X49703800Y-47683800D01*
G75*
G02*
X49778800Y-47608800I75000J0D01*
G01*
G37*
%TD.AperFunction*%
%TO.P,STM32,36*%
%TO.N,Net-(STM32-Pad36)*%
%TA.AperFunction,SMDPad,CuDef*%
G36*
G01*
X48953800Y-48433800D02*
X49103800Y-48433800D01*
G75*
G02*
X49178800Y-48508800I0J-75000D01*
G01*
X49178800Y-49833800D01*
G75*
G02*
X49103800Y-49908800I-75000J0D01*
G01*
X48953800Y-49908800D01*
G75*
G02*
X48878800Y-49833800I0J75000D01*
G01*
X48878800Y-48508800D01*
G75*
G02*
X48953800Y-48433800I75000J0D01*
G01*
G37*
%TD.AperFunction*%
%TO.P,STM32,35*%
%TO.N,Net-(STM32-Pad35)*%
%TA.AperFunction,SMDPad,CuDef*%
G36*
G01*
X48453800Y-48433800D02*
X48603800Y-48433800D01*
G75*
G02*
X48678800Y-48508800I0J-75000D01*
G01*
X48678800Y-49833800D01*
G75*
G02*
X48603800Y-49908800I-75000J0D01*
G01*
X48453800Y-49908800D01*
G75*
G02*
X48378800Y-49833800I0J75000D01*
G01*
X48378800Y-48508800D01*
G75*
G02*
X48453800Y-48433800I75000J0D01*
G01*
G37*
%TD.AperFunction*%
%TO.P,STM32,34*%
%TO.N,PA13-SWDIO*%
%TA.AperFunction,SMDPad,CuDef*%
G36*
G01*
X47953800Y-48433800D02*
X48103800Y-48433800D01*
G75*
G02*
X48178800Y-48508800I0J-75000D01*
G01*
X48178800Y-49833800D01*
G75*
G02*
X48103800Y-49908800I-75000J0D01*
G01*
X47953800Y-49908800D01*
G75*
G02*
X47878800Y-49833800I0J75000D01*
G01*
X47878800Y-48508800D01*
G75*
G02*
X47953800Y-48433800I75000J0D01*
G01*
G37*
%TD.AperFunction*%
%TO.P,STM32,33*%
%TO.N,Net-(STM32-Pad33)*%
%TA.AperFunction,SMDPad,CuDef*%
G36*
G01*
X47453800Y-48433800D02*
X47603800Y-48433800D01*
G75*
G02*
X47678800Y-48508800I0J-75000D01*
G01*
X47678800Y-49833800D01*
G75*
G02*
X47603800Y-49908800I-75000J0D01*
G01*
X47453800Y-49908800D01*
G75*
G02*
X47378800Y-49833800I0J75000D01*
G01*
X47378800Y-48508800D01*
G75*
G02*
X47453800Y-48433800I75000J0D01*
G01*
G37*
%TD.AperFunction*%
%TO.P,STM32,32*%
%TO.N,Net-(STM32-Pad32)*%
%TA.AperFunction,SMDPad,CuDef*%
G36*
G01*
X46953800Y-48433800D02*
X47103800Y-48433800D01*
G75*
G02*
X47178800Y-48508800I0J-75000D01*
G01*
X47178800Y-49833800D01*
G75*
G02*
X47103800Y-49908800I-75000J0D01*
G01*
X46953800Y-49908800D01*
G75*
G02*
X46878800Y-49833800I0J75000D01*
G01*
X46878800Y-48508800D01*
G75*
G02*
X46953800Y-48433800I75000J0D01*
G01*
G37*
%TD.AperFunction*%
%TO.P,STM32,31*%
%TO.N,Net-(STM32-Pad31)*%
%TA.AperFunction,SMDPad,CuDef*%
G36*
G01*
X46453800Y-48433800D02*
X46603800Y-48433800D01*
G75*
G02*
X46678800Y-48508800I0J-75000D01*
G01*
X46678800Y-49833800D01*
G75*
G02*
X46603800Y-49908800I-75000J0D01*
G01*
X46453800Y-49908800D01*
G75*
G02*
X46378800Y-49833800I0J75000D01*
G01*
X46378800Y-48508800D01*
G75*
G02*
X46453800Y-48433800I75000J0D01*
G01*
G37*
%TD.AperFunction*%
%TO.P,STM32,30*%
%TO.N,Net-(STM32-Pad30)*%
%TA.AperFunction,SMDPad,CuDef*%
G36*
G01*
X45953800Y-48433800D02*
X46103800Y-48433800D01*
G75*
G02*
X46178800Y-48508800I0J-75000D01*
G01*
X46178800Y-49833800D01*
G75*
G02*
X46103800Y-49908800I-75000J0D01*
G01*
X45953800Y-49908800D01*
G75*
G02*
X45878800Y-49833800I0J75000D01*
G01*
X45878800Y-48508800D01*
G75*
G02*
X45953800Y-48433800I75000J0D01*
G01*
G37*
%TD.AperFunction*%
%TO.P,STM32,29*%
%TO.N,Net-(STM32-Pad29)*%
%TA.AperFunction,SMDPad,CuDef*%
G36*
G01*
X45453800Y-48433800D02*
X45603800Y-48433800D01*
G75*
G02*
X45678800Y-48508800I0J-75000D01*
G01*
X45678800Y-49833800D01*
G75*
G02*
X45603800Y-49908800I-75000J0D01*
G01*
X45453800Y-49908800D01*
G75*
G02*
X45378800Y-49833800I0J75000D01*
G01*
X45378800Y-48508800D01*
G75*
G02*
X45453800Y-48433800I75000J0D01*
G01*
G37*
%TD.AperFunction*%
%TO.P,STM32,28*%
%TO.N,Net-(STM32-Pad28)*%
%TA.AperFunction,SMDPad,CuDef*%
G36*
G01*
X44953800Y-48433800D02*
X45103800Y-48433800D01*
G75*
G02*
X45178800Y-48508800I0J-75000D01*
G01*
X45178800Y-49833800D01*
G75*
G02*
X45103800Y-49908800I-75000J0D01*
G01*
X44953800Y-49908800D01*
G75*
G02*
X44878800Y-49833800I0J75000D01*
G01*
X44878800Y-48508800D01*
G75*
G02*
X44953800Y-48433800I75000J0D01*
G01*
G37*
%TD.AperFunction*%
%TO.P,STM32,27*%
%TO.N,Net-(STM32-Pad27)*%
%TA.AperFunction,SMDPad,CuDef*%
G36*
G01*
X44453800Y-48433800D02*
X44603800Y-48433800D01*
G75*
G02*
X44678800Y-48508800I0J-75000D01*
G01*
X44678800Y-49833800D01*
G75*
G02*
X44603800Y-49908800I-75000J0D01*
G01*
X44453800Y-49908800D01*
G75*
G02*
X44378800Y-49833800I0J75000D01*
G01*
X44378800Y-48508800D01*
G75*
G02*
X44453800Y-48433800I75000J0D01*
G01*
G37*
%TD.AperFunction*%
%TO.P,STM32,26*%
%TO.N,Net-(STM32-Pad26)*%
%TA.AperFunction,SMDPad,CuDef*%
G36*
G01*
X43953800Y-48433800D02*
X44103800Y-48433800D01*
G75*
G02*
X44178800Y-48508800I0J-75000D01*
G01*
X44178800Y-49833800D01*
G75*
G02*
X44103800Y-49908800I-75000J0D01*
G01*
X43953800Y-49908800D01*
G75*
G02*
X43878800Y-49833800I0J75000D01*
G01*
X43878800Y-48508800D01*
G75*
G02*
X43953800Y-48433800I75000J0D01*
G01*
G37*
%TD.AperFunction*%
%TO.P,STM32,25*%
%TO.N,+3V3*%
%TA.AperFunction,SMDPad,CuDef*%
G36*
G01*
X43453800Y-48433800D02*
X43603800Y-48433800D01*
G75*
G02*
X43678800Y-48508800I0J-75000D01*
G01*
X43678800Y-49833800D01*
G75*
G02*
X43603800Y-49908800I-75000J0D01*
G01*
X43453800Y-49908800D01*
G75*
G02*
X43378800Y-49833800I0J75000D01*
G01*
X43378800Y-48508800D01*
G75*
G02*
X43453800Y-48433800I75000J0D01*
G01*
G37*
%TD.AperFunction*%
%TO.P,STM32,24*%
%TA.AperFunction,SMDPad,CuDef*%
G36*
G01*
X41453800Y-47608800D02*
X42778800Y-47608800D01*
G75*
G02*
X42853800Y-47683800I0J-75000D01*
G01*
X42853800Y-47833800D01*
G75*
G02*
X42778800Y-47908800I-75000J0D01*
G01*
X41453800Y-47908800D01*
G75*
G02*
X41378800Y-47833800I0J75000D01*
G01*
X41378800Y-47683800D01*
G75*
G02*
X41453800Y-47608800I75000J0D01*
G01*
G37*
%TD.AperFunction*%
%TO.P,STM32,23*%
%TO.N,GND*%
%TA.AperFunction,SMDPad,CuDef*%
G36*
G01*
X41453800Y-47108800D02*
X42778800Y-47108800D01*
G75*
G02*
X42853800Y-47183800I0J-75000D01*
G01*
X42853800Y-47333800D01*
G75*
G02*
X42778800Y-47408800I-75000J0D01*
G01*
X41453800Y-47408800D01*
G75*
G02*
X41378800Y-47333800I0J75000D01*
G01*
X41378800Y-47183800D01*
G75*
G02*
X41453800Y-47108800I75000J0D01*
G01*
G37*
%TD.AperFunction*%
%TO.P,STM32,22*%
%TO.N,SDADC-AIN8m*%
%TA.AperFunction,SMDPad,CuDef*%
G36*
G01*
X41453800Y-46608800D02*
X42778800Y-46608800D01*
G75*
G02*
X42853800Y-46683800I0J-75000D01*
G01*
X42853800Y-46833800D01*
G75*
G02*
X42778800Y-46908800I-75000J0D01*
G01*
X41453800Y-46908800D01*
G75*
G02*
X41378800Y-46833800I0J75000D01*
G01*
X41378800Y-46683800D01*
G75*
G02*
X41453800Y-46608800I75000J0D01*
G01*
G37*
%TD.AperFunction*%
%TO.P,STM32,21*%
%TO.N,SDADC1-AIN8p*%
%TA.AperFunction,SMDPad,CuDef*%
G36*
G01*
X41453800Y-46108800D02*
X42778800Y-46108800D01*
G75*
G02*
X42853800Y-46183800I0J-75000D01*
G01*
X42853800Y-46333800D01*
G75*
G02*
X42778800Y-46408800I-75000J0D01*
G01*
X41453800Y-46408800D01*
G75*
G02*
X41378800Y-46333800I0J75000D01*
G01*
X41378800Y-46183800D01*
G75*
G02*
X41453800Y-46108800I75000J0D01*
G01*
G37*
%TD.AperFunction*%
%TO.P,STM32,20*%
%TO.N,Net-(STM32-Pad20)*%
%TA.AperFunction,SMDPad,CuDef*%
G36*
G01*
X41453800Y-45608800D02*
X42778800Y-45608800D01*
G75*
G02*
X42853800Y-45683800I0J-75000D01*
G01*
X42853800Y-45833800D01*
G75*
G02*
X42778800Y-45908800I-75000J0D01*
G01*
X41453800Y-45908800D01*
G75*
G02*
X41378800Y-45833800I0J75000D01*
G01*
X41378800Y-45683800D01*
G75*
G02*
X41453800Y-45608800I75000J0D01*
G01*
G37*
%TD.AperFunction*%
%TO.P,STM32,19*%
%TO.N,Net-(STM32-Pad19)*%
%TA.AperFunction,SMDPad,CuDef*%
G36*
G01*
X41453800Y-45108800D02*
X42778800Y-45108800D01*
G75*
G02*
X42853800Y-45183800I0J-75000D01*
G01*
X42853800Y-45333800D01*
G75*
G02*
X42778800Y-45408800I-75000J0D01*
G01*
X41453800Y-45408800D01*
G75*
G02*
X41378800Y-45333800I0J75000D01*
G01*
X41378800Y-45183800D01*
G75*
G02*
X41453800Y-45108800I75000J0D01*
G01*
G37*
%TD.AperFunction*%
%TO.P,STM32,18*%
%TO.N,SPI1-MOSI*%
%TA.AperFunction,SMDPad,CuDef*%
G36*
G01*
X41453800Y-44608800D02*
X42778800Y-44608800D01*
G75*
G02*
X42853800Y-44683800I0J-75000D01*
G01*
X42853800Y-44833800D01*
G75*
G02*
X42778800Y-44908800I-75000J0D01*
G01*
X41453800Y-44908800D01*
G75*
G02*
X41378800Y-44833800I0J75000D01*
G01*
X41378800Y-44683800D01*
G75*
G02*
X41453800Y-44608800I75000J0D01*
G01*
G37*
%TD.AperFunction*%
%TO.P,STM32,17*%
%TO.N,+3V3*%
%TA.AperFunction,SMDPad,CuDef*%
G36*
G01*
X41453800Y-44108800D02*
X42778800Y-44108800D01*
G75*
G02*
X42853800Y-44183800I0J-75000D01*
G01*
X42853800Y-44333800D01*
G75*
G02*
X42778800Y-44408800I-75000J0D01*
G01*
X41453800Y-44408800D01*
G75*
G02*
X41378800Y-44333800I0J75000D01*
G01*
X41378800Y-44183800D01*
G75*
G02*
X41453800Y-44108800I75000J0D01*
G01*
G37*
%TD.AperFunction*%
%TO.P,STM32,16*%
%TO.N,SPI1-MISO*%
%TA.AperFunction,SMDPad,CuDef*%
G36*
G01*
X41453800Y-43608800D02*
X42778800Y-43608800D01*
G75*
G02*
X42853800Y-43683800I0J-75000D01*
G01*
X42853800Y-43833800D01*
G75*
G02*
X42778800Y-43908800I-75000J0D01*
G01*
X41453800Y-43908800D01*
G75*
G02*
X41378800Y-43833800I0J75000D01*
G01*
X41378800Y-43683800D01*
G75*
G02*
X41453800Y-43608800I75000J0D01*
G01*
G37*
%TD.AperFunction*%
%TO.P,STM32,15*%
%TO.N,SPI1-SCK*%
%TA.AperFunction,SMDPad,CuDef*%
G36*
G01*
X41453800Y-43108800D02*
X42778800Y-43108800D01*
G75*
G02*
X42853800Y-43183800I0J-75000D01*
G01*
X42853800Y-43333800D01*
G75*
G02*
X42778800Y-43408800I-75000J0D01*
G01*
X41453800Y-43408800D01*
G75*
G02*
X41378800Y-43333800I0J75000D01*
G01*
X41378800Y-43183800D01*
G75*
G02*
X41453800Y-43108800I75000J0D01*
G01*
G37*
%TD.AperFunction*%
%TO.P,STM32,14*%
%TO.N,SPI1-IRQ*%
%TA.AperFunction,SMDPad,CuDef*%
G36*
G01*
X41453800Y-42608800D02*
X42778800Y-42608800D01*
G75*
G02*
X42853800Y-42683800I0J-75000D01*
G01*
X42853800Y-42833800D01*
G75*
G02*
X42778800Y-42908800I-75000J0D01*
G01*
X41453800Y-42908800D01*
G75*
G02*
X41378800Y-42833800I0J75000D01*
G01*
X41378800Y-42683800D01*
G75*
G02*
X41453800Y-42608800I75000J0D01*
G01*
G37*
%TD.AperFunction*%
%TO.P,STM32,13*%
%TO.N,SPI1-CSn*%
%TA.AperFunction,SMDPad,CuDef*%
G36*
G01*
X41453800Y-42108800D02*
X42778800Y-42108800D01*
G75*
G02*
X42853800Y-42183800I0J-75000D01*
G01*
X42853800Y-42333800D01*
G75*
G02*
X42778800Y-42408800I-75000J0D01*
G01*
X41453800Y-42408800D01*
G75*
G02*
X41378800Y-42333800I0J75000D01*
G01*
X41378800Y-42183800D01*
G75*
G02*
X41453800Y-42108800I75000J0D01*
G01*
G37*
%TD.AperFunction*%
%TO.P,STM32,12*%
%TO.N,SPI1-CE*%
%TA.AperFunction,SMDPad,CuDef*%
G36*
G01*
X43453800Y-40108800D02*
X43603800Y-40108800D01*
G75*
G02*
X43678800Y-40183800I0J-75000D01*
G01*
X43678800Y-41508800D01*
G75*
G02*
X43603800Y-41583800I-75000J0D01*
G01*
X43453800Y-41583800D01*
G75*
G02*
X43378800Y-41508800I0J75000D01*
G01*
X43378800Y-40183800D01*
G75*
G02*
X43453800Y-40108800I75000J0D01*
G01*
G37*
%TD.AperFunction*%
%TO.P,STM32,11*%
%TO.N,Net-(STM32-Pad11)*%
%TA.AperFunction,SMDPad,CuDef*%
G36*
G01*
X43953800Y-40108800D02*
X44103800Y-40108800D01*
G75*
G02*
X44178800Y-40183800I0J-75000D01*
G01*
X44178800Y-41508800D01*
G75*
G02*
X44103800Y-41583800I-75000J0D01*
G01*
X43953800Y-41583800D01*
G75*
G02*
X43878800Y-41508800I0J75000D01*
G01*
X43878800Y-40183800D01*
G75*
G02*
X43953800Y-40108800I75000J0D01*
G01*
G37*
%TD.AperFunction*%
%TO.P,STM32,10*%
%TO.N,Net-(STM32-Pad10)*%
%TA.AperFunction,SMDPad,CuDef*%
G36*
G01*
X44453800Y-40108800D02*
X44603800Y-40108800D01*
G75*
G02*
X44678800Y-40183800I0J-75000D01*
G01*
X44678800Y-41508800D01*
G75*
G02*
X44603800Y-41583800I-75000J0D01*
G01*
X44453800Y-41583800D01*
G75*
G02*
X44378800Y-41508800I0J75000D01*
G01*
X44378800Y-40183800D01*
G75*
G02*
X44453800Y-40108800I75000J0D01*
G01*
G37*
%TD.AperFunction*%
%TO.P,STM32,9*%
%TO.N,+3V3*%
%TA.AperFunction,SMDPad,CuDef*%
G36*
G01*
X44953800Y-40108800D02*
X45103800Y-40108800D01*
G75*
G02*
X45178800Y-40183800I0J-75000D01*
G01*
X45178800Y-41508800D01*
G75*
G02*
X45103800Y-41583800I-75000J0D01*
G01*
X44953800Y-41583800D01*
G75*
G02*
X44878800Y-41508800I0J75000D01*
G01*
X44878800Y-40183800D01*
G75*
G02*
X44953800Y-40108800I75000J0D01*
G01*
G37*
%TD.AperFunction*%
%TO.P,STM32,8*%
%TO.N,GND*%
%TA.AperFunction,SMDPad,CuDef*%
G36*
G01*
X45453800Y-40108800D02*
X45603800Y-40108800D01*
G75*
G02*
X45678800Y-40183800I0J-75000D01*
G01*
X45678800Y-41508800D01*
G75*
G02*
X45603800Y-41583800I-75000J0D01*
G01*
X45453800Y-41583800D01*
G75*
G02*
X45378800Y-41508800I0J75000D01*
G01*
X45378800Y-40183800D01*
G75*
G02*
X45453800Y-40108800I75000J0D01*
G01*
G37*
%TD.AperFunction*%
%TO.P,STM32,7*%
%TO.N,Net-(R5-Pad2)*%
%TA.AperFunction,SMDPad,CuDef*%
G36*
G01*
X45953800Y-40108800D02*
X46103800Y-40108800D01*
G75*
G02*
X46178800Y-40183800I0J-75000D01*
G01*
X46178800Y-41508800D01*
G75*
G02*
X46103800Y-41583800I-75000J0D01*
G01*
X45953800Y-41583800D01*
G75*
G02*
X45878800Y-41508800I0J75000D01*
G01*
X45878800Y-40183800D01*
G75*
G02*
X45953800Y-40108800I75000J0D01*
G01*
G37*
%TD.AperFunction*%
%TO.P,STM32,6*%
%TO.N,Net-(STM32-Pad6)*%
%TA.AperFunction,SMDPad,CuDef*%
G36*
G01*
X46453800Y-40108800D02*
X46603800Y-40108800D01*
G75*
G02*
X46678800Y-40183800I0J-75000D01*
G01*
X46678800Y-41508800D01*
G75*
G02*
X46603800Y-41583800I-75000J0D01*
G01*
X46453800Y-41583800D01*
G75*
G02*
X46378800Y-41508800I0J75000D01*
G01*
X46378800Y-40183800D01*
G75*
G02*
X46453800Y-40108800I75000J0D01*
G01*
G37*
%TD.AperFunction*%
%TO.P,STM32,5*%
%TO.N,Net-(STM32-Pad5)*%
%TA.AperFunction,SMDPad,CuDef*%
G36*
G01*
X46953800Y-40108800D02*
X47103800Y-40108800D01*
G75*
G02*
X47178800Y-40183800I0J-75000D01*
G01*
X47178800Y-41508800D01*
G75*
G02*
X47103800Y-41583800I-75000J0D01*
G01*
X46953800Y-41583800D01*
G75*
G02*
X46878800Y-41508800I0J75000D01*
G01*
X46878800Y-40183800D01*
G75*
G02*
X46953800Y-40108800I75000J0D01*
G01*
G37*
%TD.AperFunction*%
%TO.P,STM32,4*%
%TO.N,Net-(STM32-Pad4)*%
%TA.AperFunction,SMDPad,CuDef*%
G36*
G01*
X47453800Y-40108800D02*
X47603800Y-40108800D01*
G75*
G02*
X47678800Y-40183800I0J-75000D01*
G01*
X47678800Y-41508800D01*
G75*
G02*
X47603800Y-41583800I-75000J0D01*
G01*
X47453800Y-41583800D01*
G75*
G02*
X47378800Y-41508800I0J75000D01*
G01*
X47378800Y-40183800D01*
G75*
G02*
X47453800Y-40108800I75000J0D01*
G01*
G37*
%TD.AperFunction*%
%TO.P,STM32,3*%
%TO.N,Net-(R2-Pad1)*%
%TA.AperFunction,SMDPad,CuDef*%
G36*
G01*
X47953800Y-40108800D02*
X48103800Y-40108800D01*
G75*
G02*
X48178800Y-40183800I0J-75000D01*
G01*
X48178800Y-41508800D01*
G75*
G02*
X48103800Y-41583800I-75000J0D01*
G01*
X47953800Y-41583800D01*
G75*
G02*
X47878800Y-41508800I0J75000D01*
G01*
X47878800Y-40183800D01*
G75*
G02*
X47953800Y-40108800I75000J0D01*
G01*
G37*
%TD.AperFunction*%
%TO.P,STM32,2*%
%TO.N,Net-(R1-Pad1)*%
%TA.AperFunction,SMDPad,CuDef*%
G36*
G01*
X48453800Y-40108800D02*
X48603800Y-40108800D01*
G75*
G02*
X48678800Y-40183800I0J-75000D01*
G01*
X48678800Y-41508800D01*
G75*
G02*
X48603800Y-41583800I-75000J0D01*
G01*
X48453800Y-41583800D01*
G75*
G02*
X48378800Y-41508800I0J75000D01*
G01*
X48378800Y-40183800D01*
G75*
G02*
X48453800Y-40108800I75000J0D01*
G01*
G37*
%TD.AperFunction*%
%TO.P,STM32,1*%
%TO.N,+3V3*%
%TA.AperFunction,SMDPad,CuDef*%
G36*
G01*
X48953800Y-40108800D02*
X49103800Y-40108800D01*
G75*
G02*
X49178800Y-40183800I0J-75000D01*
G01*
X49178800Y-41508800D01*
G75*
G02*
X49103800Y-41583800I-75000J0D01*
G01*
X48953800Y-41583800D01*
G75*
G02*
X48878800Y-41508800I0J75000D01*
G01*
X48878800Y-40183800D01*
G75*
G02*
X48953800Y-40108800I75000J0D01*
G01*
G37*
%TD.AperFunction*%
%TD*%
D11*
%TO.P,SWD1,4*%
%TO.N,PA13-SWDIO*%
X51816000Y-49987200D03*
%TO.P,SWD1,3*%
%TO.N,GND*%
X54356000Y-49987200D03*
%TO.P,SWD1,2*%
%TO.N,PA14-SWCLK*%
X56896000Y-49987200D03*
D12*
%TO.P,SWD1,1*%
%TO.N,+3V3*%
X59436000Y-49987200D03*
%TD*%
D13*
%TO.P,SG4,2*%
%TO.N,GND*%
X24282400Y-41910000D03*
D14*
%TO.P,SG4,1*%
%TO.N,SDADC1-AIN8p*%
X29362400Y-41910000D03*
%TD*%
D13*
%TO.P,SG3,2*%
%TO.N,SDADC1-AIN8p*%
X29362400Y-39776400D03*
D14*
%TO.P,SG3,1*%
%TO.N,+3V3*%
X24282400Y-39776400D03*
%TD*%
D13*
%TO.P,SG2,2*%
%TO.N,GND*%
X24282400Y-44069000D03*
D14*
%TO.P,SG2,1*%
%TO.N,SDADC-AIN8m*%
X29362400Y-44069000D03*
%TD*%
D13*
%TO.P,SG1,2*%
%TO.N,SDADC-AIN8m*%
X29362400Y-46202600D03*
D14*
%TO.P,SG1,1*%
%TO.N,+3V3*%
X24282400Y-46202600D03*
%TD*%
%TO.P,R6,2*%
%TO.N,SPI1-IRQ*%
%TA.AperFunction,SMDPad,CuDef*%
G36*
G01*
X28544000Y-48751500D02*
X28544000Y-48276500D01*
G75*
G02*
X28781500Y-48039000I237500J0D01*
G01*
X29356500Y-48039000D01*
G75*
G02*
X29594000Y-48276500I0J-237500D01*
G01*
X29594000Y-48751500D01*
G75*
G02*
X29356500Y-48989000I-237500J0D01*
G01*
X28781500Y-48989000D01*
G75*
G02*
X28544000Y-48751500I0J237500D01*
G01*
G37*
%TD.AperFunction*%
%TO.P,R6,1*%
%TO.N,GND*%
%TA.AperFunction,SMDPad,CuDef*%
G36*
G01*
X26794000Y-48751500D02*
X26794000Y-48276500D01*
G75*
G02*
X27031500Y-48039000I237500J0D01*
G01*
X27606500Y-48039000D01*
G75*
G02*
X27844000Y-48276500I0J-237500D01*
G01*
X27844000Y-48751500D01*
G75*
G02*
X27606500Y-48989000I-237500J0D01*
G01*
X27031500Y-48989000D01*
G75*
G02*
X26794000Y-48751500I0J237500D01*
G01*
G37*
%TD.AperFunction*%
%TD*%
%TO.P,R5,2*%
%TO.N,Net-(R5-Pad2)*%
%TA.AperFunction,SMDPad,CuDef*%
G36*
G01*
X51669200Y-37862500D02*
X51669200Y-38337500D01*
G75*
G02*
X51431700Y-38575000I-237500J0D01*
G01*
X50856700Y-38575000D01*
G75*
G02*
X50619200Y-38337500I0J237500D01*
G01*
X50619200Y-37862500D01*
G75*
G02*
X50856700Y-37625000I237500J0D01*
G01*
X51431700Y-37625000D01*
G75*
G02*
X51669200Y-37862500I0J-237500D01*
G01*
G37*
%TD.AperFunction*%
%TO.P,R5,1*%
%TO.N,+3V3*%
%TA.AperFunction,SMDPad,CuDef*%
G36*
G01*
X53419200Y-37862500D02*
X53419200Y-38337500D01*
G75*
G02*
X53181700Y-38575000I-237500J0D01*
G01*
X52606700Y-38575000D01*
G75*
G02*
X52369200Y-38337500I0J237500D01*
G01*
X52369200Y-37862500D01*
G75*
G02*
X52606700Y-37625000I237500J0D01*
G01*
X53181700Y-37625000D01*
G75*
G02*
X53419200Y-37862500I0J-237500D01*
G01*
G37*
%TD.AperFunction*%
%TD*%
%TO.P,R4,2*%
%TO.N,GND*%
%TA.AperFunction,SMDPad,CuDef*%
G36*
G01*
X53994800Y-46821100D02*
X53994800Y-46346100D01*
G75*
G02*
X54232300Y-46108600I237500J0D01*
G01*
X54807300Y-46108600D01*
G75*
G02*
X55044800Y-46346100I0J-237500D01*
G01*
X55044800Y-46821100D01*
G75*
G02*
X54807300Y-47058600I-237500J0D01*
G01*
X54232300Y-47058600D01*
G75*
G02*
X53994800Y-46821100I0J237500D01*
G01*
G37*
%TD.AperFunction*%
%TO.P,R4,1*%
%TO.N,Net-(R4-Pad1)*%
%TA.AperFunction,SMDPad,CuDef*%
G36*
G01*
X52244800Y-46821100D02*
X52244800Y-46346100D01*
G75*
G02*
X52482300Y-46108600I237500J0D01*
G01*
X53057300Y-46108600D01*
G75*
G02*
X53294800Y-46346100I0J-237500D01*
G01*
X53294800Y-46821100D01*
G75*
G02*
X53057300Y-47058600I-237500J0D01*
G01*
X52482300Y-47058600D01*
G75*
G02*
X52244800Y-46821100I0J237500D01*
G01*
G37*
%TD.AperFunction*%
%TD*%
%TO.P,R2,2*%
%TO.N,Net-(LED2-Pad2)*%
%TA.AperFunction,SMDPad,CuDef*%
G36*
G01*
X56484000Y-38794700D02*
X56484000Y-38319700D01*
G75*
G02*
X56721500Y-38082200I237500J0D01*
G01*
X57296500Y-38082200D01*
G75*
G02*
X57534000Y-38319700I0J-237500D01*
G01*
X57534000Y-38794700D01*
G75*
G02*
X57296500Y-39032200I-237500J0D01*
G01*
X56721500Y-39032200D01*
G75*
G02*
X56484000Y-38794700I0J237500D01*
G01*
G37*
%TD.AperFunction*%
%TO.P,R2,1*%
%TO.N,Net-(R2-Pad1)*%
%TA.AperFunction,SMDPad,CuDef*%
G36*
G01*
X54734000Y-38794700D02*
X54734000Y-38319700D01*
G75*
G02*
X54971500Y-38082200I237500J0D01*
G01*
X55546500Y-38082200D01*
G75*
G02*
X55784000Y-38319700I0J-237500D01*
G01*
X55784000Y-38794700D01*
G75*
G02*
X55546500Y-39032200I-237500J0D01*
G01*
X54971500Y-39032200D01*
G75*
G02*
X54734000Y-38794700I0J237500D01*
G01*
G37*
%TD.AperFunction*%
%TD*%
%TO.P,R1,2*%
%TO.N,Net-(LED1-Pad2)*%
%TA.AperFunction,SMDPad,CuDef*%
G36*
G01*
X56433200Y-40623500D02*
X56433200Y-40148500D01*
G75*
G02*
X56670700Y-39911000I237500J0D01*
G01*
X57245700Y-39911000D01*
G75*
G02*
X57483200Y-40148500I0J-237500D01*
G01*
X57483200Y-40623500D01*
G75*
G02*
X57245700Y-40861000I-237500J0D01*
G01*
X56670700Y-40861000D01*
G75*
G02*
X56433200Y-40623500I0J237500D01*
G01*
G37*
%TD.AperFunction*%
%TO.P,R1,1*%
%TO.N,Net-(R1-Pad1)*%
%TA.AperFunction,SMDPad,CuDef*%
G36*
G01*
X54683200Y-40623500D02*
X54683200Y-40148500D01*
G75*
G02*
X54920700Y-39911000I237500J0D01*
G01*
X55495700Y-39911000D01*
G75*
G02*
X55733200Y-40148500I0J-237500D01*
G01*
X55733200Y-40623500D01*
G75*
G02*
X55495700Y-40861000I-237500J0D01*
G01*
X54920700Y-40861000D01*
G75*
G02*
X54683200Y-40623500I0J237500D01*
G01*
G37*
%TD.AperFunction*%
%TD*%
%TO.P,F1,2*%
%TO.N,Net-(B+1-Pad2)*%
%TA.AperFunction,SMDPad,CuDef*%
G36*
G01*
X66611800Y-47208600D02*
X66611800Y-45958600D01*
G75*
G02*
X66861800Y-45708600I250000J0D01*
G01*
X67786800Y-45708600D01*
G75*
G02*
X68036800Y-45958600I0J-250000D01*
G01*
X68036800Y-47208600D01*
G75*
G02*
X67786800Y-47458600I-250000J0D01*
G01*
X66861800Y-47458600D01*
G75*
G02*
X66611800Y-47208600I0J250000D01*
G01*
G37*
%TD.AperFunction*%
%TO.P,F1,1*%
%TO.N,Net-(D1-Pad2)*%
%TA.AperFunction,SMDPad,CuDef*%
G36*
G01*
X63636800Y-47208600D02*
X63636800Y-45958600D01*
G75*
G02*
X63886800Y-45708600I250000J0D01*
G01*
X64811800Y-45708600D01*
G75*
G02*
X65061800Y-45958600I0J-250000D01*
G01*
X65061800Y-47208600D01*
G75*
G02*
X64811800Y-47458600I-250000J0D01*
G01*
X63886800Y-47458600D01*
G75*
G02*
X63636800Y-47208600I0J250000D01*
G01*
G37*
%TD.AperFunction*%
%TD*%
%TO.P,LED2,2*%
%TO.N,Net-(LED2-Pad2)*%
%TA.AperFunction,SMDPad,CuDef*%
G36*
G01*
X60235800Y-38135400D02*
X60235800Y-39385400D01*
G75*
G02*
X59985800Y-39635400I-250000J0D01*
G01*
X59060800Y-39635400D01*
G75*
G02*
X58810800Y-39385400I0J250000D01*
G01*
X58810800Y-38135400D01*
G75*
G02*
X59060800Y-37885400I250000J0D01*
G01*
X59985800Y-37885400D01*
G75*
G02*
X60235800Y-38135400I0J-250000D01*
G01*
G37*
%TD.AperFunction*%
%TO.P,LED2,1*%
%TO.N,GND*%
%TA.AperFunction,SMDPad,CuDef*%
G36*
G01*
X63210800Y-38135400D02*
X63210800Y-39385400D01*
G75*
G02*
X62960800Y-39635400I-250000J0D01*
G01*
X62035800Y-39635400D01*
G75*
G02*
X61785800Y-39385400I0J250000D01*
G01*
X61785800Y-38135400D01*
G75*
G02*
X62035800Y-37885400I250000J0D01*
G01*
X62960800Y-37885400D01*
G75*
G02*
X63210800Y-38135400I0J-250000D01*
G01*
G37*
%TD.AperFunction*%
%TD*%
%TO.P,LED1,2*%
%TO.N,Net-(LED1-Pad2)*%
%TA.AperFunction,SMDPad,CuDef*%
G36*
G01*
X60235800Y-40421400D02*
X60235800Y-41671400D01*
G75*
G02*
X59985800Y-41921400I-250000J0D01*
G01*
X59060800Y-41921400D01*
G75*
G02*
X58810800Y-41671400I0J250000D01*
G01*
X58810800Y-40421400D01*
G75*
G02*
X59060800Y-40171400I250000J0D01*
G01*
X59985800Y-40171400D01*
G75*
G02*
X60235800Y-40421400I0J-250000D01*
G01*
G37*
%TD.AperFunction*%
%TO.P,LED1,1*%
%TO.N,GND*%
%TA.AperFunction,SMDPad,CuDef*%
G36*
G01*
X63210800Y-40421400D02*
X63210800Y-41671400D01*
G75*
G02*
X62960800Y-41921400I-250000J0D01*
G01*
X62035800Y-41921400D01*
G75*
G02*
X61785800Y-41671400I0J250000D01*
G01*
X61785800Y-40421400D01*
G75*
G02*
X62035800Y-40171400I250000J0D01*
G01*
X62960800Y-40171400D01*
G75*
G02*
X63210800Y-40421400I0J-250000D01*
G01*
G37*
%TD.AperFunction*%
%TD*%
D15*
%TO.P,D1,2*%
%TO.N,Net-(D1-Pad2)*%
X67490800Y-43942000D03*
%TO.P,D1,1*%
%TO.N,Net-(3v3reg1-Pad1)*%
X64690800Y-43942000D03*
%TD*%
%TO.P,C7,2*%
%TO.N,GND*%
%TA.AperFunction,SMDPad,CuDef*%
G36*
G01*
X58488600Y-44406400D02*
X57538600Y-44406400D01*
G75*
G02*
X57288600Y-44156400I0J250000D01*
G01*
X57288600Y-43481400D01*
G75*
G02*
X57538600Y-43231400I250000J0D01*
G01*
X58488600Y-43231400D01*
G75*
G02*
X58738600Y-43481400I0J-250000D01*
G01*
X58738600Y-44156400D01*
G75*
G02*
X58488600Y-44406400I-250000J0D01*
G01*
G37*
%TD.AperFunction*%
%TO.P,C7,1*%
%TO.N,+3V3*%
%TA.AperFunction,SMDPad,CuDef*%
G36*
G01*
X58488600Y-46481400D02*
X57538600Y-46481400D01*
G75*
G02*
X57288600Y-46231400I0J250000D01*
G01*
X57288600Y-45556400D01*
G75*
G02*
X57538600Y-45306400I250000J0D01*
G01*
X58488600Y-45306400D01*
G75*
G02*
X58738600Y-45556400I0J-250000D01*
G01*
X58738600Y-46231400D01*
G75*
G02*
X58488600Y-46481400I-250000J0D01*
G01*
G37*
%TD.AperFunction*%
%TD*%
%TO.P,C6,2*%
%TO.N,GND*%
%TA.AperFunction,SMDPad,CuDef*%
G36*
G01*
X67277000Y-40088400D02*
X66327000Y-40088400D01*
G75*
G02*
X66077000Y-39838400I0J250000D01*
G01*
X66077000Y-39163400D01*
G75*
G02*
X66327000Y-38913400I250000J0D01*
G01*
X67277000Y-38913400D01*
G75*
G02*
X67527000Y-39163400I0J-250000D01*
G01*
X67527000Y-39838400D01*
G75*
G02*
X67277000Y-40088400I-250000J0D01*
G01*
G37*
%TD.AperFunction*%
%TO.P,C6,1*%
%TO.N,Net-(3v3reg1-Pad1)*%
%TA.AperFunction,SMDPad,CuDef*%
G36*
G01*
X67277000Y-42163400D02*
X66327000Y-42163400D01*
G75*
G02*
X66077000Y-41913400I0J250000D01*
G01*
X66077000Y-41238400D01*
G75*
G02*
X66327000Y-40988400I250000J0D01*
G01*
X67277000Y-40988400D01*
G75*
G02*
X67527000Y-41238400I0J-250000D01*
G01*
X67527000Y-41913400D01*
G75*
G02*
X67277000Y-42163400I-250000J0D01*
G01*
G37*
%TD.AperFunction*%
%TD*%
%TO.P,C4,2*%
%TO.N,GND*%
%TA.AperFunction,SMDPad,CuDef*%
G36*
G01*
X40200600Y-46743200D02*
X39250600Y-46743200D01*
G75*
G02*
X39000600Y-46493200I0J250000D01*
G01*
X39000600Y-45818200D01*
G75*
G02*
X39250600Y-45568200I250000J0D01*
G01*
X40200600Y-45568200D01*
G75*
G02*
X40450600Y-45818200I0J-250000D01*
G01*
X40450600Y-46493200D01*
G75*
G02*
X40200600Y-46743200I-250000J0D01*
G01*
G37*
%TD.AperFunction*%
%TO.P,C4,1*%
%TO.N,+3V3*%
%TA.AperFunction,SMDPad,CuDef*%
G36*
G01*
X40200600Y-48818200D02*
X39250600Y-48818200D01*
G75*
G02*
X39000600Y-48568200I0J250000D01*
G01*
X39000600Y-47893200D01*
G75*
G02*
X39250600Y-47643200I250000J0D01*
G01*
X40200600Y-47643200D01*
G75*
G02*
X40450600Y-47893200I0J-250000D01*
G01*
X40450600Y-48568200D01*
G75*
G02*
X40200600Y-48818200I-250000J0D01*
G01*
G37*
%TD.AperFunction*%
%TD*%
%TO.P,C3,2*%
%TO.N,GND*%
%TA.AperFunction,SMDPad,CuDef*%
G36*
G01*
X40748800Y-50172600D02*
X40748800Y-51122600D01*
G75*
G02*
X40498800Y-51372600I-250000J0D01*
G01*
X39823800Y-51372600D01*
G75*
G02*
X39573800Y-51122600I0J250000D01*
G01*
X39573800Y-50172600D01*
G75*
G02*
X39823800Y-49922600I250000J0D01*
G01*
X40498800Y-49922600D01*
G75*
G02*
X40748800Y-50172600I0J-250000D01*
G01*
G37*
%TD.AperFunction*%
%TO.P,C3,1*%
%TO.N,+3V3*%
%TA.AperFunction,SMDPad,CuDef*%
G36*
G01*
X42823800Y-50172600D02*
X42823800Y-51122600D01*
G75*
G02*
X42573800Y-51372600I-250000J0D01*
G01*
X41898800Y-51372600D01*
G75*
G02*
X41648800Y-51122600I0J250000D01*
G01*
X41648800Y-50172600D01*
G75*
G02*
X41898800Y-49922600I250000J0D01*
G01*
X42573800Y-49922600D01*
G75*
G02*
X42823800Y-50172600I0J-250000D01*
G01*
G37*
%TD.AperFunction*%
%TD*%
%TO.P,C2,2*%
%TO.N,GND*%
%TA.AperFunction,SMDPad,CuDef*%
G36*
G01*
X45103200Y-38829000D02*
X45103200Y-37879000D01*
G75*
G02*
X45353200Y-37629000I250000J0D01*
G01*
X46028200Y-37629000D01*
G75*
G02*
X46278200Y-37879000I0J-250000D01*
G01*
X46278200Y-38829000D01*
G75*
G02*
X46028200Y-39079000I-250000J0D01*
G01*
X45353200Y-39079000D01*
G75*
G02*
X45103200Y-38829000I0J250000D01*
G01*
G37*
%TD.AperFunction*%
%TO.P,C2,1*%
%TO.N,+3V3*%
%TA.AperFunction,SMDPad,CuDef*%
G36*
G01*
X43028200Y-38829000D02*
X43028200Y-37879000D01*
G75*
G02*
X43278200Y-37629000I250000J0D01*
G01*
X43953200Y-37629000D01*
G75*
G02*
X44203200Y-37879000I0J-250000D01*
G01*
X44203200Y-38829000D01*
G75*
G02*
X43953200Y-39079000I-250000J0D01*
G01*
X43278200Y-39079000D01*
G75*
G02*
X43028200Y-38829000I0J250000D01*
G01*
G37*
%TD.AperFunction*%
%TD*%
%TO.P,C1,2*%
%TO.N,GND*%
%TA.AperFunction,SMDPad,CuDef*%
G36*
G01*
X52458600Y-43579200D02*
X53408600Y-43579200D01*
G75*
G02*
X53658600Y-43829200I0J-250000D01*
G01*
X53658600Y-44504200D01*
G75*
G02*
X53408600Y-44754200I-250000J0D01*
G01*
X52458600Y-44754200D01*
G75*
G02*
X52208600Y-44504200I0J250000D01*
G01*
X52208600Y-43829200D01*
G75*
G02*
X52458600Y-43579200I250000J0D01*
G01*
G37*
%TD.AperFunction*%
%TO.P,C1,1*%
%TO.N,+3V3*%
%TA.AperFunction,SMDPad,CuDef*%
G36*
G01*
X52458600Y-41504200D02*
X53408600Y-41504200D01*
G75*
G02*
X53658600Y-41754200I0J-250000D01*
G01*
X53658600Y-42429200D01*
G75*
G02*
X53408600Y-42679200I-250000J0D01*
G01*
X52458600Y-42679200D01*
G75*
G02*
X52208600Y-42429200I0J250000D01*
G01*
X52208600Y-41754200D01*
G75*
G02*
X52458600Y-41504200I250000J0D01*
G01*
G37*
%TD.AperFunction*%
%TD*%
D11*
%TO.P,B+1,2*%
%TO.N,Net-(B+1-Pad2)*%
X66446400Y-49936400D03*
D12*
%TO.P,B+1,1*%
%TO.N,GND*%
X63906400Y-49936400D03*
%TD*%
D16*
%TO.P,3v3reg1,5*%
%TO.N,+3V3*%
X60012400Y-45908000D03*
%TO.P,3v3reg1,4*%
%TO.N,Net-(3v3reg1-Pad4)*%
X60012400Y-44008000D03*
%TO.P,3v3reg1,3*%
%TO.N,Net-(3v3reg1-Pad1)*%
X62212400Y-44008000D03*
%TO.P,3v3reg1,2*%
%TO.N,GND*%
X62212400Y-44958000D03*
%TO.P,3v3reg1,1*%
%TO.N,Net-(3v3reg1-Pad1)*%
X62212400Y-45908000D03*
%TD*%
D17*
%TO.N,SDADC1-AIN8p*%
X44500800Y-45923200D03*
%TO.N,SPI1-IRQ*%
X43789600Y-42367200D03*
%TO.N,SPI1-MISO*%
X43789600Y-43383200D03*
%TO.N,SPI1-CE*%
X42164000Y-41097200D03*
%TO.N,SDADC-AIN8m*%
X43586400Y-46786800D03*
%TO.N,GND*%
X26009600Y-48514000D03*
X63906400Y-39928800D03*
X38963600Y-50800000D03*
X55778400Y-46634400D03*
X54356000Y-44166700D03*
X56612700Y-43818900D03*
X61010800Y-44907200D03*
X66802000Y-37998400D03*
X38150800Y-46177200D03*
X47091600Y-38709600D03*
%TD*%
D18*
%TO.N,PA14-SWCLK*%
X54667600Y-47758800D02*
X56896000Y-49987200D01*
X50441300Y-47758800D02*
X54667600Y-47758800D01*
%TO.N,PA13-SWDIO*%
X48053790Y-49171390D02*
X48053790Y-49999492D01*
X48053700Y-49171300D02*
X48053790Y-49171390D01*
X48053790Y-49999492D02*
X48600298Y-50546000D01*
X48028800Y-49171300D02*
X48053700Y-49171300D01*
X51257200Y-50546000D02*
X51816000Y-49987200D01*
X48600298Y-50546000D02*
X51257200Y-50546000D01*
%TO.N,Net-(D1-Pad2)*%
X64349300Y-46583600D02*
X64349300Y-46039100D01*
D19*
X64349300Y-46583600D02*
X64349300Y-46394700D01*
X64349300Y-46394700D02*
X65481200Y-45262800D01*
X66170000Y-45262800D02*
X67490800Y-43942000D01*
X65481200Y-45262800D02*
X66170000Y-45262800D01*
D18*
%TO.N,SDADC1-AIN8p*%
X43041398Y-46258800D02*
X43376998Y-45923200D01*
X43376998Y-45923200D02*
X44500800Y-45923200D01*
X42116300Y-46258800D02*
X43041398Y-46258800D01*
%TO.N,SPI1-IRQ*%
X42250800Y-42758800D02*
X42275790Y-42783790D01*
X42116300Y-42758800D02*
X42250800Y-42758800D01*
X43398000Y-42758800D02*
X43789600Y-42367200D01*
X42116300Y-42758800D02*
X43398000Y-42758800D01*
X34798000Y-46583600D02*
X34798000Y-47904400D01*
X34188400Y-48514000D02*
X29069000Y-48514000D01*
X34798000Y-47904400D02*
X34188400Y-48514000D01*
%TO.N,SPI1-MOSI*%
X35462400Y-44758800D02*
X42116300Y-44758800D01*
X34848800Y-44145200D02*
X35462400Y-44758800D01*
%TO.N,SPI1-CSn*%
X34848800Y-41605200D02*
X40030400Y-41605200D01*
X41313098Y-42258800D02*
X42116300Y-42258800D01*
X40741600Y-42316400D02*
X41255498Y-42316400D01*
X41255498Y-42316400D02*
X41313098Y-42258800D01*
X40030400Y-41605200D02*
X40741600Y-42316400D01*
%TO.N,SPI1-MISO*%
X42133200Y-43758800D02*
X42158190Y-43783790D01*
X42116300Y-43758800D02*
X42133200Y-43758800D01*
X43414000Y-43758800D02*
X43789600Y-43383200D01*
X42116300Y-43758800D02*
X43414000Y-43758800D01*
%TO.N,SPI1-SCK*%
X33629600Y-42824400D02*
X33483801Y-42970199D01*
X33483801Y-42970199D02*
X32308800Y-44145200D01*
X37185600Y-42824400D02*
X33629600Y-42824400D01*
X37620000Y-43258800D02*
X37185600Y-42824400D01*
X42116300Y-43258800D02*
X37620000Y-43258800D01*
%TO.N,SPI1-CE*%
X43528800Y-40846300D02*
X43528800Y-40633200D01*
X42414900Y-40846300D02*
X42164000Y-41097200D01*
X43528800Y-40846300D02*
X42414900Y-40846300D01*
%TO.N,SDADC-AIN8m*%
X43558400Y-46758800D02*
X43586400Y-46786800D01*
X42116300Y-46758800D02*
X43558400Y-46758800D01*
%TO.N,Net-(R4-Pad1)*%
X51244502Y-44258800D02*
X51562000Y-44576298D01*
X50441300Y-44258800D02*
X51244502Y-44258800D01*
X51562000Y-45375800D02*
X52769800Y-46583600D01*
X51562000Y-44576298D02*
X51562000Y-45375800D01*
%TO.N,+3V3*%
X52766500Y-42258800D02*
X52933600Y-42091700D01*
X50441300Y-42258800D02*
X52766500Y-42258800D01*
X40197500Y-47758800D02*
X39725600Y-48230700D01*
X42116300Y-47758800D02*
X40197500Y-47758800D01*
X43528800Y-49355100D02*
X42236300Y-50647600D01*
X43528800Y-49171300D02*
X43528800Y-49355100D01*
X43310900Y-38325198D02*
X43310900Y-38100000D01*
X45028800Y-40846300D02*
X45028800Y-40043098D01*
X43615700Y-38629998D02*
X45028800Y-40043098D01*
X43615700Y-38354000D02*
X43615700Y-38629998D01*
X45059600Y-42062400D02*
X45028800Y-42031600D01*
X45028800Y-42031600D02*
X45028800Y-40846300D01*
X45059600Y-43535600D02*
X45059600Y-42062400D01*
X44336400Y-44258800D02*
X45059600Y-43535600D01*
X42116300Y-44258800D02*
X44336400Y-44258800D01*
X49028800Y-40846300D02*
X49028800Y-41866000D01*
X49421600Y-42258800D02*
X50441300Y-42258800D01*
X49028800Y-41866000D02*
X49421600Y-42258800D01*
X42116300Y-47758800D02*
X44087600Y-47758800D01*
X45262800Y-46583600D02*
X45262800Y-45161200D01*
X44087600Y-47758800D02*
X45262800Y-46583600D01*
X44360400Y-44258800D02*
X45262800Y-45161200D01*
X44336400Y-44258800D02*
X44360400Y-44258800D01*
X42116300Y-47758800D02*
X43237600Y-47758800D01*
X43528800Y-48050000D02*
X43528800Y-49171300D01*
X43237600Y-47758800D02*
X43528800Y-48050000D01*
%TO.N,GND*%
X51550690Y-42783790D02*
X52933600Y-44166700D01*
X50454590Y-42783790D02*
X51550690Y-42783790D01*
X50441300Y-42770500D02*
X50454590Y-42783790D01*
X50441300Y-42758800D02*
X50441300Y-42770500D01*
X55981600Y-46583600D02*
X56032400Y-46634400D01*
X40803710Y-47233810D02*
X39725600Y-46155700D01*
X42073410Y-47233810D02*
X40803710Y-47233810D01*
X42098400Y-47258800D02*
X42073410Y-47233810D01*
X42116300Y-47258800D02*
X42098400Y-47258800D01*
X54326700Y-44166700D02*
X54326700Y-44166700D01*
X56612700Y-43818900D02*
X56612700Y-43818900D01*
X45528800Y-38242900D02*
X45385900Y-38100000D01*
X45528800Y-38515900D02*
X45528800Y-40846300D01*
X45690700Y-38354000D02*
X45528800Y-38515900D01*
D19*
X66802000Y-39500900D02*
X66802000Y-37998400D01*
X62738000Y-38760400D02*
X63906400Y-39928800D01*
X62498300Y-38760400D02*
X62738000Y-38760400D01*
X62788800Y-41046400D02*
X63906400Y-39928800D01*
X62498300Y-41046400D02*
X62788800Y-41046400D01*
X52933600Y-44166700D02*
X54356000Y-44166700D01*
X56612700Y-43818900D02*
X58013600Y-43818900D01*
X55727600Y-46583600D02*
X55778400Y-46634400D01*
X54519800Y-46583600D02*
X55727600Y-46583600D01*
X61061600Y-44958000D02*
X61010800Y-44907200D01*
X62212400Y-44958000D02*
X61061600Y-44958000D01*
X39116000Y-50647600D02*
X38963600Y-50800000D01*
X40161300Y-50647600D02*
X39116000Y-50647600D01*
X46736000Y-38354000D02*
X47091600Y-38709600D01*
X45690700Y-38354000D02*
X46736000Y-38354000D01*
X39725600Y-46155700D02*
X39340700Y-46155700D01*
X38172300Y-46155700D02*
X38150800Y-46177200D01*
X39725600Y-46155700D02*
X38172300Y-46155700D01*
X26009600Y-48514000D02*
X27319000Y-48514000D01*
D18*
%TO.N,Net-(R1-Pad1)*%
X48528800Y-40043098D02*
X48528800Y-40846300D01*
X48947898Y-39624000D02*
X48528800Y-40043098D01*
X54446200Y-39624000D02*
X55208200Y-40386000D01*
X48947898Y-39624000D02*
X54446200Y-39624000D01*
%TO.N,Net-(R2-Pad1)*%
X54642210Y-39173990D02*
X55259000Y-38557200D01*
X48761498Y-39173990D02*
X54642210Y-39173990D01*
X48028800Y-39906688D02*
X48761498Y-39173990D01*
X48028800Y-40846300D02*
X48028800Y-39906688D01*
%TO.N,Net-(LED1-Pad2)*%
X58862900Y-40386000D02*
X59523300Y-41046400D01*
X56958200Y-40386000D02*
X58862900Y-40386000D01*
%TO.N,Net-(LED2-Pad2)*%
X58913700Y-38150800D02*
X59523300Y-38760400D01*
X57212200Y-38760400D02*
X57009000Y-38557200D01*
X59523300Y-38760400D02*
X57212200Y-38760400D01*
%TO.N,Net-(3v3reg1-Pad1)*%
X62278400Y-43942000D02*
X62212400Y-44008000D01*
X64690800Y-43942000D02*
X64465200Y-43942000D01*
D19*
X64690800Y-43687100D02*
X66802000Y-41575900D01*
X64690800Y-43942000D02*
X64690800Y-43687100D01*
X64624800Y-44008000D02*
X64690800Y-43942000D01*
X63347600Y-44704000D02*
X64043600Y-44008000D01*
X64043600Y-44008000D02*
X64196000Y-44008000D01*
X63347600Y-45397802D02*
X63347600Y-44704000D01*
X62837402Y-45908000D02*
X63347600Y-45397802D01*
X62212400Y-45908000D02*
X62837402Y-45908000D01*
X64196000Y-44008000D02*
X64624800Y-44008000D01*
X62212400Y-44008000D02*
X64196000Y-44008000D01*
%TO.N,Net-(B+1-Pad2)*%
X66446400Y-49936400D02*
X67411600Y-48971200D01*
X67411600Y-46670900D02*
X67324300Y-46583600D01*
X67411600Y-48971200D02*
X67411600Y-46670900D01*
D18*
%TO.N,Net-(R5-Pad2)*%
X46028800Y-40839200D02*
X46003810Y-40814210D01*
X46028800Y-40846300D02*
X46028800Y-40839200D01*
X50585400Y-38658800D02*
X51144200Y-38100000D01*
X50585400Y-38658800D02*
X48640278Y-38658800D01*
X48640278Y-38658800D02*
X47675078Y-39624000D01*
X46028800Y-40043098D02*
X46028800Y-40846300D01*
X46447898Y-39624000D02*
X46028800Y-40043098D01*
X47675078Y-39624000D02*
X46447898Y-39624000D01*
%TD*%
D20*
%TO.N,+3V3*%
X65594597Y-36994197D02*
X65578803Y-37013443D01*
X65567067Y-37035399D01*
X65559840Y-37059224D01*
X65557400Y-37084000D01*
X65557400Y-38728376D01*
X65506528Y-38823550D01*
X65455992Y-38990146D01*
X65438928Y-39163400D01*
X65438928Y-39838400D01*
X65455992Y-40011654D01*
X65506528Y-40178250D01*
X65557400Y-40273424D01*
X65557400Y-40803376D01*
X65506528Y-40898550D01*
X65455992Y-41065146D01*
X65438928Y-41238400D01*
X65438928Y-41758104D01*
X64515269Y-42681764D01*
X64364380Y-42753928D01*
X64140800Y-42753928D01*
X64016318Y-42766188D01*
X63896620Y-42802498D01*
X63786306Y-42861463D01*
X63689615Y-42940815D01*
X63610263Y-43037506D01*
X63554907Y-43141067D01*
X63488139Y-43173000D01*
X63121918Y-43173000D01*
X63096894Y-43152463D01*
X62986580Y-43093498D01*
X62866882Y-43057188D01*
X62742400Y-43044928D01*
X61682400Y-43044928D01*
X61557918Y-43057188D01*
X61438220Y-43093498D01*
X61378073Y-43125648D01*
X60812481Y-43103894D01*
X60806861Y-43104339D01*
X60786580Y-43093498D01*
X60666882Y-43057188D01*
X60542400Y-43044928D01*
X59482400Y-43044928D01*
X59357918Y-43057188D01*
X59277086Y-43081708D01*
X59227005Y-42988014D01*
X59116562Y-42853438D01*
X58981986Y-42742995D01*
X58828450Y-42660928D01*
X58661854Y-42610392D01*
X58488600Y-42593328D01*
X57538600Y-42593328D01*
X57365346Y-42610392D01*
X57198750Y-42660928D01*
X57045214Y-42742995D01*
X56936069Y-42832568D01*
X56914598Y-42823674D01*
X56714639Y-42783900D01*
X56510761Y-42783900D01*
X56310802Y-42823674D01*
X56122444Y-42901695D01*
X55952926Y-43014963D01*
X55808763Y-43159126D01*
X55695495Y-43328644D01*
X55617474Y-43517002D01*
X55577700Y-43716961D01*
X55577700Y-43920839D01*
X55617474Y-44120798D01*
X55695495Y-44309156D01*
X55808763Y-44478674D01*
X55952926Y-44622837D01*
X56122444Y-44736105D01*
X56310802Y-44814126D01*
X56510761Y-44853900D01*
X56714639Y-44853900D01*
X56878808Y-44821245D01*
X56837415Y-44855215D01*
X56758063Y-44951906D01*
X56699098Y-45062220D01*
X56662788Y-45181918D01*
X56650528Y-45306400D01*
X56653600Y-45608150D01*
X56812350Y-45766900D01*
X57886600Y-45766900D01*
X57886600Y-45746900D01*
X58140600Y-45746900D01*
X58140600Y-45766900D01*
X58992050Y-45766900D01*
X59006150Y-45781000D01*
X59885400Y-45781000D01*
X59885400Y-45761000D01*
X60139400Y-45761000D01*
X60139400Y-45781000D01*
X60159400Y-45781000D01*
X60159400Y-46035000D01*
X60139400Y-46035000D01*
X60139400Y-46709250D01*
X60298150Y-46868000D01*
X60542400Y-46871072D01*
X60666882Y-46858812D01*
X60680600Y-46854651D01*
X60680600Y-47345600D01*
X60683031Y-47370332D01*
X60690250Y-47394159D01*
X61290200Y-48844038D01*
X61290200Y-51410000D01*
X60561427Y-51410000D01*
X60640494Y-51367737D01*
X60737185Y-51288385D01*
X60816537Y-51191694D01*
X60875502Y-51081380D01*
X60911812Y-50961682D01*
X60924072Y-50837200D01*
X60921000Y-50272950D01*
X60762250Y-50114200D01*
X59563000Y-50114200D01*
X59563000Y-50134200D01*
X59309000Y-50134200D01*
X59309000Y-50114200D01*
X59289000Y-50114200D01*
X59289000Y-49860200D01*
X59309000Y-49860200D01*
X59309000Y-48660950D01*
X59563000Y-48660950D01*
X59563000Y-49860200D01*
X60762250Y-49860200D01*
X60921000Y-49701450D01*
X60924072Y-49137200D01*
X60911812Y-49012718D01*
X60875502Y-48893020D01*
X60816537Y-48782706D01*
X60737185Y-48686015D01*
X60640494Y-48606663D01*
X60530180Y-48547698D01*
X60410482Y-48511388D01*
X60286000Y-48499128D01*
X59721750Y-48502200D01*
X59563000Y-48660950D01*
X59309000Y-48660950D01*
X59150250Y-48502200D01*
X58586000Y-48499128D01*
X58461518Y-48511388D01*
X58341820Y-48547698D01*
X58231506Y-48606663D01*
X58134815Y-48686015D01*
X58055463Y-48782706D01*
X57996498Y-48893020D01*
X57974487Y-48965580D01*
X57842632Y-48833725D01*
X57599411Y-48671210D01*
X57329158Y-48559268D01*
X57042260Y-48502200D01*
X56749740Y-48502200D01*
X56529592Y-48545990D01*
X55647176Y-47663575D01*
X55676461Y-47669400D01*
X55880339Y-47669400D01*
X56080298Y-47629626D01*
X56268656Y-47551605D01*
X56438174Y-47438337D01*
X56582337Y-47294174D01*
X56695605Y-47124656D01*
X56773626Y-46936298D01*
X56786665Y-46870746D01*
X56837415Y-46932585D01*
X56934106Y-47011937D01*
X57044420Y-47070902D01*
X57164118Y-47107212D01*
X57288600Y-47119472D01*
X57727850Y-47116400D01*
X57886600Y-46957650D01*
X57886600Y-46020900D01*
X58140600Y-46020900D01*
X58140600Y-46957650D01*
X58299350Y-47116400D01*
X58738600Y-47119472D01*
X58863082Y-47107212D01*
X58982780Y-47070902D01*
X59093094Y-47011937D01*
X59189785Y-46932585D01*
X59269137Y-46835894D01*
X59270983Y-46832441D01*
X59357918Y-46858812D01*
X59482400Y-46871072D01*
X59726650Y-46868000D01*
X59885400Y-46709250D01*
X59885400Y-46035000D01*
X59228950Y-46035000D01*
X59214850Y-46020900D01*
X58140600Y-46020900D01*
X57886600Y-46020900D01*
X56812350Y-46020900D01*
X56693002Y-46140248D01*
X56582337Y-45974626D01*
X56438174Y-45830463D01*
X56268656Y-45717195D01*
X56080298Y-45639174D01*
X55880339Y-45599400D01*
X55676461Y-45599400D01*
X55476502Y-45639174D01*
X55372119Y-45682411D01*
X55293742Y-45618088D01*
X55142367Y-45537177D01*
X54978116Y-45487352D01*
X54807300Y-45470528D01*
X54232300Y-45470528D01*
X54061484Y-45487352D01*
X53897233Y-45537177D01*
X53745858Y-45618088D01*
X53644800Y-45701025D01*
X53543742Y-45618088D01*
X53392367Y-45537177D01*
X53228116Y-45487352D01*
X53057300Y-45470528D01*
X52731530Y-45470528D01*
X52653273Y-45392272D01*
X53408600Y-45392272D01*
X53581854Y-45375208D01*
X53748450Y-45324672D01*
X53901986Y-45242605D01*
X54018343Y-45147114D01*
X54054102Y-45161926D01*
X54254061Y-45201700D01*
X54457939Y-45201700D01*
X54657898Y-45161926D01*
X54846256Y-45083905D01*
X55015774Y-44970637D01*
X55159937Y-44826474D01*
X55273205Y-44656956D01*
X55351226Y-44468598D01*
X55391000Y-44268639D01*
X55391000Y-44064761D01*
X55351226Y-43864802D01*
X55273205Y-43676444D01*
X55159937Y-43506926D01*
X55015774Y-43362763D01*
X54846256Y-43249495D01*
X54657898Y-43171474D01*
X54457939Y-43131700D01*
X54254061Y-43131700D01*
X54061514Y-43170000D01*
X54109785Y-43130385D01*
X54189137Y-43033694D01*
X54248102Y-42923380D01*
X54284412Y-42803682D01*
X54296672Y-42679200D01*
X54293600Y-42377450D01*
X54134850Y-42218700D01*
X53060600Y-42218700D01*
X53060600Y-42238700D01*
X52806600Y-42238700D01*
X52806600Y-42218700D01*
X52786600Y-42218700D01*
X52786600Y-41964700D01*
X52806600Y-41964700D01*
X52806600Y-41027950D01*
X53060600Y-41027950D01*
X53060600Y-41964700D01*
X54134850Y-41964700D01*
X54293600Y-41805950D01*
X54296672Y-41504200D01*
X54284412Y-41379718D01*
X54248102Y-41260020D01*
X54189137Y-41149706D01*
X54109785Y-41053015D01*
X54013094Y-40973663D01*
X53902780Y-40914698D01*
X53783082Y-40878388D01*
X53658600Y-40866128D01*
X53219350Y-40869200D01*
X53060600Y-41027950D01*
X52806600Y-41027950D01*
X52647850Y-40869200D01*
X52208600Y-40866128D01*
X52084118Y-40878388D01*
X51964420Y-40914698D01*
X51854106Y-40973663D01*
X51757415Y-41053015D01*
X51678063Y-41149706D01*
X51619098Y-41260020D01*
X51582788Y-41379718D01*
X51570528Y-41504200D01*
X51571604Y-41609861D01*
X51525271Y-41572989D01*
X51414082Y-41515691D01*
X51293852Y-41481186D01*
X51169200Y-41470800D01*
X50727050Y-41473800D01*
X50568300Y-41632550D01*
X50568300Y-41970728D01*
X50314300Y-41970728D01*
X50314300Y-41632550D01*
X50155550Y-41473800D01*
X49816103Y-41471497D01*
X49813800Y-41132050D01*
X49655050Y-40973300D01*
X49316872Y-40973300D01*
X49316872Y-40719300D01*
X49655050Y-40719300D01*
X49813800Y-40560550D01*
X49814998Y-40384000D01*
X54045128Y-40384000D01*
X54045128Y-40623500D01*
X54061952Y-40794316D01*
X54111777Y-40958567D01*
X54192688Y-41109942D01*
X54301577Y-41242623D01*
X54434258Y-41351512D01*
X54585633Y-41432423D01*
X54749884Y-41482248D01*
X54920700Y-41499072D01*
X55495700Y-41499072D01*
X55666516Y-41482248D01*
X55830767Y-41432423D01*
X55982142Y-41351512D01*
X56083200Y-41268575D01*
X56184258Y-41351512D01*
X56335633Y-41432423D01*
X56499884Y-41482248D01*
X56670700Y-41499072D01*
X57245700Y-41499072D01*
X57416516Y-41482248D01*
X57580767Y-41432423D01*
X57732142Y-41351512D01*
X57864823Y-41242623D01*
X57944120Y-41146000D01*
X58172728Y-41146000D01*
X58172728Y-41671400D01*
X58189792Y-41844654D01*
X58240328Y-42011250D01*
X58322395Y-42164786D01*
X58432838Y-42299362D01*
X58567414Y-42409805D01*
X58720950Y-42491872D01*
X58887546Y-42542408D01*
X59060800Y-42559472D01*
X59985800Y-42559472D01*
X60159054Y-42542408D01*
X60325650Y-42491872D01*
X60479186Y-42409805D01*
X60613762Y-42299362D01*
X60724205Y-42164786D01*
X60806272Y-42011250D01*
X60856808Y-41844654D01*
X60873872Y-41671400D01*
X60873872Y-40421400D01*
X60856808Y-40248146D01*
X60806272Y-40081550D01*
X60724205Y-39928014D01*
X60704005Y-39903400D01*
X60724205Y-39878786D01*
X60806272Y-39725250D01*
X60856808Y-39558654D01*
X60873872Y-39385400D01*
X60873872Y-38135400D01*
X61147728Y-38135400D01*
X61147728Y-39385400D01*
X61164792Y-39558654D01*
X61215328Y-39725250D01*
X61297395Y-39878786D01*
X61317595Y-39903400D01*
X61297395Y-39928014D01*
X61215328Y-40081550D01*
X61164792Y-40248146D01*
X61147728Y-40421400D01*
X61147728Y-41671400D01*
X61164792Y-41844654D01*
X61215328Y-42011250D01*
X61297395Y-42164786D01*
X61407838Y-42299362D01*
X61542414Y-42409805D01*
X61695950Y-42491872D01*
X61862546Y-42542408D01*
X62035800Y-42559472D01*
X62960800Y-42559472D01*
X63134054Y-42542408D01*
X63300650Y-42491872D01*
X63454186Y-42409805D01*
X63588762Y-42299362D01*
X63699205Y-42164786D01*
X63781272Y-42011250D01*
X63831808Y-41844654D01*
X63848872Y-41671400D01*
X63848872Y-41167195D01*
X64063175Y-40952893D01*
X64208298Y-40924026D01*
X64396656Y-40846005D01*
X64566174Y-40732737D01*
X64710337Y-40588574D01*
X64823605Y-40419056D01*
X64901626Y-40230698D01*
X64941400Y-40030739D01*
X64941400Y-39826861D01*
X64901626Y-39626902D01*
X64823605Y-39438544D01*
X64710337Y-39269026D01*
X64566174Y-39124863D01*
X64396656Y-39011595D01*
X64208298Y-38933574D01*
X64063175Y-38904707D01*
X63848872Y-38690405D01*
X63848872Y-38135400D01*
X63831808Y-37962146D01*
X63781272Y-37795550D01*
X63699205Y-37642014D01*
X63588762Y-37507438D01*
X63454186Y-37396995D01*
X63300650Y-37314928D01*
X63134054Y-37264392D01*
X62960800Y-37247328D01*
X62035800Y-37247328D01*
X61862546Y-37264392D01*
X61695950Y-37314928D01*
X61542414Y-37396995D01*
X61407838Y-37507438D01*
X61297395Y-37642014D01*
X61215328Y-37795550D01*
X61164792Y-37962146D01*
X61147728Y-38135400D01*
X60873872Y-38135400D01*
X60856808Y-37962146D01*
X60806272Y-37795550D01*
X60724205Y-37642014D01*
X60613762Y-37507438D01*
X60479186Y-37396995D01*
X60325650Y-37314928D01*
X60159054Y-37264392D01*
X59985800Y-37247328D01*
X59060800Y-37247328D01*
X58887546Y-37264392D01*
X58720950Y-37314928D01*
X58567414Y-37396995D01*
X58432838Y-37507438D01*
X58322395Y-37642014D01*
X58240328Y-37795550D01*
X58238356Y-37802050D01*
X58208154Y-37858554D01*
X58165127Y-38000400D01*
X58110206Y-38000400D01*
X58105423Y-37984633D01*
X58024512Y-37833258D01*
X57915623Y-37700577D01*
X57782942Y-37591688D01*
X57631567Y-37510777D01*
X57467316Y-37460952D01*
X57296500Y-37444128D01*
X56721500Y-37444128D01*
X56550684Y-37460952D01*
X56386433Y-37510777D01*
X56235058Y-37591688D01*
X56134000Y-37674625D01*
X56032942Y-37591688D01*
X55881567Y-37510777D01*
X55717316Y-37460952D01*
X55546500Y-37444128D01*
X54971500Y-37444128D01*
X54800684Y-37460952D01*
X54636433Y-37510777D01*
X54485058Y-37591688D01*
X54352377Y-37700577D01*
X54243488Y-37833258D01*
X54162577Y-37984633D01*
X54112752Y-38148884D01*
X54095928Y-38319700D01*
X54095928Y-38413990D01*
X54054658Y-38413990D01*
X54054200Y-38385750D01*
X53895450Y-38227000D01*
X53021200Y-38227000D01*
X53021200Y-38247000D01*
X52767200Y-38247000D01*
X52767200Y-38227000D01*
X52747200Y-38227000D01*
X52747200Y-37973000D01*
X52767200Y-37973000D01*
X52767200Y-37148750D01*
X53021200Y-37148750D01*
X53021200Y-37973000D01*
X53895450Y-37973000D01*
X54054200Y-37814250D01*
X54057272Y-37625000D01*
X54045012Y-37500518D01*
X54008702Y-37380820D01*
X53949737Y-37270506D01*
X53870385Y-37173815D01*
X53773694Y-37094463D01*
X53663380Y-37035498D01*
X53543682Y-36999188D01*
X53419200Y-36986928D01*
X53179950Y-36990000D01*
X53021200Y-37148750D01*
X52767200Y-37148750D01*
X52608450Y-36990000D01*
X52369200Y-36986928D01*
X52244718Y-36999188D01*
X52125020Y-37035498D01*
X52014706Y-37094463D01*
X51942039Y-37154099D01*
X51918142Y-37134488D01*
X51766767Y-37053577D01*
X51602516Y-37003752D01*
X51431700Y-36986928D01*
X50856700Y-36986928D01*
X50685884Y-37003752D01*
X50521633Y-37053577D01*
X50370258Y-37134488D01*
X50237577Y-37243377D01*
X50128688Y-37376058D01*
X50047777Y-37527433D01*
X49997952Y-37691684D01*
X49981128Y-37862500D01*
X49981128Y-37898800D01*
X48677601Y-37898800D01*
X48640278Y-37895124D01*
X48602955Y-37898800D01*
X48602945Y-37898800D01*
X48491292Y-37909797D01*
X48355412Y-37951015D01*
X48348031Y-37953254D01*
X48216001Y-38023826D01*
X48161871Y-38068250D01*
X48100277Y-38118799D01*
X48076479Y-38147797D01*
X48007254Y-38217022D01*
X47895537Y-38049826D01*
X47751374Y-37905663D01*
X47581856Y-37792395D01*
X47393498Y-37714374D01*
X47234229Y-37682694D01*
X47202146Y-37656364D01*
X47057087Y-37578828D01*
X46899689Y-37531082D01*
X46841285Y-37525330D01*
X46766605Y-37385614D01*
X46656162Y-37251038D01*
X46521586Y-37140595D01*
X46368050Y-37058528D01*
X46201454Y-37007992D01*
X46028200Y-36990928D01*
X45353200Y-36990928D01*
X45179946Y-37007992D01*
X45013350Y-37058528D01*
X44859814Y-37140595D01*
X44725238Y-37251038D01*
X44719858Y-37257594D01*
X44654385Y-37177815D01*
X44557694Y-37098463D01*
X44447380Y-37039498D01*
X44327682Y-37003188D01*
X44203200Y-36990928D01*
X43901450Y-36994000D01*
X43742700Y-37152750D01*
X43742700Y-38227000D01*
X43762700Y-38227000D01*
X43762700Y-38481000D01*
X43742700Y-38481000D01*
X43742700Y-38501000D01*
X43488700Y-38501000D01*
X43488700Y-38481000D01*
X42551950Y-38481000D01*
X42393200Y-38639750D01*
X42390128Y-39079000D01*
X42402388Y-39203482D01*
X42438698Y-39323180D01*
X42497663Y-39433494D01*
X42577015Y-39530185D01*
X42673706Y-39609537D01*
X42784020Y-39668502D01*
X42903718Y-39704812D01*
X42926995Y-39707104D01*
X42860902Y-39787638D01*
X42795007Y-39910919D01*
X42754429Y-40044687D01*
X42750331Y-40086300D01*
X42452222Y-40086300D01*
X42414899Y-40082624D01*
X42383945Y-40085673D01*
X42265939Y-40062200D01*
X42062061Y-40062200D01*
X41862102Y-40101974D01*
X41673744Y-40179995D01*
X41504226Y-40293263D01*
X41360063Y-40437426D01*
X41246795Y-40606944D01*
X41168774Y-40795302D01*
X41129000Y-40995261D01*
X41129000Y-41199139D01*
X41168774Y-41399098D01*
X41212647Y-41505017D01*
X41164112Y-41509797D01*
X41045714Y-41545712D01*
X40594203Y-41094202D01*
X40570401Y-41065199D01*
X40454676Y-40970226D01*
X40322647Y-40899654D01*
X40179386Y-40856197D01*
X40067733Y-40845200D01*
X40067722Y-40845200D01*
X40030400Y-40841524D01*
X39993078Y-40845200D01*
X36132634Y-40845200D01*
X36113990Y-40800189D01*
X35951475Y-40556968D01*
X35744632Y-40350125D01*
X35562466Y-40228405D01*
X35679355Y-40158778D01*
X35895588Y-39963869D01*
X36069641Y-39730520D01*
X36194825Y-39467699D01*
X36239476Y-39320490D01*
X36118155Y-39090600D01*
X34925000Y-39090600D01*
X34925000Y-39110600D01*
X34671000Y-39110600D01*
X34671000Y-39090600D01*
X34651000Y-39090600D01*
X34651000Y-38836600D01*
X34671000Y-38836600D01*
X34671000Y-37642786D01*
X34925000Y-37642786D01*
X34925000Y-38836600D01*
X36118155Y-38836600D01*
X36239476Y-38606710D01*
X36194825Y-38459501D01*
X36069641Y-38196680D01*
X35895588Y-37963331D01*
X35679355Y-37768422D01*
X35445297Y-37629000D01*
X42390128Y-37629000D01*
X42393200Y-38068250D01*
X42551950Y-38227000D01*
X43488700Y-38227000D01*
X43488700Y-37152750D01*
X43329950Y-36994000D01*
X43028200Y-36990928D01*
X42903718Y-37003188D01*
X42784020Y-37039498D01*
X42673706Y-37098463D01*
X42577015Y-37177815D01*
X42497663Y-37274506D01*
X42438698Y-37384820D01*
X42402388Y-37504518D01*
X42390128Y-37629000D01*
X35445297Y-37629000D01*
X35429252Y-37619443D01*
X35154891Y-37522119D01*
X34925000Y-37642786D01*
X34671000Y-37642786D01*
X34441109Y-37522119D01*
X34166748Y-37619443D01*
X33916645Y-37768422D01*
X33720498Y-37945226D01*
X33697502Y-37869420D01*
X33638537Y-37759106D01*
X33559185Y-37662415D01*
X33462494Y-37583063D01*
X33352180Y-37524098D01*
X33232482Y-37487788D01*
X33108000Y-37475528D01*
X31408000Y-37475528D01*
X31283518Y-37487788D01*
X31163820Y-37524098D01*
X31053506Y-37583063D01*
X30956815Y-37662415D01*
X30877463Y-37759106D01*
X30818498Y-37869420D01*
X30782188Y-37989118D01*
X30769928Y-38113600D01*
X30769928Y-39813600D01*
X30782188Y-39938082D01*
X30818498Y-40057780D01*
X30877463Y-40168094D01*
X30956815Y-40264785D01*
X31053506Y-40344137D01*
X31163820Y-40403102D01*
X31236380Y-40425113D01*
X31104525Y-40556968D01*
X30942010Y-40800189D01*
X30830068Y-41070442D01*
X30773000Y-41357340D01*
X30773000Y-41649860D01*
X30830068Y-41936758D01*
X30942010Y-42207011D01*
X31104525Y-42450232D01*
X31311368Y-42657075D01*
X31485760Y-42773600D01*
X31311368Y-42890125D01*
X31104525Y-43096968D01*
X30942010Y-43340189D01*
X30830068Y-43610442D01*
X30773000Y-43897340D01*
X30773000Y-44189860D01*
X30830068Y-44476758D01*
X30942010Y-44747011D01*
X31104525Y-44990232D01*
X31311368Y-45197075D01*
X31485760Y-45313600D01*
X31311368Y-45430125D01*
X31104525Y-45636968D01*
X30942010Y-45880189D01*
X30830068Y-46150442D01*
X30773000Y-46437340D01*
X30773000Y-46729860D01*
X30830068Y-47016758D01*
X30942010Y-47287011D01*
X31104525Y-47530232D01*
X31311368Y-47737075D01*
X31336698Y-47754000D01*
X30054920Y-47754000D01*
X29975623Y-47657377D01*
X29842942Y-47548488D01*
X29733427Y-47489952D01*
X29751805Y-47486296D01*
X29994759Y-47385661D01*
X30213413Y-47239562D01*
X30399362Y-47053613D01*
X30545461Y-46834959D01*
X30646096Y-46592005D01*
X30697400Y-46334086D01*
X30697400Y-46071114D01*
X30646096Y-45813195D01*
X30545461Y-45570241D01*
X30399362Y-45351587D01*
X30213413Y-45165638D01*
X30168757Y-45135800D01*
X30213413Y-45105962D01*
X30399362Y-44920013D01*
X30545461Y-44701359D01*
X30646096Y-44458405D01*
X30697400Y-44200486D01*
X30697400Y-43937514D01*
X30646096Y-43679595D01*
X30545461Y-43436641D01*
X30399362Y-43217987D01*
X30213413Y-43032038D01*
X30149750Y-42989500D01*
X30213413Y-42946962D01*
X30399362Y-42761013D01*
X30545461Y-42542359D01*
X30646096Y-42299405D01*
X30697400Y-42041486D01*
X30697400Y-41778514D01*
X30646096Y-41520595D01*
X30545461Y-41277641D01*
X30399362Y-41058987D01*
X30213413Y-40873038D01*
X30168757Y-40843200D01*
X30213413Y-40813362D01*
X30399362Y-40627413D01*
X30545461Y-40408759D01*
X30646096Y-40165805D01*
X30697400Y-39907886D01*
X30697400Y-39644914D01*
X30646096Y-39386995D01*
X30545461Y-39144041D01*
X30399362Y-38925387D01*
X30213413Y-38739438D01*
X29994759Y-38593339D01*
X29751805Y-38492704D01*
X29493886Y-38441400D01*
X29230914Y-38441400D01*
X28972995Y-38492704D01*
X28730041Y-38593339D01*
X28511387Y-38739438D01*
X28325438Y-38925387D01*
X28179339Y-39144041D01*
X28078704Y-39386995D01*
X28027400Y-39644914D01*
X28027400Y-39907886D01*
X28078704Y-40165805D01*
X28179339Y-40408759D01*
X28325438Y-40627413D01*
X28511387Y-40813362D01*
X28556043Y-40843200D01*
X28511387Y-40873038D01*
X28325438Y-41058987D01*
X28179339Y-41277641D01*
X28078704Y-41520595D01*
X28027400Y-41778514D01*
X28027400Y-42041486D01*
X28078704Y-42299405D01*
X28179339Y-42542359D01*
X28325438Y-42761013D01*
X28511387Y-42946962D01*
X28575050Y-42989500D01*
X28511387Y-43032038D01*
X28325438Y-43217987D01*
X28179339Y-43436641D01*
X28078704Y-43679595D01*
X28027400Y-43937514D01*
X28027400Y-44200486D01*
X28078704Y-44458405D01*
X28179339Y-44701359D01*
X28325438Y-44920013D01*
X28511387Y-45105962D01*
X28556043Y-45135800D01*
X28511387Y-45165638D01*
X28325438Y-45351587D01*
X28179339Y-45570241D01*
X28078704Y-45813195D01*
X28027400Y-46071114D01*
X28027400Y-46334086D01*
X28078704Y-46592005D01*
X28179339Y-46834959D01*
X28325438Y-47053613D01*
X28511387Y-47239562D01*
X28730041Y-47385661D01*
X28769704Y-47402090D01*
X28610684Y-47417752D01*
X28446433Y-47467577D01*
X28295058Y-47548488D01*
X28194000Y-47631425D01*
X28092942Y-47548488D01*
X27941567Y-47467577D01*
X27777316Y-47417752D01*
X27606500Y-47400928D01*
X27031500Y-47400928D01*
X26860684Y-47417752D01*
X26696433Y-47467577D01*
X26545058Y-47548488D01*
X26490778Y-47593035D01*
X26311498Y-47518774D01*
X26111539Y-47479000D01*
X25907661Y-47479000D01*
X25707702Y-47518774D01*
X25519344Y-47596795D01*
X25349826Y-47710063D01*
X25205663Y-47854226D01*
X25092395Y-48023744D01*
X25014374Y-48212102D01*
X24974600Y-48412061D01*
X24974600Y-48615939D01*
X25014374Y-48815898D01*
X25092395Y-49004256D01*
X25205663Y-49173774D01*
X25349826Y-49317937D01*
X25519344Y-49431205D01*
X25707702Y-49509226D01*
X25907661Y-49549000D01*
X26111539Y-49549000D01*
X26311498Y-49509226D01*
X26490778Y-49434965D01*
X26545058Y-49479512D01*
X26696433Y-49560423D01*
X26860684Y-49610248D01*
X27031500Y-49627072D01*
X27606500Y-49627072D01*
X27777316Y-49610248D01*
X27941567Y-49560423D01*
X28092942Y-49479512D01*
X28194000Y-49396575D01*
X28295058Y-49479512D01*
X28446433Y-49560423D01*
X28610684Y-49610248D01*
X28781500Y-49627072D01*
X29356500Y-49627072D01*
X29527316Y-49610248D01*
X29691567Y-49560423D01*
X29842942Y-49479512D01*
X29975623Y-49370623D01*
X30054920Y-49274000D01*
X34151078Y-49274000D01*
X34188400Y-49277676D01*
X34225722Y-49274000D01*
X34225733Y-49274000D01*
X34337386Y-49263003D01*
X34480647Y-49219546D01*
X34612676Y-49148974D01*
X34728401Y-49054001D01*
X34752203Y-49024998D01*
X35309002Y-48468200D01*
X35338001Y-48444401D01*
X35432974Y-48328676D01*
X35503546Y-48196647D01*
X35547003Y-48053386D01*
X35558000Y-47941733D01*
X35561677Y-47904400D01*
X35558000Y-47867067D01*
X35558000Y-47861778D01*
X35744632Y-47737075D01*
X35951475Y-47530232D01*
X36113990Y-47287011D01*
X36225932Y-47016758D01*
X36283000Y-46729860D01*
X36283000Y-46437340D01*
X36225932Y-46150442D01*
X36113990Y-45880189D01*
X35951475Y-45636968D01*
X35833307Y-45518800D01*
X37345945Y-45518800D01*
X37233595Y-45686944D01*
X37155574Y-45875302D01*
X37115800Y-46075261D01*
X37115800Y-46279139D01*
X37155574Y-46479098D01*
X37233595Y-46667456D01*
X37346863Y-46836974D01*
X37491026Y-46981137D01*
X37660544Y-47094405D01*
X37848902Y-47172426D01*
X38048861Y-47212200D01*
X38252739Y-47212200D01*
X38452698Y-47172426D01*
X38610923Y-47106887D01*
X38622638Y-47121162D01*
X38629194Y-47126542D01*
X38549415Y-47192015D01*
X38470063Y-47288706D01*
X38411098Y-47399020D01*
X38374788Y-47518718D01*
X38362528Y-47643200D01*
X38365600Y-47944950D01*
X38524350Y-48103700D01*
X39598600Y-48103700D01*
X39598600Y-48083700D01*
X39852600Y-48083700D01*
X39852600Y-48103700D01*
X39872600Y-48103700D01*
X39872600Y-48357700D01*
X39852600Y-48357700D01*
X39852600Y-48377700D01*
X39598600Y-48377700D01*
X39598600Y-48357700D01*
X38524350Y-48357700D01*
X38365600Y-48516450D01*
X38362528Y-48818200D01*
X38374788Y-48942682D01*
X38411098Y-49062380D01*
X38470063Y-49172694D01*
X38549415Y-49269385D01*
X38646106Y-49348737D01*
X38756420Y-49407702D01*
X38876118Y-49444012D01*
X39000600Y-49456272D01*
X39306117Y-49454135D01*
X39195838Y-49544638D01*
X39085395Y-49679214D01*
X39039541Y-49765000D01*
X38861661Y-49765000D01*
X38661702Y-49804774D01*
X38473344Y-49882795D01*
X38303826Y-49996063D01*
X38159663Y-50140226D01*
X38046395Y-50309744D01*
X37968374Y-50498102D01*
X37928600Y-50698061D01*
X37928600Y-50901939D01*
X37968374Y-51101898D01*
X38046395Y-51290256D01*
X38126405Y-51410000D01*
X23654277Y-51410000D01*
X23602805Y-51404953D01*
X23584337Y-51399377D01*
X23567307Y-51390322D01*
X23552357Y-51378129D01*
X23540061Y-51363266D01*
X23530889Y-51346303D01*
X23525183Y-51327871D01*
X23520000Y-51278554D01*
X23520000Y-47144608D01*
X23540737Y-47123871D01*
X23600197Y-47357637D01*
X23838642Y-47468534D01*
X24094140Y-47530783D01*
X24356873Y-47541990D01*
X24616744Y-47501725D01*
X24863766Y-47411535D01*
X24964603Y-47357637D01*
X25024064Y-47123869D01*
X24282400Y-46382205D01*
X24268258Y-46396348D01*
X24088653Y-46216743D01*
X24102795Y-46202600D01*
X24462005Y-46202600D01*
X25203669Y-46944264D01*
X25437437Y-46884803D01*
X25548334Y-46646358D01*
X25610583Y-46390860D01*
X25621790Y-46128127D01*
X25581525Y-45868256D01*
X25491335Y-45621234D01*
X25437437Y-45520397D01*
X25203669Y-45460936D01*
X24462005Y-46202600D01*
X24102795Y-46202600D01*
X24088653Y-46188458D01*
X24268258Y-46008853D01*
X24282400Y-46022995D01*
X25024064Y-45281331D01*
X25001822Y-45193888D01*
X25133413Y-45105962D01*
X25319362Y-44920013D01*
X25465461Y-44701359D01*
X25566096Y-44458405D01*
X25617400Y-44200486D01*
X25617400Y-43937514D01*
X25566096Y-43679595D01*
X25465461Y-43436641D01*
X25319362Y-43217987D01*
X25133413Y-43032038D01*
X25069750Y-42989500D01*
X25133413Y-42946962D01*
X25319362Y-42761013D01*
X25465461Y-42542359D01*
X25566096Y-42299405D01*
X25617400Y-42041486D01*
X25617400Y-41778514D01*
X25566096Y-41520595D01*
X25465461Y-41277641D01*
X25319362Y-41058987D01*
X25133413Y-40873038D01*
X25001822Y-40785112D01*
X25024064Y-40697669D01*
X24282400Y-39956005D01*
X24268258Y-39970148D01*
X24088653Y-39790543D01*
X24102795Y-39776400D01*
X24462005Y-39776400D01*
X25203669Y-40518064D01*
X25437437Y-40458603D01*
X25548334Y-40220158D01*
X25610583Y-39964660D01*
X25621790Y-39701927D01*
X25581525Y-39442056D01*
X25491335Y-39195034D01*
X25437437Y-39094197D01*
X25203669Y-39034736D01*
X24462005Y-39776400D01*
X24102795Y-39776400D01*
X24088653Y-39762258D01*
X24268258Y-39582653D01*
X24282400Y-39596795D01*
X25024064Y-38855131D01*
X24964603Y-38621363D01*
X24726158Y-38510466D01*
X24470660Y-38448217D01*
X24207927Y-38437010D01*
X23948056Y-38477275D01*
X23701034Y-38567465D01*
X23600197Y-38621363D01*
X23540737Y-38855129D01*
X23520000Y-38834392D01*
X23520000Y-37116277D01*
X23525047Y-37064803D01*
X23530622Y-37046338D01*
X23539678Y-37029306D01*
X23551870Y-37014357D01*
X23566732Y-37002062D01*
X23583696Y-36992889D01*
X23602129Y-36987183D01*
X23651446Y-36982000D01*
X65609460Y-36982000D01*
X65594597Y-36994197D01*
%TA.AperFunction,Conductor*%
D21*
G36*
X65594597Y-36994197D02*
G01*
X65578803Y-37013443D01*
X65567067Y-37035399D01*
X65559840Y-37059224D01*
X65557400Y-37084000D01*
X65557400Y-38728376D01*
X65506528Y-38823550D01*
X65455992Y-38990146D01*
X65438928Y-39163400D01*
X65438928Y-39838400D01*
X65455992Y-40011654D01*
X65506528Y-40178250D01*
X65557400Y-40273424D01*
X65557400Y-40803376D01*
X65506528Y-40898550D01*
X65455992Y-41065146D01*
X65438928Y-41238400D01*
X65438928Y-41758104D01*
X64515269Y-42681764D01*
X64364380Y-42753928D01*
X64140800Y-42753928D01*
X64016318Y-42766188D01*
X63896620Y-42802498D01*
X63786306Y-42861463D01*
X63689615Y-42940815D01*
X63610263Y-43037506D01*
X63554907Y-43141067D01*
X63488139Y-43173000D01*
X63121918Y-43173000D01*
X63096894Y-43152463D01*
X62986580Y-43093498D01*
X62866882Y-43057188D01*
X62742400Y-43044928D01*
X61682400Y-43044928D01*
X61557918Y-43057188D01*
X61438220Y-43093498D01*
X61378073Y-43125648D01*
X60812481Y-43103894D01*
X60806861Y-43104339D01*
X60786580Y-43093498D01*
X60666882Y-43057188D01*
X60542400Y-43044928D01*
X59482400Y-43044928D01*
X59357918Y-43057188D01*
X59277086Y-43081708D01*
X59227005Y-42988014D01*
X59116562Y-42853438D01*
X58981986Y-42742995D01*
X58828450Y-42660928D01*
X58661854Y-42610392D01*
X58488600Y-42593328D01*
X57538600Y-42593328D01*
X57365346Y-42610392D01*
X57198750Y-42660928D01*
X57045214Y-42742995D01*
X56936069Y-42832568D01*
X56914598Y-42823674D01*
X56714639Y-42783900D01*
X56510761Y-42783900D01*
X56310802Y-42823674D01*
X56122444Y-42901695D01*
X55952926Y-43014963D01*
X55808763Y-43159126D01*
X55695495Y-43328644D01*
X55617474Y-43517002D01*
X55577700Y-43716961D01*
X55577700Y-43920839D01*
X55617474Y-44120798D01*
X55695495Y-44309156D01*
X55808763Y-44478674D01*
X55952926Y-44622837D01*
X56122444Y-44736105D01*
X56310802Y-44814126D01*
X56510761Y-44853900D01*
X56714639Y-44853900D01*
X56878808Y-44821245D01*
X56837415Y-44855215D01*
X56758063Y-44951906D01*
X56699098Y-45062220D01*
X56662788Y-45181918D01*
X56650528Y-45306400D01*
X56653600Y-45608150D01*
X56812350Y-45766900D01*
X57886600Y-45766900D01*
X57886600Y-45746900D01*
X58140600Y-45746900D01*
X58140600Y-45766900D01*
X58992050Y-45766900D01*
X59006150Y-45781000D01*
X59885400Y-45781000D01*
X59885400Y-45761000D01*
X60139400Y-45761000D01*
X60139400Y-45781000D01*
X60159400Y-45781000D01*
X60159400Y-46035000D01*
X60139400Y-46035000D01*
X60139400Y-46709250D01*
X60298150Y-46868000D01*
X60542400Y-46871072D01*
X60666882Y-46858812D01*
X60680600Y-46854651D01*
X60680600Y-47345600D01*
X60683031Y-47370332D01*
X60690250Y-47394159D01*
X61290200Y-48844038D01*
X61290200Y-51410000D01*
X60561427Y-51410000D01*
X60640494Y-51367737D01*
X60737185Y-51288385D01*
X60816537Y-51191694D01*
X60875502Y-51081380D01*
X60911812Y-50961682D01*
X60924072Y-50837200D01*
X60921000Y-50272950D01*
X60762250Y-50114200D01*
X59563000Y-50114200D01*
X59563000Y-50134200D01*
X59309000Y-50134200D01*
X59309000Y-50114200D01*
X59289000Y-50114200D01*
X59289000Y-49860200D01*
X59309000Y-49860200D01*
X59309000Y-48660950D01*
X59563000Y-48660950D01*
X59563000Y-49860200D01*
X60762250Y-49860200D01*
X60921000Y-49701450D01*
X60924072Y-49137200D01*
X60911812Y-49012718D01*
X60875502Y-48893020D01*
X60816537Y-48782706D01*
X60737185Y-48686015D01*
X60640494Y-48606663D01*
X60530180Y-48547698D01*
X60410482Y-48511388D01*
X60286000Y-48499128D01*
X59721750Y-48502200D01*
X59563000Y-48660950D01*
X59309000Y-48660950D01*
X59150250Y-48502200D01*
X58586000Y-48499128D01*
X58461518Y-48511388D01*
X58341820Y-48547698D01*
X58231506Y-48606663D01*
X58134815Y-48686015D01*
X58055463Y-48782706D01*
X57996498Y-48893020D01*
X57974487Y-48965580D01*
X57842632Y-48833725D01*
X57599411Y-48671210D01*
X57329158Y-48559268D01*
X57042260Y-48502200D01*
X56749740Y-48502200D01*
X56529592Y-48545990D01*
X55647176Y-47663575D01*
X55676461Y-47669400D01*
X55880339Y-47669400D01*
X56080298Y-47629626D01*
X56268656Y-47551605D01*
X56438174Y-47438337D01*
X56582337Y-47294174D01*
X56695605Y-47124656D01*
X56773626Y-46936298D01*
X56786665Y-46870746D01*
X56837415Y-46932585D01*
X56934106Y-47011937D01*
X57044420Y-47070902D01*
X57164118Y-47107212D01*
X57288600Y-47119472D01*
X57727850Y-47116400D01*
X57886600Y-46957650D01*
X57886600Y-46020900D01*
X58140600Y-46020900D01*
X58140600Y-46957650D01*
X58299350Y-47116400D01*
X58738600Y-47119472D01*
X58863082Y-47107212D01*
X58982780Y-47070902D01*
X59093094Y-47011937D01*
X59189785Y-46932585D01*
X59269137Y-46835894D01*
X59270983Y-46832441D01*
X59357918Y-46858812D01*
X59482400Y-46871072D01*
X59726650Y-46868000D01*
X59885400Y-46709250D01*
X59885400Y-46035000D01*
X59228950Y-46035000D01*
X59214850Y-46020900D01*
X58140600Y-46020900D01*
X57886600Y-46020900D01*
X56812350Y-46020900D01*
X56693002Y-46140248D01*
X56582337Y-45974626D01*
X56438174Y-45830463D01*
X56268656Y-45717195D01*
X56080298Y-45639174D01*
X55880339Y-45599400D01*
X55676461Y-45599400D01*
X55476502Y-45639174D01*
X55372119Y-45682411D01*
X55293742Y-45618088D01*
X55142367Y-45537177D01*
X54978116Y-45487352D01*
X54807300Y-45470528D01*
X54232300Y-45470528D01*
X54061484Y-45487352D01*
X53897233Y-45537177D01*
X53745858Y-45618088D01*
X53644800Y-45701025D01*
X53543742Y-45618088D01*
X53392367Y-45537177D01*
X53228116Y-45487352D01*
X53057300Y-45470528D01*
X52731530Y-45470528D01*
X52653273Y-45392272D01*
X53408600Y-45392272D01*
X53581854Y-45375208D01*
X53748450Y-45324672D01*
X53901986Y-45242605D01*
X54018343Y-45147114D01*
X54054102Y-45161926D01*
X54254061Y-45201700D01*
X54457939Y-45201700D01*
X54657898Y-45161926D01*
X54846256Y-45083905D01*
X55015774Y-44970637D01*
X55159937Y-44826474D01*
X55273205Y-44656956D01*
X55351226Y-44468598D01*
X55391000Y-44268639D01*
X55391000Y-44064761D01*
X55351226Y-43864802D01*
X55273205Y-43676444D01*
X55159937Y-43506926D01*
X55015774Y-43362763D01*
X54846256Y-43249495D01*
X54657898Y-43171474D01*
X54457939Y-43131700D01*
X54254061Y-43131700D01*
X54061514Y-43170000D01*
X54109785Y-43130385D01*
X54189137Y-43033694D01*
X54248102Y-42923380D01*
X54284412Y-42803682D01*
X54296672Y-42679200D01*
X54293600Y-42377450D01*
X54134850Y-42218700D01*
X53060600Y-42218700D01*
X53060600Y-42238700D01*
X52806600Y-42238700D01*
X52806600Y-42218700D01*
X52786600Y-42218700D01*
X52786600Y-41964700D01*
X52806600Y-41964700D01*
X52806600Y-41027950D01*
X53060600Y-41027950D01*
X53060600Y-41964700D01*
X54134850Y-41964700D01*
X54293600Y-41805950D01*
X54296672Y-41504200D01*
X54284412Y-41379718D01*
X54248102Y-41260020D01*
X54189137Y-41149706D01*
X54109785Y-41053015D01*
X54013094Y-40973663D01*
X53902780Y-40914698D01*
X53783082Y-40878388D01*
X53658600Y-40866128D01*
X53219350Y-40869200D01*
X53060600Y-41027950D01*
X52806600Y-41027950D01*
X52647850Y-40869200D01*
X52208600Y-40866128D01*
X52084118Y-40878388D01*
X51964420Y-40914698D01*
X51854106Y-40973663D01*
X51757415Y-41053015D01*
X51678063Y-41149706D01*
X51619098Y-41260020D01*
X51582788Y-41379718D01*
X51570528Y-41504200D01*
X51571604Y-41609861D01*
X51525271Y-41572989D01*
X51414082Y-41515691D01*
X51293852Y-41481186D01*
X51169200Y-41470800D01*
X50727050Y-41473800D01*
X50568300Y-41632550D01*
X50568300Y-41970728D01*
X50314300Y-41970728D01*
X50314300Y-41632550D01*
X50155550Y-41473800D01*
X49816103Y-41471497D01*
X49813800Y-41132050D01*
X49655050Y-40973300D01*
X49316872Y-40973300D01*
X49316872Y-40719300D01*
X49655050Y-40719300D01*
X49813800Y-40560550D01*
X49814998Y-40384000D01*
X54045128Y-40384000D01*
X54045128Y-40623500D01*
X54061952Y-40794316D01*
X54111777Y-40958567D01*
X54192688Y-41109942D01*
X54301577Y-41242623D01*
X54434258Y-41351512D01*
X54585633Y-41432423D01*
X54749884Y-41482248D01*
X54920700Y-41499072D01*
X55495700Y-41499072D01*
X55666516Y-41482248D01*
X55830767Y-41432423D01*
X55982142Y-41351512D01*
X56083200Y-41268575D01*
X56184258Y-41351512D01*
X56335633Y-41432423D01*
X56499884Y-41482248D01*
X56670700Y-41499072D01*
X57245700Y-41499072D01*
X57416516Y-41482248D01*
X57580767Y-41432423D01*
X57732142Y-41351512D01*
X57864823Y-41242623D01*
X57944120Y-41146000D01*
X58172728Y-41146000D01*
X58172728Y-41671400D01*
X58189792Y-41844654D01*
X58240328Y-42011250D01*
X58322395Y-42164786D01*
X58432838Y-42299362D01*
X58567414Y-42409805D01*
X58720950Y-42491872D01*
X58887546Y-42542408D01*
X59060800Y-42559472D01*
X59985800Y-42559472D01*
X60159054Y-42542408D01*
X60325650Y-42491872D01*
X60479186Y-42409805D01*
X60613762Y-42299362D01*
X60724205Y-42164786D01*
X60806272Y-42011250D01*
X60856808Y-41844654D01*
X60873872Y-41671400D01*
X60873872Y-40421400D01*
X60856808Y-40248146D01*
X60806272Y-40081550D01*
X60724205Y-39928014D01*
X60704005Y-39903400D01*
X60724205Y-39878786D01*
X60806272Y-39725250D01*
X60856808Y-39558654D01*
X60873872Y-39385400D01*
X60873872Y-38135400D01*
X61147728Y-38135400D01*
X61147728Y-39385400D01*
X61164792Y-39558654D01*
X61215328Y-39725250D01*
X61297395Y-39878786D01*
X61317595Y-39903400D01*
X61297395Y-39928014D01*
X61215328Y-40081550D01*
X61164792Y-40248146D01*
X61147728Y-40421400D01*
X61147728Y-41671400D01*
X61164792Y-41844654D01*
X61215328Y-42011250D01*
X61297395Y-42164786D01*
X61407838Y-42299362D01*
X61542414Y-42409805D01*
X61695950Y-42491872D01*
X61862546Y-42542408D01*
X62035800Y-42559472D01*
X62960800Y-42559472D01*
X63134054Y-42542408D01*
X63300650Y-42491872D01*
X63454186Y-42409805D01*
X63588762Y-42299362D01*
X63699205Y-42164786D01*
X63781272Y-42011250D01*
X63831808Y-41844654D01*
X63848872Y-41671400D01*
X63848872Y-41167195D01*
X64063175Y-40952893D01*
X64208298Y-40924026D01*
X64396656Y-40846005D01*
X64566174Y-40732737D01*
X64710337Y-40588574D01*
X64823605Y-40419056D01*
X64901626Y-40230698D01*
X64941400Y-40030739D01*
X64941400Y-39826861D01*
X64901626Y-39626902D01*
X64823605Y-39438544D01*
X64710337Y-39269026D01*
X64566174Y-39124863D01*
X64396656Y-39011595D01*
X64208298Y-38933574D01*
X64063175Y-38904707D01*
X63848872Y-38690405D01*
X63848872Y-38135400D01*
X63831808Y-37962146D01*
X63781272Y-37795550D01*
X63699205Y-37642014D01*
X63588762Y-37507438D01*
X63454186Y-37396995D01*
X63300650Y-37314928D01*
X63134054Y-37264392D01*
X62960800Y-37247328D01*
X62035800Y-37247328D01*
X61862546Y-37264392D01*
X61695950Y-37314928D01*
X61542414Y-37396995D01*
X61407838Y-37507438D01*
X61297395Y-37642014D01*
X61215328Y-37795550D01*
X61164792Y-37962146D01*
X61147728Y-38135400D01*
X60873872Y-38135400D01*
X60856808Y-37962146D01*
X60806272Y-37795550D01*
X60724205Y-37642014D01*
X60613762Y-37507438D01*
X60479186Y-37396995D01*
X60325650Y-37314928D01*
X60159054Y-37264392D01*
X59985800Y-37247328D01*
X59060800Y-37247328D01*
X58887546Y-37264392D01*
X58720950Y-37314928D01*
X58567414Y-37396995D01*
X58432838Y-37507438D01*
X58322395Y-37642014D01*
X58240328Y-37795550D01*
X58238356Y-37802050D01*
X58208154Y-37858554D01*
X58165127Y-38000400D01*
X58110206Y-38000400D01*
X58105423Y-37984633D01*
X58024512Y-37833258D01*
X57915623Y-37700577D01*
X57782942Y-37591688D01*
X57631567Y-37510777D01*
X57467316Y-37460952D01*
X57296500Y-37444128D01*
X56721500Y-37444128D01*
X56550684Y-37460952D01*
X56386433Y-37510777D01*
X56235058Y-37591688D01*
X56134000Y-37674625D01*
X56032942Y-37591688D01*
X55881567Y-37510777D01*
X55717316Y-37460952D01*
X55546500Y-37444128D01*
X54971500Y-37444128D01*
X54800684Y-37460952D01*
X54636433Y-37510777D01*
X54485058Y-37591688D01*
X54352377Y-37700577D01*
X54243488Y-37833258D01*
X54162577Y-37984633D01*
X54112752Y-38148884D01*
X54095928Y-38319700D01*
X54095928Y-38413990D01*
X54054658Y-38413990D01*
X54054200Y-38385750D01*
X53895450Y-38227000D01*
X53021200Y-38227000D01*
X53021200Y-38247000D01*
X52767200Y-38247000D01*
X52767200Y-38227000D01*
X52747200Y-38227000D01*
X52747200Y-37973000D01*
X52767200Y-37973000D01*
X52767200Y-37148750D01*
X53021200Y-37148750D01*
X53021200Y-37973000D01*
X53895450Y-37973000D01*
X54054200Y-37814250D01*
X54057272Y-37625000D01*
X54045012Y-37500518D01*
X54008702Y-37380820D01*
X53949737Y-37270506D01*
X53870385Y-37173815D01*
X53773694Y-37094463D01*
X53663380Y-37035498D01*
X53543682Y-36999188D01*
X53419200Y-36986928D01*
X53179950Y-36990000D01*
X53021200Y-37148750D01*
X52767200Y-37148750D01*
X52608450Y-36990000D01*
X52369200Y-36986928D01*
X52244718Y-36999188D01*
X52125020Y-37035498D01*
X52014706Y-37094463D01*
X51942039Y-37154099D01*
X51918142Y-37134488D01*
X51766767Y-37053577D01*
X51602516Y-37003752D01*
X51431700Y-36986928D01*
X50856700Y-36986928D01*
X50685884Y-37003752D01*
X50521633Y-37053577D01*
X50370258Y-37134488D01*
X50237577Y-37243377D01*
X50128688Y-37376058D01*
X50047777Y-37527433D01*
X49997952Y-37691684D01*
X49981128Y-37862500D01*
X49981128Y-37898800D01*
X48677601Y-37898800D01*
X48640278Y-37895124D01*
X48602955Y-37898800D01*
X48602945Y-37898800D01*
X48491292Y-37909797D01*
X48355412Y-37951015D01*
X48348031Y-37953254D01*
X48216001Y-38023826D01*
X48161871Y-38068250D01*
X48100277Y-38118799D01*
X48076479Y-38147797D01*
X48007254Y-38217022D01*
X47895537Y-38049826D01*
X47751374Y-37905663D01*
X47581856Y-37792395D01*
X47393498Y-37714374D01*
X47234229Y-37682694D01*
X47202146Y-37656364D01*
X47057087Y-37578828D01*
X46899689Y-37531082D01*
X46841285Y-37525330D01*
X46766605Y-37385614D01*
X46656162Y-37251038D01*
X46521586Y-37140595D01*
X46368050Y-37058528D01*
X46201454Y-37007992D01*
X46028200Y-36990928D01*
X45353200Y-36990928D01*
X45179946Y-37007992D01*
X45013350Y-37058528D01*
X44859814Y-37140595D01*
X44725238Y-37251038D01*
X44719858Y-37257594D01*
X44654385Y-37177815D01*
X44557694Y-37098463D01*
X44447380Y-37039498D01*
X44327682Y-37003188D01*
X44203200Y-36990928D01*
X43901450Y-36994000D01*
X43742700Y-37152750D01*
X43742700Y-38227000D01*
X43762700Y-38227000D01*
X43762700Y-38481000D01*
X43742700Y-38481000D01*
X43742700Y-38501000D01*
X43488700Y-38501000D01*
X43488700Y-38481000D01*
X42551950Y-38481000D01*
X42393200Y-38639750D01*
X42390128Y-39079000D01*
X42402388Y-39203482D01*
X42438698Y-39323180D01*
X42497663Y-39433494D01*
X42577015Y-39530185D01*
X42673706Y-39609537D01*
X42784020Y-39668502D01*
X42903718Y-39704812D01*
X42926995Y-39707104D01*
X42860902Y-39787638D01*
X42795007Y-39910919D01*
X42754429Y-40044687D01*
X42750331Y-40086300D01*
X42452222Y-40086300D01*
X42414899Y-40082624D01*
X42383945Y-40085673D01*
X42265939Y-40062200D01*
X42062061Y-40062200D01*
X41862102Y-40101974D01*
X41673744Y-40179995D01*
X41504226Y-40293263D01*
X41360063Y-40437426D01*
X41246795Y-40606944D01*
X41168774Y-40795302D01*
X41129000Y-40995261D01*
X41129000Y-41199139D01*
X41168774Y-41399098D01*
X41212647Y-41505017D01*
X41164112Y-41509797D01*
X41045714Y-41545712D01*
X40594203Y-41094202D01*
X40570401Y-41065199D01*
X40454676Y-40970226D01*
X40322647Y-40899654D01*
X40179386Y-40856197D01*
X40067733Y-40845200D01*
X40067722Y-40845200D01*
X40030400Y-40841524D01*
X39993078Y-40845200D01*
X36132634Y-40845200D01*
X36113990Y-40800189D01*
X35951475Y-40556968D01*
X35744632Y-40350125D01*
X35562466Y-40228405D01*
X35679355Y-40158778D01*
X35895588Y-39963869D01*
X36069641Y-39730520D01*
X36194825Y-39467699D01*
X36239476Y-39320490D01*
X36118155Y-39090600D01*
X34925000Y-39090600D01*
X34925000Y-39110600D01*
X34671000Y-39110600D01*
X34671000Y-39090600D01*
X34651000Y-39090600D01*
X34651000Y-38836600D01*
X34671000Y-38836600D01*
X34671000Y-37642786D01*
X34925000Y-37642786D01*
X34925000Y-38836600D01*
X36118155Y-38836600D01*
X36239476Y-38606710D01*
X36194825Y-38459501D01*
X36069641Y-38196680D01*
X35895588Y-37963331D01*
X35679355Y-37768422D01*
X35445297Y-37629000D01*
X42390128Y-37629000D01*
X42393200Y-38068250D01*
X42551950Y-38227000D01*
X43488700Y-38227000D01*
X43488700Y-37152750D01*
X43329950Y-36994000D01*
X43028200Y-36990928D01*
X42903718Y-37003188D01*
X42784020Y-37039498D01*
X42673706Y-37098463D01*
X42577015Y-37177815D01*
X42497663Y-37274506D01*
X42438698Y-37384820D01*
X42402388Y-37504518D01*
X42390128Y-37629000D01*
X35445297Y-37629000D01*
X35429252Y-37619443D01*
X35154891Y-37522119D01*
X34925000Y-37642786D01*
X34671000Y-37642786D01*
X34441109Y-37522119D01*
X34166748Y-37619443D01*
X33916645Y-37768422D01*
X33720498Y-37945226D01*
X33697502Y-37869420D01*
X33638537Y-37759106D01*
X33559185Y-37662415D01*
X33462494Y-37583063D01*
X33352180Y-37524098D01*
X33232482Y-37487788D01*
X33108000Y-37475528D01*
X31408000Y-37475528D01*
X31283518Y-37487788D01*
X31163820Y-37524098D01*
X31053506Y-37583063D01*
X30956815Y-37662415D01*
X30877463Y-37759106D01*
X30818498Y-37869420D01*
X30782188Y-37989118D01*
X30769928Y-38113600D01*
X30769928Y-39813600D01*
X30782188Y-39938082D01*
X30818498Y-40057780D01*
X30877463Y-40168094D01*
X30956815Y-40264785D01*
X31053506Y-40344137D01*
X31163820Y-40403102D01*
X31236380Y-40425113D01*
X31104525Y-40556968D01*
X30942010Y-40800189D01*
X30830068Y-41070442D01*
X30773000Y-41357340D01*
X30773000Y-41649860D01*
X30830068Y-41936758D01*
X30942010Y-42207011D01*
X31104525Y-42450232D01*
X31311368Y-42657075D01*
X31485760Y-42773600D01*
X31311368Y-42890125D01*
X31104525Y-43096968D01*
X30942010Y-43340189D01*
X30830068Y-43610442D01*
X30773000Y-43897340D01*
X30773000Y-44189860D01*
X30830068Y-44476758D01*
X30942010Y-44747011D01*
X31104525Y-44990232D01*
X31311368Y-45197075D01*
X31485760Y-45313600D01*
X31311368Y-45430125D01*
X31104525Y-45636968D01*
X30942010Y-45880189D01*
X30830068Y-46150442D01*
X30773000Y-46437340D01*
X30773000Y-46729860D01*
X30830068Y-47016758D01*
X30942010Y-47287011D01*
X31104525Y-47530232D01*
X31311368Y-47737075D01*
X31336698Y-47754000D01*
X30054920Y-47754000D01*
X29975623Y-47657377D01*
X29842942Y-47548488D01*
X29733427Y-47489952D01*
X29751805Y-47486296D01*
X29994759Y-47385661D01*
X30213413Y-47239562D01*
X30399362Y-47053613D01*
X30545461Y-46834959D01*
X30646096Y-46592005D01*
X30697400Y-46334086D01*
X30697400Y-46071114D01*
X30646096Y-45813195D01*
X30545461Y-45570241D01*
X30399362Y-45351587D01*
X30213413Y-45165638D01*
X30168757Y-45135800D01*
X30213413Y-45105962D01*
X30399362Y-44920013D01*
X30545461Y-44701359D01*
X30646096Y-44458405D01*
X30697400Y-44200486D01*
X30697400Y-43937514D01*
X30646096Y-43679595D01*
X30545461Y-43436641D01*
X30399362Y-43217987D01*
X30213413Y-43032038D01*
X30149750Y-42989500D01*
X30213413Y-42946962D01*
X30399362Y-42761013D01*
X30545461Y-42542359D01*
X30646096Y-42299405D01*
X30697400Y-42041486D01*
X30697400Y-41778514D01*
X30646096Y-41520595D01*
X30545461Y-41277641D01*
X30399362Y-41058987D01*
X30213413Y-40873038D01*
X30168757Y-40843200D01*
X30213413Y-40813362D01*
X30399362Y-40627413D01*
X30545461Y-40408759D01*
X30646096Y-40165805D01*
X30697400Y-39907886D01*
X30697400Y-39644914D01*
X30646096Y-39386995D01*
X30545461Y-39144041D01*
X30399362Y-38925387D01*
X30213413Y-38739438D01*
X29994759Y-38593339D01*
X29751805Y-38492704D01*
X29493886Y-38441400D01*
X29230914Y-38441400D01*
X28972995Y-38492704D01*
X28730041Y-38593339D01*
X28511387Y-38739438D01*
X28325438Y-38925387D01*
X28179339Y-39144041D01*
X28078704Y-39386995D01*
X28027400Y-39644914D01*
X28027400Y-39907886D01*
X28078704Y-40165805D01*
X28179339Y-40408759D01*
X28325438Y-40627413D01*
X28511387Y-40813362D01*
X28556043Y-40843200D01*
X28511387Y-40873038D01*
X28325438Y-41058987D01*
X28179339Y-41277641D01*
X28078704Y-41520595D01*
X28027400Y-41778514D01*
X28027400Y-42041486D01*
X28078704Y-42299405D01*
X28179339Y-42542359D01*
X28325438Y-42761013D01*
X28511387Y-42946962D01*
X28575050Y-42989500D01*
X28511387Y-43032038D01*
X28325438Y-43217987D01*
X28179339Y-43436641D01*
X28078704Y-43679595D01*
X28027400Y-43937514D01*
X28027400Y-44200486D01*
X28078704Y-44458405D01*
X28179339Y-44701359D01*
X28325438Y-44920013D01*
X28511387Y-45105962D01*
X28556043Y-45135800D01*
X28511387Y-45165638D01*
X28325438Y-45351587D01*
X28179339Y-45570241D01*
X28078704Y-45813195D01*
X28027400Y-46071114D01*
X28027400Y-46334086D01*
X28078704Y-46592005D01*
X28179339Y-46834959D01*
X28325438Y-47053613D01*
X28511387Y-47239562D01*
X28730041Y-47385661D01*
X28769704Y-47402090D01*
X28610684Y-47417752D01*
X28446433Y-47467577D01*
X28295058Y-47548488D01*
X28194000Y-47631425D01*
X28092942Y-47548488D01*
X27941567Y-47467577D01*
X27777316Y-47417752D01*
X27606500Y-47400928D01*
X27031500Y-47400928D01*
X26860684Y-47417752D01*
X26696433Y-47467577D01*
X26545058Y-47548488D01*
X26490778Y-47593035D01*
X26311498Y-47518774D01*
X26111539Y-47479000D01*
X25907661Y-47479000D01*
X25707702Y-47518774D01*
X25519344Y-47596795D01*
X25349826Y-47710063D01*
X25205663Y-47854226D01*
X25092395Y-48023744D01*
X25014374Y-48212102D01*
X24974600Y-48412061D01*
X24974600Y-48615939D01*
X25014374Y-48815898D01*
X25092395Y-49004256D01*
X25205663Y-49173774D01*
X25349826Y-49317937D01*
X25519344Y-49431205D01*
X25707702Y-49509226D01*
X25907661Y-49549000D01*
X26111539Y-49549000D01*
X26311498Y-49509226D01*
X26490778Y-49434965D01*
X26545058Y-49479512D01*
X26696433Y-49560423D01*
X26860684Y-49610248D01*
X27031500Y-49627072D01*
X27606500Y-49627072D01*
X27777316Y-49610248D01*
X27941567Y-49560423D01*
X28092942Y-49479512D01*
X28194000Y-49396575D01*
X28295058Y-49479512D01*
X28446433Y-49560423D01*
X28610684Y-49610248D01*
X28781500Y-49627072D01*
X29356500Y-49627072D01*
X29527316Y-49610248D01*
X29691567Y-49560423D01*
X29842942Y-49479512D01*
X29975623Y-49370623D01*
X30054920Y-49274000D01*
X34151078Y-49274000D01*
X34188400Y-49277676D01*
X34225722Y-49274000D01*
X34225733Y-49274000D01*
X34337386Y-49263003D01*
X34480647Y-49219546D01*
X34612676Y-49148974D01*
X34728401Y-49054001D01*
X34752203Y-49024998D01*
X35309002Y-48468200D01*
X35338001Y-48444401D01*
X35432974Y-48328676D01*
X35503546Y-48196647D01*
X35547003Y-48053386D01*
X35558000Y-47941733D01*
X35561677Y-47904400D01*
X35558000Y-47867067D01*
X35558000Y-47861778D01*
X35744632Y-47737075D01*
X35951475Y-47530232D01*
X36113990Y-47287011D01*
X36225932Y-47016758D01*
X36283000Y-46729860D01*
X36283000Y-46437340D01*
X36225932Y-46150442D01*
X36113990Y-45880189D01*
X35951475Y-45636968D01*
X35833307Y-45518800D01*
X37345945Y-45518800D01*
X37233595Y-45686944D01*
X37155574Y-45875302D01*
X37115800Y-46075261D01*
X37115800Y-46279139D01*
X37155574Y-46479098D01*
X37233595Y-46667456D01*
X37346863Y-46836974D01*
X37491026Y-46981137D01*
X37660544Y-47094405D01*
X37848902Y-47172426D01*
X38048861Y-47212200D01*
X38252739Y-47212200D01*
X38452698Y-47172426D01*
X38610923Y-47106887D01*
X38622638Y-47121162D01*
X38629194Y-47126542D01*
X38549415Y-47192015D01*
X38470063Y-47288706D01*
X38411098Y-47399020D01*
X38374788Y-47518718D01*
X38362528Y-47643200D01*
X38365600Y-47944950D01*
X38524350Y-48103700D01*
X39598600Y-48103700D01*
X39598600Y-48083700D01*
X39852600Y-48083700D01*
X39852600Y-48103700D01*
X39872600Y-48103700D01*
X39872600Y-48357700D01*
X39852600Y-48357700D01*
X39852600Y-48377700D01*
X39598600Y-48377700D01*
X39598600Y-48357700D01*
X38524350Y-48357700D01*
X38365600Y-48516450D01*
X38362528Y-48818200D01*
X38374788Y-48942682D01*
X38411098Y-49062380D01*
X38470063Y-49172694D01*
X38549415Y-49269385D01*
X38646106Y-49348737D01*
X38756420Y-49407702D01*
X38876118Y-49444012D01*
X39000600Y-49456272D01*
X39306117Y-49454135D01*
X39195838Y-49544638D01*
X39085395Y-49679214D01*
X39039541Y-49765000D01*
X38861661Y-49765000D01*
X38661702Y-49804774D01*
X38473344Y-49882795D01*
X38303826Y-49996063D01*
X38159663Y-50140226D01*
X38046395Y-50309744D01*
X37968374Y-50498102D01*
X37928600Y-50698061D01*
X37928600Y-50901939D01*
X37968374Y-51101898D01*
X38046395Y-51290256D01*
X38126405Y-51410000D01*
X23654277Y-51410000D01*
X23602805Y-51404953D01*
X23584337Y-51399377D01*
X23567307Y-51390322D01*
X23552357Y-51378129D01*
X23540061Y-51363266D01*
X23530889Y-51346303D01*
X23525183Y-51327871D01*
X23520000Y-51278554D01*
X23520000Y-47144608D01*
X23540737Y-47123871D01*
X23600197Y-47357637D01*
X23838642Y-47468534D01*
X24094140Y-47530783D01*
X24356873Y-47541990D01*
X24616744Y-47501725D01*
X24863766Y-47411535D01*
X24964603Y-47357637D01*
X25024064Y-47123869D01*
X24282400Y-46382205D01*
X24268258Y-46396348D01*
X24088653Y-46216743D01*
X24102795Y-46202600D01*
X24462005Y-46202600D01*
X25203669Y-46944264D01*
X25437437Y-46884803D01*
X25548334Y-46646358D01*
X25610583Y-46390860D01*
X25621790Y-46128127D01*
X25581525Y-45868256D01*
X25491335Y-45621234D01*
X25437437Y-45520397D01*
X25203669Y-45460936D01*
X24462005Y-46202600D01*
X24102795Y-46202600D01*
X24088653Y-46188458D01*
X24268258Y-46008853D01*
X24282400Y-46022995D01*
X25024064Y-45281331D01*
X25001822Y-45193888D01*
X25133413Y-45105962D01*
X25319362Y-44920013D01*
X25465461Y-44701359D01*
X25566096Y-44458405D01*
X25617400Y-44200486D01*
X25617400Y-43937514D01*
X25566096Y-43679595D01*
X25465461Y-43436641D01*
X25319362Y-43217987D01*
X25133413Y-43032038D01*
X25069750Y-42989500D01*
X25133413Y-42946962D01*
X25319362Y-42761013D01*
X25465461Y-42542359D01*
X25566096Y-42299405D01*
X25617400Y-42041486D01*
X25617400Y-41778514D01*
X25566096Y-41520595D01*
X25465461Y-41277641D01*
X25319362Y-41058987D01*
X25133413Y-40873038D01*
X25001822Y-40785112D01*
X25024064Y-40697669D01*
X24282400Y-39956005D01*
X24268258Y-39970148D01*
X24088653Y-39790543D01*
X24102795Y-39776400D01*
X24462005Y-39776400D01*
X25203669Y-40518064D01*
X25437437Y-40458603D01*
X25548334Y-40220158D01*
X25610583Y-39964660D01*
X25621790Y-39701927D01*
X25581525Y-39442056D01*
X25491335Y-39195034D01*
X25437437Y-39094197D01*
X25203669Y-39034736D01*
X24462005Y-39776400D01*
X24102795Y-39776400D01*
X24088653Y-39762258D01*
X24268258Y-39582653D01*
X24282400Y-39596795D01*
X25024064Y-38855131D01*
X24964603Y-38621363D01*
X24726158Y-38510466D01*
X24470660Y-38448217D01*
X24207927Y-38437010D01*
X23948056Y-38477275D01*
X23701034Y-38567465D01*
X23600197Y-38621363D01*
X23540737Y-38855129D01*
X23520000Y-38834392D01*
X23520000Y-37116277D01*
X23525047Y-37064803D01*
X23530622Y-37046338D01*
X23539678Y-37029306D01*
X23551870Y-37014357D01*
X23566732Y-37002062D01*
X23583696Y-36992889D01*
X23602129Y-36987183D01*
X23651446Y-36982000D01*
X65609460Y-36982000D01*
X65594597Y-36994197D01*
G37*
%TD.AperFunction*%
D20*
X42243300Y-48385050D02*
X42402050Y-48543800D01*
X42741497Y-48546103D01*
X42743800Y-48885550D01*
X42902550Y-49044300D01*
X43240728Y-49044300D01*
X43240728Y-49298300D01*
X42953266Y-49298300D01*
X42948282Y-49296788D01*
X42823800Y-49284528D01*
X42522050Y-49287600D01*
X42363300Y-49446350D01*
X42363300Y-50520600D01*
X43207188Y-50520600D01*
X43244917Y-50532668D01*
X43347050Y-50543800D01*
X43505800Y-50385050D01*
X43505800Y-50384155D01*
X43557638Y-50426698D01*
X43634568Y-50467818D01*
X43710550Y-50543800D01*
X43812683Y-50532668D01*
X43812851Y-50532614D01*
X43814687Y-50533171D01*
X43953800Y-50546872D01*
X44103800Y-50546872D01*
X44242913Y-50533171D01*
X44278800Y-50522285D01*
X44314687Y-50533171D01*
X44453800Y-50546872D01*
X44603800Y-50546872D01*
X44742913Y-50533171D01*
X44778800Y-50522285D01*
X44814687Y-50533171D01*
X44953800Y-50546872D01*
X45103800Y-50546872D01*
X45242913Y-50533171D01*
X45278800Y-50522285D01*
X45314687Y-50533171D01*
X45453800Y-50546872D01*
X45603800Y-50546872D01*
X45742913Y-50533171D01*
X45778800Y-50522285D01*
X45814687Y-50533171D01*
X45953800Y-50546872D01*
X46103800Y-50546872D01*
X46242913Y-50533171D01*
X46278800Y-50522285D01*
X46314687Y-50533171D01*
X46453800Y-50546872D01*
X46603800Y-50546872D01*
X46742913Y-50533171D01*
X46778800Y-50522285D01*
X46814687Y-50533171D01*
X46953800Y-50546872D01*
X47103800Y-50546872D01*
X47242913Y-50533171D01*
X47278800Y-50522285D01*
X47314687Y-50533171D01*
X47453800Y-50546872D01*
X47522781Y-50546872D01*
X47542788Y-50563291D01*
X48036498Y-51057002D01*
X48060297Y-51086001D01*
X48089295Y-51109799D01*
X48176021Y-51180974D01*
X48281932Y-51237585D01*
X48308051Y-51251546D01*
X48451312Y-51295003D01*
X48562965Y-51306000D01*
X48562974Y-51306000D01*
X48600297Y-51309676D01*
X48637620Y-51306000D01*
X51119373Y-51306000D01*
X51370452Y-51410000D01*
X43458189Y-51410000D01*
X43461872Y-51372600D01*
X43458800Y-50933350D01*
X43300050Y-50774600D01*
X42363300Y-50774600D01*
X42363300Y-50794600D01*
X42109300Y-50794600D01*
X42109300Y-50774600D01*
X42089300Y-50774600D01*
X42089300Y-50520600D01*
X42109300Y-50520600D01*
X42109300Y-49446350D01*
X41950550Y-49287600D01*
X41648800Y-49284528D01*
X41524318Y-49296788D01*
X41404620Y-49333098D01*
X41294306Y-49392063D01*
X41197615Y-49471415D01*
X41132142Y-49551194D01*
X41126762Y-49544638D01*
X40992186Y-49434195D01*
X40838650Y-49352128D01*
X40811133Y-49343781D01*
X40901785Y-49269385D01*
X40981137Y-49172694D01*
X41040102Y-49062380D01*
X41076412Y-48942682D01*
X41088672Y-48818200D01*
X41085600Y-48516450D01*
X40941398Y-48372248D01*
X41032329Y-48444611D01*
X41143518Y-48501909D01*
X41263748Y-48536414D01*
X41388400Y-48546800D01*
X41830550Y-48543800D01*
X41989300Y-48385050D01*
X41989300Y-48046872D01*
X42243300Y-48046872D01*
X42243300Y-48385050D01*
%TA.AperFunction,Conductor*%
D21*
G36*
X42243300Y-48385050D02*
G01*
X42402050Y-48543800D01*
X42741497Y-48546103D01*
X42743800Y-48885550D01*
X42902550Y-49044300D01*
X43240728Y-49044300D01*
X43240728Y-49298300D01*
X42953266Y-49298300D01*
X42948282Y-49296788D01*
X42823800Y-49284528D01*
X42522050Y-49287600D01*
X42363300Y-49446350D01*
X42363300Y-50520600D01*
X43207188Y-50520600D01*
X43244917Y-50532668D01*
X43347050Y-50543800D01*
X43505800Y-50385050D01*
X43505800Y-50384155D01*
X43557638Y-50426698D01*
X43634568Y-50467818D01*
X43710550Y-50543800D01*
X43812683Y-50532668D01*
X43812851Y-50532614D01*
X43814687Y-50533171D01*
X43953800Y-50546872D01*
X44103800Y-50546872D01*
X44242913Y-50533171D01*
X44278800Y-50522285D01*
X44314687Y-50533171D01*
X44453800Y-50546872D01*
X44603800Y-50546872D01*
X44742913Y-50533171D01*
X44778800Y-50522285D01*
X44814687Y-50533171D01*
X44953800Y-50546872D01*
X45103800Y-50546872D01*
X45242913Y-50533171D01*
X45278800Y-50522285D01*
X45314687Y-50533171D01*
X45453800Y-50546872D01*
X45603800Y-50546872D01*
X45742913Y-50533171D01*
X45778800Y-50522285D01*
X45814687Y-50533171D01*
X45953800Y-50546872D01*
X46103800Y-50546872D01*
X46242913Y-50533171D01*
X46278800Y-50522285D01*
X46314687Y-50533171D01*
X46453800Y-50546872D01*
X46603800Y-50546872D01*
X46742913Y-50533171D01*
X46778800Y-50522285D01*
X46814687Y-50533171D01*
X46953800Y-50546872D01*
X47103800Y-50546872D01*
X47242913Y-50533171D01*
X47278800Y-50522285D01*
X47314687Y-50533171D01*
X47453800Y-50546872D01*
X47522781Y-50546872D01*
X47542788Y-50563291D01*
X48036498Y-51057002D01*
X48060297Y-51086001D01*
X48089295Y-51109799D01*
X48176021Y-51180974D01*
X48281932Y-51237585D01*
X48308051Y-51251546D01*
X48451312Y-51295003D01*
X48562965Y-51306000D01*
X48562974Y-51306000D01*
X48600297Y-51309676D01*
X48637620Y-51306000D01*
X51119373Y-51306000D01*
X51370452Y-51410000D01*
X43458189Y-51410000D01*
X43461872Y-51372600D01*
X43458800Y-50933350D01*
X43300050Y-50774600D01*
X42363300Y-50774600D01*
X42363300Y-50794600D01*
X42109300Y-50794600D01*
X42109300Y-50774600D01*
X42089300Y-50774600D01*
X42089300Y-50520600D01*
X42109300Y-50520600D01*
X42109300Y-49446350D01*
X41950550Y-49287600D01*
X41648800Y-49284528D01*
X41524318Y-49296788D01*
X41404620Y-49333098D01*
X41294306Y-49392063D01*
X41197615Y-49471415D01*
X41132142Y-49551194D01*
X41126762Y-49544638D01*
X40992186Y-49434195D01*
X40838650Y-49352128D01*
X40811133Y-49343781D01*
X40901785Y-49269385D01*
X40981137Y-49172694D01*
X41040102Y-49062380D01*
X41076412Y-48942682D01*
X41088672Y-48818200D01*
X41085600Y-48516450D01*
X40941398Y-48372248D01*
X41032329Y-48444611D01*
X41143518Y-48501909D01*
X41263748Y-48536414D01*
X41388400Y-48546800D01*
X41830550Y-48543800D01*
X41989300Y-48385050D01*
X41989300Y-48046872D01*
X42243300Y-48046872D01*
X42243300Y-48385050D01*
G37*
%TD.AperFunction*%
D20*
X49051800Y-42060050D02*
X49227550Y-42235800D01*
X49228445Y-42235800D01*
X49185902Y-42287638D01*
X49144782Y-42364568D01*
X49068800Y-42440550D01*
X49079932Y-42542683D01*
X49079986Y-42542851D01*
X49079429Y-42544687D01*
X49065728Y-42683800D01*
X49065728Y-42833800D01*
X49079429Y-42972913D01*
X49090315Y-43008800D01*
X49079429Y-43044687D01*
X49065728Y-43183800D01*
X49065728Y-43333800D01*
X49079429Y-43472913D01*
X49090315Y-43508800D01*
X49079429Y-43544687D01*
X49065728Y-43683800D01*
X49065728Y-43833800D01*
X49079429Y-43972913D01*
X49090315Y-44008800D01*
X49079429Y-44044687D01*
X49065728Y-44183800D01*
X49065728Y-44333800D01*
X49079429Y-44472913D01*
X49090315Y-44508800D01*
X49079429Y-44544687D01*
X49065728Y-44683800D01*
X49065728Y-44833800D01*
X49079429Y-44972913D01*
X49090315Y-45008800D01*
X49079429Y-45044687D01*
X49065728Y-45183800D01*
X49065728Y-45333800D01*
X49079429Y-45472913D01*
X49090315Y-45508800D01*
X49079429Y-45544687D01*
X49065728Y-45683800D01*
X49065728Y-45833800D01*
X49079429Y-45972913D01*
X49090315Y-46008800D01*
X49079429Y-46044687D01*
X49065728Y-46183800D01*
X49065728Y-46333800D01*
X49079429Y-46472913D01*
X49090315Y-46508800D01*
X49079429Y-46544687D01*
X49065728Y-46683800D01*
X49065728Y-46833800D01*
X49079429Y-46972913D01*
X49090315Y-47008800D01*
X49079429Y-47044687D01*
X49065728Y-47183800D01*
X49065728Y-47333800D01*
X49079429Y-47472913D01*
X49090315Y-47508800D01*
X49079429Y-47544687D01*
X49065728Y-47683800D01*
X49065728Y-47795728D01*
X48953800Y-47795728D01*
X48814687Y-47809429D01*
X48778800Y-47820315D01*
X48742913Y-47809429D01*
X48603800Y-47795728D01*
X48453800Y-47795728D01*
X48314687Y-47809429D01*
X48278800Y-47820315D01*
X48242913Y-47809429D01*
X48103800Y-47795728D01*
X47953800Y-47795728D01*
X47814687Y-47809429D01*
X47778800Y-47820315D01*
X47742913Y-47809429D01*
X47603800Y-47795728D01*
X47453800Y-47795728D01*
X47314687Y-47809429D01*
X47278800Y-47820315D01*
X47242913Y-47809429D01*
X47103800Y-47795728D01*
X46953800Y-47795728D01*
X46814687Y-47809429D01*
X46778800Y-47820315D01*
X46742913Y-47809429D01*
X46603800Y-47795728D01*
X46453800Y-47795728D01*
X46314687Y-47809429D01*
X46278800Y-47820315D01*
X46242913Y-47809429D01*
X46103800Y-47795728D01*
X45953800Y-47795728D01*
X45814687Y-47809429D01*
X45778800Y-47820315D01*
X45742913Y-47809429D01*
X45603800Y-47795728D01*
X45453800Y-47795728D01*
X45314687Y-47809429D01*
X45278800Y-47820315D01*
X45242913Y-47809429D01*
X45103800Y-47795728D01*
X44953800Y-47795728D01*
X44814687Y-47809429D01*
X44778800Y-47820315D01*
X44742913Y-47809429D01*
X44603800Y-47795728D01*
X44453800Y-47795728D01*
X44314687Y-47809429D01*
X44278800Y-47820315D01*
X44242913Y-47809429D01*
X44103800Y-47795728D01*
X43953800Y-47795728D01*
X43814687Y-47809429D01*
X43812851Y-47809986D01*
X43812683Y-47809932D01*
X43770900Y-47805378D01*
X43888298Y-47782026D01*
X44076656Y-47704005D01*
X44246174Y-47590737D01*
X44390337Y-47446574D01*
X44503605Y-47277056D01*
X44581626Y-47088698D01*
X44607783Y-46957197D01*
X44802698Y-46918426D01*
X44991056Y-46840405D01*
X45160574Y-46727137D01*
X45304737Y-46582974D01*
X45418005Y-46413456D01*
X45496026Y-46225098D01*
X45535800Y-46025139D01*
X45535800Y-45821261D01*
X45496026Y-45621302D01*
X45418005Y-45432944D01*
X45304737Y-45263426D01*
X45160574Y-45119263D01*
X44991056Y-45005995D01*
X44802698Y-44927974D01*
X44602739Y-44888200D01*
X44398861Y-44888200D01*
X44198902Y-44927974D01*
X44010544Y-45005995D01*
X43841026Y-45119263D01*
X43797089Y-45163200D01*
X43489843Y-45163200D01*
X43478171Y-45044687D01*
X43467285Y-45008800D01*
X43478171Y-44972913D01*
X43491872Y-44833800D01*
X43491872Y-44683800D01*
X43478171Y-44544687D01*
X43477614Y-44542851D01*
X43477668Y-44542683D01*
X43480585Y-44515919D01*
X43562986Y-44507803D01*
X43706247Y-44464346D01*
X43792579Y-44418200D01*
X43891539Y-44418200D01*
X44091498Y-44378426D01*
X44279856Y-44300405D01*
X44449374Y-44187137D01*
X44593537Y-44042974D01*
X44706805Y-43873456D01*
X44784826Y-43685098D01*
X44824600Y-43485139D01*
X44824600Y-43281261D01*
X44784826Y-43081302D01*
X44706805Y-42892944D01*
X44694949Y-42875200D01*
X44706805Y-42857456D01*
X44784826Y-42669098D01*
X44824600Y-42469139D01*
X44824600Y-42265261D01*
X44814656Y-42215269D01*
X44847050Y-42218800D01*
X44923032Y-42142818D01*
X44999962Y-42101698D01*
X45028800Y-42078031D01*
X45057638Y-42101698D01*
X45134568Y-42142818D01*
X45210550Y-42218800D01*
X45312683Y-42207668D01*
X45312851Y-42207614D01*
X45314687Y-42208171D01*
X45453800Y-42221872D01*
X45603800Y-42221872D01*
X45742913Y-42208171D01*
X45778800Y-42197285D01*
X45814687Y-42208171D01*
X45953800Y-42221872D01*
X46103800Y-42221872D01*
X46242913Y-42208171D01*
X46278800Y-42197285D01*
X46314687Y-42208171D01*
X46453800Y-42221872D01*
X46603800Y-42221872D01*
X46742913Y-42208171D01*
X46778800Y-42197285D01*
X46814687Y-42208171D01*
X46953800Y-42221872D01*
X47103800Y-42221872D01*
X47242913Y-42208171D01*
X47278800Y-42197285D01*
X47314687Y-42208171D01*
X47453800Y-42221872D01*
X47603800Y-42221872D01*
X47742913Y-42208171D01*
X47778800Y-42197285D01*
X47814687Y-42208171D01*
X47953800Y-42221872D01*
X48103800Y-42221872D01*
X48242913Y-42208171D01*
X48278800Y-42197285D01*
X48314687Y-42208171D01*
X48453800Y-42221872D01*
X48603800Y-42221872D01*
X48742913Y-42208171D01*
X48744749Y-42207614D01*
X48744917Y-42207668D01*
X48847050Y-42218800D01*
X48923032Y-42142818D01*
X48999962Y-42101698D01*
X49051800Y-42059155D01*
X49051800Y-42060050D01*
%TA.AperFunction,Conductor*%
D21*
G36*
X49051800Y-42060050D02*
G01*
X49227550Y-42235800D01*
X49228445Y-42235800D01*
X49185902Y-42287638D01*
X49144782Y-42364568D01*
X49068800Y-42440550D01*
X49079932Y-42542683D01*
X49079986Y-42542851D01*
X49079429Y-42544687D01*
X49065728Y-42683800D01*
X49065728Y-42833800D01*
X49079429Y-42972913D01*
X49090315Y-43008800D01*
X49079429Y-43044687D01*
X49065728Y-43183800D01*
X49065728Y-43333800D01*
X49079429Y-43472913D01*
X49090315Y-43508800D01*
X49079429Y-43544687D01*
X49065728Y-43683800D01*
X49065728Y-43833800D01*
X49079429Y-43972913D01*
X49090315Y-44008800D01*
X49079429Y-44044687D01*
X49065728Y-44183800D01*
X49065728Y-44333800D01*
X49079429Y-44472913D01*
X49090315Y-44508800D01*
X49079429Y-44544687D01*
X49065728Y-44683800D01*
X49065728Y-44833800D01*
X49079429Y-44972913D01*
X49090315Y-45008800D01*
X49079429Y-45044687D01*
X49065728Y-45183800D01*
X49065728Y-45333800D01*
X49079429Y-45472913D01*
X49090315Y-45508800D01*
X49079429Y-45544687D01*
X49065728Y-45683800D01*
X49065728Y-45833800D01*
X49079429Y-45972913D01*
X49090315Y-46008800D01*
X49079429Y-46044687D01*
X49065728Y-46183800D01*
X49065728Y-46333800D01*
X49079429Y-46472913D01*
X49090315Y-46508800D01*
X49079429Y-46544687D01*
X49065728Y-46683800D01*
X49065728Y-46833800D01*
X49079429Y-46972913D01*
X49090315Y-47008800D01*
X49079429Y-47044687D01*
X49065728Y-47183800D01*
X49065728Y-47333800D01*
X49079429Y-47472913D01*
X49090315Y-47508800D01*
X49079429Y-47544687D01*
X49065728Y-47683800D01*
X49065728Y-47795728D01*
X48953800Y-47795728D01*
X48814687Y-47809429D01*
X48778800Y-47820315D01*
X48742913Y-47809429D01*
X48603800Y-47795728D01*
X48453800Y-47795728D01*
X48314687Y-47809429D01*
X48278800Y-47820315D01*
X48242913Y-47809429D01*
X48103800Y-47795728D01*
X47953800Y-47795728D01*
X47814687Y-47809429D01*
X47778800Y-47820315D01*
X47742913Y-47809429D01*
X47603800Y-47795728D01*
X47453800Y-47795728D01*
X47314687Y-47809429D01*
X47278800Y-47820315D01*
X47242913Y-47809429D01*
X47103800Y-47795728D01*
X46953800Y-47795728D01*
X46814687Y-47809429D01*
X46778800Y-47820315D01*
X46742913Y-47809429D01*
X46603800Y-47795728D01*
X46453800Y-47795728D01*
X46314687Y-47809429D01*
X46278800Y-47820315D01*
X46242913Y-47809429D01*
X46103800Y-47795728D01*
X45953800Y-47795728D01*
X45814687Y-47809429D01*
X45778800Y-47820315D01*
X45742913Y-47809429D01*
X45603800Y-47795728D01*
X45453800Y-47795728D01*
X45314687Y-47809429D01*
X45278800Y-47820315D01*
X45242913Y-47809429D01*
X45103800Y-47795728D01*
X44953800Y-47795728D01*
X44814687Y-47809429D01*
X44778800Y-47820315D01*
X44742913Y-47809429D01*
X44603800Y-47795728D01*
X44453800Y-47795728D01*
X44314687Y-47809429D01*
X44278800Y-47820315D01*
X44242913Y-47809429D01*
X44103800Y-47795728D01*
X43953800Y-47795728D01*
X43814687Y-47809429D01*
X43812851Y-47809986D01*
X43812683Y-47809932D01*
X43770900Y-47805378D01*
X43888298Y-47782026D01*
X44076656Y-47704005D01*
X44246174Y-47590737D01*
X44390337Y-47446574D01*
X44503605Y-47277056D01*
X44581626Y-47088698D01*
X44607783Y-46957197D01*
X44802698Y-46918426D01*
X44991056Y-46840405D01*
X45160574Y-46727137D01*
X45304737Y-46582974D01*
X45418005Y-46413456D01*
X45496026Y-46225098D01*
X45535800Y-46025139D01*
X45535800Y-45821261D01*
X45496026Y-45621302D01*
X45418005Y-45432944D01*
X45304737Y-45263426D01*
X45160574Y-45119263D01*
X44991056Y-45005995D01*
X44802698Y-44927974D01*
X44602739Y-44888200D01*
X44398861Y-44888200D01*
X44198902Y-44927974D01*
X44010544Y-45005995D01*
X43841026Y-45119263D01*
X43797089Y-45163200D01*
X43489843Y-45163200D01*
X43478171Y-45044687D01*
X43467285Y-45008800D01*
X43478171Y-44972913D01*
X43491872Y-44833800D01*
X43491872Y-44683800D01*
X43478171Y-44544687D01*
X43477614Y-44542851D01*
X43477668Y-44542683D01*
X43480585Y-44515919D01*
X43562986Y-44507803D01*
X43706247Y-44464346D01*
X43792579Y-44418200D01*
X43891539Y-44418200D01*
X44091498Y-44378426D01*
X44279856Y-44300405D01*
X44449374Y-44187137D01*
X44593537Y-44042974D01*
X44706805Y-43873456D01*
X44784826Y-43685098D01*
X44824600Y-43485139D01*
X44824600Y-43281261D01*
X44784826Y-43081302D01*
X44706805Y-42892944D01*
X44694949Y-42875200D01*
X44706805Y-42857456D01*
X44784826Y-42669098D01*
X44824600Y-42469139D01*
X44824600Y-42265261D01*
X44814656Y-42215269D01*
X44847050Y-42218800D01*
X44923032Y-42142818D01*
X44999962Y-42101698D01*
X45028800Y-42078031D01*
X45057638Y-42101698D01*
X45134568Y-42142818D01*
X45210550Y-42218800D01*
X45312683Y-42207668D01*
X45312851Y-42207614D01*
X45314687Y-42208171D01*
X45453800Y-42221872D01*
X45603800Y-42221872D01*
X45742913Y-42208171D01*
X45778800Y-42197285D01*
X45814687Y-42208171D01*
X45953800Y-42221872D01*
X46103800Y-42221872D01*
X46242913Y-42208171D01*
X46278800Y-42197285D01*
X46314687Y-42208171D01*
X46453800Y-42221872D01*
X46603800Y-42221872D01*
X46742913Y-42208171D01*
X46778800Y-42197285D01*
X46814687Y-42208171D01*
X46953800Y-42221872D01*
X47103800Y-42221872D01*
X47242913Y-42208171D01*
X47278800Y-42197285D01*
X47314687Y-42208171D01*
X47453800Y-42221872D01*
X47603800Y-42221872D01*
X47742913Y-42208171D01*
X47778800Y-42197285D01*
X47814687Y-42208171D01*
X47953800Y-42221872D01*
X48103800Y-42221872D01*
X48242913Y-42208171D01*
X48278800Y-42197285D01*
X48314687Y-42208171D01*
X48453800Y-42221872D01*
X48603800Y-42221872D01*
X48742913Y-42208171D01*
X48744749Y-42207614D01*
X48744917Y-42207668D01*
X48847050Y-42218800D01*
X48923032Y-42142818D01*
X48999962Y-42101698D01*
X49051800Y-42059155D01*
X49051800Y-42060050D01*
G37*
%TD.AperFunction*%
%TD*%
M02*
