%TF.GenerationSoftware,KiCad,Pcbnew,(5.1.8)-1*%
%TF.CreationDate,2021-01-31T15:43:31-07:00*%
%TF.ProjectId,Axle-Tx-PCB(STM32)v2,41786c65-2d54-4782-9d50-43422853544d,rev?*%
%TF.SameCoordinates,Original*%
%TF.FileFunction,Copper,L2,Bot*%
%TF.FilePolarity,Positive*%
%FSLAX46Y46*%
G04 Gerber Fmt 4.6, Leading zero omitted, Abs format (unit mm)*
G04 Created by KiCad (PCBNEW (5.1.8)-1) date 2021-01-31 15:43:31*
%MOMM*%
%LPD*%
G01*
G04 APERTURE LIST*
%TA.AperFunction,Profile*%
%ADD10C,0.050000*%
%TD*%
%TA.AperFunction,ComponentPad*%
%ADD11O,1.700000X1.700000*%
%TD*%
%TA.AperFunction,ComponentPad*%
%ADD12R,1.700000X1.700000*%
%TD*%
%TA.AperFunction,ComponentPad*%
%ADD13O,1.400000X1.400000*%
%TD*%
%TA.AperFunction,ComponentPad*%
%ADD14C,1.400000*%
%TD*%
%TA.AperFunction,ViaPad*%
%ADD15C,0.800000*%
%TD*%
%TA.AperFunction,Conductor*%
%ADD16C,0.250000*%
%TD*%
%TA.AperFunction,Conductor*%
%ADD17C,0.254000*%
%TD*%
%TA.AperFunction,Conductor*%
%ADD18C,0.100000*%
%TD*%
G04 APERTURE END LIST*
D10*
X67945000Y-36322000D02*
G75*
G02*
X68707000Y-37084000I0J-762000D01*
G01*
X68707000Y-51308000D02*
G75*
G02*
X67945000Y-52070000I-762000J0D01*
G01*
X23622000Y-52070000D02*
G75*
G02*
X22860000Y-51308000I0J762000D01*
G01*
X22860000Y-37084000D02*
G75*
G02*
X23622000Y-36322000I762000J0D01*
G01*
X22860000Y-51308000D02*
X22860000Y-37084000D01*
X67945000Y-52070000D02*
X23622000Y-52070000D01*
X68707000Y-37084000D02*
X68707000Y-51308000D01*
X23622000Y-36322000D02*
X67945000Y-36322000D01*
D11*
%TO.P,J1,8*%
%TO.N,SPI1-IRQ*%
X34798000Y-46583600D03*
%TO.P,J1,7*%
%TO.N,SPI1-MISO*%
X32258000Y-46583600D03*
%TO.P,J1,6*%
%TO.N,SPI1-MOSI*%
X34798000Y-44043600D03*
%TO.P,J1,5*%
%TO.N,SPI1-SCK*%
X32258000Y-44043600D03*
%TO.P,J1,4*%
%TO.N,SPI1-CSn*%
X34798000Y-41503600D03*
%TO.P,J1,3*%
%TO.N,SPI1-CE*%
X32258000Y-41503600D03*
%TO.P,J1,2*%
%TO.N,+3V3*%
X34798000Y-38963600D03*
D12*
%TO.P,J1,1*%
%TO.N,GND*%
X32258000Y-38963600D03*
%TD*%
D11*
%TO.P,SWD1,4*%
%TO.N,PA13-SWDIO*%
X51816000Y-49987200D03*
%TO.P,SWD1,3*%
%TO.N,GND*%
X54356000Y-49987200D03*
%TO.P,SWD1,2*%
%TO.N,PA14-SWCLK*%
X56896000Y-49987200D03*
D12*
%TO.P,SWD1,1*%
%TO.N,+3V3*%
X59436000Y-49987200D03*
%TD*%
D13*
%TO.P,SG4,2*%
%TO.N,GND*%
X24282400Y-41910000D03*
D14*
%TO.P,SG4,1*%
%TO.N,SDADC1-AIN8p*%
X29362400Y-41910000D03*
%TD*%
D13*
%TO.P,SG3,2*%
%TO.N,SDADC1-AIN8p*%
X29362400Y-39776400D03*
D14*
%TO.P,SG3,1*%
%TO.N,+3V3*%
X24282400Y-39776400D03*
%TD*%
D13*
%TO.P,SG2,2*%
%TO.N,GND*%
X24282400Y-44069000D03*
D14*
%TO.P,SG2,1*%
%TO.N,SDADC-AIN8m*%
X29362400Y-44069000D03*
%TD*%
D13*
%TO.P,SG1,2*%
%TO.N,SDADC-AIN8m*%
X29362400Y-46202600D03*
D14*
%TO.P,SG1,1*%
%TO.N,+3V3*%
X24282400Y-46202600D03*
%TD*%
D11*
%TO.P,B+1,2*%
%TO.N,Net-(B+1-Pad2)*%
X66446400Y-49936400D03*
D12*
%TO.P,B+1,1*%
%TO.N,GND*%
X63906400Y-49936400D03*
%TD*%
D15*
%TO.N,SDADC1-AIN8p*%
X44500800Y-45923200D03*
%TO.N,SPI1-IRQ*%
X43789600Y-42367200D03*
%TO.N,SPI1-MISO*%
X43789600Y-43383200D03*
%TO.N,SPI1-CE*%
X42164000Y-41097200D03*
%TO.N,SDADC-AIN8m*%
X43586400Y-46786800D03*
%TO.N,GND*%
X26009600Y-48514000D03*
X63906400Y-39928800D03*
X38963600Y-50800000D03*
X55778400Y-46634400D03*
X54356000Y-44166700D03*
X56612700Y-43818900D03*
X61010800Y-44907200D03*
X66802000Y-37998400D03*
X38150800Y-46177200D03*
X47091600Y-38709600D03*
%TD*%
D16*
%TO.N,SDADC1-AIN8p*%
X29362400Y-41910000D02*
X29362400Y-39776400D01*
X44500800Y-48260000D02*
X44500800Y-45923200D01*
X42773600Y-49987200D02*
X44500800Y-48260000D01*
X28041600Y-47853600D02*
X30175200Y-49987200D01*
X28041600Y-43230800D02*
X28041600Y-47853600D01*
X30175200Y-49987200D02*
X42773600Y-49987200D01*
X29362400Y-41910000D02*
X28041600Y-43230800D01*
%TO.N,SPI1-IRQ*%
X38684200Y-42849800D02*
X34848800Y-46685200D01*
X38760400Y-42773600D02*
X38684200Y-42849800D01*
X43383200Y-42773600D02*
X38760400Y-42773600D01*
X43789600Y-42367200D02*
X43383200Y-42773600D01*
%TO.N,SPI1-MISO*%
X32308800Y-46685200D02*
X33832800Y-48209200D01*
X33832800Y-48209200D02*
X36068000Y-48209200D01*
X39217600Y-43789600D02*
X36931600Y-46075600D01*
X36931600Y-47345600D02*
X36068000Y-48209200D01*
X36931600Y-46075600D02*
X36931600Y-47345600D01*
X43383200Y-43789600D02*
X43789600Y-43383200D01*
X39217600Y-43789600D02*
X43383200Y-43789600D01*
%TO.N,SPI1-CE*%
X33483801Y-42780201D02*
X37483799Y-42780201D01*
X32308800Y-41605200D02*
X33483801Y-42780201D01*
X39166800Y-41097200D02*
X42164000Y-41097200D01*
X37483799Y-42780201D02*
X39166800Y-41097200D01*
%TO.N,SDADC-AIN8m*%
X29362400Y-44069000D02*
X29362400Y-46202600D01*
X43586400Y-47802800D02*
X43586400Y-46786800D01*
X42011600Y-49377600D02*
X43586400Y-47802800D01*
X30581600Y-49377600D02*
X42011600Y-49377600D01*
X29362400Y-48158400D02*
X30581600Y-49377600D01*
X29362400Y-46202600D02*
X29362400Y-48158400D01*
%TD*%
D17*
%TO.N,GND*%
X67964197Y-36987047D02*
X67982662Y-36992622D01*
X67999694Y-37001678D01*
X68014643Y-37013870D01*
X68026938Y-37028732D01*
X68036111Y-37045696D01*
X68041817Y-37064129D01*
X68047000Y-37113446D01*
X68047001Y-51275713D01*
X68041953Y-51327195D01*
X68036377Y-51345663D01*
X68027322Y-51362693D01*
X68015129Y-51377643D01*
X68000266Y-51389939D01*
X67983303Y-51399111D01*
X67964871Y-51404817D01*
X67915554Y-51410000D01*
X66649971Y-51410000D01*
X66879558Y-51364332D01*
X67149811Y-51252390D01*
X67393032Y-51089875D01*
X67599875Y-50883032D01*
X67762390Y-50639811D01*
X67874332Y-50369558D01*
X67931400Y-50082660D01*
X67931400Y-49790140D01*
X67874332Y-49503242D01*
X67762390Y-49232989D01*
X67599875Y-48989768D01*
X67393032Y-48782925D01*
X67149811Y-48620410D01*
X66879558Y-48508468D01*
X66592660Y-48451400D01*
X66300140Y-48451400D01*
X66013242Y-48508468D01*
X65742989Y-48620410D01*
X65499768Y-48782925D01*
X65367913Y-48914780D01*
X65345902Y-48842220D01*
X65286937Y-48731906D01*
X65207585Y-48635215D01*
X65110894Y-48555863D01*
X65000580Y-48496898D01*
X64880882Y-48460588D01*
X64756400Y-48448328D01*
X64192150Y-48451400D01*
X64033400Y-48610150D01*
X64033400Y-49809400D01*
X64053400Y-49809400D01*
X64053400Y-50063400D01*
X64033400Y-50063400D01*
X64033400Y-50083400D01*
X63779400Y-50083400D01*
X63779400Y-50063400D01*
X62580150Y-50063400D01*
X62421400Y-50222150D01*
X62418328Y-50786400D01*
X62430588Y-50910882D01*
X62466898Y-51030580D01*
X62525863Y-51140894D01*
X62605215Y-51237585D01*
X62701906Y-51316937D01*
X62812220Y-51375902D01*
X62924626Y-51410000D01*
X60561427Y-51410000D01*
X60640494Y-51367737D01*
X60737185Y-51288385D01*
X60816537Y-51191694D01*
X60875502Y-51081380D01*
X60911812Y-50961682D01*
X60924072Y-50837200D01*
X60924072Y-49137200D01*
X60919069Y-49086400D01*
X62418328Y-49086400D01*
X62421400Y-49650650D01*
X62580150Y-49809400D01*
X63779400Y-49809400D01*
X63779400Y-48610150D01*
X63620650Y-48451400D01*
X63056400Y-48448328D01*
X62931918Y-48460588D01*
X62812220Y-48496898D01*
X62701906Y-48555863D01*
X62605215Y-48635215D01*
X62525863Y-48731906D01*
X62466898Y-48842220D01*
X62430588Y-48961918D01*
X62418328Y-49086400D01*
X60919069Y-49086400D01*
X60911812Y-49012718D01*
X60875502Y-48893020D01*
X60816537Y-48782706D01*
X60737185Y-48686015D01*
X60640494Y-48606663D01*
X60530180Y-48547698D01*
X60410482Y-48511388D01*
X60286000Y-48499128D01*
X58586000Y-48499128D01*
X58461518Y-48511388D01*
X58341820Y-48547698D01*
X58231506Y-48606663D01*
X58134815Y-48686015D01*
X58055463Y-48782706D01*
X57996498Y-48893020D01*
X57974487Y-48965580D01*
X57842632Y-48833725D01*
X57599411Y-48671210D01*
X57329158Y-48559268D01*
X57042260Y-48502200D01*
X56749740Y-48502200D01*
X56462842Y-48559268D01*
X56192589Y-48671210D01*
X55949368Y-48833725D01*
X55742525Y-49040568D01*
X55620805Y-49222734D01*
X55551178Y-49105845D01*
X55356269Y-48889612D01*
X55122920Y-48715559D01*
X54860099Y-48590375D01*
X54712890Y-48545724D01*
X54483000Y-48667045D01*
X54483000Y-49860200D01*
X54503000Y-49860200D01*
X54503000Y-50114200D01*
X54483000Y-50114200D01*
X54483000Y-50134200D01*
X54229000Y-50134200D01*
X54229000Y-50114200D01*
X54209000Y-50114200D01*
X54209000Y-49860200D01*
X54229000Y-49860200D01*
X54229000Y-48667045D01*
X53999110Y-48545724D01*
X53851901Y-48590375D01*
X53589080Y-48715559D01*
X53355731Y-48889612D01*
X53160822Y-49105845D01*
X53091195Y-49222734D01*
X52969475Y-49040568D01*
X52762632Y-48833725D01*
X52519411Y-48671210D01*
X52249158Y-48559268D01*
X51962260Y-48502200D01*
X51669740Y-48502200D01*
X51382842Y-48559268D01*
X51112589Y-48671210D01*
X50869368Y-48833725D01*
X50662525Y-49040568D01*
X50500010Y-49283789D01*
X50388068Y-49554042D01*
X50331000Y-49840940D01*
X50331000Y-50133460D01*
X50388068Y-50420358D01*
X50500010Y-50690611D01*
X50662525Y-50933832D01*
X50869368Y-51140675D01*
X51112589Y-51303190D01*
X51370452Y-51410000D01*
X23654277Y-51410000D01*
X23602805Y-51404953D01*
X23584337Y-51399377D01*
X23567307Y-51390322D01*
X23552357Y-51378129D01*
X23540061Y-51363266D01*
X23530889Y-51346303D01*
X23525183Y-51327871D01*
X23520000Y-51278554D01*
X23520000Y-47298771D01*
X23650041Y-47385661D01*
X23892995Y-47486296D01*
X24150914Y-47537600D01*
X24413886Y-47537600D01*
X24671805Y-47486296D01*
X24914759Y-47385661D01*
X25133413Y-47239562D01*
X25319362Y-47053613D01*
X25465461Y-46834959D01*
X25566096Y-46592005D01*
X25617400Y-46334086D01*
X25617400Y-46071114D01*
X25566096Y-45813195D01*
X25465461Y-45570241D01*
X25319362Y-45351587D01*
X25133413Y-45165638D01*
X25086591Y-45134352D01*
X25277751Y-44958670D01*
X25432192Y-44747392D01*
X25542447Y-44510044D01*
X25575116Y-44402329D01*
X25451774Y-44196000D01*
X24409400Y-44196000D01*
X24409400Y-44216000D01*
X24155400Y-44216000D01*
X24155400Y-44196000D01*
X24135400Y-44196000D01*
X24135400Y-43942000D01*
X24155400Y-43942000D01*
X24155400Y-42037000D01*
X24409400Y-42037000D01*
X24409400Y-43942000D01*
X25451774Y-43942000D01*
X25575116Y-43735671D01*
X25542447Y-43627956D01*
X25432192Y-43390608D01*
X25315375Y-43230800D01*
X27277924Y-43230800D01*
X27281600Y-43268123D01*
X27281601Y-47816268D01*
X27277924Y-47853600D01*
X27281601Y-47890933D01*
X27287595Y-47951785D01*
X27292598Y-48002585D01*
X27336054Y-48145846D01*
X27406626Y-48277876D01*
X27477801Y-48364602D01*
X27501600Y-48393601D01*
X27530598Y-48417399D01*
X29611401Y-50498203D01*
X29635199Y-50527201D01*
X29664197Y-50550999D01*
X29750923Y-50622174D01*
X29823580Y-50661010D01*
X29882953Y-50692746D01*
X30026214Y-50736203D01*
X30137867Y-50747200D01*
X30137876Y-50747200D01*
X30175199Y-50750876D01*
X30212522Y-50747200D01*
X42736278Y-50747200D01*
X42773600Y-50750876D01*
X42810922Y-50747200D01*
X42810933Y-50747200D01*
X42922586Y-50736203D01*
X43065847Y-50692746D01*
X43197876Y-50622174D01*
X43313601Y-50527201D01*
X43337404Y-50498197D01*
X45011804Y-48823798D01*
X45040801Y-48800001D01*
X45135774Y-48684276D01*
X45206346Y-48552247D01*
X45249803Y-48408986D01*
X45260800Y-48297333D01*
X45260800Y-48297325D01*
X45264476Y-48260000D01*
X45260800Y-48222675D01*
X45260800Y-46626911D01*
X45304737Y-46582974D01*
X45418005Y-46413456D01*
X45496026Y-46225098D01*
X45535800Y-46025139D01*
X45535800Y-45821261D01*
X45496026Y-45621302D01*
X45418005Y-45432944D01*
X45304737Y-45263426D01*
X45160574Y-45119263D01*
X44991056Y-45005995D01*
X44802698Y-44927974D01*
X44602739Y-44888200D01*
X44398861Y-44888200D01*
X44198902Y-44927974D01*
X44010544Y-45005995D01*
X43841026Y-45119263D01*
X43696863Y-45263426D01*
X43583595Y-45432944D01*
X43505574Y-45621302D01*
X43479417Y-45752803D01*
X43284502Y-45791574D01*
X43096144Y-45869595D01*
X42926626Y-45982863D01*
X42782463Y-46127026D01*
X42669195Y-46296544D01*
X42591174Y-46484902D01*
X42551400Y-46684861D01*
X42551400Y-46888739D01*
X42591174Y-47088698D01*
X42669195Y-47277056D01*
X42782463Y-47446574D01*
X42825144Y-47489255D01*
X41696799Y-48617600D01*
X36734401Y-48617600D01*
X37442603Y-47909399D01*
X37471601Y-47885601D01*
X37566574Y-47769876D01*
X37637146Y-47637847D01*
X37680603Y-47494586D01*
X37691600Y-47382933D01*
X37691600Y-47382923D01*
X37695276Y-47345600D01*
X37691600Y-47308277D01*
X37691600Y-46390401D01*
X39532402Y-44549600D01*
X43345878Y-44549600D01*
X43383200Y-44553276D01*
X43420522Y-44549600D01*
X43420533Y-44549600D01*
X43532186Y-44538603D01*
X43675447Y-44495146D01*
X43807476Y-44424574D01*
X43815243Y-44418200D01*
X43891539Y-44418200D01*
X44091498Y-44378426D01*
X44279856Y-44300405D01*
X44449374Y-44187137D01*
X44593537Y-44042974D01*
X44706805Y-43873456D01*
X44784826Y-43685098D01*
X44824600Y-43485139D01*
X44824600Y-43281261D01*
X44784826Y-43081302D01*
X44706805Y-42892944D01*
X44694949Y-42875200D01*
X44706805Y-42857456D01*
X44784826Y-42669098D01*
X44824600Y-42469139D01*
X44824600Y-42265261D01*
X44784826Y-42065302D01*
X44706805Y-41876944D01*
X44593537Y-41707426D01*
X44449374Y-41563263D01*
X44279856Y-41449995D01*
X44091498Y-41371974D01*
X43891539Y-41332200D01*
X43687661Y-41332200D01*
X43487702Y-41371974D01*
X43299344Y-41449995D01*
X43129826Y-41563263D01*
X43032015Y-41661074D01*
X43081205Y-41587456D01*
X43159226Y-41399098D01*
X43199000Y-41199139D01*
X43199000Y-40995261D01*
X43159226Y-40795302D01*
X43081205Y-40606944D01*
X42967937Y-40437426D01*
X42823774Y-40293263D01*
X42654256Y-40179995D01*
X42465898Y-40101974D01*
X42265939Y-40062200D01*
X42062061Y-40062200D01*
X41862102Y-40101974D01*
X41673744Y-40179995D01*
X41504226Y-40293263D01*
X41460289Y-40337200D01*
X39204123Y-40337200D01*
X39166800Y-40333524D01*
X39129477Y-40337200D01*
X39129467Y-40337200D01*
X39017814Y-40348197D01*
X38874553Y-40391654D01*
X38742524Y-40462226D01*
X38626799Y-40557199D01*
X38603001Y-40586197D01*
X37168998Y-42020201D01*
X36191369Y-42020201D01*
X36225932Y-41936758D01*
X36283000Y-41649860D01*
X36283000Y-41357340D01*
X36225932Y-41070442D01*
X36113990Y-40800189D01*
X35951475Y-40556968D01*
X35744632Y-40350125D01*
X35570240Y-40233600D01*
X35744632Y-40117075D01*
X35951475Y-39910232D01*
X36113990Y-39667011D01*
X36225932Y-39396758D01*
X36283000Y-39109860D01*
X36283000Y-38817340D01*
X36225932Y-38530442D01*
X36113990Y-38260189D01*
X35951475Y-38016968D01*
X35744632Y-37810125D01*
X35501411Y-37647610D01*
X35231158Y-37535668D01*
X34944260Y-37478600D01*
X34651740Y-37478600D01*
X34364842Y-37535668D01*
X34094589Y-37647610D01*
X33851368Y-37810125D01*
X33719513Y-37941980D01*
X33697502Y-37869420D01*
X33638537Y-37759106D01*
X33559185Y-37662415D01*
X33462494Y-37583063D01*
X33352180Y-37524098D01*
X33232482Y-37487788D01*
X33108000Y-37475528D01*
X32543750Y-37478600D01*
X32385000Y-37637350D01*
X32385000Y-38836600D01*
X32405000Y-38836600D01*
X32405000Y-39090600D01*
X32385000Y-39090600D01*
X32385000Y-39110600D01*
X32131000Y-39110600D01*
X32131000Y-39090600D01*
X30931750Y-39090600D01*
X30773000Y-39249350D01*
X30769928Y-39813600D01*
X30782188Y-39938082D01*
X30818498Y-40057780D01*
X30877463Y-40168094D01*
X30956815Y-40264785D01*
X31053506Y-40344137D01*
X31163820Y-40403102D01*
X31236380Y-40425113D01*
X31104525Y-40556968D01*
X30942010Y-40800189D01*
X30830068Y-41070442D01*
X30773000Y-41357340D01*
X30773000Y-41649860D01*
X30830068Y-41936758D01*
X30942010Y-42207011D01*
X31104525Y-42450232D01*
X31311368Y-42657075D01*
X31485760Y-42773600D01*
X31311368Y-42890125D01*
X31104525Y-43096968D01*
X30942010Y-43340189D01*
X30830068Y-43610442D01*
X30773000Y-43897340D01*
X30773000Y-44189860D01*
X30830068Y-44476758D01*
X30942010Y-44747011D01*
X31104525Y-44990232D01*
X31311368Y-45197075D01*
X31485760Y-45313600D01*
X31311368Y-45430125D01*
X31104525Y-45636968D01*
X30942010Y-45880189D01*
X30830068Y-46150442D01*
X30773000Y-46437340D01*
X30773000Y-46729860D01*
X30830068Y-47016758D01*
X30942010Y-47287011D01*
X31104525Y-47530232D01*
X31311368Y-47737075D01*
X31554589Y-47899590D01*
X31824842Y-48011532D01*
X32111740Y-48068600D01*
X32404260Y-48068600D01*
X32582036Y-48033238D01*
X33166397Y-48617600D01*
X30896402Y-48617600D01*
X30122400Y-47843599D01*
X30122400Y-47300375D01*
X30213413Y-47239562D01*
X30399362Y-47053613D01*
X30545461Y-46834959D01*
X30646096Y-46592005D01*
X30697400Y-46334086D01*
X30697400Y-46071114D01*
X30646096Y-45813195D01*
X30545461Y-45570241D01*
X30399362Y-45351587D01*
X30213413Y-45165638D01*
X30168757Y-45135800D01*
X30213413Y-45105962D01*
X30399362Y-44920013D01*
X30545461Y-44701359D01*
X30646096Y-44458405D01*
X30697400Y-44200486D01*
X30697400Y-43937514D01*
X30646096Y-43679595D01*
X30545461Y-43436641D01*
X30399362Y-43217987D01*
X30213413Y-43032038D01*
X30149750Y-42989500D01*
X30213413Y-42946962D01*
X30399362Y-42761013D01*
X30545461Y-42542359D01*
X30646096Y-42299405D01*
X30697400Y-42041486D01*
X30697400Y-41778514D01*
X30646096Y-41520595D01*
X30545461Y-41277641D01*
X30399362Y-41058987D01*
X30213413Y-40873038D01*
X30168757Y-40843200D01*
X30213413Y-40813362D01*
X30399362Y-40627413D01*
X30545461Y-40408759D01*
X30646096Y-40165805D01*
X30697400Y-39907886D01*
X30697400Y-39644914D01*
X30646096Y-39386995D01*
X30545461Y-39144041D01*
X30399362Y-38925387D01*
X30213413Y-38739438D01*
X29994759Y-38593339D01*
X29751805Y-38492704D01*
X29493886Y-38441400D01*
X29230914Y-38441400D01*
X28972995Y-38492704D01*
X28730041Y-38593339D01*
X28511387Y-38739438D01*
X28325438Y-38925387D01*
X28179339Y-39144041D01*
X28078704Y-39386995D01*
X28027400Y-39644914D01*
X28027400Y-39907886D01*
X28078704Y-40165805D01*
X28179339Y-40408759D01*
X28325438Y-40627413D01*
X28511387Y-40813362D01*
X28556043Y-40843200D01*
X28511387Y-40873038D01*
X28325438Y-41058987D01*
X28179339Y-41277641D01*
X28078704Y-41520595D01*
X28027400Y-41778514D01*
X28027400Y-42041486D01*
X28048755Y-42148844D01*
X27530603Y-42666996D01*
X27501599Y-42690799D01*
X27446471Y-42757974D01*
X27406626Y-42806524D01*
X27379402Y-42857456D01*
X27336054Y-42938554D01*
X27292597Y-43081815D01*
X27281600Y-43193468D01*
X27281600Y-43193478D01*
X27277924Y-43230800D01*
X25315375Y-43230800D01*
X25277751Y-43179330D01*
X25085060Y-43002241D01*
X25064133Y-42989500D01*
X25085060Y-42976759D01*
X25277751Y-42799670D01*
X25432192Y-42588392D01*
X25542447Y-42351044D01*
X25575116Y-42243329D01*
X25451774Y-42037000D01*
X24409400Y-42037000D01*
X24155400Y-42037000D01*
X24135400Y-42037000D01*
X24135400Y-41783000D01*
X24155400Y-41783000D01*
X24155400Y-41763000D01*
X24409400Y-41763000D01*
X24409400Y-41783000D01*
X25451774Y-41783000D01*
X25575116Y-41576671D01*
X25542447Y-41468956D01*
X25432192Y-41231608D01*
X25277751Y-41020330D01*
X25086591Y-40844648D01*
X25133413Y-40813362D01*
X25319362Y-40627413D01*
X25465461Y-40408759D01*
X25566096Y-40165805D01*
X25617400Y-39907886D01*
X25617400Y-39644914D01*
X25566096Y-39386995D01*
X25465461Y-39144041D01*
X25319362Y-38925387D01*
X25133413Y-38739438D01*
X24914759Y-38593339D01*
X24671805Y-38492704D01*
X24413886Y-38441400D01*
X24150914Y-38441400D01*
X23892995Y-38492704D01*
X23650041Y-38593339D01*
X23520000Y-38680229D01*
X23520000Y-38113600D01*
X30769928Y-38113600D01*
X30773000Y-38677850D01*
X30931750Y-38836600D01*
X32131000Y-38836600D01*
X32131000Y-37637350D01*
X31972250Y-37478600D01*
X31408000Y-37475528D01*
X31283518Y-37487788D01*
X31163820Y-37524098D01*
X31053506Y-37583063D01*
X30956815Y-37662415D01*
X30877463Y-37759106D01*
X30818498Y-37869420D01*
X30782188Y-37989118D01*
X30769928Y-38113600D01*
X23520000Y-38113600D01*
X23520000Y-37116277D01*
X23525047Y-37064803D01*
X23530622Y-37046338D01*
X23539678Y-37029306D01*
X23551870Y-37014357D01*
X23566732Y-37002062D01*
X23583696Y-36992889D01*
X23602129Y-36987183D01*
X23651446Y-36982000D01*
X67912723Y-36982000D01*
X67964197Y-36987047D01*
%TA.AperFunction,Conductor*%
D18*
G36*
X67964197Y-36987047D02*
G01*
X67982662Y-36992622D01*
X67999694Y-37001678D01*
X68014643Y-37013870D01*
X68026938Y-37028732D01*
X68036111Y-37045696D01*
X68041817Y-37064129D01*
X68047000Y-37113446D01*
X68047001Y-51275713D01*
X68041953Y-51327195D01*
X68036377Y-51345663D01*
X68027322Y-51362693D01*
X68015129Y-51377643D01*
X68000266Y-51389939D01*
X67983303Y-51399111D01*
X67964871Y-51404817D01*
X67915554Y-51410000D01*
X66649971Y-51410000D01*
X66879558Y-51364332D01*
X67149811Y-51252390D01*
X67393032Y-51089875D01*
X67599875Y-50883032D01*
X67762390Y-50639811D01*
X67874332Y-50369558D01*
X67931400Y-50082660D01*
X67931400Y-49790140D01*
X67874332Y-49503242D01*
X67762390Y-49232989D01*
X67599875Y-48989768D01*
X67393032Y-48782925D01*
X67149811Y-48620410D01*
X66879558Y-48508468D01*
X66592660Y-48451400D01*
X66300140Y-48451400D01*
X66013242Y-48508468D01*
X65742989Y-48620410D01*
X65499768Y-48782925D01*
X65367913Y-48914780D01*
X65345902Y-48842220D01*
X65286937Y-48731906D01*
X65207585Y-48635215D01*
X65110894Y-48555863D01*
X65000580Y-48496898D01*
X64880882Y-48460588D01*
X64756400Y-48448328D01*
X64192150Y-48451400D01*
X64033400Y-48610150D01*
X64033400Y-49809400D01*
X64053400Y-49809400D01*
X64053400Y-50063400D01*
X64033400Y-50063400D01*
X64033400Y-50083400D01*
X63779400Y-50083400D01*
X63779400Y-50063400D01*
X62580150Y-50063400D01*
X62421400Y-50222150D01*
X62418328Y-50786400D01*
X62430588Y-50910882D01*
X62466898Y-51030580D01*
X62525863Y-51140894D01*
X62605215Y-51237585D01*
X62701906Y-51316937D01*
X62812220Y-51375902D01*
X62924626Y-51410000D01*
X60561427Y-51410000D01*
X60640494Y-51367737D01*
X60737185Y-51288385D01*
X60816537Y-51191694D01*
X60875502Y-51081380D01*
X60911812Y-50961682D01*
X60924072Y-50837200D01*
X60924072Y-49137200D01*
X60919069Y-49086400D01*
X62418328Y-49086400D01*
X62421400Y-49650650D01*
X62580150Y-49809400D01*
X63779400Y-49809400D01*
X63779400Y-48610150D01*
X63620650Y-48451400D01*
X63056400Y-48448328D01*
X62931918Y-48460588D01*
X62812220Y-48496898D01*
X62701906Y-48555863D01*
X62605215Y-48635215D01*
X62525863Y-48731906D01*
X62466898Y-48842220D01*
X62430588Y-48961918D01*
X62418328Y-49086400D01*
X60919069Y-49086400D01*
X60911812Y-49012718D01*
X60875502Y-48893020D01*
X60816537Y-48782706D01*
X60737185Y-48686015D01*
X60640494Y-48606663D01*
X60530180Y-48547698D01*
X60410482Y-48511388D01*
X60286000Y-48499128D01*
X58586000Y-48499128D01*
X58461518Y-48511388D01*
X58341820Y-48547698D01*
X58231506Y-48606663D01*
X58134815Y-48686015D01*
X58055463Y-48782706D01*
X57996498Y-48893020D01*
X57974487Y-48965580D01*
X57842632Y-48833725D01*
X57599411Y-48671210D01*
X57329158Y-48559268D01*
X57042260Y-48502200D01*
X56749740Y-48502200D01*
X56462842Y-48559268D01*
X56192589Y-48671210D01*
X55949368Y-48833725D01*
X55742525Y-49040568D01*
X55620805Y-49222734D01*
X55551178Y-49105845D01*
X55356269Y-48889612D01*
X55122920Y-48715559D01*
X54860099Y-48590375D01*
X54712890Y-48545724D01*
X54483000Y-48667045D01*
X54483000Y-49860200D01*
X54503000Y-49860200D01*
X54503000Y-50114200D01*
X54483000Y-50114200D01*
X54483000Y-50134200D01*
X54229000Y-50134200D01*
X54229000Y-50114200D01*
X54209000Y-50114200D01*
X54209000Y-49860200D01*
X54229000Y-49860200D01*
X54229000Y-48667045D01*
X53999110Y-48545724D01*
X53851901Y-48590375D01*
X53589080Y-48715559D01*
X53355731Y-48889612D01*
X53160822Y-49105845D01*
X53091195Y-49222734D01*
X52969475Y-49040568D01*
X52762632Y-48833725D01*
X52519411Y-48671210D01*
X52249158Y-48559268D01*
X51962260Y-48502200D01*
X51669740Y-48502200D01*
X51382842Y-48559268D01*
X51112589Y-48671210D01*
X50869368Y-48833725D01*
X50662525Y-49040568D01*
X50500010Y-49283789D01*
X50388068Y-49554042D01*
X50331000Y-49840940D01*
X50331000Y-50133460D01*
X50388068Y-50420358D01*
X50500010Y-50690611D01*
X50662525Y-50933832D01*
X50869368Y-51140675D01*
X51112589Y-51303190D01*
X51370452Y-51410000D01*
X23654277Y-51410000D01*
X23602805Y-51404953D01*
X23584337Y-51399377D01*
X23567307Y-51390322D01*
X23552357Y-51378129D01*
X23540061Y-51363266D01*
X23530889Y-51346303D01*
X23525183Y-51327871D01*
X23520000Y-51278554D01*
X23520000Y-47298771D01*
X23650041Y-47385661D01*
X23892995Y-47486296D01*
X24150914Y-47537600D01*
X24413886Y-47537600D01*
X24671805Y-47486296D01*
X24914759Y-47385661D01*
X25133413Y-47239562D01*
X25319362Y-47053613D01*
X25465461Y-46834959D01*
X25566096Y-46592005D01*
X25617400Y-46334086D01*
X25617400Y-46071114D01*
X25566096Y-45813195D01*
X25465461Y-45570241D01*
X25319362Y-45351587D01*
X25133413Y-45165638D01*
X25086591Y-45134352D01*
X25277751Y-44958670D01*
X25432192Y-44747392D01*
X25542447Y-44510044D01*
X25575116Y-44402329D01*
X25451774Y-44196000D01*
X24409400Y-44196000D01*
X24409400Y-44216000D01*
X24155400Y-44216000D01*
X24155400Y-44196000D01*
X24135400Y-44196000D01*
X24135400Y-43942000D01*
X24155400Y-43942000D01*
X24155400Y-42037000D01*
X24409400Y-42037000D01*
X24409400Y-43942000D01*
X25451774Y-43942000D01*
X25575116Y-43735671D01*
X25542447Y-43627956D01*
X25432192Y-43390608D01*
X25315375Y-43230800D01*
X27277924Y-43230800D01*
X27281600Y-43268123D01*
X27281601Y-47816268D01*
X27277924Y-47853600D01*
X27281601Y-47890933D01*
X27287595Y-47951785D01*
X27292598Y-48002585D01*
X27336054Y-48145846D01*
X27406626Y-48277876D01*
X27477801Y-48364602D01*
X27501600Y-48393601D01*
X27530598Y-48417399D01*
X29611401Y-50498203D01*
X29635199Y-50527201D01*
X29664197Y-50550999D01*
X29750923Y-50622174D01*
X29823580Y-50661010D01*
X29882953Y-50692746D01*
X30026214Y-50736203D01*
X30137867Y-50747200D01*
X30137876Y-50747200D01*
X30175199Y-50750876D01*
X30212522Y-50747200D01*
X42736278Y-50747200D01*
X42773600Y-50750876D01*
X42810922Y-50747200D01*
X42810933Y-50747200D01*
X42922586Y-50736203D01*
X43065847Y-50692746D01*
X43197876Y-50622174D01*
X43313601Y-50527201D01*
X43337404Y-50498197D01*
X45011804Y-48823798D01*
X45040801Y-48800001D01*
X45135774Y-48684276D01*
X45206346Y-48552247D01*
X45249803Y-48408986D01*
X45260800Y-48297333D01*
X45260800Y-48297325D01*
X45264476Y-48260000D01*
X45260800Y-48222675D01*
X45260800Y-46626911D01*
X45304737Y-46582974D01*
X45418005Y-46413456D01*
X45496026Y-46225098D01*
X45535800Y-46025139D01*
X45535800Y-45821261D01*
X45496026Y-45621302D01*
X45418005Y-45432944D01*
X45304737Y-45263426D01*
X45160574Y-45119263D01*
X44991056Y-45005995D01*
X44802698Y-44927974D01*
X44602739Y-44888200D01*
X44398861Y-44888200D01*
X44198902Y-44927974D01*
X44010544Y-45005995D01*
X43841026Y-45119263D01*
X43696863Y-45263426D01*
X43583595Y-45432944D01*
X43505574Y-45621302D01*
X43479417Y-45752803D01*
X43284502Y-45791574D01*
X43096144Y-45869595D01*
X42926626Y-45982863D01*
X42782463Y-46127026D01*
X42669195Y-46296544D01*
X42591174Y-46484902D01*
X42551400Y-46684861D01*
X42551400Y-46888739D01*
X42591174Y-47088698D01*
X42669195Y-47277056D01*
X42782463Y-47446574D01*
X42825144Y-47489255D01*
X41696799Y-48617600D01*
X36734401Y-48617600D01*
X37442603Y-47909399D01*
X37471601Y-47885601D01*
X37566574Y-47769876D01*
X37637146Y-47637847D01*
X37680603Y-47494586D01*
X37691600Y-47382933D01*
X37691600Y-47382923D01*
X37695276Y-47345600D01*
X37691600Y-47308277D01*
X37691600Y-46390401D01*
X39532402Y-44549600D01*
X43345878Y-44549600D01*
X43383200Y-44553276D01*
X43420522Y-44549600D01*
X43420533Y-44549600D01*
X43532186Y-44538603D01*
X43675447Y-44495146D01*
X43807476Y-44424574D01*
X43815243Y-44418200D01*
X43891539Y-44418200D01*
X44091498Y-44378426D01*
X44279856Y-44300405D01*
X44449374Y-44187137D01*
X44593537Y-44042974D01*
X44706805Y-43873456D01*
X44784826Y-43685098D01*
X44824600Y-43485139D01*
X44824600Y-43281261D01*
X44784826Y-43081302D01*
X44706805Y-42892944D01*
X44694949Y-42875200D01*
X44706805Y-42857456D01*
X44784826Y-42669098D01*
X44824600Y-42469139D01*
X44824600Y-42265261D01*
X44784826Y-42065302D01*
X44706805Y-41876944D01*
X44593537Y-41707426D01*
X44449374Y-41563263D01*
X44279856Y-41449995D01*
X44091498Y-41371974D01*
X43891539Y-41332200D01*
X43687661Y-41332200D01*
X43487702Y-41371974D01*
X43299344Y-41449995D01*
X43129826Y-41563263D01*
X43032015Y-41661074D01*
X43081205Y-41587456D01*
X43159226Y-41399098D01*
X43199000Y-41199139D01*
X43199000Y-40995261D01*
X43159226Y-40795302D01*
X43081205Y-40606944D01*
X42967937Y-40437426D01*
X42823774Y-40293263D01*
X42654256Y-40179995D01*
X42465898Y-40101974D01*
X42265939Y-40062200D01*
X42062061Y-40062200D01*
X41862102Y-40101974D01*
X41673744Y-40179995D01*
X41504226Y-40293263D01*
X41460289Y-40337200D01*
X39204123Y-40337200D01*
X39166800Y-40333524D01*
X39129477Y-40337200D01*
X39129467Y-40337200D01*
X39017814Y-40348197D01*
X38874553Y-40391654D01*
X38742524Y-40462226D01*
X38626799Y-40557199D01*
X38603001Y-40586197D01*
X37168998Y-42020201D01*
X36191369Y-42020201D01*
X36225932Y-41936758D01*
X36283000Y-41649860D01*
X36283000Y-41357340D01*
X36225932Y-41070442D01*
X36113990Y-40800189D01*
X35951475Y-40556968D01*
X35744632Y-40350125D01*
X35570240Y-40233600D01*
X35744632Y-40117075D01*
X35951475Y-39910232D01*
X36113990Y-39667011D01*
X36225932Y-39396758D01*
X36283000Y-39109860D01*
X36283000Y-38817340D01*
X36225932Y-38530442D01*
X36113990Y-38260189D01*
X35951475Y-38016968D01*
X35744632Y-37810125D01*
X35501411Y-37647610D01*
X35231158Y-37535668D01*
X34944260Y-37478600D01*
X34651740Y-37478600D01*
X34364842Y-37535668D01*
X34094589Y-37647610D01*
X33851368Y-37810125D01*
X33719513Y-37941980D01*
X33697502Y-37869420D01*
X33638537Y-37759106D01*
X33559185Y-37662415D01*
X33462494Y-37583063D01*
X33352180Y-37524098D01*
X33232482Y-37487788D01*
X33108000Y-37475528D01*
X32543750Y-37478600D01*
X32385000Y-37637350D01*
X32385000Y-38836600D01*
X32405000Y-38836600D01*
X32405000Y-39090600D01*
X32385000Y-39090600D01*
X32385000Y-39110600D01*
X32131000Y-39110600D01*
X32131000Y-39090600D01*
X30931750Y-39090600D01*
X30773000Y-39249350D01*
X30769928Y-39813600D01*
X30782188Y-39938082D01*
X30818498Y-40057780D01*
X30877463Y-40168094D01*
X30956815Y-40264785D01*
X31053506Y-40344137D01*
X31163820Y-40403102D01*
X31236380Y-40425113D01*
X31104525Y-40556968D01*
X30942010Y-40800189D01*
X30830068Y-41070442D01*
X30773000Y-41357340D01*
X30773000Y-41649860D01*
X30830068Y-41936758D01*
X30942010Y-42207011D01*
X31104525Y-42450232D01*
X31311368Y-42657075D01*
X31485760Y-42773600D01*
X31311368Y-42890125D01*
X31104525Y-43096968D01*
X30942010Y-43340189D01*
X30830068Y-43610442D01*
X30773000Y-43897340D01*
X30773000Y-44189860D01*
X30830068Y-44476758D01*
X30942010Y-44747011D01*
X31104525Y-44990232D01*
X31311368Y-45197075D01*
X31485760Y-45313600D01*
X31311368Y-45430125D01*
X31104525Y-45636968D01*
X30942010Y-45880189D01*
X30830068Y-46150442D01*
X30773000Y-46437340D01*
X30773000Y-46729860D01*
X30830068Y-47016758D01*
X30942010Y-47287011D01*
X31104525Y-47530232D01*
X31311368Y-47737075D01*
X31554589Y-47899590D01*
X31824842Y-48011532D01*
X32111740Y-48068600D01*
X32404260Y-48068600D01*
X32582036Y-48033238D01*
X33166397Y-48617600D01*
X30896402Y-48617600D01*
X30122400Y-47843599D01*
X30122400Y-47300375D01*
X30213413Y-47239562D01*
X30399362Y-47053613D01*
X30545461Y-46834959D01*
X30646096Y-46592005D01*
X30697400Y-46334086D01*
X30697400Y-46071114D01*
X30646096Y-45813195D01*
X30545461Y-45570241D01*
X30399362Y-45351587D01*
X30213413Y-45165638D01*
X30168757Y-45135800D01*
X30213413Y-45105962D01*
X30399362Y-44920013D01*
X30545461Y-44701359D01*
X30646096Y-44458405D01*
X30697400Y-44200486D01*
X30697400Y-43937514D01*
X30646096Y-43679595D01*
X30545461Y-43436641D01*
X30399362Y-43217987D01*
X30213413Y-43032038D01*
X30149750Y-42989500D01*
X30213413Y-42946962D01*
X30399362Y-42761013D01*
X30545461Y-42542359D01*
X30646096Y-42299405D01*
X30697400Y-42041486D01*
X30697400Y-41778514D01*
X30646096Y-41520595D01*
X30545461Y-41277641D01*
X30399362Y-41058987D01*
X30213413Y-40873038D01*
X30168757Y-40843200D01*
X30213413Y-40813362D01*
X30399362Y-40627413D01*
X30545461Y-40408759D01*
X30646096Y-40165805D01*
X30697400Y-39907886D01*
X30697400Y-39644914D01*
X30646096Y-39386995D01*
X30545461Y-39144041D01*
X30399362Y-38925387D01*
X30213413Y-38739438D01*
X29994759Y-38593339D01*
X29751805Y-38492704D01*
X29493886Y-38441400D01*
X29230914Y-38441400D01*
X28972995Y-38492704D01*
X28730041Y-38593339D01*
X28511387Y-38739438D01*
X28325438Y-38925387D01*
X28179339Y-39144041D01*
X28078704Y-39386995D01*
X28027400Y-39644914D01*
X28027400Y-39907886D01*
X28078704Y-40165805D01*
X28179339Y-40408759D01*
X28325438Y-40627413D01*
X28511387Y-40813362D01*
X28556043Y-40843200D01*
X28511387Y-40873038D01*
X28325438Y-41058987D01*
X28179339Y-41277641D01*
X28078704Y-41520595D01*
X28027400Y-41778514D01*
X28027400Y-42041486D01*
X28048755Y-42148844D01*
X27530603Y-42666996D01*
X27501599Y-42690799D01*
X27446471Y-42757974D01*
X27406626Y-42806524D01*
X27379402Y-42857456D01*
X27336054Y-42938554D01*
X27292597Y-43081815D01*
X27281600Y-43193468D01*
X27281600Y-43193478D01*
X27277924Y-43230800D01*
X25315375Y-43230800D01*
X25277751Y-43179330D01*
X25085060Y-43002241D01*
X25064133Y-42989500D01*
X25085060Y-42976759D01*
X25277751Y-42799670D01*
X25432192Y-42588392D01*
X25542447Y-42351044D01*
X25575116Y-42243329D01*
X25451774Y-42037000D01*
X24409400Y-42037000D01*
X24155400Y-42037000D01*
X24135400Y-42037000D01*
X24135400Y-41783000D01*
X24155400Y-41783000D01*
X24155400Y-41763000D01*
X24409400Y-41763000D01*
X24409400Y-41783000D01*
X25451774Y-41783000D01*
X25575116Y-41576671D01*
X25542447Y-41468956D01*
X25432192Y-41231608D01*
X25277751Y-41020330D01*
X25086591Y-40844648D01*
X25133413Y-40813362D01*
X25319362Y-40627413D01*
X25465461Y-40408759D01*
X25566096Y-40165805D01*
X25617400Y-39907886D01*
X25617400Y-39644914D01*
X25566096Y-39386995D01*
X25465461Y-39144041D01*
X25319362Y-38925387D01*
X25133413Y-38739438D01*
X24914759Y-38593339D01*
X24671805Y-38492704D01*
X24413886Y-38441400D01*
X24150914Y-38441400D01*
X23892995Y-38492704D01*
X23650041Y-38593339D01*
X23520000Y-38680229D01*
X23520000Y-38113600D01*
X30769928Y-38113600D01*
X30773000Y-38677850D01*
X30931750Y-38836600D01*
X32131000Y-38836600D01*
X32131000Y-37637350D01*
X31972250Y-37478600D01*
X31408000Y-37475528D01*
X31283518Y-37487788D01*
X31163820Y-37524098D01*
X31053506Y-37583063D01*
X30956815Y-37662415D01*
X30877463Y-37759106D01*
X30818498Y-37869420D01*
X30782188Y-37989118D01*
X30769928Y-38113600D01*
X23520000Y-38113600D01*
X23520000Y-37116277D01*
X23525047Y-37064803D01*
X23530622Y-37046338D01*
X23539678Y-37029306D01*
X23551870Y-37014357D01*
X23566732Y-37002062D01*
X23583696Y-36992889D01*
X23602129Y-36987183D01*
X23651446Y-36982000D01*
X67912723Y-36982000D01*
X67964197Y-36987047D01*
G37*
%TD.AperFunction*%
%TD*%
M02*
