%TF.GenerationSoftware,KiCad,Pcbnew,(5.1.8)-1*%
%TF.CreationDate,2021-01-31T15:43:31-07:00*%
%TF.ProjectId,Axle-Tx-PCB(STM32)v2,41786c65-2d54-4782-9d50-43422853544d,rev?*%
%TF.SameCoordinates,Original*%
%TF.FileFunction,Legend,Top*%
%TF.FilePolarity,Positive*%
%FSLAX46Y46*%
G04 Gerber Fmt 4.6, Leading zero omitted, Abs format (unit mm)*
G04 Created by KiCad (PCBNEW (5.1.8)-1) date 2021-01-31 15:43:31*
%MOMM*%
%LPD*%
G01*
G04 APERTURE LIST*
%TA.AperFunction,Profile*%
%ADD10C,0.050000*%
%TD*%
%ADD11C,0.300000*%
%ADD12C,0.120000*%
%ADD13C,0.150000*%
G04 APERTURE END LIST*
D10*
X67945000Y-36322000D02*
G75*
G02*
X68707000Y-37084000I0J-762000D01*
G01*
X68707000Y-51308000D02*
G75*
G02*
X67945000Y-52070000I-762000J0D01*
G01*
X23622000Y-52070000D02*
G75*
G02*
X22860000Y-51308000I0J762000D01*
G01*
X22860000Y-37084000D02*
G75*
G02*
X23622000Y-36322000I762000J0D01*
G01*
X22860000Y-51308000D02*
X22860000Y-37084000D01*
X67945000Y-52070000D02*
X23622000Y-52070000D01*
X68707000Y-37084000D02*
X68707000Y-51308000D01*
X23622000Y-36322000D02*
X67945000Y-36322000D01*
D11*
X63878685Y-42773600D02*
X63807257Y-42845028D01*
X63735828Y-42773600D01*
X63807257Y-42702171D01*
X63878685Y-42773600D01*
X63735828Y-42773600D01*
D12*
%TO.C,J1*%
X30928000Y-37633600D02*
X32258000Y-37633600D01*
X30928000Y-38963600D02*
X30928000Y-37633600D01*
X33528000Y-37633600D02*
X36128000Y-37633600D01*
X33528000Y-40233600D02*
X33528000Y-37633600D01*
X30928000Y-40233600D02*
X33528000Y-40233600D01*
X36128000Y-37633600D02*
X36128000Y-47913600D01*
X30928000Y-40233600D02*
X30928000Y-47913600D01*
X30928000Y-47913600D02*
X36128000Y-47913600D01*
%TO.C,STM32*%
X42668800Y-48168800D02*
X42668800Y-48618800D01*
X42668800Y-48618800D02*
X43118800Y-48618800D01*
X42668800Y-41848800D02*
X42668800Y-41398800D01*
X42668800Y-41398800D02*
X43118800Y-41398800D01*
X49888800Y-48168800D02*
X49888800Y-48618800D01*
X49888800Y-48618800D02*
X49438800Y-48618800D01*
X49888800Y-41848800D02*
X49888800Y-41398800D01*
X49888800Y-41398800D02*
X49438800Y-41398800D01*
X49438800Y-41398800D02*
X49438800Y-40108800D01*
%TO.C,SWD1*%
X50486000Y-48657200D02*
X50486000Y-51317200D01*
X58166000Y-48657200D02*
X50486000Y-48657200D01*
X58166000Y-51317200D02*
X50486000Y-51317200D01*
X58166000Y-48657200D02*
X58166000Y-51317200D01*
X59436000Y-48657200D02*
X60766000Y-48657200D01*
X60766000Y-48657200D02*
X60766000Y-49987200D01*
%TO.C,SG4*%
X28742400Y-42830000D02*
X24902400Y-42830000D01*
X28742400Y-40990000D02*
X24902400Y-40990000D01*
%TO.C,SG3*%
X24902400Y-38856400D02*
X28742400Y-38856400D01*
X24902400Y-40696400D02*
X28742400Y-40696400D01*
%TO.C,SG2*%
X28742400Y-44989000D02*
X24902400Y-44989000D01*
X28742400Y-43149000D02*
X24902400Y-43149000D01*
%TO.C,SG1*%
X24902400Y-45282600D02*
X28742400Y-45282600D01*
X24902400Y-47122600D02*
X28742400Y-47122600D01*
%TO.C,R6*%
X28022733Y-48004000D02*
X28365267Y-48004000D01*
X28022733Y-49024000D02*
X28365267Y-49024000D01*
%TO.C,R5*%
X52190467Y-38610000D02*
X51847933Y-38610000D01*
X52190467Y-37590000D02*
X51847933Y-37590000D01*
%TO.C,R4*%
X53473533Y-46073600D02*
X53816067Y-46073600D01*
X53473533Y-47093600D02*
X53816067Y-47093600D01*
%TO.C,R2*%
X55962733Y-38047200D02*
X56305267Y-38047200D01*
X55962733Y-39067200D02*
X56305267Y-39067200D01*
%TO.C,R1*%
X55911933Y-39876000D02*
X56254467Y-39876000D01*
X55911933Y-40896000D02*
X56254467Y-40896000D01*
%TO.C,F1*%
X65234736Y-45673600D02*
X66438864Y-45673600D01*
X65234736Y-47493600D02*
X66438864Y-47493600D01*
%TO.C,LED2*%
X59410800Y-39895400D02*
X63470800Y-39895400D01*
X63470800Y-39895400D02*
X63470800Y-37625400D01*
X63470800Y-37625400D02*
X59410800Y-37625400D01*
%TO.C,LED1*%
X59410800Y-42181400D02*
X63470800Y-42181400D01*
X63470800Y-42181400D02*
X63470800Y-39911400D01*
X63470800Y-39911400D02*
X59410800Y-39911400D01*
%TO.C,D1*%
X63890800Y-42942000D02*
X63890800Y-44942000D01*
X63890800Y-44942000D02*
X67740800Y-44942000D01*
X63890800Y-42942000D02*
X67740800Y-42942000D01*
%TO.C,C7*%
X57278600Y-45117652D02*
X57278600Y-44595148D01*
X58748600Y-45117652D02*
X58748600Y-44595148D01*
%TO.C,C6*%
X66067000Y-40799652D02*
X66067000Y-40277148D01*
X67537000Y-40799652D02*
X67537000Y-40277148D01*
%TO.C,C4*%
X38990600Y-47454452D02*
X38990600Y-46931948D01*
X40460600Y-47454452D02*
X40460600Y-46931948D01*
%TO.C,C3*%
X41460052Y-51382600D02*
X40937548Y-51382600D01*
X41460052Y-49912600D02*
X40937548Y-49912600D01*
%TO.C,C2*%
X44391948Y-37619000D02*
X44914452Y-37619000D01*
X44391948Y-39089000D02*
X44914452Y-39089000D01*
%TO.C,C1*%
X53668600Y-42867948D02*
X53668600Y-43390452D01*
X52198600Y-42867948D02*
X52198600Y-43390452D01*
%TO.C,B+1*%
X65176400Y-51266400D02*
X65176400Y-48606400D01*
X65176400Y-51266400D02*
X67776400Y-51266400D01*
X67776400Y-51266400D02*
X67776400Y-48606400D01*
X65176400Y-48606400D02*
X67776400Y-48606400D01*
X62576400Y-48606400D02*
X63906400Y-48606400D01*
X62576400Y-49936400D02*
X62576400Y-48606400D01*
%TO.C,3v3reg1*%
X62012400Y-43348000D02*
X60212400Y-43348000D01*
X60212400Y-46568000D02*
X62662400Y-46568000D01*
%TD*%
%TO.C,J1*%
D13*
X30603866Y-37196780D02*
X30603866Y-37911066D01*
X30556247Y-38053923D01*
X30461009Y-38149161D01*
X30318152Y-38196780D01*
X30222914Y-38196780D01*
X31603866Y-38196780D02*
X31032438Y-38196780D01*
X31318152Y-38196780D02*
X31318152Y-37196780D01*
X31222914Y-37339638D01*
X31127676Y-37434876D01*
X31032438Y-37482495D01*
%TO.C,STM32*%
X45053523Y-43076761D02*
X45196380Y-43124380D01*
X45434476Y-43124380D01*
X45529714Y-43076761D01*
X45577333Y-43029142D01*
X45624952Y-42933904D01*
X45624952Y-42838666D01*
X45577333Y-42743428D01*
X45529714Y-42695809D01*
X45434476Y-42648190D01*
X45244000Y-42600571D01*
X45148761Y-42552952D01*
X45101142Y-42505333D01*
X45053523Y-42410095D01*
X45053523Y-42314857D01*
X45101142Y-42219619D01*
X45148761Y-42172000D01*
X45244000Y-42124380D01*
X45482095Y-42124380D01*
X45624952Y-42172000D01*
X45910666Y-42124380D02*
X46482095Y-42124380D01*
X46196380Y-43124380D02*
X46196380Y-42124380D01*
X46815428Y-43124380D02*
X46815428Y-42124380D01*
X47148761Y-42838666D01*
X47482095Y-42124380D01*
X47482095Y-43124380D01*
X47863047Y-42124380D02*
X48482095Y-42124380D01*
X48148761Y-42505333D01*
X48291619Y-42505333D01*
X48386857Y-42552952D01*
X48434476Y-42600571D01*
X48482095Y-42695809D01*
X48482095Y-42933904D01*
X48434476Y-43029142D01*
X48386857Y-43076761D01*
X48291619Y-43124380D01*
X48005904Y-43124380D01*
X47910666Y-43076761D01*
X47863047Y-43029142D01*
X48863047Y-42219619D02*
X48910666Y-42172000D01*
X49005904Y-42124380D01*
X49244000Y-42124380D01*
X49339238Y-42172000D01*
X49386857Y-42219619D01*
X49434476Y-42314857D01*
X49434476Y-42410095D01*
X49386857Y-42552952D01*
X48815428Y-43124380D01*
X49434476Y-43124380D01*
%TO.C,SWD1*%
X57399466Y-51763561D02*
X57542323Y-51811180D01*
X57780419Y-51811180D01*
X57875657Y-51763561D01*
X57923276Y-51715942D01*
X57970895Y-51620704D01*
X57970895Y-51525466D01*
X57923276Y-51430228D01*
X57875657Y-51382609D01*
X57780419Y-51334990D01*
X57589942Y-51287371D01*
X57494704Y-51239752D01*
X57447085Y-51192133D01*
X57399466Y-51096895D01*
X57399466Y-51001657D01*
X57447085Y-50906419D01*
X57494704Y-50858800D01*
X57589942Y-50811180D01*
X57828038Y-50811180D01*
X57970895Y-50858800D01*
X58304228Y-50811180D02*
X58542323Y-51811180D01*
X58732800Y-51096895D01*
X58923276Y-51811180D01*
X59161371Y-50811180D01*
X59542323Y-51811180D02*
X59542323Y-50811180D01*
X59780419Y-50811180D01*
X59923276Y-50858800D01*
X60018514Y-50954038D01*
X60066133Y-51049276D01*
X60113752Y-51239752D01*
X60113752Y-51382609D01*
X60066133Y-51573085D01*
X60018514Y-51668323D01*
X59923276Y-51763561D01*
X59780419Y-51811180D01*
X59542323Y-51811180D01*
X61066133Y-51811180D02*
X60494704Y-51811180D01*
X60780419Y-51811180D02*
X60780419Y-50811180D01*
X60685180Y-50954038D01*
X60589942Y-51049276D01*
X60494704Y-51096895D01*
%TO.C,SG4*%
X25509695Y-42365561D02*
X25652552Y-42413180D01*
X25890647Y-42413180D01*
X25985885Y-42365561D01*
X26033504Y-42317942D01*
X26081123Y-42222704D01*
X26081123Y-42127466D01*
X26033504Y-42032228D01*
X25985885Y-41984609D01*
X25890647Y-41936990D01*
X25700171Y-41889371D01*
X25604933Y-41841752D01*
X25557314Y-41794133D01*
X25509695Y-41698895D01*
X25509695Y-41603657D01*
X25557314Y-41508419D01*
X25604933Y-41460800D01*
X25700171Y-41413180D01*
X25938266Y-41413180D01*
X26081123Y-41460800D01*
X27033504Y-41460800D02*
X26938266Y-41413180D01*
X26795409Y-41413180D01*
X26652552Y-41460800D01*
X26557314Y-41556038D01*
X26509695Y-41651276D01*
X26462076Y-41841752D01*
X26462076Y-41984609D01*
X26509695Y-42175085D01*
X26557314Y-42270323D01*
X26652552Y-42365561D01*
X26795409Y-42413180D01*
X26890647Y-42413180D01*
X27033504Y-42365561D01*
X27081123Y-42317942D01*
X27081123Y-41984609D01*
X26890647Y-41984609D01*
X27938266Y-41746514D02*
X27938266Y-42413180D01*
X27700171Y-41365561D02*
X27462076Y-42079847D01*
X28081123Y-42079847D01*
%TO.C,SG3*%
X25509695Y-40079561D02*
X25652552Y-40127180D01*
X25890647Y-40127180D01*
X25985885Y-40079561D01*
X26033504Y-40031942D01*
X26081123Y-39936704D01*
X26081123Y-39841466D01*
X26033504Y-39746228D01*
X25985885Y-39698609D01*
X25890647Y-39650990D01*
X25700171Y-39603371D01*
X25604933Y-39555752D01*
X25557314Y-39508133D01*
X25509695Y-39412895D01*
X25509695Y-39317657D01*
X25557314Y-39222419D01*
X25604933Y-39174800D01*
X25700171Y-39127180D01*
X25938266Y-39127180D01*
X26081123Y-39174800D01*
X27033504Y-39174800D02*
X26938266Y-39127180D01*
X26795409Y-39127180D01*
X26652552Y-39174800D01*
X26557314Y-39270038D01*
X26509695Y-39365276D01*
X26462076Y-39555752D01*
X26462076Y-39698609D01*
X26509695Y-39889085D01*
X26557314Y-39984323D01*
X26652552Y-40079561D01*
X26795409Y-40127180D01*
X26890647Y-40127180D01*
X27033504Y-40079561D01*
X27081123Y-40031942D01*
X27081123Y-39698609D01*
X26890647Y-39698609D01*
X27414457Y-39127180D02*
X28033504Y-39127180D01*
X27700171Y-39508133D01*
X27843028Y-39508133D01*
X27938266Y-39555752D01*
X27985885Y-39603371D01*
X28033504Y-39698609D01*
X28033504Y-39936704D01*
X27985885Y-40031942D01*
X27938266Y-40079561D01*
X27843028Y-40127180D01*
X27557314Y-40127180D01*
X27462076Y-40079561D01*
X27414457Y-40031942D01*
%TO.C,SG2*%
X25458895Y-44422961D02*
X25601752Y-44470580D01*
X25839847Y-44470580D01*
X25935085Y-44422961D01*
X25982704Y-44375342D01*
X26030323Y-44280104D01*
X26030323Y-44184866D01*
X25982704Y-44089628D01*
X25935085Y-44042009D01*
X25839847Y-43994390D01*
X25649371Y-43946771D01*
X25554133Y-43899152D01*
X25506514Y-43851533D01*
X25458895Y-43756295D01*
X25458895Y-43661057D01*
X25506514Y-43565819D01*
X25554133Y-43518200D01*
X25649371Y-43470580D01*
X25887466Y-43470580D01*
X26030323Y-43518200D01*
X26982704Y-43518200D02*
X26887466Y-43470580D01*
X26744609Y-43470580D01*
X26601752Y-43518200D01*
X26506514Y-43613438D01*
X26458895Y-43708676D01*
X26411276Y-43899152D01*
X26411276Y-44042009D01*
X26458895Y-44232485D01*
X26506514Y-44327723D01*
X26601752Y-44422961D01*
X26744609Y-44470580D01*
X26839847Y-44470580D01*
X26982704Y-44422961D01*
X27030323Y-44375342D01*
X27030323Y-44042009D01*
X26839847Y-44042009D01*
X27411276Y-43565819D02*
X27458895Y-43518200D01*
X27554133Y-43470580D01*
X27792228Y-43470580D01*
X27887466Y-43518200D01*
X27935085Y-43565819D01*
X27982704Y-43661057D01*
X27982704Y-43756295D01*
X27935085Y-43899152D01*
X27363657Y-44470580D01*
X27982704Y-44470580D01*
%TO.C,SG1*%
X25357295Y-46505761D02*
X25500152Y-46553380D01*
X25738247Y-46553380D01*
X25833485Y-46505761D01*
X25881104Y-46458142D01*
X25928723Y-46362904D01*
X25928723Y-46267666D01*
X25881104Y-46172428D01*
X25833485Y-46124809D01*
X25738247Y-46077190D01*
X25547771Y-46029571D01*
X25452533Y-45981952D01*
X25404914Y-45934333D01*
X25357295Y-45839095D01*
X25357295Y-45743857D01*
X25404914Y-45648619D01*
X25452533Y-45601000D01*
X25547771Y-45553380D01*
X25785866Y-45553380D01*
X25928723Y-45601000D01*
X26881104Y-45601000D02*
X26785866Y-45553380D01*
X26643009Y-45553380D01*
X26500152Y-45601000D01*
X26404914Y-45696238D01*
X26357295Y-45791476D01*
X26309676Y-45981952D01*
X26309676Y-46124809D01*
X26357295Y-46315285D01*
X26404914Y-46410523D01*
X26500152Y-46505761D01*
X26643009Y-46553380D01*
X26738247Y-46553380D01*
X26881104Y-46505761D01*
X26928723Y-46458142D01*
X26928723Y-46124809D01*
X26738247Y-46124809D01*
X27881104Y-46553380D02*
X27309676Y-46553380D01*
X27595390Y-46553380D02*
X27595390Y-45553380D01*
X27500152Y-45696238D01*
X27404914Y-45791476D01*
X27309676Y-45839095D01*
%TO.C,R6*%
X28078133Y-49880780D02*
X27744800Y-49404590D01*
X27506704Y-49880780D02*
X27506704Y-48880780D01*
X27887657Y-48880780D01*
X27982895Y-48928400D01*
X28030514Y-48976019D01*
X28078133Y-49071257D01*
X28078133Y-49214114D01*
X28030514Y-49309352D01*
X27982895Y-49356971D01*
X27887657Y-49404590D01*
X27506704Y-49404590D01*
X28935276Y-48880780D02*
X28744800Y-48880780D01*
X28649561Y-48928400D01*
X28601942Y-48976019D01*
X28506704Y-49118876D01*
X28459085Y-49309352D01*
X28459085Y-49690304D01*
X28506704Y-49785542D01*
X28554323Y-49833161D01*
X28649561Y-49880780D01*
X28840038Y-49880780D01*
X28935276Y-49833161D01*
X28982895Y-49785542D01*
X29030514Y-49690304D01*
X29030514Y-49452209D01*
X28982895Y-49356971D01*
X28935276Y-49309352D01*
X28840038Y-49261733D01*
X28649561Y-49261733D01*
X28554323Y-49309352D01*
X28506704Y-49356971D01*
X28459085Y-49452209D01*
%TO.C,R5*%
X51903333Y-39619180D02*
X51570000Y-39142990D01*
X51331904Y-39619180D02*
X51331904Y-38619180D01*
X51712857Y-38619180D01*
X51808095Y-38666800D01*
X51855714Y-38714419D01*
X51903333Y-38809657D01*
X51903333Y-38952514D01*
X51855714Y-39047752D01*
X51808095Y-39095371D01*
X51712857Y-39142990D01*
X51331904Y-39142990D01*
X52808095Y-38619180D02*
X52331904Y-38619180D01*
X52284285Y-39095371D01*
X52331904Y-39047752D01*
X52427142Y-39000133D01*
X52665238Y-39000133D01*
X52760476Y-39047752D01*
X52808095Y-39095371D01*
X52855714Y-39190609D01*
X52855714Y-39428704D01*
X52808095Y-39523942D01*
X52760476Y-39571561D01*
X52665238Y-39619180D01*
X52427142Y-39619180D01*
X52331904Y-39571561D01*
X52284285Y-39523942D01*
%TO.C,R4*%
X53528933Y-47950380D02*
X53195600Y-47474190D01*
X52957504Y-47950380D02*
X52957504Y-46950380D01*
X53338457Y-46950380D01*
X53433695Y-46998000D01*
X53481314Y-47045619D01*
X53528933Y-47140857D01*
X53528933Y-47283714D01*
X53481314Y-47378952D01*
X53433695Y-47426571D01*
X53338457Y-47474190D01*
X52957504Y-47474190D01*
X54386076Y-47283714D02*
X54386076Y-47950380D01*
X54147980Y-46902761D02*
X53909885Y-47617047D01*
X54528933Y-47617047D01*
%TO.C,R2*%
X55967333Y-39974780D02*
X55634000Y-39498590D01*
X55395904Y-39974780D02*
X55395904Y-38974780D01*
X55776857Y-38974780D01*
X55872095Y-39022400D01*
X55919714Y-39070019D01*
X55967333Y-39165257D01*
X55967333Y-39308114D01*
X55919714Y-39403352D01*
X55872095Y-39450971D01*
X55776857Y-39498590D01*
X55395904Y-39498590D01*
X56348285Y-39070019D02*
X56395904Y-39022400D01*
X56491142Y-38974780D01*
X56729238Y-38974780D01*
X56824476Y-39022400D01*
X56872095Y-39070019D01*
X56919714Y-39165257D01*
X56919714Y-39260495D01*
X56872095Y-39403352D01*
X56300666Y-39974780D01*
X56919714Y-39974780D01*
%TO.C,R1*%
X56068933Y-41803580D02*
X55735600Y-41327390D01*
X55497504Y-41803580D02*
X55497504Y-40803580D01*
X55878457Y-40803580D01*
X55973695Y-40851200D01*
X56021314Y-40898819D01*
X56068933Y-40994057D01*
X56068933Y-41136914D01*
X56021314Y-41232152D01*
X55973695Y-41279771D01*
X55878457Y-41327390D01*
X55497504Y-41327390D01*
X57021314Y-41803580D02*
X56449885Y-41803580D01*
X56735600Y-41803580D02*
X56735600Y-40803580D01*
X56640361Y-40946438D01*
X56545123Y-41041676D01*
X56449885Y-41089295D01*
%TO.C,F1*%
X65554266Y-47680571D02*
X65220933Y-47680571D01*
X65220933Y-48204380D02*
X65220933Y-47204380D01*
X65697123Y-47204380D01*
X66601885Y-48204380D02*
X66030457Y-48204380D01*
X66316171Y-48204380D02*
X66316171Y-47204380D01*
X66220933Y-47347238D01*
X66125695Y-47442476D01*
X66030457Y-47490095D01*
%TO.C,LED2*%
X60094952Y-38095180D02*
X59618761Y-38095180D01*
X59618761Y-37095180D01*
X60428285Y-37571371D02*
X60761619Y-37571371D01*
X60904476Y-38095180D02*
X60428285Y-38095180D01*
X60428285Y-37095180D01*
X60904476Y-37095180D01*
X61333047Y-38095180D02*
X61333047Y-37095180D01*
X61571142Y-37095180D01*
X61714000Y-37142800D01*
X61809238Y-37238038D01*
X61856857Y-37333276D01*
X61904476Y-37523752D01*
X61904476Y-37666609D01*
X61856857Y-37857085D01*
X61809238Y-37952323D01*
X61714000Y-38047561D01*
X61571142Y-38095180D01*
X61333047Y-38095180D01*
X62285428Y-37190419D02*
X62333047Y-37142800D01*
X62428285Y-37095180D01*
X62666380Y-37095180D01*
X62761619Y-37142800D01*
X62809238Y-37190419D01*
X62856857Y-37285657D01*
X62856857Y-37380895D01*
X62809238Y-37523752D01*
X62237809Y-38095180D01*
X62856857Y-38095180D01*
%TO.C,LED1*%
X60145752Y-40635180D02*
X59669561Y-40635180D01*
X59669561Y-39635180D01*
X60479085Y-40111371D02*
X60812419Y-40111371D01*
X60955276Y-40635180D02*
X60479085Y-40635180D01*
X60479085Y-39635180D01*
X60955276Y-39635180D01*
X61383847Y-40635180D02*
X61383847Y-39635180D01*
X61621942Y-39635180D01*
X61764800Y-39682800D01*
X61860038Y-39778038D01*
X61907657Y-39873276D01*
X61955276Y-40063752D01*
X61955276Y-40206609D01*
X61907657Y-40397085D01*
X61860038Y-40492323D01*
X61764800Y-40587561D01*
X61621942Y-40635180D01*
X61383847Y-40635180D01*
X62907657Y-40635180D02*
X62336228Y-40635180D01*
X62621942Y-40635180D02*
X62621942Y-39635180D01*
X62526704Y-39778038D01*
X62431466Y-39873276D01*
X62336228Y-39920895D01*
%TO.C,D1*%
X65301904Y-45461180D02*
X65301904Y-44461180D01*
X65540000Y-44461180D01*
X65682857Y-44508800D01*
X65778095Y-44604038D01*
X65825714Y-44699276D01*
X65873333Y-44889752D01*
X65873333Y-45032609D01*
X65825714Y-45223085D01*
X65778095Y-45318323D01*
X65682857Y-45413561D01*
X65540000Y-45461180D01*
X65301904Y-45461180D01*
X66825714Y-45461180D02*
X66254285Y-45461180D01*
X66540000Y-45461180D02*
X66540000Y-44461180D01*
X66444761Y-44604038D01*
X66349523Y-44699276D01*
X66254285Y-44746895D01*
%TO.C,C7*%
X57557942Y-44921466D02*
X57605561Y-44969085D01*
X57653180Y-45111942D01*
X57653180Y-45207180D01*
X57605561Y-45350038D01*
X57510323Y-45445276D01*
X57415085Y-45492895D01*
X57224609Y-45540514D01*
X57081752Y-45540514D01*
X56891276Y-45492895D01*
X56796038Y-45445276D01*
X56700800Y-45350038D01*
X56653180Y-45207180D01*
X56653180Y-45111942D01*
X56700800Y-44969085D01*
X56748419Y-44921466D01*
X56653180Y-44588133D02*
X56653180Y-43921466D01*
X57653180Y-44350038D01*
%TO.C,C6*%
X68022742Y-40705066D02*
X68070361Y-40752685D01*
X68117980Y-40895542D01*
X68117980Y-40990780D01*
X68070361Y-41133638D01*
X67975123Y-41228876D01*
X67879885Y-41276495D01*
X67689409Y-41324114D01*
X67546552Y-41324114D01*
X67356076Y-41276495D01*
X67260838Y-41228876D01*
X67165600Y-41133638D01*
X67117980Y-40990780D01*
X67117980Y-40895542D01*
X67165600Y-40752685D01*
X67213219Y-40705066D01*
X67117980Y-39847923D02*
X67117980Y-40038400D01*
X67165600Y-40133638D01*
X67213219Y-40181257D01*
X67356076Y-40276495D01*
X67546552Y-40324114D01*
X67927504Y-40324114D01*
X68022742Y-40276495D01*
X68070361Y-40228876D01*
X68117980Y-40133638D01*
X68117980Y-39943161D01*
X68070361Y-39847923D01*
X68022742Y-39800304D01*
X67927504Y-39752685D01*
X67689409Y-39752685D01*
X67594171Y-39800304D01*
X67546552Y-39847923D01*
X67498933Y-39943161D01*
X67498933Y-40133638D01*
X67546552Y-40228876D01*
X67594171Y-40276495D01*
X67689409Y-40324114D01*
%TO.C,C4*%
X38390533Y-47601142D02*
X38342914Y-47648761D01*
X38200057Y-47696380D01*
X38104819Y-47696380D01*
X37961961Y-47648761D01*
X37866723Y-47553523D01*
X37819104Y-47458285D01*
X37771485Y-47267809D01*
X37771485Y-47124952D01*
X37819104Y-46934476D01*
X37866723Y-46839238D01*
X37961961Y-46744000D01*
X38104819Y-46696380D01*
X38200057Y-46696380D01*
X38342914Y-46744000D01*
X38390533Y-46791619D01*
X39247676Y-47029714D02*
X39247676Y-47696380D01*
X39009580Y-46648761D02*
X38771485Y-47363047D01*
X39390533Y-47363047D01*
%TO.C,C3*%
X40930533Y-51817542D02*
X40882914Y-51865161D01*
X40740057Y-51912780D01*
X40644819Y-51912780D01*
X40501961Y-51865161D01*
X40406723Y-51769923D01*
X40359104Y-51674685D01*
X40311485Y-51484209D01*
X40311485Y-51341352D01*
X40359104Y-51150876D01*
X40406723Y-51055638D01*
X40501961Y-50960400D01*
X40644819Y-50912780D01*
X40740057Y-50912780D01*
X40882914Y-50960400D01*
X40930533Y-51008019D01*
X41263866Y-50912780D02*
X41882914Y-50912780D01*
X41549580Y-51293733D01*
X41692438Y-51293733D01*
X41787676Y-51341352D01*
X41835295Y-51388971D01*
X41882914Y-51484209D01*
X41882914Y-51722304D01*
X41835295Y-51817542D01*
X41787676Y-51865161D01*
X41692438Y-51912780D01*
X41406723Y-51912780D01*
X41311485Y-51865161D01*
X41263866Y-51817542D01*
%TO.C,C2*%
X44486533Y-39625542D02*
X44438914Y-39673161D01*
X44296057Y-39720780D01*
X44200819Y-39720780D01*
X44057961Y-39673161D01*
X43962723Y-39577923D01*
X43915104Y-39482685D01*
X43867485Y-39292209D01*
X43867485Y-39149352D01*
X43915104Y-38958876D01*
X43962723Y-38863638D01*
X44057961Y-38768400D01*
X44200819Y-38720780D01*
X44296057Y-38720780D01*
X44438914Y-38768400D01*
X44486533Y-38816019D01*
X44867485Y-38816019D02*
X44915104Y-38768400D01*
X45010342Y-38720780D01*
X45248438Y-38720780D01*
X45343676Y-38768400D01*
X45391295Y-38816019D01*
X45438914Y-38911257D01*
X45438914Y-39006495D01*
X45391295Y-39149352D01*
X44819866Y-39720780D01*
X45438914Y-39720780D01*
%TO.C,C1*%
X54205142Y-43245066D02*
X54252761Y-43292685D01*
X54300380Y-43435542D01*
X54300380Y-43530780D01*
X54252761Y-43673638D01*
X54157523Y-43768876D01*
X54062285Y-43816495D01*
X53871809Y-43864114D01*
X53728952Y-43864114D01*
X53538476Y-43816495D01*
X53443238Y-43768876D01*
X53348000Y-43673638D01*
X53300380Y-43530780D01*
X53300380Y-43435542D01*
X53348000Y-43292685D01*
X53395619Y-43245066D01*
X54300380Y-42292685D02*
X54300380Y-42864114D01*
X54300380Y-42578400D02*
X53300380Y-42578400D01*
X53443238Y-42673638D01*
X53538476Y-42768876D01*
X53586095Y-42864114D01*
%TO.C,B+1*%
X64812990Y-51185771D02*
X64955847Y-51233390D01*
X65003466Y-51281009D01*
X65051085Y-51376247D01*
X65051085Y-51519104D01*
X65003466Y-51614342D01*
X64955847Y-51661961D01*
X64860609Y-51709580D01*
X64479657Y-51709580D01*
X64479657Y-50709580D01*
X64812990Y-50709580D01*
X64908228Y-50757200D01*
X64955847Y-50804819D01*
X65003466Y-50900057D01*
X65003466Y-50995295D01*
X64955847Y-51090533D01*
X64908228Y-51138152D01*
X64812990Y-51185771D01*
X64479657Y-51185771D01*
X65479657Y-51328628D02*
X66241561Y-51328628D01*
X65860609Y-51709580D02*
X65860609Y-50947676D01*
X67241561Y-51709580D02*
X66670133Y-51709580D01*
X66955847Y-51709580D02*
X66955847Y-50709580D01*
X66860609Y-50852438D01*
X66765371Y-50947676D01*
X66670133Y-50995295D01*
%TO.C,3v3reg1*%
X57747257Y-46442380D02*
X58366304Y-46442380D01*
X58032971Y-46823333D01*
X58175828Y-46823333D01*
X58271066Y-46870952D01*
X58318685Y-46918571D01*
X58366304Y-47013809D01*
X58366304Y-47251904D01*
X58318685Y-47347142D01*
X58271066Y-47394761D01*
X58175828Y-47442380D01*
X57890114Y-47442380D01*
X57794876Y-47394761D01*
X57747257Y-47347142D01*
X58699638Y-46775714D02*
X58937733Y-47442380D01*
X59175828Y-46775714D01*
X59461542Y-46442380D02*
X60080590Y-46442380D01*
X59747257Y-46823333D01*
X59890114Y-46823333D01*
X59985352Y-46870952D01*
X60032971Y-46918571D01*
X60080590Y-47013809D01*
X60080590Y-47251904D01*
X60032971Y-47347142D01*
X59985352Y-47394761D01*
X59890114Y-47442380D01*
X59604400Y-47442380D01*
X59509161Y-47394761D01*
X59461542Y-47347142D01*
X60509161Y-47442380D02*
X60509161Y-46775714D01*
X60509161Y-46966190D02*
X60556780Y-46870952D01*
X60604400Y-46823333D01*
X60699638Y-46775714D01*
X60794876Y-46775714D01*
X61509161Y-47394761D02*
X61413923Y-47442380D01*
X61223447Y-47442380D01*
X61128209Y-47394761D01*
X61080590Y-47299523D01*
X61080590Y-46918571D01*
X61128209Y-46823333D01*
X61223447Y-46775714D01*
X61413923Y-46775714D01*
X61509161Y-46823333D01*
X61556780Y-46918571D01*
X61556780Y-47013809D01*
X61080590Y-47109047D01*
X62413923Y-46775714D02*
X62413923Y-47585238D01*
X62366304Y-47680476D01*
X62318685Y-47728095D01*
X62223447Y-47775714D01*
X62080590Y-47775714D01*
X61985352Y-47728095D01*
X62413923Y-47394761D02*
X62318685Y-47442380D01*
X62128209Y-47442380D01*
X62032971Y-47394761D01*
X61985352Y-47347142D01*
X61937733Y-47251904D01*
X61937733Y-46966190D01*
X61985352Y-46870952D01*
X62032971Y-46823333D01*
X62128209Y-46775714D01*
X62318685Y-46775714D01*
X62413923Y-46823333D01*
X63413923Y-47442380D02*
X62842495Y-47442380D01*
X63128209Y-47442380D02*
X63128209Y-46442380D01*
X63032971Y-46585238D01*
X62937733Y-46680476D01*
X62842495Y-46728095D01*
%TD*%
M02*
