M48
; DRILL file {KiCad (5.1.8)-1} date 01/31/21 15:44:21
; FORMAT={2:4/ absolute / inch / suppress leading zeros}
; #@! TF.CreationDate,2021-01-31T15:44:21-07:00
; #@! TF.GenerationSoftware,Kicad,Pcbnew,(5.1.8)-1
; #@! TF.FileFunction,Plated,1,2,PTH
FMAT,2
INCH,TZ
T1C0.0157
T2C0.0276
T3C0.0394
%
G90
G05
T1
X10240Y-19100
X15020Y-18180
X15340Y-20000
X16600Y-16180
X17160Y-18420
X17240Y-16680
X17240Y-17080
X17520Y-18080
X18540Y-15240
X21400Y-17388
X21960Y-18360
X22288Y-17252
X24020Y-17680
X25160Y-15720
X26300Y-14960
T2
X9560Y-18190
X11560Y-18190
X9560Y-15660
X11560Y-15660
X9560Y-16500
X11560Y-16500
X9560Y-17350
X11560Y-17350
T3
X12700Y-15340
X12700Y-16340
X12700Y-17340
X12700Y-18340
X13700Y-15340
X13700Y-16340
X13700Y-17340
X13700Y-18340
X25160Y-19660
X26160Y-19660
X20400Y-19680
X21400Y-19680
X22400Y-19680
X23400Y-19680
T0
M30
